<?xml version="1.0" encoding="utf-8"?>
<!-- Generator: Adobe Illustrator 26.0.1, SVG Export Plug-In . SVG Version: 6.00 Build 0)  -->
<!DOCTYPE svg PUBLIC "-//W3C//DTD SVG 1.1//EN" "http://www.w3.org/Graphics/SVG/1.1/DTD/svg11.dtd" [
	<!ENTITY ns_extend "http://ns.adobe.com/Extensibility/1.0/">
	<!ENTITY ns_ai "http://ns.adobe.com/AdobeIllustrator/10.0/">
	<!ENTITY ns_graphs "http://ns.adobe.com/Graphs/1.0/">
	<!ENTITY ns_vars "http://ns.adobe.com/Variables/1.0/">
	<!ENTITY ns_imrep "http://ns.adobe.com/ImageReplacement/1.0/">
	<!ENTITY ns_sfw "http://ns.adobe.com/SaveForWeb/1.0/">
	<!ENTITY ns_custom "http://ns.adobe.com/GenericCustomNamespace/1.0/">
	<!ENTITY ns_adobe_xpath "http://ns.adobe.com/XPath/1.0/">
]>
<svg version="1.1" id="Layer_1" xmlns:x="&ns_extend;" xmlns:i="&ns_ai;" xmlns:graph="&ns_graphs;"
	 xmlns="http://www.w3.org/2000/svg" xmlns:xlink="http://www.w3.org/1999/xlink" x="0px" y="0px" viewBox="0 0 200 80.3"
	 style="enable-background:new 0 0 200 80.3;" xml:space="preserve">
<style type="text/css">
	.st0{fill:#080505;}
	.st1{fill:#F8AF41;}
	.st2{fill:#376278;}
	.st3{fill:#FFC663;}
	.st4{fill:#F6CE76;}
	.st5{fill:#0D98BB;}
	.st6{fill:#70B599;}
	.st7{fill:#EAE3AC;}
	.st8{fill:#91060D;}
	.st9{fill:#2D628C;}
	.st10{fill:#012944;}
	.st11{fill:#043754;}
	.st12{fill:#1D324D;}
	.st13{fill:#8C7449;}
	.st14{fill:#003756;}
	.st15{fill:#53B2D3;}
	.st16{fill:#082042;}
	.st17{fill:#055985;}
	.st18{fill:#A08C6A;}
	.st19{clip-path:url(#SVGID_00000034793374062731510150000008211013031112331423_);}
	.st20{filter:url(#Adobe_OpacityMaskFilter);}
	.st21{opacity:0.9;mask:url(#SVGID_00000054973818055315427390000018067835256745893557_);fill:#FFFFFF;}
	.st22{filter:url(#Adobe_OpacityMaskFilter_00000030480984998430161620000000686411022248103852_);}
	.st23{opacity:0.75;mask:url(#SVGID_00000062883346287826741740000010680540345870520705_);}
	.st24{filter:url(#Adobe_OpacityMaskFilter_00000169543540961817313190000012998220701477961090_);}
	.st25{mask:url(#SVGID_00000081611023279102046230000004277476446432500631_);fill:#FFFFFF;}
	.st26{filter:url(#Adobe_OpacityMaskFilter_00000048485366230401235700000011391893761119754670_);}
	.st27{opacity:0.75;mask:url(#SVGID_00000103231744349145294530000006498960696318170780_);}
	.st28{fill:none;stroke:#000000;stroke-width:1.2;}
	.st29{clip-path:url(#SVGID_00000171718433690685875690000015876377068025380005_);}
	.st30{fill:#1E2731;}
	.st31{fill:#777779;}
	
		.st32{clip-path:url(#SVGID_00000033336616347166262160000001042483111853472418_);fill:url(#SVGID_00000142135250344984750500000009911151416254444174_);}
</style>
<metadata>
	<sfw  xmlns="&ns_sfw;">
		<slices></slices>
		<sliceSourceBounds  bottomLeftOrigin="true" height="515.4" width="2527.2" x="1.1" y="-405.1"></sliceSourceBounds>
	</sfw>
</metadata>
<g>
	<polygon points="87,14.7 88.6,14.7 88.6,5 91.8,5 91.8,4.8 83.9,4.8 83.9,5 87,5 	"/>
	<polygon points="98.3,9.8 103.1,9.8 103.1,14.7 104.8,14.7 104.8,4.8 103.1,4.8 103.1,9.6 98.3,9.6 98.3,4.8 96.7,4.8 96.7,14.7 
		98.3,14.7 	"/>
	<polygon points="116.5,14.4 111.4,14.4 111.4,14.4 111.4,8.8 115.8,8.8 115.8,8.6 111.4,8.6 111.4,5 116.4,5 116.4,4.8 109.8,4.8 
		109.8,14.7 116.5,14.7 	"/>
	<path d="M14.2,40.8c0.9-1.1,1.3-2.4,1.3-3.9l0,0c0-1-0.2-1.9-0.5-2.6c-0.4-0.8-0.9-1.4-1.6-2.1c-0.7-0.5-1.6-1-2.7-1.3
		c-1.1-0.3-2.3-0.4-3.8-0.4H0.6v19.2h3.2v-6.3h2.7l5.9,6.3H16L10.1,43C11.9,42.5,13.3,41.8,14.2,40.8 M6.5,42.8H3.7l0,0V30.8h2.8
		c1,0,1.8,0.2,2.5,0.5c0.7,0.4,1.3,0.8,1.9,1.4c0.5,0.6,0.9,1.3,1.1,2c0.3,0.7,0.4,1.3,0.4,2.1c0,0.7-0.1,1.3-0.4,2.1
		c-0.3,0.7-0.6,1.3-1.1,1.9c-0.4,0.5-1.1,1.1-1.9,1.4C8.3,42.6,7.5,42.8,6.5,42.8"/>
	<polygon points="29,38.3 37.6,38.3 37.6,37.8 29,37.8 29,30.9 38.8,30.9 38.8,30.3 25.8,30.3 25.8,49.6 39,49.6 39,49.1 29,49.1 	
		"/>
	<path d="M61.1,39.9c-0.8-0.4-1.7-0.9-2.6-1.3c-1-0.4-1.8-0.7-2.6-1.1s-1.5-0.9-2.1-1.4c-0.5-0.5-0.8-1.3-0.8-2.1l0,0
		c0-0.4,0.1-0.8,0.3-1.3c0.2-0.4,0.4-0.8,0.8-1.1c0.4-0.3,0.8-0.6,1.3-0.8c0.5-0.2,1.3-0.3,2-0.3c0.7,0,1.4,0.1,2,0.2
		c0.6,0.2,1.2,0.3,1.6,0.4c0.5,0.2,1,0.4,1.4,0.7l0.4-0.5c-0.5-0.3-1.1-0.5-1.8-0.7c-0.5-0.2-1.3-0.4-2-0.4
		c-0.7-0.1-1.6-0.3-2.5-0.3c-1.2,0-2.2,0.2-3.1,0.4c-0.9,0.3-1.6,0.7-2.2,1.2s-1,1-1.3,1.6c-0.3,0.6-0.4,1.3-0.4,1.9
		c0,0.8,0.2,1.4,0.4,2c0.3,0.5,0.7,1.1,1.3,1.4c0.5,0.4,1.1,0.8,1.7,1.1c0.6,0.4,1.3,0.6,2,0.9c0.7,0.3,1.3,0.5,2,0.9
		c0.6,0.3,1.3,0.6,1.7,1s0.9,0.8,1.3,1.3c0.3,0.4,0.4,1.1,0.4,1.7c0,0.5-0.1,1.1-0.4,1.5c-0.3,0.4-0.6,0.8-1.1,1.1s-1,0.5-1.6,0.7
		c-0.6,0.2-1.3,0.3-2.1,0.3c-1.2,0-2.1-0.1-2.9-0.3c-0.8-0.2-1.4-0.4-1.9-0.7c-0.5-0.3-1-0.6-1.3-1l-0.4,0.4
		c0.4,0.4,0.9,0.7,1.5,1.1c0.5,0.3,1.3,0.5,2.2,0.7c0.9,0.2,2,0.4,3.2,0.4c1.5,0,2.8-0.2,3.9-0.4c1.1-0.4,1.9-0.8,2.6-1.3
		c0.7-0.5,1.2-1.1,1.4-1.7c0.3-0.6,0.4-1.3,0.4-1.9c0-1.1-0.3-2-0.8-2.7C62.5,41,61.9,40.5,61.1,39.9"/>
	<rect x="73.5" y="30.3" width="3.2" height="19.2"/>
	<path d="M100.2,33.4c-0.8-0.9-1.7-1.6-2.9-2.2c-1.2-0.5-2.5-0.8-4-0.8h-6.8v19.2h6.8c1.5,0,2.9-0.3,4-0.8c1.2-0.5,2.2-1.3,2.9-2.2
		c0.8-0.9,1.3-1.9,1.7-3.1c0.4-1.2,0.6-2.3,0.6-3.5s-0.2-2.4-0.6-3.5C101.6,35.3,101,34.3,100.2,33.4 M98.9,43.4
		c-0.3,1.1-0.7,2.1-1.3,2.9c-0.5,0.8-1.3,1.5-2.2,2.1c-0.8,0.5-1.9,0.8-3,0.8l0,0h-2.8V30.9h2.8c1.2,0,2.2,0.3,3,0.8
		c0.8,0.5,1.5,1.3,2.2,2.1c0.5,0.8,1,1.8,1.3,2.9c0.3,1.1,0.4,2.2,0.4,3.3S99.1,42.3,98.9,43.4"/>
	<polygon points="125.2,30.9 125.2,30.3 112.3,30.3 112.3,49.6 125.4,49.6 125.4,49.1 115.4,49.1 115.4,38.3 124.1,38.3 124.1,37.8 
		115.4,37.8 115.4,30.9 	"/>
	<polygon points="150.9,45.5 136.4,30.3 135.1,30.3 135.1,49.7 135.7,49.7 135.7,34 150.3,49.7 151.4,49.7 151.4,30.3 150.9,30.3 	
		"/>
	<path d="M166.2,33.6c0.5-0.9,1.3-1.6,2.2-2.2c0.9-0.5,1.9-0.8,3.1-0.8c0.9,0,1.6,0.1,2.2,0.2c0.6,0.2,1.2,0.3,1.5,0.4
		c0.4,0.2,0.9,0.4,1.3,0.7l0.4-0.4c-0.4-0.3-0.8-0.5-1.3-0.7c-0.4-0.2-1-0.4-1.7-0.4c-0.7-0.2-1.5-0.3-2.4-0.3
		c-1.8,0-3.3,0.3-4.7,0.8c-1.3,0.5-2.4,1.3-3.2,2.2c-0.9,0.9-1.5,2-1.9,3.1c-0.4,1.2-0.5,2.4-0.5,3.6c0.1,1.3,0.4,2.4,0.8,3.6
		c0.4,1.2,1.3,2.2,2.2,3.1c0.9,0.9,2.1,1.7,3.4,2.2c1.3,0.5,3,0.8,4.8,0.8c0.8,0,1.5-0.1,2.1-0.2c0.5-0.1,1.1-0.3,1.4-0.4
		c0.4-0.2,0.8-0.4,1.1-0.5l-0.4-0.4c-0.3,0.2-0.7,0.4-1.1,0.4c-0.4,0.1-0.8,0.3-1.3,0.4c-0.5,0.1-1.2,0.2-1.8,0.2
		c-1.3,0-2.3-0.3-3.2-0.8c-0.9-0.5-1.7-1.3-2.3-2.2c-0.6-0.9-1.1-1.9-1.4-3.1c-0.4-1.1-0.5-2.2-0.5-3.4s0.1-2.3,0.4-3.4
		C165.2,35.4,165.7,34.5,166.2,33.6"/>
	<polygon points="189.8,49.1 189.8,49.1 189.8,38.3 198.4,38.3 198.4,37.8 189.8,37.8 189.8,30.9 199.6,30.9 199.6,30.3 186.6,30.3 
		186.6,49.6 199.9,49.6 199.9,49.1 	"/>
	<path d="M52.5,76.8c0.2-0.1,0.4-0.3,0.4-0.4c0.2-0.3,0.3-0.5,0.3-0.9c0-0.3-0.1-0.5-0.2-0.8c-0.2-0.2-0.4-0.4-0.6-0.5
		c-0.3-0.1-0.5-0.2-0.9-0.2h-2.2v5.8h2.2c0.4,0,0.7-0.1,1-0.2c0.3-0.1,0.5-0.4,0.6-0.5c0.1-0.2,0.3-0.5,0.3-0.9c0-0.4-0.1-0.7-0.4-1
		C52.9,77.1,52.7,76.9,52.5,76.8 M49.8,74.4h1.7c0.4,0,0.7,0.1,1,0.3c0.3,0.2,0.4,0.4,0.4,0.8c0,0.4-0.1,0.6-0.3,0.8
		c-0.2,0.2-0.4,0.3-0.8,0.3h-1.9L49.8,74.4L49.8,74.4z M52.6,79.2c-0.3,0.3-0.6,0.4-1.1,0.4h-1.8V77h1.9c0.3,0,0.5,0.1,0.7,0.2
		c0.2,0.1,0.4,0.3,0.4,0.4c0.1,0.2,0.2,0.4,0.2,0.6C53,78.7,52.9,79,52.6,79.2"/>
	<path d="M62.7,77.9c0,0.4-0.1,0.6-0.3,0.9c-0.2,0.3-0.4,0.4-0.6,0.6c-0.3,0.2-0.5,0.2-0.9,0.2s-0.6-0.1-0.9-0.2
		c-0.3-0.2-0.4-0.4-0.6-0.6c-0.2-0.3-0.3-0.5-0.3-0.9v-3.8h-0.4v3.8c0,0.4,0.1,0.7,0.3,1.1c0.2,0.3,0.4,0.5,0.7,0.7
		c0.3,0.2,0.7,0.3,1.1,0.3c0.4,0,0.7-0.1,1.1-0.3c0.4-0.2,0.5-0.4,0.7-0.7c0.2-0.3,0.3-0.6,0.3-1.1V74h-0.4L62.7,77.9L62.7,77.9z"/>
	<path d="M71.9,77c0.3-0.1,0.4-0.4,0.6-0.5c0.2-0.3,0.2-0.5,0.2-0.8s-0.1-0.6-0.2-0.8c-0.2-0.3-0.4-0.4-0.6-0.5
		c-0.3-0.1-0.6-0.2-1-0.2h-2.1V80h0.4v-2.7h1.3l2.2,2.7h0.5L71,77.3C71.4,77.2,71.6,77.2,71.9,77 M69.3,76.9v-2.4H71
		c0.4,0,0.8,0.1,1.1,0.4c0.3,0.2,0.4,0.5,0.4,0.9c0,0.4-0.1,0.6-0.4,0.9C71.8,76.8,71.5,77,71,77L69.3,76.9L69.3,76.9z"/>
	<path d="M80.5,78.2c0,0.4-0.1,0.6-0.2,0.8c-0.1,0.2-0.3,0.4-0.4,0.4c-0.2,0.1-0.4,0.2-0.6,0.2c-0.3,0-0.4-0.1-0.7-0.2
		c-0.2-0.1-0.4-0.3-0.5-0.4v-0.1l-0.3,0.3l0,0c0.2,0.2,0.4,0.4,0.6,0.5c0.3,0.1,0.5,0.2,0.8,0.2s0.5-0.1,0.8-0.2
		c0.3-0.1,0.4-0.4,0.6-0.6c0.2-0.3,0.3-0.6,0.3-1v-4.1h-0.4V78.2z"/>
	<polygon points="97.3,74 96.7,74 93.3,76.7 93.3,74 92.9,74 92.9,80 93.3,80 93.3,77.1 96.8,80 96.8,80 97.3,80 93.7,76.9 	"/>
	<polygon points="106.4,76.7 102.9,76.7 102.9,74 102.6,74 102.6,80 102.9,80 102.9,77.1 106.4,77.1 106.4,80 106.8,80 106.8,74 
		106.4,74 	"/>
	<path d="M115,74h-0.4l-2.3,5.8v0.1h0.4l0.8-1.9h2.7l0.7,1.9l0,0h0.4L115,74L115,74z M113.5,77.7l1.3-3.1l1.3,3.1H113.5z"/>
	<polygon points="123,74 122.6,74 122.6,80 126.2,80 126.2,79.6 123,79.6 	"/>
	<rect x="131.6" y="74" width="0.4" height="5.8"/>
	<polygon points="137.8,80 138.3,80 138.3,77.2 141.3,77.2 141.3,76.8 138.3,76.8 138.3,74.4 141.5,74.4 141.5,74 137.8,74 	"/>
	<path d="M148.7,74h-0.4l-2.3,5.8v0.1h0.4l0.8-1.9h2.7l0.7,1.9l0,0h0.4L148.7,74L148.7,74z M147.3,77.7l1.3-3.1l1.3,3.1H147.3z"/>
</g>
</svg>
