<?xml version="1.0" encoding="utf-8"?>
<!-- Generator: Adobe Illustrator 26.0.1, SVG Export Plug-In . SVG Version: 6.00 Build 0)  -->
<!DOCTYPE svg PUBLIC "-//W3C//DTD SVG 1.1//EN" "http://www.w3.org/Graphics/SVG/1.1/DTD/svg11.dtd" [
	<!ENTITY ns_extend "http://ns.adobe.com/Extensibility/1.0/">
	<!ENTITY ns_ai "http://ns.adobe.com/AdobeIllustrator/10.0/">
	<!ENTITY ns_graphs "http://ns.adobe.com/Graphs/1.0/">
	<!ENTITY ns_vars "http://ns.adobe.com/Variables/1.0/">
	<!ENTITY ns_imrep "http://ns.adobe.com/ImageReplacement/1.0/">
	<!ENTITY ns_sfw "http://ns.adobe.com/SaveForWeb/1.0/">
	<!ENTITY ns_custom "http://ns.adobe.com/GenericCustomNamespace/1.0/">
	<!ENTITY ns_adobe_xpath "http://ns.adobe.com/XPath/1.0/">
]>
<svg version="1.1" id="Layer_1" xmlns:x="&ns_extend;" xmlns:i="&ns_ai;" xmlns:graph="&ns_graphs;"
	 xmlns="http://www.w3.org/2000/svg" xmlns:xlink="http://www.w3.org/1999/xlink" x="0px" y="0px" viewBox="0 0 200 42.8"
	 style="enable-background:new 0 0 200 42.8;" xml:space="preserve">
<style type="text/css">
	.st0{fill:#808184;}
	.st1{clip-path:url(#SVGID_00000090271967381644824780000009311837095902972822_);}
	.st2{fill:#AC9C63;}
	.st3{fill:#038295;}
	
		.st4{clip-path:url(#SVGID_00000178169301160827787350000005856529069117223816_);fill:url(#SVGID_00000055679378872084667900000009839384301317121681_);}
	
		.st5{clip-path:url(#SVGID_00000162312255072598752000000005074338119469703555_);fill:url(#SVGID_00000155849436104860452880000015968151444053199798_);}
	
		.st6{clip-path:url(#SVGID_00000034064549147550685300000000139237954214663099_);fill:url(#SVGID_00000119101926175128418600000002558099858720545973_);}
	.st7{fill:url(#SVGID_00000151503977563690402800000017747413152942834339_);}
	.st8{fill:url(#SVGID_00000097464810505902904010000015140477897489374085_);}
	.st9{fill:url(#SVGID_00000135659186037166387300000015471546247701637791_);}
	.st10{fill:url(#SVGID_00000098917285294286481760000012462829213312385191_);}
	.st11{fill:url(#SVGID_00000137834848932887717730000016939827988712290195_);}
	.st12{fill:url(#SVGID_00000134943329761174533730000014415371947368789897_);}
	.st13{fill:url(#SVGID_00000171700126318354407990000001388557642007605639_);}
	.st14{fill:url(#SVGID_00000085932549529279744920000017342642929051198373_);}
	.st15{fill:url(#SVGID_00000033338143418652132820000013528194994571350971_);}
	.st16{fill:url(#SVGID_00000144324322737158012910000011035475016624034748_);}
	.st17{fill:url(#SVGID_00000074421070784535204040000010903550764054093718_);}
	.st18{fill:url(#SVGID_00000129169890448618502740000016658317636499072430_);}
	.st19{fill:url(#SVGID_00000116948938961822355270000009484761286524676792_);}
	.st20{fill:url(#SVGID_00000031887064815363915870000005582616176088618661_);}
	.st21{fill:url(#SVGID_00000124153090007101009190000001126171136645573284_);}
	.st22{fill:url(#SVGID_00000003098807771832772700000004123224507038344106_);}
	.st23{fill:url(#SVGID_00000059297419849666558590000005374569774905173167_);}
	.st24{fill:url(#SVGID_00000166657399774580390410000018365892946430573757_);}
	.st25{fill:url(#SVGID_00000043420289669716858330000017699829657970686105_);}
	.st26{fill:url(#SVGID_00000055697592386800094970000015502244357638968239_);}
	.st27{fill:url(#SVGID_00000072258495173634775730000004149233771182955180_);}
	.st28{fill:url(#SVGID_00000069398868582320468700000009472848305149403804_);}
	.st29{fill:url(#SVGID_00000018208668366770144010000005980486855463905948_);}
	.st30{fill:url(#SVGID_00000038390367827705485220000007964457005862366136_);}
	.st31{fill:url(#SVGID_00000090982594662092542150000011345487179980482433_);}
	.st32{fill:url(#SVGID_00000178887157175991187980000001990017144313914243_);}
	.st33{fill:url(#SVGID_00000037652748131761755290000014939376437165113267_);}
	.st34{fill:url(#SVGID_00000160173964556234130170000013963436531017703074_);}
	.st35{fill:url(#SVGID_00000024686173581972184350000013822467270325235598_);}
	.st36{fill:url(#SVGID_00000121249428349911639290000010938303185158053767_);}
	.st37{fill:url(#SVGID_00000075133651180278901360000001124570881893993378_);}
	.st38{fill:url(#SVGID_00000059307613734488793150000016599045484915712171_);}
	.st39{fill:url(#SVGID_00000084501770915510271310000004438610131011662761_);}
	.st40{fill:url(#SVGID_00000100360001662925564310000005684988940942195329_);}
	.st41{fill:url(#SVGID_00000176736638364795837390000016494202953464657326_);}
	.st42{fill:url(#SVGID_00000012456424520062471480000010872400507691269761_);}
	.st43{fill:url(#SVGID_00000100359287179532731890000000273126180894975619_);}
	.st44{fill:url(#SVGID_00000048490919246371377850000017939992136668599230_);}
	.st45{fill:url(#SVGID_00000054944106188943826960000004699607063094452902_);}
	.st46{fill:url(#SVGID_00000079464916080523013730000013233375727908869773_);}
	.st47{fill:url(#SVGID_00000080911732701550111720000000941529132900628142_);}
	.st48{fill:url(#SVGID_00000020370342533669065500000009249521278625568650_);}
	.st49{fill:url(#SVGID_00000095336323738167483450000016045013601879574153_);}
	.st50{fill:url(#SVGID_00000085933789552037971920000015821082872617570189_);}
	.st51{fill:url(#SVGID_00000132072192043989863710000001259549068575270579_);}
	.st52{fill:url(#SVGID_00000137099249346432628640000002983380287634267008_);}
	.st53{fill:url(#SVGID_00000072975201208533645180000008569205335020713909_);}
	.st54{fill:#6AC1D5;}
	.st55{fill:#73BAB2;}
	.st56{fill:url(#SVGID_00000044882025333976388970000008529348867503535511_);}
	.st57{fill:url(#SVGID_00000049925773611893956550000004591007819028733358_);}
	.st58{fill:url(#SVGID_00000081618540999728987430000002675667876127053958_);}
	.st59{fill:url(#SVGID_00000123403085862928794960000008943135709829878195_);}
	.st60{fill:url(#SVGID_00000087402794565744973000000010891299670896665244_);}
	.st61{fill:url(#SVGID_00000003788167567895158020000018167039364968039051_);}
	.st62{fill:url(#SVGID_00000047759610210611685320000007761006245953244034_);}
	.st63{fill:url(#SVGID_00000177466405044892682610000001699359943511870634_);}
	.st64{fill:url(#SVGID_00000018227940029280358920000009324988962588526482_);}
	.st65{fill:url(#SVGID_00000078743204511245550290000007966763470239392391_);}
	.st66{fill:url(#SVGID_00000036253322644425650160000000613460501877328003_);}
	.st67{fill:url(#SVGID_00000056428668421107478950000002906949346291518108_);}
	.st68{fill:url(#SVGID_00000155831505981797266060000003813071172086221703_);}
	.st69{fill:url(#SVGID_00000000904316129297864290000010603598875863308702_);}
	.st70{fill:url(#SVGID_00000081609141723587671420000002085797793852698289_);}
	.st71{fill:url(#SVGID_00000023260602084886842020000018118441639051307197_);}
	.st72{fill:url(#SVGID_00000017502512304244482820000009620353206445365122_);}
	.st73{fill:url(#SVGID_00000114780325877216001620000016752977080388246693_);}
	.st74{fill:url(#SVGID_00000034806570668304809710000001874385449961728400_);}
	.st75{fill:url(#SVGID_00000013174106635979390100000009750491921610822841_);}
	.st76{fill:url(#SVGID_00000112604815660094473090000012359926461053840797_);}
	.st77{fill:url(#SVGID_00000124134169594996113980000010974020249310530957_);}
	.st78{fill:url(#SVGID_00000095326416419537465300000003753286862523453069_);}
	.st79{fill:url(#SVGID_00000003073760306397761340000010824095252529649562_);}
	.st80{fill:url(#SVGID_00000069376904187525394230000017156499972526598818_);}
	.st81{fill:url(#SVGID_00000014631409196671323590000012429562139462687421_);}
	.st82{fill:url(#SVGID_00000092441108671541555630000005449089778316732089_);}
	.st83{fill:url(#SVGID_00000109728159645624862450000015548195839021831316_);}
	.st84{fill:url(#SVGID_00000133487783829072604490000015792994890429349259_);}
	.st85{fill:url(#SVGID_00000160877792835762169350000001605066611823344318_);}
	.st86{fill:url(#SVGID_00000124146180343172322790000002691832638509445265_);}
	.st87{fill:url(#SVGID_00000031918221194176568880000000736980734552949422_);}
	.st88{fill:url(#SVGID_00000085221608755023919550000015635996739555972025_);}
	.st89{fill:url(#SVGID_00000054257580978805702310000001748593910241469352_);}
	.st90{fill:#004F54;}
	.st91{fill-rule:evenodd;clip-rule:evenodd;fill:#065055;}
</style>
<metadata>
	<sfw  xmlns="&ns_sfw;">
		<slices></slices>
		<sliceSourceBounds  bottomLeftOrigin="true" height="536.8" width="2527.3" x="0.4" y="-381.9"></sliceSourceBounds>
	</sfw>
</metadata>
<rect x="0.5" y="24.1" class="st90" width="199.2" height="0.2"/>
<path class="st90" d="M17.2,12.9V3.7c0,0,0,0,0,0h6.1c0,0,0,0,0,0v1.6c0,0,0,0,0,0l-4.3,0v2.2l3,0c0,0,0,0,0,0v1.6c0,0,0,0,0,0l-3,0
	v2h4.7c0,0,0,0,0,0v1.6c0,0,0,0,0,0L17.2,12.9C17.2,13,17.2,13,17.2,12.9"/>
<path class="st90" d="M26.2,12.9l3.4-4.5l-3.3-4.7c0,0,0-0.1,0-0.1h2.1c0,0,0,0,0,0L30.7,7l2.5-3.3l0,0h1.9c0,0,0.1,0,0,0.1
	l-3.5,4.6l3.3,4.6c0,0,0,0.1,0,0.1h-2.1c0,0,0,0,0,0l-2.2-3.2L28.3,13l0,0L26.2,12.9C26.2,13,26.2,12.9,26.2,12.9"/>
<path class="st90" d="M41.8,8c0.8,0,1.6-0.6,1.6-1.3c0-0.8-0.7-1.4-1.7-1.4h-1.6V8H41.8z M38.3,12.9V3.7c0,0,0,0,0,0H42
	c1.7,0,2.9,1.2,2.9,2.9c0,2.2-1.5,2.9-2.6,3l-2.3,0.1v3.3c0,0,0,0,0,0L38.3,12.9C38.3,13,38.3,13,38.3,12.9"/>
<path class="st90" d="M55.3,8.4c0-1.8-1.3-3.2-3-3.2c-1.9,0-3,1.4-3,3.2c0,1.7,1.1,3.2,3,3.2C54.2,11.5,55.3,10.1,55.3,8.4
	 M47.4,8.4c0-3,2.4-4.9,4.9-4.9c2.6,0,4.8,2.1,4.8,4.9c0,2.7-2.2,4.8-4.8,4.8C49.4,13.1,47.4,10.8,47.4,8.4"/>
<path class="st90" d="M64.7,8.5c0-3,2.2-5,4.5-5c2.3,0,3.5,1.1,3.8,2.7c0,0,0,0,0,0l-1.5,0.5c0,0,0,0-0.1,0
	c-0.2-0.8-0.6-1.7-2.1-1.7c-1.7,0-2.8,1.1-2.8,3.2c0,1.8,0.9,3.2,2.8,3.2c1.3,0,2.4-0.6,2.4-1.6V9.7l-2.3,0c0,0,0,0,0,0V8.1
	c0,0,0,0,0,0h3.9c0,0,0,0,0,0V13c0,0,0,0,0,0h-1.5c0,0,0,0,0,0v-0.8c-0.5,0.7-1.5,1-2.6,1C66.6,13.1,64.7,11,64.7,8.5"/>
<path class="st90" d="M84.1,8.4c0-1.8-1.3-3.2-3-3.2c-1.9,0-3,1.4-3,3.2c0,1.7,1.1,3.2,3,3.2C83,11.5,84.1,10.1,84.1,8.4 M76.2,8.4
	c0-3,2.4-4.9,4.9-4.9c2.6,0,4.8,2.1,4.8,4.9c0,2.7-2.2,4.8-4.8,4.8C78.2,13.1,76.2,10.8,76.2,8.4"/>
<path class="st90" d="M89.2,12.9V3.7c0,0,0,0,0,0h1.7c0,0,0,0,0,0v7.5l4.7,0c0,0,0,0,0,0v1.6c0,0,0,0,0,0L89.2,12.9
	C89.2,13,89.2,13,89.2,12.9"/>
<path class="st90" d="M99.1,12.9V3.7c0,0,0,0,0,0h6.1c0,0,0,0,0,0v1.6c0,0,0,0,0,0l-4.3,0v2.3l2.7,0c0,0,0,0,0,0v1.6c0,0,0,0,0,0
	l-2.7,0v3.5c0,0,0,0,0,0L99.1,12.9C99.1,13,99.1,13,99.1,12.9"/>
<path class="st90" d="M116.4,12.9l-3.6-9.2c0,0,0-0.1,0-0.1h1.9c0,0,0,0,0,0l2.3,6.3l2.5-6.3c0,0,0,0,0,0h1.8c0,0,0.1,0,0,0.1
	l-3.8,9.2c0,0,0,0,0,0L116.4,12.9C116.4,13,116.4,13,116.4,12.9"/>
<path class="st90" d="M124.7,12.9V3.7c0,0,0,0,0,0h1.7c0,0,0,0,0,0v9.2c0,0,0,0,0,0L124.7,12.9C124.8,13,124.7,13,124.7,12.9"/>
<path class="st90" d="M130.7,12.9V3.7c0,0,0,0,0,0h1.7c0,0,0,0,0,0v7.5l4.7,0c0,0,0,0,0,0v1.6c0,0,0,0,0,0L130.7,12.9
	C130.7,13,130.7,13,130.7,12.9"/>
<path class="st90" d="M140.6,12.9V3.7c0,0,0,0,0,0h1.7c0,0,0,0,0,0v7.5l4.7,0c0,0,0,0,0,0v1.6c0,0,0,0,0,0L140.6,12.9
	C140.6,13,140.6,13,140.6,12.9"/>
<path class="st90" d="M155.1,8.9l-1-2.6L153,8.9H155.1z M149.5,12.9l3.9-9.2c0,0,0,0,0,0h1.4c0,0,0,0,0,0l3.7,9.2c0,0,0,0.1,0,0.1
	h-1.8c0,0,0,0,0,0l-1-2.5h-3.3l-1,2.5c0,0,0,0,0,0L149.5,12.9C149.5,13,149.4,12.9,149.5,12.9"/>
<path class="st90" d="M160.6,11.3C160.6,11.3,160.6,11.2,160.6,11.3l1.2-0.9c0,0,0.1,0,0.1,0c0.5,0.8,1.4,1.2,2.2,1.2
	c0.8,0,1.2-0.5,1.2-1c0-0.6-0.4-1.1-1.4-1.5c-1.7-0.6-2.7-1.4-2.7-3c0-1.5,1.2-2.6,2.7-2.6c1.5,0,2.5,0.8,3,1.6c0,0,0,0,0,0.1
	l-1.1,0.9c0,0,0,0-0.1,0c-0.5-0.6-1.1-1-1.8-1c-0.7,0-1,0.4-1,1.1c0,0.6,0.5,0.9,1.5,1.2c1.6,0.5,2.6,1.6,2.6,2.9
	c0,1.5-0.9,2.8-3.1,2.8C162.2,13.1,161.1,12.1,160.6,11.3"/>
<path class="st90" d="M175.4,11.1C175.4,11,175.4,11,175.4,11.1l1.4-0.8c0,0,0,0,0.1,0c0.4,0.8,1.2,1.3,2.7,1.3
	c0.9,0,1.7-0.5,1.7-1.5c0-0.8-0.8-1.3-1.8-1.3c-0.9,0-1.7,0.2-2,0.4h0l-1.1-0.7c0,0,0,0,0,0V3.9c0,0,0,0,0,0h5.7c0,0,0,0,0,0v1.5
	c0,0,0,0,0,0h-4.2v2c0.3-0.1,1-0.3,1.9-0.3c1.2,0,3.2,0.6,3.2,3c0,1.7-1.5,3-3.7,3C177.4,13.1,176,12.4,175.4,11.1"/>
<polygon class="st90" points="55.3,35.2 55.3,42.5 60.4,42.5 60.4,42.1 56.6,42.1 56.6,38.8 59.2,38.8 59.2,38.3 56.6,38.3 
	56.6,35.7 60.4,35.7 60.4,35.2 "/>
<polygon class="st90" points="70,35.2 67.2,40.8 67.2,40.8 64.3,35.2 63.1,35.2 63.1,42.5 63.6,42.5 63.6,36.6 63.7,36.6 66.7,42.5 
	67,42.5 70,36.5 70,36.5 70,42.5 71.3,42.5 71.3,35.2 "/>
<path class="st90" d="M77,35l-3.5,7.5h0.6l1.2-2.5h3.1l1.1,2.5h1.2L77.3,35H77z M76.8,36.7l1.3,2.9h-2.7L76.8,36.7z"/>
<path class="st90" d="M85.6,35l-3.5,7.5h0.6l1.2-2.5H87l1.1,2.5h1.2L85.9,35H85.6z M85.5,36.7l1.3,2.9h-2.7L85.5,36.7z"/>
<path class="st90" d="M95.7,38.7c0.2-0.1,0.4-0.3,0.6-0.4c0.2-0.2,0.3-0.3,0.4-0.5c0.1-0.2,0.1-0.4,0.1-0.6c0-0.3-0.1-0.5-0.2-0.8
	c-0.1-0.2-0.3-0.4-0.5-0.6c-0.2-0.2-0.5-0.3-0.8-0.4c-0.3-0.1-0.7-0.1-1.2-0.1h-2.5v7.4h1.2v-3.5h0.9l2.5,3.5h1.4L95,39
	C95.3,38.9,95.5,38.8,95.7,38.7 M94.3,38.6c-0.2,0.1-0.5,0.1-0.8,0.1h-0.7v-3.1h1.1c0.2,0,0.4,0,0.6,0.1c0.2,0.1,0.4,0.2,0.5,0.3
	c0.1,0.1,0.2,0.3,0.3,0.5c0.1,0.2,0.1,0.4,0.1,0.6c0,0.2,0,0.5-0.1,0.6c-0.1,0.2-0.2,0.4-0.4,0.5C94.7,38.4,94.5,38.5,94.3,38.6"/>
<path class="st90" d="M108.2,39.3c-0.2-0.2-0.4-0.3-0.7-0.5c-0.2-0.1-0.5-0.3-0.8-0.4c-0.3-0.1-0.5-0.3-0.8-0.4
	c-0.2-0.1-0.5-0.3-0.7-0.4c-0.2-0.1-0.3-0.3-0.5-0.5c-0.1-0.2-0.2-0.3-0.2-0.5c0-0.1,0-0.3,0.1-0.4c0.1-0.1,0.1-0.2,0.3-0.4
	c0.1-0.1,0.3-0.2,0.4-0.3c0.2-0.1,0.4-0.1,0.6-0.1c0.3,0,0.5,0,0.7,0.1c0.2,0.1,0.4,0.2,0.5,0.3c0.2,0.1,0.3,0.3,0.4,0.5
	c0.1,0.2,0.2,0.4,0.3,0.6l0.6-0.3c-0.2-0.6-0.5-1-0.9-1.3c-0.4-0.3-0.9-0.4-1.6-0.4c-0.4,0-0.7,0-1,0.2c-0.3,0.1-0.5,0.2-0.7,0.4
	c-0.2,0.2-0.4,0.4-0.5,0.6c-0.1,0.2-0.2,0.5-0.2,0.8c0,0.3,0.1,0.5,0.2,0.7c0.1,0.2,0.3,0.4,0.5,0.6c0.2,0.2,0.4,0.3,0.6,0.5
	c0.2,0.1,0.5,0.3,0.7,0.4c0.3,0.1,0.5,0.3,0.7,0.4c0.2,0.1,0.5,0.3,0.6,0.4c0.2,0.1,0.3,0.3,0.5,0.5c0.1,0.2,0.2,0.4,0.2,0.6
	c0,0.2,0,0.4-0.1,0.5c-0.1,0.1-0.2,0.3-0.3,0.4c-0.1,0.1-0.3,0.2-0.5,0.2c-0.2,0-0.4,0.1-0.5,0.1c-0.2,0-0.5,0-0.7-0.1
	c-0.2-0.1-0.4-0.2-0.6-0.3c-0.2-0.1-0.3-0.3-0.5-0.5c-0.1-0.2-0.2-0.4-0.3-0.6l-0.7,0.3c0.1,0.3,0.2,0.5,0.4,0.7
	c0.2,0.2,0.3,0.4,0.5,0.5c0.2,0.1,0.5,0.3,0.7,0.3c0.3,0.1,0.6,0.1,0.9,0.1c0.4,0,0.8-0.1,1.1-0.2c0.3-0.1,0.6-0.3,0.8-0.5
	c0.2-0.2,0.4-0.4,0.5-0.7c0.1-0.3,0.2-0.5,0.2-0.8c0-0.3-0.1-0.5-0.2-0.7C108.5,39.7,108.4,39.5,108.2,39.3"/>
<path class="st90" d="M118.7,36.9c-0.2-0.3-0.4-0.5-0.6-0.8c-0.2-0.2-0.5-0.4-0.8-0.6c-0.3-0.2-0.6-0.3-1-0.4
	c-0.3-0.1-0.7-0.1-1.1-0.1c-0.4,0-0.7,0-1.1,0.1c-0.3,0.1-0.7,0.2-1,0.4c-0.3,0.2-0.6,0.4-0.8,0.6c-0.2,0.2-0.5,0.5-0.6,0.8
	c-0.2,0.3-0.3,0.6-0.4,0.9c-0.1,0.3-0.1,0.7-0.1,1c0,0.4,0,0.7,0.1,1c0.1,0.3,0.2,0.6,0.4,0.9c0.2,0.3,0.4,0.6,0.6,0.8
	c0.2,0.2,0.5,0.4,0.8,0.6c0.3,0.2,0.6,0.3,1,0.4c0.3,0.1,0.7,0.1,1.1,0.1c0.4,0,0.7,0,1.1-0.1c0.3-0.1,0.7-0.2,1-0.4
	c0.3-0.2,0.6-0.4,0.8-0.6c0.2-0.2,0.5-0.5,0.6-0.8c0.2-0.3,0.3-0.6,0.4-0.9c0.1-0.3,0.1-0.7,0.1-1c0-0.4,0-0.7-0.1-1
	C119,37.5,118.9,37.2,118.7,36.9 M117.6,40.2c-0.1,0.4-0.3,0.8-0.5,1.1c-0.2,0.3-0.5,0.6-0.8,0.7c-0.3,0.2-0.7,0.3-1.1,0.3
	c-0.4,0-0.8-0.1-1.1-0.3c-0.3-0.2-0.6-0.4-0.8-0.7c-0.2-0.3-0.4-0.7-0.5-1.1c-0.1-0.4-0.2-0.9-0.2-1.4c0-0.5,0.1-1,0.2-1.4
	c0.1-0.4,0.3-0.8,0.5-1.1c0.2-0.3,0.5-0.5,0.8-0.7c0.3-0.2,0.7-0.3,1.1-0.3c0.4,0,0.8,0.1,1.1,0.3c0.3,0.2,0.6,0.4,0.8,0.7
	c0.2,0.3,0.4,0.7,0.5,1.1c0.1,0.4,0.2,0.9,0.2,1.4C117.8,39.3,117.8,39.8,117.6,40.2"/>
<path class="st90" d="M127.7,40c0,0.3-0.1,0.6-0.2,0.9c-0.1,0.3-0.3,0.5-0.5,0.7c-0.2,0.2-0.4,0.4-0.7,0.5c-0.3,0.1-0.6,0.2-0.9,0.2
	c-0.3,0-0.7-0.1-0.9-0.2c-0.3-0.1-0.5-0.3-0.7-0.5c-0.2-0.2-0.4-0.5-0.5-0.7c-0.1-0.3-0.2-0.6-0.2-0.9v-4.8h-1.2v4.7
	c0,0.4,0.1,0.7,0.2,1.1c0.1,0.3,0.3,0.6,0.6,0.9c0.3,0.3,0.6,0.5,1,0.6c0.4,0.1,0.8,0.2,1.3,0.2c0.6,0,1.1-0.1,1.5-0.2
	c0.4-0.1,0.7-0.3,1-0.6c0.3-0.3,0.4-0.5,0.6-0.9c0.1-0.3,0.2-0.7,0.2-1.1v-4.8h-0.5V40z"/>
<polygon class="st90" points="130.5,35.2 130.5,35.7 133.2,35.7 133.2,42.5 134.4,42.5 134.4,35.7 137.1,35.7 137.1,35.2 "/>
<polygon class="st90" points="144.4,35.2 144.4,38.5 140.7,38.5 140.7,35.2 139.5,35.2 139.5,42.5 140.7,42.5 140.7,39 144.4,39 
	144.4,42.5 145.6,42.5 145.6,35.2 "/>
</svg>
