<?xml version="1.0" encoding="utf-8"?>
<!-- Generator: Adobe Illustrator 26.0.1, SVG Export Plug-In . SVG Version: 6.00 Build 0)  -->
<!DOCTYPE svg PUBLIC "-//W3C//DTD SVG 1.1//EN" "http://www.w3.org/Graphics/SVG/1.1/DTD/svg11.dtd" [
	<!ENTITY ns_extend "http://ns.adobe.com/Extensibility/1.0/">
	<!ENTITY ns_ai "http://ns.adobe.com/AdobeIllustrator/10.0/">
	<!ENTITY ns_graphs "http://ns.adobe.com/Graphs/1.0/">
	<!ENTITY ns_vars "http://ns.adobe.com/Variables/1.0/">
	<!ENTITY ns_imrep "http://ns.adobe.com/ImageReplacement/1.0/">
	<!ENTITY ns_sfw "http://ns.adobe.com/SaveForWeb/1.0/">
	<!ENTITY ns_custom "http://ns.adobe.com/GenericCustomNamespace/1.0/">
	<!ENTITY ns_adobe_xpath "http://ns.adobe.com/XPath/1.0/">
]>
<svg version="1.1" id="Layer_1" xmlns:x="&ns_extend;" xmlns:i="&ns_ai;" xmlns:graph="&ns_graphs;"
	 xmlns="http://www.w3.org/2000/svg" xmlns:xlink="http://www.w3.org/1999/xlink" x="0px" y="0px" viewBox="0 0 79.1 70"
	 style="enable-background:new 0 0 79.1 70;" xml:space="preserve">
<style type="text/css">
	.st0{fill:#5F705D;}
	.st1{fill:#010101;}
	.st2{fill:none;}
	.st3{fill:#B4D1BF;}
	.st4{fill:#AB926D;}
	.st5{fill:#A3925F;}
	.st6{fill:#006846;}
</style>
<metadata>
	<sfw  xmlns="&ns_sfw;">
		<slices></slices>
		<sliceSourceBounds  bottomLeftOrigin="true" height="414.6" width="1236" x="96.3" y="-355.7"></sliceSourceBounds>
	</sfw>
</metadata>
<g>
	<path class="st4" d="M42.2,11.9c0.4-0.4,0.8-0.9,1-1.4c0.3-0.8,0.3-1.4-0.1-1.9C42.7,8.2,41.9,8,40.9,8h-3.7l-0.3,0.8h2.5
		c1.3,0,1.7,0.6,1.2,1.7c-0.3,0.6-0.5,1.2-1,1.4c-0.5,0.2-1,0.3-1.9,0.3l-1.2,0l0.9-2.1h-1.1l-1.2,2.9h3.3c0.9,0,1.7-0.1,2.2-0.3
		C41.2,12.6,41.7,12.3,42.2,11.9"/>
	<path class="st4" d="M34.9,69.9c-0.6,0-3.2-0.2-5.8-2.8c-0.6-0.5-10.2-8.9-16.5-20.9C12,45.4,0.4,26.6,0.4,3.9V3.3H1
		c1.3,0,2.3-1.1,2.3-2.3V0.4h33.3V1c0,1.3,1.1,2.3,2.3,2.3v1.2c-1.8,0-3.2-1.3-3.5-3h-31C4.3,3.1,3.1,4.2,1.6,4.5
		c0.2,22.4,11.8,40.9,11.9,41l0,0C20,57.7,29.8,66,29.9,66.1l0,0c2.5,2.6,4.9,2.5,5,2.5c1.1-0.1,1.9-0.5,2.4-1.1
		c0.9-1.1,0.7-2.5,0.7-2.6l0,0c-0.1-3.2-2.5-3.3-2.9-3.3c-2,0.2-2,2-2,2.2l0,0c0,0.9,0.6,1.3,0.9,1.4c0.3,0.1,0.5,0,0.6-0.1
		C35,65,35,64.7,35,64.7l1.2,0.2c0,0.1-0.1,0.9-0.8,1.4c-0.3,0.2-0.8,0.4-1.6,0.3c-0.9-0.2-1.8-1.1-1.8-2.6
		c-0.1-1.1,0.5-3.2,3.1-3.4l0,0c0,0,4,0,4.1,4.4c0,0.3,0.1,2-1,3.4c-0.8,0.9-1.9,1.4-3.3,1.6C35,69.9,34.9,69.9,34.9,69.9"/>
	<path class="st4" d="M41.9,64.8c0,0.6,0.5,1.1,1.1,1.1c0.6,0,1.1-0.5,1.1-1.1c0-0.6-0.5-1.1-1.1-1.1C42.4,63.7,41.9,64.2,41.9,64.8
		"/>
	<path class="st4" d="M43.2,69.9c-0.1,0-0.1,0-0.1,0c-1.5-0.1-2.6-0.6-3.3-1.6c-1.1-1.4-1-3.2-1-3.4c0.1-4.5,4.1-4.4,4.1-4.4l0,0
		c2.6,0.2,3.2,2.3,3.1,3.4c0,1.5-0.9,2.4-1.8,2.6c-0.8,0.2-1.3,0-1.6-0.3c-0.7-0.5-0.8-1.3-0.8-1.4l1.2-0.2c0,0.1,0.1,0.4,0.3,0.5
		c0.1,0.1,0.4,0.1,0.6,0.1c0.3-0.1,0.9-0.4,0.9-1.4l0,0c0-0.2,0-2-2-2.2c-0.3,0-2.8,0.1-2.9,3.3l0,0.1c0,0-0.1,1.5,0.7,2.6
		c0.5,0.6,1.4,1,2.5,1.1c0.1,0,2.5,0.1,5-2.5l0,0c0.1-0.1,9.9-8.4,16.3-20.6l0,0c0.1-0.2,11.7-18.6,11.9-41
		c-1.5-0.3-2.6-1.4-2.9-2.9h-31c-0.3,1.7-1.8,3-3.5,3V3.3c1.3,0,2.3-1.1,2.3-2.3V0.4h33.3V1c0,1.3,1.1,2.3,2.3,2.3h0.6v0.6
		c0,22.7-11.6,41.5-12.1,42.2c-6.4,12-16,20.4-16.5,20.9C46.5,69.7,43.8,69.9,43.2,69.9"/>
	<path class="st4" d="M34.9,69.9c-0.6,0-3.2-0.2-5.8-2.8c-0.6-0.5-10.2-8.9-16.5-20.9C12,45.4,0.4,26.6,0.4,3.9V3.3H1
		c1.3,0,2.3-1.1,2.3-2.3V0.4h33.3V1c0,1.3,1.1,2.3,2.3,2.3v1.2c-1.8,0-3.2-1.3-3.5-3h-31C4.3,3.1,3.1,4.2,1.6,4.5
		c0.2,22.4,11.8,40.9,11.9,41l0,0C20,57.7,29.8,66,29.9,66.1l0,0c2.5,2.6,4.9,2.5,5,2.5c1.1-0.1,1.9-0.5,2.4-1.1
		c0.9-1.1,0.7-2.5,0.7-2.6l0,0c-0.1-3.2-2.5-3.3-2.9-3.3c-2,0.2-2,2-2,2.2l0,0c0,0.9,0.6,1.3,0.9,1.4c0.3,0.1,0.5,0,0.6-0.1
		C35,65,35,64.7,35,64.7l1.2,0.2c0,0.1-0.1,0.9-0.8,1.4c-0.3,0.2-0.8,0.4-1.6,0.3c-0.9-0.2-1.8-1.1-1.8-2.6
		c-0.1-1.1,0.5-3.2,3.1-3.4l0,0c0,0,4,0,4.1,4.4c0,0.3,0.1,2-1,3.4c-0.8,0.9-1.9,1.4-3.3,1.6C35,69.9,34.9,69.9,34.9,69.9"/>
	<path class="st4" d="M41.9,64.8c0,0.6,0.5,1.1,1.1,1.1c0.6,0,1.1-0.5,1.1-1.1c0-0.6-0.5-1.1-1.1-1.1C42.4,63.7,41.9,64.2,41.9,64.8
		"/>
	<path class="st4" d="M34.1,64.8c0,0.6,0.5,1.1,1.1,1.1c0.6,0,1.1-0.5,1.1-1.1c0-0.6-0.5-1.1-1.1-1.1C34.6,63.7,34.1,64.2,34.1,64.8
		"/>
	<rect x="31" y="54.9" class="st4" width="16.8" height="0.6"/>
	<path class="st4" d="M32.2,52.8c0.3,0,0.4-0.1,0.4-0.5v-2.7c0-0.4-0.2-0.5-0.4-0.5h-0.4v3.7H32.2z M31,48.4h1.2
		c0.8,0,1.2,0.5,1.2,1.3v2.6c0,0.8-0.4,1.3-1.2,1.3H31V48.4z"/>
	<path class="st4" d="M36.2,50.6c0.3,0,0.5-0.1,0.5-0.6v-0.4c0-0.4-0.1-0.5-0.4-0.5h-0.4v1.5H36.2z M35,48.4h1.2
		c0.8,0,1.2,0.4,1.2,1.2v0.3c0,0.5-0.2,0.9-0.5,1v0c0.4,0.1,0.5,0.5,0.5,1.1v0.9c0,0.3,0,0.4,0.1,0.6h-0.8c0-0.1-0.1-0.2-0.1-0.6v-1
		c0-0.5-0.1-0.6-0.5-0.6h-0.3v2.2H35V48.4z"/>
	<rect x="39.2" y="48.4" class="st4" width="0.8" height="5.2"/>
	<polygon class="st4" points="41.4,48.4 42.3,48.4 42.8,52.4 42.8,52.4 43.3,48.4 44.1,48.4 43.3,53.6 42.2,53.6 	"/>
	<polygon class="st4" points="45.5,48.4 47.8,48.4 47.8,49.1 46.3,49.1 46.3,50.5 47.5,50.5 47.5,51.2 46.3,51.2 46.3,52.8 
		47.8,52.8 47.8,53.6 45.5,53.6 	"/>
	<path class="st4" d="M13.7,28.3c0.5-0.4,0.7-0.9,0.7-1.5c0-0.7-0.2-1.2-0.7-1.5c-0.5-0.4-1.1-0.5-2-0.5h-1.2v4
		c0.4,0.1,0.8,0.2,1.2,0.2C12.5,28.8,13.2,28.6,13.7,28.3 M11.7,24c0.6,0,1.2-0.2,1.6-0.5c0.4-0.3,0.6-0.8,0.6-1.5
		c0-0.7-0.2-1.2-0.7-1.5c-0.5-0.3-1.1-0.5-1.7-0.5c-0.3,0-0.6,0-1,0.1V24H11.7z M8.7,21.4c0-0.5-0.1-0.9-0.2-1.1
		c-0.1-0.2-0.4-0.4-0.8-0.4H7.5v-0.4h4c1.2,0,2.2,0.2,3,0.5c0.8,0.4,1.2,1,1.2,2.1c0,0.5-0.2,0.9-0.5,1.3c-0.3,0.4-0.8,0.7-1.5,0.9
		c0.9,0.1,1.6,0.4,1.9,0.8c0.4,0.4,0.6,0.9,0.6,1.6c0,1.8-1.4,2.7-4.3,2.7H8.7V21.4z"/>
	<path class="st4" d="M18.5,21.4c0-0.5-0.1-0.9-0.2-1.1c-0.1-0.2-0.4-0.4-0.8-0.4h-0.2v-0.4h6.5c0.8,0,1.3,0.4,1.3,1.2v1.2h-0.4
		c0-1.2-0.6-1.8-1.9-1.8h-2.6V24h3.9v0.6h-3.9v4.1h2.6c0.6,0,1.1-0.1,1.5-0.4c0.4-0.2,0.7-0.7,0.9-1.3l0.4,0.1l-0.5,1.3
		c-0.1,0.3-0.3,0.5-0.4,0.7c-0.2,0.2-0.4,0.2-0.8,0.2h-5.4V21.4z"/>
	<path class="st4" d="M27.3,21.3c-0.2-0.6-0.5-1-0.7-1.2c-0.2-0.2-0.5-0.4-0.9-0.4v-0.3l0.6,0c0.6,0,1.1,0.1,1.6,0.4
		c0.5,0.3,0.9,0.8,1.2,1.5l2.4,5.8l3.2-7.5h0.7l-4.3,10h-0.5L27.3,21.3z"/>
	<path class="st4" d="M37.6,21.4c0-0.5-0.1-0.9-0.2-1.1c-0.1-0.2-0.4-0.4-0.8-0.4h-0.2v-0.4h6.5c0.8,0,1.3,0.4,1.3,1.2v1.2h-0.4
		c0-1.2-0.6-1.8-1.9-1.8h-2.6V24h3.9v0.6h-3.9v4.1h2.6c0.6,0,1.1-0.1,1.5-0.4c0.4-0.2,0.7-0.7,0.9-1.3l0.4,0.1l-0.5,1.3
		c-0.1,0.3-0.3,0.5-0.4,0.7c-0.2,0.2-0.4,0.2-0.8,0.2h-5.4V21.4z"/>
	<path class="st4" d="M49.5,24.3c0.3,0,0.7-0.1,1-0.2c0.3-0.1,0.6-0.4,0.8-0.7c0.2-0.3,0.3-0.7,0.3-1.2c0-0.5-0.1-0.9-0.3-1.2
		c-0.2-0.3-0.5-0.5-0.8-0.7c-0.3-0.1-0.7-0.2-1-0.2c-0.2,0-0.6,0-1,0.1v4.1H49.5z M52.1,29c-0.4-0.3-0.9-0.9-1.4-1.7l-1.5-2.5h-0.8
		v4.5h-1.7v-8c0-0.5-0.1-0.9-0.2-1.1c-0.1-0.2-0.4-0.4-0.8-0.4h-0.2v-0.4h4c1,0,1.9,0.2,2.7,0.6c0.8,0.4,1.2,1.1,1.2,2.1
		c0,0.7-0.2,1.3-0.7,1.7c-0.4,0.4-1,0.7-1.8,0.8l1.6,2.6c0.3,0.6,0.7,1,1,1.2c0.3,0.2,0.6,0.4,0.9,0.4v0.3c-0.1,0-0.2,0.1-0.4,0.1
		c-0.2,0-0.4,0-0.6,0C53,29.5,52.6,29.4,52.1,29"/>
	<path class="st4" d="M56.2,21.4c0-0.5-0.1-0.9-0.2-1.1c-0.1-0.2-0.4-0.4-0.8-0.4h-0.2v-0.4h1.6c0.4,0,0.6,0.1,0.8,0.2
		c0.2,0.1,0.3,0.3,0.4,0.6c0.1,0.3,0.1,0.7,0.1,1.2v7.3h5.2v0.6h-6.9V21.4z"/>
	<path class="st4" d="M65.8,25.4l-2.6-3.9c-0.3-0.5-0.7-0.9-1-1.2c-0.3-0.3-0.7-0.5-1.1-0.5v-0.3h1.5c0.9,0,1.7,0.5,2.3,1.6l2.1,3.2
		l3-4.8H71l-3.4,5.6v4.3h-1.7V25.4z"/>
	<path class="st4" d="M20.4,34.1c0-0.5-0.1-0.9-0.2-1.1c-0.1-0.2-0.4-0.4-0.8-0.4h-0.2v-0.4h1.6c0.4,0,0.6,0.1,0.8,0.2
		c0.2,0.1,0.3,0.3,0.4,0.6c0.1,0.3,0.1,0.7,0.1,1.2v2.6h4.2v-4.4H28v8c0,0.5,0.1,0.9,0.2,1.1c0.1,0.2,0.4,0.4,0.8,0.4h0.2v0.4h-1.6
		c-0.4,0-0.6-0.1-0.8-0.2c-0.2-0.1-0.3-0.3-0.4-0.6c-0.1-0.3-0.1-0.7-0.1-1.2v-2.9H22v4.8h-1.7V34.1z"/>
	<path class="st4" d="M31.5,41.9c-0.2-0.1-0.3-0.3-0.4-0.6C31,41.1,31,40.7,31,40.2v-8h1.7v8c0,0.5,0.1,0.9,0.2,1.1
		c0.1,0.2,0.4,0.4,0.8,0.4H34v0.4h-1.6C32,42.1,31.7,42,31.5,41.9"/>
	<path class="st4" d="M36,34.1c0-0.5-0.1-0.9-0.2-1.1c-0.1-0.2-0.4-0.4-0.8-0.4h-0.2v-0.4h1.6c0.4,0,0.6,0.1,0.8,0.2
		c0.2,0.1,0.3,0.3,0.4,0.6c0.1,0.3,0.1,0.7,0.1,1.2v7.3h5.2v0.6H36V34.1z"/>
	<path class="st4" d="M44.5,34.1c0-0.5-0.1-0.9-0.2-1.1c-0.1-0.2-0.4-0.4-0.8-0.4h-0.2v-0.4h1.6c0.4,0,0.6,0.1,0.8,0.2
		c0.2,0.1,0.3,0.3,0.4,0.6c0.1,0.3,0.1,0.7,0.1,1.2v7.3h5.2v0.6h-6.9V34.1z"/>
	<path class="st4" d="M54.2,42.1c-0.5-0.1-1-0.4-1.3-0.6c-0.3-0.3-0.5-0.6-0.5-1v-1.7h0.4c0.2,1,0.5,1.7,1,2.2
		c0.5,0.4,1.1,0.7,2,0.7c0.6,0,1-0.1,1.4-0.4c0.4-0.3,0.5-0.6,0.5-1.1c0-0.4-0.1-0.8-0.4-1c-0.2-0.3-0.6-0.6-1.2-0.9l-1.8-1.1
		c-0.7-0.4-1.1-0.8-1.4-1.2c-0.3-0.4-0.4-0.9-0.4-1.4c0-0.8,0.3-1.4,0.9-1.9c0.6-0.5,1.3-0.7,2.3-0.7c0.5,0,1.1,0.1,1.6,0.2
		c0.5,0.1,0.9,0.4,1.3,0.6c0.3,0.3,0.5,0.6,0.5,1v1.7h-0.4c-0.2-1-0.5-1.7-1-2.2c-0.5-0.4-1.1-0.7-1.9-0.7c-0.5,0-0.9,0.1-1.3,0.4
		c-0.3,0.3-0.5,0.6-0.5,1.1c0,0.4,0.1,0.7,0.4,1c0.2,0.3,0.7,0.6,1.2,0.9l1.8,1.1c0.7,0.4,1.2,0.8,1.5,1.2c0.3,0.4,0.4,0.8,0.4,1.4
		c0,0.9-0.3,1.5-0.9,2c-0.6,0.5-1.5,0.7-2.6,0.7C55.3,42.3,54.8,42.3,54.2,42.1"/>
</g>
</svg>
