<?xml version="1.0" encoding="utf-8"?>
<!-- Generator: Adobe Illustrator 26.0.1, SVG Export Plug-In . SVG Version: 6.00 Build 0)  -->
<!DOCTYPE svg PUBLIC "-//W3C//DTD SVG 1.1//EN" "http://www.w3.org/Graphics/SVG/1.1/DTD/svg11.dtd" [
	<!ENTITY ns_extend "http://ns.adobe.com/Extensibility/1.0/">
	<!ENTITY ns_ai "http://ns.adobe.com/AdobeIllustrator/10.0/">
	<!ENTITY ns_graphs "http://ns.adobe.com/Graphs/1.0/">
	<!ENTITY ns_vars "http://ns.adobe.com/Variables/1.0/">
	<!ENTITY ns_imrep "http://ns.adobe.com/ImageReplacement/1.0/">
	<!ENTITY ns_sfw "http://ns.adobe.com/SaveForWeb/1.0/">
	<!ENTITY ns_custom "http://ns.adobe.com/GenericCustomNamespace/1.0/">
	<!ENTITY ns_adobe_xpath "http://ns.adobe.com/XPath/1.0/">
]>
<svg version="1.1" id="Layer_1" xmlns:x="&ns_extend;" xmlns:i="&ns_ai;" xmlns:graph="&ns_graphs;"
	 xmlns="http://www.w3.org/2000/svg" xmlns:xlink="http://www.w3.org/1999/xlink" x="0px" y="0px" viewBox="0 0 200 71.4"
	 style="enable-background:new 0 0 200 71.4;" xml:space="preserve">
<style type="text/css">
	.st0{fill:#808184;}
	.st1{clip-path:url(#SVGID_00000107576956649264667490000003341640288346133661_);}
	.st2{fill:#AC9C63;}
	.st3{fill:#038295;}
	
		.st4{clip-path:url(#SVGID_00000168824421731545250940000001650470346237337769_);fill:url(#SVGID_00000069371476447263579550000010978828042259676564_);}
	
		.st5{clip-path:url(#SVGID_00000062154967444189894640000008965594290812774551_);fill:url(#SVGID_00000080920087430904445990000011994603960634363029_);}
	
		.st6{clip-path:url(#SVGID_00000025440047434437232240000004092097817101910430_);fill:url(#SVGID_00000052080152829280580430000000294794950851890362_);}
	.st7{fill:url(#SVGID_00000054247142258885217880000009209732018018703521_);}
	.st8{fill:url(#SVGID_00000028317691895257244130000016013197621727733398_);}
	.st9{fill:url(#SVGID_00000091703265004962501650000014008538613992112811_);}
	.st10{fill:url(#SVGID_00000173133830634675125050000018263423374217860541_);}
	.st11{fill:url(#SVGID_00000137128937659158311590000008985345138645590174_);}
	.st12{fill:url(#SVGID_00000075843486168838932640000010033491436573011587_);}
	.st13{fill:url(#SVGID_00000107581301640243449480000018075206367671291014_);}
	.st14{fill:url(#SVGID_00000039822722589061874510000016666034690520476341_);}
	.st15{fill:url(#SVGID_00000152233781304968778590000014848923520740936348_);}
	.st16{fill:url(#SVGID_00000116945398466123015290000018357901494298772395_);}
	.st17{fill:url(#SVGID_00000103964922470836566940000007041330085124433059_);}
	.st18{fill:url(#SVGID_00000073690442878138137340000007556355268508216204_);}
	.st19{fill:url(#SVGID_00000176021713233086235800000009910641949889586573_);}
	.st20{fill:url(#SVGID_00000072265399535151712210000009604920790570413194_);}
	.st21{fill:url(#SVGID_00000115494757176842146730000012673030925950961087_);}
	.st22{fill:url(#SVGID_00000016035122898882298760000006214278957057548730_);}
	.st23{fill:url(#SVGID_00000182525201204080678850000007666282979036746144_);}
	.st24{fill:url(#SVGID_00000029759818394707381840000016401472519426674838_);}
	.st25{fill:url(#SVGID_00000137810425542258862990000014557020115851789444_);}
	.st26{fill:url(#SVGID_00000135665809248899503640000000809816808105744266_);}
	.st27{fill:url(#SVGID_00000029015763966864771830000008196647041351125904_);}
	.st28{fill:url(#SVGID_00000109711338789652652860000014562095060814522525_);}
	.st29{fill:url(#SVGID_00000062151730845539143450000016640623469137233069_);}
	.st30{fill:url(#SVGID_00000137116076134413651570000008241880634206800771_);}
	.st31{fill:url(#SVGID_00000132808523322381814430000011242231944541188281_);}
	.st32{fill:url(#SVGID_00000178913090818994699900000006445479250057600949_);}
	.st33{fill:url(#SVGID_00000063628659450918293190000017995975566358712503_);}
	.st34{fill:url(#SVGID_00000057143870607630441780000008176941047128412809_);}
	.st35{fill:url(#SVGID_00000051363714441332613260000002699292627365479071_);}
	.st36{fill:url(#SVGID_00000111183705072504068560000013660496548688482718_);}
	.st37{fill:url(#SVGID_00000015312612477513403240000004486726850444031879_);}
	.st38{fill:url(#SVGID_00000085943332363229416710000004671478537081395625_);}
	.st39{fill:url(#SVGID_00000080892901497987986380000005983325823610591106_);}
	.st40{fill:url(#SVGID_00000116948486705790555050000015083449823887144877_);}
	.st41{fill:url(#SVGID_00000079485418150235764130000001930285063026048422_);}
	.st42{fill:url(#SVGID_00000024683366157956401170000016104335851343235252_);}
	.st43{fill:url(#SVGID_00000001627473792707613130000014161460487563679166_);}
	.st44{fill:url(#SVGID_00000031892440438306465580000007947887271483515820_);}
	.st45{fill:url(#SVGID_00000088120405579793184550000010859728938894773677_);}
	.st46{fill:url(#SVGID_00000172414971022072805340000010549494498346746550_);}
	.st47{fill:url(#SVGID_00000042734604286835751820000008541792825968778405_);}
	.st48{fill:url(#SVGID_00000163068597955726221350000006509956573429854620_);}
	.st49{fill:url(#SVGID_00000052790250196878583680000017235160980028519352_);}
	.st50{fill:url(#SVGID_00000078010571310496218300000009732467799926328464_);}
	.st51{fill:url(#SVGID_00000008120278363798624260000012308679306844074392_);}
	.st52{fill:url(#SVGID_00000091704877894332896710000010241561209175835837_);}
	.st53{fill:url(#SVGID_00000107571988941124457370000007565830150910216881_);}
	.st54{fill:#6AC1D5;}
	.st55{fill:#73BAB2;}
	.st56{fill:url(#SVGID_00000116927002160297610890000009587726535858317704_);}
	.st57{fill:url(#SVGID_00000088105112533812794770000010895909401871028362_);}
	.st58{fill:url(#SVGID_00000170968072188859412270000003843570233769931445_);}
	.st59{fill:url(#SVGID_00000163759355269337556130000000142883724808968340_);}
	.st60{fill:url(#SVGID_00000116225117635047678930000001273145330902655888_);}
	.st61{fill:url(#SVGID_00000093158170646176976590000001829147975275975851_);}
	.st62{fill:url(#SVGID_00000136380284424918359110000008867234218498291891_);}
	.st63{fill:url(#SVGID_00000168807547745382012110000018313583725054323613_);}
	.st64{fill:url(#SVGID_00000171719745370290449570000001117871335322097546_);}
	.st65{fill:url(#SVGID_00000015357101130348019170000003676282980930881152_);}
	.st66{fill:url(#SVGID_00000002356143618358125560000013754548767320451988_);}
	.st67{fill:url(#SVGID_00000125596833801800983610000010605969730121751196_);}
	.st68{fill:url(#SVGID_00000166637675317006020930000007694066109383759271_);}
	.st69{fill:url(#SVGID_00000108268129258579526540000009427833151073725629_);}
	.st70{fill:url(#SVGID_00000040533135081231530980000003177393848628220859_);}
	.st71{fill:url(#SVGID_00000026162627175853494040000012214455375887581090_);}
	.st72{fill:url(#SVGID_00000099649289735314607560000013052755234493485484_);}
	.st73{fill:url(#SVGID_00000179620195719537561890000010327174278790149276_);}
	.st74{fill:url(#SVGID_00000134942546066518559020000018108808992984862592_);}
	.st75{fill:url(#SVGID_00000129195340287277287260000002805545453856489632_);}
	.st76{fill:url(#SVGID_00000123406047007581237130000007785373557590484140_);}
	.st77{fill:url(#SVGID_00000020386983542916380720000014987354386646493325_);}
	.st78{fill:url(#SVGID_00000144299582137587525740000010297587086079360408_);}
	.st79{fill:url(#SVGID_00000126283578638502605660000003763877389137233578_);}
	.st80{fill:url(#SVGID_00000007419688727403271280000012243529644534302869_);}
	.st81{fill:url(#SVGID_00000178887413210701855710000001345200520378046350_);}
	.st82{fill:url(#SVGID_00000166674347186333372760000005400624046987214762_);}
	.st83{fill:url(#SVGID_00000028288335523512632010000018329520186240694912_);}
	.st84{fill:url(#SVGID_00000014624763019442046410000014093086450352235671_);}
	.st85{fill:url(#SVGID_00000097499956204519432290000010541104415617747860_);}
	.st86{fill:url(#SVGID_00000122695019381700131310000012465885310156425628_);}
	.st87{fill:url(#SVGID_00000024721330391945787480000012309797477049245886_);}
	.st88{fill:url(#SVGID_00000111186134633026497150000002170810546775773624_);}
	.st89{fill:url(#SVGID_00000051348122815537689820000002835737878981856956_);}
	.st90{fill:#004F54;}
	.st91{fill-rule:evenodd;clip-rule:evenodd;fill:#065055;}
	.st92{fill:#7A9699;}
	.st93{fill:#87A4AB;}
	
		.st94{clip-path:url(#SVGID_00000075843402385889646950000009517078304643655847_);fill:url(#SVGID_00000016064415677576675450000002497702772723032978_);}
	
		.st95{clip-path:url(#SVGID_00000149350403371279328970000004096528991471724963_);fill:url(#SVGID_00000150072089554891627560000000342512893617079471_);}
	
		.st96{clip-path:url(#SVGID_00000151501960201963450560000006630698917641149866_);fill:url(#SVGID_00000147922684853289386190000002603062856002320806_);}
	
		.st97{clip-path:url(#SVGID_00000139289793223291283220000011896503397308871557_);fill:url(#SVGID_00000070825989821853816010000017838497101594551225_);}
	
		.st98{clip-path:url(#SVGID_00000057870690907190279260000015151169499491596966_);fill:url(#SVGID_00000035530883942484524520000015231811987812704949_);}
	
		.st99{clip-path:url(#SVGID_00000011727119407704188370000007996381644941100476_);fill:url(#SVGID_00000127003606212331318520000002219305207966920375_);}
	
		.st100{clip-path:url(#SVGID_00000058553197678313714380000002533364044683536288_);fill:url(#SVGID_00000150096811914603530680000009322497818951974055_);}
	
		.st101{clip-path:url(#SVGID_00000147915892186273997240000007683003318215862959_);fill:url(#SVGID_00000181085757696909262670000010629269142127976858_);}
	
		.st102{clip-path:url(#SVGID_00000015335148963145714440000010372475356313567659_);fill:url(#SVGID_00000043426682349625218100000014024393152429191345_);}
	
		.st103{clip-path:url(#SVGID_00000165208541471726167570000011684895978846642087_);fill:url(#SVGID_00000015318210235981443660000009930000589314421633_);}
	
		.st104{clip-path:url(#SVGID_00000170262063050413970930000011662390116221830801_);fill:url(#SVGID_00000155125222944390763490000006768132018727130283_);}
	
		.st105{clip-path:url(#SVGID_00000052801008161292399820000011961680574056249222_);fill:url(#SVGID_00000106118571113705654440000002353867943495514027_);}
	
		.st106{clip-path:url(#SVGID_00000103963330033989302900000017557176273976997761_);fill:url(#SVGID_00000161630324679919663580000016212969808320036267_);}
	
		.st107{clip-path:url(#SVGID_00000171710050727187334660000005636216681626495628_);fill:url(#SVGID_00000004507274274198943430000012312946177130706837_);}
	
		.st108{clip-path:url(#SVGID_00000097472235781756613830000012729123733767889048_);fill:url(#SVGID_00000129179123693217663330000010618073735877585321_);}
	
		.st109{clip-path:url(#SVGID_00000176033762511975540100000015286527263831665834_);fill:url(#SVGID_00000060715056495548229710000006622778749594803353_);}
	
		.st110{clip-path:url(#SVGID_00000037681404326139091800000007901794625517756568_);fill:url(#SVGID_00000053505623684350098980000006828702393275256510_);}
	
		.st111{clip-path:url(#SVGID_00000007401646450933837900000016293536410129844631_);fill:url(#SVGID_00000143593602765511137140000007946615457766714289_);}
	
		.st112{clip-path:url(#SVGID_00000104702644211083688510000013762404833706314124_);fill:url(#SVGID_00000173848348007131079600000001983253175562893188_);}
	
		.st113{clip-path:url(#SVGID_00000168103148924626821140000001791303004763726779_);fill:url(#SVGID_00000176753349289125636630000003258064553533361036_);}
	
		.st114{clip-path:url(#SVGID_00000176741456941465492700000016340908344182861969_);fill:url(#SVGID_00000124864508753118046510000004958271228511004548_);}
	
		.st115{clip-path:url(#SVGID_00000035509148558529491180000011004736445945453704_);fill:url(#SVGID_00000130633126913805603280000011031887966685040274_);}
	
		.st116{clip-path:url(#SVGID_00000108289680445185067690000010758216393319458445_);fill:url(#SVGID_00000110440582423927191470000005965780711141711238_);}
	
		.st117{clip-path:url(#SVGID_00000092458717242430501730000000635411021096753307_);fill:url(#SVGID_00000175292274471252976670000001110047320777345921_);}
	
		.st118{clip-path:url(#SVGID_00000093142439282371332070000011860108801976011911_);fill:url(#SVGID_00000008869906055571952380000011704280879223241116_);}
	
		.st119{clip-path:url(#SVGID_00000168795194642885440650000003886656559899046028_);fill:url(#SVGID_00000111182746866907281170000008717983587008113554_);}
	
		.st120{clip-path:url(#SVGID_00000065786407184273565980000016054352507459468954_);fill:url(#SVGID_00000049922756808406325360000012782294195112875189_);}
	.st121{fill:#68934B;}
	.st122{fill:#5F7360;}
	.st123{fill:#7D897A;}
	.st124{fill:#5B8172;}
	.st125{fill:#54665D;}
	.st126{clip-path:url(#SVGID_00000040557316885959420240000002367231596696568482_);fill:#54665D;}
	.st127{fill:#00495C;}
</style>
<metadata>
	<sfw  xmlns="&ns_sfw;">
		<slices></slices>
		<sliceSourceBounds  bottomLeftOrigin="true" height="1021.1" width="4161.2" x="-38.2" y="-866.2"></sliceSourceBounds>
	</sfw>
</metadata>
<polygon class="st121" points="49.5,61.8 48.4,61.8 48.4,71 53.5,71 53.5,70.3 49.5,70.3 "/>
<rect x="56.5" y="61.8" class="st121" width="1.1" height="9.2"/>
<polygon class="st121" points="69.5,61.8 66.3,69.7 66.3,69.7 63,61.8 61.7,61.8 61.7,61.8 61.7,61.8 61.6,71 62.4,71 62.4,63.1 
	65.6,71 66.5,71 69.7,63.1 69.7,63.1 69.8,71 70.8,71 70.8,61.8 "/>
<polygon class="st121" points="76,66.7 79.5,66.7 79.5,66 76,66 76,62.5 79.8,62.5 79.8,61.8 74.9,61.8 74.9,71 80.1,71 80.1,70.3 
	76,70.3 "/>
<path class="st121" d="M91.8,66.8h1.9v2.1c-0.1,0.3-0.3,0.7-0.6,1c-0.3,0.3-0.8,0.5-1.5,0.5c-0.9,0-1.6-0.3-2.1-1
	c-0.5-0.7-0.7-1.7-0.7-3c0-1.3,0.3-2.4,0.8-3c0.5-0.7,1.3-1,2.3-1c0.4,0,0.7,0.1,1.1,0.2c0.4,0.1,0.7,0.2,1,0.4
	c0.3,0.1,0.4,0.2,0.4,0.2l0.1-0.7c0,0-0.1-0.1-0.4-0.2c-0.3-0.1-0.6-0.3-1-0.4c-0.4-0.1-0.8-0.2-1.3-0.2c-1.3,0-2.3,0.4-3,1.3
	c-0.7,0.8-1.1,2-1.1,3.5c0,1.5,0.3,2.6,1,3.5c0.7,0.8,1.6,1.2,2.8,1.2c0.6,0,1.1-0.1,1.5-0.3c0.4-0.2,0.7-0.5,0.9-0.8l0.3,1h0.5
	v-4.8h-2.8V66.8z"/>
<path class="st121" d="M99.3,67.6l1.6-5l1.6,5H99.3z M100.5,61.8L97.4,71h0.8l1-2.8h3.6l1,2.8h1.1l-3-9.2H100.5z"/>
<path class="st121" d="M110.1,66.9h-1.1v-4.5h1c1.3,0,2,0.7,2,2.2c0,0.8-0.2,1.4-0.5,1.8C111.1,66.8,110.7,66.9,110.1,66.9
	 M112.6,66.4c0.3-0.5,0.5-1.1,0.5-1.8c0-0.9-0.3-1.6-0.8-2.1c-0.5-0.5-1.3-0.7-2.2-0.7h-2.2V71h1.1v-3.4h1.4l2.1,3.4h1.2l-2.3-3.6
	C111.9,67.2,112.3,66.9,112.6,66.4"/>
<path class="st121" d="M119.7,70.3H118v-7.8h1.7c2,0,3,1.3,3,4C122.7,69,121.7,70.3,119.7,70.3 M119.7,61.8h-2.8V71h2.8
	c1.3,0,2.4-0.4,3.1-1.2c0.7-0.8,1.1-1.9,1.1-3.4c0-1.5-0.4-2.6-1.1-3.4C122,62.2,121,61.8,119.7,61.8"/>
<polygon class="st121" points="128.4,66.7 131.9,66.7 131.9,66 128.4,66 128.4,62.5 132.2,62.5 132.2,61.8 127.3,61.8 127.3,71 
	132.6,71 132.6,70.3 128.4,70.3 "/>
<polygon class="st121" points="141.7,69 141.7,69.4 137,61.8 135.9,61.8 135.9,71 136.7,71 136.7,63.6 136.6,63.1 136.6,63.1 
	141.5,71 142.4,71 142.4,61.8 141.7,61.8 "/>
<path class="st121" d="M151.1,67.2c-0.2-0.3-0.5-0.6-0.8-0.8c-0.3-0.2-0.7-0.4-1.2-0.6c-0.4-0.2-0.7-0.3-1-0.5
	c-0.3-0.1-0.5-0.3-0.6-0.6c-0.2-0.2-0.2-0.5-0.2-0.9c0-0.5,0.2-0.9,0.5-1.2c0.3-0.3,0.7-0.4,1.2-0.4c0.4,0,0.7,0.1,1,0.2
	c0.3,0.1,0.5,0.2,0.7,0.4c0.2,0.1,0.3,0.2,0.3,0.2l0.1-0.6c0,0-0.1-0.1-0.3-0.2c-0.2-0.1-0.5-0.3-0.8-0.4c-0.3-0.1-0.7-0.2-1.1-0.2
	c-0.8,0-1.5,0.2-2,0.7c-0.5,0.5-0.7,1.1-0.7,1.8c0,0.5,0.1,0.9,0.3,1.2c0.2,0.3,0.5,0.6,0.8,0.7c0.3,0.2,0.7,0.4,1.2,0.6
	c0.4,0.2,0.8,0.3,1,0.5c0.2,0.1,0.5,0.3,0.6,0.6c0.2,0.2,0.3,0.5,0.3,0.9c0,0.5-0.2,0.9-0.5,1.3c-0.3,0.3-0.8,0.5-1.4,0.5
	c-0.5,0-0.9-0.1-1.3-0.2c-0.3-0.2-0.6-0.3-0.8-0.5c-0.2-0.2-0.3-0.3-0.3-0.3l-0.4,0.6c0,0,0.1,0.2,0.3,0.4c0.2,0.2,0.5,0.4,0.9,0.6
	c0.4,0.2,0.9,0.3,1.5,0.3c0.6,0,1.1-0.1,1.5-0.3c0.4-0.2,0.8-0.5,1-0.9c0.2-0.4,0.4-0.9,0.4-1.4C151.5,68,151.4,67.5,151.1,67.2"/>
<path class="st121" d="M61.5,2.1h5.2c2.9,0,5.1,1.4,5.1,3.6c0,1.5-1,2.8-2.6,3.3c2.4,0.7,3.8,2.3,3.8,4.3c0,2.4-1.7,4.9-6.3,4.9
	h-5.2V2.1z M63.2,8.7h3.4c2.5,0,3.4-1.5,3.4-2.7c0-2.1-1.2-3.1-4.7-3.1c-0.6,0-2.1,0.1-2.1,0.1V8.7z M66.5,9.3h-3.3v5.2
	c0,3,0.4,3.1,3.3,3.1c2.6,0,4.5-1.9,4.5-4.2C70.9,11.1,69.4,9.3,66.5,9.3"/>
<rect x="98.2" y="2.1" class="st121" width="1.7" height="16.1"/>
<rect x="134.1" y="2.1" class="st121" width="1.7" height="16.1"/>
<polygon class="st121" points="152.4,17.3 152.4,18.2 142.6,18.2 142.6,2.1 144.4,2.1 144.4,17.3 "/>
<polygon class="st121" points="167.7,17.3 167.7,18.2 157.8,18.2 157.8,2.1 159.6,2.1 159.6,17.3 "/>
<path class="st121" d="M174.9,8.5c-1.7-1-3.2-1.8-3.2-3.4c0-1.5,1.2-2.6,2.8-2.6c0.7,0,1.5,0.1,2.2,0.3V2.3
	c-0.5-0.2-1.1-0.4-2.1-0.4c-2.8,0-4.6,1.5-4.6,3.9c0,1.8,1.7,3.1,3.6,4.2c2.9,1.6,4.3,2.7,4.3,4.7c0,1.9-1.6,3-3.7,3
	c-0.5,0-0.9,0-1.3-0.1v0.7c0.4,0.1,0.8,0.1,1.3,0.1c3.3,0,5.6-2.1,5.6-4.3C179.8,11.3,177.5,10,174.9,8.5"/>
<path class="st121" d="M84.3,2.1h1l6.8,16.1h-1.6l-2.1-4.8h-7.4l-2,4.8h-1.7L84.3,2.1z M81.6,12.2H88l-3.2-7.4L81.6,12.2z"/>
<polygon class="st121" points="125.5,2.1 125.5,9.5 116.1,9.5 116.1,2.1 114.4,2.1 114.4,18.2 116.1,18.2 116.1,10.8 125.5,10.8 
	125.5,18.2 127.3,18.2 127.3,2.1 "/>
<path class="st121" d="M25.8,18.2c-1.3,0-4.9,0-4.9,0l-0.8,0l0.2-0.7c2.6-8.1,0-14.3,0-14.4l-0.3-0.8l0.8,0c0.2,0,3.9-0.1,4.9-0.1
	c5.3,0,9.1,3.3,9.1,7.8C35,14.6,31,18.2,25.8,18.2 M22.4,17.3c1.1,0,2.6,0.1,3.5,0.1c4.5,0,6.8-3.5,6.8-7.5c0-3.9-2.1-6.8-6.8-6.9
	c-0.7,0-2.2,0-3.4,0C23.1,4.9,24.3,10.7,22.4,17.3"/>
<path class="st121" d="M53.8,2.1v9.8c0,3.7-2.6,6.1-5.5,6.1v0c-3,0-5.5-2.3-5.5-6.1V2.1h-1.7v9.2c0,4.5,2.8,7.6,7.2,7.6v0
	c4.2,0,6.9-3.3,6.9-7.7V2.1H53.8z"/>
<polygon class="st121" points="81,36.4 81,36.9 75.4,36.9 75.4,27.6 76.4,27.6 76.4,36.4 "/>
<rect x="75.4" y="27.5" class="st121" width="5.7" height="0.5"/>
<rect x="75.4" y="31.6" class="st121" width="4.7" height="0.5"/>
<rect x="118.8" y="31.6" class="st121" width="4.7" height="0.5"/>
<polygon class="st121" points="124.5,36.4 124.5,36.9 118.8,36.9 118.8,27.6 119.8,27.6 119.8,36.4 "/>
<rect x="118.8" y="27.5" class="st121" width="5.6" height="0.5"/>
<path class="st121" d="M86.9,31.4c-1-0.6-1.9-1-1.9-2c0-0.8,0.7-1.5,1.6-1.5c0.4,0,0.8,0,1.3,0.2v-0.3c-0.3-0.1-0.6-0.2-1.2-0.2
	c-1.6,0-2.6,0.8-2.6,2.2c0,1,1,1.8,2.1,2.4c1.7,0.9,2.5,1.6,2.5,2.7c0,1.1-0.9,1.7-2.1,1.7c-0.3,0-0.5,0-0.7-0.1v0.4
	c0.2,0,0.5,0.1,0.7,0.1c1.9,0,3.2-1.2,3.2-2.5C89.7,33,88.4,32.2,86.9,31.4"/>
<rect x="108.6" y="27.5" class="st121" width="6.6" height="0.5"/>
<polygon class="st121" points="112.4,36.4 112.4,27.6 111.4,27.6 111.4,36.9 112.4,36.9 "/>
<rect x="91.6" y="27.5" class="st121" width="6.6" height="0.5"/>
<polygon class="st121" points="95.4,36.4 95.4,27.6 94.4,27.6 94.4,36.9 95.4,36.9 "/>
<path class="st121" d="M103.4,27.6h0.6l3.9,9.3h-0.9l-1.2-2.8h-4.3l-1.2,2.8h-1L103.4,27.6z M101.8,33.4h3.7l-1.8-4.3L101.8,33.4z"
	/>
<rect x="0.1" y="48.8" class="st121" width="199.6" height="0.4"/>
</svg>
