<?xml version="1.0" encoding="utf-8"?>
<!-- Generator: Adobe Illustrator 26.0.1, SVG Export Plug-In . SVG Version: 6.00 Build 0)  -->
<!DOCTYPE svg PUBLIC "-//W3C//DTD SVG 1.1//EN" "http://www.w3.org/Graphics/SVG/1.1/DTD/svg11.dtd" [
	<!ENTITY ns_extend "http://ns.adobe.com/Extensibility/1.0/">
	<!ENTITY ns_ai "http://ns.adobe.com/AdobeIllustrator/10.0/">
	<!ENTITY ns_graphs "http://ns.adobe.com/Graphs/1.0/">
	<!ENTITY ns_vars "http://ns.adobe.com/Variables/1.0/">
	<!ENTITY ns_imrep "http://ns.adobe.com/ImageReplacement/1.0/">
	<!ENTITY ns_sfw "http://ns.adobe.com/SaveForWeb/1.0/">
	<!ENTITY ns_custom "http://ns.adobe.com/GenericCustomNamespace/1.0/">
	<!ENTITY ns_adobe_xpath "http://ns.adobe.com/XPath/1.0/">
]>
<svg version="1.1" id="Layer_1" xmlns:x="&ns_extend;" xmlns:i="&ns_ai;" xmlns:graph="&ns_graphs;"
	 xmlns="http://www.w3.org/2000/svg" xmlns:xlink="http://www.w3.org/1999/xlink" x="0px" y="0px" viewBox="0 0 200 70"
	 style="enable-background:new 0 0 200 70;" xml:space="preserve">
<style type="text/css">
	.st0{fill:#080505;}
	.st1{fill:#F8AF41;}
	.st2{fill:#376278;}
	.st3{fill:#FFC663;}
	.st4{fill:#F6CE76;}
	.st5{fill:#0D98BB;}
	.st6{fill:#70B599;}
	.st7{fill:#EAE3AC;}
	.st8{fill:#91060D;}
	.st9{fill:#2D628C;}
	.st10{fill:#012944;}
	.st11{fill:#043754;}
	.st12{fill:#1D324D;}
	.st13{fill:#8C7449;}
	.st14{fill:#003756;}
	.st15{fill:#53B2D3;}
	.st16{fill:#082042;}
	.st17{fill:#055985;}
	.st18{fill:#A08C6A;}
	.st19{clip-path:url(#SVGID_00000085963977377750903380000007307643751551281546_);}
	.st20{filter:url(#Adobe_OpacityMaskFilter);}
	.st21{opacity:0.9;mask:url(#SVGID_00000048474230061537963230000012824156085545138582_);fill:#FFFFFF;}
	.st22{filter:url(#Adobe_OpacityMaskFilter_00000130609870712898877080000013621681870006758316_);}
	.st23{opacity:0.75;mask:url(#SVGID_00000073716257760500011040000006080150808682855070_);}
	.st24{filter:url(#Adobe_OpacityMaskFilter_00000170274258960810040750000012244771296268738743_);}
	.st25{mask:url(#SVGID_00000168090065894262201080000010270143595453919409_);fill:#FFFFFF;}
	.st26{filter:url(#Adobe_OpacityMaskFilter_00000088824523762991254930000008237797603025709477_);}
	.st27{opacity:0.75;mask:url(#SVGID_00000036242889295058929840000017167917564154244282_);}
	.st28{fill:none;stroke:#000000;stroke-width:1.2;}
	.st29{clip-path:url(#SVGID_00000089561329927820657560000016014899331763062944_);}
	.st30{fill:#1E2731;}
	.st31{fill:#777779;}
	
		.st32{clip-path:url(#SVGID_00000141443058652098380730000015284724278783152773_);fill:url(#SVGID_00000033333355914686257580000005685234630890634627_);}
</style>
<metadata>
	<sfw  xmlns="&ns_sfw;">
		<slices></slices>
		<sliceSourceBounds  bottomLeftOrigin="true" height="515.4" width="2527.2" x="1.1" y="-405.1"></sliceSourceBounds>
	</sfw>
</metadata>
<g>
	<rect x="1.1" y="45.4" class="st14" width="197.9" height="0.4"/>
	<g>
		<path class="st14" d="M30.1,14.1l0.3,4.5h-0.3c-0.2-0.7-0.4-1.3-0.7-1.7c-0.3-0.5-0.6-0.9-0.9-1.2c-0.3-0.3-0.7-0.5-1.1-0.7
			c-0.4-0.1-0.9-0.2-1.4-0.2c-0.6,0-1.2,0.1-1.7,0.4c-0.5,0.3-1,0.7-1.3,1.2c-0.4,0.5-0.7,1.2-0.9,2c-0.2,0.8-0.3,1.8-0.3,2.8
			c0,0.9,0.1,1.7,0.3,2.5c0.2,0.7,0.5,1.3,0.9,1.8c0.4,0.5,0.9,0.9,1.4,1.1c0.6,0.3,1.2,0.4,1.9,0.4c0.4,0,0.8,0,1.1-0.1
			s0.7-0.2,1-0.4c0.3-0.2,0.6-0.5,1-0.8c0.3-0.4,0.7-0.8,1-1.4l0.3,0.2c-0.6,1.2-1.3,2-2.1,2.6c-0.8,0.5-1.8,0.8-2.9,0.8
			c-0.9,0-1.7-0.2-2.4-0.5c-0.7-0.3-1.3-0.8-1.9-1.4s-0.9-1.3-1.2-2.1c-0.3-0.8-0.4-1.7-0.4-2.7c0-1,0.2-1.9,0.5-2.8
			c0.3-0.9,0.7-1.6,1.3-2.3c0.6-0.6,1.2-1.1,2-1.5c0.8-0.4,1.6-0.6,2.5-0.6c0.4,0,0.9,0.1,1.3,0.2c0.4,0.1,0.9,0.3,1.3,0.5
			c0.1,0.1,0.2,0.1,0.3,0.2c0.1,0,0.2,0.1,0.2,0.1c0.2,0,0.4-0.1,0.5-0.3c0.1-0.2,0.2-0.4,0.3-0.7L30.1,14.1L30.1,14.1z"/>
		<path class="st14" d="M44.2,27.6H41l-4.1-6.2c-0.2,0-0.3,0-0.4,0c-0.1,0-0.2,0-0.3,0c-0.1,0-0.2,0-0.3,0s-0.2,0-0.3,0v3.8
			c0,0.8,0.1,1.3,0.2,1.5c0.2,0.3,0.6,0.4,1,0.4h0.5v0.4h-5.2v-0.4h0.5c0.5,0,0.9-0.2,1.1-0.5c0.1-0.2,0.2-0.7,0.2-1.4v-8.5
			c0-0.8-0.1-1.3-0.2-1.5c-0.2-0.3-0.6-0.4-1-0.4h-0.5v-0.4h4.4c0.7,0,1.2,0,1.7,0.1c0.5,0,0.9,0.1,1.2,0.2c0.3,0.1,0.6,0.3,0.9,0.4
			c0.2,0.2,0.5,0.4,0.7,0.7c0.4,0.6,0.6,1.2,0.6,1.9c0,0.8-0.2,1.5-0.7,2.1c-0.5,0.6-1.2,1-2.3,1.3l2.5,3.8c0.3,0.4,0.6,0.8,0.8,1.1
			c0.2,0.3,0.5,0.5,0.7,0.7c0.2,0.2,0.5,0.3,0.7,0.4c0.3,0.1,0.6,0.1,0.9,0.2L44.2,27.6L44.2,27.6z M35.6,20.9h0.5
			c0.6,0,1.1-0.1,1.5-0.2c0.4-0.1,0.8-0.4,1.1-0.6s0.5-0.6,0.7-0.9c0.1-0.4,0.2-0.7,0.2-1.1s-0.1-0.8-0.2-1.1
			c-0.1-0.3-0.3-0.6-0.5-0.9c-0.2-0.2-0.5-0.4-0.8-0.6c-0.3-0.1-0.7-0.2-1.1-0.2c-0.4,0-0.8,0.1-1.4,0.2L35.6,20.9L35.6,20.9z"/>
		<path class="st14" d="M48.5,15.2v5.2h2.7c0.4,0,0.7,0,0.9-0.1c0.2-0.1,0.4-0.2,0.6-0.3c0.1-0.2,0.2-0.4,0.3-0.6
			c0.1-0.2,0.1-0.5,0.1-0.9h0.3V23H53c0-0.4-0.1-0.7-0.2-0.9c-0.1-0.3-0.1-0.5-0.3-0.6c-0.1-0.2-0.3-0.3-0.5-0.3
			c-0.2-0.1-0.5-0.1-0.9-0.1h-2.7v4.3c0,0.6,0,0.9,0.1,1.1c0,0.1,0.1,0.1,0.1,0.2c0,0.1,0.1,0.1,0.2,0.1c0.1,0,0.2,0.1,0.3,0.1
			c0.1,0,0.2,0,0.4,0h2.1c0.3,0,0.6,0,0.9,0c0.2,0,0.4-0.1,0.6-0.1c0.2-0.1,0.3-0.1,0.5-0.2c0.1-0.1,0.3-0.2,0.4-0.4
			c0.4-0.4,0.7-1,1.1-1.8h0.4l-1.1,3.3H45v-0.4h0.4c0.1,0,0.2,0,0.4,0c0.1,0,0.2-0.1,0.4-0.1c0.1-0.1,0.2-0.1,0.3-0.2
			c0.1-0.1,0.1-0.2,0.2-0.3c0.1-0.2,0.1-0.6,0.1-1.3v-8.6c0-0.4,0-0.8-0.1-1c0-0.3-0.1-0.4-0.2-0.5c-0.2-0.3-0.6-0.4-1.1-0.4H45
			v-0.4h9.4v2.9h-0.2c-0.1-0.5-0.2-0.9-0.3-1.1c-0.1-0.3-0.2-0.5-0.4-0.7c-0.2-0.2-0.4-0.3-0.7-0.3c-0.3,0-0.6-0.1-1-0.1L48.5,15.2
			L48.5,15.2z"/>
		<path class="st14" d="M60.2,15.2v5.2h2.7c0.4,0,0.7,0,0.9-0.1c0.2-0.1,0.4-0.2,0.6-0.3c0.1-0.2,0.2-0.4,0.3-0.6
			c0.1-0.2,0.1-0.5,0.1-0.9h0.3V23h-0.3c0-0.4-0.1-0.7-0.2-0.9c-0.1-0.3-0.1-0.5-0.3-0.6c-0.1-0.2-0.3-0.3-0.5-0.3
			c-0.2-0.1-0.5-0.1-0.9-0.1h-2.7v4.3c0,0.6,0,0.9,0.1,1.1c0,0.1,0.1,0.1,0.1,0.2c0,0.1,0.1,0.1,0.2,0.1c0.1,0,0.2,0.1,0.3,0.1
			c0.1,0,0.2,0,0.4,0h2.1c0.3,0,0.6,0,0.9,0c0.2,0,0.4-0.1,0.6-0.1c0.2-0.1,0.3-0.1,0.5-0.2c0.1-0.1,0.3-0.2,0.4-0.4
			c0.4-0.4,0.7-1,1.1-1.8h0.4l-1.1,3.3h-9.4v-0.4h0.4c0.1,0,0.2,0,0.4,0c0.1,0,0.2-0.1,0.4-0.1c0.1-0.1,0.2-0.1,0.3-0.2
			c0.1-0.1,0.1-0.2,0.2-0.3c0.1-0.2,0.1-0.6,0.1-1.3v-8.6c0-0.4,0-0.8-0.1-1c0-0.3-0.1-0.4-0.2-0.5c-0.2-0.3-0.6-0.4-1.1-0.4h-0.4
			v-0.4h9.4v2.9h-0.2c-0.1-0.5-0.2-0.9-0.3-1.1c-0.1-0.3-0.2-0.5-0.4-0.7c-0.2-0.2-0.4-0.3-0.7-0.3c-0.3,0-0.6-0.1-1-0.1L60.2,15.2
			L60.2,15.2z"/>
		<path class="st14" d="M73.6,20.3l4.5,4.8c0.4,0.4,0.7,0.7,1,1c0.3,0.3,0.6,0.5,0.9,0.6c0.3,0.2,0.5,0.3,0.8,0.4
			c0.3,0.1,0.5,0.1,0.8,0.1v0.4h-5.8v-0.4c0.3,0,0.6-0.1,0.7-0.2c0.2-0.1,0.2-0.3,0.2-0.4c0-0.1,0-0.2,0-0.2s0-0.1-0.1-0.2
			c0-0.1-0.1-0.2-0.2-0.3c-0.1-0.1-0.2-0.2-0.4-0.4L71.9,21v4.3c0,0.3,0,0.6,0,0.8c0,0.2,0,0.4,0.1,0.5c0,0.1,0.1,0.2,0.1,0.3
			c0.1,0.1,0.2,0.1,0.3,0.2c0.2,0.1,0.5,0.2,0.8,0.2h0.4v0.4h-5.2v-0.4h0.4c0.5,0,0.9-0.2,1.1-0.5c0.1-0.2,0.2-0.7,0.2-1.5v-8.5
			c0-0.3,0-0.5,0-0.7c0-0.2,0-0.3-0.1-0.5c0-0.1-0.1-0.2-0.1-0.3c-0.1-0.1-0.2-0.2-0.3-0.2c-0.3-0.2-0.5-0.2-0.8-0.2h-0.4v-0.4h5.2
			v0.4h-0.4c-0.2,0-0.5,0.1-0.7,0.2c-0.2,0.1-0.4,0.3-0.5,0.5c-0.1,0.2-0.1,0.6-0.1,1.3v4l1.2-1.2c0.7-0.6,1.2-1.2,1.6-1.7
			c0.4-0.5,0.8-0.9,1.1-1.2c0.3-0.3,0.5-0.6,0.6-0.8s0.2-0.4,0.2-0.5c0-0.1-0.1-0.3-0.2-0.4c-0.1-0.1-0.3-0.2-0.6-0.2h-0.3v-0.4H80
			v0.4c-0.2,0-0.4,0-0.5,0.1c-0.2,0-0.3,0.1-0.5,0.2c-0.2,0.1-0.4,0.2-0.7,0.4c-0.2,0.2-0.6,0.5-0.9,0.8c-0.1,0.1-0.2,0.3-0.5,0.6
			c-0.3,0.3-0.7,0.8-1.3,1.4L73.6,20.3z"/>
		<path class="st14" d="M90.9,20.6h5.6v-3.8c0-0.3,0-0.6,0-0.8c0-0.2,0-0.4-0.1-0.5c0-0.1-0.1-0.2-0.1-0.3c-0.1-0.1-0.1-0.1-0.3-0.2
			c-0.3-0.2-0.5-0.2-0.8-0.2h-0.4v-0.4h5.2v0.4h-0.4c-0.1,0-0.2,0-0.4,0c-0.1,0-0.2,0.1-0.4,0.1c-0.1,0.1-0.2,0.1-0.3,0.2
			c-0.1,0.1-0.2,0.2-0.2,0.3c-0.1,0.2-0.1,0.6-0.1,1.3v8.5c0,0.3,0,0.6,0,0.8c0,0.2,0,0.4,0.1,0.5c0,0.1,0.1,0.2,0.1,0.3
			c0.1,0.1,0.1,0.1,0.2,0.2c0.3,0.1,0.5,0.2,0.8,0.2h0.4v0.4h-5.2v-0.4h0.4c0.5,0,0.9-0.2,1.1-0.5c0.1-0.2,0.2-0.7,0.2-1.5v-4h-5.6
			v4c0,0.3,0,0.6,0,0.8c0,0.2,0,0.4,0.1,0.5s0.1,0.2,0.2,0.3c0.1,0.1,0.1,0.1,0.3,0.2c0.2,0.1,0.5,0.2,0.8,0.2h0.4v0.4h-5.2v-0.4
			h0.4c0.5,0,0.9-0.2,1.1-0.5c0.1-0.2,0.2-0.7,0.2-1.5v-8.5c0-0.3,0-0.6,0-0.8c0-0.2,0-0.4-0.1-0.5c0-0.1-0.1-0.2-0.1-0.3
			c-0.1-0.1-0.1-0.1-0.3-0.2c-0.3-0.2-0.5-0.2-0.8-0.2h-0.4v-0.4h5.2v0.4h-0.4c-0.2,0-0.5,0.1-0.7,0.2c-0.2,0.1-0.4,0.3-0.5,0.5
			c-0.1,0.2-0.1,0.6-0.1,1.3C90.9,16.8,90.9,20.6,90.9,20.6z"/>
		<path class="st14" d="M109.3,23.2h-4.7l-0.8,2.1c-0.2,0.5-0.3,0.9-0.3,1.1c0,0.2,0.1,0.4,0.3,0.5c0.2,0.2,0.6,0.3,1.1,0.3v0.4
			h-3.8v-0.4c0.5-0.1,0.8-0.2,1-0.4c0.3-0.3,0.6-0.9,1-1.9l4.3-10.8h0.3l4.2,11c0.3,0.9,0.7,1.4,0.9,1.7c0.3,0.3,0.7,0.4,1.2,0.4
			v0.4h-4.8v-0.4c0.2,0,0.4,0,0.6-0.1c0.2,0,0.3-0.1,0.4-0.2c0.1-0.1,0.2-0.1,0.2-0.2c0-0.1,0.1-0.2,0.1-0.3c0-0.3-0.1-0.7-0.4-1.4
			L109.3,23.2z M109.1,22.5l-2.1-5.3l-2.1,5.3H109.1z"/>
		<path class="st14" d="M127.1,27.6h-3.3l-4.1-6.2c-0.2,0-0.3,0-0.4,0c-0.1,0-0.2,0-0.3,0c-0.1,0-0.2,0-0.3,0c-0.1,0-0.2,0-0.3,0
			v3.8c0,0.8,0.1,1.3,0.2,1.5c0.2,0.3,0.6,0.4,1,0.4h0.5v0.4H115v-0.4h0.5c0.5,0,0.9-0.2,1.1-0.5c0.1-0.2,0.2-0.7,0.2-1.4v-8.5
			c0-0.8-0.1-1.3-0.2-1.5c-0.2-0.3-0.6-0.4-1-0.4H115v-0.4h4.4c0.7,0,1.2,0,1.7,0.1c0.5,0,0.9,0.1,1.2,0.2c0.3,0.1,0.6,0.3,0.9,0.4
			c0.2,0.2,0.5,0.4,0.7,0.7c0.4,0.6,0.6,1.2,0.6,1.9c0,0.8-0.2,1.5-0.7,2.1c-0.5,0.6-1.2,1-2.3,1.3L124,25c0.3,0.4,0.6,0.8,0.8,1.1
			c0.2,0.3,0.5,0.5,0.7,0.7c0.2,0.2,0.5,0.3,0.7,0.4c0.3,0.1,0.6,0.1,0.9,0.2V27.6z M118.5,20.9h0.5c0.6,0,1.1-0.1,1.5-0.2
			c0.4-0.1,0.8-0.4,1.1-0.6c0.3-0.3,0.5-0.6,0.7-0.9c0.1-0.4,0.2-0.7,0.2-1.1s-0.1-0.8-0.2-1.1c-0.1-0.3-0.3-0.6-0.5-0.9
			c-0.2-0.2-0.5-0.4-0.8-0.6c-0.3-0.1-0.7-0.2-1.1-0.2c-0.4,0-0.8,0.1-1.4,0.2L118.5,20.9L118.5,20.9z"/>
		<path class="st14" d="M136,20.9c0.5,0.1,0.9,0.3,1.3,0.5c0.3,0.2,0.6,0.4,0.9,0.7c0.2,0.3,0.4,0.6,0.5,0.9c0.1,0.3,0.2,0.7,0.2,1
			c0,0.3-0.1,0.7-0.2,1c-0.1,0.3-0.2,0.6-0.4,0.9c-0.2,0.3-0.4,0.5-0.7,0.8c-0.3,0.2-0.6,0.4-0.9,0.5c-0.7,0.3-1.7,0.4-3.1,0.4h-5.7
			v-0.4h0.5c0.5,0,0.9-0.2,1.1-0.5c0.1-0.2,0.2-0.7,0.2-1.4v-8.5c0-0.8-0.1-1.3-0.3-1.5c-0.2-0.3-0.6-0.4-1-0.4h-0.5v-0.4h5.3
			c0.6,0,1.1,0,1.6,0.1c0.5,0.1,0.9,0.1,1.2,0.3s0.7,0.3,0.9,0.5c0.3,0.2,0.5,0.4,0.7,0.7c0.5,0.6,0.7,1.3,0.7,2
			c0,0.7-0.2,1.3-0.6,1.8C137.3,20.3,136.7,20.6,136,20.9z M131.3,20.4c0.4,0.1,1,0.1,1.7,0.1c0.9,0,1.5-0.1,2-0.3
			c0.4-0.2,0.8-0.5,1-0.9c0.2-0.4,0.3-0.9,0.3-1.4c0-0.4-0.1-0.7-0.2-1.1c-0.1-0.3-0.4-0.6-0.6-0.9c-0.3-0.3-0.6-0.5-1.1-0.6
			c-0.4-0.1-0.9-0.2-1.5-0.2c-0.6,0-1.1,0.1-1.6,0.2L131.3,20.4L131.3,20.4z M131.3,26.7c0.7,0.2,1.4,0.3,2,0.3c0.5,0,1-0.1,1.4-0.2
			c0.4-0.1,0.8-0.3,1-0.6c0.3-0.2,0.5-0.5,0.6-0.9c0.1-0.3,0.2-0.7,0.2-1.1c0-0.4-0.1-0.8-0.2-1.2c-0.2-0.4-0.4-0.7-0.7-1
			c-0.3-0.3-0.7-0.5-1.2-0.6c-0.5-0.2-1-0.2-1.7-0.2c-0.4,0-0.7,0-0.9,0c-0.3,0-0.5,0-0.6,0.1L131.3,26.7L131.3,26.7z"/>
		<path class="st14" d="M147,14.1c0.9,0,1.7,0.2,2.4,0.6c0.7,0.4,1.3,0.9,1.8,1.5c0.5,0.6,0.9,1.4,1.2,2.2c0.3,0.8,0.4,1.7,0.4,2.5
			c0,1-0.2,1.9-0.5,2.8c-0.3,0.8-0.7,1.6-1.3,2.2c-0.5,0.6-1.2,1.1-1.9,1.5c-0.7,0.4-1.5,0.5-2.3,0.5c-0.8,0-1.6-0.2-2.3-0.5
			c-0.7-0.3-1.3-0.8-1.9-1.4c-0.5-0.6-0.9-1.3-1.3-2.2c-0.3-0.8-0.5-1.8-0.5-2.8c0-0.9,0.2-1.8,0.5-2.7c0.3-0.8,0.7-1.6,1.3-2.2
			c0.5-0.6,1.2-1.1,1.9-1.5C145.4,14.3,146.2,14.1,147,14.1z M146.9,14.8c-0.6,0-1.2,0.1-1.6,0.4c-0.5,0.3-0.9,0.7-1.2,1.2
			c-0.3,0.5-0.6,1.2-0.7,1.9c-0.2,0.8-0.3,1.6-0.3,2.5c0,0.9,0.1,1.8,0.2,2.5c0.2,0.8,0.4,1.4,0.7,2c0.3,0.6,0.7,1,1.2,1.3
			s1,0.5,1.7,0.5c0.6,0,1.1-0.1,1.6-0.4c0.5-0.2,0.9-0.6,1.2-1.1c0.4-0.5,0.6-1.1,0.8-1.9c0.2-0.8,0.3-1.7,0.3-2.7
			c0-1-0.1-1.9-0.2-2.7c-0.2-0.8-0.4-1.5-0.7-2c-0.3-0.5-0.7-1-1.2-1.2C148.1,15,147.5,14.8,146.9,14.8z"/>
		<path class="st14" d="M162.9,14.8v-0.4h4.3v0.4h-0.5c-0.5,0-0.8,0.2-1.1,0.7c-0.1,0.2-0.2,0.7-0.2,1.4v5.3c0,0.6,0,1.1-0.1,1.5
			c0,0.4-0.1,0.8-0.2,1.2s-0.2,0.7-0.4,0.9c-0.1,0.3-0.3,0.5-0.6,0.8c-0.3,0.3-0.5,0.5-0.8,0.7c-0.3,0.2-0.6,0.3-0.9,0.4
			c-0.3,0.1-0.6,0.2-0.9,0.2c-0.3,0-0.6,0.1-0.9,0.1c-0.8,0-1.5-0.1-2-0.3c-0.5-0.2-1-0.4-1.3-0.7c-0.4-0.3-0.6-0.7-0.8-1.1
			c-0.2-0.4-0.3-0.8-0.4-1.3c-0.1-0.4-0.1-0.9-0.2-1.4c0-0.5,0-0.9,0-1.3v-5.1c0-0.4,0-0.8-0.1-1s-0.1-0.5-0.2-0.6
			c-0.1-0.1-0.2-0.2-0.4-0.3c-0.2-0.1-0.4-0.1-0.6-0.1h-0.5v-0.4h5.3v0.4H159c-0.2,0-0.4,0-0.6,0.1c-0.2,0-0.3,0.1-0.4,0.3
			c-0.1,0.1-0.2,0.3-0.2,0.6c-0.1,0.3-0.1,0.6-0.1,1v5.7c0,0.5,0,1.1,0.1,1.6c0.1,0.5,0.2,1,0.4,1.5c0.2,0.4,0.5,0.8,0.9,1.1
			c0.4,0.3,1,0.4,1.7,0.4c0.6,0,1.1-0.1,1.6-0.3c0.5-0.2,0.9-0.5,1.2-0.8c0.2-0.2,0.4-0.5,0.5-0.8c0.1-0.3,0.2-0.6,0.3-1
			c0.1-0.3,0.1-0.7,0.1-1c0-0.3,0-0.7,0-1v-5.3c0-0.8-0.1-1.3-0.2-1.5c-0.2-0.3-0.6-0.4-1-0.4L162.9,14.8L162.9,14.8z"/>
		<path class="st14" d="M180.4,27.6h-3.3l-4.1-6.2c-0.2,0-0.3,0-0.4,0c-0.1,0-0.2,0-0.3,0c-0.1,0-0.2,0-0.3,0s-0.2,0-0.3,0v3.8
			c0,0.8,0.1,1.3,0.2,1.5c0.2,0.3,0.6,0.4,1,0.4h0.5v0.4h-5.2v-0.4h0.5c0.5,0,0.9-0.2,1.1-0.5c0.1-0.2,0.2-0.7,0.2-1.4v-8.5
			c0-0.8-0.1-1.3-0.2-1.5c-0.2-0.3-0.6-0.4-1-0.4h-0.5v-0.4h4.4c0.7,0,1.2,0,1.7,0.1c0.5,0,0.9,0.1,1.2,0.2c0.3,0.1,0.6,0.3,0.9,0.4
			c0.2,0.2,0.5,0.4,0.7,0.7c0.4,0.6,0.6,1.2,0.6,1.9c0,0.8-0.2,1.5-0.7,2.1c-0.5,0.6-1.2,1-2.3,1.3l2.5,3.8c0.3,0.4,0.6,0.8,0.8,1.1
			c0.2,0.3,0.5,0.5,0.7,0.7c0.2,0.2,0.5,0.3,0.7,0.4c0.3,0.1,0.6,0.1,0.9,0.2L180.4,27.6L180.4,27.6z M171.7,20.9h0.5
			c0.6,0,1.1-0.1,1.5-0.2c0.4-0.1,0.8-0.4,1.1-0.6c0.3-0.3,0.5-0.6,0.7-0.9c0.1-0.4,0.2-0.7,0.2-1.1s-0.1-0.8-0.2-1.1
			c-0.1-0.3-0.3-0.6-0.5-0.9c-0.2-0.2-0.5-0.4-0.8-0.6c-0.3-0.1-0.7-0.2-1.1-0.2c-0.4,0-0.8,0.1-1.4,0.2L171.7,20.9L171.7,20.9z"/>
	</g>
	<g>
		<path class="st14" d="M88.9,54.4c0-0.1-0.1-0.1-0.2-0.1c-0.1,0-0.2,0-0.3,0v-0.1H90v0.1c-0.2,0-0.4,0-0.5,0.1
			c-0.1,0.1-0.2,0.3-0.3,0.5c-0.1,0.2-0.1,0.4-0.2,0.6l-2.4,7.4l-0.5,0.3l-2.8-7.9c0-0.1-0.1-0.3-0.2-0.4c-0.1-0.2-0.2-0.3-0.2-0.4
			c0,0-0.1-0.1-0.2-0.1c-0.1,0-0.2,0-0.3,0v-0.1h1.9v0.1c-0.3,0-0.4,0-0.5,0.1c0,0,0,0.1,0,0.1c0,0.1,0,0.3,0.1,0.4
			c0.1,0.2,0.1,0.3,0.1,0.4l2.4,7.1l2.3-7.1c0-0.1,0.1-0.2,0.1-0.4c0-0.2,0.1-0.3,0.1-0.5C89,54.4,89,54.4,88.9,54.4"/>
		<path class="st14" d="M93,54.1v0.1c-0.1,0-0.1,0-0.2,0c-0.1,0-0.2,0.1-0.2,0.1c-0.1,0-0.1,0.1-0.1,0.3c0,0.1,0,0.2,0,0.3v7.3
			c0,0.1,0,0.1,0,0.2c0,0.1,0,0.2,0.1,0.2c0,0.1,0.1,0.1,0.2,0.1c0.1,0,0.2,0,0.3,0v0.1h-1.7v-0.1c0.2,0,0.3,0,0.4-0.1
			c0.1,0,0.1-0.1,0.1-0.2c0-0.1,0-0.2,0-0.3v-7.2c0-0.1,0-0.1,0-0.3c0-0.1-0.1-0.2-0.1-0.3c0,0-0.1-0.1-0.2-0.1
			c-0.1,0-0.2,0-0.2-0.1v-0.1H93z"/>
		<path class="st14" d="M98.6,57.9c0.2,0,0.4-0.1,0.4-0.2c0.1-0.1,0.1-0.4,0.1-0.7h0.2v2h-0.2c0-0.3-0.1-0.5-0.2-0.7
			c-0.1-0.1-0.2-0.2-0.4-0.2h-2.7v4c0,0.1,0,0.1,0,0.2c0,0.1,0,0.2,0.1,0.2c0,0.1,0.1,0.1,0.2,0.1c0.1,0,0.2,0,0.3,0h2.7
			c0.2,0,0.3,0,0.5-0.1c0.2-0.1,0.3-0.1,0.4-0.2c0.1-0.1,0.2-0.2,0.3-0.4c0.1-0.2,0.2-0.3,0.2-0.4l0.2-0.1l-0.4,1.3h-4h-1.7v-0.1
			c0.2,0,0.3,0,0.4-0.1c0.1,0,0.1-0.1,0.1-0.2c0-0.1,0-0.2,0-0.3v-7.2c0-0.1,0-0.1,0-0.3c0-0.1-0.1-0.2-0.1-0.3c0,0-0.1-0.1-0.2-0.1
			c-0.1,0-0.2,0-0.2-0.1v-0.1h5.8l-0.4,1.5l-0.2-0.1c0-0.3,0-0.4,0-0.5c0-0.2,0-0.4-0.1-0.4c-0.1-0.2-0.4-0.3-0.8-0.3h-2.6
			c-0.1,0-0.1,0-0.2,0.1c-0.1,0-0.2,0.1-0.2,0.1c-0.1,0-0.1,0.1-0.1,0.3c0,0.1,0,0.2,0,0.3v2.8L98.6,57.9L98.6,57.9z"/>
		<path class="st14" d="M107.5,55.4c0-0.1,0.1-0.2,0.1-0.4c0-0.2,0.1-0.3,0.1-0.5c0-0.1,0-0.1,0-0.2c-0.1-0.1-0.3-0.1-0.7-0.1
			c-0.4,0-0.6,0-0.6,0.1c0,0,0,0.1,0,0.1c0,0.1,0,0.3,0.1,0.4c0.1,0.2,0.1,0.3,0.1,0.4l0.5,1.6L107.5,55.4z M108.8,62.5l2.3-7.1
			c0-0.1,0.1-0.2,0.1-0.4c0-0.2,0.1-0.3,0.1-0.5c0-0.1,0-0.1,0-0.2c0-0.1-0.1-0.1-0.2-0.1c-0.1,0-0.2,0-0.3,0v-0.1h1.6v0.1
			c-0.2,0-0.4,0-0.5,0.1c-0.1,0.1-0.2,0.3-0.3,0.5c-0.1,0.2-0.1,0.4-0.2,0.6l-2.4,7.4l-0.5,0.3l-1.7-4.9c-0.3,1-0.6,1.9-0.9,2.7
			c-0.3,0.8-0.4,1.4-0.6,1.8l-0.5,0.3l-2.8-7.9c0-0.1-0.1-0.3-0.2-0.4c-0.1-0.2-0.2-0.3-0.2-0.4c0,0-0.1-0.1-0.2-0.1
			c-0.1,0-0.2,0-0.3-0.1V54h1.9v0.1c-0.3,0-0.4,0-0.5,0.1c0,0,0,0.1,0,0.1c0,0.1,0,0.3,0.1,0.4c0.1,0.2,0.1,0.3,0.1,0.4l2.4,7.1
			l1.5-4.5l-1-2.7c0-0.1-0.1-0.3-0.2-0.4c-0.1-0.2-0.2-0.3-0.2-0.4c0,0-0.1-0.1-0.2-0.1c-0.1,0-0.2,0-0.3,0v-0.2h2.1h1.8v0.1
			c-0.2,0-0.4,0-0.5,0.1c-0.1,0.1-0.2,0.3-0.3,0.5c-0.1,0.2-0.2,0.4-0.2,0.6l-0.6,1.9L108.8,62.5z"/>
		<path class="st14" d="M115,54.2c-0.6,0-1.2,0.2-1.5,0.5c-0.4,0.3-0.5,0.8-0.5,1.4c0,0.4,0.2,0.8,0.5,1c0.3,0.3,0.9,0.6,1.7,1
			c0.8,0.4,1.4,0.8,1.8,1.1c0.4,0.4,0.6,0.9,0.6,1.5c0,0.8-0.2,1.4-0.7,1.8c-0.5,0.4-1.1,0.6-1.9,0.6c-0.7,0-1.3-0.1-1.6-0.2
			c-0.3-0.2-0.5-0.3-0.6-0.4l-0.2-1l0.1-0.1c0.1,0.4,0.3,0.8,0.7,1.1c0.4,0.3,0.8,0.4,1.4,0.4c1.5,0,2.3-0.7,2.3-2
			c0-0.4-0.2-0.8-0.5-1.1c-0.4-0.3-0.9-0.6-1.7-1c-0.7-0.4-1.3-0.8-1.7-1.1c-0.4-0.3-0.6-0.8-0.6-1.3c0-0.8,0.2-1.4,0.7-1.8
			c0.5-0.4,1.2-0.7,2.2-0.7c0.4,0,0.7,0.1,1,0.2c0.3,0.1,0.5,0.3,0.7,0.5s0.3,0.3,0.3,0.4l-0.1,1l-0.2-0.1c0-0.4-0.2-0.8-0.5-1.1
			C116.4,54.4,115.8,54.2,115,54.2"/>
	</g>
</g>
</svg>
