<?xml version="1.0" encoding="utf-8"?>
<!-- Generator: Adobe Illustrator 16.0.0, SVG Export Plug-In . SVG Version: 6.00 Build 0)  -->
<!DOCTYPE svg PUBLIC "-//W3C//DTD SVG 1.1//EN" "http://www.w3.org/Graphics/SVG/1.1/DTD/svg11.dtd">
<svg version="1.1" id="Layer_1" xmlns="http://www.w3.org/2000/svg" xmlns:xlink="http://www.w3.org/1999/xlink" x="0px" y="0px"
	 width="150.25px" height="70px" viewBox="0 0 150.25 70" enable-background="new 0 0 150.25 70" xml:space="preserve">
<path fill="#010101" d="M81.753,21.826L81.753,21.826L81.753,21.826L81.753,21.826c0.001-0.004,0-0.005-0.002-0.006
	c-0.001-0.001-0.003,0-0.006,0.001l0,0c-1.52,2.389-4.304,4.039-7.831,3.767c-3.121-0.241-5.897-2.846-5.826-6.125
	c0.05-2.342,0.953-3.432,1.554-3.925c-0.294,0.578-1.538,3.715,0.568,5.985c1.463,1.579,3.875,1.429,5.03,0.563h0.001
	c0.537,0.183,1.073,0.292,1.699,0.313c2.474,0.087,4.489-1.314,4.553-3.128c0.073-2.091-2.001-3.489-4.497-3.577
	c-0.452-0.016-0.889,0.017-1.304,0.09c0.867-1.955,2.675-2.108,3.206-2.07c1.81,0.131,2.577,1.314,2.801,1.752l0,0
	c0.001,0.002,0.004,0.003,0.007,0.002c0.002,0,0.002-0.003,0.002-0.006c-0.556-1.394-1.931-2.406-3.574-2.463
	c-2.192-0.077-4.028,1.576-4.102,3.69c-0.013,0.366,0.028,0.721,0.115,1.058h-0.003c0.001,0.002,0.002,0.003,0.003,0.004
	c0,0.001,0.001,0.003,0.003,0.003c0.003,0,0.004-0.001,0.005-0.003c0.058-0.091,0.123-0.179,0.191-0.264
	c0.567-0.662,1.51-1.045,2.566-1.007c1.675,0.058,3.097,1.202,3.047,2.612c-0.049,1.41-1.549,2.503-3.224,2.446
	c-2.052-0.072-3.924-2.018-3.853-4.025c0.017-0.496,0.122-0.967,0.301-1.4c0.001-0.002,0-0.004-0.002-0.005
	c-0.001-0.001-0.003,0-0.004,0.001c-0.613,0.616-0.989,1.388-1.019,2.236c-0.042,1.214,0.862,2.677,2.338,3.43
	c-1.262,0.534-4.485-0.533-4.366-3.918c0.083-2.404,1.542-4.67,3.577-5.137c0.002-0.001,0.004-0.002,0.003-0.005
	c-0.001-0.002-0.002-0.003-0.005-0.003h0c-4.208,0.717-6.67,3.376-6.796,6.982c-0.132,3.793,3.054,7.109,6.919,7.245
	C78.58,27.104,80.963,23.868,81.753,21.826 M78.378,15.575L78.378,15.575c0,0.001,0,0.001,0,0.002c0,0,0.002,0.002,0.003,0.002
	c1.545-0.002,0.649-1.116,1.77-1.131l0,0c0.001,0.001,0.002,0,0.003-0.002c0-0.001-0.001-0.004-0.002-0.003v-0.001
	C78.815,14.056,78.561,14.934,78.378,15.575 M71.451,9.406c0.202-0.14,0.399-0.283,0.592-0.423c2.67-1.945,2.282-3.637,0.83-4.285
	c-0.001,0-0.004,0-0.005,0.001c-0.001,0.002-0.001,0.004,0,0.005v0c1.454,2.035-1.001,4.316-1.423,4.692
	c-0.001,0-0.005,0.004-0.001,0.009C71.446,9.408,71.449,9.408,71.451,9.406 M72.905,10.065c0.793-0.337,2.483-1.221,2.503-2.617
	c0.125-0.934-0.863-1.738-1.046-1.879l0,0l0,0c-0.002-0.001-0.005-0.001-0.006,0c-0.002,0.002-0.002,0.004-0.001,0.005
	c1.74,2.132-3.067,4.756-4.614,6.001l0,0l0,0c-0.002,0.001-0.003,0.004-0.002,0.005c0.001,0.002,0.004,0.003,0.006,0.002
	C69.938,11.499,71.484,10.675,72.905,10.065 M76.568,23.188c-0.001,0-0.003,0-0.004,0.001c0,0.001-0.001,0.001-0.001,0.002l0,0
	c-0.604,0.981-2.125,1.272-3.175,0.604c-0.001-0.001-0.003-0.001-0.005,0c-0.002,0.001-0.003,0.005-0.002,0.006
	c0.921,1.954,3.343,0.748,3.189-0.61l0,0C76.57,23.19,76.57,23.189,76.568,23.188 M67.514,23.628c0.001,0,0.002-0.003,0-0.005
	c0-0.001,0-0.001,0-0.001c-0.813-1.247-1.259-2.774-1.203-4.372c0.121-3.467,2.142-5.831,6.185-7.261
	c2.854-1.009,4.192-1.58,4.237-2.899c0.027-0.764-0.722-1.725-0.847-1.878l0,0c0-0.002-0.004-0.003-0.005-0.002
	c-0.002,0.001-0.004,0.003-0.002,0.006c0,0,0,0,0,0.001c0.954,2.315-2.442,3.25-4.568,4.163h0c-2.921,1.101-5.237,3.791-5.435,7.029
	l0,0c-0.067,1.95,0.548,3.767,1.632,5.219C67.509,23.628,67.512,23.63,67.514,23.628 M76.241,12.512L76.241,12.512
	c0,0.001-0.001,0.001,0,0.002c0,0.001,0,0.003,0.002,0.003c1.546-0.003,0.649-1.114,1.771-1.13l0,0c0.001,0,0.002-0.001,0.002-0.003
	c0.001-0.001,0-0.003-0.002-0.003C76.677,10.993,76.422,11.871,76.241,12.512 M78.272,29.328c-0.063-0.044-0.134-0.075-0.208-0.093
	c-0.067-0.015-0.134-0.022-0.197-0.022c-0.202,0-0.337,0.006-0.337,0.147v2.111h-2.481v-1.618c0-0.123-0.017-0.229-0.061-0.322
	c-0.041-0.083-0.095-0.153-0.165-0.203c-0.063-0.044-0.134-0.075-0.208-0.093c-0.068-0.015-0.134-0.022-0.197-0.022
	c-0.202,0-0.337,0.006-0.337,0.147v5.238c0,0.03,0.012,0.059,0.033,0.083c0.021,0.021,0.05,0.031,0.08,0.031h0.741
	c0.03,0,0.06-0.011,0.081-0.031c0.021-0.024,0.034-0.053,0.034-0.083v-2.302h2.481v2.302c0,0.03,0.012,0.059,0.032,0.083
	c0.022,0.021,0.052,0.031,0.082,0.031h0.74c0.03,0,0.06-0.011,0.081-0.031c0.021-0.024,0.034-0.053,0.034-0.083v-4.745
	c0-0.123-0.018-0.229-0.061-0.322C78.396,29.448,78.343,29.378,78.272,29.328 M92.043,34.043c-0.114-0.111-0.277-0.154-0.473-0.154
	h-1.863v-4.042c0-0.122-0.018-0.229-0.062-0.322c-0.04-0.083-0.094-0.154-0.166-0.203c-0.062-0.043-0.133-0.075-0.207-0.093
	c-0.069-0.015-0.134-0.022-0.197-0.022c-0.203,0-0.338,0.005-0.338,0.147v5.245c0,0.03,0.013,0.061,0.033,0.083
	c0.021,0.021,0.051,0.031,0.082,0.031h3.221c0.029,0,0.058-0.011,0.081-0.031c0.021-0.024,0.032-0.053,0.032-0.083V34.42
	C92.187,34.276,92.143,34.145,92.043,34.043 M82.549,33.896h-2.051v-1.607h1.82c0.03,0,0.06-0.012,0.081-0.034
	c0.021-0.021,0.034-0.051,0.034-0.082v-0.601c0-0.03-0.012-0.061-0.034-0.081c-0.021-0.022-0.051-0.033-0.081-0.033h-1.82v-1.375
	h1.93c0.213-0.001,0.382-0.038,0.494-0.157c0.094-0.102,0.143-0.236,0.142-0.38v-0.082c0-0.13-0.063-0.196-0.131-0.196h-3.29
	c-0.03,0-0.059,0.012-0.081,0.032c-0.021,0.021-0.033,0.052-0.033,0.081v5.218c0,0.03,0.012,0.059,0.033,0.083
	c0.022,0.021,0.051,0.031,0.081,0.031h3.426c0.03,0,0.059-0.011,0.081-0.031c0.021-0.024,0.033-0.053,0.033-0.083v-0.165
	c0.001-0.146-0.046-0.282-0.151-0.384C82.917,33.938,82.751,33.896,82.549,33.896 M87.156,33.896h-2.049v-1.607h1.819
	c0.03,0,0.06-0.012,0.081-0.034c0.021-0.021,0.034-0.051,0.034-0.082v-0.601c0-0.03-0.013-0.061-0.034-0.081
	c-0.02-0.022-0.051-0.033-0.081-0.033h-1.819v-1.375h1.93c0.212-0.001,0.38-0.038,0.492-0.157c0.094-0.102,0.144-0.236,0.141-0.38
	v-0.082c0-0.132-0.061-0.196-0.131-0.196h-3.288c-0.031,0-0.06,0.012-0.081,0.032c-0.021,0.021-0.034,0.052-0.034,0.081v5.218
	c0,0.03,0.013,0.059,0.034,0.083c0.021,0.021,0.05,0.031,0.081,0.031h3.426c0.03,0,0.058-0.011,0.079-0.031
	c0.023-0.024,0.034-0.053,0.034-0.083v-0.165c0.002-0.146-0.045-0.282-0.149-0.384C87.524,33.938,87.359,33.896,87.156,33.896
	 M64.661,32.524l0.794-2.053l0.788,2.053H64.661z M66.089,29.634c-0.058-0.142-0.143-0.253-0.263-0.313
	c-0.104-0.052-0.222-0.077-0.344-0.077c-0.171,0-0.335,0.032-0.459,0.077c-0.029,0.011-0.052,0.034-0.065,0.064l-2.07,5.169
	c-0.014,0.034-0.01,0.075,0.011,0.108c0.022,0.032,0.058,0.05,0.096,0.05h0.758c0.047,0,0.088-0.028,0.105-0.072l0.525-1.33h2.148
	l0.542,1.333c0.017,0.041,0.059,0.069,0.105,0.069h0.774c0.038,0,0.073-0.018,0.095-0.05c0.021-0.033,0.025-0.074,0.011-0.108
	L66.089,29.634z M61.904,29.353c-0.06-0.041-0.127-0.07-0.197-0.088c-0.064-0.015-0.127-0.021-0.187-0.021
	c-0.192,0-0.319,0.004-0.319,0.14v3.813l-2.553-3.647c-0.068-0.103-0.146-0.184-0.239-0.234c-0.097-0.054-0.211-0.071-0.348-0.071
	c-0.184,0-0.32,0.03-0.365,0.043c-0.048,0.016-0.082,0.061-0.082,0.111v5.2c0,0.03,0.012,0.059,0.033,0.083
	c0.022,0.021,0.051,0.031,0.081,0.031h0.69c0.031,0,0.06-0.011,0.081-0.031c0.021-0.024,0.034-0.053,0.034-0.083v-3.69l2.69,3.758
	c0.022,0.031,0.057,0.047,0.093,0.047h0.69c0.029,0,0.06-0.011,0.081-0.031c0.021-0.024,0.033-0.053,0.033-0.083v-4.747
	c0-0.117-0.017-0.219-0.058-0.306C62.022,29.466,61.971,29.4,61.904,29.353 M70.827,31.797l2.132-2.177
	c0.024-0.026,0.037-0.062,0.033-0.096c-0.005-0.035-0.025-0.067-0.054-0.086c-0.057-0.033-0.217-0.106-0.347-0.148
	c-0.068-0.021-0.138-0.032-0.208-0.032c-0.101,0-0.198,0.022-0.285,0.068c-0.087,0.043-0.175,0.114-0.271,0.206l-1.996,2.04l0-1.719
	c0-0.123-0.018-0.229-0.061-0.322c-0.042-0.083-0.096-0.153-0.166-0.203c-0.064-0.044-0.134-0.075-0.209-0.093
	c-0.067-0.015-0.133-0.022-0.196-0.022c-0.203,0-0.338,0.006-0.338,0.147v5.238c0,0.03,0.012,0.059,0.034,0.083
	c0.021,0.021,0.051,0.031,0.081,0.031h0.741c0.03,0,0.06-0.011,0.081-0.031c0.022-0.024,0.034-0.053,0.034-0.083v-2.52l2.024,2.368
	c0.093,0.108,0.194,0.19,0.303,0.247c0.117,0.056,0.255,0.082,0.414,0.082c0.2,0,0.433-0.072,0.508-0.1
	c0.036-0.014,0.062-0.045,0.071-0.083c0.009-0.034,0-0.075-0.025-0.104L70.827,31.797z"/>
<path fill="#FFFFFF" d="M78.829,15.799V15.8c0,0-0.001,0.001,0,0.001c0,0.002,0.001,0.003,0.002,0.003
	c1.546-0.002,0.649-1.115,1.77-1.131h0c0.001,0.001,0.002,0,0.003-0.002c0-0.002-0.002-0.004-0.003-0.003v-0.001
	C79.266,14.281,79.01,15.159,78.829,15.799"/>
<path fill="#FFFFFF" d="M71.901,9.63c0.202-0.139,0.399-0.282,0.592-0.422c2.67-1.944,2.282-3.638,0.83-4.285
	c-0.001-0.001-0.004-0.001-0.005,0.001c-0.001,0.001-0.001,0.003,0,0.004V4.93c1.454,2.035-1.001,4.316-1.424,4.692
	c0,0-0.004,0.004,0,0.009C71.896,9.633,71.899,9.633,71.901,9.63"/>
<path fill="#FFFFFF" d="M73.354,10.29c0.793-0.338,2.484-1.221,2.503-2.618c0.124-0.933-0.864-1.737-1.045-1.878h0l0,0
	c-0.002-0.001-0.005-0.001-0.006,0c-0.001,0.002-0.001,0.004,0,0.005c1.74,2.132-3.067,4.755-4.614,6.001l0,0h-0.001
	c-0.001,0.001-0.002,0.003-0.001,0.006c0.001,0.002,0.004,0.003,0.006,0.002C70.387,11.724,71.934,10.9,73.354,10.29"/>
<path fill="#FFFFFF" d="M77.018,23.413c-0.001,0-0.003,0-0.004,0.001c0,0-0.001,0.001-0.001,0.003l0,0
	c-0.604,0.981-2.125,1.271-3.174,0.604c-0.002-0.002-0.003-0.003-0.006,0c-0.001,0.001-0.001,0.003-0.001,0.004
	c0.921,1.956,3.343,0.749,3.189-0.607v-0.001C77.02,23.415,77.019,23.414,77.018,23.413"/>
<path fill="#FFFFFF" d="M67.963,23.854c0.002-0.001,0.002-0.003,0.001-0.007h0c-0.813-1.248-1.259-2.773-1.203-4.371
	c0.121-3.468,2.142-5.831,6.185-7.261c2.854-1.009,4.192-1.58,4.237-2.899c0.027-0.764-0.722-1.724-0.847-1.878l0,0
	c0-0.002-0.004-0.004-0.004-0.002c-0.002,0.001-0.004,0.003-0.002,0.006h0c0.954,2.315-2.442,3.25-4.568,4.164h0
	c-2.921,1.101-5.237,3.791-5.435,7.029l0,0c-0.067,1.95,0.548,3.767,1.632,5.218C67.959,23.854,67.961,23.854,67.963,23.854"/>
<path fill="#FFFFFF" d="M76.69,12.737L76.69,12.737c0,0.001,0,0.001,0,0.002c0,0,0.001,0.002,0.002,0.002
	c1.546-0.002,0.649-1.115,1.77-1.129l0,0c0.002,0,0.003-0.001,0.003-0.003c0-0.001,0-0.003-0.002-0.003
	C77.127,11.218,76.873,12.096,76.69,12.737"/>
<g>
	<path d="M6.892,47.495l4.383-0.912v9.367c0,4.205-2.425,5.628-4.628,6.186v-0.268c1.357-0.334,1.357-5.406,1.357-5.406v-7.031
		c0-0.756-0.2-1.156-1.112-1.646V47.495z M9.428,41.755c1.001,0,1.824,0.801,1.824,1.803c0,1.023-0.823,1.824-1.824,1.824
		s-1.824-0.801-1.824-1.824C7.604,42.556,8.427,41.755,9.428,41.755"/>
	<path d="M15.857,51.724c0.089,2.781,1.18,3.782,2.67,4.115c1.157,0.267,2.803-0.289,3.292-1.757l0.29,0.111
		c-0.312,1.4-1.78,3.07-4.672,3.07c-2.915,0-5.095-2.493-5.095-5.296c0-3.471,2.514-5.385,5.406-5.385
		c2.804,0,4.672,1.313,4.672,5.141H15.857z M19.461,51.433c0-2.803-0.601-4.561-1.713-4.561c-1.179,0-1.891,2.426-1.891,4.561
		H19.461z"/>
	<path d="M29.384,57.264c-1.535,0-2.647-0.401-3.314-1.047c-0.757,0.579-2.648,1.091-2.648,0.735V43.046
		c0-0.756-0.222-1.09-1.135-1.424v-0.268l4.406-0.889v7.92c0.667-1.223,2.046-1.803,3.626-1.803c2.781,0,4.694,2.18,4.694,5.318
		C35.013,55.905,32.365,57.264,29.384,57.264 M28.761,47.384c-1.514,0-2.069,1.535-2.069,3.182v2.604
		c0,2.67,0.934,3.805,2.247,3.805c1.424,0,2.247-1.335,2.247-4.828C31.186,49.075,30.474,47.384,28.761,47.384"/>
	<path d="M39.306,51.724c0.089,2.781,1.179,3.782,2.67,4.115c1.157,0.267,2.804-0.289,3.293-1.757l0.289,0.111
		c-0.311,1.4-1.78,3.07-4.672,3.07c-2.915,0-5.095-2.493-5.095-5.296c0-3.471,2.514-5.385,5.406-5.385
		c2.803,0,4.672,1.313,4.672,5.141H39.306z M42.91,51.433c0-2.803-0.6-4.561-1.713-4.561c-1.179,0-1.891,2.426-1.891,4.561H42.91z"
		/>
	<path d="M51.254,57.063h-5.073v-0.268c0.846-0.244,0.89-1.179,0.89-2.337V43.067c0-0.777-0.245-1.111-1.157-1.445v-0.268
		l4.427-0.889v13.993c0,1.225,0.111,2.114,0.912,2.337V57.063z"/>
	<path d="M66.227,55.661c-0.245,0.845-1.335,1.603-2.736,1.603c0,0-2.225,0-2.448-1.893c-0.311,1.069-1.535,1.893-3.114,1.893
		c-0.423,0-2.67-0.179-2.67-2.27c0-2.315,1.847-2.647,5.762-3.604v-1.402c0-2.314-1.291-3.494-2.826-2.715
		c-0.356,0.178-0.667,0.535-0.2,0.668c0.356,0.09,0.623,0.311,0.823,0.668c0.356,0.689,0.088,1.533-0.601,1.912
		c-0.689,0.357-1.557,0.09-1.913-0.6c-0.245-0.512-0.2-1.113,0.111-1.49c0.245-0.334,0.578-0.846,1.602-1.379
		c1.001-0.535,2.136-0.469,2.136-0.469c2.914,0,4.116,1.824,4.116,4.449v3.315c0,0,0,1.581,1.067,1.558c0,0,0.512,0,0.646-0.378
		L66.227,55.661z M58.662,54.438c0,0,0,1.468,1.157,1.468c0.578,0,0.979-0.444,1.202-0.979V51.7
		C59.018,52.146,58.662,53.348,58.662,54.438"/>
	<path d="M71.388,57.063h-5.073v-0.268c0.846-0.244,0.89-1.179,0.89-2.337V43.067c0-0.777-0.245-1.111-1.157-1.445v-0.268
		l4.427-0.889v13.993c0,1.225,0.111,2.114,0.913,2.337V57.063z"/>
	<path d="M77.017,57.063h-5.073v-0.268c0.846-0.268,0.89-1.202,0.89-2.337v-5.185c0-0.777-0.245-1.088-1.157-1.49v-0.289
		l4.428-0.912v7.876c0,1.225,0.111,2.114,0.912,2.337V57.063z M74.235,41.778c1.001,0,1.825,0.801,1.825,1.824
		c0,1-0.824,1.803-1.825,1.803c-1.023,0-1.824-0.803-1.824-1.803C72.412,42.579,73.212,41.778,74.235,41.778"/>
	<path d="M93.034,46.784v0.289c-0.979,0-1.757,0.422-3.048,3.537l-2.581,6.653h-0.801c-1.958-4.272-4.25-8.923-4.25-8.923
		c-0.578-1.156-1.246-1.246-1.668-1.268v-0.289h6.118v0.289c-1.379,0-0.467,1.758-0.467,1.758l2.225,4.583
		c0,0,0.935-2.337,1.113-2.872c0.2-0.533,0.956-3.469-1.402-3.469v-0.289H93.034z"/>
	<path d="M98.931,57.063h-5.072v-0.268c0.845-0.268,0.89-1.202,0.89-2.337v-5.185c0-0.777-0.245-1.088-1.157-1.49v-0.289
		l4.427-0.912v7.876c0,1.225,0.111,2.114,0.913,2.337V57.063z M96.15,41.778c1.001,0,1.824,0.801,1.824,1.824
		c0,1-0.823,1.803-1.824,1.803c-1.023,0-1.824-0.803-1.824-1.803C94.326,42.579,95.126,41.778,96.15,41.778"/>
	<path d="M104.671,57.063h-5.072v-0.268c0.845-0.244,0.89-1.179,0.89-2.337V43.067c0-0.777-0.244-1.111-1.156-1.445v-0.268
		l4.427-0.889v13.993c0,1.225,0.111,2.114,0.912,2.337V57.063z"/>
	<path d="M110.634,57.063h-5.072v-0.268c0.846-0.244,0.89-1.179,0.89-2.337V43.067c0-0.777-0.244-1.111-1.156-1.445v-0.268
		l4.427-0.889v13.993c0,1.225,0.111,2.114,0.912,2.337V57.063z"/>
	<path d="M121.778,55.661c-0.245,0.845-1.335,1.603-2.735,1.603c0,0-2.227,0-2.448-1.893c-0.312,1.069-1.535,1.893-3.114,1.893
		c-0.423,0-2.67-0.179-2.67-2.27c0-2.315,1.847-2.647,5.763-3.604v-1.402c0-2.314-1.292-3.494-2.827-2.715
		c-0.354,0.178-0.666,0.535-0.2,0.668c0.357,0.09,0.624,0.311,0.823,0.668c0.357,0.689,0.089,1.533-0.6,1.912
		c-0.689,0.357-1.558,0.09-1.914-0.6c-0.244-0.512-0.2-1.113,0.112-1.49c0.244-0.334,0.578-0.846,1.602-1.379
		c1-0.535,2.135-0.469,2.135-0.469c2.915,0,4.116,1.824,4.116,4.449v3.315c0,0,0,1.581,1.069,1.558c0,0,0.511,0,0.644-0.378
		L121.778,55.661z M114.215,54.438c0,0,0,1.468,1.156,1.468c0.579,0,0.979-0.444,1.202-0.979V51.7
		C114.569,52.146,114.215,53.348,114.215,54.438"/>
	<path d="M131.702,48.431c-0.245-0.268-0.356-0.623-0.312-0.936c0.044-0.199-0.445-0.111-0.823,0.268
		c0.533,0.557,0.778,1.357,0.778,2.158c0,1.49-1.111,3.338-4.449,3.338c-0.891,0-1.536-0.09-2.092-0.312
		c-0.6,0.312-1.735,1.712,0.534,1.712h3.114c1.47,0,4.161,0.111,3.693,3.916c0,0-0.133,1.78-2.402,3.182
		c-2.78,1.714-7.23,1.558-8.077-0.267c-0.889-1.914,0.734-3.448,1.937-3.982c-0.645-0.312-1.202-0.891-1.202-1.891
		c0,0-0.044-1.914,2.07-2.781c-1.47-0.579-2.003-1.892-2.003-2.915c0-1.803,1.268-3.338,4.428-3.338c1.646,0,2.759,0.4,3.471,1.002
		c0.667-0.891,1.446-1.201,1.957-1.313c0.445-0.09,1.001,0.043,1.357,0.4c0.49,0.533,0.445,1.379-0.111,1.869
		C133.037,49.03,132.169,48.964,131.702,48.431 M124.871,60.845c1.87,0.934,4.05,1.045,5.274,0.178
		c0.978-0.667,0.71-1.847,0.71-1.847s-0.266-1.156-1.891-1.156h-3.025c-0.245,0-1.18,0.022-2.047-0.334
		C121.713,59.51,124.871,60.845,124.871,60.845 M126.896,46.872c-0.957,0-1.268,0.557-1.268,3.049s0.443,3.07,1.268,3.07
		c0.845,0,1.291-0.578,1.291-3.07S127.786,46.872,126.896,46.872"/>
	<path d="M137.04,51.724c0.089,2.781,1.179,3.782,2.67,4.115c1.156,0.267,2.803-0.289,3.292-1.757l0.29,0.111
		c-0.312,1.4-1.78,3.07-4.672,3.07c-2.915,0-5.096-2.493-5.096-5.296c0-3.471,2.515-5.385,5.405-5.385
		c2.805,0,4.674,1.313,4.674,5.141H137.04z M140.645,51.433c0-2.803-0.602-4.561-1.715-4.561c-1.178,0-1.89,2.426-1.89,4.561
		H140.645z"/>
</g>
</svg>
