<?xml version="1.0" encoding="utf-8"?>
<!-- Generator: Adobe Illustrator 26.0.1, SVG Export Plug-In . SVG Version: 6.00 Build 0)  -->
<!DOCTYPE svg PUBLIC "-//W3C//DTD SVG 1.1//EN" "http://www.w3.org/Graphics/SVG/1.1/DTD/svg11.dtd" [
	<!ENTITY ns_extend "http://ns.adobe.com/Extensibility/1.0/">
	<!ENTITY ns_ai "http://ns.adobe.com/AdobeIllustrator/10.0/">
	<!ENTITY ns_graphs "http://ns.adobe.com/Graphs/1.0/">
	<!ENTITY ns_vars "http://ns.adobe.com/Variables/1.0/">
	<!ENTITY ns_imrep "http://ns.adobe.com/ImageReplacement/1.0/">
	<!ENTITY ns_sfw "http://ns.adobe.com/SaveForWeb/1.0/">
	<!ENTITY ns_custom "http://ns.adobe.com/GenericCustomNamespace/1.0/">
	<!ENTITY ns_adobe_xpath "http://ns.adobe.com/XPath/1.0/">
]>
<svg version="1.1" id="Layer_1" xmlns:x="&ns_extend;" xmlns:i="&ns_ai;" xmlns:graph="&ns_graphs;"
	 xmlns="http://www.w3.org/2000/svg" xmlns:xlink="http://www.w3.org/1999/xlink" x="0px" y="0px" viewBox="0 0 200 85.8"
	 style="enable-background:new 0 0 200 85.8;" xml:space="preserve">
<style type="text/css">
	.st0{fill:#080505;}
	.st1{fill:#F8AF41;}
	.st2{fill:#376278;}
	.st3{fill:#FFC663;}
	.st4{fill:#F6CE76;}
	.st5{fill:#0D98BB;}
	.st6{fill:#70B599;}
	.st7{fill:#EAE3AC;}
	.st8{fill:#91060D;}
	.st9{fill:#2D628C;}
	.st10{fill:#012944;}
	.st11{fill:#043754;}
	.st12{fill:#1D324D;}
	.st13{fill:#8C7449;}
	.st14{fill:#003756;}
	.st15{fill:#53B2D3;}
	.st16{fill:#082042;}
	.st17{fill:#055985;}
	.st18{fill:#A08C6A;}
	.st19{clip-path:url(#SVGID_00000177486051356476538530000007348312551503248256_);}
	.st20{filter:url(#Adobe_OpacityMaskFilter);}
	.st21{opacity:0.9;mask:url(#SVGID_00000011751228665474881290000016993018785511070095_);fill:#FFFFFF;}
	.st22{filter:url(#Adobe_OpacityMaskFilter_00000080173837549900061670000015945821426080291258_);}
	.st23{opacity:0.75;mask:url(#SVGID_00000179614822788912915330000016505263183274733186_);}
	.st24{filter:url(#Adobe_OpacityMaskFilter_00000176738522587351746910000011666771938051860627_);}
	.st25{mask:url(#SVGID_00000067230643397871489470000013162380523737404038_);fill:#FFFFFF;}
	.st26{filter:url(#Adobe_OpacityMaskFilter_00000166660644590225309180000009728543077281888157_);}
	.st27{opacity:0.75;mask:url(#SVGID_00000021080576383639566580000001228729669064524202_);}
	.st28{fill:none;stroke:#000000;stroke-width:1.2;}
	.st29{clip-path:url(#SVGID_00000085239638782293944020000012855418875901780912_);}
	.st30{fill:#1E2731;}
	.st31{fill:#777779;}
	
		.st32{clip-path:url(#SVGID_00000099624946635305858830000011192521702525146800_);fill:url(#SVGID_00000109734163926123133870000018410049031139034512_);}
</style>
<metadata>
	<sfw  xmlns="&ns_sfw;">
		<slices></slices>
		<sliceSourceBounds  bottomLeftOrigin="true" height="515.4" width="2527.2" x="1.1" y="-405.1"></sliceSourceBounds>
	</sfw>
</metadata>
<g>
	<path class="st9" d="M123.7,59.1H75.4c-0.2,0-0.4-0.2-0.4-0.4c0-0.2,0.2-0.4,0.4-0.4h48.3c0.2,0,0.4,0.2,0.4,0.4
		C124.1,58.9,123.9,59.1,123.7,59.1"/>
	<path class="st9" d="M123.7,59.1H75.4c-0.2,0-0.4-0.2-0.4-0.4c0-0.2,0.2-0.4,0.4-0.4h48.3c0.2,0,0.4,0.2,0.4,0.4
		C124.1,58.9,123.9,59.1,123.7,59.1z"/>
	<path class="st9" d="M0.9,0.9h6.6c2,0,3.8,0.2,5.2,0.6c1.5,0.4,2.7,1,3.6,1.8c1.1,0.9,2,2,2.5,3.3c0.6,1.2,0.8,2.6,0.8,4
		c0,1.4-0.3,2.7-0.8,3.9c-0.5,1.2-1.2,2.3-2.2,3.2c-1,0.9-2.2,1.6-3.6,2.2c-1.4,0.5-3,0.8-4.9,0.8H0.9V0.9z M4.2,19.2h3.5
		c1.1,0,2.2-0.2,3.1-0.5c1-0.4,1.8-0.9,2.6-1.6c0.7-0.7,1.3-1.6,1.7-2.7c0.4-1.1,0.6-2.3,0.6-3.7c0-1.2-0.2-2.3-0.6-3.3
		c-0.4-1-1-1.9-1.7-2.6c-0.7-0.7-1.6-1.3-2.5-1.7c-1-0.4-2.1-0.6-3.2-0.6H4.2V19.2z"/>
	<path class="st9" d="M23.5,0.9h3.3v12.8c0,0.8,0.1,1.6,0.4,2.4c0.3,0.7,0.7,1.4,1.2,1.9c0.5,0.6,1.2,1,1.9,1.3
		c0.8,0.3,1.6,0.5,2.5,0.5c0.9,0,1.8-0.2,2.5-0.5c0.8-0.3,1.4-0.8,1.9-1.3c0.5-0.6,0.9-1.2,1.2-1.9c0.3-0.7,0.4-1.5,0.4-2.4V0.9h1.5
		v12.8c0,1-0.2,2-0.5,2.8c-0.3,0.9-0.8,1.7-1.5,2.3c-0.7,0.7-1.6,1.2-2.7,1.6c-1.1,0.4-2.4,0.6-3.9,0.6c-1.4,0-2.6-0.2-3.6-0.6
		c-1-0.4-1.9-0.9-2.6-1.6c-0.7-0.7-1.2-1.5-1.6-2.4c-0.4-0.9-0.5-1.9-0.5-2.9V0.9z"/>
	<path class="st9" d="M45.3,0.9h7.9c1,0,2,0.1,2.9,0.4c0.9,0.2,1.6,0.6,2.3,1c0.6,0.4,1.1,0.9,1.5,1.5c0.4,0.6,0.5,1.3,0.5,2
		c0,0.5-0.1,1-0.2,1.4c-0.1,0.4-0.3,0.8-0.6,1.2c-0.3,0.4-0.6,0.7-1.1,1c-0.5,0.3-1,0.7-1.7,1v0.1c0.7,0.1,1.3,0.3,1.9,0.6
		c0.6,0.3,1.1,0.6,1.5,1c0.4,0.4,0.7,0.9,0.9,1.4c0.2,0.5,0.3,1.1,0.3,1.8c0,0.7-0.2,1.4-0.5,2.1c-0.3,0.7-0.8,1.2-1.4,1.7
		c-0.6,0.5-1.3,0.9-2.2,1.1c-0.8,0.3-1.8,0.4-2.8,0.4h-9.2V0.9z M48.6,9.8h4.2c0.7,0,1.2-0.1,1.8-0.3c0.5-0.2,1-0.5,1.3-0.8
		c0.3-0.3,0.6-0.7,0.8-1.2C56.9,7,57,6.6,57,6c0-0.6-0.1-1.1-0.3-1.6c-0.2-0.5-0.6-0.9-1-1.2c-0.5-0.3-1-0.6-1.8-0.8
		c-0.7-0.2-1.6-0.3-2.5-0.3h-2.7V9.8z M48.6,19.2h3.6c1,0,1.8-0.1,2.5-0.3c0.7-0.2,1.3-0.4,1.8-0.8c0.5-0.3,0.8-0.7,1-1.2
		c0.2-0.5,0.3-1,0.3-1.5c0-0.6-0.1-1.2-0.3-1.7c-0.2-0.5-0.5-1-1-1.4c-0.5-0.4-1-0.7-1.8-0.9C54,11.1,53.1,11,52.1,11h-3.5V19.2z"/>
	<path class="st9" d="M73.8,0.4l9.3,20.2h-3.4l-3-6.6h-8.5l-3.1,6.6h-1.7L73,0.4H73.8z M68.8,12.7h7.3l-3.6-7.8L68.8,12.7z"/>
	<rect x="85.9" y="0.9" class="st9" width="3.3" height="19.7"/>
	<path class="st9" d="M105.7,10.8c0,1.4,0.2,2.6,0.6,3.7c0.4,1.1,1,2,1.7,2.8c0.7,0.8,1.6,1.3,2.6,1.7c1,0.4,2.1,0.6,3.2,0.6
		c0.7,0,1.4-0.1,2-0.4c0.6-0.3,1.2-0.6,1.8-1c0.6-0.4,1-0.9,1.5-1.5c0.4-0.5,0.8-1.1,1.1-1.6l1.4,0.9c-0.4,0.7-0.9,1.3-1.4,1.9
		c-0.6,0.6-1.2,1.2-1.9,1.6c-0.7,0.5-1.6,0.8-2.5,1.1c-0.9,0.3-1.9,0.4-3.1,0.4c-1.1,0-2.1-0.1-3.1-0.4c-1-0.2-1.8-0.6-2.7-1
		c-0.8-0.4-1.5-1-2.2-1.6c-0.6-0.6-1.2-1.3-1.6-2.1c-0.4-0.8-0.8-1.6-1-2.4c-0.2-0.9-0.4-1.8-0.4-2.7c0-0.9,0.1-1.8,0.4-2.7
		c0.2-0.9,0.6-1.7,1-2.5c0.4-0.8,1-1.5,1.7-2.1c0.6-0.6,1.4-1.2,2.2-1.6c0.8-0.5,1.7-0.8,2.7-1.1c1-0.3,2-0.4,3.1-0.4
		c1,0,2,0.1,2.9,0.4c0.9,0.3,1.7,0.7,2.4,1.1c0.7,0.5,1.4,1,1.9,1.6c0.6,0.6,1,1.2,1.5,1.9l-1.4,1c-0.8-1.6-1.8-2.8-2.8-3.5
		c-1-0.7-2.2-1.1-3.5-1.1c-1.1,0-2.2,0.2-3.2,0.6c-1,0.4-1.9,1-2.6,1.8c-0.7,0.8-1.3,1.7-1.7,2.8C105.9,8.2,105.7,9.4,105.7,10.8"/>
	<path class="st9" d="M125.6,0.9h6.8c1.2,0,2.2,0.1,3.1,0.4c0.9,0.3,1.6,0.6,2.2,1.1c0.6,0.5,1,1,1.3,1.6c0.3,0.6,0.5,1.3,0.5,2.1
		c0,0.6-0.1,1.2-0.3,1.7c-0.2,0.5-0.6,1-1,1.4c-0.4,0.4-0.9,0.8-1.5,1.1c-0.6,0.3-1.3,0.6-2,0.7l7.2,9.6h-3.8l-6.9-9.3H129v9.3h-3.3
		V0.9z M129,10.3h1.9c0.7,0,1.4-0.1,2.1-0.3c0.6-0.2,1.2-0.5,1.6-0.8c0.5-0.4,0.8-0.8,1.1-1.3c0.3-0.5,0.4-1.1,0.4-1.7
		c0-0.6-0.1-1.1-0.3-1.6c-0.2-0.5-0.5-0.9-0.9-1.3c-0.4-0.4-0.8-0.6-1.3-0.8c-0.5-0.2-1.1-0.3-1.7-0.3H129V10.3z"/>
	<polygon class="st9" points="158.8,0.9 158.8,2.1 148.4,2.1 148.4,9.2 155.3,9.2 155.3,10.5 148.4,10.5 148.4,19.3 158.8,19.3 
		158.8,20.6 145.1,20.6 145.1,0.9 	"/>
	<polygon class="st9" points="176.3,0.9 176.3,2.1 165.9,2.1 165.9,9.2 172.9,9.2 172.9,10.5 165.9,10.5 165.9,19.3 176.3,19.3 
		176.3,20.6 162.6,20.6 162.6,0.9 	"/>
	<polygon class="st9" points="179.7,0.9 183,0.9 183,9.6 193.4,0.9 195.6,0.9 185.7,9.2 198.2,20.6 194,20.6 183,10.6 183,20.6 
		179.7,20.6 	"/>
	<polygon class="st9" points="59.5,31.4 60.5,31.4 60.5,36.2 66.6,36.2 66.6,31.4 67.6,31.4 67.6,42.3 66.6,42.3 66.6,37.1 
		60.5,37.1 60.5,42.3 59.5,42.3 	"/>
	<path class="st9" d="M76.1,31.4h1l4.6,10.9h-1.1l-1.2-2.9h-5.8l-1.2,2.9h-1.1L76.1,31.4z M76.6,32.5l-2.5,6h5L76.6,32.5z"/>
	<path class="st9" d="M85.5,31.4h2.9c0.1,0,0.3,0,0.6,0c0.2,0,0.5,0,0.8,0.1c0.3,0,0.6,0.1,0.9,0.2c0.3,0.1,0.6,0.3,0.8,0.5
		c0.2,0.2,0.4,0.5,0.6,0.8c0.2,0.3,0.2,0.7,0.2,1.2c0,0.5-0.1,1-0.3,1.3c-0.2,0.3-0.4,0.6-0.7,0.8c-0.3,0.2-0.6,0.4-0.9,0.5
		c-0.3,0.1-0.6,0.2-0.9,0.2l3.2,5.2h-1.2l-3.1-5.2h-1.9v5.2h-1V31.4z M86.5,36.2h2.1c0.5,0,1-0.1,1.3-0.2c0.3-0.1,0.6-0.3,0.8-0.5
		c0.2-0.2,0.3-0.4,0.4-0.6c0.1-0.2,0.1-0.4,0.1-0.6c0-0.2,0-0.4-0.1-0.6c-0.1-0.2-0.2-0.4-0.4-0.6c-0.2-0.2-0.4-0.4-0.8-0.5
		c-0.3-0.1-0.8-0.2-1.3-0.2h-2.1V36.2z"/>
	<path class="st9" d="M97.5,31.4h3.1c0.4,0,0.8,0,1.2,0.1c0.4,0.1,0.8,0.2,1.1,0.4c0.3,0.2,0.6,0.5,0.8,0.9c0.2,0.4,0.3,0.9,0.3,1.5
		c0,0.6-0.2,1-0.5,1.4c-0.3,0.4-0.8,0.7-1.5,0.8v0c0.4,0,0.7,0.1,1,0.3c0.3,0.1,0.6,0.3,0.8,0.6c0.2,0.2,0.4,0.5,0.5,0.8
		c0.1,0.3,0.2,0.7,0.2,1c0,0.6-0.1,1.1-0.4,1.5c-0.2,0.4-0.5,0.7-0.9,0.9c-0.4,0.2-0.8,0.4-1.2,0.5c-0.4,0.1-0.8,0.1-1.2,0.1h-3.5
		V31.4z M98.5,36.1h2.1c0.5,0,0.9-0.1,1.3-0.2c0.3-0.1,0.6-0.3,0.8-0.5c0.2-0.2,0.3-0.4,0.4-0.6c0.1-0.2,0.1-0.4,0.1-0.6
		c0-0.4-0.1-0.7-0.2-0.9c-0.1-0.3-0.3-0.4-0.5-0.6c-0.2-0.1-0.5-0.3-0.8-0.3c-0.3-0.1-0.6-0.1-0.9-0.1h-2.2V36.1z M98.5,41.4h2.3
		c0.6,0,1.1-0.1,1.4-0.2c0.4-0.1,0.6-0.3,0.8-0.5c0.2-0.2,0.3-0.4,0.4-0.7c0.1-0.2,0.1-0.5,0.1-0.7c0-0.4-0.1-0.7-0.2-1
		c-0.2-0.3-0.4-0.5-0.6-0.7c-0.2-0.2-0.5-0.3-0.8-0.4c-0.3-0.1-0.6-0.1-0.9-0.1h-2.5V41.4z"/>
	<path class="st9" d="M108.3,36.9c0-0.8,0.1-1.6,0.4-2.3c0.3-0.7,0.7-1.3,1.2-1.8c0.5-0.5,1.1-0.9,1.8-1.2c0.7-0.3,1.5-0.4,2.3-0.4
		c0.8,0,1.6,0.1,2.3,0.4c0.7,0.3,1.3,0.7,1.8,1.2c0.5,0.5,0.9,1.1,1.2,1.8c0.3,0.7,0.4,1.5,0.4,2.3c0,0.8-0.1,1.6-0.4,2.3
		c-0.3,0.7-0.7,1.3-1.2,1.8c-0.5,0.5-1.1,0.9-1.8,1.2c-0.7,0.3-1.5,0.4-2.3,0.4c-0.8,0-1.6-0.1-2.3-0.4c-0.7-0.3-1.3-0.7-1.8-1.2
		c-0.5-0.5-0.9-1.1-1.2-1.8C108.5,38.5,108.3,37.7,108.3,36.9 M109.3,36.9c0,0.7,0.1,1.3,0.3,1.9c0.2,0.6,0.5,1.1,0.9,1.5
		c0.4,0.4,0.9,0.8,1.4,1c0.6,0.2,1.2,0.4,1.9,0.4c0.7,0,1.3-0.1,1.9-0.4c0.6-0.2,1.1-0.6,1.5-1c0.4-0.4,0.7-0.9,0.9-1.5
		c0.2-0.6,0.3-1.2,0.3-1.9c0-0.7-0.1-1.3-0.3-1.9c-0.2-0.6-0.5-1.1-0.9-1.5c-0.4-0.4-0.9-0.8-1.5-1c-0.6-0.2-1.2-0.4-1.9-0.4
		c-0.7,0-1.3,0.1-1.9,0.4c-0.6,0.2-1,0.6-1.4,1c-0.4,0.4-0.7,0.9-0.9,1.5C109.4,35.6,109.3,36.2,109.3,36.9"/>
	<path class="st9" d="M131.4,38.2c0,0.6-0.1,1.1-0.2,1.7c-0.1,0.5-0.4,1-0.7,1.4c-0.3,0.4-0.7,0.7-1.2,1c-0.5,0.3-1.1,0.4-1.9,0.4
		c-0.7,0-1.4-0.1-1.9-0.4c-0.5-0.2-0.9-0.6-1.2-1c-0.3-0.4-0.5-0.9-0.7-1.4c-0.1-0.5-0.2-1.1-0.2-1.7v-6.7h1v6.4
		c0,0.4,0,0.8,0.1,1.3c0.1,0.4,0.2,0.8,0.4,1.2c0.2,0.4,0.5,0.7,0.9,0.9c0.4,0.2,0.9,0.4,1.5,0.4c0.6,0,1.1-0.1,1.5-0.4
		c0.4-0.2,0.7-0.6,0.9-0.9c0.2-0.4,0.4-0.8,0.4-1.2c0.1-0.4,0.1-0.9,0.1-1.3v-6.4h1V38.2z"/>
	<path class="st9" d="M136.1,31.4h2.9c0.1,0,0.3,0,0.6,0c0.2,0,0.5,0,0.8,0.1c0.3,0,0.6,0.1,0.9,0.2c0.3,0.1,0.6,0.3,0.8,0.5
		c0.2,0.2,0.4,0.5,0.6,0.8c0.2,0.3,0.2,0.7,0.2,1.2c0,0.5-0.1,1-0.3,1.3c-0.2,0.3-0.4,0.6-0.7,0.8c-0.3,0.2-0.6,0.4-0.9,0.5
		c-0.3,0.1-0.6,0.2-0.9,0.2l3.2,5.2H142l-3.1-5.2h-1.9v5.2h-1V31.4z M137.1,36.2h2.2c0.5,0,1-0.1,1.3-0.2c0.3-0.1,0.6-0.3,0.8-0.5
		c0.2-0.2,0.3-0.4,0.4-0.6c0.1-0.2,0.1-0.4,0.1-0.6c0-0.2,0-0.4-0.1-0.6c-0.1-0.2-0.2-0.4-0.4-0.6c-0.2-0.2-0.4-0.4-0.8-0.5
		c-0.3-0.1-0.8-0.2-1.3-0.2h-2.2V36.2z"/>
	<path class="st9" d="M56.6,78.8c-0.1,0-0.2,0-0.3-0.1c-0.1-0.1-0.1-0.2-0.1-0.3c0-0.1,0-0.1,0-0.2c0-0.1,0-0.3-0.1-0.5
		c-0.1-0.6-0.4-1-0.7-1.3c-0.6-0.6-1.4-0.9-2.4-0.9c-0.8,0-1.4,0.1-1.8,0.4c-0.4,0.3-0.8,0.6-1,1.1c-0.2,0.4-0.4,0.9-0.4,1.5
		c-0.1,0.6-0.1,1.1-0.1,1.7c0,0.2,0,0.4,0,0.7c0,0.2,0,0.5,0.1,0.8c0,0.3,0.1,0.5,0.1,0.8c0.1,0.3,0.1,0.5,0.2,0.8
		c0.5,1.1,1.4,1.7,2.9,1.7c1.4,0,2.3-0.5,2.9-1.5c0.1-0.2,0.2-0.4,0.2-0.6s0.1-0.3,0.1-0.5c0-0.1,0-0.3,0.1-0.5c0-0.1,0-0.2,0.1-0.3
		c0.1-0.1,0.2-0.1,0.3-0.1c0.1,0,0.2,0,0.3,0.1c0.1,0.1,0.1,0.2,0.1,0.3c0,0,0,0.1,0,0.2c0,0.1,0,0.3-0.1,0.4c0,0.2-0.1,0.4-0.2,0.6
		c-0.1,0.2-0.2,0.5-0.3,0.7c-0.1,0.2-0.3,0.4-0.5,0.7c-0.2,0.2-0.4,0.4-0.7,0.6c-0.3,0.2-0.6,0.3-1,0.5c-0.4,0.1-0.9,0.2-1.4,0.2
		c-1,0-1.7-0.2-2.4-0.6c-0.5-0.4-1-0.9-1.3-1.6c-0.1-0.3-0.2-0.6-0.3-0.9c-0.1-0.3-0.1-0.6-0.1-0.9c0-0.3-0.1-0.6-0.1-0.8
		c0-0.3,0-0.5,0-0.7c0-0.2,0-0.5,0-0.7c0-0.3,0-0.6,0-0.8c0-0.3,0.1-0.6,0.1-0.9c0.1-0.3,0.2-0.6,0.3-0.9c0.2-0.3,0.3-0.6,0.5-0.9
		c0.2-0.3,0.5-0.5,0.7-0.7c0.6-0.4,1.4-0.6,2.4-0.6c1.3,0,2.3,0.4,3,1.1c0.3,0.3,0.5,0.6,0.6,0.9c0.1,0.3,0.3,0.6,0.3,0.8
		c0.1,0.3,0.1,0.5,0.1,0.7c0,0.2,0,0.3,0,0.3v0c0,0.1,0,0.2-0.1,0.3C56.8,78.8,56.7,78.8,56.6,78.8"/>
	<path class="st9" d="M56.6,78.8c-0.1,0-0.2,0-0.3-0.1c-0.1-0.1-0.1-0.2-0.1-0.3c0-0.1,0-0.1,0-0.2c0-0.1,0-0.3-0.1-0.5
		c-0.1-0.6-0.4-1-0.7-1.3c-0.6-0.6-1.4-0.9-2.4-0.9c-0.8,0-1.4,0.1-1.8,0.4c-0.4,0.3-0.8,0.6-1,1.1c-0.2,0.4-0.4,0.9-0.4,1.5
		c-0.1,0.6-0.1,1.1-0.1,1.7c0,0.2,0,0.4,0,0.7c0,0.2,0,0.5,0.1,0.8c0,0.3,0.1,0.5,0.1,0.8c0.1,0.3,0.1,0.5,0.2,0.8
		c0.5,1.1,1.4,1.7,2.9,1.7c1.4,0,2.3-0.5,2.9-1.5c0.1-0.2,0.2-0.4,0.2-0.6s0.1-0.3,0.1-0.5c0-0.1,0-0.3,0.1-0.5c0-0.1,0-0.2,0.1-0.3
		c0.1-0.1,0.2-0.1,0.3-0.1c0.1,0,0.2,0,0.3,0.1c0.1,0.1,0.1,0.2,0.1,0.3c0,0,0,0.1,0,0.2c0,0.1,0,0.3-0.1,0.4c0,0.2-0.1,0.4-0.2,0.6
		c-0.1,0.2-0.2,0.5-0.3,0.7c-0.1,0.2-0.3,0.4-0.5,0.7c-0.2,0.2-0.4,0.4-0.7,0.6c-0.3,0.2-0.6,0.3-1,0.5c-0.4,0.1-0.9,0.2-1.4,0.2
		c-1,0-1.7-0.2-2.4-0.6c-0.5-0.4-1-0.9-1.3-1.6c-0.1-0.3-0.2-0.6-0.3-0.9c-0.1-0.3-0.1-0.6-0.1-0.9c0-0.3-0.1-0.6-0.1-0.8
		c0-0.3,0-0.5,0-0.7c0-0.2,0-0.5,0-0.7c0-0.3,0-0.6,0-0.8c0-0.3,0.1-0.6,0.1-0.9c0.1-0.3,0.2-0.6,0.3-0.9c0.2-0.3,0.3-0.6,0.5-0.9
		c0.2-0.3,0.5-0.5,0.7-0.7c0.6-0.4,1.4-0.6,2.4-0.6c1.3,0,2.3,0.4,3,1.1c0.3,0.3,0.5,0.6,0.6,0.9c0.1,0.3,0.3,0.6,0.3,0.8
		c0.1,0.3,0.1,0.5,0.1,0.7c0,0.2,0,0.3,0,0.3v0c0,0.1,0,0.2-0.1,0.3C56.8,78.8,56.7,78.8,56.6,78.8z"/>
	<path class="st9" d="M69.2,85.1c0,0.1-0.1,0.2-0.1,0.3c-0.1,0.1-0.2,0.1-0.3,0.1c-0.1,0-0.2,0-0.3-0.1l-3-3.2H62v2.9
		c0,0.1,0,0.2-0.1,0.3c-0.1,0.1-0.2,0.1-0.3,0.1c-0.1,0-0.2,0-0.3-0.1c-0.1-0.1-0.1-0.2-0.1-0.3v-10c0-0.1,0-0.2,0.1-0.3
		c0.1-0.1,0.2-0.1,0.3-0.1h3.5c0,0,0.1,0,0.3,0c0.2,0,0.4,0.1,0.7,0.1c0.3,0.1,0.6,0.2,0.9,0.3c0.3,0.1,0.6,0.4,0.9,0.6
		c0.7,0.7,1,1.5,1,2.7c0,0.7-0.1,1.3-0.3,1.9c-0.2,0.4-0.5,0.8-0.8,1.1c-0.1,0.1-0.2,0.1-0.3,0.1c-0.1,0-0.2-0.1-0.3-0.1
		C67,81.3,67,81.2,67,81.1c0-0.1,0.1-0.2,0.1-0.3c0.6-0.5,0.9-1.3,0.9-2.4c0-0.9-0.2-1.6-0.7-2.1c-0.2-0.2-0.5-0.4-0.7-0.5
		c-0.3-0.1-0.5-0.2-0.7-0.2c-0.2,0-0.4-0.1-0.6-0.1c-0.1,0-0.2,0-0.2,0H62v5.8h3.7c0.1,0,0.2,0,0.3,0.1l3.1,3.4
		C69.2,84.9,69.2,85,69.2,85.1"/>
	<path class="st9" d="M69.2,85.1c0,0.1-0.1,0.2-0.1,0.3c-0.1,0.1-0.2,0.1-0.3,0.1c-0.1,0-0.2,0-0.3-0.1l-3-3.2H62v2.9
		c0,0.1,0,0.2-0.1,0.3c-0.1,0.1-0.2,0.1-0.3,0.1c-0.1,0-0.2,0-0.3-0.1c-0.1-0.1-0.1-0.2-0.1-0.3v-10c0-0.1,0-0.2,0.1-0.3
		c0.1-0.1,0.2-0.1,0.3-0.1h3.5c0,0,0.1,0,0.3,0c0.2,0,0.4,0.1,0.7,0.1c0.3,0.1,0.6,0.2,0.9,0.3c0.3,0.1,0.6,0.4,0.9,0.6
		c0.7,0.7,1,1.5,1,2.7c0,0.7-0.1,1.3-0.3,1.9c-0.2,0.4-0.5,0.8-0.8,1.1c-0.1,0.1-0.2,0.1-0.3,0.1c-0.1,0-0.2-0.1-0.3-0.1
		C67,81.3,67,81.2,67,81.1c0-0.1,0.1-0.2,0.1-0.3c0.6-0.5,0.9-1.3,0.9-2.4c0-0.9-0.2-1.6-0.7-2.1c-0.2-0.2-0.5-0.4-0.7-0.5
		c-0.3-0.1-0.5-0.2-0.7-0.2c-0.2,0-0.4-0.1-0.6-0.1c-0.1,0-0.2,0-0.2,0H62v5.8h3.7c0.1,0,0.2,0,0.3,0.1l3.1,3.4
		C69.2,84.9,69.2,85,69.2,85.1z"/>
	<path class="st9" d="M79.4,85.5h-6c-0.1,0-0.2,0-0.3-0.1C73,85.3,73,85.2,73,85.1v-5.8c0-0.1,0-0.2,0.1-0.3
		c0.1-0.1,0.2-0.1,0.3-0.1H78c0.1,0,0.2,0,0.3,0.1c0.1,0.1,0.1,0.2,0.1,0.3c0,0.1,0,0.2-0.1,0.3c-0.1,0.1-0.2,0.1-0.3,0.1h-4.2v4.9
		h5.6c0.1,0,0.2,0,0.3,0.1c0.1,0.1,0.1,0.2,0.1,0.3c0,0.1,0,0.2-0.1,0.3C79.7,85.5,79.6,85.5,79.4,85.5 M73.4,78.1
		c-0.1,0-0.2,0-0.3-0.1C73,77.9,73,77.8,73,77.7v-2.6c0-0.1,0-0.2,0.1-0.3c0.1-0.1,0.2-0.1,0.3-0.1h6c0.1,0,0.2,0,0.3,0.1
		c0.1,0.1,0.1,0.2,0.1,0.3s0,0.2-0.1,0.3c-0.1,0.1-0.2,0.1-0.3,0.1h-5.6v2.1c0,0.1,0,0.2-0.1,0.3C73.6,78,73.5,78.1,73.4,78.1"/>
	<path class="st9" d="M79.4,85.5h-6c-0.1,0-0.2,0-0.3-0.1C73,85.3,73,85.2,73,85.1v-5.8c0-0.1,0-0.2,0.1-0.3
		c0.1-0.1,0.2-0.1,0.3-0.1H78c0.1,0,0.2,0,0.3,0.1c0.1,0.1,0.1,0.2,0.1,0.3c0,0.1,0,0.2-0.1,0.3c-0.1,0.1-0.2,0.1-0.3,0.1h-4.2v4.9
		h5.6c0.1,0,0.2,0,0.3,0.1c0.1,0.1,0.1,0.2,0.1,0.3c0,0.1,0,0.2-0.1,0.3C79.7,85.5,79.6,85.5,79.4,85.5z M73.4,78.1
		c-0.1,0-0.2,0-0.3-0.1C73,77.9,73,77.8,73,77.7v-2.6c0-0.1,0-0.2,0.1-0.3c0.1-0.1,0.2-0.1,0.3-0.1h6c0.1,0,0.2,0,0.3,0.1
		c0.1,0.1,0.1,0.2,0.1,0.3s0,0.2-0.1,0.3c-0.1,0.1-0.2,0.1-0.3,0.1h-5.6v2.1c0,0.1,0,0.2-0.1,0.3C73.6,78,73.5,78.1,73.4,78.1z"/>
	<path class="st9" d="M90.1,85.5h-6c-0.1,0-0.2,0-0.3-0.1c-0.1-0.1-0.1-0.2-0.1-0.3v-5.8c0-0.1,0-0.2,0.1-0.3C83.8,79,83.9,79,84,79
		h4.6c0.1,0,0.2,0,0.3,0.1c0.1,0.1,0.1,0.2,0.1,0.3c0,0.1,0,0.2-0.1,0.3c-0.1,0.1-0.2,0.1-0.3,0.1h-4.2v4.9h5.6c0.1,0,0.2,0,0.3,0.1
		c0.1,0.1,0.1,0.2,0.1,0.3c0,0.1,0,0.2-0.1,0.3C90.3,85.5,90.2,85.5,90.1,85.5 M84,78.1c-0.1,0-0.2,0-0.3-0.1
		c-0.1-0.1-0.1-0.2-0.1-0.3v-2.6c0-0.1,0-0.2,0.1-0.3c0.1-0.1,0.2-0.1,0.3-0.1h6c0.1,0,0.2,0,0.3,0.1c0.1,0.1,0.1,0.2,0.1,0.3
		s0,0.2-0.1,0.3c-0.1,0.1-0.2,0.1-0.3,0.1h-5.6v2.1c0,0.1,0,0.2-0.1,0.3C84.2,78,84.1,78.1,84,78.1"/>
	<path class="st9" d="M90.1,85.5h-6c-0.1,0-0.2,0-0.3-0.1c-0.1-0.1-0.1-0.2-0.1-0.3v-5.8c0-0.1,0-0.2,0.1-0.3C83.8,79,83.9,79,84,79
		h4.6c0.1,0,0.2,0,0.3,0.1c0.1,0.1,0.1,0.2,0.1,0.3c0,0.1,0,0.2-0.1,0.3c-0.1,0.1-0.2,0.1-0.3,0.1h-4.2v4.9h5.6c0.1,0,0.2,0,0.3,0.1
		c0.1,0.1,0.1,0.2,0.1,0.3c0,0.1,0,0.2-0.1,0.3C90.3,85.5,90.2,85.5,90.1,85.5z M84,78.1c-0.1,0-0.2,0-0.3-0.1
		c-0.1-0.1-0.1-0.2-0.1-0.3v-2.6c0-0.1,0-0.2,0.1-0.3c0.1-0.1,0.2-0.1,0.3-0.1h6c0.1,0,0.2,0,0.3,0.1c0.1,0.1,0.1,0.2,0.1,0.3
		s0,0.2-0.1,0.3c-0.1,0.1-0.2,0.1-0.3,0.1h-5.6v2.1c0,0.1,0,0.2-0.1,0.3C84.2,78,84.1,78.1,84,78.1z"/>
	<path class="st9" d="M94.6,79.5c-0.1,0-0.2,0-0.3-0.1c-0.1-0.1-0.1-0.2-0.1-0.3v-4c0-0.1,0-0.2,0.1-0.3c0.1-0.1,0.2-0.1,0.3-0.1
		c0.1,0,0.2,0,0.3,0.1C95,74.9,95,75,95,75.1v4c0,0.1,0,0.2-0.1,0.3C94.8,79.5,94.7,79.5,94.6,79.5 M101.2,84.9
		c0.1,0.1,0.1,0.2,0.1,0.3c0,0.1-0.1,0.2-0.2,0.3c-0.1,0-0.1,0.1-0.2,0.1c-0.1,0-0.3,0-0.3-0.1L96.4,80L95,81.6v3.5
		c0,0.1,0,0.2-0.1,0.3c-0.1,0.1-0.2,0.1-0.3,0.1c-0.1,0-0.2,0-0.3-0.1c-0.1-0.1-0.1-0.2-0.1-0.3v-3.7c0-0.1,0-0.2,0.1-0.3l5.5-6.4
		c0.1-0.1,0.2-0.1,0.3-0.2c0.1,0,0.2,0,0.3,0.1c0.1,0.1,0.1,0.2,0.1,0.3c0,0.1,0,0.2-0.1,0.3l-3.5,4L101.2,84.9z"/>
	<path class="st9" d="M94.6,79.5c-0.1,0-0.2,0-0.3-0.1c-0.1-0.1-0.1-0.2-0.1-0.3v-4c0-0.1,0-0.2,0.1-0.3c0.1-0.1,0.2-0.1,0.3-0.1
		c0.1,0,0.2,0,0.3,0.1C95,74.9,95,75,95,75.1v4c0,0.1,0,0.2-0.1,0.3C94.8,79.5,94.7,79.5,94.6,79.5z M101.2,84.9
		c0.1,0.1,0.1,0.2,0.1,0.3c0,0.1-0.1,0.2-0.2,0.3c-0.1,0-0.1,0.1-0.2,0.1c-0.1,0-0.3,0-0.3-0.1L96.4,80L95,81.6v3.5
		c0,0.1,0,0.2-0.1,0.3c-0.1,0.1-0.2,0.1-0.3,0.1c-0.1,0-0.2,0-0.3-0.1c-0.1-0.1-0.1-0.2-0.1-0.3v-3.7c0-0.1,0-0.2,0.1-0.3l5.5-6.4
		c0.1-0.1,0.2-0.1,0.3-0.2c0.1,0,0.2,0,0.3,0.1c0.1,0.1,0.1,0.2,0.1,0.3c0,0.1,0,0.2-0.1,0.3l-3.5,4L101.2,84.9z"/>
	<path class="st9" d="M117.8,85.5c-0.1,0-0.2,0-0.3-0.1c-0.1-0.1-0.1-0.2-0.1-0.3v-3H115c-0.1,0-0.2,0-0.3-0.1
		c-0.1-0.1-0.1-0.2-0.1-0.3c0-0.1,0-0.2,0.1-0.3c0.1-0.1,0.2-0.1,0.3-0.1h2.7c0.1,0,0.2,0,0.3,0.1c0.1,0.1,0.1,0.2,0.1,0.3v3.4
		c0,0.1,0,0.2-0.1,0.3C118,85.5,117.9,85.5,117.8,85.5 M116.7,75.7c0.3,0.3,0.5,0.6,0.6,0.8c0.1,0.3,0.3,0.6,0.3,0.8
		c0.1,0.3,0.1,0.5,0.1,0.7c0,0.2,0,0.3,0,0.3v0c0,0.1,0,0.2-0.1,0.3c-0.1,0.1-0.2,0.1-0.3,0.1c-0.1,0-0.2,0-0.3-0.1
		c-0.1-0.1-0.1-0.2-0.1-0.3c0-0.1,0-0.1,0-0.2c0-0.1,0-0.3-0.1-0.5c-0.1-0.3-0.2-0.5-0.3-0.7c-0.1-0.2-0.3-0.4-0.4-0.6
		c-0.6-0.6-1.4-0.9-2.4-0.9c-0.8,0-1.4,0.1-1.8,0.4c-0.4,0.3-0.8,0.6-1,1.1c-0.2,0.4-0.4,0.9-0.4,1.5c-0.1,0.6-0.1,1.1-0.1,1.7
		c0,0.2,0,0.4,0,0.6c0,0.2,0,0.5,0.1,0.8c0,0.3,0.1,0.5,0.1,0.8c0.1,0.3,0.1,0.5,0.2,0.8c0.3,0.5,0.6,1,1.1,1.2
		c0.5,0.3,1.1,0.4,1.8,0.4c1,0,1.8-0.3,2.4-0.8c0.1-0.1,0.2-0.1,0.3-0.1c0.1,0,0.2,0,0.3,0.1c0.1,0.1,0.1,0.2,0.1,0.3
		c0,0.1,0,0.2-0.1,0.3c-0.3,0.3-0.7,0.6-1.2,0.8c-0.5,0.2-1.1,0.3-1.8,0.3c-1,0-1.7-0.2-2.3-0.6c-0.6-0.4-1-0.9-1.3-1.5
		c-0.1-0.3-0.2-0.6-0.3-0.9c-0.1-0.3-0.1-0.6-0.2-0.9c0-0.3-0.1-0.6-0.1-0.8c0-0.3,0-0.5,0-0.7c0-0.2,0-0.5,0-0.7
		c0-0.3,0-0.6,0.1-0.8c0-0.3,0.1-0.6,0.1-0.9c0.1-0.3,0.2-0.6,0.3-0.9c0.3-0.6,0.7-1.1,1.3-1.5c0.6-0.4,1.4-0.6,2.4-0.6
		C114.9,74.6,115.9,75,116.7,75.7"/>
	<path class="st9" d="M117.8,85.5c-0.1,0-0.2,0-0.3-0.1c-0.1-0.1-0.1-0.2-0.1-0.3v-3H115c-0.1,0-0.2,0-0.3-0.1
		c-0.1-0.1-0.1-0.2-0.1-0.3c0-0.1,0-0.2,0.1-0.3c0.1-0.1,0.2-0.1,0.3-0.1h2.7c0.1,0,0.2,0,0.3,0.1c0.1,0.1,0.1,0.2,0.1,0.3v3.4
		c0,0.1,0,0.2-0.1,0.3C118,85.5,117.9,85.5,117.8,85.5z M116.7,75.7c0.3,0.3,0.5,0.6,0.6,0.8c0.1,0.3,0.3,0.6,0.3,0.8
		c0.1,0.3,0.1,0.5,0.1,0.7c0,0.2,0,0.3,0,0.3v0c0,0.1,0,0.2-0.1,0.3c-0.1,0.1-0.2,0.1-0.3,0.1c-0.1,0-0.2,0-0.3-0.1
		c-0.1-0.1-0.1-0.2-0.1-0.3c0-0.1,0-0.1,0-0.2c0-0.1,0-0.3-0.1-0.5c-0.1-0.3-0.2-0.5-0.3-0.7c-0.1-0.2-0.3-0.4-0.4-0.6
		c-0.6-0.6-1.4-0.9-2.4-0.9c-0.8,0-1.4,0.1-1.8,0.4c-0.4,0.3-0.8,0.6-1,1.1c-0.2,0.4-0.4,0.9-0.4,1.5c-0.1,0.6-0.1,1.1-0.1,1.7
		c0,0.2,0,0.4,0,0.6c0,0.2,0,0.5,0.1,0.8c0,0.3,0.1,0.5,0.1,0.8c0.1,0.3,0.1,0.5,0.2,0.8c0.3,0.5,0.6,1,1.1,1.2
		c0.5,0.3,1.1,0.4,1.8,0.4c1,0,1.8-0.3,2.4-0.8c0.1-0.1,0.2-0.1,0.3-0.1c0.1,0,0.2,0,0.3,0.1c0.1,0.1,0.1,0.2,0.1,0.3
		c0,0.1,0,0.2-0.1,0.3c-0.3,0.3-0.7,0.6-1.2,0.8c-0.5,0.2-1.1,0.3-1.8,0.3c-1,0-1.7-0.2-2.3-0.6c-0.6-0.4-1-0.9-1.3-1.5
		c-0.1-0.3-0.2-0.6-0.3-0.9c-0.1-0.3-0.1-0.6-0.2-0.9c0-0.3-0.1-0.6-0.1-0.8c0-0.3,0-0.5,0-0.7c0-0.2,0-0.5,0-0.7
		c0-0.3,0-0.6,0.1-0.8c0-0.3,0.1-0.6,0.1-0.9c0.1-0.3,0.2-0.6,0.3-0.9c0.3-0.6,0.7-1.1,1.3-1.5c0.6-0.4,1.4-0.6,2.4-0.6
		C114.9,74.6,115.9,75,116.7,75.7z"/>
	<path class="st9" d="M127.5,82.6h-3c-0.1,0-0.2,0-0.3-0.1c-0.1-0.1-0.1-0.2-0.1-0.3c0-0.1,0-0.2,0.1-0.3c0.1-0.1,0.2-0.1,0.3-0.1h3
		c0.1,0,0.2,0,0.3,0.1c0.1,0.1,0.1,0.2,0.1,0.3c0,0.1,0,0.2-0.1,0.3C127.7,82.6,127.6,82.6,127.5,82.6 M130.5,85c0,0.1,0,0.2,0,0.3
		c0,0.1-0.1,0.2-0.2,0.2c-0.1,0-0.2,0.1-0.3,0c-0.1,0-0.2-0.1-0.2-0.2l-3.7-9.1l-3.8,9.1c-0.1,0.2-0.2,0.2-0.4,0.2
		c-0.1,0-0.1,0-0.2,0c-0.1,0-0.2-0.1-0.2-0.2c0-0.1,0-0.2,0-0.3l4.2-10c0.1-0.2,0.2-0.2,0.4-0.2c0.2,0,0.3,0.1,0.4,0.2L130.5,85z"/>
	<path class="st9" d="M127.5,82.6h-3c-0.1,0-0.2,0-0.3-0.1c-0.1-0.1-0.1-0.2-0.1-0.3c0-0.1,0-0.2,0.1-0.3c0.1-0.1,0.2-0.1,0.3-0.1h3
		c0.1,0,0.2,0,0.3,0.1c0.1,0.1,0.1,0.2,0.1,0.3c0,0.1,0,0.2-0.1,0.3C127.7,82.6,127.6,82.6,127.5,82.6z M130.5,85c0,0.1,0,0.2,0,0.3
		c0,0.1-0.1,0.2-0.2,0.2c-0.1,0-0.2,0.1-0.3,0c-0.1,0-0.2-0.1-0.2-0.2l-3.7-9.1l-3.8,9.1c-0.1,0.2-0.2,0.2-0.4,0.2
		c-0.1,0-0.1,0-0.2,0c-0.1,0-0.2-0.1-0.2-0.2c0-0.1,0-0.2,0-0.3l4.2-10c0.1-0.2,0.2-0.2,0.4-0.2c0.2,0,0.3,0.1,0.4,0.2L130.5,85z"/>
	<path class="st9" d="M135.8,85.5c-0.1,0-0.2,0-0.3-0.1c-0.1-0.1-0.1-0.2-0.1-0.3v-8.6c0-0.1,0-0.2,0.1-0.3c0.1-0.1,0.2-0.1,0.3-0.1
		c0.1,0,0.2,0,0.3,0.1c0.1,0.1,0.1,0.2,0.1,0.3v8.6c0,0.1,0,0.2-0.1,0.3C136,85.5,135.9,85.5,135.8,85.5 M139.2,75.5h-6.9
		c-0.1,0-0.2,0-0.3-0.1c-0.1-0.1-0.1-0.2-0.1-0.3c0-0.1,0-0.2,0.1-0.3c0.1-0.1,0.2-0.1,0.3-0.1h6.9c0.1,0,0.2,0,0.3,0.1
		c0.1,0.1,0.1,0.2,0.1,0.3c0,0.1,0,0.2-0.1,0.3C139.4,75.5,139.3,75.5,139.2,75.5"/>
	<path class="st9" d="M135.8,85.5c-0.1,0-0.2,0-0.3-0.1c-0.1-0.1-0.1-0.2-0.1-0.3v-8.6c0-0.1,0-0.2,0.1-0.3c0.1-0.1,0.2-0.1,0.3-0.1
		c0.1,0,0.2,0,0.3,0.1c0.1,0.1,0.1,0.2,0.1,0.3v8.6c0,0.1,0,0.2-0.1,0.3C136,85.5,135.9,85.5,135.8,85.5z M139.2,75.5h-6.9
		c-0.1,0-0.2,0-0.3-0.1c-0.1-0.1-0.1-0.2-0.1-0.3c0-0.1,0-0.2,0.1-0.3c0.1-0.1,0.2-0.1,0.3-0.1h6.9c0.1,0,0.2,0,0.3,0.1
		c0.1,0.1,0.1,0.2,0.1,0.3c0,0.1,0,0.2-0.1,0.3C139.4,75.5,139.3,75.5,139.2,75.5z"/>
	<path class="st9" d="M149.3,85.5h-6c-0.1,0-0.2,0-0.3-0.1c-0.1-0.1-0.1-0.2-0.1-0.3v-5.8c0-0.1,0-0.2,0.1-0.3
		c0.1-0.1,0.2-0.1,0.3-0.1h4.6c0.1,0,0.2,0,0.3,0.1c0.1,0.1,0.1,0.2,0.1,0.3c0,0.1,0,0.2-0.1,0.3c-0.1,0.1-0.2,0.1-0.3,0.1h-4.2v4.9
		h5.6c0.1,0,0.2,0,0.3,0.1c0.1,0.1,0.1,0.2,0.1,0.3c0,0.1,0,0.2-0.1,0.3C149.5,85.5,149.4,85.5,149.3,85.5 M143.2,78.1
		c-0.1,0-0.2,0-0.3-0.1c-0.1-0.1-0.1-0.2-0.1-0.3v-2.6c0-0.1,0-0.2,0.1-0.3c0.1-0.1,0.2-0.1,0.3-0.1h6c0.1,0,0.2,0,0.3,0.1
		c0.1,0.1,0.1,0.2,0.1,0.3s0,0.2-0.1,0.3c-0.1,0.1-0.2,0.1-0.3,0.1h-5.6v2.1c0,0.1,0,0.2-0.1,0.3C143.5,78,143.4,78.1,143.2,78.1"/>
	<path class="st9" d="M149.3,85.5h-6c-0.1,0-0.2,0-0.3-0.1c-0.1-0.1-0.1-0.2-0.1-0.3v-5.8c0-0.1,0-0.2,0.1-0.3
		c0.1-0.1,0.2-0.1,0.3-0.1h4.6c0.1,0,0.2,0,0.3,0.1c0.1,0.1,0.1,0.2,0.1,0.3c0,0.1,0,0.2-0.1,0.3c-0.1,0.1-0.2,0.1-0.3,0.1h-4.2v4.9
		h5.6c0.1,0,0.2,0,0.3,0.1c0.1,0.1,0.1,0.2,0.1,0.3c0,0.1,0,0.2-0.1,0.3C149.5,85.5,149.4,85.5,149.3,85.5z M143.2,78.1
		c-0.1,0-0.2,0-0.3-0.1c-0.1-0.1-0.1-0.2-0.1-0.3v-2.6c0-0.1,0-0.2,0.1-0.3c0.1-0.1,0.2-0.1,0.3-0.1h6c0.1,0,0.2,0,0.3,0.1
		c0.1,0.1,0.1,0.2,0.1,0.3s0,0.2-0.1,0.3c-0.1,0.1-0.2,0.1-0.3,0.1h-5.6v2.1c0,0.1,0,0.2-0.1,0.3C143.5,78,143.4,78.1,143.2,78.1z"
		/>
</g>
</svg>
