<?xml version="1.0" encoding="utf-8"?>
<!-- Generator: Adobe Illustrator 16.0.0, SVG Export Plug-In . SVG Version: 6.00 Build 0)  -->
<!DOCTYPE svg PUBLIC "-//W3C//DTD SVG 1.1//EN" "http://www.w3.org/Graphics/SVG/1.1/DTD/svg11.dtd">
<svg version="1.1" id="Layer_1" xmlns="http://www.w3.org/2000/svg" xmlns:xlink="http://www.w3.org/1999/xlink" x="0px" y="0px"
	 width="200px" height="70px" viewBox="0 0 200 70" enable-background="new 0 0 200 70" xml:space="preserve">
<g>
	<polygon points="-0.006,37.574 -0.006,37.574 200.006,37.574 200.006,37.217 -0.006,37.217 	"/>
	<polygon points="174.893,18.907 174.893,18.907 181.338,18.907 181.338,24.453 183.369,24.453 183.369,12.607 181.338,12.607 
		181.338,17.085 174.893,17.085 174.893,12.607 172.861,12.607 172.861,24.453 174.893,24.453 	"/>
	<path d="M116.754,23.426L116.754,23.426c0.795-0.753,1.088-1.632,1.088-2.51c0-1.445-0.773-2.659-2.156-2.994
		c0.859-0.354,1.506-1.316,1.506-2.405c0-0.734-0.293-1.361-0.795-1.883c-0.586-0.566-1.506-1.026-2.844-1.026h-7.182v11.846h7.328
		C115.393,24.453,116.188,23.971,116.754,23.426z M108.422,14.429L108.422,14.429h4.9c0.564,0,1.004,0.126,1.34,0.438
		c0.25,0.252,0.418,0.629,0.418,1.026c0,0.439-0.189,0.857-0.502,1.172c-0.316,0.336-0.754,0.438-1.256,0.438h-4.9V14.429z
		 M108.422,19.136L108.422,19.136h5.338c0.609,0,1.131,0.251,1.488,0.628c0.293,0.315,0.479,0.691,0.479,1.13
		c0,0.441-0.186,0.9-0.479,1.194c-0.377,0.376-0.922,0.543-1.488,0.543h-5.338V19.136z"/>
	<polygon points="133.977,22.631 133.977,22.631 125.961,22.631 125.961,19.177 130.525,19.177 130.525,17.358 125.961,17.358 
		125.961,14.429 133.539,14.429 133.539,12.607 123.932,12.607 123.932,24.453 133.977,24.453 	"/>
	<polygon points="84.63,20.726 84.63,20.726 87.034,18.508 91.767,24.453 94.403,24.453 88.5,17.149 93.335,12.607 90.823,12.607 
		84.63,18.466 84.63,12.607 82.599,12.607 82.599,24.453 84.63,24.453 	"/>
	<path d="M161.646,24.808L161.646,24.808c2.572,0,4.563-1.191,5.84-2.47l-1.363-1.339c-1.025,1.089-2.594,2.01-4.457,2.01
		c-2.637,0-4.373-2.01-4.373-4.479c0-2.45,1.695-4.479,4.289-4.479c1.445,0,3.076,0.647,4.143,1.633l1.385-1.362
		c-1.342-1.233-3.412-2.072-5.568-2.072c-3.787,0-6.385,2.849-6.385,6.28C155.156,22.004,157.732,24.808,161.646,24.808z"/>
	<path d="M142.141,21.251L142.141,21.251h5.65l1.422,3.202h2.24l-5.504-11.846h-1.842l-5.504,11.846h2.115L142.141,21.251z
		 M144.922,15.034L144.922,15.034h0.105l2.029,4.584h-4.184L144.922,15.034z"/>
	<path d="M23.098,24.808L23.098,24.808c2.575,0,4.564-1.191,5.84-2.47l-1.359-1.339c-1.004,1.089-2.594,2.01-4.438,2.01
		c-2.656,0-4.372-2.01-4.372-4.479c0-2.45,1.693-4.479,4.269-4.479c1.465,0,3.098,0.647,4.144,1.633l1.381-1.362
		c-1.316-1.233-3.39-2.072-5.546-2.072c-3.787,0-6.381,2.849-6.381,6.28C16.634,22.004,19.206,24.808,23.098,24.808z"/>
	<path d="M36.348,19.89L36.348,19.89h4.205l2.553,4.563h2.347l-2.85-4.835c1.571-0.566,2.618-1.78,2.618-3.39
		c0-0.901-0.335-1.738-0.94-2.366c-0.754-0.814-1.845-1.255-3.435-1.255h-6.529v11.846h2.031V19.89z M36.348,14.429L36.348,14.429
		h4.498c0.649,0,1.297,0.042,1.863,0.628c0.313,0.335,0.479,0.731,0.479,1.172c0,1.023-0.898,1.86-1.967,1.86h-4.874V14.429z"/>
	<polygon points="61.336,22.631 61.336,22.631 53.319,22.631 53.319,19.177 57.861,19.177 57.861,17.358 53.319,17.358 
		53.319,14.429 60.895,14.429 60.895,12.607 51.289,12.607 51.289,24.453 61.336,24.453 	"/>
	<polygon points="76.99,22.631 76.99,22.631 68.975,22.631 68.975,19.177 73.517,19.177 73.517,17.358 68.975,17.358 68.975,14.429 
		76.55,14.429 76.55,12.607 66.943,12.607 66.943,24.453 76.99,24.453 	"/>
	<path d="M85.235,51.095L85.235,51.095c-0.188,0-0.293-0.063-0.461-0.188c-0.125-0.084-0.293-0.188-0.521-0.314
		c-0.46-0.229-1.089-0.376-1.696-0.376c-1.13,0-2.073,0.376-2.742,1.046c-0.647,0.67-0.982,1.591-0.982,2.657
		c0,1.172,0.377,2.136,1.107,2.806c0.67,0.627,1.612,0.963,2.682,0.963c0.479,0,0.898-0.146,1.256-0.272
		c0.312-0.104,0.604-0.21,0.878-0.21c0.252,0,0.461,0.083,0.67,0.272l0.126,0.104v-0.147v-3.223V54.15h-0.064H83.75h-0.083v0.062
		v0.063v0.063h0.083h0.21c0.042,0,0.479,0.021,0.479,0.586v2.114c-0.187,0.042-0.376,0.104-0.563,0.188
		c-0.399,0.125-0.796,0.271-1.256,0.271c-0.943,0-1.655-0.418-2.096-1.192c-0.418-0.754-0.502-1.716-0.502-2.387
		c0-1.087,0.273-1.987,0.795-2.615c0.463-0.586,1.068-0.879,1.738-0.879c1.381,0,2.093,0.606,2.386,0.963
		c0.293,0.355,0.482,0.837,0.482,0.858l0.146,0.334v-0.377v-1.108v-0.126l-0.104,0.063C85.383,51.072,85.318,51.095,85.235,51.095z
		 M85.486,57.435L85.486,57.435c-0.146-0.124-0.271-0.188-0.377-0.229C85.216,57.247,85.341,57.311,85.486,57.435z M85.025,57.163
		L85.025,57.163c-0.103-0.021-0.187-0.021-0.271-0.021C84.839,57.142,84.923,57.142,85.025,57.163z M85.36,51.91L85.36,51.91
		c-0.061-0.104-0.125-0.23-0.209-0.355C85.235,51.68,85.3,51.807,85.36,51.91z M85.36,51.91L85.36,51.91
		c0.084,0.168,0.148,0.293,0.148,0.293S85.444,52.078,85.36,51.91z"/>
	<path d="M92.394,54.275L92.394,54.275c0.88-0.21,1.508-1.025,1.508-1.946c0-0.376-0.084-0.921-0.503-1.34
		c-0.418-0.439-1.088-0.647-1.989-0.647H88.5h-0.127l0.085,0.104c0,0,0.167,0.251,0.167,0.606v5.756
		c0,0.334-0.167,0.586-0.167,0.586l-0.085,0.104H88.5h1.338h0.148l-0.084-0.104c0,0-0.167-0.252-0.167-0.586v-2.47h1.004
		c0.315,0,0.441,0.167,0.586,0.356l1.758,2.783l0.022,0.021h0.042h1.149h0.126l-0.062-0.104L92.394,54.275z M89.735,54.129
		L89.735,54.129v-3.601h1.571c0.418,0,0.772,0.168,1.023,0.503c0.231,0.313,0.357,0.753,0.357,1.298c0,1.13-0.524,1.8-1.423,1.8
		H89.735z"/>
	<path d="M103.381,51.095L103.381,51.095c-0.691-0.566-1.674-0.901-2.762-0.901c-1.068,0-2.053,0.335-2.765,0.901
		c-0.795,0.669-1.233,1.632-1.233,2.824c0,1.214,0.438,2.178,1.233,2.847c0.712,0.586,1.696,0.9,2.765,0.9
		c1.088,0,2.07-0.314,2.762-0.9c0.814-0.669,1.232-1.633,1.232-2.847C104.613,52.727,104.195,51.764,103.381,51.095z
		 M102.564,56.619L102.564,56.619c-0.503,0.544-1.172,0.858-1.945,0.858c-0.756,0-1.445-0.314-1.928-0.858
		c-0.544-0.606-0.837-1.549-0.837-2.7c0-1.129,0.293-2.071,0.837-2.678c0.482-0.545,1.172-0.838,1.928-0.838
		c0.773,0,1.442,0.293,1.945,0.838c0.543,0.606,0.836,1.549,0.836,2.678C103.4,55.07,103.107,56.013,102.564,56.619z"/>
	<path d="M112.547,50.342L112.547,50.342h-0.125l0.064,0.104c0.166,0.293,0.166,0.482,0.166,0.565c0,0.23-0.064,0.397-0.148,0.586
		l-2.051,4.5l-2.637-5.714l-0.021-0.041h-0.061h-1.131h-0.105l0.041,0.083l3.311,7.179l0.082,0.146l0.063-0.146l2.91-6.385
		c0.145-0.313,0.334-0.543,0.605-0.753l0.148-0.124h-0.211H112.547z M109.932,57.582L109.932,57.582l-3.328-7.179L109.932,57.582z
		 M110.453,56.264L110.453,56.264l2.115-4.626L110.453,56.264z"/>
	<path d="M119.223,57.311L119.223,57.311h-2.031v-3.412h1.34c0.357,0,0.672,0.146,0.902,0.272l0.104,0.063v-0.126v-0.649v-0.126
		l-0.104,0.063c-0.271,0.166-0.545,0.292-0.902,0.292h-1.34v-3.16h1.781c1.402,0,1.799,0.816,1.82,0.859l0.127,0.292v-0.335v-0.941
		v-0.062h-0.064h-4.896h-0.125l0.061,0.104c0.021,0,0.189,0.251,0.189,0.606v5.756c0,0.334-0.168,0.586-0.189,0.586l-0.061,0.104
		h0.125h5.127h0.086v-0.063v-0.94v-0.335l-0.148,0.293C121.023,56.494,120.604,57.311,119.223,57.311z M120.855,51.345
		L120.855,51.345c0,0-0.104-0.229-0.396-0.438C120.752,51.115,120.855,51.345,120.855,51.345z M120.459,50.906L120.459,50.906
		c-0.084-0.084-0.209-0.147-0.357-0.23C120.25,50.759,120.375,50.822,120.459,50.906z M120.061,50.655L120.061,50.655
		c-0.209-0.084-0.48-0.167-0.795-0.189C119.58,50.488,119.852,50.571,120.061,50.655z M120.814,56.85L120.814,56.85
		c-0.063,0.042-0.127,0.104-0.188,0.146C120.688,56.954,120.752,56.892,120.814,56.85z M120.586,57.017L120.586,57.017
		c-0.023,0.021-0.023,0.021-0.043,0.042C120.563,57.038,120.563,57.038,120.586,57.017z M120.459,57.101L120.459,57.101
		c-0.125,0.063-0.273,0.126-0.441,0.167C120.186,57.227,120.334,57.163,120.459,57.101z M119.916,57.311L119.916,57.311
		c-0.105,0.021-0.232,0.041-0.379,0.063C119.684,57.352,119.811,57.331,119.916,57.311z M120.836,56.828L120.836,56.828
		c0.125-0.125,0.188-0.229,0.229-0.293C121.023,56.599,120.961,56.703,120.836,56.828z M121.086,56.494L121.086,56.494
		c0,0,0,0,0,0.021C121.086,56.494,121.086,56.494,121.086,56.494z"/>
</g>
</svg>
