<?xml version="1.0" encoding="utf-8"?>
<!-- Generator: Adobe Illustrator 26.0.1, SVG Export Plug-In . SVG Version: 6.00 Build 0)  -->
<!DOCTYPE svg PUBLIC "-//W3C//DTD SVG 1.1//EN" "http://www.w3.org/Graphics/SVG/1.1/DTD/svg11.dtd" [
	<!ENTITY ns_extend "http://ns.adobe.com/Extensibility/1.0/">
	<!ENTITY ns_ai "http://ns.adobe.com/AdobeIllustrator/10.0/">
	<!ENTITY ns_graphs "http://ns.adobe.com/Graphs/1.0/">
	<!ENTITY ns_vars "http://ns.adobe.com/Variables/1.0/">
	<!ENTITY ns_imrep "http://ns.adobe.com/ImageReplacement/1.0/">
	<!ENTITY ns_sfw "http://ns.adobe.com/SaveForWeb/1.0/">
	<!ENTITY ns_custom "http://ns.adobe.com/GenericCustomNamespace/1.0/">
	<!ENTITY ns_adobe_xpath "http://ns.adobe.com/XPath/1.0/">
]>
<svg version="1.1" id="Layer_1" xmlns:x="&ns_extend;" xmlns:i="&ns_ai;" xmlns:graph="&ns_graphs;"
	 xmlns="http://www.w3.org/2000/svg" xmlns:xlink="http://www.w3.org/1999/xlink" x="0px" y="0px" viewBox="0 0 200 97.6"
	 style="enable-background:new 0 0 200 97.6;" xml:space="preserve">
<style type="text/css">
	.st0{fill:#080505;}
	.st1{fill:#F8AF41;}
	.st2{fill:#376278;}
	.st3{fill:#FFC663;}
	.st4{fill:#F6CE76;}
	.st5{fill:#0D98BB;}
	.st6{fill:#70B599;}
	.st7{fill:#EAE3AC;}
	.st8{fill:#91060D;}
	.st9{fill:#2D628C;}
	.st10{fill:#012944;}
	.st11{fill:#043754;}
	.st12{fill:#1D324D;}
	.st13{fill:#8C7449;}
	.st14{fill:#003756;}
	.st15{fill:#53B2D3;}
	.st16{fill:#082042;}
	.st17{fill:#055985;}
	.st18{fill:#A08C6A;}
	.st19{clip-path:url(#SVGID_00000139973690235578654030000001238257686117154744_);}
	.st20{filter:url(#Adobe_OpacityMaskFilter);}
	.st21{opacity:0.9;mask:url(#SVGID_00000168115757981003175000000007757347828876767120_);fill:#FFFFFF;}
	.st22{filter:url(#Adobe_OpacityMaskFilter_00000127028317754210045140000002471151324291640969_);}
	.st23{opacity:0.75;mask:url(#SVGID_00000170996216401854034810000013268973297787784584_);}
	.st24{filter:url(#Adobe_OpacityMaskFilter_00000085236063826888579850000008338357562561855401_);}
	.st25{mask:url(#SVGID_00000088116718437496032520000017754925640007621253_);fill:#FFFFFF;}
	.st26{filter:url(#Adobe_OpacityMaskFilter_00000134928270082913541220000006716053634912406945_);}
	.st27{opacity:0.75;mask:url(#SVGID_00000124863350627422271490000006560217983910413700_);}
	.st28{fill:none;stroke:#000000;stroke-width:1.2;}
	.st29{clip-path:url(#SVGID_00000161599822825277126490000017721439882230406062_);}
	.st30{fill:#1E2731;}
	.st31{fill:#777779;}
	
		.st32{clip-path:url(#SVGID_00000000224612588900253200000018425191373705645999_);fill:url(#SVGID_00000022527354936242524100000011693235697457253000_);}
</style>
<metadata>
	<sfw  xmlns="&ns_sfw;">
		<slices></slices>
		<sliceSourceBounds  bottomLeftOrigin="true" height="515.4" width="2527.2" x="1.1" y="-405.1"></sliceSourceBounds>
	</sfw>
</metadata>
<g>
	<path class="st30" d="M25.5,87.5l-2.6,5.5h5.3L25.5,87.5z M30.8,96.4h-1l-1.6-3.3h-5.4l-1.6,3.3h-0.1l4.8-10.1h0L30.8,96.4z"/>
	<polygon class="st30" points="37,96.4 36,96.4 36,86.6 31.7,86.6 31.7,86.4 41.2,86.4 41.2,86.6 37,86.6 	"/>
	<path class="st30" d="M53.2,96.3c1.1,0,2-0.2,2.8-0.5c0.7-0.3,1.3-0.8,1.7-1.5c0.4-0.7,0.6-1.7,0.6-2.9c0-1.2-0.2-2.2-0.6-2.9
		c-0.4-0.7-0.9-1.2-1.7-1.5c-0.7-0.3-1.7-0.5-2.8-0.5h-2.3v9.8H53.2z M50,96.4v-10h3.3c2.1,0,3.6,0.4,4.5,1.2c1,0.8,1.5,2.1,1.5,3.8
		c0,1-0.2,1.8-0.7,2.6c-0.4,0.8-1.1,1.3-2,1.8c-0.9,0.4-2,0.6-3.3,0.6H50z"/>
	<path class="st30" d="M65.1,96c-0.7-0.3-1.1-0.8-1.4-1.5c-0.3-0.6-0.4-1.4-0.4-2.4v-5.8h0.9v5.8c0,0.8,0.1,1.4,0.2,2
		c0.1,0.6,0.5,1.1,1,1.5c0.5,0.4,1.4,0.7,2.5,0.7c1.3,0,2.3-0.3,3-1c0.7-0.7,1-1.7,1-3.2v-5.8h0.1v5.8c0,1.4-0.3,2.5-1,3.2
		c-0.7,0.8-1.8,1.1-3.2,1.1C66.7,96.5,65.8,96.4,65.1,96"/>
	<path class="st30" d="M80.1,96.3c0.8,0,1.5,0,2-0.1c0.5-0.1,1-0.3,1.4-0.7c0.4-0.4,0.6-0.9,0.6-1.7c0-0.8-0.2-1.4-0.6-1.7
		c-0.4-0.4-1-0.6-1.6-0.7c-0.6-0.1-1.5-0.1-2.5-0.1h-2.2v5H80.1z M77.3,86.6v4.6h2.2c1,0,1.8,0,2.3-0.1c0.5-0.1,1-0.3,1.3-0.6
		c0.3-0.3,0.5-0.8,0.5-1.6c0-0.7-0.2-1.2-0.5-1.6s-0.8-0.5-1.3-0.6c-0.5-0.1-1.3-0.1-2.2-0.1H77.3z M80.6,91.2
		c1.3,0,2.3,0.2,3.2,0.5c0.9,0.4,1.3,1,1.3,2c0,0.8-0.3,1.4-0.9,1.8c-0.6,0.4-1.2,0.6-1.9,0.7c-0.7,0.1-1.4,0.1-2.3,0.1h-3.9v-10
		h3.2c1,0,1.8,0,2.5,0.1s1.3,0.3,1.8,0.7c0.5,0.4,0.8,0.9,0.8,1.6c0,0.9-0.4,1.5-1.1,1.8S81.7,91.2,80.6,91.2L80.6,91.2z"/>
	<path class="st30" d="M92.2,87.5l-2.6,5.5h5.3L92.2,87.5z M97.5,96.4h-1l-1.6-3.3h-5.4L88,96.4h-0.1l4.8-10.1h0L97.5,96.4z"/>
	<rect x="101.1" y="86.4" class="st30" width="0.9" height="10"/>
	<polygon class="st30" points="122.3,86.4 122.9,96.4 121.9,96.4 121.4,88 116.6,96.5 111.8,88 111.3,96.4 111.2,96.4 111.8,86.4 
		111.9,86.4 117.1,95.5 122.2,86.4 	"/>
	<path class="st30" d="M130.9,87.5l-2.6,5.5h5.3L130.9,87.5z M136.2,96.4h-1l-1.6-3.3h-5.4l-1.6,3.3h-0.1l4.8-10.1h0L136.2,96.4z"/>
	<path class="st30" d="M140.7,86.6v5.3h3.2c0.7,0,1.2-0.1,1.7-0.2c0.5-0.1,0.8-0.4,1.1-0.8c0.3-0.4,0.4-0.9,0.4-1.6
		c0-0.7-0.1-1.3-0.4-1.6s-0.6-0.6-1.1-0.8c-0.5-0.1-1-0.2-1.7-0.2H140.7z M147.4,96.4l-3.9-4.5h-2.8v4.5h-0.9l0-10h4.2
		c0.7,0,1.3,0.1,1.9,0.2c0.6,0.1,1.1,0.4,1.6,0.8c0.4,0.4,0.7,1,0.7,1.8c0,1.7-1.2,2.7-3.5,2.8l3.9,4.5H147.4z"/>
	<rect x="152.4" y="86.4" class="st30" width="0.9" height="10"/>
	<polygon class="st30" points="166.1,95.1 166.1,86.4 166.2,86.4 166.2,96.5 166.2,96.5 157.7,87.8 157.7,96.4 157.6,96.4 
		157.6,86.3 157.6,86.3 	"/>
	<path class="st30" d="M174.2,87.5l-2.6,5.5h5.3L174.2,87.5z M179.5,96.4h-1l-1.6-3.3h-5.4l-1.6,3.3h-0.1l4.8-10.1h0L179.5,96.4z"/>
	<polygon class="st30" points="39.7,2.7 41.2,29.4 38.6,29.4 37.3,6.8 24.5,29.5 11.6,7 10.3,29.4 10,29.4 11.5,2.7 11.8,2.7 
		25.6,26.8 39.4,2.7 	"/>
	<path class="st30" d="M62.5,5.6l-7,14.8h14L62.5,5.6z M76.6,29.4h-2.8l-4.1-8.7H55.3l-4.1,8.7h-0.3L63.7,2.4h0.1L76.6,29.4z"/>
	<path class="st30" d="M88.7,3v14.1h8.6c1.8,0,3.3-0.2,4.5-0.6c1.2-0.4,2.2-1.1,2.9-2.1c0.7-1,1-2.5,1-4.4c0-1.9-0.3-3.4-1-4.4
		c-0.7-1-1.6-1.7-2.9-2.1C100.6,3.2,99.1,3,97.3,3H88.7z M106.6,29.4L96.2,17.5h-7.5v11.9h-2.5l0-26.6h11.1c1.8,0,3.5,0.2,5.1,0.5
		c1.6,0.3,3,1,4.1,2.1c1.2,1.1,1.8,2.7,1.8,4.8c0,4.7-3.1,7.1-9.2,7.3l10.5,11.9H106.6z"/>
	<rect x="120" y="2.7" class="st30" width="2.5" height="26.6"/>
	<polygon class="st30" points="156.4,25.9 156.4,2.7 156.7,2.7 156.7,29.7 156.7,29.7 133.9,6.2 133.9,29.4 133.6,29.4 133.6,2.4 
		133.7,2.4 	"/>
	<path class="st30" d="M178,5.6l-7,14.8h14L178,5.6z M192.1,29.4h-2.8l-4.1-8.7h-14.3l-4.1,8.7h-0.3l12.8-26.9h0.1L192.1,29.4z"/>
	<path class="st30" d="M7.5,74.5c-1.8-0.6-3.2-1.4-4.2-2.4c-1-1-1.5-2.3-1.5-3.7c0-1,0.2-1.8,0.7-2.6L2.8,66
		c-0.4,0.7-0.6,1.5-0.6,2.4c0,1.3,0.5,2.4,1.4,3.4c1,1,2.3,1.8,4,2.3c1.7,0.5,3.7,0.8,5.9,0.8c1.5,0,3.1-0.2,4.7-0.5
		c1.6-0.3,3-1,4.1-1.9c1.2-0.9,1.7-2.1,1.7-3.7c0-1.3-0.5-2.4-1.5-3.3c-1-0.8-2.2-1.5-3.6-1.9c-1.4-0.4-3.3-0.9-5.7-1.5
		c-2.5-0.6-4.4-1.1-5.8-1.5c-1.4-0.5-2.6-1.1-3.6-2c-1-0.9-1.5-2-1.5-3.4c0-1.4,0.5-2.6,1.5-3.7c1-1.1,2.3-2,4.1-2.6
		c1.8-0.6,3.8-0.9,6.1-0.9c2.2,0,4.1,0.3,5.7,0.8c1.6,0.5,2.9,1.3,3.7,2.3c0.9,1,1.3,2.2,1.3,3.5c0,0.9-0.2,1.7-0.6,2.4L24,57
		c0.4-0.8,0.5-1.6,0.5-2.3c0-1.3-0.4-2.4-1.3-3.4c-0.8-1-2.1-1.7-3.6-2.2c-1.6-0.5-3.4-0.8-5.5-0.8c-1.9,0-3.6,0.2-5.1,0.7
		c-1.5,0.5-2.6,1.1-3.4,1.9c-0.8,0.8-1.2,1.8-1.2,2.9c0,1.2,0.5,2.2,1.4,2.9c0.9,0.7,2,1.3,3.4,1.7c1.3,0.4,3.1,0.9,5.5,1.4
		c2.5,0.5,4.5,1,6,1.5c1.5,0.5,2.9,1.2,3.9,2.1c1.1,0.9,1.6,2.2,1.6,3.7c0,1.7-0.6,3.2-1.7,4.4c-1.1,1.2-2.7,2.1-4.6,2.6
		c-1.9,0.6-4,0.9-6.3,0.9C11.3,75.3,9.3,75,7.5,74.5"/>
	<polygon class="st30" points="58.7,61.2 58.7,48.4 61.2,48.4 61.2,75 58.7,75 58.7,61.5 39.5,61.5 39.5,75 37,75 37,48.4 
		39.5,48.4 39.5,61.2 	"/>
	<path class="st30" d="M93,73c1.7-1.3,2.9-3,3.5-5c0.7-2,1-4.1,1-6.3c0-2.2-0.3-4.3-1-6.3c-0.7-2-1.8-3.7-3.5-5c-1.7-1.3-4-2-6.9-2
		c-2.9,0-5.2,0.7-6.9,2c-1.7,1.3-2.9,3-3.5,5c-0.7,2-1,4.1-1,6.3c0,2.2,0.3,4.3,1,6.3c0.7,2,1.8,3.7,3.5,5c1.7,1.3,4,2,6.9,2
		C89.1,75,91.4,74.3,93,73 M79,73.7c-2.1-1.1-3.8-2.6-5.1-4.7c-1.2-2-1.9-4.5-1.9-7.4c0-2.9,0.6-5.3,1.9-7.4c1.2-2,2.9-3.6,5.1-4.7
		c2.1-1.1,4.5-1.6,7.2-1.6c2.7,0,5.1,0.5,7.2,1.6c2.1,1.1,3.8,2.6,5.1,4.7c1.2,2,1.9,4.5,1.9,7.4c0,2.9-0.6,5.3-1.9,7.4
		c-1.2,2-2.9,3.6-5.1,4.7c-2.1,1.1-4.5,1.6-7.2,1.6C83.5,75.3,81.1,74.8,79,73.7"/>
	<path class="st30" d="M113.6,48.7v14.1h8.6c1.8,0,3.3-0.2,4.5-0.6c1.2-0.4,2.2-1.1,2.9-2.1c0.7-1,1-2.5,1-4.4c0-1.9-0.3-3.4-1-4.4
		c-0.7-1-1.6-1.7-2.9-2.1c-1.2-0.4-2.7-0.6-4.5-0.6H113.6z M131.5,75l-10.4-11.9h-7.5V75h-2.5l0-26.6h11.1c1.8,0,3.5,0.2,5.1,0.5
		c1.6,0.3,3,1,4.1,2.1c1.2,1.1,1.8,2.7,1.8,4.8c0,4.7-3.1,7.1-9.2,7.3L134.4,75H131.5z"/>
	<polygon class="st30" points="147.3,61.5 147.3,74.7 165.1,74.7 165.1,75 144.8,75 144.8,48.4 164.7,48.4 164.7,48.7 147.3,48.7 
		147.3,61.2 161.8,61.2 161.8,61.5 	"/>
	<path class="st30" d="M180,74.5c-1.8-0.6-3.2-1.4-4.2-2.4c-1-1-1.5-2.3-1.5-3.7c0-1,0.2-1.8,0.7-2.6l0.3,0.2
		c-0.4,0.7-0.6,1.5-0.6,2.4c0,1.3,0.5,2.4,1.4,3.4c1,1,2.3,1.8,4,2.3c1.7,0.5,3.7,0.8,5.9,0.8c1.5,0,3.1-0.2,4.7-0.5
		c1.6-0.3,3-1,4.1-1.9c1.2-0.9,1.7-2.1,1.7-3.7c0-1.3-0.5-2.4-1.5-3.3c-1-0.8-2.2-1.5-3.6-1.9c-1.4-0.4-3.3-0.9-5.7-1.5
		c-2.5-0.6-4.4-1.1-5.8-1.5c-1.4-0.5-2.6-1.1-3.6-2c-1-0.9-1.5-2-1.5-3.4c0-1.4,0.5-2.6,1.5-3.7c1-1.1,2.3-2,4.1-2.6
		c1.8-0.6,3.8-0.9,6.1-0.9c2.2,0,4.1,0.3,5.7,0.8c1.6,0.5,2.9,1.3,3.7,2.3c0.9,1,1.3,2.2,1.3,3.5c0,0.9-0.2,1.7-0.6,2.4l-0.3-0.1
		c0.4-0.8,0.5-1.6,0.5-2.3c0-1.3-0.4-2.4-1.3-3.4c-0.8-1-2.1-1.7-3.6-2.2c-1.6-0.5-3.4-0.8-5.5-0.8c-1.9,0-3.6,0.2-5.1,0.7
		c-1.5,0.5-2.6,1.1-3.4,1.9c-0.8,0.8-1.2,1.8-1.2,2.9c0,1.2,0.5,2.2,1.4,2.9c0.9,0.7,2,1.3,3.4,1.7c1.3,0.4,3.1,0.9,5.5,1.4
		c2.5,0.5,4.5,1,6,1.5c1.5,0.5,2.9,1.2,3.9,2.1c1.1,0.9,1.6,2.2,1.6,3.7c0,1.7-0.6,3.2-1.7,4.4c-1.1,1.2-2.7,2.1-4.6,2.6
		c-1.9,0.6-4,0.9-6.3,0.9C183.8,75.3,181.8,75,180,74.5"/>
</g>
</svg>
