<?xml version="1.0" encoding="utf-8"?>
<!-- Generator: Adobe Illustrator 26.0.1, SVG Export Plug-In . SVG Version: 6.00 Build 0)  -->
<!DOCTYPE svg PUBLIC "-//W3C//DTD SVG 1.1//EN" "http://www.w3.org/Graphics/SVG/1.1/DTD/svg11.dtd" [
	<!ENTITY ns_extend "http://ns.adobe.com/Extensibility/1.0/">
	<!ENTITY ns_ai "http://ns.adobe.com/AdobeIllustrator/10.0/">
	<!ENTITY ns_graphs "http://ns.adobe.com/Graphs/1.0/">
	<!ENTITY ns_vars "http://ns.adobe.com/Variables/1.0/">
	<!ENTITY ns_imrep "http://ns.adobe.com/ImageReplacement/1.0/">
	<!ENTITY ns_sfw "http://ns.adobe.com/SaveForWeb/1.0/">
	<!ENTITY ns_custom "http://ns.adobe.com/GenericCustomNamespace/1.0/">
	<!ENTITY ns_adobe_xpath "http://ns.adobe.com/XPath/1.0/">
]>
<svg version="1.1" id="Layer_1" xmlns:x="&ns_extend;" xmlns:i="&ns_ai;" xmlns:graph="&ns_graphs;"
	 xmlns="http://www.w3.org/2000/svg" xmlns:xlink="http://www.w3.org/1999/xlink" x="0px" y="0px" viewBox="0 0 174.2 70"
	 style="enable-background:new 0 0 174.2 70;" xml:space="preserve">
<style type="text/css">
	.st0{fill:#034962;}
	.st1{clip-path:url(#SVGID_00000063599101367355850690000004447860259085147315_);}
	.st2{clip-path:url(#SVGID_00000032639026853974614430000015929512247937669020_);}
	.st3{fill:#131718;}
	.st4{fill:#C36F2C;}
	
		.st5{clip-path:url(#SVGID_00000057859085856579463020000005208835466780489097_);fill:url(#SVGID_00000033359012606932958780000004896471700592435619_);}
</style>
<metadata>
	<sfw  xmlns="&ns_sfw;">
		<slices></slices>
		<sliceSourceBounds  bottomLeftOrigin="true" height="982.1" width="2151.6" x="136.2" y="-917.4"></sliceSourceBounds>
	</sfw>
</metadata>
<g id="b">
	<g id="c">
		<g>
			<polygon points="82.5,41.9 108.8,41.9 108.8,40.9 87.5,40.9 87.5,19 99.9,19 99.9,17.9 87.5,17.9 87.5,2.1 108.8,2.1 108.8,1 
				82.5,1 			"/>
			<path d="M72.8,21.5c1.5-2.1,2.2-4.3,2.2-6.9s-0.7-4.8-2.2-6.9c-1.5-2.1-3.4-3.7-5.9-4.9S61.7,1,58.7,1H45.2v40.8h4.5V2h8.9
				c2.1,0,4,0,5.8,1.2C66.2,4.5,67.6,6,68.6,8c1,2.1,1.5,4.3,1.5,6.7s-0.3,3.2-0.7,4.5c-1.1,3-4,7.4-12,9.1c-0.1,0-0.4,0-0.5,0h-1.1
				c0.4,0,0.8,0,1.1,0c-0.5,0-1,0.1-1.1,0.1L72,41.9h3.8L60.3,29.1C68.3,27.6,71.3,23.6,72.8,21.5"/>
			<path d="M128.4,18.6c-1.4-0.7-2.6-1.4-3.7-1.9c-4-1.9-6.6-3.4-8.1-4.5c-1.5-1.1-2.1-2.5-2.1-4.3s1-3.3,2.5-4.5
				c1.5-1.4,3.4-2.1,5.5-2.1c2.1,0,2.9,0.3,4.1,0.7c1.2,0.4,5.4,2.1,7.4,5.6V4.5h-0.1c-1.1-0.8-2.1-1.5-3-2.1s-2.1-1-3.4-1.2
				c-1.2-0.3-2.9-0.4-4.8-0.4c-1.9,0-2.6,0.3-4.1,0.7c-1.5,0.4-2.7,1.2-4,2.3c-1.1,1.1-1.9,2.6-2.3,4.5c-0.5,2.9,0.4,5.4,2.6,7.6
				c2.3,2.2,5.8,4.4,10.6,6.7c1.8,1,3.4,1.9,5.1,3.2c1.6,1.2,2.9,2.5,3.8,3.8c1,1.4,1.5,2.6,1.4,4c0,1.8-0.7,3.3-1.8,4.5
				c-1.1,1.2-2.5,2.1-4.1,2.6c-1.6,0.5-3.2,0.7-4.7,0.7c-2.1,0-5.9-1-8.4-2.3c-0.3-0.1-0.5-0.4-1-0.5c-0.4-0.3-1-0.7-1.4-1
				c-1.6-1.2-2.9-2.9-4.5-5.5v3.4c1.1,1.1,2.2,2.1,3.7,3.2c1.5,1.1,2.7,1.8,4.7,2.5c1.9,0.7,4.3,1.1,6.9,1.1s4.3-0.4,6-1.1
				c1.8-0.8,3.3-1.8,4.5-3c1.2-1.2,2.1-2.6,2.6-4.3c0.7-3,0-5.8-1.8-8.5c-1.9-2.6-4.7-4.8-8-6.5"/>
			<path d="M23.9,0.8c-4,0-7.6,1-10.7,2.7C10,5.4,7.4,7.9,5.5,11.1s-2.9,6.6-2.9,10.3s1,7.1,2.9,10.3s4.5,5.6,7.7,7.6
				c3.2,1.9,6.7,2.9,10.7,2.9s5.1-0.5,7.4-1.5c2.3-1,4.5-2.2,6.3-3.7V31c-0.8,2.1-1.9,4-3.3,5.5c-1.4,1.6-2.9,2.9-4.7,3.8
				s-3.7,1.4-5.8,1.4c-3,0-5.6-1-8.1-2.7c-2.3-1.8-4.3-4.3-5.5-7.3c-1.4-3-1.9-6.5-1.9-10.2s0.7-7.1,1.9-10.2c1.4-3,3.2-5.5,5.5-7.3
				c2.3-2.1,5.1-3,8.1-3s4,0.4,5.8,1.4c1.8,1,3.3,2.2,4.7,3.8c1.4,1.6,2.5,3.4,3.3,5.5V6c-1.9-1.5-4-2.7-6.3-3.7s-4.8-1.4-7.4-1.4"
				/>
			<polygon points="159.2,1 159.2,1 159,1 157,1 152.3,1 149.9,1 136.2,1 136.2,2.1 152.4,2.1 152.1,41.9 157,41.9 157.2,2.1 
				173.2,2.1 173.2,1 			"/>
			<path class="st3" d="M43.1,64.1h1.1v4c-1.1,0.8-2.6,1.5-4.1,1.5c-3.3,0-5.8-2.5-5.8-5.6s2.6-5.6,5.9-5.6s3,0.5,4.1,1.5l-0.7,1
				c-1-0.8-2.2-1.2-3.4-1.2c-2.6,0-4.5,1.9-4.5,4.4c0,2.5,2.1,4.4,4.5,4.4s2.1-0.4,2.9-1V64L43.1,64.1z"/>
			<path class="st3" d="M62.3,69.6L59.9,66c-0.3,0-0.4,0-0.7,0h-3v3.6H55V58.5h4.3c2.7,0,4.4,1.4,4.4,3.7c0,2.3-1,3-2.5,3.6l2.6,3.8
				H62.3z M59.2,64.9c2.1,0,3.2-1,3.2-2.6s-1.1-2.6-3.2-2.6h-3v5.2C56.2,64.9,59.2,64.9,59.2,64.9z"/>
			<path class="st3" d="M81.1,66.7h-6l-1.2,2.9h-1.4l4.9-11.1h1.4l4.9,11.1h-1.4C82.3,69.6,81.1,66.7,81.1,66.7z M80.5,65.5
				l-2.5-5.8l-2.5,5.8h5.1H80.5z"/>
			<polygon class="st3" points="94.6,58.5 101.1,67.6 101.1,58.5 102.4,58.5 102.4,69.6 101.1,69.6 94.4,60.5 94.4,69.6 93.2,69.6 
				93.2,58.5 			"/>
			<path class="st3" d="M123.7,64c0,3.2-2.5,5.6-5.8,5.6h-4.4V58.5h4.5c3.3,0,5.8,2.3,5.8,5.6 M122.6,64.1c0-2.5-1.9-4.4-4.5-4.4
				h-3.2v8.8h3.3C120.7,68.5,122.6,66.6,122.6,64.1"/>
			<polygon class="st3" points="141.3,58.5 141.3,59.6 135,59.6 135,63.4 140.6,63.4 140.6,64.5 135,64.5 135,68.4 141.4,68.4 
				141.4,69.6 133.7,69.6 133.7,58.5 			"/>
		</g>
	</g>
</g>
</svg>
