<?xml version="1.0" encoding="utf-8"?>
<!-- Generator: Adobe Illustrator 26.0.1, SVG Export Plug-In . SVG Version: 6.00 Build 0)  -->
<!DOCTYPE svg PUBLIC "-//W3C//DTD SVG 1.1//EN" "http://www.w3.org/Graphics/SVG/1.1/DTD/svg11.dtd" [
	<!ENTITY ns_extend "http://ns.adobe.com/Extensibility/1.0/">
	<!ENTITY ns_ai "http://ns.adobe.com/AdobeIllustrator/10.0/">
	<!ENTITY ns_graphs "http://ns.adobe.com/Graphs/1.0/">
	<!ENTITY ns_vars "http://ns.adobe.com/Variables/1.0/">
	<!ENTITY ns_imrep "http://ns.adobe.com/ImageReplacement/1.0/">
	<!ENTITY ns_sfw "http://ns.adobe.com/SaveForWeb/1.0/">
	<!ENTITY ns_custom "http://ns.adobe.com/GenericCustomNamespace/1.0/">
	<!ENTITY ns_adobe_xpath "http://ns.adobe.com/XPath/1.0/">
]>
<svg version="1.1" id="Layer_1" xmlns:x="&ns_extend;" xmlns:i="&ns_ai;" xmlns:graph="&ns_graphs;"
	 xmlns="http://www.w3.org/2000/svg" xmlns:xlink="http://www.w3.org/1999/xlink" x="0px" y="0px" viewBox="0 0 200 39.8"
	 style="enable-background:new 0 0 200 39.8;" xml:space="preserve">
<style type="text/css">
	.st0{fill:#808184;}
	.st1{clip-path:url(#SVGID_00000074440463839699191330000006828075214944935319_);}
	.st2{fill:#AC9C63;}
	.st3{fill:#038295;}
	
		.st4{clip-path:url(#SVGID_00000140695283084823664620000018050664466133736082_);fill:url(#SVGID_00000015324295802479609080000014962469124753982609_);}
	
		.st5{clip-path:url(#SVGID_00000059278078321476736590000017745875357803119744_);fill:url(#SVGID_00000162326490822626666550000013564308893051588273_);}
	
		.st6{clip-path:url(#SVGID_00000106114885564775331880000011693549158049429940_);fill:url(#SVGID_00000123426752591050966900000005437186549033583031_);}
	.st7{fill:url(#SVGID_00000175298041676124383780000004761327246331948945_);}
	.st8{fill:url(#SVGID_00000182486839173413241160000014168416107104851645_);}
	.st9{fill:url(#SVGID_00000177474888274782889840000011434672125717094834_);}
	.st10{fill:url(#SVGID_00000181785510968179430990000009718690451622136486_);}
	.st11{fill:url(#SVGID_00000048475250811279091330000000198394212913247670_);}
	.st12{fill:url(#SVGID_00000018940062707453145610000003442800037667367058_);}
	.st13{fill:url(#SVGID_00000029022216721303528820000006188412246097264033_);}
	.st14{fill:url(#SVGID_00000080205529748814480050000018387110231927286407_);}
	.st15{fill:url(#SVGID_00000150797624100951855440000006665662415732260001_);}
	.st16{fill:url(#SVGID_00000051364937192501544270000011029267450951877813_);}
	.st17{fill:url(#SVGID_00000111174549261060979830000015794171944226736028_);}
	.st18{fill:url(#SVGID_00000049181365359629790750000006156825026552766124_);}
	.st19{fill:url(#SVGID_00000115516370902794557260000014086107162231121804_);}
	.st20{fill:url(#SVGID_00000150100241820957863850000004484709043807250616_);}
	.st21{fill:url(#SVGID_00000156560193069585788670000016917969594828594862_);}
	.st22{fill:url(#SVGID_00000039098248513824654050000016480181062758964640_);}
	.st23{fill:url(#SVGID_00000163758839021605051500000017305533621145994921_);}
	.st24{fill:url(#SVGID_00000099653372832451359380000000982171017227112362_);}
	.st25{fill:url(#SVGID_00000038391917386402113700000006426069753160991881_);}
	.st26{fill:url(#SVGID_00000085965289826940934160000002216360805321483908_);}
	.st27{fill:url(#SVGID_00000008846287693637018660000007436929908730672027_);}
	.st28{fill:url(#SVGID_00000126304077840165037880000001356945065889130371_);}
	.st29{fill:url(#SVGID_00000127736802264273363900000015384569498237354125_);}
	.st30{fill:url(#SVGID_00000065786701524765534620000017996681924968692628_);}
	.st31{fill:url(#SVGID_00000088816049406825768360000015920872521026626698_);}
	.st32{fill:url(#SVGID_00000015356241449721852140000011155432992081161868_);}
	.st33{fill:url(#SVGID_00000009572575614623396700000012782359863479038851_);}
	.st34{fill:url(#SVGID_00000049187233787603703800000000081221411247081653_);}
	.st35{fill:url(#SVGID_00000017508045460621853890000010736971943932176259_);}
	.st36{fill:url(#SVGID_00000072997817625841696600000006197838190614903172_);}
	.st37{fill:url(#SVGID_00000020369172459314423840000010648078874303694271_);}
	.st38{fill:url(#SVGID_00000031186256800106303280000007451755557782744494_);}
	.st39{fill:url(#SVGID_00000173860265101996632240000005729606449064346267_);}
	.st40{fill:url(#SVGID_00000154399460273920992890000006550934292894917022_);}
	.st41{fill:url(#SVGID_00000160157396064052634200000017870211314420712579_);}
	.st42{fill:url(#SVGID_00000080178538897052252040000009791225762049311163_);}
	.st43{fill:url(#SVGID_00000128444723593690790350000012159886716649962655_);}
	.st44{fill:url(#SVGID_00000063614656943382017770000002400359540063058361_);}
	.st45{fill:url(#SVGID_00000041278989017008715070000012012870421754629004_);}
	.st46{fill:url(#SVGID_00000102519020988732476390000015633761845540803748_);}
	.st47{fill:url(#SVGID_00000129922864965182655870000010665095470215199927_);}
	.st48{fill:url(#SVGID_00000067943627350883043240000007523773942135323297_);}
	.st49{fill:url(#SVGID_00000132784019693458933340000006642036919769729456_);}
	.st50{fill:url(#SVGID_00000078045176640809460390000013702836517124067507_);}
	.st51{fill:url(#SVGID_00000143608718864316512050000012127487893211981223_);}
	.st52{fill:url(#SVGID_00000133493826151442394330000007280758848425870227_);}
	.st53{fill:url(#SVGID_00000026132439461650979930000011245872033681729925_);}
	.st54{fill:#6AC1D5;}
	.st55{fill:#73BAB2;}
	.st56{fill:url(#SVGID_00000064340511634659318300000004901468904382957982_);}
	.st57{fill:url(#SVGID_00000096776956475363009940000003899633070486393501_);}
	.st58{fill:url(#SVGID_00000138553763316907416000000009586292796976323227_);}
	.st59{fill:url(#SVGID_00000051385165135656044910000016367339533597507991_);}
	.st60{fill:url(#SVGID_00000124866450263093474470000014084480613800574884_);}
	.st61{fill:url(#SVGID_00000004523257421912243640000001985794249058666884_);}
	.st62{fill:url(#SVGID_00000160169348314728882030000002206093104761321633_);}
	.st63{fill:url(#SVGID_00000046321195435931656100000003148151470297123971_);}
	.st64{fill:url(#SVGID_00000011734092874011868740000002011453627481284238_);}
	.st65{fill:url(#SVGID_00000142862927390858061690000000090514923248223873_);}
	.st66{fill:url(#SVGID_00000138532902803151988190000009685982773703433917_);}
	.st67{fill:url(#SVGID_00000103258753495388942640000011201739504400500900_);}
	.st68{fill:url(#SVGID_00000072275136968515944020000009931500783308478895_);}
	.st69{fill:url(#SVGID_00000049195264275107207870000013987748418485701516_);}
	.st70{fill:url(#SVGID_00000091010399816636925210000014200984084143848880_);}
	.st71{fill:url(#SVGID_00000014598232792632842560000017042507614959255944_);}
	.st72{fill:url(#SVGID_00000047041802141614587610000005472222326808130229_);}
	.st73{fill:url(#SVGID_00000025405589580539011780000015438451817771279022_);}
	.st74{fill:url(#SVGID_00000047766018538283313430000005681115897147149201_);}
	.st75{fill:url(#SVGID_00000008150426694904602230000006594621396496501690_);}
	.st76{fill:url(#SVGID_00000105391265379871625090000002014768587465632673_);}
	.st77{fill:url(#SVGID_00000157284379261101322050000004785650274239278467_);}
	.st78{fill:url(#SVGID_00000021806635752709429410000008554064493452506792_);}
	.st79{fill:url(#SVGID_00000052094944963433862760000007337250077733802174_);}
	.st80{fill:url(#SVGID_00000183249207354391122120000014935861707226920087_);}
	.st81{fill:url(#SVGID_00000104684190856587178410000001999106757173117829_);}
	.st82{fill:url(#SVGID_00000003810628483035955550000000026200176274791816_);}
	.st83{fill:url(#SVGID_00000113340216021099825630000005348941398180091545_);}
	.st84{fill:url(#SVGID_00000067233258376053825750000005267967497192786855_);}
	.st85{fill:url(#SVGID_00000044870225589336595220000018108038024024085408_);}
	.st86{fill:url(#SVGID_00000147197607066615903980000008383133931651750287_);}
	.st87{fill:url(#SVGID_00000010990597050400410230000002263037353054912644_);}
	.st88{fill:url(#SVGID_00000094614496462884852070000001061677820429248395_);}
	.st89{fill:url(#SVGID_00000089548461492946742310000015532615283872553884_);}
	.st90{fill:#004F54;}
	.st91{fill-rule:evenodd;clip-rule:evenodd;fill:#065055;}
</style>
<metadata>
	<sfw  xmlns="&ns_sfw;">
		<slices></slices>
		<sliceSourceBounds  bottomLeftOrigin="true" height="536.8" width="2527.3" x="0.4" y="-381.9"></sliceSourceBounds>
	</sfw>
</metadata>
<g>
	<rect x="0.5" y="21.1" class="st91" width="199" height="0.2"/>
	<polygon class="st91" points="23.3,0.8 17.2,0.8 17.2,0.8 17.2,10 17.2,10.1 17.2,10.1 23.6,10.1 23.6,10.1 23.6,8.4 23.6,8.4 
		18.9,8.4 18.9,6.4 22,6.4 22,6.3 22,4.7 22,4.7 18.9,4.7 18.9,2.5 23.3,2.5 23.3,2.5 23.3,0.8 	"/>
	<polygon class="st91" points="28.4,0.8 26.2,0.8 26.2,0.8 26.2,0.8 29.5,5.5 26.1,10 26.1,10 26.1,10.1 28.2,10.1 28.2,10.1 
		30.7,6.9 32.8,6.9 31.7,5.4 32.7,4 30.6,4 28.4,0.8 	"/>
	<polygon class="st91" points="32.8,6.9 30.7,6.9 32.8,10.1 32.9,10.1 35,10.1 35.1,10 35,10 	"/>
	<polygon class="st91" points="35.2,0.8 33.2,0.8 33.2,0.8 30.6,4 32.7,4 35.1,0.8 35.2,0.8 	"/>
	<polygon class="st91" points="42,0.8 38.2,0.8 38.2,0.8 38.2,10.1 38.2,10.1 40,10.1 40,10.1 40,6.7 42.3,6.6 43,6.5 43.6,6.2 
		44.2,5.6 44.5,5.1 40,5.1 40,2.4 44.5,2.4 44.3,1.9 43.7,1.3 42.9,0.9 	"/>
	<polygon class="st91" points="44.5,2.4 41.6,2.4 42.3,2.5 42.8,2.8 43.2,3.2 43.3,3.8 43.2,4.3 42.8,4.7 42.3,5 41.7,5.1 44.5,5.1 
		44.7,4.8 44.8,3.6 44.7,2.7 	"/>
	<polygon class="st91" points="52.2,0.6 51.3,0.7 50.4,0.9 49.6,1.3 48.8,1.9 48.2,2.6 47.7,3.4 47.4,4.4 47.3,5.4 47.4,6.3 
		47.7,7.2 48.1,8 48.7,8.7 49.4,9.3 50.2,9.8 51.2,10.1 52.2,10.2 53.2,10.1 54.1,9.9 54.9,9.4 55.6,8.9 55.8,8.6 52.2,8.6 
		51.2,8.5 50.4,8 49.8,7.3 49.4,6.4 49.2,5.4 49.4,4.4 49.7,3.5 50.3,2.8 51.2,2.4 52.2,2.2 55.8,2.2 55.6,2 54.9,1.4 54.1,1 
		53.2,0.7 	"/>
	<polygon class="st91" points="55.8,2.2 52.2,2.2 53.2,2.4 54,2.8 54.6,3.5 55.1,4.4 55.2,5.4 55.1,6.5 54.7,7.3 54.1,8 53.3,8.5 
		52.2,8.6 55.8,8.6 56.2,8.2 56.7,7.3 57,6.4 57.1,5.4 57,4.5 56.7,3.5 56.2,2.7 	"/>
	<polygon class="st91" points="69.2,0.6 68.3,0.7 67.5,1 66.7,1.4 66,2 65.4,2.7 65,3.5 64.7,4.5 64.6,5.6 64.7,6.5 65,7.3 
		65.4,8.1 65.9,8.8 66.5,9.4 67.3,9.8 68.2,10.1 69.1,10.2 69.9,10.1 70.7,10 71.3,9.6 71.7,9.2 71.7,10.1 71.7,10.1 73.3,10.1 
		73.3,10.1 73.3,5.2 73.3,5.2 69.4,5.2 69.4,5.2 69.4,6.7 69.4,6.7 71.7,6.7 71.7,7 71.5,7.7 71,8.2 70.3,8.5 69.3,8.6 68.3,8.4 
		67.5,8 67,7.3 66.7,6.4 66.5,5.4 66.7,4.3 67,3.4 67.6,2.8 68.4,2.4 69.3,2.2 70.2,2.4 70.8,2.8 71.2,3.3 71.4,3.9 71.4,3.9 
		71.5,3.9 72.9,3.4 73,3.4 73,3.4 72.7,2.5 72.1,1.7 71.4,1.1 70.4,0.7 	"/>
	<polygon class="st91" points="81,0.6 80,0.7 79.1,0.9 78.3,1.3 77.6,1.9 77,2.6 76.5,3.4 76.2,4.4 76.1,5.4 76.2,6.3 76.4,7.2 
		76.9,8 77.4,8.7 78.2,9.3 79,9.8 79.9,10.1 81,10.2 81.9,10.1 82.8,9.9 83.7,9.4 84.4,8.9 84.6,8.6 81,8.6 80,8.5 79.1,8 78.5,7.3 
		78.1,6.4 78,5.4 78.1,4.4 78.5,3.5 79.1,2.8 79.9,2.4 81,2.2 84.6,2.2 84.4,2 83.6,1.4 82.8,1 81.9,0.7 	"/>
	<polygon class="st91" points="84.6,2.2 81,2.2 81.9,2.4 82.7,2.8 83.4,3.5 83.8,4.4 84,5.4 83.8,6.5 83.5,7.3 82.8,8 82,8.5 
		81,8.6 84.6,8.6 85,8.2 85.4,7.3 85.7,6.4 85.8,5.4 85.7,4.5 85.4,3.5 85,2.7 	"/>
	<polygon class="st91" points="95.5,8.4 95.5,8.4 95.5,8.4 90.8,8.4 90.8,0.8 90.8,0.8 90.8,0.8 89,0.8 89,0.8 89,0.8 89,8.4 
		89,8.4 89,10 89,10 95.5,10 95.5,10 	"/>
	<polygon class="st91" points="105.1,0.8 99,0.8 99,0.8 99,10 99,10.1 99,10.1 100.7,10.1 100.8,10.1 100.8,6.6 103.5,6.5 
		103.5,6.5 103.5,4.9 103.5,4.9 100.8,4.8 100.8,2.5 105.1,2.5 105.1,2.5 105.1,0.8 	"/>
	<polygon class="st91" points="121.3,0.8 119.5,0.8 119.4,0.8 117,7.1 114.7,0.8 114.7,0.8 114.6,0.8 112.7,0.8 112.7,0.8 116.2,10 
		116.3,10.1 117.5,10.1 117.5,10 121.3,0.8 	"/>
	<polygon class="st91" points="126.3,0.8 126.3,0.8 126.3,0.8 124.6,0.8 124.6,0.8 124.6,0.8 124.6,10 124.6,10 126.3,10 126.3,10 	
		"/>
	<polygon class="st91" points="137,8.4 137,8.4 137,8.4 132.3,8.4 132.3,0.8 132.3,0.8 132.3,0.8 130.5,0.8 130.5,0.8 130.5,0.8 
		130.5,8.4 130.5,8.4 130.5,10 130.5,10 137,10 137,10 	"/>
	<polygon class="st91" points="146.9,8.4 146.9,8.4 146.9,8.4 142.2,8.4 142.2,0.8 142.2,0.8 142.2,0.8 140.4,0.8 140.4,0.8 
		140.4,0.8 140.4,8.4 140.4,8.4 140.4,10 140.4,10 146.9,10 146.9,10 	"/>
	<polygon class="st91" points="154.6,0.8 153.2,0.8 153.2,0.8 149.2,10 149.2,10 149.2,10.1 151.1,10.1 151.1,10.1 151.1,10 
		152.2,7.5 157.3,7.5 156.7,6 152.8,6 153.9,3.3 155.6,3.3 154.6,0.8 	"/>
	<polygon class="st91" points="157.3,7.5 155.4,7.5 156.4,10 156.4,10.1 158.3,10.1 158.3,10 158.3,10 	"/>
	<polygon class="st91" points="155.6,3.3 153.9,3.3 154.9,6 156.7,6 	"/>
	<polygon class="st91" points="163.6,0.6 162.5,0.8 161.7,1.3 161.1,2.1 160.9,3.1 161.1,4.2 161.6,5 162.5,5.6 163.6,6.1 
		164.3,6.4 164.7,6.8 165,7.2 165.1,7.6 165,8 164.8,8.3 164.4,8.5 163.9,8.6 163.3,8.5 162.7,8.3 162.1,7.9 161.7,7.4 161.6,7.4 
		161.6,7.4 160.4,8.3 160.4,8.3 160.4,8.4 160.9,9 161.6,9.6 162.5,10.1 163.6,10.2 164.8,10.1 165.7,9.7 166.3,9 166.6,8.3 
		166.7,7.4 166.6,6.4 166.1,5.6 165.3,5 164.2,4.5 163.5,4.2 163,4 162.7,3.6 162.6,3.3 162.7,2.8 162.9,2.5 163.2,2.3 163.6,2.2 
		164.2,2.3 164.6,2.5 165.1,2.8 165.5,3.2 165.5,3.2 166.6,2.2 166.6,2.2 166.1,1.6 165.5,1.1 164.6,0.7 	"/>
	<polygon class="st91" points="60.3,32.2 55.3,32.2 55.3,32.7 55.3,35.3 55.3,35.8 55.3,39.1 55.3,39.6 60.3,39.6 60.3,39.1 
		56.5,39.1 56.5,35.8 59.1,35.8 59.1,35.3 56.5,35.3 56.5,32.7 60.3,32.7 	"/>
	<polygon class="st91" points="71.1,32.2 69.9,32.2 67.1,37.9 67.1,37.9 64.2,32.2 63,32.2 63,39.6 63.5,39.6 63.5,33.6 63.6,33.6 
		66.6,39.6 66.9,39.6 69.9,33.6 69.9,33.6 69.9,39.6 71.1,39.6 	"/>
	<polygon class="st91" points="77.2,32.1 76.9,32.1 73.4,39.6 74,39.6 75.2,37.1 79.5,37.1 79.3,36.7 75.4,36.7 76.7,33.8 78,33.8 	
		"/>
	<polygon class="st91" points="79.5,37.1 78.3,37.1 79.4,39.6 80.7,39.6 	"/>
	<polygon class="st91" points="78,33.8 76.7,33.8 78.1,36.7 79.3,36.7 	"/>
	<polygon class="st91" points="85.8,32.1 85.5,32.1 82,39.6 82.6,39.6 83.8,37.1 88.1,37.1 87.9,36.7 84,36.7 85.3,33.8 86.6,33.8 	
		"/>
	<polygon class="st91" points="88.1,37.1 86.9,37.1 88,39.6 89.2,39.6 	"/>
	<polygon class="st91" points="86.6,33.8 85.3,33.8 86.7,36.7 87.9,36.7 	"/>
	<polygon class="st91" points="94,32.2 91.5,32.2 91.5,39.6 92.7,39.6 92.7,36.1 94.9,36.1 94.9,36 95.1,36 95.2,35.9 95.4,35.8 
		95.6,35.7 92.7,35.7 92.7,32.7 95.9,32.7 95.8,32.7 94.9,32.3 94.3,32.2 	"/>
	<polygon class="st91" points="94.9,36.1 93.6,36.1 96.1,39.6 97.5,39.6 	"/>
	<polygon class="st91" points="95.9,32.7 93.8,32.7 93.9,32.7 94.1,32.7 94.9,33.1 95.3,33.9 95.3,34.2 95.3,34.4 95,35.1 
		94.3,35.6 93.4,35.7 95.6,35.7 96.3,35.2 96.6,34.5 96.7,34.1 96.6,33.9 96.3,33.1 96,32.8 	"/>
	<polygon class="st91" points="106,32.1 105.2,32.1 104.4,32.5 103.8,33.2 103.6,34 103.6,34.2 104,35.1 104.7,35.7 106.3,36.6 
		106.5,36.7 107.2,37.3 107.6,38.1 107.6,38.3 107,39.1 106.1,39.3 106,39.3 105.2,39 104.5,38.5 104.1,37.7 103.5,38 103.8,38.8 
		104.6,39.4 105.3,39.7 106.1,39.7 106.4,39.7 107.2,39.6 108,39.1 108.5,38.5 108.7,37.6 108.7,37.4 108.3,36.6 107.6,36 105.9,35 
		105.7,34.9 104.9,34.4 104.6,33.6 104.6,33.5 105,32.8 105.8,32.5 105.9,32.5 106.1,32.5 106.9,32.8 107.6,33.4 107.9,34 
		108.5,33.8 108.1,33 107.3,32.3 106.5,32.1 	"/>
	<polygon class="st91" points="115.1,32.1 114.2,32.1 113.5,32.3 112.6,32.8 111.8,33.5 111.3,34.4 111.1,35.3 111,35.9 111,36.1 
		111.2,37.1 111.7,38 112.4,38.8 113.2,39.3 114.2,39.7 115.1,39.8 115.3,39.7 116.1,39.6 116.8,39.4 115.1,39.4 114.7,39.4 
		113.9,39.1 113.3,38.6 112.8,37.9 112.6,36.9 112.5,35.9 112.5,35.5 112.6,34.5 113,33.6 113.5,33 114.2,32.6 115.1,32.4 
		116.8,32.4 116.6,32.3 115.9,32.1 115.3,32.1 	"/>
	<polygon class="st91" points="116.8,32.4 115.1,32.4 115.4,32.4 115.6,32.5 116.4,32.8 117,33.4 117.4,34.2 117.6,35.1 117.6,35.9 
		117.6,36.2 117.5,37.3 117.1,38.1 116.6,38.8 115.9,39.2 115.1,39.4 116.8,39.4 117.5,38.9 118.3,38.2 118.8,37.4 119.1,36.4 
		119.1,35.9 119.1,35.6 118.9,34.6 118.4,33.7 117.7,33 116.9,32.4 	"/>
	<polygon class="st91" points="128.1,32.2 127.5,32.2 127.5,37 127.5,37.2 127.3,38.1 126.8,38.8 126,39.2 125.3,39.3 125,39.3 
		124.1,39 123.5,38.4 123.1,37.7 123,37 123,32.2 121.8,32.2 121.8,37 121.8,37.3 122,38 122.4,38.7 123,39.3 123.8,39.6 
		124.9,39.8 125.3,39.7 126.3,39.5 127.1,39.1 127.6,38.5 128,37.5 128.1,37 	"/>
	<polygon class="st91" points="136.9,32.2 130.4,32.2 130.4,32.7 133,32.7 133,39.6 134.2,39.6 134.2,32.7 136.9,32.7 	"/>
	<rect x="139.3" y="36.1" class="st91" width="1.2" height="3.5"/>
	<polygon class="st91" points="145.4,32.2 144.2,32.2 144.2,35.6 140.5,35.6 140.5,32.2 139.3,32.2 139.3,35.6 139.3,36.1 
		144.2,36.1 144.2,39.6 145.4,39.6 145.4,36.1 145.4,35.6 	"/>
	<polygon class="st91" points="179,1 178.1,1 177.3,1.3 176.6,1.8 176.1,2.4 175.7,3.1 175.4,3.9 175.2,4.8 175.1,5.7 175.1,6 
		175.1,6.2 175.2,7 175.4,8 175.7,8.7 176.4,9.5 177.3,10 178.3,10.2 178.7,10.2 179,10.2 180,10 180.8,9.5 181.5,8.9 181.5,8.8 
		178.7,8.8 178.3,8.8 177.3,8.4 176.8,7.6 176.8,7.2 176.8,7.1 177.2,6.2 177.9,5.8 178.6,5.6 181.6,5.6 181.5,5.5 181.3,5.2 
		181.3,5.2 176.8,5.2 176.8,4.9 176.9,4.1 177.4,3.2 178,2.6 178.9,2.4 181.4,2.4 181.7,1.9 180.8,1.4 179.8,1 179.4,1 	"/>
	<polygon class="st91" points="181.6,5.6 178.6,5.6 179,5.7 179.4,5.7 180.2,6.3 180.5,7.2 180.4,7.5 180,8.4 179.1,8.8 178.7,8.8 
		181.5,8.8 181.9,8.1 182,7.1 182,6.8 182,6.5 181.9,6.2 181.8,5.9 181.6,5.7 	"/>
	<polygon class="st91" points="178.9,4.3 178,4.4 177.2,4.8 176.8,5.2 181.3,5.2 180.6,4.7 179.8,4.4 	"/>
	<polygon class="st91" points="181.4,2.4 178.9,2.4 179.2,2.4 179.5,2.4 180.4,2.8 180.8,3.1 	"/>
</g>
</svg>
