<?xml version="1.0" encoding="utf-8"?>
<!-- Generator: Adobe Illustrator 26.0.1, SVG Export Plug-In . SVG Version: 6.00 Build 0)  -->
<!DOCTYPE svg PUBLIC "-//W3C//DTD SVG 1.1//EN" "http://www.w3.org/Graphics/SVG/1.1/DTD/svg11.dtd" [
	<!ENTITY ns_extend "http://ns.adobe.com/Extensibility/1.0/">
	<!ENTITY ns_ai "http://ns.adobe.com/AdobeIllustrator/10.0/">
	<!ENTITY ns_graphs "http://ns.adobe.com/Graphs/1.0/">
	<!ENTITY ns_vars "http://ns.adobe.com/Variables/1.0/">
	<!ENTITY ns_imrep "http://ns.adobe.com/ImageReplacement/1.0/">
	<!ENTITY ns_sfw "http://ns.adobe.com/SaveForWeb/1.0/">
	<!ENTITY ns_custom "http://ns.adobe.com/GenericCustomNamespace/1.0/">
	<!ENTITY ns_adobe_xpath "http://ns.adobe.com/XPath/1.0/">
]>
<svg version="1.1" id="Layer_1" xmlns:x="&ns_extend;" xmlns:i="&ns_ai;" xmlns:graph="&ns_graphs;"
	 xmlns="http://www.w3.org/2000/svg" xmlns:xlink="http://www.w3.org/1999/xlink" x="0px" y="0px" viewBox="0 0 200 70"
	 style="enable-background:new 0 0 200 70;" xml:space="preserve">
<style type="text/css">
	.st0{fill:#080505;}
	.st1{fill:#F8AF41;}
	.st2{fill:#376278;}
	.st3{fill:#FFC663;}
	.st4{fill:#F6CE76;}
	.st5{fill:#0D98BB;}
	.st6{fill:#70B599;}
	.st7{fill:#EAE3AC;}
	.st8{fill:#91060D;}
	.st9{fill:#2D628C;}
	.st10{fill:#012944;}
	.st11{fill:#043754;}
	.st12{fill:#1D324D;}
	.st13{fill:#8C7449;}
	.st14{fill:#003756;}
	.st15{fill:#53B2D3;}
	.st16{fill:#082042;}
	.st17{fill:#055985;}
	.st18{fill:#A08C6A;}
	.st19{clip-path:url(#SVGID_00000170991037518109679820000016175489643839459241_);}
	.st20{filter:url(#Adobe_OpacityMaskFilter);}
	.st21{opacity:0.9;mask:url(#SVGID_00000139269726344955561730000001922335719621440401_);fill:#FFFFFF;}
	.st22{filter:url(#Adobe_OpacityMaskFilter_00000016050555297665146830000010330596059372615813_);}
	.st23{opacity:0.75;mask:url(#SVGID_00000147917596176311232850000004117421722685285256_);}
	.st24{filter:url(#Adobe_OpacityMaskFilter_00000041989332145319795830000007913630127298426809_);}
	.st25{mask:url(#SVGID_00000122714984914925842540000002824237335108703138_);fill:#FFFFFF;}
	.st26{filter:url(#Adobe_OpacityMaskFilter_00000041998469279357538880000018383494321853504699_);}
	.st27{opacity:0.75;mask:url(#SVGID_00000170259718401911503050000012055644761477127835_);}
	.st28{fill:none;stroke:#000000;stroke-width:1.2;}
	.st29{clip-path:url(#SVGID_00000110446574636536166370000001160881382506096567_);}
	.st30{fill:#1E2731;}
	.st31{fill:#777779;}
	
		.st32{clip-path:url(#SVGID_00000062872349829318867730000018197843774711734693_);fill:url(#SVGID_00000019670185588471125900000011008604582965582730_);}
</style>
<metadata>
	<sfw  xmlns="&ns_sfw;">
		<slices></slices>
		<sliceSourceBounds  bottomLeftOrigin="true" height="515.4" width="2527.2" x="1.1" y="-405.1"></sliceSourceBounds>
	</sfw>
</metadata>
<g>
	<rect x="0.4" y="45.7" class="st16" width="199.1" height="0.4"/>
	<path class="st16" d="M174.5,33v-5.5h6.4V33h2V21.2h-2v4.5h-6.4v-4.5h-2V33H174.5z M165.8,29.6c-1,1.1-2.6,2-4.4,2
		c-2.6,0-4.4-2-4.4-4.4c0-2.4,1.7-4.5,4.3-4.5c1.4,0,3.1,0.6,4.1,1.6l1.4-1.4c-1.3-1.2-3.4-2.1-5.5-2.1c-3.8,0-6.4,2.8-6.4,6.2
		c0,3.5,2.6,6.3,6.4,6.3c2.6,0,4.6-1.2,5.8-2.5L165.8,29.6z M144.6,23.6h0.1l2,4.6h-4.2L144.6,23.6z M138.4,33h2.1l1.4-3.2h5.6
		l1.4,3.2h2.2l-5.5-11.8h-1.8L138.4,33z M130.3,25.9h-4.5V23h7.5v-1.8h-9.6V33h10v-1.8h-8v-3.4h4.5V25.9z M113.2,23
		c0.6,0,1,0.1,1.3,0.5c0.3,0.3,0.4,0.6,0.4,1c0,0.4-0.2,0.9-0.5,1.2c-0.3,0.3-0.8,0.4-1.2,0.4h-4.9V23H113.2z M113.6,27.7
		c0.6,0,1.1,0.3,1.5,0.6c0.3,0.3,0.5,0.7,0.5,1.1c0,0.4-0.2,0.9-0.5,1.2c-0.4,0.4-0.9,0.5-1.5,0.5h-5.3v-3.5H113.6z M113.6,33
		c1.7,0,2.5-0.5,3.1-1c0.8-0.8,1.1-1.6,1.1-2.5c0-1.4-0.8-2.7-2.1-3c0.8-0.3,1.5-1.3,1.5-2.4c0-0.7-0.3-1.4-0.8-1.9
		c-0.6-0.6-1.5-1-2.8-1h-7.1V33H113.6z M84.6,21.2h-2V33h2v-3.7l2.4-2.2l4.7,5.9h2.6l-5.9-7.3l4.8-4.5h-2.5L84.6,27V21.2z
		 M73.6,25.9H69V23h7.5v-1.8H67V33h10v-1.8h-8v-3.4h4.5V25.9z M58,25.9h-4.5V23H61v-1.8h-9.6V33h10v-1.8h-8v-3.4H58V25.9z M41,23
		c0.6,0,1.3,0.1,1.8,0.6c0.3,0.3,0.5,0.7,0.5,1.2c0,1-0.9,1.8-2,1.8h-4.8V23H41z M36.6,33v-4.5h4.2l2.5,4.5h2.3l-2.8-4.8
		c1.6-0.6,2.6-1.8,2.6-3.4c0-0.9-0.3-1.7-0.9-2.4c-0.8-0.8-1.8-1.2-3.4-1.2h-6.5V33H36.6z M27.8,29.6c-1,1.1-2.6,2-4.4,2
		c-2.6,0-4.4-2-4.4-4.4c0-2.4,1.7-4.5,4.3-4.5c1.4,0,3.1,0.6,4.1,1.6l1.4-1.4c-1.3-1.2-3.4-2.1-5.5-2.1c-3.8,0-6.4,2.8-6.4,6.2
		c0,3.5,2.6,6.3,6.4,6.3c2.6,0,4.6-1.2,5.8-2.5L27.8,29.6z"/>
	<path class="st16" d="M87.4,62c-0.4-0.2-0.7-0.4-1-0.6c-0.6-0.4-0.9-0.9-0.9-1.4c0-0.6,0.6-1.1,1.5-1.1c0.5,0,1.1,0.2,1.5,0.4
		c0.3,0.2,0.6,0.6,0.7,1.1l0.3,1v-2.4l-0.2,0.1c-0.1,0-0.1,0-0.2,0c-0.2,0-0.3-0.1-0.4-0.1c-0.1-0.1-0.3-0.2-0.5-0.3
		c-0.4-0.1-0.7-0.2-1.1-0.2c-1.2,0-2.5,0.7-2.5,2c0,1.3,1.2,2,2.3,2.5c0.3,0.2,0.6,0.3,0.9,0.5c0.4,0.3,1,0.8,1,1.5
		c0,0.8-0.7,1.4-1.7,1.4c-0.9,0-2.2-0.5-2.7-1.7l-0.3-0.7v2.2l0.2-0.1c0,0,0.1,0,0.3,0c0.2,0,0.3,0.1,0.5,0.2l0.1,0
		c0.4,0.2,1,0.5,1.8,0.5c1.8,0,2.9-0.8,2.9-2.2C89.9,63.3,88.6,62.6,87.4,62"/>
	<path class="st16" d="M98,59c0.2,0.4,0.4,0.8,0.4,1.2v3.6c0,0.8-0.3,1.5-0.8,2c-0.5,0.5-1.2,0.8-2,0.8h0c0,0-0.7,0-1.3-0.6
		c-0.5-0.5-0.8-1.4-0.8-2.5v-4.7h-1.7L92,59c0,0,0.2,0.2,0.2,0.6v4c0,2.1,1.3,3.3,3.4,3.3c0.8,0,1.6-0.3,2.2-0.9
		c0.6-0.6,0.9-1.4,0.9-2.2v-3.6c0-0.5,0.2-0.9,0.4-1.2l0.1-0.2h-1.4L98,59z"/>
	<path class="st16" d="M104.4,62.9h-1.6v-3.8h1.6c0.9,0,1.4,0.7,1.4,1.9C105.8,62.2,105.3,62.9,104.4,62.9 M107.3,61
		c0-0.4-0.1-1-0.6-1.5c-0.5-0.5-1.2-0.7-2.2-0.7l-3.4,0l0.1,0.2c0,0,0.2,0.3,0.2,0.6v6.2c0,0.3-0.2,0.6-0.2,0.6l-0.1,0.2h2l-0.1-0.2
		c0,0-0.2-0.3-0.2-0.6v-2.6h1c0.3,0,0.4,0.2,0.6,0.4l1.9,3l0,0.1h1.6l-2.2-3.5C106.6,62.9,107.3,62,107.3,61"/>
	<path class="st16" d="M110,58.8l0.1,0.2c0,0,0.2,0.3,0.2,0.6v6.2c0,0,0,0,0,0h0c0,0.1,0,0.2,0,0.2c0,0.2-0.1,0.4-0.1,0.4l-0.1,0.2
		h0l0,0h2l-0.1-0.2c0,0-0.2-0.2-0.2-0.6v-3.1h1.4c0.4,0,0.7,0.2,1,0.3l0.2,0.1V62l-0.2,0.1c-0.3,0.2-0.6,0.3-1,0.3h-1.4v-3.3h1.9
		c1.5,0,1.9,0.9,1.9,0.9l0.3,0.6v-1.8L110,58.8z"/>
</g>
</svg>
