<?xml version="1.0" encoding="utf-8"?>
<!-- Generator: Adobe Illustrator 26.0.1, SVG Export Plug-In . SVG Version: 6.00 Build 0)  -->
<!DOCTYPE svg PUBLIC "-//W3C//DTD SVG 1.1//EN" "http://www.w3.org/Graphics/SVG/1.1/DTD/svg11.dtd" [
	<!ENTITY ns_extend "http://ns.adobe.com/Extensibility/1.0/">
	<!ENTITY ns_ai "http://ns.adobe.com/AdobeIllustrator/10.0/">
	<!ENTITY ns_graphs "http://ns.adobe.com/Graphs/1.0/">
	<!ENTITY ns_vars "http://ns.adobe.com/Variables/1.0/">
	<!ENTITY ns_imrep "http://ns.adobe.com/ImageReplacement/1.0/">
	<!ENTITY ns_sfw "http://ns.adobe.com/SaveForWeb/1.0/">
	<!ENTITY ns_custom "http://ns.adobe.com/GenericCustomNamespace/1.0/">
	<!ENTITY ns_adobe_xpath "http://ns.adobe.com/XPath/1.0/">
]>
<svg version="1.1" id="Layer_1" xmlns:x="&ns_extend;" xmlns:i="&ns_ai;" xmlns:graph="&ns_graphs;"
	 xmlns="http://www.w3.org/2000/svg" xmlns:xlink="http://www.w3.org/1999/xlink" x="0px" y="0px" viewBox="0 0 200 106.8"
	 style="enable-background:new 0 0 200 106.8;" xml:space="preserve">
<style type="text/css">
	.st0{fill:#808184;}
	.st1{clip-path:url(#SVGID_00000080181532536122088070000014369316576474906542_);}
	.st2{fill:#AC9C63;}
	.st3{fill:#038295;}
	
		.st4{clip-path:url(#SVGID_00000159439517573555536670000015299535282977995424_);fill:url(#SVGID_00000009555550338703758760000009074505815031456681_);}
	
		.st5{clip-path:url(#SVGID_00000148635536562558444830000011664843002937938858_);fill:url(#SVGID_00000124142144073079673600000011434754593941161354_);}
	
		.st6{clip-path:url(#SVGID_00000010288890085544025910000018172161393553792135_);fill:url(#SVGID_00000181805751359138825740000012304358822395110821_);}
	.st7{fill:url(#SVGID_00000119117569030584845480000002099598697048713654_);}
	.st8{fill:url(#SVGID_00000116195247752821656780000007091623934178813858_);}
	.st9{fill:url(#SVGID_00000016072559402438926340000007065876054669724074_);}
	.st10{fill:url(#SVGID_00000151503483095149588830000010097074358292098749_);}
	.st11{fill:url(#SVGID_00000070113782919714348810000011919301177583430333_);}
	.st12{fill:url(#SVGID_00000137092755257592414920000008238160395964906626_);}
	.st13{fill:url(#SVGID_00000018918103517094848110000015914705480120250505_);}
	.st14{fill:url(#SVGID_00000088090471134035905900000010146486870760544177_);}
	.st15{fill:url(#SVGID_00000164508256717584556100000015289532349077505668_);}
	.st16{fill:url(#SVGID_00000119832879069119054710000007622557914591176630_);}
	.st17{fill:url(#SVGID_00000138539060122108499560000002940633649675807422_);}
	.st18{fill:url(#SVGID_00000075155047403481384920000009351421518754687898_);}
	.st19{fill:url(#SVGID_00000064339985624115555180000017573748040824339122_);}
	.st20{fill:url(#SVGID_00000150068478982459129070000004280219208221631915_);}
	.st21{fill:url(#SVGID_00000026855182660667655240000010476058107682846631_);}
	.st22{fill:url(#SVGID_00000092441187276549064410000000543694017977841052_);}
	.st23{fill:url(#SVGID_00000080917536447207127130000005431643070238510977_);}
	.st24{fill:url(#SVGID_00000021117745936246861260000015841005234669318333_);}
	.st25{fill:url(#SVGID_00000172426626238703849530000015066891995059359156_);}
	.st26{fill:url(#SVGID_00000049938790467837121850000016618942832542708913_);}
	.st27{fill:url(#SVGID_00000111154566574157831600000007059274462089877683_);}
	.st28{fill:url(#SVGID_00000118356255313571568980000000231587839107818154_);}
	.st29{fill:url(#SVGID_00000000910986889814892350000014493999875920692893_);}
	.st30{fill:url(#SVGID_00000141455083847784116980000009514628587754853793_);}
	.st31{fill:url(#SVGID_00000082351754166431404060000006713964962297755528_);}
	.st32{fill:url(#SVGID_00000009581630495867797100000016266098964879798970_);}
	.st33{fill:url(#SVGID_00000062888815569003540930000002136310549669135498_);}
	.st34{fill:url(#SVGID_00000157267746107898927190000006382513899067529389_);}
	.st35{fill:url(#SVGID_00000052066552987775201440000000240115888829730481_);}
	.st36{fill:url(#SVGID_00000058591753294069389970000003064143025485776557_);}
	.st37{fill:url(#SVGID_00000136371112275551402620000012942506118890606002_);}
	.st38{fill:url(#SVGID_00000064347924925437628530000014205559286545592991_);}
	.st39{fill:url(#SVGID_00000041275328989331421070000018274297219315407778_);}
	.st40{fill:url(#SVGID_00000098186542513691267970000003869454574151259276_);}
	.st41{fill:url(#SVGID_00000165913650837030686920000010587550091670246587_);}
	.st42{fill:url(#SVGID_00000072999192822926978480000007985127282158903949_);}
	.st43{fill:url(#SVGID_00000135688756438534219150000015329943324086477210_);}
	.st44{fill:url(#SVGID_00000085240122675272254550000017492494238553397668_);}
	.st45{fill:url(#SVGID_00000001632876157434389070000008459532764645600928_);}
	.st46{fill:url(#SVGID_00000132060342445103174300000011590335277117262518_);}
	.st47{fill:url(#SVGID_00000090269348588925804120000007780864407998832528_);}
	.st48{fill:url(#SVGID_00000067916548412830569830000001989724330395219863_);}
	.st49{fill:url(#SVGID_00000070108380287453412350000010614312749067598007_);}
	.st50{fill:url(#SVGID_00000176009770976373716950000016894685223681654718_);}
	.st51{fill:url(#SVGID_00000108299284383548553380000010824359034093703614_);}
	.st52{fill:url(#SVGID_00000025420802998079292090000000870537691292906148_);}
	.st53{fill:url(#SVGID_00000141451477779266706270000013531433737785285041_);}
	.st54{fill:#6AC1D5;}
	.st55{fill:#73BAB2;}
</style>
<metadata>
	<sfw  xmlns="&ns_sfw;">
		<slices></slices>
		<sliceSourceBounds  bottomLeftOrigin="true" height="343" width="2527.3" x="0.4" y="-188.2"></sliceSourceBounds>
	</sfw>
</metadata>
<g>
	<polygon class="st55" points="78.7,97.6 81.1,97.6 84.5,103.2 84.6,103.2 84.6,97.6 86.3,97.6 86.3,105.7 84,105.7 80.5,100 
		80.5,100 80.5,105.7 78.7,105.7 	"/>
	<path class="st55" d="M94.8,100l-1,2.5h2L94.8,100z M94.1,97.6h1.5l3.5,8.1h-2l-0.7-1.7h-3.1l-0.7,1.7h-2L94.1,97.6z"/>
	<path class="st55" d="M105.1,101h1c0.6,0,1.5,0,1.5-0.9c0-0.8-0.7-0.9-1.4-0.9h-1.2V101z M103.3,97.6h3.1c1.7,0,3,0.6,3,2.5
		c0,1.1-0.6,2-1.7,2.2l2.1,3.4h-2.1l-1.7-3.2h-0.9v3.2h-1.8V97.6z"/>
	<path class="st55" d="M117.4,100l-1,2.5h2L117.4,100z M116.8,97.6h1.5l3.5,8.1h-2L119,104h-3.1l-0.7,1.7h-2L116.8,97.6z"/>
	<polygon class="st55" points="5.7,85.2 5.7,73.2 1.2,73.2 1.2,71.2 12.2,71.2 12.2,73.2 7.8,73.2 7.8,85.2 	"/>
	<polygon class="st55" points="31.8,85.2 31.8,79.1 24.8,79.1 24.8,85.2 22.7,85.2 22.7,71.2 24.8,71.2 24.8,77.1 31.8,77.1 
		31.8,71.2 33.9,71.2 33.9,85.2 	"/>
	<polygon class="st55" points="45.2,85.2 45.2,71.2 55.5,71.2 55.5,73.2 47.3,73.2 47.3,77.1 54.7,77.1 54.7,79.1 47.3,79.1 
		47.3,83.1 55.6,83.1 55.6,85.2 	"/>
	<polygon class="st55" points="85.9,85.2 79.8,71.2 82.1,71.2 86.7,82.1 91.4,71.2 93.6,71.2 87.5,85.2 	"/>
	<path class="st55" d="M113.1,85.2l-1.6-3.6h-6.8l-1.6,3.6h-2.2l6.5-14h1.6l6.5,14H113.1z M110.5,79.6l-2.5-5.5l-2.5,5.5H110.5z"/>
	<polygon class="st55" points="125.4,85.2 125.4,71.2 127.5,71.2 127.5,83.1 135,83.1 135,85.2 	"/>
	<polygon class="st55" points="145.4,85.2 145.4,71.2 147.5,71.2 147.5,83.1 155,83.1 155,85.2 	"/>
	<polygon class="st55" points="165.4,85.2 165.4,71.2 175.7,71.2 175.7,73.2 167.5,73.2 167.5,77.1 174.9,77.1 174.9,79.1 
		167.5,79.1 167.5,83.1 175.8,83.1 175.8,85.2 	"/>
	<polygon class="st55" points="191.1,85.2 191.1,79.7 185.1,71.2 187.7,71.2 192.2,77.7 196.7,71.2 199.2,71.2 193.2,79.7 
		193.2,85.2 	"/>
	<polygon class="st55" points="99.8,30.7 90.6,8.2 82.3,8.2 95.5,40.5 	"/>
	<polygon class="st55" points="98.2,47 118.1,1.2 116.7,1.2 97.5,45.3 	"/>
</g>
</svg>
