<?xml version="1.0" encoding="utf-8"?>
<!-- Generator: Adobe Illustrator 26.0.1, SVG Export Plug-In . SVG Version: 6.00 Build 0)  -->
<!DOCTYPE svg PUBLIC "-//W3C//DTD SVG 1.1//EN" "http://www.w3.org/Graphics/SVG/1.1/DTD/svg11.dtd" [
	<!ENTITY ns_extend "http://ns.adobe.com/Extensibility/1.0/">
	<!ENTITY ns_ai "http://ns.adobe.com/AdobeIllustrator/10.0/">
	<!ENTITY ns_graphs "http://ns.adobe.com/Graphs/1.0/">
	<!ENTITY ns_vars "http://ns.adobe.com/Variables/1.0/">
	<!ENTITY ns_imrep "http://ns.adobe.com/ImageReplacement/1.0/">
	<!ENTITY ns_sfw "http://ns.adobe.com/SaveForWeb/1.0/">
	<!ENTITY ns_custom "http://ns.adobe.com/GenericCustomNamespace/1.0/">
	<!ENTITY ns_adobe_xpath "http://ns.adobe.com/XPath/1.0/">
]>
<svg version="1.1" id="Layer_1" xmlns:x="&ns_extend;" xmlns:i="&ns_ai;" xmlns:graph="&ns_graphs;"
	 xmlns="http://www.w3.org/2000/svg" xmlns:xlink="http://www.w3.org/1999/xlink" x="0px" y="0px" viewBox="0 0 200 70"
	 style="enable-background:new 0 0 200 70;" xml:space="preserve">
<style type="text/css">
	.st0{fill:#080505;}
	.st1{fill:#F8AF41;}
	.st2{fill:#376278;}
	.st3{fill:#FFC663;}
	.st4{fill:#F6CE76;}
	.st5{fill:#0D98BB;}
	.st6{fill:#70B599;}
	.st7{fill:#EAE3AC;}
	.st8{fill:#91060D;}
	.st9{fill:#2D628C;}
	.st10{fill:#012944;}
	.st11{fill:#043754;}
	.st12{fill:#1D324D;}
	.st13{fill:#8C7449;}
	.st14{fill:#003756;}
	.st15{fill:#53B2D3;}
	.st16{fill:#082042;}
	.st17{fill:#055985;}
	.st18{fill:#A08C6A;}
	.st19{clip-path:url(#SVGID_00000072259794442746015290000006905305531804520119_);}
	.st20{filter:url(#Adobe_OpacityMaskFilter);}
	.st21{opacity:0.9;mask:url(#SVGID_00000096763075476891991580000009494026938086149273_);fill:#FFFFFF;}
	.st22{filter:url(#Adobe_OpacityMaskFilter_00000081626889631914598580000001229984505139736749_);}
	.st23{opacity:0.75;mask:url(#SVGID_00000023996282458544135550000016072818622923219885_);}
	.st24{filter:url(#Adobe_OpacityMaskFilter_00000025402254395767384280000014372606344023213464_);}
	.st25{mask:url(#SVGID_00000028325593033969550750000001766687026619279274_);fill:#FFFFFF;}
	.st26{filter:url(#Adobe_OpacityMaskFilter_00000021113421098788063900000000215672313499817373_);}
	.st27{opacity:0.75;mask:url(#SVGID_00000026847190873310436260000017561416128649795239_);}
	.st28{fill:none;stroke:#000000;stroke-width:1.2;}
	.st29{clip-path:url(#SVGID_00000069367580047109569480000006210326571514441860_);}
	.st30{fill:#1E2731;}
	.st31{fill:#777779;}
	
		.st32{clip-path:url(#SVGID_00000051373773880474605910000006959293921091467198_);fill:url(#SVGID_00000181796161003350023150000011872356759973036937_);}
</style>
<metadata>
	<sfw  xmlns="&ns_sfw;">
		<slices></slices>
		<sliceSourceBounds  bottomLeftOrigin="true" height="515.4" width="2527.2" x="1.1" y="-405.1"></sliceSourceBounds>
	</sfw>
</metadata>
<g>
	<g>
		<path d="M85,6.3c0.5-0.5,0.9-1,1.1-1.6c0.4-0.9,0.3-1.6-0.1-2.1c-0.4-0.5-1.3-0.8-2.5-0.8h-4.2l-0.4,0.9h2.9
			c1.5,0,1.9,0.7,1.4,1.9C82.9,5.4,82.6,6,82,6.3c-0.6,0.3-1.1,0.3-2.2,0.3l-1.3,0l1-2.4h-1.3l-1.4,3.4h3.8c1.1,0,1.9-0.1,2.5-0.3
			C83.8,7.1,84.4,6.8,85,6.3 M112.2,1.8L112.2,1.8l-1.5,0l-6,5.6l2.3-5.6h-2.6l-3.1,2.4l-1.6,1.3h-0.1l0.7-1.9l-0.9-1.8H97l-2.3,5.6
			l-1.3-5.6h-2.8l-6.2,5.8h1.6l1.6-1.5h3.9l0.3,1.5h4.2L97.3,4c0.1-0.2,0.1-0.4,0.2-0.6c0,0.2,0.1,0.4,0.2,0.6L99,7h0.2l3.8-3
			c0.1-0.1,0.4-0.3,0.6-0.6c-0.1,0.3-0.2,0.5-0.3,0.6l-1.5,3.6h2.7l0,0h2.9l1.6-1.5h4.1l0.3,1.5h1.4l-1.4-5.8H112.2z M88.2,5.3
			l2.5-2.4l0.4,2.4H88.2z M109.8,5.3l2.5-2.5l0.5,2.5H109.8z M124.5,1.9L124.5,1.9l-4.2-0.1c-1.2,0-2.3,0.3-3.1,0.8
			c-0.9,0.5-1.5,1.2-1.9,2.1c-0.2,0.6-0.3,1.1-0.2,1.6c0.1,0.5,0.4,0.9,0.9,1.1c0.5,0.2,1.2,0.3,2.3,0.3h3.8l0.4-0.9h-2.1
			c-1,0-1.7-0.1-2-0.4c-0.4-0.3-0.3-0.9,0-1.6c0.5-1.2,1.6-2,3-2h1.6l-0.4,0.9h1.3L124.5,1.9L124.5,1.9z"/>
		<path d="M75,26.4c-0.4-0.2-0.7-0.4-0.9-0.8c-0.3-0.3-0.4-0.7-0.4-1.1c-0.3,0.2-0.7,0.5-1,0.8c-0.3,0.3-0.7,0.5-1,0.7
			c-0.4,0.2-0.8,0.4-1.2,0.5c-0.5,0.1-1,0.2-1.6,0.2c-0.6,0-1-0.1-1.5-0.3c-0.4-0.2-0.8-0.4-1.1-0.7c-0.3-0.3-0.5-0.7-0.7-1.1
			c-0.2-0.4-0.3-0.9-0.3-1.4c0-0.6,0.1-1.2,0.4-1.6c0.2-0.5,0.6-0.9,1-1.3c0.4-0.4,0.9-0.7,1.5-1c0.6-0.3,1.1-0.6,1.8-0.8
			c0.6-0.2,1.3-0.4,1.9-0.6c0.7-0.2,1.3-0.4,1.9-0.5v-0.9c0-0.6,0-1.2-0.1-1.6c-0.1-0.4-0.2-0.8-0.4-1.1c-0.2-0.3-0.4-0.5-0.7-0.6
			C72.1,13,71.8,13,71.4,13c-0.4,0-0.8,0.1-1.1,0.2c-0.3,0.2-0.6,0.4-0.9,0.6c-0.3,0.3-0.5,0.6-0.6,0.9c-0.2,0.4-0.2,0.7-0.9,1
			c-0.7,0.3-2,0.1-2,0.1s0.3-1.1,0.6-1.6c0.3-0.5,0.8-0.9,1.3-1.2c0.5-0.3,1.1-0.6,1.8-0.8c0.7-0.2,1.4-0.3,2.1-0.3
			c0.9,0,1.7,0.1,2.3,0.3c0.6,0.2,1.1,0.4,1.5,0.7c0.4,0.3,0.6,0.7,0.8,1.2c0.2,0.5,0.2,1,0.2,1.5v8.7c0,0.4,0.1,0.8,0.4,1.1
			c0.3,0.3,0.6,0.6,0.9,0.8H75z M73.7,18.2c-0.4,0.1-0.8,0.3-1.3,0.4c-0.4,0.2-0.9,0.4-1.3,0.6c-0.4,0.2-0.8,0.4-1.2,0.7
			c-0.4,0.2-0.7,0.5-1,0.8c-0.3,0.3-0.5,0.6-0.7,0.9c-0.2,0.3-0.2,0.6-0.2,0.9c0,0.3,0.1,0.7,0.2,1c0.1,0.3,0.3,0.6,0.5,0.8
			c0.2,0.2,0.5,0.4,0.7,0.6c0.3,0.1,0.6,0.2,0.9,0.2c0.3,0,0.6,0,0.9-0.1c0.3-0.1,0.6-0.2,0.8-0.3c0.3-0.1,0.5-0.3,0.8-0.5
			s0.5-0.4,0.8-0.6V18.2z"/>
		<path d="M91.7,13.1v1.2h-2.3c0.3,0.4,0.5,0.8,0.7,1.3c0.2,0.5,0.3,1,0.3,1.4c0,0.7-0.2,1.4-0.5,2c-0.3,0.6-0.8,1.1-1.3,1.5
			c-0.6,0.4-1.3,0.8-2.1,1c-0.8,0.2-1.7,0.4-2.6,0.4c-0.4,0-0.7,0-1.1-0.1c-0.4-0.1-0.7-0.1-1-0.2c-0.3,0.2-0.5,0.5-0.7,0.8
			c-0.2,0.3-0.3,0.6-0.3,0.9c0,0.3,0.2,0.5,0.5,0.7c0.3,0.2,0.7,0.3,1.3,0.3l5.2,0.2c0.8,0,1.5,0.1,2.1,0.3c0.6,0.2,1,0.4,1.3,0.6
			c0.3,0.3,0.6,0.6,0.7,1c0.1,0.4,0.2,0.8,0.2,1.2c0,0.8-0.2,1.6-0.6,2.2c-0.4,0.7-0.9,1.2-1.6,1.7c-0.7,0.5-1.6,0.8-2.6,1.1
			c-1,0.3-2.2,0.4-3.5,0.4c-1.2,0-2.2-0.1-3.1-0.2c-0.9-0.1-1.6-0.3-2.2-0.6c-0.6-0.3-1-0.6-1.3-0.9c-0.3-0.4-0.4-0.8-0.4-1.2
			c0-0.4,0.1-0.8,0.3-1.1c0.2-0.4,0.4-0.7,0.7-1c0.3-0.3,0.6-0.6,1-0.9c0.4-0.3,0.7-0.6,1.1-0.9c-0.3-0.1-0.5-0.2-0.7-0.3
			c-0.2-0.1-0.4-0.2-0.6-0.4c-0.2-0.1-0.3-0.3-0.4-0.5c-0.1-0.2-0.1-0.4-0.1-0.5c0-0.3,0.1-0.6,0.2-0.9c0.2-0.3,0.4-0.6,0.6-0.9
			c0.3-0.3,0.6-0.5,0.9-0.8c0.3-0.2,0.7-0.4,1.1-0.6c-0.9-0.4-1.7-1-2.2-1.7c-0.5-0.7-0.8-1.5-0.8-2.5c0-0.7,0.2-1.3,0.5-2
			c0.3-0.6,0.8-1.2,1.3-1.6c0.6-0.5,1.2-0.8,2-1.1c0.7-0.3,1.6-0.4,2.4-0.4c0.4,0,0.8,0,1.2,0.1c0.4,0.1,0.8,0.1,1.1,0.2
			c0.4,0.1,0.7,0.2,0.9,0.3c0.3,0.1,0.5,0.2,0.6,0.4H91.7z M80.7,26.3c-0.2,0.2-0.4,0.3-0.6,0.5c-0.2,0.2-0.3,0.4-0.4,0.6
			c-0.1,0.2-0.2,0.4-0.2,0.6c-0.1,0.2-0.1,0.4-0.1,0.6c0,0.3,0.1,0.6,0.3,0.9c0.2,0.3,0.6,0.5,1,0.8c0.4,0.2,1,0.4,1.7,0.5
			c0.7,0.1,1.4,0.2,2.3,0.2c0.9,0,1.8-0.1,2.5-0.2c0.7-0.1,1.4-0.3,1.9-0.6c0.5-0.2,0.9-0.5,1.2-0.8c0.3-0.3,0.4-0.6,0.4-0.9
			c0-0.3-0.1-0.6-0.2-0.8c-0.2-0.2-0.4-0.4-0.7-0.6c-0.3-0.1-0.7-0.3-1.1-0.3c-0.4-0.1-0.9-0.1-1.5-0.1c-0.7,0-1.4,0-2.1,0
			c-0.7,0-1.3-0.1-1.9-0.1c-0.6,0-1.1-0.1-1.6-0.1C81.2,26.4,80.9,26.3,80.7,26.3 M84.2,21.1c0.4,0,0.8-0.1,1.1-0.3
			c0.4-0.2,0.7-0.4,1-0.7c0.3-0.3,0.5-0.7,0.7-1.1c0.2-0.4,0.2-0.9,0.2-1.4c0-0.7-0.1-1.3-0.3-1.9c-0.2-0.6-0.4-1.1-0.8-1.5
			c-0.3-0.4-0.7-0.8-1.1-1c-0.4-0.2-0.9-0.4-1.4-0.4c-0.5,0-0.9,0.1-1.2,0.3c-0.3,0.2-0.6,0.5-0.8,0.8c-0.2,0.3-0.4,0.7-0.5,1.2
			c-0.1,0.5-0.2,1-0.2,1.5c0,0.6,0.1,1.2,0.2,1.8c0.2,0.6,0.4,1,0.7,1.4c0.3,0.4,0.6,0.7,1,1C83.3,21,83.7,21.1,84.2,21.1"/>
		<path d="M97.7,26.7c-1.1,0-2.1-0.2-3-0.6c-0.9-0.4-1.7-0.9-2.4-1.5c-0.7-0.6-1.2-1.4-1.5-2.3c-0.4-0.9-0.6-1.8-0.6-2.8
			c0-1,0.2-2,0.6-2.9c0.4-0.9,0.9-1.7,1.5-2.4c0.7-0.7,1.4-1.2,2.4-1.6c0.9-0.4,1.9-0.6,3-0.6c1.1,0,2.1,0.2,3,0.5
			c0.9,0.4,1.7,0.8,2.3,1.5c0.7,0.6,1.2,1.4,1.5,2.2c0.4,0.8,0.6,1.7,0.6,2.7c0,1.1-0.2,2.1-0.6,3c-0.4,0.9-0.9,1.8-1.5,2.5
			c-0.7,0.7-1.4,1.3-2.3,1.7C99.8,26.5,98.8,26.7,97.7,26.7 M98.3,25.7c0.6,0,1.1-0.1,1.5-0.4c0.5-0.3,0.9-0.7,1.2-1.2
			c0.3-0.5,0.6-1,0.8-1.7c0.2-0.6,0.3-1.3,0.3-2c0-1-0.1-2-0.3-2.9c-0.2-0.9-0.5-1.7-0.9-2.3c-0.4-0.7-0.9-1.2-1.5-1.6
			c-0.6-0.4-1.4-0.6-2.3-0.6c-0.5,0-0.9,0.1-1.4,0.4c-0.4,0.3-0.8,0.6-1.2,1.1c-0.3,0.5-0.6,1-0.8,1.6c-0.2,0.6-0.3,1.3-0.3,2
			c0,1,0.1,2,0.3,2.9c0.2,0.9,0.5,1.7,0.9,2.4c0.4,0.7,0.9,1.2,1.5,1.6C96.8,25.5,97.5,25.7,98.3,25.7"/>
		<path d="M113.1,26.7c-1.1,0-2.1-0.2-3-0.6c-0.9-0.4-1.7-0.9-2.4-1.5c-0.7-0.6-1.2-1.4-1.5-2.3c-0.4-0.9-0.6-1.8-0.6-2.8
			c0-1,0.2-2,0.6-2.9c0.4-0.9,0.9-1.7,1.5-2.4c0.7-0.7,1.4-1.2,2.4-1.6s1.9-0.6,3-0.6c1.1,0,2.1,0.2,3,0.5c0.9,0.4,1.7,0.8,2.3,1.5
			c0.7,0.6,1.2,1.4,1.5,2.2c0.4,0.8,0.6,1.7,0.6,2.7c0,1.1-0.2,2.1-0.6,3c-0.4,0.9-0.9,1.8-1.5,2.5c-0.7,0.7-1.4,1.3-2.3,1.7
			C115.1,26.5,114.1,26.7,113.1,26.7 M113.6,25.7c0.6,0,1.1-0.1,1.5-0.4c0.5-0.3,0.9-0.7,1.2-1.2c0.3-0.5,0.6-1,0.8-1.7
			c0.2-0.6,0.3-1.3,0.3-2c0-1-0.1-2-0.3-2.9c-0.2-0.9-0.5-1.7-0.9-2.3c-0.4-0.7-0.9-1.2-1.5-1.6c-0.6-0.4-1.4-0.6-2.3-0.6
			c-0.5,0-0.9,0.1-1.4,0.4c-0.4,0.3-0.8,0.6-1.2,1.1c-0.3,0.5-0.6,1-0.8,1.6c-0.2,0.6-0.3,1.3-0.3,2c0,1,0.1,2,0.3,2.9
			c0.2,0.9,0.5,1.7,0.9,2.4c0.4,0.7,0.9,1.2,1.5,1.6C112.1,25.5,112.8,25.7,113.6,25.7"/>
		<path d="M123.1,12.1h0.8v2.9c0.9-1,1.7-1.7,2.7-2.1c0.9-0.5,1.8-0.7,2.8-0.7c0.5,0,1,0.1,1.4,0.3c0.4,0.2,0.8,0.5,1.1,0.9
			c0.3,0.4,0.6,0.8,0.8,1.4c0.2,0.5,0.3,1.1,0.3,1.7v10.1h-2.8v-9.6c0-0.5-0.1-0.9-0.2-1.2c-0.1-0.4-0.3-0.6-0.5-0.9
			c-0.2-0.2-0.4-0.4-0.7-0.5c-0.3-0.1-0.6-0.2-0.9-0.2c-0.3,0-0.6,0.1-0.9,0.2c-0.3,0.1-0.7,0.2-1,0.4c-0.3,0.2-0.7,0.4-1,0.6
			c-0.3,0.2-0.7,0.5-1,0.8v8.4c0,1.1-0.9,2-2,2h-0.8V12.8L123.1,12.1z"/>
		<path d="M143.7,20.9c-0.2-0.4-0.5-0.8-0.9-1.2c-0.4-0.3-0.8-0.6-1.3-0.9c-0.5-0.3-1-0.5-1.5-0.7c-0.5-0.2-1-0.4-1.5-0.6
			c-0.5-0.2-0.9-0.4-1.3-0.7c-0.4-0.3-0.7-0.5-0.9-0.8c-0.2-0.3-0.4-0.7-0.4-1.1c0-0.3,0.1-0.5,0.2-0.7c0.1-0.2,0.3-0.4,0.6-0.6
			c0.2-0.2,0.5-0.3,0.8-0.4c0.3-0.1,0.6-0.1,1-0.1c0.4,0,0.7,0.1,1,0.2c0.3,0.2,0.6,0.4,0.9,0.6c0.3,0.3,0.5,0.6,0.6,0.9
			c0.2,0.4,0.2,0.7,0.9,1c0.7,0.3,2,0.1,2,0.1s-0.3-1.1-0.6-1.6c-0.3-0.5-0.8-0.9-1.3-1.2c-0.5-0.3-1.1-0.6-1.8-0.8
			c-0.5-0.1-1.1-0.2-1.6-0.3v0c0,0-0.1,0-0.1,0c-0.1,0-0.1,0-0.2,0v0c-0.6,0-1.1,0.1-1.6,0.3c-0.6,0.2-1.1,0.5-1.5,0.8
			c-0.4,0.3-0.8,0.8-1,1.2c-0.2,0.5-0.4,1-0.4,1.6c0,0.6,0.1,1.1,0.3,1.6c0.2,0.4,0.5,0.8,0.9,1.2c0.4,0.3,0.8,0.6,1.2,0.9
			c0.4,0.3,0.9,0.5,1.4,0.7c0.5,0.2,0.9,0.4,1.4,0.7c0.4,0.2,0.9,0.4,1.2,0.7c0.4,0.3,0.6,0.5,0.9,0.9c0.2,0.3,0.3,0.7,0.3,1.1
			c0,0.3-0.1,0.5-0.2,0.8c-0.1,0.3-0.3,0.5-0.5,0.7c-0.2,0.2-0.5,0.3-0.8,0.5c-0.3,0.1-0.7,0.2-1,0.2c-0.3,0-0.6,0-0.8-0.1
			c-0.1,0-0.2-0.1-0.3-0.1c-0.3-0.2-0.6-0.4-0.9-0.6c-0.3-0.3-0.5-0.6-0.6-0.9c-0.2-0.4-0.2-0.7-0.9-1c-0.7-0.3-2-0.1-2-0.1
			s0.3,1.1,0.6,1.6c0.3,0.5,0.8,0.9,1.3,1.2c0.5,0.3,1.1,0.6,1.8,0.8c0.6,0.1,1.2,0.3,1.8,0.3c0,0,0,0,0,0c0.9,0,1.7-0.1,2.4-0.3
			c0.7-0.2,1.2-0.5,1.7-0.9c0.4-0.4,0.8-0.8,1-1.3c0.2-0.5,0.3-1.1,0.3-1.7C144.1,21.9,144,21.4,143.7,20.9"/>
		<path d="M134.3,30.1c-2,0.7-3.8,1.4-6.5,1.3c-6.9,0-14-4.9-20-1.6c7.5-1.2,12.7,3.7,20,2.9C130.3,32.5,132.4,31.6,134.3,30.1"/>
		<path d="M119.3,33c-5.9,0.3-9.9-1.1-14.3-2.6c-3.8-1.1-8.5-1.5-11.5,1.1c3.2-1.2,6.6-0.8,9.5,0.1C105.5,32.3,112.6,35.5,119.3,33"
			/>
		<path d="M65,32.2c-1.9-1-2.1-1.8-2.1-3v-0.3c0,0,0,0,0,0V10.8C63,8.6,60.2,8,60.2,8v20.1h0v0.1c0,1.6-1.3,2.7-2.8,2.7h-0.6l0,0.4
			c2.5,0,5.1,0.7,7.6,2.1c12.5,6.8,22,7.3,28.3-1.2C92.8,32.3,82.6,41.3,65,32.2"/>
	</g>
	<path class="st2" d="M176.8,60.7l4.2-9.8l4,9.8H176.8z M192.3,68.6c0.5,0,0.9-0.1,1.3-0.2v-0.7c-0.9-0.1-1.6-0.4-2.1-0.9
		c-0.5-0.5-1-1.4-1.6-2.7l-7.4-18h-1l-9.4,22.3h1.5l2.7-6.4h9.4l0.8,2.2c0.6,1.7,1.5,2.9,2.5,3.5C190.2,68.3,191.3,68.6,192.3,68.6
		 M153.4,68.4h15v-1.3h-12V50.2c0-1.1-0.1-2-0.3-2.6c-0.2-0.6-0.5-0.9-0.9-1.2c-0.4-0.2-1-0.3-1.9-0.3h-3v0.7h0.7
		c0.9,0,1.6,0.3,1.9,0.8c0.3,0.6,0.5,1.4,0.5,2.5V68.4z M132.6,68.4h15v-1.3h-12V50.2c0-1.1-0.1-2-0.3-2.6c-0.2-0.6-0.5-0.9-0.9-1.2
		c-0.4-0.2-1-0.3-1.9-0.3h-3v0.7h0.7c0.9,0,1.6,0.3,1.9,0.8c0.3,0.6,0.5,1.4,0.5,2.5V68.4z M110,68.4h11.6c1.3,0,2.1-0.6,2.5-1.7
		l1.2-3.2l-0.7-0.2c-0.5,1.3-1.2,2.3-2.1,2.9c-0.9,0.6-2.1,0.8-3.6,0.8H113v-9.4h9.1v-1.3H113v-8.8h6.3c2.8,0,4.2,1.3,4.2,3.9h0.7
		v-2.5c0-1.8-1-2.7-2.9-2.7h-14.4v0.7h0.7c0.9,0,1.6,0.3,1.9,0.8c0.3,0.6,0.5,1.4,0.5,2.5V68.4z M92.5,67.2c-1.1,0-2.1-0.2-3.2-0.5
		v-9h3.2c2.1,0,3.7,0.4,4.8,1.2c1.1,0.8,1.6,2,1.6,3.5c0,1.5-0.6,2.7-1.7,3.5C96.2,66.8,94.6,67.2,92.5,67.2 M89.3,56.5v-8.8
		c0.9-0.2,1.7-0.3,2.5-0.3c1,0,1.9,0.2,2.8,0.5c0.9,0.3,1.7,0.8,2.3,1.5c0.6,0.7,0.9,1.5,0.9,2.5c0,1-0.3,1.8-0.8,2.5
		c-0.5,0.7-1.2,1.2-2,1.6c-0.8,0.3-1.7,0.5-2.6,0.5H89.3z M86.3,68.4H93c2.6,0,4.8-0.4,6.6-1.3c1.8-0.9,2.7-2.5,2.7-4.7
		c0-1.5-0.4-2.7-1.2-3.6c-0.8-0.9-2.3-1.5-4.3-1.8c1.5-0.5,2.6-1.2,3.3-2c0.7-0.9,1.1-1.8,1.1-2.9c0-2.3-0.9-3.9-2.7-4.7
		c-1.8-0.8-3.9-1.2-6.4-1.2h-8.8v0.7h0.7c0.9,0,1.6,0.3,1.9,0.8c0.3,0.6,0.5,1.4,0.5,2.5V68.4z M66.6,57v-9.3
		c0.9-0.2,1.7-0.3,2.4-0.3c0.7,0,1.5,0.2,2.3,0.5c0.8,0.3,1.5,0.9,2.1,1.6c0.6,0.7,0.9,1.6,0.9,2.7c0,1.1-0.3,2-0.9,2.7
		c-0.6,0.7-1.3,1.2-2.1,1.6C70.5,56.8,69.7,57,69,57H66.6z M78.3,68.8c0.4,0,0.8,0,1.2-0.1c0.4-0.1,0.7-0.1,0.9-0.2v-0.7
		c-0.9-0.1-1.6-0.4-2.3-1c-0.7-0.6-1.4-1.5-2.2-2.9L72.3,58c1.6-0.4,2.8-1,3.9-1.8c1-0.9,1.5-2.2,1.5-3.9c0-2.3-0.9-3.9-2.6-4.8
		c-1.8-0.8-3.7-1.3-5.8-1.3h-8.8v0.7h0.7c0.9,0,1.6,0.3,1.9,0.8c0.3,0.6,0.5,1.4,0.5,2.5v18.2h3V58.1h2.4l3.4,5.7
		c1.1,1.8,2.1,3.1,3,3.8C76.1,68.4,77.2,68.8,78.3,68.8 M41.3,60.7l4.2-9.8l4,9.8H41.3z M56.8,68.6c0.5,0,0.9-0.1,1.3-0.2v-0.7
		c-0.9-0.1-1.6-0.4-2.1-0.9c-0.5-0.5-1-1.4-1.6-2.7l-7.4-18h-1l-9.4,22.3h1.5l2.7-6.4h9.4l0.8,2.2c0.6,1.7,1.5,2.9,2.5,3.5
		C54.7,68.3,55.7,68.6,56.8,68.6 M32.7,69.9v-0.7c-1.1,0-1.9-0.6-2.4-1.7c-0.5-1.1-0.8-2.8-0.8-4.9V46.2h-3l-7.9,17.5l-8.1-17.5H7.2
		v22.3h1.3V49.4l8.8,19.1H18l8.4-18.7v13c0,1.8,0.2,3.2,0.6,4.2c0.4,1,1,1.8,1.9,2.3C29.8,69.7,31.1,69.9,32.7,69.9"/>
</g>
</svg>
