<?xml version="1.0" encoding="utf-8"?>
<!-- Generator: Adobe Illustrator 26.0.1, SVG Export Plug-In . SVG Version: 6.00 Build 0)  -->
<!DOCTYPE svg PUBLIC "-//W3C//DTD SVG 1.1//EN" "http://www.w3.org/Graphics/SVG/1.1/DTD/svg11.dtd" [
	<!ENTITY ns_extend "http://ns.adobe.com/Extensibility/1.0/">
	<!ENTITY ns_ai "http://ns.adobe.com/AdobeIllustrator/10.0/">
	<!ENTITY ns_graphs "http://ns.adobe.com/Graphs/1.0/">
	<!ENTITY ns_vars "http://ns.adobe.com/Variables/1.0/">
	<!ENTITY ns_imrep "http://ns.adobe.com/ImageReplacement/1.0/">
	<!ENTITY ns_sfw "http://ns.adobe.com/SaveForWeb/1.0/">
	<!ENTITY ns_custom "http://ns.adobe.com/GenericCustomNamespace/1.0/">
	<!ENTITY ns_adobe_xpath "http://ns.adobe.com/XPath/1.0/">
]>
<svg version="1.1" id="Layer_1" xmlns:x="&ns_extend;" xmlns:i="&ns_ai;" xmlns:graph="&ns_graphs;"
	 xmlns="http://www.w3.org/2000/svg" xmlns:xlink="http://www.w3.org/1999/xlink" x="0px" y="0px" viewBox="0 0 211.5 70"
	 style="enable-background:new 0 0 211.5 70;" xml:space="preserve">
<style type="text/css">
	.st0{fill:#5F705D;}
	.st1{fill:#010101;}
	.st2{fill:none;}
	.st3{fill:#B4D1BF;}
	.st4{fill:#AB926D;}
	.st5{fill:#A3925F;}
	.st6{fill:#006846;}
</style>
<metadata>
	<sfw  xmlns="&ns_sfw;">
		<slices></slices>
		<sliceSourceBounds  bottomLeftOrigin="true" height="414.6" width="1236" x="96.3" y="-355.7"></sliceSourceBounds>
	</sfw>
</metadata>
<g>
	<path class="st5" d="M39.5,24.1v0.3c-3.2,0-3.5,2-3.5,6.1v11.8h-0.3c0-3.4-8.7-0.4-12.4-0.2C11.8,43,1.7,36.3,0.7,24.2
		C-0.4,12,8.2,3.4,19.8,2.4c3.7-0.3,9,0.8,11.6,1.4C34,4.4,35,4.3,35,0.8h0.3v14H35c0-3.6-3.4-8.3-6.7-10.2
		c-2.7-1.4-5.7-2.1-8.5-1.9c-8.5,0.8-14.5,10.1-13.6,21c1,10.8,8.6,19,17.1,18.2c2.4-0.2,5.3-1.1,7.9-2.6v-8.7
		c-0.1-4.1-0.3-6.1-3.5-6.1v-0.3H39.5z"/>
	<path class="st5" d="M209.2,32.1c0,6.8-5.6,10.2-13.2,10.2c-3,0-6.1-0.7-7.9-1.1c-1.7-0.4-4.7-1.2-4.7,2.6h-0.3v-14h0.3
		c0,3.2,3.7,12.3,12.5,12.3c5.1,0,8.5-3.2,8.5-7.8c0-9.9-20.4-10.5-20.4-22.3c0-6.6,5.7-9.7,11.6-9.7c3.1,0,5.7,1,8.1,1.6
		c2,0.6,3.1,0,3.1-3.1h0.3v14h-0.3c0-6.8-4.5-12.3-11-12.3c-3.6,0-7.5,2.2-7.5,7.6C188.4,19.5,209.2,20.7,209.2,32.1"/>
	<polygon class="st5" points="56.5,68.4 56.5,69.7 48.3,69.7 48.3,61.4 56.4,61.4 56.4,62.7 49.7,62.7 49.7,64.9 55.3,64.9 
		55.3,66.1 49.7,66.1 49.7,68.4 	"/>
	<path class="st5" d="M74.8,67.2c0,1.6-1.5,2.7-4.3,2.7c-1.9,0-3.6-0.6-4.9-1.7l0.9-1c1.1,1,2.4,1.4,4.1,1.4c1.8,0,2.8-0.5,2.8-1.3
		c0-0.8-1-1.1-3.1-1.2c-2.3-0.2-4.4-0.7-4.4-2.4c0-1.6,1.9-2.5,4.3-2.5c1.8,0,3.3,0.5,4.3,1.4l-0.9,1c-0.8-0.7-2-1.1-3.4-1.1
		c-1.3,0-2.9,0.3-2.9,1.2c0,0.9,1.4,1,3.2,1.2C73,65,74.8,65.5,74.8,67.2"/>
	<polygon class="st5" points="92.2,62.7 88.4,62.7 88.4,69.7 87,69.7 87,62.7 83.3,62.7 83.3,61.4 92.2,61.4 	"/>
	<path class="st5" d="M106.4,66.5l-2-3.8l-2,3.8H106.4z M107,67.7h-5.3l-1,2h-1.5l4.5-8.2h1.6l4.4,8.2h-1.5L107,67.7z"/>
	<polygon class="st5" points="125.5,62.7 121.8,62.7 121.8,69.7 120.3,69.7 120.3,62.7 116.6,62.7 116.6,61.4 125.5,61.4 	"/>
	<polygon class="st5" points="143.2,68.4 143.2,69.7 135,69.7 135,61.4 143.1,61.4 143.1,62.7 136.4,62.7 136.4,64.9 142,64.9 
		142,66.1 136.4,66.1 136.4,68.4 	"/>
	<path class="st5" d="M161.5,67.2c0,1.6-1.5,2.7-4.3,2.7c-1.9,0-3.6-0.6-4.9-1.7l0.9-1c1.1,1,2.4,1.4,4.1,1.4c1.8,0,2.8-0.5,2.8-1.3
		c0-0.8-1-1.1-3.1-1.2c-2.3-0.2-4.4-0.7-4.4-2.4c0-1.6,1.9-2.5,4.3-2.5c1.8,0,3.3,0.5,4.3,1.4l-0.9,1c-0.8-0.7-2-1.1-3.4-1.1
		c-1.3,0-2.9,0.3-2.9,1.2c0,0.9,1.4,1,3.2,1.2C159.7,65,161.5,65.5,161.5,67.2"/>
	<path class="st5" d="M155.2,35.4V0.8l-4.8,7.9v26.7c-0.1,4.1-0.3,6.1-3.5,6.1v0.3h11.9v-0.3C155.5,41.5,155.2,39.4,155.2,35.4"/>
	<path class="st5" d="M120.2,31V6.1c0.9,1.1,10.9,19.5,15.2,27.3l2.8-4.6l-14.1-26h-8.6v0.3c1.7,0,3.2,1.1,4.5,2.7V31
		c0,6.6-3.1,10.5-6.9,10.5v0.3h14v-0.3C123.3,41.5,120.2,37.6,120.2,31"/>
	<path class="st5" d="M91.6,32.4c-1.6,3.6-5.2,9.1-10.8,9.1h-6.3c-3.2,0-3.5-2.1-3.5-6.1V22.5H75c4.3,0,7.8,3.1,7.8,6.8h0.3v-14
		h-0.3c0,3.7-3.5,6.8-7.8,6.8H71v-13C71,7.9,71,6.9,71.1,6l-5,5v24.3c0,4.1-0.3,6.1-3.5,6.1v0.3h27l2.3-9.4H91.6z"/>
	<path class="st5" d="M74.1,3.1c0.1,0,0.3,0,0.4,0h4.6c5.6,0,8.7,3.8,10.4,7.4h0.3l-1.9-7.7H74.4L74.1,3.1z"/>
	<polygon class="st5" points="135.4,33.4 154.5,2.4 155.2,0.8 135.3,33.2 	"/>
	<polygon class="st5" points="66.1,11.2 74.6,2.8 74.3,2.8 66.1,10.8 	"/>
</g>
</svg>
