<?xml version="1.0" encoding="utf-8"?>
<!-- Generator: Adobe Illustrator 16.0.0, SVG Export Plug-In . SVG Version: 6.00 Build 0)  -->
<!DOCTYPE svg PUBLIC "-//W3C//DTD SVG 1.1//EN" "http://www.w3.org/Graphics/SVG/1.1/DTD/svg11.dtd">
<svg version="1.1" id="Layer_1" xmlns="http://www.w3.org/2000/svg" xmlns:xlink="http://www.w3.org/1999/xlink" x="0px" y="0px"
	 width="150.25px" height="70px" viewBox="0 0 150.25 70" enable-background="new 0 0 150.25 70" xml:space="preserve">
<g>
	<path d="M71.861,65.241c-0.007-0.087,0.016-0.145-0.069-0.176c-0.12-0.051-0.274-0.073-0.401-0.073
		c-0.479,0-0.948,0.357-0.948,0.876c0,0.252,0.104,0.454,0.289,0.613c0.175,0.146,0.385,0.201,0.609,0.201
		c0.182,0,0.376-0.038,0.53-0.141c0.058-0.04,0.045-0.069,0.045-0.136v-0.3c0-0.039-0.005-0.114,0.028-0.144
		c0.017-0.018,0.054-0.018,0.077-0.021l0.047-0.004c0.022,0,0.048-0.003,0.048-0.033c0-0.026-0.023-0.033-0.043-0.033
		c-0.087,0-0.172,0.012-0.256,0.012c-0.091,0-0.181-0.012-0.271-0.012c-0.021,0-0.057,0-0.057,0.036c0,0.031,0.035,0.03,0.06,0.03
		c0.145,0,0.169,0.022,0.169,0.169v0.216c0,0.063,0.006,0.176-0.047,0.22c-0.07,0.059-0.199,0.07-0.284,0.07
		c-0.215,0-0.396-0.058-0.539-0.229c-0.127-0.152-0.18-0.334-0.18-0.531c0-0.188,0.063-0.407,0.18-0.557
		c0.128-0.164,0.305-0.228,0.502-0.228c0.441,0,0.394,0.336,0.479,0.336c0.027,0,0.038-0.026,0.038-0.054L71.861,65.241z"/>
	<path d="M72.607,65.238c0-0.044-0.007-0.103,0.04-0.12c0.04-0.016,0.15-0.016,0.189-0.016c0.085,0,0.192,0,0.274,0.025
		c0.083,0.026,0.118,0.073,0.155,0.155l0.037,0.072c0.008,0.019,0.018,0.052,0.04,0.052c0.024,0,0.022-0.039,0.022-0.055v-0.225
		c0-0.033,0.012-0.095-0.035-0.095c-0.212,0-0.422,0.01-0.636,0.01c-0.155,0-0.314-0.01-0.469-0.01
		c-0.022,0-0.043,0.013-0.043,0.039c0,0.03,0.04,0.03,0.065,0.03c0.172,0,0.162,0.052,0.162,0.215v1.057
		c0,0.168,0.01,0.22-0.162,0.22c-0.025,0-0.065,0.002-0.065,0.029c0,0.029,0.021,0.039,0.043,0.039c0.05,0,0.104-0.01,0.154-0.01
		h0.976c0.02,0,0.024,0.002,0.027-0.016l0.037-0.276c0.005-0.02,0.01-0.041,0.01-0.061c0-0.019-0.008-0.029-0.024-0.029
		c-0.03,0-0.048,0.07-0.055,0.088c-0.085,0.229-0.223,0.235-0.437,0.235c-0.197,0-0.308-0.003-0.308-0.242v-0.454
		c0-0.087,0.025-0.087,0.125-0.087c0.075,0,0.205,0,0.302,0.023c0.056,0.012,0.075,0.09,0.087,0.166
		c0.003,0.016,0.011,0.045,0.033,0.045c0.013,0,0.027-0.007,0.027-0.048c-0.003-0.084-0.008-0.162-0.013-0.243
		c0.005-0.073,0.01-0.152,0.013-0.226c0-0.021-0.015-0.026-0.027-0.026c-0.022,0-0.03,0.029-0.033,0.044
		c-0.012,0.077-0.024,0.174-0.087,0.181c-0.097,0.014-0.227,0.013-0.302,0.013c-0.103,0-0.125,0-0.125-0.124V65.238z"/>
	<path d="M75.937,65.238c0-0.044-0.007-0.103,0.04-0.12c0.04-0.016,0.15-0.016,0.189-0.016c0.086,0,0.192,0,0.274,0.025
		c0.082,0.026,0.117,0.073,0.155,0.155l0.037,0.072c0.008,0.019,0.018,0.052,0.04,0.052c0.025,0,0.022-0.039,0.022-0.055v-0.225
		c0-0.033,0.013-0.095-0.035-0.095c-0.212,0-0.421,0.01-0.636,0.01c-0.154,0-0.314-0.01-0.469-0.01
		c-0.022,0-0.043,0.013-0.043,0.039c0,0.03,0.04,0.03,0.065,0.03c0.172,0,0.162,0.052,0.162,0.215v1.057
		c0,0.168,0.01,0.22-0.162,0.22c-0.025,0-0.065,0.002-0.065,0.029c0,0.029,0.021,0.039,0.043,0.039c0.05,0,0.104-0.01,0.154-0.01
		h0.976c0.02,0,0.024,0.002,0.027-0.016l0.037-0.276c0.005-0.02,0.01-0.041,0.01-0.061c0-0.019-0.007-0.029-0.025-0.029
		c-0.029,0-0.047,0.07-0.054,0.088c-0.085,0.229-0.223,0.235-0.437,0.235c-0.197,0-0.308-0.003-0.308-0.242v-0.454
		c0-0.087,0.025-0.087,0.125-0.087c0.075,0,0.204,0,0.302,0.023c0.055,0.012,0.075,0.09,0.087,0.166
		c0.003,0.016,0.011,0.045,0.033,0.045c0.013,0,0.027-0.007,0.027-0.048c-0.003-0.084-0.008-0.162-0.013-0.243
		c0.005-0.073,0.01-0.152,0.013-0.226c0-0.021-0.015-0.026-0.027-0.026c-0.022,0-0.03,0.029-0.033,0.044
		c-0.012,0.077-0.024,0.174-0.087,0.181c-0.098,0.014-0.227,0.013-0.302,0.013c-0.102,0-0.125,0-0.125-0.124V65.238z"/>
	<path d="M77.791,66.354l-0.446-1.104c-0.013-0.032-0.033-0.069-0.033-0.105c0-0.047,0.107-0.041,0.125-0.044
		c0.02-0.003,0.05-0.005,0.05-0.034c0-0.032-0.024-0.032-0.048-0.032c-0.077,0-0.151,0.01-0.227,0.01c-0.09,0-0.175-0.01-0.265-0.01
		c-0.022,0-0.052,0.003-0.052,0.032c0,0.037,0.042,0.037,0.067,0.037c0.114,0,0.145,0.081,0.182,0.176l0.536,1.332
		c0.008,0.016,0.021,0.072,0.045,0.072c0.021,0,0.035-0.057,0.04-0.072l0.511-1.302c0.021-0.055,0.056-0.133,0.096-0.173
		c0.03-0.026,0.066-0.033,0.102-0.033c0.022,0,0.06-0.006,0.06-0.035c0-0.024-0.015-0.034-0.034-0.034
		c-0.069,0-0.14,0.01-0.209,0.01c-0.07,0-0.146-0.01-0.215-0.01c-0.024,0-0.055,0.008-0.055,0.039c0,0.037,0.087,0.03,0.109,0.03
		c0.045,0,0.104,0.012,0.104,0.073c0,0.04-0.022,0.096-0.035,0.133L77.791,66.354z"/>
	<path d="M78.985,65.238c0-0.044-0.008-0.103,0.04-0.12c0.04-0.016,0.149-0.016,0.189-0.016c0.085,0,0.192,0,0.274,0.025
		c0.083,0.026,0.117,0.073,0.155,0.155l0.036,0.072c0.009,0.019,0.019,0.052,0.04,0.052c0.025,0,0.023-0.039,0.023-0.055v-0.225
		c0-0.033,0.012-0.095-0.035-0.095c-0.212,0-0.422,0.01-0.636,0.01c-0.155,0-0.314-0.01-0.469-0.01
		c-0.022,0-0.043,0.013-0.043,0.039c0,0.03,0.04,0.03,0.065,0.03c0.172,0,0.161,0.052,0.161,0.215v1.057
		c0,0.168,0.011,0.22-0.161,0.22c-0.025,0-0.065,0.002-0.065,0.029c0,0.029,0.021,0.039,0.043,0.039c0.05,0,0.104-0.01,0.154-0.01
		h0.975c0.021,0,0.025,0.002,0.028-0.016l0.037-0.276c0.005-0.02,0.01-0.041,0.01-0.061c0-0.019-0.008-0.029-0.025-0.029
		c-0.029,0-0.047,0.07-0.055,0.088c-0.084,0.229-0.222,0.235-0.437,0.235c-0.197,0-0.307-0.003-0.307-0.242v-0.454
		c0-0.087,0.025-0.087,0.125-0.087c0.075,0,0.205,0,0.302,0.023c0.055,0.012,0.075,0.09,0.087,0.166
		c0.003,0.016,0.011,0.045,0.032,0.045c0.013,0,0.028-0.007,0.028-0.048c-0.003-0.084-0.008-0.162-0.013-0.243
		c0.005-0.073,0.01-0.152,0.013-0.226c0-0.021-0.016-0.026-0.028-0.026c-0.021,0-0.029,0.029-0.032,0.044
		c-0.012,0.077-0.024,0.174-0.087,0.181c-0.097,0.014-0.227,0.013-0.302,0.013c-0.103,0-0.125,0-0.125-0.124V65.238z"/>
	<path d="M75.045,66.317l-0.937-1.192c-0.032-0.041-0.054-0.074-0.108-0.089h-0.328c-0.029,0-0.063,0.002-0.063,0.04
		c0,0.029,0.042,0.029,0.066,0.029c0.185,0,0.172,0.052,0.172,0.215v1.063c0,0.16,0.013,0.214-0.172,0.214
		c-0.024,0-0.069-0.006-0.069,0.026c0,0.029,0.021,0.039,0.048,0.039c0.076,0,0.155-0.01,0.229-0.01c0.08,0,0.154,0.01,0.233,0.01
		c0.026,0,0.045-0.01,0.045-0.039c0-0.032-0.043-0.026-0.066-0.026c-0.185,0-0.172-0.054-0.172-0.214v-1.174l1.111,1.417
		c0.013,0.021,0.037,0.063,0.066,0.063c0.023,0,0.019-0.036,0.019-0.049V65.32c0-0.16-0.011-0.215,0.172-0.215
		c0.026,0,0.069,0,0.069-0.029c0-0.025-0.022-0.04-0.046-0.04c-0.077,0-0.15,0.012-0.229,0.012c-0.08,0-0.154-0.012-0.233-0.012
		c-0.026,0-0.047,0.015-0.047,0.04c0,0.029,0.041,0.029,0.065,0.029c0.186,0,0.175,0.052,0.175,0.215V66.317z"/>
	<path d="M64.213,58.268c-0.021-0.232,0.054-0.36-0.176-0.45c-0.323-0.135-0.741-0.197-1.085-0.197
		c-1.294,0-2.561,0.969-2.561,2.374c0,0.673,0.283,1.223,0.782,1.651c0.471,0.399,1.037,0.547,1.644,0.547
		c0.492,0,1.018-0.105,1.436-0.386c0.154-0.105,0.121-0.182,0.121-0.365v-0.809c0-0.106-0.014-0.31,0.074-0.387
		c0.047-0.049,0.147-0.049,0.208-0.055l0.129-0.016c0.061,0,0.128-0.006,0.128-0.09c0-0.07-0.061-0.084-0.114-0.084h-1.422
		c-0.061,0-0.154,0-0.154,0.091s0.094,0.083,0.161,0.083c0.391,0,0.458,0.064,0.458,0.457v0.584c0,0.168,0.014,0.47-0.128,0.59
		c-0.188,0.161-0.54,0.196-0.769,0.196c-0.579,0-1.07-0.161-1.455-0.626c-0.344-0.407-0.485-0.897-0.485-1.432
		c0-0.507,0.169-1.103,0.485-1.504c0.344-0.442,0.822-0.617,1.354-0.617c1.192,0,1.064,0.905,1.293,0.905
		c0.074,0,0.102-0.07,0.102-0.141L64.213,58.268z"/>
	<path d="M66.197,58.441c0-0.491,0.014-0.562,0.526-0.562c0.599,0,0.97,0.35,0.97,0.998c0,0.281-0.088,0.539-0.311,0.717
		c-0.256,0.202-0.532,0.23-0.842,0.23c-0.114,0-0.344,0.049-0.344-0.126V58.441z M65.665,61.377c0,0.443,0.034,0.583-0.438,0.583
		c-0.061,0-0.169-0.006-0.169,0.085c0,0.077,0.055,0.091,0.115,0.091c0.256,0,0.512-0.029,0.768-0.029s0.498,0.029,0.755,0.029
		c0.06,0,0.114-0.014,0.114-0.091c0-0.091-0.114-0.085-0.175-0.085c-0.465-0.006-0.438-0.133-0.438-0.583v-1.081
		c0-0.063-0.007-0.23,0.034-0.28c0.033-0.043,0.094-0.035,0.147-0.035c0.513,0,0.506,0.057,0.748,0.546l0.661,1.371
		c0.054,0.105,0.094,0.238,0.229,0.238h0.714c0.055,0,0.121-0.008,0.121-0.078c0-0.098-0.121-0.098-0.175-0.098
		c-0.296,0-0.397-0.267-0.519-0.513l-0.546-1.095c-0.095-0.183-0.195-0.429-0.411-0.464c0.56-0.078,1.065-0.45,1.065-1.089
		c0-0.737-0.634-1.067-1.273-1.067c-0.384,0-0.762,0.028-1.153,0.028c-0.215,0-0.443-0.028-0.66-0.028
		c-0.073,0-0.121,0.028-0.121,0.106c0,0.082,0.108,0.082,0.169,0.082c0.472,0,0.438,0.134,0.438,0.585V61.377z"/>
	<path d="M66.197,58.441c0-0.491,0.014-0.562,0.526-0.562c0.599,0,0.97,0.35,0.97,0.998c0,0.281-0.088,0.539-0.311,0.717
		c-0.256,0.202-0.532,0.23-0.842,0.23c-0.114,0-0.344,0.049-0.344-0.126V58.441z M65.665,61.377c0,0.443,0.034,0.583-0.438,0.583
		c-0.061,0-0.169-0.006-0.169,0.085c0,0.077,0.055,0.091,0.115,0.091c0.256,0,0.512-0.029,0.768-0.029s0.498,0.029,0.755,0.029
		c0.06,0,0.114-0.014,0.114-0.091c0-0.091-0.114-0.085-0.175-0.085c-0.465-0.006-0.438-0.133-0.438-0.583v-1.081
		c0-0.063-0.007-0.23,0.034-0.28c0.033-0.043,0.094-0.035,0.147-0.035c0.513,0,0.506,0.057,0.748,0.546l0.661,1.371
		c0.054,0.105,0.094,0.238,0.229,0.238h0.714c0.055,0,0.121-0.008,0.121-0.078c0-0.098-0.121-0.098-0.175-0.098
		c-0.296,0-0.397-0.267-0.519-0.513l-0.546-1.095c-0.095-0.183-0.195-0.429-0.411-0.464c0.56-0.078,1.065-0.45,1.065-1.089
		c0-0.737-0.634-1.067-1.273-1.067c-0.384,0-0.762,0.028-1.153,0.028c-0.215,0-0.443-0.028-0.66-0.028
		c-0.073,0-0.121,0.028-0.121,0.106c0,0.082,0.108,0.082,0.169,0.082c0.472,0,0.438,0.134,0.438,0.585V61.377z"/>
	<path d="M69.924,61.377c0,0.443,0.034,0.583-0.438,0.583c-0.062,0-0.169-0.006-0.169,0.085c0,0.077,0.054,0.091,0.114,0.091h1.523
		c0.061,0,0.114-0.014,0.114-0.091c0-0.091-0.114-0.085-0.175-0.085c-0.465-0.006-0.438-0.133-0.438-0.583v-2.879
		c0-0.443-0.033-0.577,0.438-0.577c0.061,0,0.175,0,0.175-0.09c0-0.078-0.054-0.099-0.114-0.099h-1.523
		c-0.067,0-0.114,0.021-0.114,0.099c0,0.09,0.107,0.09,0.169,0.09c0.472,0,0.438,0.134,0.438,0.577V61.377z"/>
	<path d="M72.663,60.102c0.458,0.209,0.822,0.481,0.822,1.045c0,0.555-0.499,0.911-1.004,0.911c-0.613,0-0.924-0.378-0.99-0.981
		c-0.007-0.058-0.007-0.231-0.095-0.231c-0.074,0-0.094,0.084-0.101,0.139c-0.021,0.185,0.004,0.38,0.004,0.562
		c0,0.127-0.045,0.297,0.069,0.374c0.283,0.175,0.688,0.273,1.018,0.273c0.392,0,0.775-0.105,1.078-0.365
		c0.29-0.253,0.473-0.604,0.473-0.997c0-0.304-0.129-0.611-0.324-0.836c-0.161-0.184-0.445-0.33-0.667-0.437
		c-0.438-0.195-1.179-0.441-1.179-1.046c0-0.513,0.424-0.751,0.869-0.751c0.525,0,0.728,0.26,0.875,0.745
		c0.021,0.049,0.034,0.16,0.108,0.16c0.047,0,0.074-0.035,0.074-0.084c-0.007-0.184,0.009-0.354,0.003-0.537
		c-0.007-0.127-0.023-0.221-0.151-0.271c-0.249-0.105-0.64-0.154-0.903-0.154c-0.66,0-1.3,0.45-1.3,1.188
		c0,0.625,0.484,0.913,0.977,1.138L72.663,60.102z"/>
	<path d="M78.32,59.902c0,0.528-0.102,0.997-0.419,1.418c-0.322,0.416-0.781,0.677-1.3,0.677c-0.512,0-0.983-0.22-1.307-0.626
		c-0.331-0.407-0.452-0.94-0.452-1.469c0-0.506,0.115-1.032,0.425-1.433c0.323-0.428,0.809-0.66,1.334-0.66
		c0.506,0,0.95,0.239,1.273,0.64C78.212,58.878,78.32,59.362,78.32,59.902 M74.237,59.902c0,1.279,1.138,2.29,2.351,2.29
		c1.28,0,2.345-0.933,2.345-2.29c0-1.355-1.064-2.282-2.345-2.282C75.375,57.62,74.237,58.625,74.237,59.902"/>
	<path d="M78.32,59.902c0,0.528-0.102,0.997-0.419,1.418c-0.322,0.416-0.781,0.677-1.3,0.677c-0.512,0-0.983-0.22-1.307-0.626
		c-0.331-0.407-0.452-0.94-0.452-1.469c0-0.506,0.115-1.032,0.425-1.433c0.323-0.428,0.809-0.66,1.334-0.66
		c0.506,0,0.95,0.239,1.273,0.64C78.212,58.878,78.32,59.362,78.32,59.902 M74.237,59.902c0,1.279,1.138,2.29,2.351,2.29
		c1.28,0,2.345-0.933,2.345-2.29c0-1.355-1.064-2.282-2.345-2.282C75.375,57.62,74.237,58.625,74.237,59.902"/>
	<path d="M82.988,58.288c-0.021-0.23,0.022-0.381-0.206-0.471c-0.324-0.135-0.741-0.197-1.085-0.197
		c-1.294,0-2.561,0.969-2.561,2.374c0,0.673,0.283,1.223,0.782,1.651c0.471,0.399,1.037,0.547,1.644,0.547
		c0.491,0,1.017-0.105,1.436-0.386c0.155-0.105,0.121-0.182,0.121-0.365v-0.809c0-0.106-0.014-0.31,0.074-0.387
		c0.047-0.049,0.148-0.049,0.208-0.057l0.129-0.014c0.06,0,0.128-0.006,0.128-0.09c0-0.07-0.062-0.084-0.115-0.084h-1.422
		c-0.061,0-0.154,0-0.154,0.091s0.094,0.083,0.162,0.083c0.391,0,0.458,0.064,0.458,0.457v0.584c0,0.168,0.014,0.47-0.129,0.59
		c-0.188,0.161-0.538,0.196-0.768,0.196c-0.58,0-1.071-0.161-1.455-0.626c-0.344-0.407-0.485-0.897-0.485-1.432
		c0-0.507,0.169-1.103,0.485-1.504c0.344-0.442,0.822-0.617,1.354-0.617c1.192,0,1.063,0.905,1.293,0.905
		c0.075,0,0.102-0.07,0.102-0.141L82.988,58.288z"/>
	<path d="M87.967,59.902c0,0.528-0.101,0.997-0.417,1.418c-0.323,0.416-0.782,0.677-1.301,0.677c-0.512,0-0.983-0.22-1.307-0.626
		c-0.33-0.407-0.451-0.94-0.451-1.469c0-0.506,0.114-1.032,0.424-1.433c0.323-0.428,0.809-0.66,1.334-0.66
		c0.505,0,0.95,0.239,1.273,0.64C87.859,58.878,87.967,59.362,87.967,59.902 M83.884,59.902c0,1.279,1.14,2.29,2.352,2.29
		c1.28,0,2.346-0.933,2.346-2.29c0-1.355-1.065-2.282-2.346-2.282C85.023,57.62,83.884,58.625,83.884,59.902"/>
	<path d="M87.967,59.902c0,0.528-0.101,0.997-0.417,1.418c-0.323,0.416-0.782,0.677-1.301,0.677c-0.512,0-0.983-0.22-1.307-0.626
		c-0.33-0.407-0.451-0.94-0.451-1.469c0-0.506,0.114-1.032,0.424-1.433c0.323-0.428,0.809-0.66,1.334-0.66
		c0.505,0,0.95,0.239,1.273,0.64C87.859,58.878,87.967,59.362,87.967,59.902 M83.884,59.902c0,1.279,1.14,2.29,2.352,2.29
		c1.28,0,2.346-0.933,2.346-2.29c0-1.355-1.065-2.282-2.346-2.282C85.023,57.62,83.884,58.625,83.884,59.902"/>
	<path d="M92.225,61.203l-2.385-3.226c-0.082-0.111-0.136-0.209-0.277-0.245h-0.836c-0.073,0-0.16,0.007-0.16,0.112
		c0,0.076,0.107,0.076,0.167,0.076c0.473,0,0.438,0.142,0.438,0.585v2.871c0,0.436,0.034,0.583-0.438,0.583
		c-0.06,0-0.175-0.02-0.175,0.072c0,0.076,0.054,0.104,0.122,0.104h1.179c0.067,0,0.115-0.027,0.115-0.104
		c0-0.092-0.109-0.072-0.169-0.072c-0.472,0-0.438-0.147-0.438-0.583v-3.174l2.83,3.835c0.034,0.056,0.095,0.168,0.169,0.168
		c0.06,0,0.047-0.098,0.047-0.133v-3.567c0-0.436-0.027-0.585,0.438-0.585c0.068,0,0.176,0,0.176-0.076s-0.054-0.112-0.114-0.112
		h-1.18c-0.068,0-0.121,0.036-0.121,0.112s0.108,0.076,0.168,0.076c0.472,0,0.445,0.142,0.445,0.585V61.203z"/>
	<path d="M96.869,59.902c0,0.528-0.101,0.997-0.419,1.418c-0.323,0.416-0.779,0.677-1.3,0.677c-0.512,0-0.983-0.22-1.308-0.626
		c-0.33-0.407-0.45-0.94-0.45-1.469c0-0.506,0.115-1.032,0.425-1.433c0.323-0.428,0.809-0.66,1.333-0.66
		c0.507,0,0.95,0.239,1.274,0.64C96.763,58.878,96.869,59.362,96.869,59.902 M92.785,59.902c0,1.279,1.139,2.29,2.353,2.29
		c1.281,0,2.344-0.933,2.344-2.29c0-1.355-1.063-2.282-2.344-2.282C93.924,57.62,92.785,58.625,92.785,59.902"/>
	<path d="M96.869,59.902c0,0.528-0.101,0.997-0.419,1.418c-0.323,0.416-0.779,0.677-1.3,0.677c-0.512,0-0.983-0.22-1.308-0.626
		c-0.33-0.407-0.45-0.94-0.45-1.469c0-0.506,0.115-1.032,0.425-1.433c0.323-0.428,0.809-0.66,1.333-0.66
		c0.507,0,0.95,0.239,1.274,0.64C96.763,58.878,96.869,59.362,96.869,59.902 M92.785,59.902c0,1.279,1.139,2.29,2.353,2.29
		c1.281,0,2.344-0.933,2.344-2.29c0-1.355-1.063-2.282-2.344-2.282C93.924,57.62,92.785,58.625,92.785,59.902"/>
	<path d="M56.813,60.238c-0.07,0-0.217,0.019-0.217-0.087s0.103-0.313,0.16-0.387c0.19-0.277,0.503-0.443,0.828-0.443
		c0.204,0,0.414,0.051,0.555,0.206c0.089,0.099,0.165,0.252,0.165,0.393c0,0.158-0.096,0.231-0.235,0.265
		c-0.185,0.046-0.542,0.054-0.739,0.054H56.813z M58.738,60.397c0.063,0,0.076-0.06,0.076-0.113c0-0.219-0.095-0.505-0.223-0.672
		c-0.223-0.284-0.574-0.41-0.918-0.41c-0.434,0-0.828,0.152-1.146,0.443c-0.338,0.307-0.459,0.658-0.459,1.11
		c0,0.831,0.618,1.528,1.453,1.528c0.395,0,0.707-0.107,1.007-0.373c0.044-0.039,0.248-0.22,0.248-0.298
		c0-0.026-0.019-0.053-0.051-0.053c-0.083,0-0.319,0.431-0.943,0.431c-0.771,0-1.236-0.645-1.236-1.39
		c0-0.218,0.063-0.204,0.262-0.204H58.738z"/>
	<path d="M56.813,60.238c-0.07,0-0.217,0.019-0.217-0.087s0.103-0.313,0.16-0.387c0.19-0.277,0.503-0.443,0.828-0.443
		c0.204,0,0.414,0.051,0.555,0.206c0.089,0.099,0.165,0.252,0.165,0.393c0,0.158-0.096,0.231-0.235,0.265
		c-0.185,0.046-0.542,0.054-0.739,0.054H56.813z M58.738,60.397c0.063,0,0.076-0.06,0.076-0.113c0-0.219-0.095-0.505-0.223-0.672
		c-0.223-0.284-0.574-0.41-0.918-0.41c-0.434,0-0.828,0.152-1.146,0.443c-0.338,0.307-0.459,0.658-0.459,1.11
		c0,0.831,0.618,1.528,1.453,1.528c0.395,0,0.707-0.107,1.007-0.373c0.044-0.039,0.248-0.22,0.248-0.298
		c0-0.026-0.019-0.053-0.051-0.053c-0.083,0-0.319,0.431-0.943,0.431c-0.771,0-1.236-0.645-1.236-1.39
		c0-0.218,0.063-0.204,0.262-0.204H58.738z"/>
	<path d="M55.592,57.732c0-0.053-0.001-0.066-0.064-0.066c-0.045,0-0.621-0.033-0.8,0c-0.038,0.006-0.064,0.063-0.064,0.111
		c0,0.086,0.072,0.115,0.129,0.11c0.454-0.043,0.366,0.369,0.366,0.616v0.631c0,0.04,0.025,0.244-0.051,0.244
		c-0.032,0-0.09-0.024-0.121-0.038c-0.211-0.086-0.446-0.127-0.682-0.139c-0.408-0.021-0.803,0.19-1.09,0.478
		c-0.287,0.285-0.446,0.65-0.446,1.07c0,0.797,0.567,1.534,1.377,1.534c0.516,0,0.928-0.314,0.981-0.445
		c0.024-0.062,0.032,0.193,0.032,0.219c0.007,0.04,0.031,0.179,0.102,0.179c0.038,0,0.753,0.021,0.785,0c0,0,0.058-0.07,0.064-0.157
		c0,0-0.085-0.087-0.13-0.087H55.7c-0.121,0-0.102-0.334-0.102-0.405L55.592,57.732z M55.158,61.354c0,0.132,0.02,0.227-0.063,0.332
		c-0.178,0.22-0.491,0.313-0.752,0.313c-0.708,0-1.103-0.687-1.103-1.351c0-0.663,0.414-1.262,1.108-1.327
		c0.211-0.021,0.504,0.058,0.657,0.212c0.165,0.16,0.152,0.412,0.152,0.618V61.354z"/>
	<path d="M55.592,57.732c0-0.053-0.001-0.066-0.064-0.066c-0.045,0-0.621-0.033-0.8,0c-0.038,0.006-0.064,0.063-0.064,0.111
		c0,0.086,0.072,0.115,0.129,0.11c0.454-0.043,0.366,0.369,0.366,0.616v0.631c0,0.04,0.025,0.244-0.051,0.244
		c-0.032,0-0.09-0.024-0.121-0.038c-0.211-0.086-0.446-0.127-0.682-0.139c-0.408-0.021-0.803,0.19-1.09,0.478
		c-0.287,0.285-0.446,0.65-0.446,1.07c0,0.797,0.567,1.534,1.377,1.534c0.516,0,0.928-0.314,0.981-0.445
		c0.024-0.062,0.032,0.193,0.032,0.219c0.007,0.04,0.031,0.179,0.102,0.179c0.038,0,0.753,0.021,0.785,0c0,0,0.058-0.07,0.064-0.157
		c0,0-0.085-0.087-0.13-0.087H55.7c-0.121,0-0.102-0.334-0.102-0.405L55.592,57.732z M55.158,61.354c0,0.132,0.02,0.227-0.063,0.332
		c-0.178,0.22-0.491,0.313-0.752,0.313c-0.708,0-1.103-0.687-1.103-1.351c0-0.663,0.414-1.262,1.108-1.327
		c0.211-0.021,0.504,0.058,0.657,0.212c0.165,0.16,0.152,0.412,0.152,0.618V61.354z"/>
</g>
<text transform="matrix(1 0 0 1 13.2324 24.6016)"><tspan x="0" y="0" font-family="'Century'" font-size="23">BUSINESS</tspan><tspan x="37.061" y="27.6" font-family="'Century'" font-size="23">BAY</tspan></text>
</svg>
