<?xml version="1.0" encoding="utf-8"?>
<!-- Generator: Adobe Illustrator 26.0.1, SVG Export Plug-In . SVG Version: 6.00 Build 0)  -->
<!DOCTYPE svg PUBLIC "-//W3C//DTD SVG 1.1//EN" "http://www.w3.org/Graphics/SVG/1.1/DTD/svg11.dtd" [
	<!ENTITY ns_extend "http://ns.adobe.com/Extensibility/1.0/">
	<!ENTITY ns_ai "http://ns.adobe.com/AdobeIllustrator/10.0/">
	<!ENTITY ns_graphs "http://ns.adobe.com/Graphs/1.0/">
	<!ENTITY ns_vars "http://ns.adobe.com/Variables/1.0/">
	<!ENTITY ns_imrep "http://ns.adobe.com/ImageReplacement/1.0/">
	<!ENTITY ns_sfw "http://ns.adobe.com/SaveForWeb/1.0/">
	<!ENTITY ns_custom "http://ns.adobe.com/GenericCustomNamespace/1.0/">
	<!ENTITY ns_adobe_xpath "http://ns.adobe.com/XPath/1.0/">
]>
<svg version="1.1" id="Layer_1" xmlns:x="&ns_extend;" xmlns:i="&ns_ai;" xmlns:graph="&ns_graphs;"
	 xmlns="http://www.w3.org/2000/svg" xmlns:xlink="http://www.w3.org/1999/xlink" x="0px" y="0px" viewBox="0 0 200 75.7"
	 style="enable-background:new 0 0 200 75.7;" xml:space="preserve">
<style type="text/css">
	.st0{fill:#080505;}
	.st1{fill:#F8AF41;}
	.st2{fill:#376278;}
	.st3{fill:#FFC663;}
	.st4{fill:#F6CE76;}
	.st5{fill:#0D98BB;}
	.st6{fill:#70B599;}
	.st7{fill:#EAE3AC;}
	.st8{fill:#91060D;}
	.st9{fill:#2D628C;}
	.st10{fill:#012944;}
	.st11{fill:#043754;}
	.st12{fill:#1D324D;}
	.st13{fill:#8C7449;}
	.st14{fill:#003756;}
	.st15{fill:#53B2D3;}
	.st16{fill:#082042;}
	.st17{fill:#055985;}
	.st18{fill:#A08C6A;}
	.st19{clip-path:url(#SVGID_00000178174938745506428890000014379151530401741212_);}
	.st20{filter:url(#Adobe_OpacityMaskFilter);}
	.st21{opacity:0.9;mask:url(#SVGID_00000003801483945501237910000010578475543765530538_);fill:#FFFFFF;}
	.st22{filter:url(#Adobe_OpacityMaskFilter_00000058559781943285471910000003434214892584195762_);}
	.st23{opacity:0.75;mask:url(#SVGID_00000072979813049913447380000011445602458322079161_);}
	.st24{filter:url(#Adobe_OpacityMaskFilter_00000166639845739572169580000011724025190200734637_);}
	.st25{mask:url(#SVGID_00000145772995953527311530000017604737855921406649_);fill:#FFFFFF;}
	.st26{filter:url(#Adobe_OpacityMaskFilter_00000007416582903188004100000014251147104707067839_);}
	.st27{opacity:0.75;mask:url(#SVGID_00000069374482924018835470000001164847240726670216_);}
	.st28{fill:none;stroke:#000000;stroke-width:1.2;}
	.st29{clip-path:url(#SVGID_00000004537147744575410400000017266650422410044039_);}
	.st30{fill:#1E2731;}
	.st31{fill:#777779;}
	
		.st32{clip-path:url(#SVGID_00000072969466582636623240000003794259491055821455_);fill:url(#SVGID_00000168076231422448212540000009560472688678573696_);}
</style>
<metadata>
	<sfw  xmlns="&ns_sfw;">
		<slices></slices>
		<sliceSourceBounds  bottomLeftOrigin="true" height="515.4" width="2527.2" x="1.1" y="-405.1"></sliceSourceBounds>
	</sfw>
</metadata>
<g>
	<polygon points="5.5,74.7 5.5,66.2 2,66.2 2,63.4 12.3,63.4 12.3,66.2 8.8,66.2 8.8,74.7 	"/>
	<polygon points="23.1,74.7 23.1,70.4 19.2,70.4 19.2,74.7 15.8,74.7 15.8,63.4 19.2,63.4 19.2,67.6 23.1,67.6 23.1,63.4 26.5,63.4 
		26.5,74.7 	"/>
	<polygon points="30.9,74.7 30.9,63.4 40.1,63.4 40.1,66.2 34.3,66.2 34.3,67.6 39.8,67.6 39.8,70.4 34.3,70.4 34.3,71.9 40.2,71.9 
		40.2,74.7 	"/>
	<g>
		<defs>
			<rect id="SVGID_00000036214899407463012990000006339573015890462861_" x="2" y="1.4" width="197.3" height="73.5"/>
		</defs>
		<clipPath id="SVGID_00000075883604949282470320000009069709955428904087_">
			<use xlink:href="#SVGID_00000036214899407463012990000006339573015890462861_"  style="overflow:visible;"/>
		</clipPath>
		<path style="clip-path:url(#SVGID_00000075883604949282470320000009069709955428904087_);" d="M54.8,70.7h-1.4v4H50V63.4h4.8
			c3,0,5.3,0.7,5.3,3.6c0,1.6-0.9,2.6-2.1,3.1l2.7,4.5h-3.8L54.8,70.7z M53.4,66.1v2.2h1.8c1,0,1.4-0.5,1.4-1.1
			c0-0.6-0.5-1.1-1.4-1.1H53.4z"/>
		<polygon style="clip-path:url(#SVGID_00000075883604949282470320000009069709955428904087_);" points="64.4,63.4 73.6,63.4 
			73.6,66.2 67.7,66.2 67.7,67.6 73.3,67.6 73.3,70.4 67.7,70.4 67.7,71.9 73.6,71.9 73.6,74.7 64.4,74.7 		"/>
		<path style="clip-path:url(#SVGID_00000075883604949282470320000009069709955428904087_);" d="M82.3,63.2c2,0,3.6,0.5,5.1,1.2
			L86,67.1c-0.8-0.5-2.4-1-3.8-1c-0.9,0-1.4,0.2-1.4,0.6c0,0.4,0.3,0.6,1,0.7l1.7,0.3c2.2,0.4,4,1.1,4,3.3c0,2.5-2.3,3.8-5.1,3.8
			c-2.4,0-4.3-0.7-5.6-1.6l1.6-2.6c1,0.7,2.5,1.3,4,1.3c0.9,0,1.5-0.2,1.5-0.6c0-0.5-0.6-0.7-1.7-0.9L81,70.1
			c-1.8-0.4-3.6-1.2-3.6-3.4C77.4,64.3,79.9,63.2,82.3,63.2"/>
		
			<rect x="91.3" y="63.4" style="clip-path:url(#SVGID_00000075883604949282470320000009069709955428904087_);" width="3.3" height="11.3"/>
		<path style="clip-path:url(#SVGID_00000075883604949282470320000009069709955428904087_);" d="M103.1,63.4c3.7,0,6.7,1.3,6.7,5.6
			c0,4.3-3,5.6-6.7,5.6h-4V63.4H103.1z M103.2,66.1h-0.7v6h0.7c1.8,0,3.1-0.4,3.1-3C106.3,66.5,105,66.1,103.2,66.1"/>
		<polygon style="clip-path:url(#SVGID_00000075883604949282470320000009069709955428904087_);" points="113.6,63.4 122.7,63.4 
			122.7,66.2 116.9,66.2 116.9,67.6 122.4,67.6 122.4,70.4 116.9,70.4 116.9,71.9 122.8,71.9 122.8,74.7 113.6,74.7 		"/>
		<polygon style="clip-path:url(#SVGID_00000075883604949282470320000009069709955428904087_);" points="133.5,74.7 129.9,67.5 
			129.9,74.7 126.9,74.7 126.9,63.4 131,63.4 134.5,70.6 134.5,63.4 137.6,63.4 137.6,74.7 		"/>
		<path style="clip-path:url(#SVGID_00000075883604949282470320000009069709955428904087_);" d="M147.2,63.2c3,0,5.2,1.7,5.7,4.5
			h-3.3c-0.2-1.1-1.1-1.8-2.3-1.8c-1.5,0-2.5,1-2.5,3.1c0,2.1,1,3.2,2.5,3.2c1.2,0,2.1-0.7,2.3-1.8h3.3c-0.5,2.9-2.7,4.5-5.7,4.5
			c-3.6,0-5.8-2.2-5.8-5.9C141.4,65.4,143.6,63.2,147.2,63.2"/>
		<polygon style="clip-path:url(#SVGID_00000075883604949282470320000009069709955428904087_);" points="156.7,63.4 165.9,63.4 
			165.9,66.2 160,66.2 160,67.6 165.6,67.6 165.6,70.4 160,70.4 160,71.9 165.9,71.9 165.9,74.7 156.7,74.7 		"/>
		<path style="clip-path:url(#SVGID_00000075883604949282470320000009069709955428904087_);" d="M174.6,63.2c2,0,3.6,0.5,5.1,1.2
			l-1.4,2.7c-0.8-0.5-2.4-1-3.8-1c-0.9,0-1.4,0.2-1.4,0.6c0,0.4,0.3,0.6,1,0.7l1.7,0.3c2.2,0.4,4,1.1,4,3.3c0,2.5-2.3,3.8-5.1,3.8
			c-2.4,0-4.3-0.7-5.6-1.6l1.6-2.6c1,0.7,2.5,1.3,4,1.3c0.9,0,1.5-0.2,1.5-0.6c0-0.5-0.6-0.7-1.7-0.9l-1.3-0.3
			c-1.8-0.4-3.6-1.2-3.6-3.4C169.7,64.3,172.2,63.2,174.6,63.2"/>
		<path style="clip-path:url(#SVGID_00000075883604949282470320000009069709955428904087_);" d="M7.6,5.8c0-2.3,3.2-3,6-3
			c3.7,0,6.8,2.3,7.5,5.6h2.6l0-6.5l-2.8,1.4c-1.4-1-4.5-2-7.3-2C8.8,1.4,3,2.7,3,8c0,6.8,17.6,6.1,17.6,11.5c0,2.7-3.4,3.4-6.9,3.4
			c-4.4,0-7.1-3.2-7.8-6.6H3.1v7.5L6,22.3c2.6,1.3,4.8,2.1,7.6,2.1c6.3,0,11.3-2,11.3-6.8C24.8,9.3,7.6,10.1,7.6,5.8 M29.8,8.1L35,4
			h3.9v11.4L36,17.8h11.5l-2.9-2.4V4h3.9l5.1,4.1V2.3H29.8V8.1z M38,23.4l3.7,3.1l3.7-3.1l-3.7-3.1L38,23.4z M142.8,13l2.8,2.1v3.7
			c0,2-3,3.5-5.1,3.5c-6.9,0-7.7-5.8-7.7-9.5c0-5.2,2.1-9.7,7.7-9.7c4.9,0,6.9,2.5,8.6,6.1h2.4V2.3l-2.9,1.3c-1-0.6-3.4-2-8-2
			c-8.5,0-14.4,3.5-14.4,11c0,8,5.9,11.2,14.3,11.2c2.4,0,5.3-0.8,7.9-2.3l3.2,1.8v-8.3l2.8-2.1H142.8z M182.1,5.8c0-2.3,3.2-3,6-3
			c3.7,0,6.8,2.3,7.5,5.6h2.6l0-6.5l-2.8,1.4c-1.5-1-4.5-2-7.3-2c-4.8,0-10.5,1.3-10.5,6.6c0,6.8,17.5,6.1,17.5,11.5
			c0,2.7-3.4,3.4-6.9,3.4c-4.4,0-7.1-3.2-7.8-6.6h-2.9v7.5l2.9-1.5c2.6,1.3,4.7,2.1,7.6,2.1c6.3,0,11.2-2,11.2-6.8
			C199.3,9.3,182.1,10.1,182.1,5.8 M170.8,2.3h-11.5l2.8,2.4V21l-2.8,2.3h11.5L168,21V4.7L170.8,2.3z M105.7,21.8v-8.1h6.4l2.7,2.4
			V9.7l-2.7,2.4h-6.4V4h9.6l5.1,4.1V2.3H96.8L99.9,5v15.7l-3.2,2.6h23.7v-5.7l-5.1,4.1H105.7z M85.5,15.9l-4.1-2.3
			c4.7-0.2,8-1,8-5.5c0-4.2-4.5-5.8-10.6-5.8H63.5l2.8,2.4v16l-2.8,2.6h11.2l-2.8-2.6v-7.1h5.9l6.1,9.7h7.6l-3.1-2.6L85.5,15.9z
			 M76.5,12.1h-4.5V4h4.5c4.6,0,6.3,0.3,6.3,4C82.8,11.8,81.1,12.1,76.5,12.1"/>
		<path style="clip-path:url(#SVGID_00000075883604949282470320000009069709955428904087_);" d="M6.4,39.5c3.7,0,6.5,1.2,6.5,5.6
			c0,4.4-2.8,5.6-6.5,5.6H3.2V39.5H6.4z M6.3,41.1h-1v8.1h1c2.2,0,4.5-0.5,4.5-4.1C10.7,41.6,8.5,41.1,6.3,41.1"/>
		<path style="clip-path:url(#SVGID_00000075883604949282470320000009069709955428904087_);" d="M22.3,51c-3.4,0-5.5-2.4-5.5-5.8
			c0-3.5,2.1-5.8,5.5-5.8c3.4,0,5.5,2.4,5.5,5.8C27.8,48.6,25.7,51,22.3,51 M22.3,49.4c1.9,0,3.4-1.5,3.4-4.2c0-2.7-1.5-4.2-3.4-4.2
			c-1.9,0-3.4,1.5-3.4,4.2C18.8,47.9,20.4,49.4,22.3,49.4"/>
		<polygon style="clip-path:url(#SVGID_00000075883604949282470320000009069709955428904087_);" points="40.9,48.3 42.7,39.5 
			44.8,39.5 42.1,50.8 39.7,50.8 37.8,42.2 35.9,50.8 33.4,50.8 30.7,39.5 32.9,39.5 34.8,48.2 36.6,39.5 39,39.5 		"/>
		<polygon style="clip-path:url(#SVGID_00000075883604949282470320000009069709955428904087_);" points="55.3,50.8 50.4,41.8 
			50.4,50.8 48.5,50.8 48.5,39.5 51.2,39.5 56.1,48.5 56.1,39.5 58.1,39.5 58.1,50.8 		"/>
		<polygon style="clip-path:url(#SVGID_00000075883604949282470320000009069709955428904087_);" points="65.3,41.2 61.7,41.2 
			61.7,39.5 71,39.5 71,41.2 67.4,41.2 67.4,50.8 65.3,50.8 		"/>
		<path style="clip-path:url(#SVGID_00000075883604949282470320000009069709955428904087_);" d="M79.1,51c-3.4,0-5.5-2.4-5.5-5.8
			c0-3.5,2.1-5.8,5.5-5.8c3.4,0,5.5,2.4,5.5,5.8C84.6,48.6,82.5,51,79.1,51 M79.1,49.4c1.9,0,3.4-1.5,3.4-4.2c0-2.7-1.5-4.2-3.4-4.2
			c-1.9,0-3.4,1.5-3.4,4.2C75.7,47.9,77.2,49.4,79.1,49.4"/>
		<polygon style="clip-path:url(#SVGID_00000075883604949282470320000009069709955428904087_);" points="97.8,48.3 99.5,39.5 
			101.7,39.5 99,50.8 96.6,50.8 94.6,42.2 92.7,50.8 90.3,50.8 87.6,39.5 89.8,39.5 91.6,48.2 93.5,39.5 95.8,39.5 		"/>
		<polygon style="clip-path:url(#SVGID_00000075883604949282470320000009069709955428904087_);" points="112.2,50.8 107.3,41.8 
			107.3,50.8 105.3,50.8 105.3,39.5 108,39.5 112.9,48.5 112.9,39.5 114.9,39.5 114.9,50.8 		"/>
		<path style="clip-path:url(#SVGID_00000075883604949282470320000009069709955428904087_);" d="M134.9,39.5c3.7,0,6.5,1.2,6.5,5.6
			c0,4.4-2.8,5.6-6.5,5.6h-3.2V39.5H134.9z M134.8,41.1h-1v8.1h1c2.2,0,4.5-0.5,4.5-4.1C139.3,41.6,137,41.1,134.8,41.1"/>
		<path style="clip-path:url(#SVGID_00000075883604949282470320000009069709955428904087_);" d="M147.5,39.5v6.6
			c0,2.1,0.6,3.2,2.7,3.2c2.1,0,2.7-1.2,2.7-3.3v-6.6h2V46c0,3.6-1.4,5-4.7,5c-3.3,0-4.7-1.3-4.7-4.9v-6.6H147.5z"/>
		<path style="clip-path:url(#SVGID_00000075883604949282470320000009069709955428904087_);" d="M159.4,39.5h4.4
			c2.1,0,4.2,0.6,4.2,2.9c0,1.1-0.6,2-1.3,2.4c1,0.4,1.7,1.1,1.7,2.6c0,2.4-2,3.3-4.3,3.3h-4.6V39.5z M161.5,44.2h2.5
			c1.2,0,1.9-0.5,1.9-1.6c0-1-0.8-1.5-1.9-1.5h-2.5V44.2z M161.5,49.2h2.7c1.4,0,2.2-0.6,2.2-1.8c0-1.1-0.7-1.7-2.3-1.7h-2.6V49.2z"
			/>
		<path style="clip-path:url(#SVGID_00000075883604949282470320000009069709955428904087_);" d="M175.6,39.5h2.1l4.3,11.3h-2.2
			l-0.9-2.5h-4.7l-0.9,2.5h-2.1L175.6,39.5z M174.9,46.7h3.5l-1.8-4.8L174.9,46.7z"/>
		
			<rect x="185.7" y="39.5" style="clip-path:url(#SVGID_00000075883604949282470320000009069709955428904087_);" width="2" height="11.3"/>
		<polygon style="clip-path:url(#SVGID_00000075883604949282470320000009069709955428904087_);" points="119.7,45.3 123.4,48.4 
			127,45.3 123.4,42.2 		"/>
	</g>
</g>
</svg>
