<?xml version="1.0" encoding="utf-8"?>
<!-- Generator: Adobe Illustrator 26.0.1, SVG Export Plug-In . SVG Version: 6.00 Build 0)  -->
<!DOCTYPE svg PUBLIC "-//W3C//DTD SVG 1.1//EN" "http://www.w3.org/Graphics/SVG/1.1/DTD/svg11.dtd" [
	<!ENTITY ns_extend "http://ns.adobe.com/Extensibility/1.0/">
	<!ENTITY ns_ai "http://ns.adobe.com/AdobeIllustrator/10.0/">
	<!ENTITY ns_graphs "http://ns.adobe.com/Graphs/1.0/">
	<!ENTITY ns_vars "http://ns.adobe.com/Variables/1.0/">
	<!ENTITY ns_imrep "http://ns.adobe.com/ImageReplacement/1.0/">
	<!ENTITY ns_sfw "http://ns.adobe.com/SaveForWeb/1.0/">
	<!ENTITY ns_custom "http://ns.adobe.com/GenericCustomNamespace/1.0/">
	<!ENTITY ns_adobe_xpath "http://ns.adobe.com/XPath/1.0/">
]>
<svg version="1.1" id="Layer_1" xmlns:x="&ns_extend;" xmlns:i="&ns_ai;" xmlns:graph="&ns_graphs;"
	 xmlns="http://www.w3.org/2000/svg" xmlns:xlink="http://www.w3.org/1999/xlink" x="0px" y="0px" viewBox="0 0 200 74.1"
	 style="enable-background:new 0 0 200 74.1;" xml:space="preserve">
<style type="text/css">
	.st0{fill:#808184;}
	.st1{clip-path:url(#SVGID_00000057144502142429648550000013449702667710417849_);}
	.st2{fill:#AC9C63;}
</style>
<metadata>
	<sfw  xmlns="&ns_sfw;">
		<slices></slices>
		<sliceSourceBounds  bottomLeftOrigin="true" height="185.2" width="1488.1" x="1.3" y="-70.2"></sliceSourceBounds>
	</sfw>
</metadata>
<g>
	<polygon class="st0" points="94.5,72.5 124.8,72.5 124.8,71.3 100.3,71.3 100.3,46.2 114.5,46.2 114.5,44.9 100.3,44.9 100.3,26.6 
		124.8,26.6 124.8,25.4 94.5,25.4 	"/>
	<path class="st0" d="M83.3,49c1.7-2.4,2.5-5,2.5-7.8s-0.8-5.5-2.5-7.9c-1.7-2.4-4-4.3-6.8-5.7c-2.8-1.4-6-2.1-9.4-2.1H51.5v47.1
		h5.2V26.4l10.3,0c2.4,0,4.6,0.1,6.6,1.4c2,1.3,3.6,3.2,4.8,5.5c1.2,2.3,1.8,4.9,1.8,7.8c0,1.9-0.3,3.6-0.8,5.2
		c-1.2,3.5-4.6,8.6-13.8,10.4c-0.2,0-0.4,0.1-0.6,0.1l-1.3,0.2c0.5-0.1,0.9-0.1,1.3-0.2c-0.7,0.1-1.2,0.2-1.3,0.2l18.6,15.4h4.5
		L68.9,57.7C78,56,81.6,51.3,83.3,49"/>
	<polygon class="st0" points="78.2,4.4 83.4,4.4 83.4,14.2 85,14.2 85,4.4 90.2,4.4 90.2,3.1 78.2,3.1 	"/>
	<polygon class="st0" points="97.4,9.2 105.3,9.2 105.3,14.2 107,14.2 107,3.1 105.3,3.1 105.3,7.9 97.4,7.9 97.4,3.1 95.8,3.1 
		95.8,14.2 97.4,14.2 	"/>
	<polygon class="st0" points="123.9,12.9 115.5,12.9 115.5,9.2 122.1,9.2 122.1,7.9 115.5,7.9 115.5,4.4 123.9,4.4 123.9,3.1 
		113.8,3.1 113.8,14.2 123.9,14.2 	"/>
	<path class="st0" d="M147.3,45.6c-1.6-0.8-3-1.5-4.3-2.2c-4.5-2.2-7.7-4-9.3-5.2c-1.7-1.3-2.5-2.9-2.4-4.8c0.1-2.1,1-3.7,2.8-5.3
		c1.8-1.6,3.9-2.4,6.3-2.4c1.8,0,3.3,0.2,4.7,0.7c1.4,0.5,6.2,2.3,8.5,6.5v-3.5l-0.2-0.1c-1.2-0.9-2.4-1.6-3.5-2.2
		c-1.1-0.6-2.4-1.1-3.9-1.4c-1.5-0.3-3.3-0.5-5.6-0.5c-1.5,0-3,0.3-4.7,0.8c-1.7,0.5-3.2,1.4-4.5,2.7c-1.3,1.3-2.2,3-2.7,5.2
		c-0.6,3.3,0.4,6.2,3.1,8.7c2.7,2.5,6.7,5.1,12.1,7.8c2,1,3.9,2.3,5.8,3.7c1.8,1.4,3.3,2.9,4.5,4.4c1.2,1.6,1.7,3.1,1.6,4.5
		c-0.1,2.1-0.8,3.9-2.1,5.2c-1.3,1.4-2.9,2.4-4.8,3c-1.9,0.7-3.7,0.7-5.5,0.7c-2.4,0-6.8-1.1-9.7-2.7c-0.3-0.2-0.7-0.4-1.1-0.7
		c-0.5-0.4-1-0.7-1.5-1.1c-1.8-1.5-3.4-3.4-5.2-6.3v3.9c1.2,1.2,2.6,2.4,4.2,3.6c1.7,1.2,3.2,2,5.4,2.9c2.3,0.8,4.9,1.2,7.9,1.2
		c2.6,0,4.9-0.4,7-1.3c2.1-0.9,3.9-2.1,5.3-3.5c1.4-1.5,2.4-3.1,3-4.8c0.9-3.4,0.2-6.7-2.1-9.7C154.1,50,151.1,47.5,147.3,45.6"/>
	<path class="st0" d="M26.9,25.1c-4.5,0-8.6,1.1-12.3,3.2c-3.7,2.2-6.7,5-8.9,8.6c-2.2,3.6-3.3,7.5-3.3,11.8c0,4.3,1.1,8.2,3.3,11.8
		c2.2,3.6,5.2,6.5,8.9,8.6c3.7,2.2,7.8,3.3,12.3,3.3c3,0,5.9-0.6,8.6-1.7c2.7-1.1,5.1-2.6,7.3-4.3v-6.8c-1,2.4-2.2,4.5-3.8,6.4
		c-1.6,1.9-3.4,3.3-5.4,4.4c-2.1,1.1-4.3,1.6-6.7,1.6c-3.5,0-6.6-1-9.3-3.1c-2.7-2.1-4.8-4.9-6.4-8.4C9.7,57,9,53.1,9,48.8
		c0-4.3,0.8-8.2,2.3-11.7c1.5-3.5,3.7-6.3,6.4-8.5c2.7-2.1,5.8-3.2,9.3-3.2c2.4,0,4.6,0.5,6.7,1.6c2.1,1.1,3.9,2.5,5.4,4.4
		c1.6,1.9,2.8,4,3.8,6.4v-6.8c-2.2-1.8-4.6-3.2-7.3-4.3C32.8,25.6,30,25.1,26.9,25.1"/>
	<polygon class="st0" points="182.8,25.5 182.8,25.5 182.6,25.5 180.3,25.5 174.9,25.5 172.3,25.5 156.5,25.5 156.5,26.6 
		175.1,26.6 174.8,72.5 180.4,72.5 180.6,26.6 199,26.6 199,25.5 	"/>
</g>
</svg>
