<?xml version="1.0" encoding="utf-8"?>
<!-- Generator: Adobe Illustrator 26.0.1, SVG Export Plug-In . SVG Version: 6.00 Build 0)  -->
<!DOCTYPE svg PUBLIC "-//W3C//DTD SVG 1.1//EN" "http://www.w3.org/Graphics/SVG/1.1/DTD/svg11.dtd" [
	<!ENTITY ns_extend "http://ns.adobe.com/Extensibility/1.0/">
	<!ENTITY ns_ai "http://ns.adobe.com/AdobeIllustrator/10.0/">
	<!ENTITY ns_graphs "http://ns.adobe.com/Graphs/1.0/">
	<!ENTITY ns_vars "http://ns.adobe.com/Variables/1.0/">
	<!ENTITY ns_imrep "http://ns.adobe.com/ImageReplacement/1.0/">
	<!ENTITY ns_sfw "http://ns.adobe.com/SaveForWeb/1.0/">
	<!ENTITY ns_custom "http://ns.adobe.com/GenericCustomNamespace/1.0/">
	<!ENTITY ns_adobe_xpath "http://ns.adobe.com/XPath/1.0/">
]>
<svg version="1.1" id="Layer_1" xmlns:x="&ns_extend;" xmlns:i="&ns_ai;" xmlns:graph="&ns_graphs;"
	 xmlns="http://www.w3.org/2000/svg" xmlns:xlink="http://www.w3.org/1999/xlink" x="0px" y="0px" viewBox="0 0 200 47.8"
	 style="enable-background:new 0 0 200 47.8;" xml:space="preserve">
<style type="text/css">
	.st0{fill:#808184;}
	.st1{clip-path:url(#SVGID_00000144304302791641844010000014951342640299255718_);}
	.st2{fill:#AC9C63;}
	.st3{fill:#038295;}
	
		.st4{clip-path:url(#SVGID_00000026135071607534376530000011537711038184973960_);fill:url(#SVGID_00000091711554641198802550000004116388860136849297_);}
	
		.st5{clip-path:url(#SVGID_00000065766462613592148050000016868509122305776017_);fill:url(#SVGID_00000168802628904128845190000002592042001000267927_);}
	
		.st6{clip-path:url(#SVGID_00000094615269825696902910000016775538587260367019_);fill:url(#SVGID_00000177474425440663671180000002485373446006285961_);}
	.st7{fill:url(#SVGID_00000109726136515408500420000014961847656189943431_);}
	.st8{fill:url(#SVGID_00000040535947474161536350000004569291976112357026_);}
	.st9{fill:url(#SVGID_00000065043588187341391820000002418536627814117776_);}
	.st10{fill:url(#SVGID_00000118378275986389897020000001997279016827148177_);}
	.st11{fill:url(#SVGID_00000084513105685719658350000000327486224782022841_);}
	.st12{fill:url(#SVGID_00000171707974320101739080000014933388623932840597_);}
	.st13{fill:url(#SVGID_00000111161151369538074450000001338238028724785323_);}
	.st14{fill:url(#SVGID_00000024696876422754774410000010205039304822631080_);}
	.st15{fill:url(#SVGID_00000142176181582368485560000015589282079317759397_);}
	.st16{fill:url(#SVGID_00000083066882868134189600000003103553446883842215_);}
	.st17{fill:url(#SVGID_00000162346946242650012390000013092695982436235172_);}
	.st18{fill:url(#SVGID_00000104696928399620798960000000612484882565973672_);}
	.st19{fill:url(#SVGID_00000049916265392881594620000000575048422692702356_);}
	.st20{fill:url(#SVGID_00000175301876274733413640000001834763095825786287_);}
	.st21{fill:url(#SVGID_00000145748908824728233520000013855170316246719372_);}
	.st22{fill:url(#SVGID_00000019676310068399217250000017242589423946813329_);}
	.st23{fill:url(#SVGID_00000122691282129427712130000010092778357693651389_);}
	.st24{fill:url(#SVGID_00000134961738363633849160000003524436133629043852_);}
	.st25{fill:url(#SVGID_00000125581229609735988900000012661905195014422200_);}
	.st26{fill:url(#SVGID_00000014609648116816060280000003020415611417697923_);}
	.st27{fill:url(#SVGID_00000091715405492621015930000015247807511901369748_);}
	.st28{fill:url(#SVGID_00000078765259921493941860000007780189255973829249_);}
	.st29{fill:url(#SVGID_00000034787870875439447150000007447679979727537063_);}
	.st30{fill:url(#SVGID_00000052783308637743076390000005664572443051929004_);}
	.st31{fill:url(#SVGID_00000029725303038868861030000004033289530950267814_);}
	.st32{fill:url(#SVGID_00000139972746520362849500000003365995653328906927_);}
	.st33{fill:url(#SVGID_00000124882733389801725050000011320297512275364744_);}
	.st34{fill:url(#SVGID_00000178924528594135553580000002153698918231470511_);}
	.st35{fill:url(#SVGID_00000068666622761618645780000001319972430787497122_);}
	.st36{fill:url(#SVGID_00000040542091074934860570000000140053740557714578_);}
	.st37{fill:url(#SVGID_00000160912434445844315160000016715149852069256089_);}
	.st38{fill:url(#SVGID_00000016066838513729348740000012608490370405580468_);}
	.st39{fill:url(#SVGID_00000149382109396187230690000004643627284688118149_);}
	.st40{fill:url(#SVGID_00000134958329175214753230000008860759480618052274_);}
	.st41{fill:url(#SVGID_00000067920334197426429130000005365950549104586113_);}
	.st42{fill:url(#SVGID_00000142170861534887820640000009848125160592068775_);}
	.st43{fill:url(#SVGID_00000029044917824872684020000001074326534935715976_);}
	.st44{fill:url(#SVGID_00000098221077776904553500000005314481063996267403_);}
	.st45{fill:url(#SVGID_00000115499137340944087750000013923855662796857765_);}
	.st46{fill:url(#SVGID_00000159439592227761257510000005713028077897759639_);}
	.st47{fill:url(#SVGID_00000033358815134128932940000003327204155742064056_);}
	.st48{fill:url(#SVGID_00000149364396127314155580000015808286271498459034_);}
	.st49{fill:url(#SVGID_00000031197909954137863410000007017084601316761502_);}
	.st50{fill:url(#SVGID_00000037694674355566527380000005315863036407724214_);}
	.st51{fill:url(#SVGID_00000088843295950304872500000014563179608365131445_);}
	.st52{fill:url(#SVGID_00000015324444159962283470000013887033266119607707_);}
	.st53{fill:url(#SVGID_00000127739742539901390450000001106743642484476317_);}
	.st54{fill:#6AC1D5;}
	.st55{fill:#73BAB2;}
	.st56{fill:url(#SVGID_00000103987017763309761800000006936659136760990338_);}
	.st57{fill:url(#SVGID_00000159469119393003170470000014698236431260341924_);}
	.st58{fill:url(#SVGID_00000177449600744345234690000000249905131409429178_);}
	.st59{fill:url(#SVGID_00000041977206923845384480000008869931762522052995_);}
	.st60{fill:url(#SVGID_00000041286224112243120240000003792666339076459945_);}
	.st61{fill:url(#SVGID_00000139255445728214638900000007601485615466319753_);}
	.st62{fill:url(#SVGID_00000016789550925406792620000014913023019535714989_);}
	.st63{fill:url(#SVGID_00000051376430645767439170000010059793486255349904_);}
	.st64{fill:url(#SVGID_00000098912874583708517510000007119749644539857071_);}
	.st65{fill:url(#SVGID_00000079470683646868681780000000169282208794172350_);}
	.st66{fill:url(#SVGID_00000152967812149480766620000005186509992941756319_);}
	.st67{fill:url(#SVGID_00000088112534821185249600000006200129039909541529_);}
	.st68{fill:url(#SVGID_00000137830182811213021490000008810297041212673950_);}
	.st69{fill:url(#SVGID_00000132773560522254798440000007877479253528098748_);}
	.st70{fill:url(#SVGID_00000010991483974683143930000005921566155845712571_);}
	.st71{fill:url(#SVGID_00000142163350708831968500000016875648121929650323_);}
	.st72{fill:url(#SVGID_00000013873740730963958560000013745837763944628355_);}
	.st73{fill:url(#SVGID_00000035529586227288683270000007185896689846159275_);}
	.st74{fill:url(#SVGID_00000132778615384750600180000003223781409026497440_);}
	.st75{fill:url(#SVGID_00000095337018374197767550000013099429231567008908_);}
	.st76{fill:url(#SVGID_00000178927077696084588790000013784595998690281661_);}
	.st77{fill:url(#SVGID_00000115509418138248234000000004451659477945007287_);}
	.st78{fill:url(#SVGID_00000072999410328183220700000007438428375932140683_);}
	.st79{fill:url(#SVGID_00000078726754404223788720000010233759132841285531_);}
	.st80{fill:url(#SVGID_00000011748565701261693710000008752645270685269395_);}
	.st81{fill:url(#SVGID_00000022545547857986001010000014171539775575952268_);}
	.st82{fill:url(#SVGID_00000086660883606946106260000011764518558390218171_);}
	.st83{fill:url(#SVGID_00000109710422464252395380000010920982269534067610_);}
	.st84{fill:url(#SVGID_00000111182618995123503680000001130737029092704386_);}
	.st85{fill:url(#SVGID_00000101796983660741453030000005129671581987716259_);}
	.st86{fill:url(#SVGID_00000128469763851060917530000007912059149807179706_);}
	.st87{fill:url(#SVGID_00000174587179157801126490000007161735737339372464_);}
	.st88{fill:url(#SVGID_00000159439728942980913880000000273377391687058623_);}
	.st89{fill:url(#SVGID_00000183948292351395085580000016502650719820938943_);}
	.st90{fill:#004F54;}
	.st91{fill-rule:evenodd;clip-rule:evenodd;fill:#065055;}
</style>
<metadata>
	<sfw  xmlns="&ns_sfw;">
		<slices></slices>
		<sliceSourceBounds  bottomLeftOrigin="true" height="536.8" width="2527.3" x="0.4" y="-381.9"></sliceSourceBounds>
	</sfw>
</metadata>
<g>
	
		<linearGradient id="SVGID_00000118361360428151401010000013224681756179366550_" gradientUnits="userSpaceOnUse" x1="0.4787" y1="14.3281" x2="23.2691" y2="14.3281">
		<stop  offset="0" style="stop-color:#41B97E"/>
		<stop  offset="0.5" style="stop-color:#53C3BF"/>
		<stop  offset="0.9053" style="stop-color:#45BB8B"/>
		<stop  offset="1" style="stop-color:#41B97E"/>
	</linearGradient>
	<path style="fill:url(#SVGID_00000118361360428151401010000013224681756179366550_);" d="M20.7,5.2c-0.5-0.4-1.1-0.8-1.8-1.1
		c-0.6-0.3-1.4-0.6-2.2-0.8c-0.8-0.2-1.6-0.3-2.5-0.3c-1.5,0-2.8,0.2-4.1,0.7C8.9,4.2,7.8,4.9,6.9,5.8C6,6.7,5.3,7.9,4.7,9.3
		c-0.5,1.4-0.8,3.1-0.8,5.1c0,1.7,0.2,3.3,0.7,4.7c0.5,1.4,1.2,2.6,2.1,3.5c0.9,1,2,1.7,3.3,2.2c1.3,0.5,2.8,0.8,4.4,0.8
		c0.5,0,1,0,1.6-0.1c0.5,0,1.1-0.1,1.6-0.2c0.5-0.1,1-0.2,1.4-0.4c0.4-0.1,0.8-0.3,1.1-0.5c0-0.7,0-1.4,0.1-2.1c0-0.7,0-1.4,0-2.2
		c0-0.8,0-1.6-0.1-2.5c0-0.8-0.1-1.6-0.1-2.4c0.6,0.1,1.2,0.2,1.7,0.2c0.3,0,0.5,0,0.8,0c0.3,0,0.5-0.1,0.7-0.1
		c0,0.5-0.1,1.4-0.1,2.6c0,1.2,0,2.7,0,4.6c0,0.5,0,0.9,0,1.4c0,0.5,0,1,0,1.4c-0.5,0.2-1.1,0.4-1.9,0.6c-0.7,0.2-1.5,0.4-2.4,0.5
		c-0.8,0.1-1.7,0.2-2.5,0.4c-0.8,0.1-1.6,0.2-2.3,0.2c-2.1,0-4-0.3-5.7-0.8c-1.7-0.5-3.1-1.3-4.3-2.3c-1.2-1.1-2.1-2.4-2.7-4
		c-0.6-1.6-1-3.4-1-5.5c0-2,0.3-3.8,1-5.3c0.7-1.6,1.6-2.9,2.8-4C5.5,4,6.9,3.2,8.6,2.6c1.7-0.6,3.6-0.8,5.7-0.8
		c1.2,0,2.3,0.1,3.2,0.2c0.9,0.1,1.8,0.3,2.5,0.5c0.7,0.2,1.3,0.4,1.9,0.7c0.5,0.2,1,0.5,1.4,0.7c-0.2,0.3-0.4,0.8-0.5,1.3
		c-0.2,0.5-0.3,1-0.3,1.4H22C21.7,6.1,21.2,5.7,20.7,5.2z"/>
	
		<linearGradient id="SVGID_00000014607186851723403090000006861851391115819455_" gradientUnits="userSpaceOnUse" x1="27.2908" y1="14.3281" x2="53.7149" y2="14.3281">
		<stop  offset="0" style="stop-color:#41B97E"/>
		<stop  offset="0.5" style="stop-color:#53C3BF"/>
		<stop  offset="0.9053" style="stop-color:#45BB8B"/>
		<stop  offset="1" style="stop-color:#41B97E"/>
	</linearGradient>
	<path style="fill:url(#SVGID_00000014607186851723403090000006861851391115819455_);" d="M28.3,9c0.6-1.6,1.6-2.9,2.7-4
		c1.2-1.1,2.6-1.9,4.2-2.5c1.6-0.6,3.4-0.8,5.3-0.8c2,0,3.7,0.3,5.4,0.8c1.6,0.6,3,1.4,4.2,2.5c1.2,1.1,2.1,2.4,2.7,4
		c0.6,1.6,1,3.3,1,5.3c0,2-0.3,3.8-1,5.3c-0.6,1.6-1.6,2.9-2.7,4c-1.2,1.1-2.6,1.9-4.2,2.4c-1.6,0.5-3.4,0.8-5.4,0.8
		c-1.9,0-3.7-0.3-5.3-0.8c-1.6-0.5-3-1.3-4.2-2.4c-1.2-1.1-2.1-2.4-2.7-4c-0.6-1.6-1-3.3-1-5.3C27.3,12.4,27.6,10.6,28.3,9z
		 M49.5,9.3c-0.5-1.4-1.2-2.6-2.1-3.5c-0.9-0.9-1.9-1.6-3.1-2.1c-1.2-0.4-2.5-0.7-3.9-0.7c-1.4,0-2.6,0.2-3.8,0.7
		c-1.2,0.4-2.2,1.1-3.1,2.1c-0.9,0.9-1.6,2.1-2.1,3.5c-0.5,1.4-0.7,3.1-0.7,5.1c0,2,0.2,3.6,0.7,5.1c0.5,1.4,1.2,2.6,2.1,3.5
		c0.9,0.9,1.9,1.6,3.1,2.1c1.2,0.4,2.5,0.7,3.8,0.7c1.4,0,2.7-0.2,3.9-0.7c1.2-0.4,2.2-1.1,3.1-2.1c0.9-0.9,1.6-2.1,2.1-3.5
		c0.5-1.4,0.7-3.1,0.7-5.1C50.3,12.4,50,10.7,49.5,9.3z"/>
	
		<linearGradient id="SVGID_00000045611189409336556910000004792433759042687892_" gradientUnits="userSpaceOnUse" x1="58.3713" y1="14.3282" x2="71.3893" y2="14.3282">
		<stop  offset="0" style="stop-color:#41B97E"/>
		<stop  offset="0.5" style="stop-color:#53C3BF"/>
		<stop  offset="0.9053" style="stop-color:#45BB8B"/>
		<stop  offset="1" style="stop-color:#41B97E"/>
	</linearGradient>
	<path style="fill:url(#SVGID_00000045611189409336556910000004792433759042687892_);" d="M58.6,6.8c-0.1-1.5-0.1-3-0.2-4.6
		c0.3,0,0.6,0.1,0.9,0.1s0.6,0.1,0.8,0.1c0.3,0,0.6,0,0.8-0.1s0.6-0.1,0.9-0.1c-0.1,1.6-0.1,3.1-0.2,4.6c-0.1,1.5-0.1,3-0.1,4.6
		c0,3,0,5.5,0,7.7c0,2.2,0,4.1,0.1,5.8c1.7,0,3.3,0,4.8-0.1c1.5,0,3.2-0.2,4.9-0.4c-0.1,0.4-0.2,0.8-0.2,1.1c0,0.3,0.1,0.6,0.2,1
		c-1.1,0-2.2-0.1-3.2-0.1c-1.1,0-2.2,0-3.2,0c-1.1,0-2.2,0-3.3,0c-1,0-2.1,0-3.3,0.1c0.1-1.5,0.1-2.9,0.2-4.4c0.1-1.5,0.1-3,0.1-4.6
		v-6.1C58.7,9.8,58.6,8.3,58.6,6.8z"/>
	
		<linearGradient id="SVGID_00000065773909566233757870000017598620285109632170_" gradientUnits="userSpaceOnUse" x1="76.011" y1="14.3282" x2="89.0643" y2="14.3282">
		<stop  offset="0" style="stop-color:#41B97E"/>
		<stop  offset="0.5" style="stop-color:#53C3BF"/>
		<stop  offset="0.9053" style="stop-color:#45BB8B"/>
		<stop  offset="1" style="stop-color:#41B97E"/>
	</linearGradient>
	<path style="fill:url(#SVGID_00000065773909566233757870000017598620285109632170_);" d="M76.2,6.8c-0.1-1.5-0.1-3-0.2-4.6
		c1.1,0,2.1,0.1,3.2,0.1c1,0,2.1,0.1,3.2,0.1c1.1,0,2.1,0,3.2-0.1c1.1,0,2.3-0.1,3.5-0.1C89,2.6,89,2.9,89,3.3s0,0.7,0.1,1.1
		c-0.6-0.1-1.4-0.1-2.3-0.2C85.9,4.1,85,4,84,4c-0.9,0-1.8-0.1-2.7-0.1c-0.9,0-1.6,0-2.1,0c0,0.8,0,1.6-0.1,2.4c0,0.8,0,1.5,0,2.3
		c0,0.8,0,1.6,0,2.3c0,0.7,0,1.4,0,2.2c1.6,0,3.1,0,4.6-0.1c1.5,0,3-0.1,4.5-0.3c-0.1,0.4-0.1,0.7-0.1,1.1c0,0.4,0,0.7,0.1,1.1
		c-0.6-0.1-1.3-0.1-2-0.2c-0.7,0-1.5-0.1-2.3-0.1c-0.8,0-1.6,0-2.4,0c-0.8,0-1.6,0-2.4,0v3c0,1.6,0,3.1,0.1,4.6
		c0.1,1.5,0.1,3,0.2,4.4c-0.5,0-1.1-0.1-1.7-0.1c-0.6,0-1.2,0-1.7,0.1c0.1-1.5,0.1-2.9,0.2-4.4c0.1-1.5,0.1-3,0.1-4.6v-6.1
		C76.3,9.8,76.3,8.3,76.2,6.8z"/>
	
		<linearGradient id="SVGID_00000078748407161180881690000007832382528596805278_" gradientUnits="userSpaceOnUse" x1="97.6723" y1="14.3282" x2="120.0038" y2="14.3282">
		<stop  offset="0" style="stop-color:#41B97E"/>
		<stop  offset="0.5" style="stop-color:#53C3BF"/>
		<stop  offset="0.9053" style="stop-color:#45BB8B"/>
		<stop  offset="1" style="stop-color:#41B97E"/>
	</linearGradient>
	<path style="fill:url(#SVGID_00000078748407161180881690000007832382528596805278_);" d="M105.5,21.4c-0.8-2-1.6-4-2.5-6.2
		c-0.9-2.2-1.8-4.4-2.7-6.6c-0.9-2.3-1.8-4.4-2.7-6.4c0.3,0,0.6,0.1,1,0.1c0.3,0,0.6,0.1,0.9,0.1c0.3,0,0.6,0,0.9-0.1
		c0.3,0,0.6-0.1,1-0.1c0.5,1.6,1.1,3.2,1.7,4.9c0.6,1.7,1.3,3.4,2,5.2c0.7,1.8,1.4,3.6,2.1,5.4c0.7,1.8,1.5,3.6,2.2,5.4
		c0.4-1,0.9-2,1.4-3.2c0.5-1.2,1-2.4,1.5-3.7c0.5-1.3,1-2.6,1.5-3.9c0.5-1.3,1-2.6,1.4-3.8c0.5-1.2,0.9-2.4,1.3-3.4
		c0.4-1.1,0.7-2,1-2.8c0.5,0.1,1,0.2,1.3,0.2c0.4,0,0.8-0.1,1.3-0.2c-1.8,4.1-3.6,8.1-5.3,12.2c-1.7,4-3.3,8-4.9,12.1
		c-0.4,0-0.8-0.1-1.2-0.1c-0.5,0-0.9,0-1.2,0.1C107,25.1,106.3,23.4,105.5,21.4z"/>
	
		<linearGradient id="SVGID_00000013877487571003508760000003442023550470511260_" gradientUnits="userSpaceOnUse" x1="123.7785" y1="14.3282" x2="127.2358" y2="14.3282">
		<stop  offset="0" style="stop-color:#41B97E"/>
		<stop  offset="0.5" style="stop-color:#53C3BF"/>
		<stop  offset="0.9053" style="stop-color:#45BB8B"/>
		<stop  offset="1" style="stop-color:#41B97E"/>
	</linearGradient>
	<path style="fill:url(#SVGID_00000013877487571003508760000003442023550470511260_);" d="M124,6.8c-0.1-1.5-0.1-3-0.2-4.6
		c0.3,0,0.6,0.1,0.9,0.1c0.3,0,0.6,0.1,0.8,0.1c0.3,0,0.6,0,0.8-0.1c0.3,0,0.6-0.1,0.9-0.1c-0.1,1.6-0.1,3.1-0.2,4.6
		c-0.1,1.5-0.1,3-0.1,4.6v6.1c0,1.6,0,3.1,0.1,4.6c0.1,1.5,0.1,3,0.2,4.4c-0.5,0-1.1-0.1-1.7-0.1c-0.6,0-1.2,0-1.7,0.1
		c0.1-1.5,0.1-2.9,0.2-4.4c0.1-1.5,0.1-3,0.1-4.6v-6.1C124.1,9.8,124,8.3,124,6.8z"/>
	
		<linearGradient id="SVGID_00000152226160770165067010000016602940937724275630_" gradientUnits="userSpaceOnUse" x1="133.586" y1="14.3282" x2="146.3571" y2="14.3282">
		<stop  offset="0" style="stop-color:#41B97E"/>
		<stop  offset="0.5" style="stop-color:#53C3BF"/>
		<stop  offset="0.9053" style="stop-color:#45BB8B"/>
		<stop  offset="1" style="stop-color:#41B97E"/>
	</linearGradient>
	<path style="fill:url(#SVGID_00000152226160770165067010000016602940937724275630_);" d="M133.8,6.7c-0.1-1.5-0.1-3-0.2-4.5
		c1.1,0,2.1,0.1,3.2,0.1c1,0,2.1,0.1,3.2,0.1s2.1,0,3.1-0.1c1,0,2.1-0.1,3.1-0.1c-0.1,0.4-0.1,0.7-0.1,1.1s0,0.7,0.1,1.1
		c-0.8,0-1.4-0.1-2.1-0.1c-0.6,0-1.3-0.1-2-0.1c-0.7,0-1.5-0.1-2.3-0.1c-0.8,0-1.8-0.1-3-0.1c0,0.8-0.1,1.5-0.1,2.2
		c0,0.7-0.1,1.5-0.1,2.3c0,0.9,0,1.8,0,2.7c0,0.9,0,1.5,0,2c1,0,2,0,2.8,0c0.8,0,1.6-0.1,2.3-0.1c0.7,0,1.3-0.1,1.9-0.1
		c0.6,0,1.1-0.1,1.6-0.1c-0.1,0.4-0.1,0.7-0.1,1.1c0,0.4,0,0.7,0.1,1.1c-0.6-0.1-1.3-0.1-2.1-0.2c-0.8,0-1.6-0.1-2.4-0.1
		c-0.8,0-1.6,0-2.3,0c-0.7,0-1.3,0-1.7,0c0,0.2,0,0.4,0,0.7c0,0.2,0,0.6,0,0.9v1.4v2.1c0,1.3,0,2.4,0,3.3c0,0.9,0,1.5,0.1,2
		c0.8,0,1.6,0,2.5,0c0.9,0,1.8,0,2.6-0.1c0.9,0,1.7-0.1,2.4-0.1c0.8-0.1,1.4-0.1,2-0.3c0,0.2-0.1,0.3-0.1,0.5c0,0.2,0,0.4,0,0.5
		c0,0.4,0,0.7,0.1,0.9c-1.1,0-2.1-0.1-3.2-0.1c-1,0-2.1,0-3.2,0c-1.1,0-2.2,0-3.2,0s-2.1,0-3.2,0.1c0.1-1.5,0.1-3,0.2-4.5
		c0.1-1.5,0.1-3,0.1-4.6v-6.1C133.9,9.8,133.8,8.2,133.8,6.7z"/>
	
		<linearGradient id="SVGID_00000165215527502729664450000004238098727357190567_" gradientUnits="userSpaceOnUse" x1="148.5094" y1="14.3282" x2="182.8713" y2="14.3282">
		<stop  offset="0" style="stop-color:#41B97E"/>
		<stop  offset="0.5" style="stop-color:#53C3BF"/>
		<stop  offset="0.9053" style="stop-color:#45BB8B"/>
		<stop  offset="1" style="stop-color:#41B97E"/>
	</linearGradient>
	<path style="fill:url(#SVGID_00000165215527502729664450000004238098727357190567_);" d="M155.3,23.7c-0.4-1.3-0.8-2.7-1.3-4.3
		c-0.5-1.6-1-3.3-1.6-5c-0.5-1.8-1.1-3.4-1.6-5c-0.5-1.6-0.9-3-1.4-4.3c-0.4-1.3-0.7-2.2-1-2.8c0.3,0,0.6,0.1,0.9,0.1
		c0.3,0,0.6,0.1,0.9,0.1s0.6,0,0.9-0.1s0.6-0.1,0.9-0.1c0.4,1.8,0.9,3.5,1.3,5c0.4,1.6,0.9,3.2,1.4,4.8c0.5,1.6,1,3.3,1.6,5.1
		c0.6,1.8,1.2,3.8,1.9,6h0.1c0.2-0.6,0.5-1.5,0.9-2.6c0.4-1.1,0.8-2.4,1.2-3.7c0.4-1.4,0.9-2.8,1.4-4.2c0.5-1.5,1-2.9,1.4-4.2
		c0.4-1.3,0.8-2.5,1.1-3.6c0.3-1.1,0.6-1.9,0.7-2.5c0.5,0.1,0.9,0.2,1.2,0.2c0.3,0,0.7-0.1,1.2-0.2c0.2,0.6,0.4,1.5,0.8,2.6
		c0.3,1.1,0.7,2.3,1.1,3.7c0.4,1.4,0.9,2.8,1.4,4.2c0.5,1.5,0.9,2.9,1.4,4.2c0.4,1.3,0.9,2.6,1.2,3.6c0.4,1.1,0.7,1.9,0.9,2.5h0.1
		c0.2-0.5,0.4-1.3,0.8-2.4c0.3-1.1,0.7-2.3,1.2-3.7c0.4-1.4,0.9-2.8,1.3-4.3c0.5-1.5,0.9-3,1.3-4.3c0.4-1.4,0.8-2.6,1.1-3.7
		c0.3-1.1,0.5-1.9,0.7-2.4c0.2,0,0.4,0.1,0.6,0.1c0.2,0,0.4,0.1,0.6,0.1c0.2,0,0.4,0,0.6-0.1c0.2,0,0.4-0.1,0.6-0.1
		c-0.2,0.5-0.6,1.4-1,2.7c-0.4,1.2-0.9,2.7-1.5,4.3c-0.6,1.6-1.1,3.3-1.7,5.1c-0.6,1.8-1.2,3.5-1.7,5.1c-0.6,1.6-1,3.1-1.5,4.3
		c-0.4,1.3-0.8,2.2-1,2.8c-0.4,0-0.8-0.1-1.2-0.1c-0.4,0-0.8,0-1.2,0.1c-1.1-3.3-2.1-6.6-3.1-9.9c-1-3.3-2.2-6.7-3.4-10.2h-0.1
		c-0.2,0.5-0.4,1.3-0.8,2.2c-0.3,0.9-0.7,1.9-1.1,3.1c-0.4,1.1-0.8,2.3-1.3,3.6c-0.4,1.3-0.9,2.6-1.3,3.9c-0.4,1.3-0.9,2.6-1.3,3.9
		c-0.4,1.3-0.8,2.4-1.2,3.5c-0.4,0-0.8-0.1-1.2-0.1c-0.4,0-0.9,0-1.2,0.1C155.9,25.9,155.7,24.9,155.3,23.7z"/>
	
		<linearGradient id="SVGID_00000106858277804692724980000018287138479807326392_" gradientUnits="userSpaceOnUse" x1="184.9172" y1="14.3281" x2="199.3816" y2="14.3281">
		<stop  offset="0" style="stop-color:#41B97E"/>
		<stop  offset="0.5" style="stop-color:#53C3BF"/>
		<stop  offset="0.9053" style="stop-color:#45BB8B"/>
		<stop  offset="1" style="stop-color:#41B97E"/>
	</linearGradient>
	<path style="fill:url(#SVGID_00000106858277804692724980000018287138479807326392_);" d="M186.8,23.1c0.3,0.4,0.7,0.8,1.2,1.2
		c0.5,0.4,1,0.6,1.6,0.9c0.6,0.2,1.3,0.3,2,0.3c0.8,0,1.5-0.1,2.1-0.4c0.6-0.3,1.2-0.6,1.6-1.1c0.4-0.5,0.8-1,1-1.6
		c0.2-0.6,0.4-1.3,0.4-2c0-1.1-0.3-1.9-0.8-2.6c-0.6-0.6-1.2-1.2-2.1-1.6c-0.8-0.4-1.7-0.8-2.7-1.2c-1-0.4-1.8-0.8-2.7-1.3
		c-0.8-0.5-1.5-1.2-2.1-2c-0.6-0.8-0.8-1.9-0.8-3.3c0-1,0.2-1.9,0.5-2.7c0.4-0.8,0.9-1.5,1.5-2.1c0.7-0.6,1.5-1,2.4-1.4
		c0.9-0.3,2-0.5,3.2-0.5c1.1,0,2.1,0.1,2.9,0.4c0.8,0.3,1.6,0.7,2.3,1.3c-0.2,0.4-0.4,0.8-0.5,1.3c-0.1,0.4-0.3,1-0.4,1.7H197
		c-0.1-0.3-0.3-0.7-0.5-1.1c-0.2-0.4-0.5-0.7-0.8-1.1c-0.3-0.3-0.7-0.6-1.2-0.8c-0.5-0.2-1-0.3-1.7-0.3c-0.7,0-1.3,0.1-1.8,0.3
		c-0.6,0.2-1,0.5-1.4,0.9c-0.4,0.4-0.7,0.9-1,1.4c-0.2,0.5-0.3,1.1-0.3,1.8c0,1.1,0.3,2,0.8,2.6c0.6,0.6,1.2,1.2,2.1,1.6
		c0.8,0.4,1.7,0.8,2.7,1.2c1,0.3,1.8,0.8,2.7,1.3c0.8,0.5,1.5,1.1,2.1,1.9c0.6,0.8,0.8,1.8,0.8,3.1c0,1.1-0.2,2.1-0.6,3.1
		c-0.4,1-1,1.8-1.7,2.5c-0.7,0.7-1.6,1.3-2.7,1.7c-1.1,0.4-2.3,0.6-3.7,0.6c-1.5,0-2.6-0.2-3.5-0.6c-0.9-0.4-1.7-0.8-2.3-1.3
		c0.2-0.5,0.4-1,0.4-1.5c0.1-0.4,0.2-1,0.2-1.7h0.4C186.2,22.3,186.5,22.7,186.8,23.1z"/>
</g>
<g>
	<polygon points="30.1,37 30.1,47.5 38,47.5 38,46.8 32,46.8 32,42.1 36,42.1 36,41.4 32,41.4 32,37.7 38,37.7 38,37 	"/>
	<polygon points="52.8,37 48.5,45 48.4,45 44,37 42.1,37 42.1,47.5 42.9,47.5 42.9,39 43,39 47.7,47.5 48.1,47.5 52.7,38.9 
		52.8,38.9 52.8,47.5 54.7,47.5 54.7,37 	"/>
	<path d="M63.6,36.8l-5.4,10.7h1l1.8-3.5h4.8l1.7,3.5h1.9l-5.3-10.7H63.6z M63.4,39.2l2.1,4.1h-4.2L63.4,39.2z"/>
	<path d="M76.9,36.8l-5.4,10.7h1l1.8-3.5h4.8l1.7,3.5h1.9l-5.3-10.7H76.9z M76.7,39.2l2.1,4.1h-4.2L76.7,39.2z"/>
	<path d="M86.2,37h3.9c0.7,0,1.3,0.1,1.8,0.2c0.5,0.1,0.9,0.3,1.3,0.6c0.3,0.2,0.6,0.5,0.8,0.9c0.2,0.3,0.3,0.7,0.3,1.1
		c0,0.3-0.1,0.6-0.2,0.9c-0.1,0.3-0.3,0.5-0.6,0.8c-0.2,0.2-0.5,0.4-0.9,0.6c-0.3,0.2-0.7,0.3-1.1,0.4l4.1,5.1h-2.2l-3.9-4.9h-1.3
		v4.9h-1.9V37z M88.1,42h1.1c0.4,0,0.8-0.1,1.2-0.2c0.4-0.1,0.7-0.3,0.9-0.4c0.3-0.2,0.5-0.4,0.6-0.7c0.1-0.3,0.2-0.6,0.2-0.9
		c0-0.3-0.1-0.6-0.2-0.9c-0.1-0.3-0.3-0.5-0.5-0.7c-0.2-0.2-0.5-0.3-0.8-0.4c-0.3-0.1-0.6-0.2-1-0.2h-1.7V42z"/>
	<path d="M108.9,47c0.3,0,0.6,0,0.8-0.1c0.3-0.1,0.5-0.2,0.7-0.3c0.2-0.1,0.4-0.3,0.5-0.5c0.1-0.2,0.2-0.4,0.2-0.7
		c0-0.3-0.1-0.6-0.3-0.9c-0.2-0.2-0.4-0.5-0.7-0.7c-0.3-0.2-0.6-0.4-1-0.6c-0.4-0.2-0.8-0.4-1.1-0.6c-0.4-0.2-0.8-0.4-1.1-0.6
		c-0.4-0.2-0.7-0.4-1-0.7c-0.3-0.2-0.5-0.5-0.7-0.8c-0.2-0.3-0.3-0.7-0.3-1.1c0-0.4,0.1-0.8,0.2-1.1c0.2-0.3,0.4-0.6,0.7-0.9
		c0.3-0.2,0.7-0.4,1.2-0.6c0.5-0.1,1-0.2,1.6-0.2c1.1,0,1.9,0.2,2.5,0.6c0.6,0.4,1.1,1,1.3,1.8l-1,0.4c-0.1-0.3-0.3-0.6-0.4-0.9
		c-0.2-0.3-0.4-0.5-0.6-0.7c-0.2-0.2-0.5-0.3-0.8-0.4c-0.3-0.1-0.7-0.2-1.1-0.2c-0.4,0-0.7,0-0.9,0.1c-0.3,0.1-0.5,0.2-0.7,0.4
		c-0.2,0.1-0.3,0.3-0.4,0.5c-0.1,0.2-0.1,0.4-0.1,0.6c0,0.3,0.1,0.5,0.3,0.8c0.2,0.2,0.4,0.4,0.7,0.6c0.3,0.2,0.6,0.4,1,0.6
		c0.4,0.2,0.8,0.4,1.2,0.6c0.4,0.2,0.8,0.4,1.2,0.6c0.4,0.2,0.7,0.4,1,0.7c0.3,0.3,0.5,0.5,0.7,0.8c0.2,0.3,0.3,0.6,0.3,1
		c0,0.4-0.1,0.8-0.3,1.2c-0.2,0.4-0.4,0.7-0.8,1c-0.3,0.3-0.8,0.5-1.3,0.6c-0.5,0.2-1.1,0.2-1.8,0.2c-0.5,0-1-0.1-1.5-0.2
		c-0.4-0.1-0.8-0.3-1.1-0.5c-0.3-0.2-0.6-0.5-0.8-0.8c-0.2-0.3-0.4-0.7-0.6-1l1-0.4c0.1,0.3,0.3,0.6,0.5,0.9
		c0.2,0.3,0.4,0.5,0.7,0.7c0.3,0.2,0.6,0.3,0.9,0.4C108.2,47,108.6,47,108.9,47"/>
	<path d="M122.8,47.7c-0.6,0-1.1-0.1-1.7-0.2c-0.5-0.1-1-0.3-1.5-0.6c-0.5-0.2-0.9-0.5-1.3-0.9c-0.4-0.3-0.7-0.7-1-1.1
		c-0.3-0.4-0.5-0.9-0.6-1.3c-0.1-0.5-0.2-1-0.2-1.5c0-0.5,0.1-1,0.2-1.4c0.1-0.5,0.4-0.9,0.6-1.3c0.3-0.4,0.6-0.8,1-1.1
		c0.4-0.3,0.8-0.6,1.3-0.8c0.5-0.2,1-0.4,1.5-0.5c0.5-0.1,1.1-0.2,1.7-0.2c0.6,0,1.1,0.1,1.7,0.2c0.5,0.1,1,0.3,1.5,0.5
		c0.5,0.2,0.9,0.5,1.3,0.8c0.4,0.3,0.7,0.7,1,1.1c0.3,0.4,0.5,0.8,0.6,1.3c0.1,0.5,0.2,0.9,0.2,1.4c0,0.5-0.1,1-0.2,1.5
		c-0.1,0.5-0.4,0.9-0.6,1.3c-0.3,0.4-0.6,0.8-1,1.1c-0.4,0.3-0.8,0.6-1.3,0.9c-0.5,0.2-1,0.4-1.5,0.6
		C123.9,47.6,123.3,47.7,122.8,47.7 M122.8,47.2c0.6,0,1.2-0.1,1.7-0.4c0.5-0.3,0.9-0.6,1.3-1c0.3-0.4,0.6-1,0.8-1.6
		c0.2-0.6,0.3-1.3,0.3-2c0-0.7-0.1-1.4-0.3-2c-0.2-0.6-0.4-1.1-0.8-1.5c-0.3-0.4-0.8-0.8-1.3-1c-0.5-0.2-1.1-0.4-1.7-0.4
		c-0.7,0-1.2,0.1-1.7,0.4c-0.5,0.2-0.9,0.6-1.3,1c-0.3,0.4-0.6,0.9-0.8,1.5c-0.2,0.6-0.3,1.3-0.3,2c0,0.7,0.1,1.4,0.3,2
		c0.2,0.6,0.4,1.1,0.8,1.6c0.3,0.4,0.8,0.8,1.3,1C121.5,47.1,122.1,47.2,122.8,47.2"/>
	<path d="M133.1,37h1.9v6.8c0,0.4,0.1,0.9,0.2,1.3c0.2,0.4,0.4,0.7,0.7,1c0.3,0.3,0.7,0.5,1.1,0.7c0.4,0.2,0.9,0.3,1.5,0.3
		c0.5,0,1-0.1,1.5-0.3c0.4-0.2,0.8-0.4,1.1-0.7c0.3-0.3,0.5-0.6,0.7-1c0.2-0.4,0.2-0.8,0.2-1.3V37h0.8v6.8c0,0.5-0.1,1-0.3,1.5
		c-0.2,0.5-0.5,0.9-0.9,1.2c-0.4,0.4-0.9,0.6-1.5,0.8c-0.6,0.2-1.4,0.3-2.3,0.3c-0.8,0-1.5-0.1-2.1-0.3c-0.6-0.2-1.1-0.5-1.5-0.9
		c-0.4-0.4-0.7-0.8-0.9-1.3c-0.2-0.5-0.3-1-0.3-1.5V37z"/>
	<polygon points="146.5,37 146.5,37.7 150.6,37.7 150.6,47.5 152.5,47.5 152.5,37.7 156.5,37.7 156.5,37 	"/>
	<polygon points="167.9,37 167.9,41.8 162.2,41.8 162.2,37 160.3,37 160.3,47.5 162.2,47.5 162.2,42.4 167.9,42.4 167.9,47.5 
		169.8,47.5 169.8,37 	"/>
</g>
</svg>
