<?xml version="1.0" encoding="utf-8"?>
<!-- Generator: Adobe Illustrator 26.0.1, SVG Export Plug-In . SVG Version: 6.00 Build 0)  -->
<!DOCTYPE svg PUBLIC "-//W3C//DTD SVG 1.1//EN" "http://www.w3.org/Graphics/SVG/1.1/DTD/svg11.dtd" [
	<!ENTITY ns_extend "http://ns.adobe.com/Extensibility/1.0/">
	<!ENTITY ns_ai "http://ns.adobe.com/AdobeIllustrator/10.0/">
	<!ENTITY ns_graphs "http://ns.adobe.com/Graphs/1.0/">
	<!ENTITY ns_vars "http://ns.adobe.com/Variables/1.0/">
	<!ENTITY ns_imrep "http://ns.adobe.com/ImageReplacement/1.0/">
	<!ENTITY ns_sfw "http://ns.adobe.com/SaveForWeb/1.0/">
	<!ENTITY ns_custom "http://ns.adobe.com/GenericCustomNamespace/1.0/">
	<!ENTITY ns_adobe_xpath "http://ns.adobe.com/XPath/1.0/">
]>
<svg version="1.1" id="Layer_1" xmlns:x="&ns_extend;" xmlns:i="&ns_ai;" xmlns:graph="&ns_graphs;"
	 xmlns="http://www.w3.org/2000/svg" xmlns:xlink="http://www.w3.org/1999/xlink" x="0px" y="0px" viewBox="0 0 130.8 70"
	 style="enable-background:new 0 0 130.8 70;" xml:space="preserve">
<style type="text/css">
	.st0{fill:#5F705D;}
	.st1{fill:#010101;}
	.st2{fill:none;}
	.st3{fill:#B4D1BF;}
	.st4{fill:#AB926D;}
	.st5{fill:#A3925F;}
	.st6{fill:#006846;}
</style>
<metadata>
	<sfw  xmlns="&ns_sfw;">
		<slices></slices>
		<sliceSourceBounds  bottomLeftOrigin="true" height="414.6" width="1236" x="96.3" y="-355.7"></sliceSourceBounds>
	</sfw>
</metadata>
<g>
	<path class="st6" d="M9.5,69.8c-1.2,0-2.4-0.2-3.5-0.7c-1.1-0.5-2-1.1-2.8-1.9c-0.8-0.8-1.4-1.7-1.9-2.8c-0.5-1.1-0.7-2.3-0.7-3.5
		c0-1.2,0.2-2.3,0.7-3.4c0.5-1,1.1-1.9,1.9-2.7c0.8-0.8,1.8-1.4,2.8-1.8c1.1-0.4,2.2-0.6,3.3-0.6c1.2,0,2.4,0.2,3.5,0.7
		c1.1,0.5,2,1.1,2.8,1.9l0.2,0.2l-1.9,2.3l-0.3-0.3c-0.6-0.6-1.2-1-2-1.3c-0.7-0.3-1.5-0.5-2.4-0.5c-0.8,0-1.6,0.1-2.3,0.4
		c-0.7,0.3-1.3,0.7-1.9,1.2c-0.5,0.5-0.9,1.1-1.2,1.8c-0.3,0.7-0.4,1.5-0.4,2.3c0,0.8,0.2,1.5,0.5,2.2c0.3,0.7,0.7,1.3,1.3,1.8
		c0.5,0.5,1.2,0.9,1.9,1.2c0.7,0.3,1.4,0.4,2.2,0.4c0.8,0,1.5-0.1,2.1-0.4c0.6-0.2,1.2-0.6,1.6-1v-2.4h-1.9l-1.3-3h6.2v6.7l-0.1,0.1
		c-0.8,0.9-1.8,1.7-3,2.2C12.1,69.5,10.9,69.8,9.5,69.8"/>
	<path class="st6" d="M26.9,69.8c-1.2,0-2.4-0.2-3.5-0.7c-1.1-0.5-2-1.1-2.8-1.9c-0.8-0.8-1.4-1.7-1.9-2.8c-0.5-1.1-0.7-2.3-0.7-3.5
		c0-1.2,0.2-2.3,0.7-3.4c0.5-1,1.1-1.9,1.9-2.7c0.8-0.8,1.8-1.4,2.8-1.8c1.1-0.4,2.2-0.6,3.4-0.6c1.2,0,2.4,0.2,3.4,0.7
		c1.1,0.4,2,1.1,2.8,1.9c0.8,0.8,1.4,1.7,1.9,2.8c0.5,1.1,0.7,2.2,0.7,3.5c0,1.2-0.2,2.4-0.7,3.4c-0.5,1-1.1,2-1.9,2.7
		c-0.8,0.8-1.7,1.4-2.8,1.8C29.2,69.6,28.1,69.8,26.9,69.8 M26.9,55.5c-0.8,0-1.6,0.1-2.3,0.4c-0.7,0.3-1.3,0.7-1.9,1.2
		c-0.5,0.5-0.9,1.1-1.2,1.8c-0.3,0.7-0.4,1.5-0.4,2.3c0,0.8,0.2,1.5,0.5,2.2c0.3,0.7,0.7,1.3,1.3,1.8c0.5,0.5,1.2,0.9,1.9,1.2
		c0.7,0.3,1.4,0.4,2.2,0.4c0.8,0,1.6-0.1,2.3-0.4c0.7-0.3,1.3-0.7,1.8-1.2c0.5-0.5,0.9-1.1,1.3-1.8c0.3-0.7,0.5-1.4,0.5-2.3
		c0-0.8-0.2-1.6-0.5-2.2C32,58.1,31.6,57.5,31,57c-0.5-0.5-1.2-0.9-1.9-1.2C28.5,55.6,27.7,55.5,26.9,55.5"/>
	<polygon class="st6" points="37.8,52.9 37.8,69.5 49.5,69.5 49.5,66.4 40.8,66.4 40.8,52.9 	"/>
	<polygon class="st6" points="51.3,52.9 51.3,69.5 54.2,69.5 54.2,62.5 60.6,62.5 60.6,59.4 54.2,59.4 54.2,55.9 63,55.9 63,52.9 	
		"/>
	<path class="st6" d="M79,69.8c-1.2,0-2.4-0.2-3.5-0.7c-1.1-0.5-2-1.1-2.8-1.9c-0.8-0.8-1.4-1.7-1.9-2.8c-0.5-1.1-0.7-2.3-0.7-3.5
		c0-1.2,0.2-2.3,0.7-3.4c0.5-1,1.1-1.9,1.9-2.7c0.8-0.8,1.8-1.4,2.8-1.8c1.1-0.4,2.2-0.6,3.3-0.6c1.2,0,2.4,0.2,3.5,0.7
		c1.1,0.5,2,1.1,2.8,1.9l0.2,0.2l-1.9,2.3l-0.3-0.3c-0.6-0.6-1.2-1-2-1.3c-0.7-0.3-1.5-0.5-2.4-0.5c-0.8,0-1.6,0.1-2.3,0.4
		c-0.7,0.3-1.3,0.7-1.9,1.2c-0.5,0.5-0.9,1.1-1.2,1.8c-0.3,0.7-0.4,1.5-0.4,2.3c0,0.8,0.2,1.5,0.5,2.2c0.3,0.7,0.7,1.3,1.3,1.8
		c0.5,0.5,1.2,0.9,1.9,1.2c0.7,0.3,1.4,0.4,2.2,0.4c0.8,0,1.5-0.1,2.1-0.4c0.6-0.2,1.2-0.6,1.6-1v-2.4h-1.9l-1.3-3h6.2v6.7l-0.1,0.1
		c-0.8,0.9-1.8,1.7-3,2.2C81.6,69.5,80.3,69.8,79,69.8"/>
	<path class="st6" d="M103.5,69.5h-3.3l-1-2.3h-4.6c-0.7,0-1.3,0-1.8,0.1c-0.5,0.1-1,0.2-1.4,0.4c-0.4,0.1-0.7,0.3-0.9,0.5
		c-0.2,0.2-0.3,0.3-0.4,0.4l-0.5,0.9h-3.2l7-14.5l-1-2.3h3.3L103.5,69.5z M95,58.5l-2.7,6c0.2-0.1,0.4-0.1,0.6-0.2
		c0.7-0.2,1.6-0.3,2.7-0.3h2.3L95,58.5z"/>
	<polygon class="st6" points="101.1,52.9 101.1,55.9 106.7,55.9 106.7,69.5 109.6,69.5 109.6,55.9 115.1,55.9 115.1,52.9 	"/>
	<polygon class="st6" points="117,52.9 117,69.5 129.7,69.5 129.7,66.4 120,66.4 120,62.5 126.4,62.5 126.4,59.4 120,59.4 120,55.9 
		128.8,55.9 128.8,52.9 	"/>
	<path class="st6" d="M76.8,5.1c-6.8-6.2-17.4-6-23.9,0.6c-6.7,6.8-6.7,18,0,24.8l4.9-4.9c-4.1-4.1-4.1-10.9,0-15
		C61.6,6.7,67.9,6.4,72,10L76.8,5.1z M67.3,14.7l-5.9,6h14c-0.5,1.8-1.4,3.5-2.7,4.8L60.3,37.9l4.9,4.9l12.3-12.4
		c3.4-3.4,5.1-7.9,5.1-12.4c0-1.1-0.1-2.2-0.3-3.3H67.3z"/>
</g>
</svg>
