<?xml version="1.0" encoding="utf-8"?>
<!-- Generator: Adobe Illustrator 26.0.1, SVG Export Plug-In . SVG Version: 6.00 Build 0)  -->
<!DOCTYPE svg PUBLIC "-//W3C//DTD SVG 1.1//EN" "http://www.w3.org/Graphics/SVG/1.1/DTD/svg11.dtd" [
	<!ENTITY ns_extend "http://ns.adobe.com/Extensibility/1.0/">
	<!ENTITY ns_ai "http://ns.adobe.com/AdobeIllustrator/10.0/">
	<!ENTITY ns_graphs "http://ns.adobe.com/Graphs/1.0/">
	<!ENTITY ns_vars "http://ns.adobe.com/Variables/1.0/">
	<!ENTITY ns_imrep "http://ns.adobe.com/ImageReplacement/1.0/">
	<!ENTITY ns_sfw "http://ns.adobe.com/SaveForWeb/1.0/">
	<!ENTITY ns_custom "http://ns.adobe.com/GenericCustomNamespace/1.0/">
	<!ENTITY ns_adobe_xpath "http://ns.adobe.com/XPath/1.0/">
]>
<svg version="1.1" id="Layer_1" xmlns:x="&ns_extend;" xmlns:i="&ns_ai;" xmlns:graph="&ns_graphs;"
	 xmlns="http://www.w3.org/2000/svg" xmlns:xlink="http://www.w3.org/1999/xlink" x="0px" y="0px" viewBox="0 0 298.7 70"
	 style="enable-background:new 0 0 298.7 70;" xml:space="preserve">
<style type="text/css">
	.st0{fill:#5F705D;}
	.st1{fill:#010101;}
	.st2{fill:none;}
	.st3{fill:#B4D1BF;}
	.st4{fill:#AB926D;}
	.st5{fill:#A3925F;}
	.st6{fill:#006846;}
</style>
<metadata>
	<sfw  xmlns="&ns_sfw;">
		<slices></slices>
		<sliceSourceBounds  bottomLeftOrigin="true" height="414.6" width="1236" x="96.3" y="-355.7"></sliceSourceBounds>
	</sfw>
</metadata>
<g>
	<path class="st3" d="M133.9,64.9c0,2.2-1.2,3.1-2.8,3.1c-1.6,0-2.6-1-2.8-2.6h-1c0.2,2.2,1.7,3.5,3.8,3.5c2.1,0,3.8-1.3,3.8-4v-8.3
		h-1V64.9z"/>
	<path class="st3" d="M147.2,63.8c0,2.8-1.6,4.2-3.7,4.2c-2.1,0-3.6-1.3-3.6-4.2v-7.2h-1V64c0,3.3,2,5,4.6,5c2.6,0,4.7-1.6,4.7-5
		v-7.3h-1V63.8z"/>
	<polygon class="st3" points="160.4,66.7 153.3,56.6 152.3,56.6 152.3,68.7 153.3,68.7 153.3,58.2 160.7,68.7 161.4,68.7 
		161.4,56.6 160.4,56.6 	"/>
	<polygon class="st3" points="173.2,57.5 173.2,56.6 165.6,56.6 165.6,68.7 173.2,68.7 173.2,67.8 166.6,67.8 166.6,63 172.6,63 
		172.6,62 166.6,62 166.6,57.5 	"/>
	<path class="st3" d="M298,39.3H2.4v0.7H298V39.3z M269,3.3h-0.5h-3.1V22h2.8h0.9V3.3z M264.1,22V3.3h-2.8h-0.9V22h0.5H264.1z
		 M273,22l0.4,1.3h-4.9h-7.2h-4.9L256,22h3.1V3.3h-2.8L256,2h4.9h7.2h4.9l0.4,1.3h-3.1V22H273z M240,21.6h-8.7V13h7v-1.3h-7V3.6h8.1
		l-0.4-1.3H230v20.6h9.4L240,21.6z M50.1,3.6h-0.6v9.7c2.2-0.1,6.4-0.4,6.4-5.2C55.8,4.1,51.8,3.6,50.1,3.6 M49.4,22.7l-1.3,0.5V2.3
		h1.1c7,0,7.8,3.4,7.8,5.9c0,2.6-1.5,5.6-5.8,6.1l6.8,8l-1,0.8l-7.5-9.1V22.7z M70.9,12.1l-3.4-7.6l-3.3,7.6H70.9z M58,22.7l0.1-0.2
		l9.4-20.6l9.7,20.7L76,23.1l-4.5-9.8h-7.9l-4.3,9.8L58,22.7z M39.9,12.1l-3.4-7.6l-3.3,7.6H39.9z M28.2,23.1L27,22.7l0.1-0.2
		l9.4-20.6l9.7,20.7L45,23.1l-4.5-9.8h-7.9L28.2,23.1z M202.8,23.4c2.2,0,4.5-0.8,6.3-2.3l0.1-0.1l-0.8-0.9l-0.1,0.1
		c-1.9,1.3-3.3,2-5.5,2c-4.9,0-8.9-4.3-8.9-9.5c0-5.2,4-9.5,8.9-9.5c1.9,0,3.9,0.7,5.4,2l0.1,0.1l0.9-1l-0.1-0.1
		c-1.9-1.5-4.1-2.3-6.5-2.3c-5.6,0-10.1,4.8-10.1,10.8C192.6,18.7,197.1,23.4,202.8,23.4 M212.6,13.4h12.5v9.8l1.3-0.5V2.1l-1.3,0.5
		v9.5h-12.5v-10l-1.3,0.5v20.6l1.3-0.5V13.4z M165.3,12.1l-3.4-7.6l-3.3,7.6H165.3z M152.4,22.7l9.5-20.7l9.7,20.7l-1.2,0.5
		l-4.5-9.8h-7.9l-4.3,9.8L152.4,22.7z M245.4,23.4c3.6,0,5.5-3.1,5.5-6c0-3.5-2-4.6-4-5.3l-1.6-0.5c-2-0.7-3.1-2-3.1-4
		c0-2.2,1.2-4.5,3.9-4.5c1,0,1.9,0.1,3.5,1.7l0.1,0.1l0.9-1l-0.1-0.1c-0.7-0.7-2-2-4.5-2c-3,0-5.2,2.5-5.2,5.8
		c0,2.7,1.4,4.6,4.1,5.4l1.2,0.4c2.4,0.7,3.4,1.9,3.4,4.1c0,1.8-1.2,4.7-4.2,4.7c-2,0-3.2-1.6-3.9-2.5l-0.2-0.2l-0.8,0.9l-0.1,0.1
		l0.1,0.1C241.3,21.5,242.8,23.4,245.4,23.4 M144.5,3.6h-0.6v9.7c2.2-0.1,6.4-0.4,6.4-5.2C150.2,4.1,146.2,3.6,144.5,3.6
		 M143.8,22.7l-1.3,0.5V2.3h1.1c7,0,7.8,3.4,7.8,5.9c0,2.6-1.5,5.6-5.8,6.1l6.8,8l-1,0.8l-7.5-9.1V22.7z M82.8,21.6
		c2.8,0,4.5-1.5,4.5-4.1c0-3.2-2.6-4.3-5-4.3h-2.2v8.4H82.8z M82.7,11.9c2.6,0,4.4-1.8,4.4-4.3c0-3.5-3.1-3.9-4.5-3.9h-2.5v8.3H82.7
		z M82.8,22.9h-3.9V2.3h3.4c3.9,0,6.1,1.9,6.1,5.2c0,2.3-1.3,4.2-3.3,5c1.7,0.5,3.4,2.1,3.4,5C88.6,21.3,85.7,22.9,82.8,22.9
		 M92.6,2.1l-1.3,0.5v20.6l1.3-0.5V2.1z M107.3,12.1l-3.4-7.6l-3.3,7.6H107.3z M95.6,23.1l-1.2-0.5l0.1-0.2l9.4-20.6l9.7,20.7
		l-1.2,0.5l-4.5-9.8h-7.9L95.6,23.1z M174.7,5.1l15.2,18.5V2.1l-1.3,0.5v17.5L173.4,1.7v21.5l1.3-0.5V5.1z M116.7,22.7l-1.3,0.5V1.7
		l15.2,18.4V2.5l1.3-0.5v21.5L116.7,5.1V22.7z"/>
</g>
</svg>
