<?xml version="1.0" encoding="utf-8"?>
<!-- Generator: Adobe Illustrator 16.0.0, SVG Export Plug-In . SVG Version: 6.00 Build 0)  -->
<!DOCTYPE svg PUBLIC "-//W3C//DTD SVG 1.1//EN" "http://www.w3.org/Graphics/SVG/1.1/DTD/svg11.dtd">
<svg version="1.1" id="Layer_1" xmlns="http://www.w3.org/2000/svg" xmlns:xlink="http://www.w3.org/1999/xlink" x="0px" y="0px"
	 width="200px" height="70px" viewBox="0 0 200 70" enable-background="new 0 0 200 70" xml:space="preserve">
<rect x="-245.58" y="-411.938" fill="none" width="708.66" height="992.126"/>
<path d="M76.834,51.407H45.806v-1.244l0.415-0.059c0.119,0,0.275-0.029,0.474-0.09c0.196-0.059,0.522-0.215,0.977-0.474
	c0.454-0.256,0.858-0.562,1.214-0.917c0.355-0.355,0.67-0.878,0.947-1.569c0.275-0.69,0.415-1.471,0.415-2.339v-0.473h0.059
	l-0.059-27.298v-0.296c0-0.867-0.139-1.647-0.415-2.339c-0.277-0.69-0.592-1.214-0.947-1.569c-0.356-0.355-0.761-0.66-1.214-0.917
	c-0.455-0.258-0.78-0.415-0.977-0.475c-0.199-0.059-0.355-0.088-0.474-0.088l-0.415-0.06V9.959h30.968l2.25,10.48l-0.829,0.119
	c-0.474-1.579-1.234-2.972-2.28-4.175c-1.046-1.204-2.23-2.133-3.552-2.784c-1.323-0.65-2.655-1.125-3.997-1.421
	c-1.343-0.296-2.685-0.444-4.026-0.444h-4.085c-0.829,0-1.53,0.268-2.103,0.8c-0.572,0.533-0.858,1.175-0.858,1.925v13.026
	c0,0.513,0.127,0.977,0.385,1.392c0.256,0.414,0.612,0.75,1.066,1.006c0.453,0.259,0.957,0.385,1.51,0.385h2.665
	c1.578,0,3.009-0.641,4.292-1.923c1.282-1.283,1.925-2.911,1.925-4.886h0.888v14.447h-0.829v-0.06
	c-0.04-0.236-0.08-0.482-0.119-0.739c-0.04-0.257-0.139-0.66-0.296-1.214c-0.158-0.553-0.385-1.056-0.681-1.51
	c-0.296-0.454-0.662-0.918-1.096-1.392c-0.435-0.474-0.997-0.849-1.688-1.125c-0.691-0.276-1.491-0.414-2.398-0.414h-2.665
	c-0.829,0-1.53,0.276-2.103,0.828c-0.572,0.553-0.858,1.204-0.858,1.954v12.672c0,0.75,0.286,1.391,0.858,1.924
	c0.572,0.532,1.273,0.8,2.103,0.8h5.447c1.974,0,3.779-0.415,5.418-1.243c1.638-0.829,2.911-1.836,3.819-3.021
	c0.907-1.184,1.677-2.368,2.31-3.553c0.63-1.184,1.045-2.19,1.244-3.02l0.295-1.243h0.593L76.834,51.407z"/>
<path d="M91.164,45.959c0,1.62,0.296,2.754,0.889,3.405c0.591,0.65,1.184,0.977,1.776,0.977v0.712H81.157v-0.712
	c0.631,0,1.232-0.326,1.805-0.977c0.572-0.651,0.858-1.785,0.858-3.405v-11.96V11.406c0-0.867-0.099-1.606-0.296-2.219
	c-0.197-0.612-0.444-1.066-0.74-1.362c-0.296-0.296-0.583-0.503-0.859-0.622c-0.276-0.118-0.533-0.178-0.769-0.178V6.374
	l9.296-3.316c0.197-0.078,0.365-0.059,0.503,0.061c0.139,0.117,0.208,0.257,0.208,0.414V45.959z"/>
<path d="M105.554,45.959c0,1.62,0.295,2.754,0.889,3.405c0.592,0.65,1.184,0.977,1.775,0.977v0.712H95.545v-0.712
	c0.631,0,1.232-0.326,1.807-0.977c0.571-0.651,0.858-1.785,0.858-3.405v-11.96v-4.501c0-1.617-0.287-2.753-0.858-3.404
	c-0.574-0.651-1.176-0.978-1.807-0.978v-0.651l9.298-3.315c0.197-0.078,0.365-0.06,0.502,0.06c0.139,0.118,0.209,0.257,0.209,0.415
	V45.959z"/>
<path d="M125.153,49.749c1.025,0.118,2.131-0.178,3.314-0.888v1.421c-0.039,0.039-0.078,0.059-0.117,0.059
	c-0.039,0.04-0.08,0.06-0.119,0.06v0.06l-0.65,0.296c-0.158,0.08-0.287,0.139-0.385,0.178c-0.1,0.039-0.189,0.079-0.268,0.117
	c-1.105,0.436-2.191,0.652-3.256,0.652h-0.297h-0.236h-0.119h-0.117h-0.119h-0.117c-0.475-0.04-0.988-0.08-1.541-0.118
	c-0.395-0.079-0.672-0.119-0.828-0.119c-2.488-0.434-4.305-1.559-5.447-3.375c-1.105-1.578-1.658-3.572-1.658-5.979V23.519h-4.561
	v-0.414l11.902-8.113v7.283h7.697v1.244h-7.697l0.059,18.947C120.593,46.928,122.112,49.354,125.153,49.749"/>
<path d="M156.772,21.09l-18.416,28.777c1.697,0,3.375-0.216,5.033-0.651c1.658-0.434,3.08-0.956,4.264-1.569
	c1.184-0.611,2.24-1.223,3.168-1.835s1.607-1.115,2.043-1.51l0.711-0.652v7.401h-24.691l17.586-28.717
	c-1.303,0-2.664,0.217-4.086,0.651s-2.686,0.947-3.789,1.538c-1.105,0.593-2.113,1.195-3.021,1.808s-1.617,1.116-2.131,1.509
	l-0.77,0.652V21.09H156.772z"/>
<path d="M83.693,58.554l-0.001,0.005c-0.037,0.14-0.167,0.197-0.35,0.197h-0.38l0.106-0.395h0.406
	C83.649,58.361,83.727,58.429,83.693,58.554 M83.598,59.303l-0.001,0.005c-0.036,0.139-0.165,0.203-0.345,0.203h-0.49l0.109-0.411
	h0.477C83.56,59.1,83.633,59.177,83.598,59.303 M83.632,58h-0.87l-0.499,1.873h0.893c0.424,0,0.748-0.173,0.838-0.515l0.001-0.006
	c0.068-0.251-0.032-0.377-0.228-0.459c0.154-0.075,0.297-0.193,0.353-0.404l0.002-0.005c0.034-0.129,0.018-0.232-0.044-0.319
	C83.999,58.059,83.847,58,83.632,58"/>
<polygon points="85.151,58.752 84.903,58 84.421,58 84.841,59.134 84.644,59.871 85.057,59.871 85.255,59.125 86.275,58 85.807,58 
	"/>
<polygon fill="#E42826" points="116.216,64.095 111.272,58.144 107.745,58.144 106.179,66.849 108.563,66.849 109.556,61.34 
	114.077,66.849 118.106,66.849 119.667,58.144 117.28,58.144 "/>
<path fill="#E42826" d="M129.819,58.145l-0.959,5.305c-0.246,1.374-1.24,2.067-2.973,2.067c-0.893,0-1.484-0.145-1.764-0.426
	c-0.283-0.277-0.357-0.807-0.215-1.571l0.965-5.375h-3.828l-1.049,5.84c-0.357,2.002,0.852,3.005,5.244,3.005
	c3.359,0,5.551-1.003,5.908-3.005l1.051-5.84H129.819z"/>
<path fill="#E42826" d="M139.819,60.312c-0.123,0.697-0.736,1.082-1.826,1.082h-1.182l0.359-1.992h1.084
	C139.407,59.401,139.923,59.737,139.819,60.312 M139.55,64.175c-0.191,1.08-0.967,1.415-2.398,1.415h-1.092l0.523-2.938h1.029
	C139.083,62.652,139.771,62.94,139.55,64.175 M139.813,58.145h-6.244l-1.57,8.704h6.531c2.959,0,4.578-0.771,4.854-2.313
	c0.227-1.25-0.736-2.021-2.879-2.31c1.873-0.289,2.9-0.935,3.086-1.949C143.845,58.854,142.839,58.145,139.813,58.145"/>
<polygon fill="#E42826" points="144.169,66.849 152.72,66.849 153.028,65.152 148.3,65.152 148.622,63.348 152.601,63.348 
	152.903,61.65 148.927,61.65 149.255,59.839 153.983,59.839 154.29,58.145 145.729,58.145 "/>
<path fill="#E42826" d="M98.22,63.935l2.289-3.708l0.846,3.708H98.22z M99.843,58.145l-5.47,8.704h2.047l1.05-1.696h4.164
	l0.383,1.696h3.852l-2.109-8.704H99.843z"/>
<path fill="#E42826" d="M90.554,58l-1.401,0.007l-0.219,1.268l0.741,0.003c2.167,0,2.173,1.746,1.921,3.145
	c-0.25,1.393-0.503,1.811-0.961,2.345c-0.46,0.534-1.151,0.802-2.092,0.802h-1.022l1.396-7.549h-1.417l-0.409,2.526h-1.186
	l-0.404,2.224h-1.291l-0.813,4.079h5.348c4.095,0,6.411-1.476,6.94-4.413C96.215,59.477,94.504,58,90.554,58"/>
<path fill="#F9B332" d="M106.739,16.242H95.838l-0.381-0.904h0.994c2.138,0,3.757-0.512,4.812-1.52
	c0.01-0.009,0.018-0.016,0.025-0.024c0.01,0.009,0.018,0.016,0.027,0.024c1.055,1.008,2.676,1.52,4.811,1.52h0.996L106.739,16.242z
	 M108.095,14.694h-1.969c-1.963,0-3.432-0.451-4.365-1.34c-0.076-0.074-0.15-0.152-0.227-0.24l-0.246-0.285l-0.244,0.285
	c-0.076,0.089-0.15,0.167-0.229,0.24c-0.93,0.889-2.398,1.34-4.364,1.34h-1.967l0.926,2.19h11.759L108.095,14.694z"/>
<path fill="none" stroke="#E3BE22" stroke-width="0.09" stroke-miterlimit="10" d="M106.739,16.242H95.838l-0.381-0.904h0.994
	c2.138,0,3.757-0.512,4.812-1.52c0.01-0.009,0.018-0.016,0.025-0.024c0.01,0.009,0.018,0.016,0.027,0.024
	c1.055,1.008,2.676,1.52,4.811,1.52h0.996L106.739,16.242z M108.095,14.694h-1.969c-1.963,0-3.432-0.451-4.365-1.34
	c-0.076-0.074-0.15-0.152-0.227-0.24l-0.246-0.285l-0.244,0.285c-0.076,0.089-0.15,0.167-0.229,0.24
	c-0.93,0.889-2.398,1.34-4.364,1.34h-1.967l0.926,2.19h11.759L108.095,14.694z"/>
<path fill="#F9B332" d="M94.486,13.025l-1.195-2.834c0.699,0.297,1.855,1.038,2.691,2.834H94.486z M109.29,10.187l-1.197,2.839
	h-1.496C107.437,11.215,108.593,10.479,109.29,10.187 M100.075,12.512c0.498-0.524,0.74-1.22,0.697-2.012
	c-0.049-0.916-0.551-1.652-1.295-2.003c0.256-0.514,0.832-1.525,1.811-2.563c0.988,1.046,1.564,2.065,1.82,2.575
	c-0.732,0.355-1.227,1.085-1.273,1.991c-0.043,0.792,0.199,1.487,0.697,2.012c0.732,0.77,1.959,1.16,3.648,1.16h2.34l1.848-4.381
	l-0.559,0.072c-0.104,0.014-2.52,0.365-3.918,3.658c-1.338-0.041-2.332-0.368-2.889-0.955c-0.379-0.397-0.555-0.914-0.523-1.532
	c0.051-0.95,0.736-1.613,1.666-1.613c0.926,0,1.41,0.662,1.41,1.316c0,0.262-0.082,0.481-0.238,0.635
	c-0.143,0.139-0.336,0.219-0.539,0.219c-0.002,0-0.006,0-0.01,0c-0.268-0.003-0.432-0.138-0.492-0.262
	c-0.039-0.077-0.064-0.196,0.029-0.327c0.105-0.144,0.074-0.345-0.068-0.45c-0.145-0.105-0.348-0.074-0.453,0.07
	c-0.217,0.298-0.25,0.67-0.088,0.997c0.189,0.375,0.598,0.612,1.066,0.617c0.006,0,0.01,0,0.016,0c0.371,0,0.732-0.147,0.994-0.406
	c0.279-0.276,0.428-0.653,0.428-1.093c0-1.118-0.883-1.963-2.055-1.963c-0.141,0-0.281,0.013-0.414,0.036
	c-0.268-0.557-0.953-1.81-2.215-3.069l-0.229-0.228l-0.227,0.228c-1.258,1.256-1.943,2.506-2.211,3.063
	c-0.127-0.02-0.256-0.03-0.389-0.03c-1.171,0-2.054,0.845-2.054,1.963c0,0.439,0.146,0.816,0.428,1.093
	c0.262,0.259,0.624,0.406,0.993,0.406c0.006,0,0.012,0,0.016,0c0.469-0.005,0.877-0.242,1.066-0.617
	c0.164-0.327,0.131-0.699-0.088-0.997c-0.105-0.145-0.309-0.176-0.451-0.07c-0.145,0.105-0.176,0.307-0.07,0.45
	c0.096,0.131,0.068,0.25,0.031,0.327c-0.063,0.124-0.227,0.259-0.494,0.262c-0.004,0-0.006,0-0.01,0c-0.201,0-0.397-0.08-0.54-0.219
	c-0.154-0.153-0.236-0.373-0.236-0.635c0-0.654,0.485-1.316,1.409-1.316c0.932,0,1.617,0.663,1.666,1.613
	c0.031,0.618-0.143,1.135-0.521,1.532c-0.561,0.591-1.566,0.919-2.919,0.956c-1.398-3.294-3.815-3.646-3.92-3.659l-0.558-0.072
	l1.847,4.381h2.371C98.116,13.672,99.345,13.281,100.075,12.512"/>
<path fill="none" stroke="#E3BE22" stroke-width="0.09" stroke-miterlimit="10" d="M94.486,13.025l-1.195-2.834
	c0.699,0.297,1.855,1.038,2.691,2.834H94.486z M109.29,10.187l-1.197,2.839h-1.496C107.437,11.215,108.593,10.479,109.29,10.187z
	 M100.075,12.512c0.498-0.524,0.74-1.22,0.697-2.012c-0.049-0.916-0.551-1.652-1.295-2.003c0.256-0.514,0.832-1.525,1.811-2.563
	c0.988,1.046,1.564,2.065,1.82,2.575c-0.732,0.355-1.227,1.085-1.273,1.991c-0.043,0.792,0.199,1.487,0.697,2.012
	c0.732,0.77,1.959,1.16,3.648,1.16h2.34l1.848-4.381l-0.559,0.072c-0.104,0.014-2.52,0.365-3.918,3.658
	c-1.338-0.041-2.332-0.368-2.889-0.955c-0.379-0.397-0.555-0.914-0.523-1.532c0.051-0.95,0.736-1.613,1.666-1.613
	c0.926,0,1.41,0.662,1.41,1.316c0,0.262-0.082,0.481-0.238,0.635c-0.143,0.139-0.336,0.219-0.539,0.219c-0.002,0-0.006,0-0.01,0
	c-0.268-0.003-0.432-0.138-0.492-0.262c-0.039-0.077-0.064-0.196,0.029-0.327c0.105-0.144,0.074-0.345-0.068-0.45
	c-0.145-0.105-0.348-0.074-0.453,0.07c-0.217,0.298-0.25,0.67-0.088,0.997c0.189,0.375,0.598,0.612,1.066,0.617
	c0.006,0,0.01,0,0.016,0c0.371,0,0.732-0.147,0.994-0.406c0.279-0.276,0.428-0.653,0.428-1.093c0-1.118-0.883-1.963-2.055-1.963
	c-0.141,0-0.281,0.013-0.414,0.036c-0.268-0.557-0.953-1.81-2.215-3.069l-0.229-0.228l-0.227,0.228
	c-1.258,1.256-1.943,2.506-2.211,3.063c-0.127-0.02-0.256-0.03-0.389-0.03c-1.171,0-2.054,0.845-2.054,1.963
	c0,0.439,0.146,0.816,0.428,1.093c0.262,0.259,0.624,0.406,0.993,0.406c0.006,0,0.012,0,0.016,0
	c0.469-0.005,0.877-0.242,1.066-0.617c0.164-0.327,0.131-0.699-0.088-0.997c-0.105-0.145-0.309-0.176-0.451-0.07
	c-0.145,0.105-0.176,0.307-0.07,0.45c0.096,0.131,0.068,0.25,0.031,0.327c-0.063,0.124-0.227,0.259-0.494,0.262
	c-0.004,0-0.006,0-0.01,0c-0.201,0-0.397-0.08-0.54-0.219c-0.154-0.153-0.236-0.373-0.236-0.635c0-0.654,0.485-1.316,1.409-1.316
	c0.932,0,1.617,0.663,1.666,1.613c0.031,0.618-0.143,1.135-0.521,1.532c-0.561,0.591-1.566,0.919-2.919,0.956
	c-1.398-3.294-3.815-3.646-3.92-3.659l-0.558-0.072l1.847,4.381h2.371C98.116,13.672,99.345,13.281,100.075,12.512z"/>
<path fill="#F9B332" d="M101.29,8.507c0.244,0,0.443-0.2,0.443-0.446s-0.199-0.445-0.443-0.445c-0.246,0-0.445,0.199-0.445,0.445
	S101.044,8.507,101.29,8.507"/>
<circle fill="none" stroke="#E3BE22" stroke-width="0.09" stroke-miterlimit="10" cx="101.29" cy="8.061" r="0.446"/>
<path fill="#F9B332" d="M107.384,9.557c0.246,0,0.445-0.199,0.445-0.444c0-0.246-0.199-0.445-0.445-0.445s-0.445,0.199-0.445,0.445
	C106.938,9.357,107.138,9.557,107.384,9.557"/>
<circle fill="none" stroke="#E3BE22" stroke-width="0.09" stroke-miterlimit="10" cx="107.384" cy="9.112" r="0.445"/>
<path fill="#F9B332" d="M95.195,9.557c0.246,0,0.445-0.199,0.445-0.444c0-0.246-0.199-0.445-0.445-0.445S94.75,8.866,94.75,9.112
	C94.75,9.357,94.949,9.557,95.195,9.557"/>
<circle fill="none" stroke="#E3BE22" stroke-width="0.09" stroke-miterlimit="10" cx="95.195" cy="9.112" r="0.445"/>
<rect x="-245.58" y="-411.938" fill="none" width="708.66" height="992.126"/>
</svg>
