<?xml version="1.0" encoding="utf-8"?>
<!-- Generator: Adobe Illustrator 26.0.1, SVG Export Plug-In . SVG Version: 6.00 Build 0)  -->
<!DOCTYPE svg PUBLIC "-//W3C//DTD SVG 1.1//EN" "http://www.w3.org/Graphics/SVG/1.1/DTD/svg11.dtd" [
	<!ENTITY ns_extend "http://ns.adobe.com/Extensibility/1.0/">
	<!ENTITY ns_ai "http://ns.adobe.com/AdobeIllustrator/10.0/">
	<!ENTITY ns_graphs "http://ns.adobe.com/Graphs/1.0/">
	<!ENTITY ns_vars "http://ns.adobe.com/Variables/1.0/">
	<!ENTITY ns_imrep "http://ns.adobe.com/ImageReplacement/1.0/">
	<!ENTITY ns_sfw "http://ns.adobe.com/SaveForWeb/1.0/">
	<!ENTITY ns_custom "http://ns.adobe.com/GenericCustomNamespace/1.0/">
	<!ENTITY ns_adobe_xpath "http://ns.adobe.com/XPath/1.0/">
]>
<svg version="1.1" id="Layer_1" xmlns:x="&ns_extend;" xmlns:i="&ns_ai;" xmlns:graph="&ns_graphs;"
	 xmlns="http://www.w3.org/2000/svg" xmlns:xlink="http://www.w3.org/1999/xlink" x="0px" y="0px" viewBox="0 0 76.9 70"
	 style="enable-background:new 0 0 76.9 70;" xml:space="preserve">
<style type="text/css">
	.st0{fill:#034962;}
	.st1{clip-path:url(#SVGID_00000171707306568748698100000009048083324395526304_);}
	.st2{clip-path:url(#SVGID_00000119119473826816203810000014275968906937697972_);}
	.st3{fill:#131718;}
	.st4{fill:#C36F2C;}
	
		.st5{clip-path:url(#SVGID_00000047035101742445421950000000906493906966121104_);fill:url(#SVGID_00000057113322843360988370000010042892665083050650_);}
</style>
<metadata>
	<sfw  xmlns="&ns_sfw;">
		<slices></slices>
		<sliceSourceBounds  bottomLeftOrigin="true" height="982.1" width="2151.6" x="136.2" y="-917.4"></sliceSourceBounds>
	</sfw>
</metadata>
<g>
	<rect x="29.6" y="0.7" class="st0" width="4.6" height="56.6"/>
	<rect x="40.5" y="0.7" class="st0" width="4.6" height="56.6"/>
	<path class="st0" d="M2.9,70c-0.7,0-1.3-0.2-1.7-0.7c-0.6-0.6-0.6-1.4-0.6-2.6c0-1.3,0-2,0.6-2.6c0.4-0.4,1-0.7,1.7-0.7
		c1.2,0,2.1,0.7,2.3,2h-1c-0.2-0.7-0.6-1.1-1.3-1.1c-0.4,0-0.7,0.1-1,0.4c-0.3,0.3-0.4,0.7-0.4,2c0,1.3,0.1,1.7,0.4,2
		c0.2,0.2,0.6,0.4,1,0.4c0.7,0,1.2-0.5,1.3-1.1h1C5,69.3,4.1,70,2.9,70"/>
	<path class="st0" d="M9.5,64.3H8v2h1.5c0.7,0,1.1-0.4,1.1-1C10.6,64.7,10.1,64.3,9.5,64.3 M10.6,69.9l-1.4-2.7H8v2.7H7v-6.5h2.5
		c1.2,0,2,0.8,2,1.9c0,0.9-0.6,1.5-1.3,1.7l1.5,2.9H10.6z"/>
	<polygon class="st0" points="13.5,69.9 13.5,63.4 17.6,63.4 17.6,64.3 14.5,64.3 14.5,66.2 17.2,66.2 17.2,67.1 14.5,67.1 14.5,69 
		17.6,69 17.6,69.9 	"/>
	<polygon class="st0" points="19.4,69.9 19.4,63.4 23.6,63.4 23.6,64.3 20.4,64.3 20.4,66.2 23.1,66.2 23.1,67.1 20.4,67.1 20.4,69 
		23.6,69 23.6,69.9 	"/>
	<polygon class="st0" points="29.3,69.9 27.5,66.7 26.4,68 26.4,69.9 25.4,69.9 25.4,63.4 26.4,63.4 26.4,66.7 29,63.4 30.2,63.4 
		28.1,65.9 30.5,69.9 	"/>
	<polygon class="st0" points="38.7,69.9 38.7,67.1 36.1,67.1 36.1,69.9 35.1,69.9 35.1,63.4 36.1,63.4 36.1,66.2 38.7,66.2 
		38.7,63.4 39.7,63.4 39.7,69.9 	"/>
	<path class="st0" d="M44.9,64.6c-0.2-0.2-0.6-0.4-1-0.4c-0.4,0-0.7,0.2-1,0.4c-0.3,0.3-0.4,0.7-0.4,2c0,1.3,0.1,1.7,0.4,2
		c0.2,0.2,0.6,0.4,1,0.4c0.4,0,0.7-0.2,1-0.4c0.3-0.3,0.4-0.7,0.4-2C45.3,65.3,45.2,65,44.9,64.6 M45.7,69.3c-0.4,0.4-1,0.7-1.7,0.7
		c-0.7,0-1.3-0.2-1.7-0.7c-0.6-0.6-0.6-1.4-0.6-2.6c0-1.3,0-2,0.6-2.6c0.4-0.4,1-0.7,1.7-0.7c0.7,0,1.3,0.2,1.7,0.7
		c0.6,0.6,0.6,1.4,0.6,2.6C46.3,67.9,46.3,68.6,45.7,69.3"/>
	<path class="st0" d="M50.7,64.3h-1.5v2h1.5c0.7,0,1.1-0.4,1.1-1C51.8,64.7,51.3,64.3,50.7,64.3 M51.8,69.9l-1.4-2.7h-1.2v2.7h-1
		v-6.5h2.5c1.2,0,2,0.8,2,1.9c0,0.9-0.6,1.5-1.3,1.7l1.5,2.9H51.8z"/>
	<rect x="54.6" y="63.4" class="st0" width="1" height="6.5"/>
	<polygon class="st0" points="57.4,69.9 57.4,69.1 60.4,64.3 57.5,64.3 57.5,63.4 61.5,63.4 61.5,64.2 58.5,69 61.5,69 61.5,69.9 	
		"/>
	<path class="st0" d="M66.3,64.6c-0.2-0.2-0.6-0.4-1-0.4c-0.4,0-0.7,0.2-1,0.4c-0.3,0.3-0.4,0.7-0.4,2c0,1.3,0.1,1.7,0.4,2
		c0.2,0.2,0.6,0.4,1,0.4c0.4,0,0.7-0.2,1-0.4c0.3-0.3,0.4-0.7,0.4-2C66.7,65.3,66.7,65,66.3,64.6 M67.1,69.3c-0.4,0.4-1,0.7-1.7,0.7
		s-1.3-0.2-1.7-0.7C63,68.6,63,67.9,63,66.7c0-1.3,0-2,0.6-2.6c0.4-0.4,1-0.7,1.7-0.7s1.3,0.2,1.7,0.7c0.6,0.6,0.6,1.4,0.6,2.6
		C67.7,67.9,67.7,68.6,67.1,69.3"/>
	<polygon class="st0" points="73.6,69.9 70.6,65.3 70.6,69.9 69.6,69.9 69.6,63.4 70.5,63.4 73.5,68 73.5,63.4 74.5,63.4 74.5,69.9 
			"/>
</g>
</svg>
