<?xml version="1.0" encoding="utf-8"?>
<!-- Generator: Adobe Illustrator 16.0.0, SVG Export Plug-In . SVG Version: 6.00 Build 0)  -->
<!DOCTYPE svg PUBLIC "-//W3C//DTD SVG 1.1//EN" "http://www.w3.org/Graphics/SVG/1.1/DTD/svg11.dtd">
<svg version="1.1" id="Layer_1" xmlns="http://www.w3.org/2000/svg" xmlns:xlink="http://www.w3.org/1999/xlink" x="0px" y="0px"
	 width="150.25px" height="70px" viewBox="0 0 150.25 70" enable-background="new 0 0 150.25 70" xml:space="preserve">
<path fill="#020202" d="M11.754,10.744h1.481c1.704,0,2.948-1.194,2.948-2.824c0-1.617-1.244-2.787-2.948-2.787H9.914v8.708h1.84
	V10.744z M11.754,6.9h1.481c0.634,0,1.095,0.435,1.095,1.02c0,0.61-0.461,1.058-1.095,1.058h-1.481V6.9z"/>
<path fill="#020202" d="M31.333,12.386h3.357l0.548,1.455h2.002l-3.47-8.708h-1.493l-3.458,8.708h1.953L31.333,12.386z M33.025,8.02
	l1.057,2.786h-2.14L33.025,8.02z"/>
<polygon fill="#020202" points="56.894,12.074 52.901,12.074 52.901,5.133 51.06,5.133 51.06,13.841 56.894,13.841 "/>
<polygon fill="#020202" points="73.681,8.729 75.857,13.841 77.188,13.841 79.415,8.729 79.415,13.841 81.256,13.841 81.256,5.133 
	79.376,5.133 76.666,11.13 74.078,5.133 71.839,5.133 71.839,13.841 73.681,13.841 "/>
<path fill="#020202" d="M15.897,29.205c0-1.255-1.207-2.313-2.712-2.313H9.914V35.6h3.644c1.494,0,2.738-1.083,2.738-2.487
	c0-1.072-0.685-1.929-1.605-2.116C15.387,30.76,15.897,29.989,15.897,29.205 M11.754,28.658h1.344c0.522,0,0.932,0.373,0.932,0.858
	c0,0.485-0.41,0.885-0.932,0.885h-1.344V28.658z M13.397,33.833h-1.643v-2.028h1.667c0.547,0,0.995,0.459,0.995,1.02
	C14.417,33.385,13.969,33.833,13.397,33.833"/>
<polygon fill="#020202" points="35.699,28.658 35.699,26.891 30.363,26.891 30.363,35.6 35.699,35.6 35.699,33.833 32.204,33.833 
	32.204,31.991 35.313,31.991 35.313,30.224 32.204,30.224 32.204,28.658 "/>
<path fill="#020202" d="M49.767,35.6h1.953l0.561-1.456h3.357l0.548,1.456h2.002l-3.471-8.708h-1.493L49.767,35.6z M55.029,32.563
	h-2.14l1.082-2.785L55.029,32.563z"/>
<path fill="#020202" d="M76.671,28.559c1.008,0,1.854,0.584,2.089,1.392h2.054c-0.25-1.828-2.09-3.185-4.143-3.185
	c-2.525,0-4.416,1.929-4.416,4.478c0,2.55,1.891,4.478,4.416,4.478c2.127,0,3.832-1.355,4.167-3.295h-2.064
	c-0.223,0.871-1.083,1.505-2.103,1.505c-1.43,0-2.525-1.156-2.525-2.687C74.146,29.716,75.241,28.559,76.671,28.559"/>
<polygon fill="#020202" points="96.748,31.979 100.455,31.979 100.455,35.6 102.308,35.6 102.308,26.891 100.455,26.891 
	100.455,30.213 96.748,30.213 96.748,26.891 94.907,26.891 94.907,35.6 96.748,35.6 "/>
<polygon fill="#020202" points="14.292,57.358 14.292,50.415 16.842,50.415 16.842,48.648 9.914,48.648 9.914,50.415 12.452,50.415 
	12.452,57.358 "/>
<path fill="#020202" d="M28.583,53.003c0,2.551,1.903,4.479,4.441,4.479c2.539,0,4.453-1.928,4.453-4.479
	c0-2.549-1.915-4.478-4.453-4.478C30.487,48.525,28.583,50.454,28.583,53.003 M35.574,53.003c0,1.53-1.094,2.687-2.55,2.687
	c-1.455,0-2.549-1.156-2.549-2.687c0-1.529,1.094-2.688,2.549-2.688C34.48,50.315,35.574,51.474,35.574,53.003"/>
<polygon fill="#020202" points="54.749,48.638 53.269,48.638 51.464,54.247 49.736,48.638 47.771,48.638 50.681,57.358 
	52.173,57.358 53.99,51.759 55.819,57.358 57.299,57.358 60.184,48.638 58.257,48.638 56.552,54.247 "/>
<polygon fill="#020202" points="79.216,50.415 79.216,48.648 73.879,48.648 73.879,57.358 79.216,57.358 79.216,55.592 
	75.721,55.592 75.721,53.748 78.83,53.748 78.83,51.981 75.721,51.981 75.721,50.415 "/>
<path fill="#020202" d="M101.219,51.336c0-1.493-1.281-2.688-2.749-2.688h-3.357v8.71h1.84v-3.323h0.945l1.966,3.323h2.238
	l-2.275-3.61C100.685,53.327,101.219,52.456,101.219,51.336 M98.284,52.444h-1.332v-2.017h1.332c0.597,0,1.069,0.436,1.069,0.997
	C99.353,52.008,98.881,52.444,98.284,52.444"/>
<rect x="9.914" y="41.139" fill="#020202" width="92.394" height="1.847"/>
<rect x="9.914" y="63.021" fill="#020202" width="113.445" height="1.846"/>
<rect x="9.914" y="19.381" fill="#020202" width="71.342" height="1.846"/>
<path fill="#020202" d="M120.164,55.746c-0.871,0-1.479-0.497-1.479-1.268h-1.814c0,1.741,1.393,3.01,3.294,3.01
	c1.841,0,3.195-1.146,3.195-2.687c0-3.32-4.6-2.264-4.6-3.706c0-0.508,0.435-0.82,1.131-0.82c0.794,0,1.281,0.498,1.293,1.157h1.901
	c0-1.528-0.981-2.897-3.133-2.897c-1.714,0-2.995,1.083-2.995,2.573c0,3.185,4.575,2.151,4.575,3.693
	C121.532,55.374,120.973,55.746,120.164,55.746"/>
<text transform="matrix(1 0 0 1 124.9951 67.2383)"><tspan x="0" y="0" font-family="'Poppins-Bold'" font-size="12">-</tspan><tspan x="6.96" y="0" font-family="'Poppins-Bold'" font-size="29.3124">3</tspan></text>
</svg>
