<?xml version="1.0" encoding="utf-8"?>
<!-- Generator: Adobe Illustrator 26.0.1, SVG Export Plug-In . SVG Version: 6.00 Build 0)  -->
<!DOCTYPE svg PUBLIC "-//W3C//DTD SVG 1.1//EN" "http://www.w3.org/Graphics/SVG/1.1/DTD/svg11.dtd" [
	<!ENTITY ns_extend "http://ns.adobe.com/Extensibility/1.0/">
	<!ENTITY ns_ai "http://ns.adobe.com/AdobeIllustrator/10.0/">
	<!ENTITY ns_graphs "http://ns.adobe.com/Graphs/1.0/">
	<!ENTITY ns_vars "http://ns.adobe.com/Variables/1.0/">
	<!ENTITY ns_imrep "http://ns.adobe.com/ImageReplacement/1.0/">
	<!ENTITY ns_sfw "http://ns.adobe.com/SaveForWeb/1.0/">
	<!ENTITY ns_custom "http://ns.adobe.com/GenericCustomNamespace/1.0/">
	<!ENTITY ns_adobe_xpath "http://ns.adobe.com/XPath/1.0/">
]>
<svg version="1.1" id="Layer_1" xmlns:x="&ns_extend;" xmlns:i="&ns_ai;" xmlns:graph="&ns_graphs;"
	 xmlns="http://www.w3.org/2000/svg" xmlns:xlink="http://www.w3.org/1999/xlink" x="0px" y="0px" viewBox="0 0 200 94.1"
	 style="enable-background:new 0 0 200 94.1;" xml:space="preserve">
<style type="text/css">
	.st0{fill:#080505;}
	.st1{fill:#F8AF41;}
	.st2{fill:#376278;}
	.st3{fill:#FFC663;}
	.st4{fill:#F6CE76;}
	.st5{fill:#0D98BB;}
	.st6{fill:#70B599;}
	.st7{fill:#EAE3AC;}
	.st8{fill:#91060D;}
	.st9{fill:#2D628C;}
	.st10{fill:#012944;}
	.st11{fill:#043754;}
	.st12{fill:#1D324D;}
	.st13{fill:#8C7449;}
	.st14{fill:#003756;}
	.st15{fill:#53B2D3;}
	.st16{fill:#082042;}
	.st17{fill:#055985;}
	.st18{fill:#A08C6A;}
	.st19{clip-path:url(#SVGID_00000038406637698580282880000004415065120810410635_);}
	.st20{filter:url(#Adobe_OpacityMaskFilter);}
	.st21{opacity:0.9;mask:url(#SVGID_00000145738208855627303690000010567267108070175675_);fill:#FFFFFF;}
	.st22{filter:url(#Adobe_OpacityMaskFilter_00000049921894964153179860000014126985672815879333_);}
	.st23{opacity:0.75;mask:url(#SVGID_00000077306351379340801570000017042464872045081989_);}
	.st24{filter:url(#Adobe_OpacityMaskFilter_00000163788036541439694160000004185439549882172347_);}
	.st25{mask:url(#SVGID_00000179622261756751016240000016039451513650834591_);fill:#FFFFFF;}
	.st26{filter:url(#Adobe_OpacityMaskFilter_00000091712264036189794180000000776235283683209654_);}
	.st27{opacity:0.75;mask:url(#SVGID_00000161623704839548904860000004310872508257930379_);}
	.st28{fill:none;stroke:#000000;stroke-width:1.2;}
	.st29{clip-path:url(#SVGID_00000149359392469380632560000008888891316466633375_);}
	.st30{fill:#1E2731;}
	.st31{fill:#777779;}
	
		.st32{clip-path:url(#SVGID_00000097474386710493013530000009682260410616982152_);fill:url(#SVGID_00000125584445159599017440000014344185263926851736_);}
</style>
<metadata>
	<sfw  xmlns="&ns_sfw;">
		<slices></slices>
		<sliceSourceBounds  bottomLeftOrigin="true" height="515.4" width="2527.2" x="1.1" y="-405.1"></sliceSourceBounds>
	</sfw>
</metadata>
<g>
	<path class="st8" d="M180.3,91.6c-8.7,0-14.6-6.9-14.6-17.2c0-10.3,5.8-17.2,14.6-17.2c8.7,0,14.6,6.9,14.6,17.2
		C194.8,84.8,189,91.6,180.3,91.6 M180.3,55.7c-10.9,0-18.5,7.5-18.5,18.7s7.6,18.7,18.5,18.7s18.5-7.5,18.5-18.7
		S191.2,55.7,180.3,55.7 M152,84.1c-1.6,3.9-3.7,6.7-9.1,6.7h-7.4V60.2c0-1.8,1.5-3.2,3.3-3.2h0.7l0-0.5h-11.3l0,0.5h0.7
		c1.8,0,3.3,1.4,3.3,3.2v28.5c0,1.8-1.5,3.2-3.3,3.2h-0.7l0,0.5h21.3l3-8.3L152,84.1z M89.8,56.4l0,0.5h0.7c1.8,0,3.3,1.4,3.3,3.2
		v28.6c0,1.8-1.5,3.2-3.3,3.2h-0.7l0,0.5H101l0-0.5h-0.7c-1.8,0-3.3-1.4-3.3-3.2V58c0.7,0,3.8-0.1,6.4,0c3.8,0.2,6.3,3.2,6.4,7.8
		c0,1.1-0.1,2.4-0.3,3.1c-1.5,4.6-5.4,5.3-8,5.3c-1.5,0-2.7,0-2.7,0v0.5c1.9,0,3.4,1.8,4.7,3.5c0.4,0.5,6.2,8.9,6.8,9.6
		c1.6,1.9,4.2,4.5,9,4.5h2.8v-0.5c-3,0-4.9-1.6-7-3.9c-2-2.2-6.4-8.5-6.4-8.5c-1-1.4-2.6-3.1-3.7-3.6c5,0,8.7-4.8,8.7-9.8
		c0-6-3.8-9.7-10.1-9.7L89.8,56.4z M56.4,78.4l6.5-16.5L69,78.4H56.4z M63.4,55.7h-0.5c0,1.1-1.9,5.3-1.9,5.3L49.3,88.7
		c-1,2.3-2.9,3.2-4.5,3.2h-0.5v0.5h10.4v-0.5h-0.5c-1.3,0-2.7-1.2-2-3.2l3.4-8.8h13.9l3.3,8.8c0.8,2.1-0.6,3.2-2,3.2h-0.5v0.5h11.6
		v-0.5h-0.4c-1.6,0-3.5-0.9-4.5-3.2L63.4,55.7z M36.7,77.4C35.6,88,29.4,91.6,22.1,91.6c-8.7-0.2-14.5-7-14.5-17.3
		c0-10.2,5.8-17.1,14.8-17.1c6.2,0,11.2,3.2,12.8,9.2h0.4l-1-7.3c-3-2-7.1-3.5-12.2-3.5c-11.3,0-18.7,7.5-18.7,18.7
		c0,11.4,7.6,18.7,18.4,18.8c7.1,0,11.8-3.2,14.5-7.7l0.6-8.1L36.7,77.4z"/>
	<path class="st8" d="M199.6,33.4h-0.5c-1.6,3.9-3.7,6.7-9.1,6.7h-7.4V24.7h8.8c1.4,0.1,2.4,1.2,2.4,2.5V28l0.5,0v-8.1l-0.5,0v0.8
		c0,1.4-1.1,2.5-2.5,2.5h-8.7V7.2h10.5c1.6,0.1,2.9,1.4,2.9,3.1v0.9l0.5,0V7.1V6.2V4.7c-1,0.4-3.9,0.9-6.1,0.9h-15l0,0.5h0.7
		c1.7,0,3.1,1.3,3.3,2.9V38c0,1.8-1.5,3.2-3.3,3.2h-0.7l0,0.5h21.3L199.6,33.4z M145.7,5.6c-2.2,0-5.2-0.5-6.2-0.9v6.5l0.5,0v-0.9
		c0-1.7,1.3-3,2.9-3.1h9.8V38c-0.1,1.8-1.5,3.2-3.3,3.2h-0.7l0,0.5H160l0-0.5h-0.7c-1.8,0-3.2-1.4-3.3-3.2V7.2h9.8
		c1.6,0.1,2.9,1.4,2.9,3.1v0.9l0.5,0V4.7c-1,0.4-4,0.9-6.2,0.9H145.7z M123.6,5.7l0,0.5h1c1.7,0,3.1,1.4,3.2,3.1v25.5l-28-29.9h-0.5
		c0,0,0.5,2.9,0.5,6.4v26.7c0,1.7-1.4,3.1-3.2,3.1h-1l0,0.5h10.6l0-0.5h-1c-1.7,0-3.1-1.4-3.2-3.1V12.5l28.1,29.9h0.5
		c0,0-0.5-3.3-0.5-6.6V9.3c0.1-1.7,1.5-3.1,3.2-3.1h1l0-0.5L123.6,5.7z M71.2,40.9c-8.7,0-14.6-6.9-14.6-17.2
		c0-10.3,5.8-17.2,14.6-17.2c8.7,0,14.6,6.9,14.6,17.2C85.8,34,80,40.9,71.2,40.9 M71.2,5c-10.9,0-18.5,7.5-18.5,18.7
		s7.6,18.7,18.5,18.7c10.9,0,18.5-7.5,18.5-18.7S82.2,5,71.2,5 M38.6,5h-0.5l-14,31L9.8,5H9.3L5.4,38c-0.3,2-1.9,3.2-3.8,3.2H0.8
		v0.5h10v-0.5H10c-1.1,0-2.1-1.1-2-2.2l2.3-25.2l13.2,28.6h0.5c0.3-2.1,1.8-5.3,1.8-5.3l10.8-24.1L38.8,39c0.1,1.1-0.9,2.2-2,2.2H36
		v0.5h11.2v-0.5h-0.8c-1.8,0-3.5-1.2-3.8-3.2L38.6,5z"/>
</g>
</svg>
