<?xml version="1.0" encoding="utf-8"?>
<!-- Generator: Adobe Illustrator 26.0.1, SVG Export Plug-In . SVG Version: 6.00 Build 0)  -->
<!DOCTYPE svg PUBLIC "-//W3C//DTD SVG 1.1//EN" "http://www.w3.org/Graphics/SVG/1.1/DTD/svg11.dtd" [
	<!ENTITY ns_extend "http://ns.adobe.com/Extensibility/1.0/">
	<!ENTITY ns_ai "http://ns.adobe.com/AdobeIllustrator/10.0/">
	<!ENTITY ns_graphs "http://ns.adobe.com/Graphs/1.0/">
	<!ENTITY ns_vars "http://ns.adobe.com/Variables/1.0/">
	<!ENTITY ns_imrep "http://ns.adobe.com/ImageReplacement/1.0/">
	<!ENTITY ns_sfw "http://ns.adobe.com/SaveForWeb/1.0/">
	<!ENTITY ns_custom "http://ns.adobe.com/GenericCustomNamespace/1.0/">
	<!ENTITY ns_adobe_xpath "http://ns.adobe.com/XPath/1.0/">
]>
<svg version="1.1" id="Layer_1" xmlns:x="&ns_extend;" xmlns:i="&ns_ai;" xmlns:graph="&ns_graphs;"
	 xmlns="http://www.w3.org/2000/svg" xmlns:xlink="http://www.w3.org/1999/xlink" x="0px" y="0px" viewBox="0 0 52.9 70"
	 style="enable-background:new 0 0 52.9 70;" xml:space="preserve">
<style type="text/css">
	.st0{fill:#034962;}
	.st1{clip-path:url(#SVGID_00000096017086980263720730000010018000963541083839_);}
	.st2{clip-path:url(#SVGID_00000034805806565351428470000005718790969658855302_);}
	.st3{fill:#131718;}
	.st4{fill:#C36F2C;}
	
		.st5{clip-path:url(#SVGID_00000058562868527648598690000014788103416622662578_);fill:url(#SVGID_00000149371088436901118310000008848982160666651785_);}
</style>
<metadata>
	<sfw  xmlns="&ns_sfw;">
		<slices></slices>
		<sliceSourceBounds  bottomLeftOrigin="true" height="982.1" width="2151.6" x="136.2" y="-917.4"></sliceSourceBounds>
	</sfw>
</metadata>
<g>
	<g>
		<defs>
			<path id="SVGID_1_" d="M12.5,64.6h0.9c0.8,0,1.3,0.4,1.3,1.1c0,0.7-0.5,1.1-1.3,1.1h-0.9V64.6z M11.8,64.3v5.2h0.7v-2.3h0.9
				l1.6,2.3h0.8l-1.6-2.4c0.8-0.1,1.3-0.6,1.3-1.4c0-0.9-0.8-1.5-1.9-1.5H11.8z M39.3,64.3l-1.6,4.3L36,64.3h-0.8l0.5,1.1l-1.2,3.1
				l-1.9-4.3h-0.7l2.3,5.2h0.4l1.4-3.6l1.5,3.6h0.4l1.9-5.2L39.3,64.3L39.3,64.3z M49.6,64.3v4.1l-3.7-4.1h-0.3v5.2h0.3v-4.1
				l3.7,4.1h0.3v-5.2H49.6z M0.9,66.9c0,1.5,0.9,2.7,2.7,2.7c1.1,0,2-0.5,2.2-1.6H5c-0.1,0.9-0.8,1.3-1.6,1.3
				c-1.2,0-1.8-1.1-1.8-2.4c0-1.2,0.5-2.4,1.8-2.4c0.9,0,1.4,0.5,1.5,1.4h0.8c-0.2-1.1-1.1-1.6-2.2-1.6C1.8,64.3,0.9,65.4,0.9,66.9
				 M22.1,66.9c0-1.4,0.8-2.4,1.9-2.4c1.1,0,1.9,1,1.9,2.4c0,1.4-0.8,2.4-1.9,2.4C22.8,69.3,22.1,68.3,22.1,66.9 M21.3,66.9
				c0,1.5,1.1,2.7,2.7,2.7c1.6,0,2.7-1.1,2.7-2.7s-1.1-2.7-2.7-2.7C22.4,64.3,21.3,65.4,21.3,66.9 M1.9,55H3c0.8,0,1.3,0.4,1.3,1.1
				c0,0.7-0.5,1.1-1.3,1.1H1.9V55z M1.9,52.6h0.9c0.8,0,1.3,0.4,1.3,1.1s-0.5,1.1-1.3,1.1H1.9V52.6z M1.1,52.3v5.2h2.2
				c1.1,0,1.8-0.5,1.8-1.4c0-0.7-0.5-1.2-1.3-1.3c0.6-0.2,1-0.6,1-1.2c0-0.8-0.6-1.3-1.8-1.3L1.1,52.3L1.1,52.3z M20.3,52.3v3.2
				c0,1.2-0.7,1.7-1.6,1.7c-0.9,0-1.7-0.6-1.7-1.7v-3.2h-0.7v3.2c0,1.2,1,2,2.2,2s2.1-0.8,2.1-2v-3.2H20.3z M33,52.6h0.9
				c0.8,0,1.3,0.4,1.3,1.1c0,0.7-0.5,1.1-1.3,1.1H33V52.6z M32.2,52.3v5.2h0.7v-2.3h0.9l1.6,2.3h0.8l-1.6-2.4
				c0.8-0.1,1.3-0.6,1.3-1.4c0-0.9-0.8-1.5-1.9-1.5H32.2z M49.2,52.3v3.6c0,0.9-0.4,1.3-1.1,1.3c-0.6,0-1-0.5-1-0.7h-0.3
				c0,0.3,0.4,1.1,1.5,1.1c1,0,1.6-0.6,1.6-1.9v-3.4H49.2z M10.7,8.5c-0.4,11.6-0.4,23.3,0,34.9c0,0.1,0.1,0.2,0.2,0.4
				c0.4-11.9,0.4-23.8,0-35.6C10.8,8.3,10.8,8.4,10.7,8.5 M40,8.5c-0.4,11.6-0.4,23.3,0,34.9c0,0.1,0.1,0.2,0.2,0.4
				c0.4-11.9,0.4-23.8,0-35.6C40.2,8.3,40.1,8.4,40,8.5 M0.9,1c-0.5,14.1-0.5,28.3,0,42.4c0,0.1,0.1,0.3,0.2,0.4
				c0.5-14.4,0.5-28.8,0-43.3C1.1,0.7,1,0.8,0.9,1 M20.5,1c-0.5,14.1-0.5,28.3,0,42.4c0,0.1,0.1,0.3,0.2,0.4
				c0.5-14.4,0.5-28.8,0-43.3C20.6,0.7,20.6,0.8,20.5,1 M30.3,1c-0.5,14.1-0.5,28.3,0,42.4c0,0.1,0.1,0.3,0.2,0.4
				c0.5-14.4,0.5-28.8,0-43.3C30.4,0.7,30.3,0.8,30.3,1 M49.8,1c-0.5,14.1-0.5,28.3,0,42.4c0,0.1,0.1,0.3,0.2,0.4
				c0.5-14.4,0.5-28.8,0-43.3C49.9,0.7,49.9,0.8,49.8,1"/>
		</defs>
		<use xlink:href="#SVGID_1_"  style="overflow:visible;fill:#5C5020;"/>
		<clipPath id="SVGID_00000042726822448970367220000013513121543897109423_">
			<use xlink:href="#SVGID_1_"  style="overflow:visible;"/>
		</clipPath>
		<g style="clip-path:url(#SVGID_00000042726822448970367220000013513121543897109423_);">
			<g>
				<defs>
					<rect id="SVGID_00000140733450380718966210000008127337517622140829_" x="0.1" y="0" width="50.8" height="70.1"/>
				</defs>
				<use xlink:href="#SVGID_00000140733450380718966210000008127337517622140829_"  style="overflow:visible;fill:#5C5020;"/>
				<clipPath id="SVGID_00000137839971724245761720000000515275747836693931_">
					<use xlink:href="#SVGID_00000140733450380718966210000008127337517622140829_"  style="overflow:visible;"/>
				</clipPath>
				<g style="clip-path:url(#SVGID_00000137839971724245761720000000515275747836693931_);">
				</g>
			</g>
		</g>
	</g>
</g>
</svg>
