<?xml version="1.0" encoding="utf-8"?>
<!-- Generator: Adobe Illustrator 26.0.1, SVG Export Plug-In . SVG Version: 6.00 Build 0)  -->
<!DOCTYPE svg PUBLIC "-//W3C//DTD SVG 1.1//EN" "http://www.w3.org/Graphics/SVG/1.1/DTD/svg11.dtd" [
	<!ENTITY ns_extend "http://ns.adobe.com/Extensibility/1.0/">
	<!ENTITY ns_ai "http://ns.adobe.com/AdobeIllustrator/10.0/">
	<!ENTITY ns_graphs "http://ns.adobe.com/Graphs/1.0/">
	<!ENTITY ns_vars "http://ns.adobe.com/Variables/1.0/">
	<!ENTITY ns_imrep "http://ns.adobe.com/ImageReplacement/1.0/">
	<!ENTITY ns_sfw "http://ns.adobe.com/SaveForWeb/1.0/">
	<!ENTITY ns_custom "http://ns.adobe.com/GenericCustomNamespace/1.0/">
	<!ENTITY ns_adobe_xpath "http://ns.adobe.com/XPath/1.0/">
]>
<svg version="1.1" id="Layer_1" xmlns:x="&ns_extend;" xmlns:i="&ns_ai;" xmlns:graph="&ns_graphs;"
	 xmlns="http://www.w3.org/2000/svg" xmlns:xlink="http://www.w3.org/1999/xlink" x="0px" y="0px" viewBox="0 0 200 69.3"
	 style="enable-background:new 0 0 200 69.3;" xml:space="preserve">
<style type="text/css">
	.st0{fill:#808184;}
	.st1{clip-path:url(#SVGID_00000138568239879391847630000010853251550470474170_);}
	.st2{fill:#AC9C63;}
	.st3{fill:#038295;}
	
		.st4{clip-path:url(#SVGID_00000007422006253167916630000010114774894023244696_);fill:url(#SVGID_00000130644243084760325070000010915856389796018086_);}
	
		.st5{clip-path:url(#SVGID_00000075143008942029837330000005695793660306007443_);fill:url(#SVGID_00000052073018555487928010000015294989198001668002_);}
	
		.st6{clip-path:url(#SVGID_00000017498767666423008470000000064733176567487911_);fill:url(#SVGID_00000070116009206352039210000008295251960931436183_);}
	.st7{fill:url(#SVGID_00000005260412645125247140000007571741465038613127_);}
	.st8{fill:url(#SVGID_00000096032923377674642060000016349579081203152779_);}
	.st9{fill:url(#SVGID_00000181770948081466875530000001338374740450380971_);}
	.st10{fill:url(#SVGID_00000137105379926045428400000008613687788860862358_);}
	.st11{fill:url(#SVGID_00000170241065261529533070000000816549938448577933_);}
	.st12{fill:url(#SVGID_00000079480985825808471940000009519655267635755173_);}
	.st13{fill:url(#SVGID_00000104683298878991320860000009190262769029887679_);}
	.st14{fill:url(#SVGID_00000010288906603676548810000005831971559591215544_);}
	.st15{fill:url(#SVGID_00000163781790958918730350000004468554493249735329_);}
	.st16{fill:url(#SVGID_00000177470983313483198430000011480585366492952505_);}
	.st17{fill:url(#SVGID_00000016784179268674530020000014575879132997732754_);}
	.st18{fill:url(#SVGID_00000127042191743332592910000015671895098878959276_);}
	.st19{fill:url(#SVGID_00000011738638928892357250000008102285795581351047_);}
	.st20{fill:url(#SVGID_00000044886754800030574450000000837548321276667817_);}
	.st21{fill:url(#SVGID_00000044144344241592168640000017091655916497651867_);}
	.st22{fill:url(#SVGID_00000025440998981028175340000002080936665928142478_);}
	.st23{fill:url(#SVGID_00000182486167967607367070000013987011622156940214_);}
	.st24{fill:url(#SVGID_00000145044551266594510340000017004726497726781091_);}
	.st25{fill:url(#SVGID_00000081621515764633347470000001614580461372651426_);}
	.st26{fill:url(#SVGID_00000052802632912031406910000014945053098752054713_);}
	.st27{fill:url(#SVGID_00000001643673011729677000000004037605440815530911_);}
	.st28{fill:url(#SVGID_00000039852480909839361070000006367300412406094009_);}
	.st29{fill:url(#SVGID_00000065783151428558904910000003755589125135371651_);}
	.st30{fill:url(#SVGID_00000076576571539434093100000006241151162925857423_);}
	.st31{fill:url(#SVGID_00000168795765581733884080000009417584103670752663_);}
	.st32{fill:url(#SVGID_00000083047885200512291140000015727699665385924772_);}
	.st33{fill:url(#SVGID_00000079468865429739376750000008597953686435163831_);}
	.st34{fill:url(#SVGID_00000057137053580231935220000017286274568306896290_);}
	.st35{fill:url(#SVGID_00000117636576597535199570000018089277607908650885_);}
	.st36{fill:url(#SVGID_00000051368175365501480550000014650064021991596166_);}
	.st37{fill:url(#SVGID_00000159450627031225439870000003383559807921846938_);}
	.st38{fill:url(#SVGID_00000060011077909781663120000002182941648061547138_);}
	.st39{fill:url(#SVGID_00000170259035966624392610000000845295289759048868_);}
	.st40{fill:url(#SVGID_00000118369936211937519300000007500310408088666808_);}
	.st41{fill:url(#SVGID_00000146480669564908753010000000320165749929289623_);}
	.st42{fill:url(#SVGID_00000065039589423180672600000003387094602735035035_);}
	.st43{fill:url(#SVGID_00000039844234417589982280000017778621731605002661_);}
	.st44{fill:url(#SVGID_00000173158029412194152750000006696508666136633515_);}
	.st45{fill:url(#SVGID_00000062163050219837351460000004933156195777193138_);}
	.st46{fill:url(#SVGID_00000029734548188194419480000010152400402174364562_);}
	.st47{fill:url(#SVGID_00000148620742695041480300000012339145830844318867_);}
	.st48{fill:url(#SVGID_00000176016932359784787050000007584392156831948972_);}
	.st49{fill:url(#SVGID_00000120539015345428138810000007848770997101812914_);}
	.st50{fill:url(#SVGID_00000055679835393798390290000011790405137902651574_);}
	.st51{fill:url(#SVGID_00000039832715761273626820000010506675876394289341_);}
	.st52{fill:url(#SVGID_00000005948288469711228090000001779659412986952589_);}
	.st53{fill:url(#SVGID_00000173877885003142793760000005526269838046839949_);}
	.st54{fill:#6AC1D5;}
	.st55{fill:#73BAB2;}
	.st56{fill:url(#SVGID_00000135677948576290749430000001827868856081434045_);}
	.st57{fill:url(#SVGID_00000011006112457988294710000000869319331995817355_);}
	.st58{fill:url(#SVGID_00000017497771576345584580000005328506618762380178_);}
	.st59{fill:url(#SVGID_00000016777233874265104730000006795277869500083379_);}
	.st60{fill:url(#SVGID_00000072963402176637594340000007237650100075719352_);}
	.st61{fill:url(#SVGID_00000114796124583856191600000008894068953843963577_);}
	.st62{fill:url(#SVGID_00000042008596184295502360000001800880877061739163_);}
	.st63{fill:url(#SVGID_00000108284274956388098670000005744161944518319544_);}
	.st64{fill:url(#SVGID_00000164511789756185703900000002262577636550711477_);}
	.st65{fill:url(#SVGID_00000020361823849921765810000005786465160808755082_);}
	.st66{fill:url(#SVGID_00000080189990980274499320000009811989963880114097_);}
	.st67{fill:url(#SVGID_00000124161539302941681710000000029132061027898278_);}
	.st68{fill:url(#SVGID_00000034050447240152088420000012476060325381817493_);}
	.st69{fill:url(#SVGID_00000008116937642439558740000005841839152010776968_);}
	.st70{fill:url(#SVGID_00000166671115705710140870000009541331816358047909_);}
	.st71{fill:url(#SVGID_00000121264737842362393570000014556236790498906255_);}
	.st72{fill:url(#SVGID_00000148621334718336642090000003787191453493288101_);}
	.st73{fill:url(#SVGID_00000138554507432320102080000007737787409609960085_);}
	.st74{fill:url(#SVGID_00000150061903084889152730000007423717733038518168_);}
	.st75{fill:url(#SVGID_00000142877970076848956160000018438351928844730522_);}
	.st76{fill:url(#SVGID_00000001656855860619383200000003165814372506536607_);}
	.st77{fill:url(#SVGID_00000181782781145578648530000017223702792045685669_);}
	.st78{fill:url(#SVGID_00000151532710631583191850000012357810420438445231_);}
	.st79{fill:url(#SVGID_00000090975690698351856650000011709098742539962520_);}
	.st80{fill:url(#SVGID_00000012460278283463686910000010995315538275302286_);}
	.st81{fill:url(#SVGID_00000031167399911023254800000001835385396873924010_);}
	.st82{fill:url(#SVGID_00000034062462562289761790000013677577579549208511_);}
	.st83{fill:url(#SVGID_00000128476417905382179420000009378386561886081166_);}
	.st84{fill:url(#SVGID_00000065036096974396643230000015696046076570001812_);}
	.st85{fill:url(#SVGID_00000181083334766440859110000002834564543709685432_);}
	.st86{fill:url(#SVGID_00000050663242396936592320000010798563253229673892_);}
	.st87{fill:url(#SVGID_00000152264624843130268140000011930183616396707774_);}
	.st88{fill:url(#SVGID_00000069362253135199818030000014022978013337798840_);}
	.st89{fill:url(#SVGID_00000147898565015663602940000013924875521366260096_);}
	.st90{fill:#004F54;}
	.st91{fill-rule:evenodd;clip-rule:evenodd;fill:#065055;}
</style>
<metadata>
	<sfw  xmlns="&ns_sfw;">
		<slices></slices>
		<sliceSourceBounds  bottomLeftOrigin="true" height="536.8" width="2527.3" x="0.4" y="-381.9"></sliceSourceBounds>
	</sfw>
</metadata>
<g>
	
		<linearGradient id="SVGID_00000010999429344429266020000001943988980295044270_" gradientUnits="userSpaceOnUse" x1="0.2654" y1="38.2137" x2="199.8192" y2="38.2137">
		<stop  offset="0" style="stop-color:#41B97E"/>
		<stop  offset="0.5" style="stop-color:#53C3BF"/>
		<stop  offset="0.9053" style="stop-color:#45BB8B"/>
		<stop  offset="1" style="stop-color:#41B97E"/>
	</linearGradient>
	
		<rect x="0.3" y="38.1" style="fill:url(#SVGID_00000010999429344429266020000001943988980295044270_);" width="199.6" height="0.3"/>
	
		<linearGradient id="SVGID_00000041284976057224363990000002576153786661161400_" gradientUnits="userSpaceOnUse" x1="24.1991" y1="62.7783" x2="32.7357" y2="62.7783">
		<stop  offset="0" style="stop-color:#41B97E"/>
		<stop  offset="0.5" style="stop-color:#53C3BF"/>
		<stop  offset="0.9053" style="stop-color:#45BB8B"/>
		<stop  offset="1" style="stop-color:#41B97E"/>
	</linearGradient>
	<polygon style="fill:url(#SVGID_00000041284976057224363990000002576153786661161400_);" points="24.2,56.6 24.2,68.9 32.7,68.9 
		32.7,68.1 26.3,68.1 26.3,62.6 30.6,62.6 30.6,61.8 26.3,61.8 26.3,57.4 32.7,57.4 32.7,56.6 	"/>
	
		<linearGradient id="SVGID_00000079469219711970040400000003039136163081299884_" gradientUnits="userSpaceOnUse" x1="37.1952" y1="62.7783" x2="50.9446" y2="62.7783">
		<stop  offset="0" style="stop-color:#41B97E"/>
		<stop  offset="0.5" style="stop-color:#53C3BF"/>
		<stop  offset="0.9053" style="stop-color:#45BB8B"/>
		<stop  offset="1" style="stop-color:#41B97E"/>
	</linearGradient>
	<polygon style="fill:url(#SVGID_00000079469219711970040400000003039136163081299884_);" points="48.9,56.6 44.2,66.1 44.1,66.1 
		39.3,56.6 37.2,56.6 37.2,68.9 38.1,68.9 38.1,58.9 38.2,58.9 43.3,68.9 43.8,68.9 48.8,58.9 48.9,58.9 48.9,68.9 50.9,68.9 
		50.9,56.6 	"/>
	
		<linearGradient id="SVGID_00000032649731297673099300000003868607582257863839_" gradientUnits="userSpaceOnUse" x1="54.6988" y1="62.6373" x2="66.912" y2="62.6373">
		<stop  offset="0" style="stop-color:#41B97E"/>
		<stop  offset="0.5" style="stop-color:#53C3BF"/>
		<stop  offset="0.9053" style="stop-color:#45BB8B"/>
		<stop  offset="1" style="stop-color:#41B97E"/>
	</linearGradient>
	<path style="fill:url(#SVGID_00000032649731297673099300000003868607582257863839_);" d="M60.6,56.3l-5.9,12.6h1l1.9-4.1h5.3
		l1.9,4.1h2.1l-5.8-12.6H60.6z M60.3,59.2l2.2,4.9H58L60.3,59.2z"/>
	
		<linearGradient id="SVGID_00000170239933998448939600000003734784170898841222_" gradientUnits="userSpaceOnUse" x1="69.1681" y1="62.6373" x2="81.3822" y2="62.6373">
		<stop  offset="0" style="stop-color:#41B97E"/>
		<stop  offset="0.5" style="stop-color:#53C3BF"/>
		<stop  offset="0.9053" style="stop-color:#45BB8B"/>
		<stop  offset="1" style="stop-color:#41B97E"/>
	</linearGradient>
	<path style="fill:url(#SVGID_00000170239933998448939600000003734784170898841222_);" d="M75.1,56.3l-5.9,12.6h1l1.9-4.1h5.3
		l1.9,4.1h2.1l-5.8-12.6H75.1z M74.8,59.2L77,64h-4.5L74.8,59.2z"/>
	
		<linearGradient id="SVGID_00000176026035158869757510000002089412405300783543_" gradientUnits="userSpaceOnUse" x1="85.1363" y1="62.7781" x2="95.3049" y2="62.7781">
		<stop  offset="0" style="stop-color:#41B97E"/>
		<stop  offset="0.5" style="stop-color:#53C3BF"/>
		<stop  offset="0.9053" style="stop-color:#45BB8B"/>
		<stop  offset="1" style="stop-color:#41B97E"/>
	</linearGradient>
	<path style="fill:url(#SVGID_00000176026035158869757510000002089412405300783543_);" d="M92.1,62.5c0.4-0.2,0.7-0.4,1-0.7
		c0.3-0.3,0.5-0.6,0.6-0.9c0.1-0.3,0.2-0.7,0.2-1.1c0-0.5-0.1-0.9-0.3-1.3c-0.2-0.4-0.5-0.7-0.8-1c-0.4-0.3-0.8-0.5-1.4-0.7
		c-0.6-0.2-1.2-0.2-1.9-0.2h-4.3v12.3h2.1v-5.8h1.4l4.3,5.8h2.4l-4.5-6C91.3,62.9,91.7,62.7,92.1,62.5 M89.7,62.3
		c-0.4,0.1-0.8,0.2-1.3,0.2h-1.2v-5.1H89c0.4,0,0.7,0.1,1,0.2c0.3,0.1,0.6,0.3,0.8,0.5c0.2,0.2,0.4,0.5,0.5,0.8
		c0.1,0.3,0.2,0.6,0.2,1c0,0.4-0.1,0.8-0.2,1.1c-0.2,0.3-0.4,0.6-0.7,0.8C90.4,62,90.1,62.2,89.7,62.3"/>
	
		<linearGradient id="SVGID_00000129173546351464427680000006568831800645051832_" gradientUnits="userSpaceOnUse" x1="105.336" y1="62.7825" x2="114.093" y2="62.7825">
		<stop  offset="0" style="stop-color:#41B97E"/>
		<stop  offset="0.5" style="stop-color:#53C3BF"/>
		<stop  offset="0.9053" style="stop-color:#45BB8B"/>
		<stop  offset="1" style="stop-color:#41B97E"/>
	</linearGradient>
	<path style="fill:url(#SVGID_00000129173546351464427680000006568831800645051832_);" d="M113,63.6c-0.3-0.3-0.7-0.6-1.1-0.8
		c-0.4-0.2-0.8-0.5-1.3-0.7c-0.4-0.2-0.9-0.5-1.3-0.7c-0.4-0.2-0.8-0.5-1.1-0.7c-0.3-0.2-0.6-0.5-0.8-0.8c-0.2-0.3-0.3-0.6-0.3-0.9
		c0-0.2,0-0.5,0.1-0.7c0.1-0.2,0.2-0.4,0.4-0.6c0.2-0.2,0.4-0.3,0.7-0.4c0.3-0.1,0.6-0.2,1-0.2c0.4,0,0.8,0.1,1.2,0.2
		c0.3,0.1,0.7,0.3,0.9,0.5c0.3,0.2,0.5,0.5,0.7,0.8c0.2,0.3,0.3,0.7,0.5,1l1.1-0.5c-0.3-0.9-0.8-1.6-1.5-2.1
		c-0.7-0.5-1.6-0.7-2.8-0.7c-0.6,0-1.2,0.1-1.7,0.3c-0.5,0.2-0.9,0.4-1.3,0.7c-0.3,0.3-0.6,0.6-0.8,1c-0.2,0.4-0.3,0.8-0.3,1.3
		c0,0.5,0.1,0.9,0.3,1.2c0.2,0.4,0.4,0.7,0.8,1c0.3,0.3,0.7,0.6,1.1,0.8c0.4,0.2,0.8,0.5,1.2,0.7c0.4,0.2,0.8,0.4,1.2,0.6
		c0.4,0.2,0.8,0.4,1.1,0.7c0.3,0.2,0.6,0.5,0.8,0.8c0.2,0.3,0.3,0.6,0.3,1c0,0.3-0.1,0.6-0.2,0.8c-0.1,0.2-0.3,0.4-0.6,0.6
		c-0.2,0.2-0.5,0.3-0.8,0.4c-0.3,0.1-0.6,0.1-0.9,0.1c-0.4,0-0.8-0.1-1.1-0.2c-0.4-0.1-0.7-0.3-1-0.5c-0.3-0.2-0.5-0.5-0.8-0.8
		c-0.2-0.3-0.4-0.7-0.5-1.1l-1.1,0.5c0.2,0.5,0.4,0.9,0.6,1.2c0.3,0.4,0.6,0.7,0.9,0.9c0.4,0.2,0.8,0.4,1.2,0.6
		c0.5,0.1,1,0.2,1.6,0.2c0.7,0,1.4-0.1,1.9-0.3c0.6-0.2,1-0.4,1.4-0.8c0.4-0.3,0.6-0.7,0.8-1.1c0.2-0.4,0.3-0.9,0.3-1.4
		c0-0.4-0.1-0.8-0.3-1.2C113.6,64.2,113.3,63.8,113,63.6"/>
	
		<linearGradient id="SVGID_00000066481963946293713890000015998837186540250261_" gradientUnits="userSpaceOnUse" x1="118.0596" y1="62.7826" x2="131.6051" y2="62.7826">
		<stop  offset="0" style="stop-color:#41B97E"/>
		<stop  offset="0.5" style="stop-color:#53C3BF"/>
		<stop  offset="0.9053" style="stop-color:#45BB8B"/>
		<stop  offset="1" style="stop-color:#41B97E"/>
	</linearGradient>
	<path style="fill:url(#SVGID_00000066481963946293713890000015998837186540250261_);" d="M130.7,59.5c-0.3-0.5-0.6-0.9-1-1.3
		c-0.4-0.4-0.9-0.7-1.4-1c-0.5-0.3-1-0.5-1.6-0.6c-0.6-0.2-1.2-0.2-1.8-0.2c-0.6,0-1.2,0.1-1.8,0.2c-0.6,0.2-1.1,0.4-1.6,0.6
		c-0.5,0.3-1,0.6-1.4,1c-0.4,0.4-0.8,0.8-1,1.3c-0.3,0.5-0.5,1-0.7,1.5c-0.2,0.5-0.2,1.1-0.2,1.7c0,0.6,0.1,1.2,0.2,1.7
		c0.2,0.6,0.4,1.1,0.7,1.6c0.3,0.5,0.6,0.9,1,1.3c0.4,0.4,0.9,0.7,1.4,1c0.5,0.3,1,0.5,1.6,0.7c0.6,0.2,1.2,0.2,1.8,0.2
		c0.6,0,1.2-0.1,1.8-0.2c0.6-0.2,1.1-0.4,1.6-0.7c0.5-0.3,1-0.6,1.4-1c0.4-0.4,0.8-0.8,1-1.3c0.3-0.5,0.5-1,0.7-1.6
		c0.2-0.6,0.2-1.1,0.2-1.7c0-0.6-0.1-1.2-0.2-1.7C131.2,60.5,131,60,130.7,59.5 M128.9,65.1c-0.2,0.7-0.5,1.3-0.8,1.9
		c-0.4,0.5-0.8,0.9-1.4,1.2c-0.5,0.3-1.2,0.4-1.9,0.4c-0.7,0-1.3-0.1-1.9-0.4c-0.5-0.3-1-0.7-1.4-1.2c-0.4-0.5-0.6-1.1-0.8-1.9
		c-0.2-0.7-0.3-1.5-0.3-2.4c0-0.8,0.1-1.6,0.3-2.3c0.2-0.7,0.5-1.3,0.8-1.8c0.4-0.5,0.8-0.9,1.4-1.2c0.5-0.3,1.2-0.4,1.9-0.4
		c0.7,0,1.3,0.1,1.9,0.4c0.5,0.3,1,0.7,1.4,1.2c0.4,0.5,0.6,1.1,0.8,1.8c0.2,0.7,0.3,1.5,0.3,2.3C129.2,63.6,129.1,64.3,128.9,65.1"
		/>
	
		<linearGradient id="SVGID_00000126282613120076662650000009995329939291701122_" gradientUnits="userSpaceOnUse" x1="136.1097" y1="62.9241" x2="146.719" y2="62.9241">
		<stop  offset="0" style="stop-color:#41B97E"/>
		<stop  offset="0.5" style="stop-color:#53C3BF"/>
		<stop  offset="0.9053" style="stop-color:#45BB8B"/>
		<stop  offset="1" style="stop-color:#41B97E"/>
	</linearGradient>
	<path style="fill:url(#SVGID_00000126282613120076662650000009995329939291701122_);" d="M145.8,64.6c0,0.5-0.1,1-0.3,1.5
		c-0.2,0.5-0.4,0.9-0.8,1.2c-0.3,0.3-0.7,0.6-1.2,0.8c-0.5,0.2-1,0.3-1.6,0.3c-0.6,0-1.1-0.1-1.6-0.3c-0.5-0.2-0.9-0.5-1.2-0.8
		c-0.3-0.3-0.6-0.8-0.8-1.2c-0.2-0.5-0.3-1-0.3-1.5v-8h-2.1v7.9c0,0.6,0.1,1.2,0.3,1.8c0.2,0.6,0.6,1.1,1,1.5c0.4,0.4,1,0.8,1.6,1
		c0.7,0.2,1.4,0.4,2.2,0.4c1,0,1.8-0.1,2.4-0.4c0.7-0.2,1.2-0.6,1.7-1c0.4-0.4,0.8-0.9,1-1.5c0.2-0.6,0.3-1.1,0.3-1.8v-8h-0.9V64.6z
		"/>
	
		<linearGradient id="SVGID_00000100362270696025138740000013308424397706039948_" gradientUnits="userSpaceOnUse" x1="150.5615" y1="62.7783" x2="161.5231" y2="62.7783">
		<stop  offset="0" style="stop-color:#41B97E"/>
		<stop  offset="0.5" style="stop-color:#53C3BF"/>
		<stop  offset="0.9053" style="stop-color:#45BB8B"/>
		<stop  offset="1" style="stop-color:#41B97E"/>
	</linearGradient>
	<polygon style="fill:url(#SVGID_00000100362270696025138740000013308424397706039948_);" points="150.6,56.6 150.6,57.4 155,57.4 
		155,68.9 157.1,68.9 157.1,57.4 161.5,57.4 161.5,56.6 	"/>
	
		<linearGradient id="SVGID_00000061466189337424784620000006929244222685252005_" gradientUnits="userSpaceOnUse" x1="165.5859" y1="62.7783" x2="175.886" y2="62.7783">
		<stop  offset="0" style="stop-color:#41B97E"/>
		<stop  offset="0.5" style="stop-color:#53C3BF"/>
		<stop  offset="0.9053" style="stop-color:#45BB8B"/>
		<stop  offset="1" style="stop-color:#41B97E"/>
	</linearGradient>
	<polygon style="fill:url(#SVGID_00000061466189337424784620000006929244222685252005_);" points="173.8,56.6 173.8,62.2 
		167.6,62.2 167.6,56.6 165.6,56.6 165.6,68.9 167.6,68.9 167.6,63 173.8,63 173.8,68.9 175.9,68.9 175.9,56.6 	"/>
	
		<linearGradient id="SVGID_00000152953054119030827420000009007981418657582775_" gradientUnits="userSpaceOnUse" x1="45.1397" y1="10.1254" x2="142.5367" y2="10.1254">
		<stop  offset="0" style="stop-color:#41B97E"/>
		<stop  offset="0.5" style="stop-color:#53C3BF"/>
		<stop  offset="0.9053" style="stop-color:#45BB8B"/>
		<stop  offset="1" style="stop-color:#41B97E"/>
	</linearGradient>
	<path style="fill:url(#SVGID_00000152953054119030827420000009007981418657582775_);" d="M60,12.2V0.1h-0.6v12
		c0,0.8-0.1,1.6-0.2,2.5c-0.2,0.9-0.5,1.7-1,2.4c-0.5,0.7-1.2,1.4-2.1,1.8c-0.9,0.5-2.1,0.7-3.5,0.7c-1.5,0-2.7-0.2-3.6-0.7
		c-0.9-0.5-1.6-1.1-2.1-1.9c-0.5-0.7-0.8-1.6-1-2.4c-0.2-0.9-0.2-1.7-0.2-2.5v-12h-0.6v12.1c0,1.1,0.1,2.1,0.4,3.1
		c0.3,1,0.7,1.8,1.3,2.5c0.6,0.7,1.4,1.3,2.3,1.7c0.9,0.4,2.1,0.6,3.5,0.6s2.5-0.2,3.5-0.6c0.9-0.4,1.7-1,2.3-1.7
		c0.6-0.7,1-1.6,1.3-2.5C59.9,14.4,60,13.3,60,12.2 M75.2,19.6l-5.9-9.9c0.6,0,1.3-0.1,2-0.2c0.7-0.2,1.3-0.4,1.8-0.8
		c0.6-0.4,1-0.9,1.4-1.5c0.3-0.6,0.5-1.4,0.5-2.3c0-1-0.2-1.8-0.6-2.4C74,1.9,73.5,1.4,72.9,1c-0.6-0.4-1.2-0.6-2-0.7
		c-0.7-0.1-1.5-0.2-2.2-0.2h-5.4v19.5H64V9.8h4.6l5.9,9.8H75.2z M72.9,8.1c-0.9,0.8-2.3,1.1-4.1,1.1H64V0.6h4.5
		c0.7,0,1.5,0.1,2.2,0.2c0.7,0.1,1.3,0.4,1.9,0.7c0.5,0.3,1,0.8,1.3,1.3c0.3,0.6,0.5,1.3,0.5,2.1C74.3,6.3,73.8,7.4,72.9,8.1
		 M89.3,12.2c-0.3-0.6-0.7-1.1-1.2-1.5c-0.5-0.4-1-0.7-1.6-0.9c-0.6-0.2-1.1-0.3-1.6-0.4V9.2c0.5-0.1,1-0.3,1.5-0.5
		c0.5-0.2,0.9-0.5,1.3-0.9c0.4-0.4,0.7-0.8,0.9-1.3c0.2-0.5,0.3-1.1,0.3-1.8c0-0.9-0.2-1.6-0.5-2.2C88,1.9,87.6,1.4,87,1.1
		c-0.6-0.3-1.2-0.6-1.9-0.7c-0.7-0.1-1.5-0.2-2.2-0.2h-5.3v19.5h6c0.7,0,1.4-0.1,2.1-0.2c0.7-0.2,1.4-0.4,2-0.8
		c0.6-0.4,1.1-0.9,1.5-1.6c0.4-0.7,0.6-1.5,0.6-2.6C89.8,13.5,89.7,12.8,89.3,12.2 M87.8,6.7c-0.3,0.5-0.7,1-1.3,1.3
		c-0.5,0.3-1.1,0.6-1.8,0.8c-0.7,0.2-1.3,0.2-2,0.2h-4.7V0.6h4.5c0.7,0,1.4,0.1,2.1,0.2c0.7,0.1,1.3,0.4,1.8,0.7
		c0.5,0.3,0.9,0.7,1.2,1.3c0.3,0.5,0.5,1.2,0.5,2C88.3,5.5,88.2,6.2,87.8,6.7 M88.8,16.6c-0.3,0.6-0.7,1.1-1.2,1.4
		c-0.5,0.4-1.2,0.6-1.9,0.8c-0.7,0.2-1.5,0.3-2.4,0.3h-5.1V9.6h5.4c0.6,0,1.3,0.1,1.9,0.3c0.7,0.2,1.3,0.5,1.8,0.8
		c0.6,0.4,1,0.9,1.4,1.5c0.4,0.6,0.5,1.4,0.5,2.3C89.2,15.3,89.1,16,88.8,16.6 M107.2,19.6L99,0.1h-0.8l-8.5,19.5h0.7l2.4-5.6h11.3
		l2.3,5.6H107.2z M104,13.5H93.1l5.5-13L104,13.5z M124,19.6V0.1h-0.6v18.7h-0.1l-14-18.7h-0.9v19.5h0.6V0.9h0.1l14,18.7H124z
		 M142.5,19.6l-8.1-19.5h-0.8l-8.5,19.5h0.7l2.4-5.6h11.3l2.3,5.6H142.5z M139.4,13.5h-10.9l5.5-13"/>
	
		<linearGradient id="SVGID_00000127008262191642146910000006344997978455677612_" gradientUnits="userSpaceOnUse" x1="145.848" y1="9.8496" x2="154.9453" y2="9.8496">
		<stop  offset="0" style="stop-color:#41B97E"/>
		<stop  offset="0.5" style="stop-color:#53C3BF"/>
		<stop  offset="0.9053" style="stop-color:#45BB8B"/>
		<stop  offset="1" style="stop-color:#41B97E"/>
	</linearGradient>
	<path style="fill:url(#SVGID_00000127008262191642146910000006344997978455677612_);" d="M146.5,0.1h-0.6v19.5h0.6V0.1z M150.7,0.1
		h-0.6v19.5h0.6V0.1z M154.9,0.1h-0.6v19.5h0.6V0.1z"/>
</g>
</svg>
