<?xml version="1.0" encoding="utf-8"?>
<!-- Generator: Adobe Illustrator 26.0.1, SVG Export Plug-In . SVG Version: 6.00 Build 0)  -->
<!DOCTYPE svg PUBLIC "-//W3C//DTD SVG 1.1//EN" "http://www.w3.org/Graphics/SVG/1.1/DTD/svg11.dtd" [
	<!ENTITY ns_extend "http://ns.adobe.com/Extensibility/1.0/">
	<!ENTITY ns_ai "http://ns.adobe.com/AdobeIllustrator/10.0/">
	<!ENTITY ns_graphs "http://ns.adobe.com/Graphs/1.0/">
	<!ENTITY ns_vars "http://ns.adobe.com/Variables/1.0/">
	<!ENTITY ns_imrep "http://ns.adobe.com/ImageReplacement/1.0/">
	<!ENTITY ns_sfw "http://ns.adobe.com/SaveForWeb/1.0/">
	<!ENTITY ns_custom "http://ns.adobe.com/GenericCustomNamespace/1.0/">
	<!ENTITY ns_adobe_xpath "http://ns.adobe.com/XPath/1.0/">
]>
<svg version="1.1" id="Layer_1" xmlns:x="&ns_extend;" xmlns:i="&ns_ai;" xmlns:graph="&ns_graphs;"
	 xmlns="http://www.w3.org/2000/svg" xmlns:xlink="http://www.w3.org/1999/xlink" x="0px" y="0px" viewBox="0 0 200 49.6"
	 style="enable-background:new 0 0 200 49.6;" xml:space="preserve">
<style type="text/css">
	.st0{fill:#080505;}
	.st1{fill:#F8AF41;}
	.st2{fill:#376278;}
	.st3{fill:#FFC663;}
	.st4{fill:#F6CE76;}
	.st5{fill:#0D98BB;}
	.st6{fill:#70B599;}
	.st7{fill:#EAE3AC;}
	.st8{fill:#91060D;}
	.st9{fill:#2D628C;}
	.st10{fill:#012944;}
	.st11{fill:#043754;}
	.st12{fill:#1D324D;}
	.st13{fill:#8C7449;}
	.st14{fill:#003756;}
	.st15{fill:#53B2D3;}
	.st16{fill:#082042;}
	.st17{fill:#055985;}
	.st18{fill:#A08C6A;}
	.st19{clip-path:url(#SVGID_00000183244245482060747950000012919931502567354267_);}
	.st20{filter:url(#Adobe_OpacityMaskFilter);}
	.st21{opacity:0.9;mask:url(#SVGID_00000103957693633800409660000017504053693377377976_);fill:#FFFFFF;}
	.st22{filter:url(#Adobe_OpacityMaskFilter_00000107567465113043993700000017671386296567198862_);}
	.st23{opacity:0.75;mask:url(#SVGID_00000028325009801728184850000001241166697377257107_);}
	.st24{filter:url(#Adobe_OpacityMaskFilter_00000141451537803207795390000006078778423421638292_);}
	.st25{mask:url(#SVGID_00000157991940724608642010000015972159306944282246_);fill:#FFFFFF;}
	.st26{filter:url(#Adobe_OpacityMaskFilter_00000056415829885276577550000007339761523243338155_);}
	.st27{opacity:0.75;mask:url(#SVGID_00000055685932746770748090000013083321086006760345_);}
	.st28{fill:none;stroke:#000000;stroke-width:1.2;}
	.st29{clip-path:url(#SVGID_00000065044548408410859120000009642847852887927722_);}
	.st30{fill:#1E2731;}
	.st31{fill:#777779;}
	
		.st32{clip-path:url(#SVGID_00000094603935331285266380000009360762146784765610_);fill:url(#SVGID_00000018941560196814535090000017869870359202959287_);}
</style>
<metadata>
	<sfw  xmlns="&ns_sfw;">
		<slices></slices>
		<sliceSourceBounds  bottomLeftOrigin="true" height="515.4" width="2527.2" x="1.1" y="-405.1"></sliceSourceBounds>
	</sfw>
</metadata>
<g>
	<g>
		<path class="st11" d="M78.8,45c0-3-1.7-4.4-3.4-4.4c-1.8,0-3.4,1.3-3.4,4.4c0,3,1.6,4.4,3.4,4.4C77.1,49.3,78.8,48,78.8,45
			 M80.1,45c0,3.1-2.3,4.4-4.7,4.4c-2.4,0-4.7-1.4-4.7-4.4c0-3.1,2.3-4.4,4.7-4.4C77.8,40.6,80.1,41.9,80.1,45"/>
		<path class="st11" d="M78.8,45c0-3-1.7-4.4-3.4-4.4c-1.8,0-3.4,1.3-3.4,4.4c0,3,1.6,4.4,3.4,4.4C77.1,49.3,78.8,48,78.8,45z
			 M80.1,45c0,3.1-2.3,4.4-4.7,4.4c-2.4,0-4.7-1.4-4.7-4.4c0-3.1,2.3-4.4,4.7-4.4C77.8,40.6,80.1,41.9,80.1,45z"/>
		<path class="st11" d="M88.6,43c0-1.3-0.6-2.3-1.8-2.3h-2v4.5h1.9C88,45.3,88.6,44.4,88.6,43 M90.5,49.2h-1.4L87,45.8
			c-0.2-0.2-0.4-0.5-0.8-0.5h-1.3v3.1c0,0.4,0.2,0.8,0.2,0.8h-1.6c0,0,0.2-0.3,0.2-0.8v-7c0-0.5-0.2-0.8-0.2-0.8H87
			c2.4,0,2.9,1.3,2.9,2.3c0,1.1-0.8,2.1-1.9,2.3L90.5,49.2z"/>
		<path class="st11" d="M88.6,43c0-1.3-0.6-2.3-1.8-2.3h-2v4.5h1.9C88,45.3,88.6,44.4,88.6,43z M90.5,49.2h-1.4L87,45.8
			c-0.2-0.2-0.4-0.5-0.8-0.5h-1.3v3.1c0,0.4,0.2,0.8,0.2,0.8h-1.6c0,0,0.2-0.3,0.2-0.8v-7c0-0.5-0.2-0.8-0.2-0.8H87
			c2.4,0,2.9,1.3,2.9,2.3c0,1.1-0.8,2.1-1.9,2.3L90.5,49.2z"/>
		<path class="st11" d="M101.4,47.6c-0.8,1.2-1.8,1.8-3.4,1.8c-2.9,0-4.6-1.8-4.6-4.4c0-3.1,2.1-4.4,4.4-4.4c0.6,0,1.4,0.1,2,0.4
			c0.7,0.4,0.8,0.6,1.2,0.6c0.1,0,0.2,0,0.3-0.1v1.3c0,0-0.2-0.6-0.6-1.1c-0.5-0.7-1.5-1.2-3-1.2c-1.6,0-3.2,1.5-3.2,4.4
			c0,3,1.6,4.4,3.3,4.4C99.5,49.3,100.5,48.7,101.4,47.6L101.4,47.6z"/>
		<path class="st11" d="M101.4,47.6c-0.8,1.2-1.8,1.8-3.4,1.8c-2.9,0-4.6-1.8-4.6-4.4c0-3.1,2.1-4.4,4.4-4.4c0.6,0,1.4,0.1,2,0.4
			c0.7,0.4,0.8,0.6,1.2,0.6c0.1,0,0.2,0,0.3-0.1v1.3c0,0-0.2-0.6-0.6-1.1c-0.5-0.7-1.5-1.2-3-1.2c-1.6,0-3.2,1.5-3.2,4.4
			c0,3,1.6,4.4,3.3,4.4C99.5,49.3,100.5,48.7,101.4,47.6L101.4,47.6z"/>
		<path class="st11" d="M112.2,48.4c0,0.4,0.2,0.8,0.2,0.8h-1.6c0,0,0.2-0.3,0.2-0.8v-5.1c0,0.2-0.1,0.4-0.3,0.7
			c-0.3,0.3-0.7,0.6-1.2,0.8l-1.7,0.6c-0.5,0.2-0.9,0.4-1.2,0.7c-0.3,0.3-0.3,0.7-0.4,1v1.4c0,0.4,0.2,0.8,0.2,0.8h-1.6
			c0,0,0.2-0.3,0.2-0.8v-7c0-0.5-0.2-0.8-0.2-0.8h1.6c0,0-0.2,0.3-0.2,0.8v5.1c0.1-0.2,0.2-0.4,0.3-0.6c0.3-0.3,0.7-0.6,1.2-0.8
			l1.7-0.6c0.5-0.2,0.9-0.4,1.2-0.7c0.3-0.4,0.4-0.9,0.4-1.3v-1c0-0.5-0.2-0.8-0.2-0.8h1.6c0,0-0.2,0.3-0.2,0.8V48.4z"/>
		<path class="st11" d="M112.2,48.4c0,0.4,0.2,0.8,0.2,0.8h-1.6c0,0,0.2-0.3,0.2-0.8v-5.1c0,0.2-0.1,0.4-0.3,0.7
			c-0.3,0.3-0.7,0.6-1.2,0.8l-1.7,0.6c-0.5,0.2-0.9,0.4-1.2,0.7c-0.3,0.3-0.3,0.7-0.4,1v1.4c0,0.4,0.2,0.8,0.2,0.8h-1.6
			c0,0,0.2-0.3,0.2-0.8v-7c0-0.5-0.2-0.8-0.2-0.8h1.6c0,0-0.2,0.3-0.2,0.8v5.1c0.1-0.2,0.2-0.4,0.3-0.6c0.3-0.3,0.7-0.6,1.2-0.8
			l1.7-0.6c0.5-0.2,0.9-0.4,1.2-0.7c0.3-0.4,0.4-0.9,0.4-1.3v-1c0-0.5-0.2-0.8-0.2-0.8h1.6c0,0-0.2,0.3-0.2,0.8V48.4z"/>
		<path class="st11" d="M116.3,41.5c0-0.5-0.2-0.8-0.2-0.8h1.6c0,0-0.2,0.3-0.2,0.8v7c0,0.4,0.2,0.8,0.2,0.8H116
			c0,0,0.2-0.3,0.2-0.8V41.5z"/>
		<path class="st11" d="M116.3,41.5c0-0.5-0.2-0.8-0.2-0.8h1.6c0,0-0.2,0.3-0.2,0.8v7c0,0.4,0.2,0.8,0.2,0.8H116
			c0,0,0.2-0.3,0.2-0.8V41.5z"/>
		<path class="st11" d="M124.9,49.1c1.7,0,3.3-1.3,3.3-4.2c0-2.9-1.5-4.2-3.3-4.2h-2.2v8.4H124.9z M124.9,40.7
			c2.3,0,4.6,1.3,4.6,4.2s-2.2,4.2-4.6,4.2h-3.6c0,0,0.2-0.3,0.2-0.8v-7c0-0.5-0.2-0.8-0.2-0.8H124.9z"/>
		<path class="st11" d="M124.9,49.1c1.7,0,3.3-1.3,3.3-4.2c0-2.9-1.5-4.2-3.3-4.2h-2.2v8.4H124.9z M124.9,40.7
			c2.3,0,4.6,1.3,4.6,4.2s-2.2,4.2-4.6,4.2h-3.6c0,0,0.2-0.3,0.2-0.8v-7c0-0.5-0.2-0.8-0.2-0.8H124.9z"/>
		<rect x="0.3" y="27.7" class="st11" width="199.5" height="0.4"/>
		<rect x="0.3" y="27.7" class="st11" width="199.5" height="0.4"/>
		<path class="st11" d="M174.7,14.9V9.4h6.4v5.5h2V3.1h-2v4.5h-6.4V3.1h-2v11.8H174.7z M165.9,11.5c-1,1.1-2.6,2-4.4,2
			c-2.6,0-4.4-2-4.4-4.5c0-2.4,1.7-4.5,4.3-4.5c1.4,0,3.1,0.6,4.1,1.6l1.4-1.4c-1.3-1.2-3.4-2.1-5.5-2.1c-3.8,0-6.4,2.8-6.4,6.3
			c0,3.5,2.6,6.3,6.5,6.3c2.6,0,4.6-1.2,5.8-2.5L165.9,11.5z M144.8,5.6h0.1l2,4.6h-4.2L144.8,5.6z M138.5,14.9h2.1l1.4-3.2h5.6
			l1.4,3.2h2.2l-5.5-11.8H144L138.5,14.9z M130.4,7.9h-4.5V4.9h7.6V3.1h-9.6v11.8h10v-1.8h-8V9.7h4.5V7.9z M113.3,4.9
			c0.6,0,1,0.1,1.3,0.5c0.3,0.3,0.4,0.6,0.4,1c0,0.4-0.2,0.9-0.5,1.2c-0.3,0.3-0.8,0.4-1.2,0.4h-4.9V4.9H113.3z M113.7,9.6
			c0.6,0,1.1,0.3,1.5,0.6c0.3,0.3,0.5,0.7,0.5,1.1c0,0.4-0.2,0.9-0.5,1.2c-0.4,0.4-0.9,0.5-1.5,0.5h-5.3V9.6H113.7z M113.7,14.9
			c1.7,0,2.5-0.5,3.1-1c0.8-0.8,1.1-1.6,1.1-2.5c0-1.4-0.8-2.7-2.2-3c0.9-0.3,1.5-1.3,1.5-2.4c0-0.7-0.3-1.4-0.8-1.9
			c-0.6-0.6-1.5-1-2.8-1h-7.1v11.8H113.7z M84.7,3.1h-2v11.8h2v-3.7L87.1,9l4.7,5.9h2.6l-5.9-7.3l4.8-4.5h-2.5L84.7,9V3.1z
			 M73.6,7.9h-4.5V4.9h7.6V3.1H67v11.8h10v-1.8h-8V9.7h4.5V7.9z M58,7.9h-4.5V4.9H61V3.1h-9.6v11.8h10v-1.8h-8V9.7H58V7.9z M41,4.9
			c0.6,0,1.3,0.1,1.8,0.6c0.3,0.3,0.5,0.7,0.5,1.2c0,1-0.9,1.8-2,1.8h-4.8V4.9H41z M36.5,14.9v-4.5h4.2l2.5,4.5h2.3l-2.8-4.8
			c1.6-0.6,2.6-1.8,2.6-3.4c0-0.9-0.3-1.7-0.9-2.4c-0.8-0.8-1.8-1.2-3.4-1.2h-6.5v11.8H36.5z M27.8,11.5c-1,1.1-2.6,2-4.4,2
			c-2.6,0-4.4-2-4.4-4.5c0-2.4,1.7-4.5,4.3-4.5c1.4,0,3.1,0.6,4.1,1.6l1.4-1.4c-1.3-1.2-3.4-2.1-5.5-2.1c-3.8,0-6.4,2.8-6.4,6.3
			c0,3.5,2.6,6.3,6.5,6.3c2.6,0,4.6-1.2,5.8-2.5L27.8,11.5z"/>
		<path class="st11" d="M174.7,14.9V9.4h6.4v5.5h2V3.1h-2v4.5h-6.4V3.1h-2v11.8H174.7z M165.9,11.5c-1,1.1-2.6,2-4.4,2
			c-2.6,0-4.4-2-4.4-4.5c0-2.4,1.7-4.5,4.3-4.5c1.4,0,3.1,0.6,4.1,1.6l1.4-1.4c-1.3-1.2-3.4-2.1-5.5-2.1c-3.8,0-6.4,2.8-6.4,6.3
			c0,3.5,2.6,6.3,6.5,6.3c2.6,0,4.6-1.2,5.8-2.5L165.9,11.5z M144.8,5.6h0.1l2,4.6h-4.2L144.8,5.6z M138.5,14.9h2.1l1.4-3.2h5.6
			l1.4,3.2h2.2l-5.5-11.8H144L138.5,14.9z M130.4,7.9h-4.5V4.9h7.6V3.1h-9.6v11.8h10v-1.8h-8V9.7h4.5V7.9z M113.3,4.9
			c0.6,0,1,0.1,1.3,0.5c0.3,0.3,0.4,0.6,0.4,1c0,0.4-0.2,0.9-0.5,1.2c-0.3,0.3-0.8,0.4-1.2,0.4h-4.9V4.9H113.3z M113.7,9.6
			c0.6,0,1.1,0.3,1.5,0.6c0.3,0.3,0.5,0.7,0.5,1.1c0,0.4-0.2,0.9-0.5,1.2c-0.4,0.4-0.9,0.5-1.5,0.5h-5.3V9.6H113.7z M113.7,14.9
			c1.7,0,2.5-0.5,3.1-1c0.8-0.8,1.1-1.6,1.1-2.5c0-1.4-0.8-2.7-2.2-3c0.9-0.3,1.5-1.3,1.5-2.4c0-0.7-0.3-1.4-0.8-1.9
			c-0.6-0.6-1.5-1-2.8-1h-7.1v11.8H113.7z M84.7,3.1h-2v11.8h2v-3.7L87.1,9l4.7,5.9h2.6l-5.9-7.3l4.8-4.5h-2.5L84.7,9V3.1z
			 M73.6,7.9h-4.5V4.9h7.6V3.1H67v11.8h10v-1.8h-8V9.7h4.5V7.9z M58,7.9h-4.5V4.9H61V3.1h-9.6v11.8h10v-1.8h-8V9.7H58V7.9z M41,4.9
			c0.6,0,1.3,0.1,1.8,0.6c0.3,0.3,0.5,0.7,0.5,1.2c0,1-0.9,1.8-2,1.8h-4.8V4.9H41z M36.5,14.9v-4.5h4.2l2.5,4.5h2.3l-2.8-4.8
			c1.6-0.6,2.6-1.8,2.6-3.4c0-0.9-0.3-1.7-0.9-2.4c-0.8-0.8-1.8-1.2-3.4-1.2h-6.5v11.8H36.5z M27.8,11.5c-1,1.1-2.6,2-4.4,2
			c-2.6,0-4.4-2-4.4-4.5c0-2.4,1.7-4.5,4.3-4.5c1.4,0,3.1,0.6,4.1,1.6l1.4-1.4c-1.3-1.2-3.4-2.1-5.5-2.1c-3.8,0-6.4,2.8-6.4,6.3
			c0,3.5,2.6,6.3,6.5,6.3c2.6,0,4.6-1.2,5.8-2.5L27.8,11.5z"/>
	</g>
</g>
</svg>
