<?xml version="1.0" encoding="utf-8"?>
<!-- Generator: Adobe Illustrator 26.0.1, SVG Export Plug-In . SVG Version: 6.00 Build 0)  -->
<!DOCTYPE svg PUBLIC "-//W3C//DTD SVG 1.1//EN" "http://www.w3.org/Graphics/SVG/1.1/DTD/svg11.dtd" [
	<!ENTITY ns_extend "http://ns.adobe.com/Extensibility/1.0/">
	<!ENTITY ns_ai "http://ns.adobe.com/AdobeIllustrator/10.0/">
	<!ENTITY ns_graphs "http://ns.adobe.com/Graphs/1.0/">
	<!ENTITY ns_vars "http://ns.adobe.com/Variables/1.0/">
	<!ENTITY ns_imrep "http://ns.adobe.com/ImageReplacement/1.0/">
	<!ENTITY ns_sfw "http://ns.adobe.com/SaveForWeb/1.0/">
	<!ENTITY ns_custom "http://ns.adobe.com/GenericCustomNamespace/1.0/">
	<!ENTITY ns_adobe_xpath "http://ns.adobe.com/XPath/1.0/">
]>
<svg version="1.1" id="Layer_1" xmlns:x="&ns_extend;" xmlns:i="&ns_ai;" xmlns:graph="&ns_graphs;"
	 xmlns="http://www.w3.org/2000/svg" xmlns:xlink="http://www.w3.org/1999/xlink" x="0px" y="0px" viewBox="0 0 200 106.4"
	 style="enable-background:new 0 0 200 106.4;" xml:space="preserve">
<style type="text/css">
	.st0{fill:#808184;}
	.st1{clip-path:url(#SVGID_00000139279677390079920930000010116132222859977901_);}
	.st2{fill:#AC9C63;}
	.st3{fill:#038295;}
	
		.st4{clip-path:url(#SVGID_00000061429273460535536440000012131020752243897249_);fill:url(#SVGID_00000008835319582141796350000003981025607301747079_);}
	
		.st5{clip-path:url(#SVGID_00000145763147153162220750000010044359294931970194_);fill:url(#SVGID_00000000211714447238034170000010808816478272568719_);}
	
		.st6{clip-path:url(#SVGID_00000137820947296503557920000003342644208754642109_);fill:url(#SVGID_00000098183742737811713960000002630058312959181719_);}
	.st7{fill:url(#SVGID_00000060015954636004113690000015876686635787105171_);}
	.st8{fill:url(#SVGID_00000132074834289058644350000014872148016802173343_);}
	.st9{fill:url(#SVGID_00000129180958853163894850000000919718460618000546_);}
	.st10{fill:url(#SVGID_00000134930728838059165980000007870249723362876848_);}
	.st11{fill:url(#SVGID_00000080179284425817852560000009599030030163148971_);}
	.st12{fill:url(#SVGID_00000003084337375313349340000004597076239211174279_);}
	.st13{fill:url(#SVGID_00000180358953715457131750000012882016564226161537_);}
	.st14{fill:url(#SVGID_00000170240717600859030070000004208779244838131612_);}
	.st15{fill:url(#SVGID_00000057135851952054591280000007077015090549173381_);}
	.st16{fill:url(#SVGID_00000152243540311593804090000017611231633094895781_);}
	.st17{fill:url(#SVGID_00000038381018137896952930000012662321003666795437_);}
	.st18{fill:url(#SVGID_00000129892701009677792710000018333419100921246090_);}
	.st19{fill:url(#SVGID_00000059270058700294365510000013201621153683004862_);}
	.st20{fill:url(#SVGID_00000140710769331393037790000004244563550205827254_);}
	.st21{fill:url(#SVGID_00000023994066302827159560000006299219921349276073_);}
	.st22{fill:url(#SVGID_00000023279866678889636990000000429639449219552642_);}
	.st23{fill:url(#SVGID_00000135682887092027051490000001022808686276467629_);}
	.st24{fill:url(#SVGID_00000021813732848585181740000001425345671832843167_);}
	.st25{fill:url(#SVGID_00000078008134126051178070000004119987419877904549_);}
	.st26{fill:url(#SVGID_00000002369892624861190910000009227973621283662242_);}
	.st27{fill:url(#SVGID_00000080887501601720937090000016187397596051913613_);}
	.st28{fill:url(#SVGID_00000163794922837143472310000018290225397479519380_);}
	.st29{fill:url(#SVGID_00000132810879925182389300000008081536147278953144_);}
	.st30{fill:url(#SVGID_00000082346440956277764580000010750410235271980933_);}
	.st31{fill:url(#SVGID_00000085934654109563929150000016064178244754642830_);}
	.st32{fill:url(#SVGID_00000050661869573227661140000011436719329772053655_);}
	.st33{fill:url(#SVGID_00000111893921476671628170000004906657832435134357_);}
	.st34{fill:url(#SVGID_00000096741637478656713700000014832602267615575726_);}
	.st35{fill:url(#SVGID_00000098222030340223744240000016983086579639527835_);}
	.st36{fill:url(#SVGID_00000001660570875571484570000014234934079152185483_);}
	.st37{fill:url(#SVGID_00000117646603909466152790000016276586639163770532_);}
	.st38{fill:url(#SVGID_00000042728313235962862130000005036530154166671798_);}
	.st39{fill:url(#SVGID_00000119110801609784706280000002538240751965799349_);}
	.st40{fill:url(#SVGID_00000078764128531649029080000015045363672316880826_);}
	.st41{fill:url(#SVGID_00000031202050127411392070000004287976311527400605_);}
	.st42{fill:url(#SVGID_00000048468710670882090860000004582292247654090905_);}
	.st43{fill:url(#SVGID_00000156572816706623316870000018185988540147974333_);}
	.st44{fill:url(#SVGID_00000136409763708069556970000014560226299144027019_);}
	.st45{fill:url(#SVGID_00000031167632993957038040000007884247846592197051_);}
	.st46{fill:url(#SVGID_00000018953627694695335150000004675843422505612697_);}
	.st47{fill:url(#SVGID_00000013899188962416446380000006395404540039271048_);}
	.st48{fill:url(#SVGID_00000148636320150114703700000018357494174835824042_);}
	.st49{fill:url(#SVGID_00000054229613582268628680000006632418993082972329_);}
	.st50{fill:url(#SVGID_00000125592712429986954550000012993735931608655515_);}
	.st51{fill:url(#SVGID_00000069396072225021860380000008789223854991596437_);}
	.st52{fill:url(#SVGID_00000067953288996197522940000007527396669538949553_);}
	.st53{fill:url(#SVGID_00000077295329792512268610000000483724068479827880_);}
	.st54{fill:#6AC1D5;}
	.st55{fill:#73BAB2;}
</style>
<metadata>
	<sfw  xmlns="&ns_sfw;">
		<slices></slices>
		<sliceSourceBounds  bottomLeftOrigin="true" height="343" width="2527.3" x="0.4" y="-188.2"></sliceSourceBounds>
	</sfw>
</metadata>
<g>
	<polygon class="st54" points="5.3,86.6 5.3,74.6 0.8,74.6 0.8,72.5 11.8,72.5 11.8,74.6 7.3,74.6 7.3,86.6 	"/>
	<polygon class="st54" points="31.5,86.6 31.5,80.5 24.4,80.5 24.4,86.6 22.3,86.6 22.3,72.5 24.4,72.5 24.4,78.5 31.5,78.5 
		31.5,72.5 33.6,72.5 33.6,86.6 	"/>
	<polygon class="st54" points="45,86.6 45,72.5 55.3,72.5 55.3,74.6 47.1,74.6 47.1,78.5 54.4,78.5 54.4,80.5 47.1,80.5 47.1,84.5 
		55.4,84.5 55.4,86.6 	"/>
	<polygon class="st54" points="85.8,86.6 79.6,72.5 81.9,72.5 86.6,83.5 91.3,72.5 93.5,72.5 87.4,86.6 	"/>
	<path class="st54" d="M113.1,86.6l-1.6-3.6h-6.9l-1.6,3.6h-2.2l6.5-14.1h1.6l6.5,14.1C115.4,86.6,113.1,86.6,113.1,86.6z M110.5,81
		l-2.5-5.5l-2.5,5.5H110.5z"/>
	<polygon class="st54" points="125.5,86.6 125.5,72.5 127.5,72.5 127.5,84.5 135.1,84.5 135.1,86.6 	"/>
	<polygon class="st54" points="145.6,86.6 145.6,72.5 147.7,72.5 147.7,84.5 155.2,84.5 155.2,86.6 	"/>
	<polygon class="st54" points="165.7,86.6 165.7,72.5 176,72.5 176,74.6 167.8,74.6 167.8,78.5 175.1,78.5 175.1,80.5 167.8,80.5 
		167.8,84.5 176.1,84.5 176.1,86.6 	"/>
	<polygon class="st54" points="191.4,86.6 191.4,81.1 185.4,72.5 188,72.5 192.5,79 197,72.5 199.6,72.5 193.5,81.1 193.5,86.6 	"/>
	<polygon class="st54" points="99.8,31.9 90.5,9.3 82.2,9.3 95.4,41.7 	"/>
	<polygon class="st54" points="98.1,48.2 118.2,2.2 116.7,2.2 97.4,46.5 	"/>
	<g>
		<path class="st54" d="M87.4,98v1.3h-4.1v2h3.9v1.3h-3.9v2.1h4.2v1.3h-5.6V98H87.4z"/>
		<path class="st54" d="M92.3,106.1V98h3.2c2.7,0,4,1.3,4,3.8c0,2.8-1.3,4.3-4,4.3H92.3z M95.5,104.8c1.7,0,2.5-1,2.5-3
			c0-1.7-0.8-2.5-2.5-2.5h-1.7v5.5H95.5z"/>
		<path class="st54" d="M109.8,98v1.3h-4.1v2h3.9v1.3h-3.9v2.1h4.2v1.3h-5.6V98H109.8z"/>
		<path class="st54" d="M114.8,106.1V98h1.5l4.3,5.9V98h1.5v8.1h-1.5l-4.3-6v6H114.8z"/>
	</g>
</g>
</svg>
