<?xml version="1.0" encoding="utf-8"?>
<!-- Generator: Adobe Illustrator 26.0.1, SVG Export Plug-In . SVG Version: 6.00 Build 0)  -->
<!DOCTYPE svg PUBLIC "-//W3C//DTD SVG 1.1//EN" "http://www.w3.org/Graphics/SVG/1.1/DTD/svg11.dtd" [
	<!ENTITY ns_extend "http://ns.adobe.com/Extensibility/1.0/">
	<!ENTITY ns_ai "http://ns.adobe.com/AdobeIllustrator/10.0/">
	<!ENTITY ns_graphs "http://ns.adobe.com/Graphs/1.0/">
	<!ENTITY ns_vars "http://ns.adobe.com/Variables/1.0/">
	<!ENTITY ns_imrep "http://ns.adobe.com/ImageReplacement/1.0/">
	<!ENTITY ns_sfw "http://ns.adobe.com/SaveForWeb/1.0/">
	<!ENTITY ns_custom "http://ns.adobe.com/GenericCustomNamespace/1.0/">
	<!ENTITY ns_adobe_xpath "http://ns.adobe.com/XPath/1.0/">
]>
<svg version="1.1" id="Layer_1" xmlns:x="&ns_extend;" xmlns:i="&ns_ai;" xmlns:graph="&ns_graphs;"
	 xmlns="http://www.w3.org/2000/svg" xmlns:xlink="http://www.w3.org/1999/xlink" x="0px" y="0px" viewBox="0 0 200 109.8"
	 style="enable-background:new 0 0 200 109.8;" xml:space="preserve">
<style type="text/css">
	.st0{fill:#080505;}
	.st1{fill:#F8AF41;}
	.st2{fill:#376278;}
	.st3{fill:#FFC663;}
	.st4{fill:#F6CE76;}
	.st5{fill:#0D98BB;}
	.st6{fill:#70B599;}
	.st7{fill:#EAE3AC;}
	.st8{fill:#91060D;}
	.st9{fill:#2D628C;}
	.st10{fill:#012944;}
	.st11{fill:#043754;}
	.st12{fill:#1D324D;}
	.st13{fill:#8C7449;}
	.st14{fill:#003756;}
	.st15{fill:#53B2D3;}
	.st16{fill:#082042;}
	.st17{fill:#055985;}
	.st18{fill:#A08C6A;}
	.st19{clip-path:url(#SVGID_00000139998534518010873620000013011105886038453161_);}
	.st20{filter:url(#Adobe_OpacityMaskFilter);}
	.st21{opacity:0.9;mask:url(#SVGID_00000060022423783585231740000000822111828923149232_);fill:#FFFFFF;}
	.st22{filter:url(#Adobe_OpacityMaskFilter_00000076598419489319058620000010700041012889780143_);}
	.st23{opacity:0.75;mask:url(#SVGID_00000007426959388608957200000004620721174398932900_);}
	.st24{filter:url(#Adobe_OpacityMaskFilter_00000055686790288273089340000017499004429195571625_);}
	.st25{mask:url(#SVGID_00000055707001656519365060000005264994029484104632_);fill:#FFFFFF;}
	.st26{filter:url(#Adobe_OpacityMaskFilter_00000040546681064805138600000014779195118093216656_);}
	.st27{opacity:0.75;mask:url(#SVGID_00000005252409330501999430000003263939674129407636_);}
	.st28{fill:none;stroke:#000000;stroke-width:1.2;}
	.st29{clip-path:url(#SVGID_00000003097472549173154840000015056979998738248582_);}
	.st30{fill:#1E2731;}
	.st31{fill:#777779;}
	
		.st32{clip-path:url(#SVGID_00000122703848235970440650000007936515832853406864_);fill:url(#SVGID_00000000208158167988161630000008193843531614968224_);}
</style>
<metadata>
	<sfw  xmlns="&ns_sfw;">
		<slices></slices>
		<sliceSourceBounds  bottomLeftOrigin="true" height="515.4" width="2527.2" x="1.1" y="-405.1"></sliceSourceBounds>
	</sfw>
</metadata>
<g>
	<path d="M75.9,8c0.8-0.7,1.3-1.5,1.7-2.4c0.6-1.4,0.5-2.4-0.1-3.2c-0.7-0.8-1.9-1.1-3.8-1.1h-6.3l-0.6,1.4h4.3
		c2.2,0,2.8,1.1,2.1,2.9c-0.4,1.1-0.8,2-1.7,2.5c-0.8,0.4-1.7,0.5-3.3,0.5l-2,0L67.7,5h-1.9L63.7,10h5.7c1.6,0,2.9-0.1,3.8-0.4
		C74.2,9.3,75.1,8.7,75.9,8 M116.8,1.3L116.8,1.3l-2.3,0l-9,8.4l3.5-8.4h-3.8l-4.6,3.6l-2.4,2h-0.1L99.2,4l-1.4-2.7H94l-3.5,8.4
		l-2-8.4h-4.2L74.8,10h2.3l2.4-2.3h5.9l0.5,2.3h6.3l2.3-5.4c0.1-0.3,0.2-0.6,0.3-0.9c0,0.3,0.1,0.6,0.2,0.9l2,4.5h0.3l5.7-4.5
		c0.2-0.2,0.5-0.5,1-0.9c-0.2,0.4-0.4,0.7-0.5,0.9l-2.3,5.4h4.1l0,0h4.4l2.4-2.3h6.1l0.5,2.3h2.2l-2.1-8.8H116.8z M80.8,6.5L84.5,3
		l0.7,3.6H80.8z M113.3,6.5l3.8-3.7l0.8,3.7H113.3z M135.4,1.3L135.4,1.3l-6.3-0.1c-1.9,0-3.4,0.4-4.7,1.1c-1.3,0.8-2.2,1.8-2.8,3.2
		c-0.4,0.9-0.5,1.7-0.3,2.4c0.2,0.7,0.6,1.3,1.4,1.6c0.7,0.3,1.8,0.4,3.4,0.4h5.7l0.6-1.4h-3.2c-1.5,0-2.6-0.2-3.1-0.6
		c-0.6-0.4-0.5-1.4-0.1-2.5c0.8-1.8,2.4-3,4.6-3h2.5L132.5,4h1.9L135.4,1.3L135.4,1.3z"/>
	<path d="M60.9,38.3c-0.6-0.3-1-0.7-1.4-1.2c-0.4-0.5-0.6-1.1-0.6-1.7c-0.5,0.4-1,0.8-1.5,1.2c-0.5,0.4-1,0.8-1.6,1.1
		c-0.6,0.3-1.2,0.6-1.9,0.8c-0.7,0.2-1.5,0.3-2.4,0.3c-0.8,0-1.6-0.1-2.2-0.4c-0.7-0.3-1.2-0.6-1.7-1.1c-0.5-0.5-0.8-1-1.1-1.7
		c-0.3-0.6-0.4-1.3-0.4-2.1c0-0.9,0.2-1.7,0.5-2.5c0.4-0.7,0.9-1.4,1.5-2c0.6-0.6,1.4-1.1,2.2-1.5c0.8-0.4,1.7-0.8,2.7-1.2
		c0.9-0.4,1.9-0.7,2.9-0.9c1-0.3,2-0.5,2.9-0.8v-1.3c0-1-0.1-1.8-0.2-2.4c-0.1-0.7-0.4-1.2-0.6-1.6c-0.3-0.4-0.7-0.7-1.1-0.9
		c-0.4-0.2-1-0.3-1.6-0.3c-0.6,0-1.1,0.1-1.6,0.4c-0.5,0.2-0.9,0.6-1.3,0.9c-0.4,0.4-0.7,0.9-0.9,1.4c-0.2,0.5-0.4,1.1-1.3,1.5
		c-1.1,0.5-3.1,0.1-3.1,0.1s0.4-1.7,0.9-2.4c0.5-0.7,1.2-1.3,2-1.8c0.8-0.5,1.7-0.9,2.7-1.1c1-0.3,2-0.4,3.1-0.4
		c1.4,0,2.5,0.1,3.5,0.4c0.9,0.3,1.7,0.6,2.3,1.1c0.6,0.5,1,1.1,1.2,1.8c0.2,0.7,0.4,1.5,0.4,2.3v13.1c0,0.6,0.2,1.2,0.6,1.7
		c0.4,0.5,0.8,0.9,1.4,1.2H60.9z M59,25.9c-0.6,0.2-1.2,0.4-1.9,0.7c-0.7,0.2-1.3,0.5-1.9,0.8c-0.6,0.3-1.2,0.6-1.8,1
		s-1.1,0.7-1.5,1.2c-0.4,0.4-0.8,0.9-1,1.3c-0.2,0.5-0.4,0.9-0.4,1.4c0,0.5,0.1,1,0.3,1.5c0.2,0.5,0.4,0.9,0.8,1.2
		c0.3,0.4,0.7,0.6,1.1,0.8c0.4,0.2,0.8,0.3,1.3,0.3c0.5,0,0.9-0.1,1.3-0.2c0.4-0.1,0.8-0.3,1.2-0.5c0.4-0.2,0.8-0.5,1.2-0.7
		c0.4-0.3,0.8-0.6,1.2-0.9V25.9z"/>
	<path d="M86,18.2V20h-3.5c0.4,0.6,0.7,1.2,1,1.9c0.3,0.7,0.4,1.4,0.4,2.1c0,1.1-0.2,2.1-0.7,3c-0.5,0.9-1.2,1.7-2,2.3
		c-0.9,0.7-1.9,1.2-3.1,1.5c-1.2,0.4-2.5,0.5-4,0.5c-0.5,0-1.1,0-1.6-0.1c-0.6-0.1-1-0.2-1.5-0.3c-0.4,0.3-0.7,0.7-1,1.2
		c-0.3,0.4-0.4,0.9-0.4,1.3c0,0.4,0.2,0.8,0.7,1c0.5,0.2,1.1,0.4,2,0.4l7.8,0.4c1.3,0.1,2.3,0.2,3.1,0.4c0.8,0.2,1.5,0.6,2,1
		c0.5,0.4,0.9,0.9,1.1,1.4c0.2,0.6,0.3,1.2,0.3,1.9c0,1.2-0.3,2.3-0.9,3.3c-0.6,1-1.4,1.9-2.5,2.6c-1.1,0.7-2.4,1.3-3.9,1.6
		c-1.6,0.4-3.3,0.6-5.3,0.6c-1.8,0-3.3-0.1-4.6-0.3c-1.3-0.2-2.4-0.5-3.3-0.9c-0.9-0.4-1.5-0.8-1.9-1.4c-0.4-0.5-0.6-1.1-0.6-1.8
		c0-0.6,0.1-1.1,0.4-1.7c0.3-0.5,0.7-1,1.1-1.5c0.5-0.5,1-1,1.5-1.4c0.6-0.5,1.1-0.9,1.6-1.3c-0.4-0.1-0.8-0.3-1.1-0.4
		c-0.3-0.2-0.6-0.4-0.9-0.6c-0.2-0.2-0.4-0.5-0.6-0.7c-0.1-0.3-0.2-0.5-0.2-0.8c0-0.4,0.1-0.9,0.3-1.3c0.2-0.5,0.5-0.9,0.9-1.3
		c0.4-0.4,0.9-0.8,1.4-1.2c0.5-0.4,1.1-0.6,1.7-0.8c-1.4-0.6-2.5-1.5-3.3-2.5c-0.8-1.1-1.2-2.3-1.2-3.7c0-1,0.2-2,0.7-2.9
		c0.5-0.9,1.1-1.7,2-2.4c0.8-0.7,1.8-1.2,3-1.6c1.1-0.4,2.3-0.6,3.7-0.6c0.6,0,1.3,0,1.9,0.1c0.6,0.1,1.2,0.2,1.7,0.3
		c0.5,0.1,1,0.3,1.4,0.5c0.4,0.2,0.7,0.4,1,0.6H86z M69.5,38.1c-0.3,0.2-0.6,0.5-0.8,0.8c-0.2,0.3-0.4,0.6-0.6,0.9
		c-0.2,0.3-0.3,0.6-0.4,1c-0.1,0.3-0.1,0.6-0.1,0.9c0,0.5,0.2,0.9,0.5,1.3c0.3,0.4,0.8,0.8,1.5,1.1c0.7,0.3,1.5,0.6,2.5,0.8
		c1,0.2,2.2,0.3,3.5,0.3c1.4,0,2.7-0.1,3.8-0.3c1.1-0.2,2.1-0.5,2.8-0.9c0.8-0.4,1.4-0.8,1.8-1.2c0.4-0.4,0.6-0.9,0.6-1.4
		c0-0.5-0.1-0.9-0.4-1.2c-0.2-0.3-0.6-0.6-1-0.9c-0.5-0.2-1-0.4-1.7-0.5c-0.6-0.1-1.4-0.2-2.2-0.2c-1,0-2.1,0-3.1-0.1
		c-1,0-2-0.1-2.9-0.2c-0.9-0.1-1.7-0.1-2.4-0.2C70.3,38.2,69.8,38.2,69.5,38.1 M74.8,30.3c0.6,0,1.2-0.1,1.7-0.4
		c0.6-0.3,1-0.6,1.5-1.1c0.4-0.5,0.8-1,1-1.6c0.2-0.6,0.4-1.3,0.4-2c0-1-0.1-2-0.4-2.9c-0.3-0.9-0.7-1.7-1.2-2.3
		c-0.5-0.7-1.1-1.2-1.7-1.5c-0.6-0.4-1.3-0.6-2.1-0.6c-0.7,0-1.3,0.1-1.8,0.4c-0.5,0.3-0.9,0.7-1.3,1.2c-0.3,0.5-0.6,1.1-0.7,1.8
		c-0.2,0.7-0.2,1.4-0.2,2.2c0,1,0.1,1.8,0.4,2.7c0.2,0.8,0.6,1.6,1,2.2c0.4,0.6,0.9,1.1,1.5,1.4C73.4,30.1,74,30.3,74.8,30.3"/>
	<path d="M95.2,38.8c-1.6,0-3.1-0.3-4.5-0.9c-1.4-0.6-2.6-1.3-3.5-2.3c-1-1-1.8-2.1-2.3-3.4c-0.6-1.3-0.8-2.7-0.8-4.2
		c0-1.6,0.3-3,0.8-4.4c0.6-1.4,1.3-2.6,2.3-3.6c1-1,2.2-1.8,3.5-2.4c1.4-0.6,2.9-0.9,4.5-0.9c1.6,0,3.1,0.3,4.5,0.8
		c1.4,0.5,2.5,1.3,3.5,2.2c1,0.9,1.8,2,2.3,3.3c0.6,1.3,0.8,2.6,0.8,4.1c0,1.6-0.3,3.1-0.8,4.5c-0.6,1.4-1.3,2.7-2.3,3.7
		c-1,1.1-2.2,1.9-3.5,2.5C98.3,38.5,96.8,38.8,95.2,38.8 M96,37.2c0.8,0,1.6-0.2,2.3-0.6c0.7-0.4,1.3-1,1.8-1.7
		c0.5-0.7,0.9-1.6,1.2-2.5c0.3-1,0.4-2,0.4-3c0-1.5-0.1-3-0.4-4.3c-0.3-1.3-0.7-2.5-1.3-3.5c-0.6-1-1.4-1.8-2.3-2.4
		c-1-0.6-2.1-0.9-3.5-0.9c-0.7,0-1.4,0.2-2.1,0.6c-0.7,0.4-1.2,1-1.8,1.7c-0.5,0.7-0.9,1.5-1.2,2.5c-0.3,0.9-0.5,2-0.5,3
		c0,1.5,0.2,3,0.5,4.4c0.3,1.4,0.8,2.5,1.4,3.5c0.6,1,1.4,1.8,2.3,2.4C93.8,36.9,94.8,37.2,96,37.2"/>
	<path d="M118.2,38.8c-1.6,0-3.1-0.3-4.5-0.9c-1.4-0.6-2.6-1.3-3.5-2.3c-1-1-1.8-2.1-2.3-3.4c-0.6-1.3-0.8-2.7-0.8-4.2
		c0-1.6,0.3-3,0.8-4.4c0.6-1.4,1.3-2.6,2.3-3.6c1-1,2.2-1.8,3.5-2.4c1.4-0.6,2.9-0.9,4.5-0.9c1.6,0,3.1,0.3,4.5,0.8
		c1.4,0.5,2.5,1.3,3.5,2.2c1,0.9,1.8,2,2.3,3.3c0.6,1.3,0.8,2.6,0.8,4.1c0,1.6-0.3,3.1-0.8,4.5c-0.6,1.4-1.3,2.7-2.3,3.7
		c-1,1.1-2.2,1.9-3.5,2.5C121.3,38.5,119.8,38.8,118.2,38.8 M119,37.2c0.8,0,1.6-0.2,2.3-0.6c0.7-0.4,1.3-1,1.8-1.7
		c0.5-0.7,0.9-1.6,1.2-2.5c0.3-1,0.4-2,0.4-3c0-1.5-0.1-3-0.4-4.3c-0.3-1.3-0.7-2.5-1.3-3.5c-0.6-1-1.4-1.8-2.3-2.4
		c-1-0.6-2.1-0.9-3.5-0.9c-0.7,0-1.4,0.2-2.1,0.6c-0.7,0.4-1.2,1-1.8,1.7c-0.5,0.7-0.9,1.5-1.2,2.5c-0.3,0.9-0.5,2-0.5,3
		c0,1.5,0.2,3,0.5,4.4c0.3,1.4,0.8,2.5,1.4,3.5c0.6,1,1.4,1.8,2.3,2.4C116.8,36.9,117.9,37.2,119,37.2"/>
	<path d="M133.3,16.7h1.2V21c1.3-1.4,2.6-2.5,4-3.2c1.4-0.7,2.8-1.1,4.2-1.1c0.7,0,1.4,0.2,2.1,0.5c0.6,0.3,1.2,0.8,1.7,1.4
		c0.5,0.6,0.9,1.3,1.1,2c0.3,0.8,0.4,1.6,0.4,2.5v15.2h-4.2V23.8c0-0.7-0.1-1.3-0.2-1.9c-0.2-0.5-0.4-1-0.7-1.3
		c-0.3-0.4-0.7-0.6-1.1-0.8c-0.4-0.2-0.9-0.3-1.4-0.3c-0.4,0-0.9,0.1-1.4,0.2c-0.5,0.2-1,0.4-1.5,0.6c-0.5,0.3-1,0.6-1.5,1
		c-0.5,0.4-1,0.8-1.5,1.2v12.7c0,1.7-1.3,3-3,3h-1.2V17.9L133.3,16.7z"/>
	<path d="M164.4,30c-0.4-0.7-0.8-1.2-1.4-1.8c-0.6-0.5-1.2-1-2-1.3c-0.7-0.4-1.5-0.7-2.3-1.1c-0.8-0.3-1.5-0.7-2.3-1
		c-0.7-0.3-1.4-0.7-2-1c-0.6-0.4-1-0.8-1.4-1.3c-0.4-0.5-0.5-1-0.5-1.7c0-0.4,0.1-0.8,0.3-1.1c0.2-0.3,0.5-0.6,0.8-0.9
		c0.4-0.3,0.8-0.5,1.3-0.6c0.5-0.1,1-0.2,1.5-0.2c0.6,0,1.1,0.1,1.6,0.3c0.5,0.2,0.9,0.5,1.3,0.9c0.4,0.4,0.7,0.9,0.9,1.4
		c0.2,0.5,0.4,1.1,1.3,1.5c1.1,0.5,3.1,0.1,3.1,0.1s-0.4-1.7-0.9-2.4c-0.5-0.7-1.2-1.3-2-1.8c-0.8-0.5-1.7-0.9-2.7-1.1
		c-0.8-0.2-1.6-0.4-2.5-0.4v0c-0.1,0-0.1,0-0.1,0c-0.1,0-0.2,0-0.2,0v0c-0.9,0-1.7,0.2-2.4,0.4c-0.9,0.3-1.6,0.7-2.3,1.2
		c-0.6,0.5-1.1,1.2-1.5,1.9c-0.4,0.7-0.5,1.5-0.5,2.4c0,0.9,0.2,1.7,0.5,2.4c0.3,0.7,0.8,1.3,1.3,1.8c0.5,0.5,1.1,1,1.8,1.3
		c0.7,0.4,1.4,0.7,2.1,1.1c0.7,0.3,1.4,0.7,2.1,1c0.7,0.3,1.3,0.7,1.8,1c0.5,0.4,1,0.8,1.3,1.3c0.3,0.5,0.5,1.1,0.5,1.7
		c0,0.4-0.1,0.8-0.3,1.2c-0.2,0.4-0.5,0.7-0.8,1c-0.4,0.3-0.8,0.5-1.3,0.7c-0.5,0.2-1,0.3-1.6,0.3c-0.5,0-0.9-0.1-1.3-0.1
		c-0.2,0-0.3-0.1-0.4-0.2c-0.5-0.2-0.9-0.5-1.3-0.9c-0.4-0.4-0.7-0.9-0.9-1.4c-0.2-0.5-0.3-1.1-1.3-1.5c-1.1-0.5-3.1-0.1-3.1-0.1
		s0.4,1.7,0.9,2.4c0.5,0.7,1.2,1.3,2,1.8c0.8,0.5,1.7,0.9,2.7,1.1c0.9,0.2,1.8,0.4,2.7,0.4c0,0,0,0,0,0c1.4,0,2.6-0.2,3.6-0.5
		c1-0.3,1.8-0.8,2.5-1.4c0.7-0.6,1.2-1.3,1.5-2c0.3-0.8,0.5-1.6,0.5-2.5C164.9,31.5,164.7,30.7,164.4,30"/>
	<path d="M150.2,43.8c-3,1.1-5.7,2-9.7,2c-10.4,0-21.1-7.4-30.1-2.4c11.3-1.8,19.1,5.6,30.2,4.4C144.1,47.5,147.4,46.1,150.2,43.8"
		/>
	<path d="M127.6,48.2c-8.9,0.4-14.9-1.6-21.6-4c-5.8-1.6-12.9-2.3-17.4,1.6c4.7-1.8,9.9-1.1,14.3,0.1
		C106.9,47.2,117.5,52,127.6,48.2"/>
	<path d="M45.9,47c-2.9-1.5-3.1-2.7-3.1-4.5v-0.5c0,0,0,0,0-0.1V14.7c0-3.3-4.2-4.2-4.2-4.2v30.3h0V41c-0.1,2.3-1.9,4.1-4.2,4.1
		h-0.8l0,0.7c3.7,0.1,7.7,1.1,11.5,3.2c18.9,10.3,33.1,11,42.7-1.8C87.7,47.1,72.4,60.7,45.9,47"/>
</g>
<g>
	<path class="st6" d="M11.4,72.8v35.4H7.9V69.5c0-3.6-1.4-6.4-6.4-6.4H1.1V61h5c5.4,0,8.6,1.4,10.8,4.3l24.6,28.6V61h3.6v47.4h-3.3
		L11.4,72.8z"/>
	<path class="st6" d="M67.4,98.9V61h9.3v37.9c0,4.3,0.7,7.2,5,7.2h0.7v2.1h-8.6C68.9,108.2,67.4,106.1,67.4,98.9z"/>
	<path class="st6" d="M97.2,85.3c0-14.5,10.1-25.8,23.6-25.8c8.9,0,14.3,2.7,17,5.8c1.9,2.5,1.9,6.7,1.9,10.9h-2.1
		c-1.8-8.7-6.6-13.4-14.5-13.4c-8.8,0-15.7,5.2-15.7,22.5c0,10.9,4.4,21.1,15.7,21.1c6.6,0,12.5-3.6,16-10.2l2.5,1.9
		c-4.5,7.9-10.6,11.5-20.6,11.5C105.7,109.6,97.2,99,97.2,85.3z"/>
	<path class="st6" d="M161.4,70.3c0-4.3-0.7-7.2-5-7.2h-0.7V61h31.5c4.9,0,6.1,2.9,6.1,5.7v6.1h-2.1c0-6.1-3.2-8.6-8.9-8.6h-11.5
		v17.9h18.6v3.2h-18.6V105h12.2c5.2,0,8.8-1.9,11.3-8.2l1.9,0.7l-2.1,5.7c-1.1,3.1-2.3,5-6.2,5h-26.5V70.3z"/>
</g>
</svg>
