<?xml version="1.0" encoding="utf-8"?>
<!-- Generator: Adobe Illustrator 26.0.1, SVG Export Plug-In . SVG Version: 6.00 Build 0)  -->
<!DOCTYPE svg PUBLIC "-//W3C//DTD SVG 1.1//EN" "http://www.w3.org/Graphics/SVG/1.1/DTD/svg11.dtd" [
	<!ENTITY ns_extend "http://ns.adobe.com/Extensibility/1.0/">
	<!ENTITY ns_ai "http://ns.adobe.com/AdobeIllustrator/10.0/">
	<!ENTITY ns_graphs "http://ns.adobe.com/Graphs/1.0/">
	<!ENTITY ns_vars "http://ns.adobe.com/Variables/1.0/">
	<!ENTITY ns_imrep "http://ns.adobe.com/ImageReplacement/1.0/">
	<!ENTITY ns_sfw "http://ns.adobe.com/SaveForWeb/1.0/">
	<!ENTITY ns_custom "http://ns.adobe.com/GenericCustomNamespace/1.0/">
	<!ENTITY ns_adobe_xpath "http://ns.adobe.com/XPath/1.0/">
]>
<svg version="1.1" id="Layer_1" xmlns:x="&ns_extend;" xmlns:i="&ns_ai;" xmlns:graph="&ns_graphs;"
	 xmlns="http://www.w3.org/2000/svg" xmlns:xlink="http://www.w3.org/1999/xlink" x="0px" y="0px" viewBox="0 0 200 71"
	 style="enable-background:new 0 0 200 71;" xml:space="preserve">
<style type="text/css">
	.st0{fill:#808184;}
	.st1{clip-path:url(#SVGID_00000034087156165245681730000000215959440019119256_);}
	.st2{fill:#AC9C63;}
	.st3{fill:#038295;}
	
		.st4{clip-path:url(#SVGID_00000103983041895008335100000015359668169438792616_);fill:url(#SVGID_00000054255070710688264950000013778776517671723928_);}
	
		.st5{clip-path:url(#SVGID_00000057147384048320542480000006646855271048158336_);fill:url(#SVGID_00000099663479618543082870000014784991905291595662_);}
	
		.st6{clip-path:url(#SVGID_00000181767360842488943170000015171968443275973809_);fill:url(#SVGID_00000175319135911457458720000013654032669964817283_);}
	.st7{fill:url(#SVGID_00000073681724517034476350000005748520109082940581_);}
	.st8{fill:url(#SVGID_00000083776635297870459900000009884968257317113743_);}
	.st9{fill:url(#SVGID_00000135653665942524720270000001733734425723297203_);}
	.st10{fill:url(#SVGID_00000182486725019061677470000008996850289557605250_);}
	.st11{fill:url(#SVGID_00000002363634948469527840000006511302379080471214_);}
	.st12{fill:url(#SVGID_00000006672664334902445770000005562635212056211850_);}
	.st13{fill:url(#SVGID_00000016035534586012918770000007813711904288612493_);}
	.st14{fill:url(#SVGID_00000077320395113872136850000003328061398357000079_);}
	.st15{fill:url(#SVGID_00000007408540064214836460000004124480976690566045_);}
	.st16{fill:url(#SVGID_00000027569101812472901850000005077796909467187120_);}
	.st17{fill:url(#SVGID_00000075848029787949434270000010360105800193782184_);}
	.st18{fill:url(#SVGID_00000083808147088136120020000016542232537026047105_);}
	.st19{fill:url(#SVGID_00000070085512843093456710000015021290699168520586_);}
	.st20{fill:url(#SVGID_00000133523142451731248780000004883011491976678807_);}
	.st21{fill:url(#SVGID_00000137824803601524362960000008563578518031763597_);}
	.st22{fill:url(#SVGID_00000000216021262326995280000004272479352951191201_);}
	.st23{fill:url(#SVGID_00000127014274730488241640000006659870330475582351_);}
	.st24{fill:url(#SVGID_00000179618324829141151100000015041018428037654432_);}
	.st25{fill:url(#SVGID_00000098196784941417710600000015169689105624497280_);}
	.st26{fill:url(#SVGID_00000143619427706101326270000016273046587162377904_);}
	.st27{fill:url(#SVGID_00000168798922196158547940000003769577570677243801_);}
	.st28{fill:url(#SVGID_00000042013955121891987020000017753359911810792119_);}
	.st29{fill:url(#SVGID_00000150096870109390892220000010850564663518559402_);}
	.st30{fill:url(#SVGID_00000163794489697923040120000011469628731619483787_);}
	.st31{fill:url(#SVGID_00000058555514387662876540000008261562703156647102_);}
	.st32{fill:url(#SVGID_00000003101730925371426840000005155653736758112918_);}
	.st33{fill:url(#SVGID_00000012474544189697016140000001367069226986534323_);}
	.st34{fill:url(#SVGID_00000167377003979180927210000006781433834545793196_);}
	.st35{fill:url(#SVGID_00000041288108070057799830000001197740031389043340_);}
	.st36{fill:url(#SVGID_00000169515652243312382640000003133345182585565601_);}
	.st37{fill:url(#SVGID_00000150813083170928215560000000700551921255758227_);}
	.st38{fill:url(#SVGID_00000028283732754552496700000010068820471866889637_);}
	.st39{fill:url(#SVGID_00000047781946346357006180000009690103256118434985_);}
	.st40{fill:url(#SVGID_00000054979916429815166720000017659852698737871253_);}
	.st41{fill:url(#SVGID_00000008140697297884885000000012821423856961049735_);}
	.st42{fill:url(#SVGID_00000116931026793163918380000002962059928877132173_);}
	.st43{fill:url(#SVGID_00000109022701028322008850000010172217380793265053_);}
	.st44{fill:url(#SVGID_00000005227048616111254000000004988959745315128206_);}
	.st45{fill:url(#SVGID_00000155828094572211382400000002091583781066548925_);}
	.st46{fill:url(#SVGID_00000073689099782284108220000013406704465783133072_);}
	.st47{fill:url(#SVGID_00000065062776735945951500000002620901559434449539_);}
	.st48{fill:url(#SVGID_00000057858673477589260230000010512512192907273629_);}
	.st49{fill:url(#SVGID_00000164486896164190339700000003643209553931504517_);}
	.st50{fill:url(#SVGID_00000005968553117199481440000017774455292230988942_);}
	.st51{fill:url(#SVGID_00000150794710183236200310000008408998779044760510_);}
	.st52{fill:url(#SVGID_00000103249846172939729620000013614894274859975317_);}
	.st53{fill:url(#SVGID_00000120530941196459080010000000632807065469924510_);}
	.st54{fill:#6AC1D5;}
	.st55{fill:#73BAB2;}
	.st56{fill:url(#SVGID_00000028314603234067805930000003122572262077830584_);}
	.st57{fill:url(#SVGID_00000088831293126391292250000010640710248309135785_);}
	.st58{fill:url(#SVGID_00000065781574731590450650000014923209376346435738_);}
	.st59{fill:url(#SVGID_00000027574963946725042770000010077825260324541615_);}
	.st60{fill:url(#SVGID_00000041253761014876120860000013246923237235387545_);}
	.st61{fill:url(#SVGID_00000031903592199792897240000000999717823989826178_);}
	.st62{fill:url(#SVGID_00000104689599259241510180000005796681762914699187_);}
	.st63{fill:url(#SVGID_00000006666750968419269140000009230864588128403086_);}
	.st64{fill:url(#SVGID_00000145035647506107867890000003426473321560193679_);}
	.st65{fill:url(#SVGID_00000108994061688052124800000005932702375347333299_);}
	.st66{fill:url(#SVGID_00000173854894031683297210000018356558928338251407_);}
	.st67{fill:url(#SVGID_00000119109776384089274320000008675690933207518124_);}
	.st68{fill:url(#SVGID_00000082358422607275145200000004715864068624360866_);}
	.st69{fill:url(#SVGID_00000027580537487321932160000005178946941091270792_);}
	.st70{fill:url(#SVGID_00000114779669120541216710000006754659672749718660_);}
	.st71{fill:url(#SVGID_00000173129731151380788300000010261827770312611769_);}
	.st72{fill:url(#SVGID_00000020387479618075744450000008783721506862600833_);}
	.st73{fill:url(#SVGID_00000088119937469062829950000007181900513368393609_);}
	.st74{fill:url(#SVGID_00000079455268856675693070000001514117191588705156_);}
	.st75{fill:url(#SVGID_00000012449797385798580780000008136108513003466927_);}
	.st76{fill:url(#SVGID_00000131350341459028813160000007431099180792323001_);}
	.st77{fill:url(#SVGID_00000109720315222346892100000000114835029568605322_);}
	.st78{fill:url(#SVGID_00000066477796495606115490000014179707285352081041_);}
	.st79{fill:url(#SVGID_00000114791173721219312270000002966706638915776914_);}
	.st80{fill:url(#SVGID_00000180351969270000472340000008368574661297216675_);}
	.st81{fill:url(#SVGID_00000096769702235566966880000002536136941847656379_);}
	.st82{fill:url(#SVGID_00000024719400327114815690000009773653822825255090_);}
	.st83{fill:url(#SVGID_00000025404850106604701350000003915209721987248540_);}
	.st84{fill:url(#SVGID_00000062885497487789098930000005166730535294042762_);}
	.st85{fill:url(#SVGID_00000084499154583034835380000001664466215344548536_);}
	.st86{fill:url(#SVGID_00000035531862446360226820000002267107453830366883_);}
	.st87{fill:url(#SVGID_00000093890919094559743300000003062131086255711662_);}
	.st88{fill:url(#SVGID_00000070085094420440222530000007983186601325254548_);}
	.st89{fill:url(#SVGID_00000074399877126426756460000013229285097523101599_);}
	.st90{fill:#004F54;}
	.st91{fill-rule:evenodd;clip-rule:evenodd;fill:#065055;}
</style>
<metadata>
	<sfw  xmlns="&ns_sfw;">
		<slices></slices>
		<sliceSourceBounds  bottomLeftOrigin="true" height="536.8" width="2527.3" x="0.4" y="-381.9"></sliceSourceBounds>
	</sfw>
</metadata>
<g>
	
		<linearGradient id="SVGID_00000165943739282607664090000012291358956617550480_" gradientUnits="userSpaceOnUse" x1="0.4302" y1="39.1332" x2="199.984" y2="39.1332">
		<stop  offset="0" style="stop-color:#41B97E"/>
		<stop  offset="0.5" style="stop-color:#53C3BF"/>
		<stop  offset="0.9053" style="stop-color:#45BB8B"/>
		<stop  offset="1" style="stop-color:#41B97E"/>
	</linearGradient>
	<rect x="0.4" y="39" style="fill:url(#SVGID_00000165943739282607664090000012291358956617550480_);" width="199.6" height="0.3"/>
	<g>
		
			<linearGradient id="SVGID_00000085248875557539002860000003011455106917479334_" gradientUnits="userSpaceOnUse" x1="24.3639" y1="63.6977" x2="32.9005" y2="63.6977">
			<stop  offset="0" style="stop-color:#41B97E"/>
			<stop  offset="0.5" style="stop-color:#53C3BF"/>
			<stop  offset="0.9053" style="stop-color:#45BB8B"/>
			<stop  offset="1" style="stop-color:#41B97E"/>
		</linearGradient>
		<polygon style="fill:url(#SVGID_00000085248875557539002860000003011455106917479334_);" points="24.4,57.5 24.4,69.8 32.9,69.8 
			32.9,69.1 26.4,69.1 26.4,63.5 30.8,63.5 30.8,62.7 26.4,62.7 26.4,58.3 32.9,58.3 32.9,57.5 		"/>
		
			<linearGradient id="SVGID_00000029750080318188471510000000744675297478192050_" gradientUnits="userSpaceOnUse" x1="37.36" y1="63.6977" x2="51.1094" y2="63.6977">
			<stop  offset="0" style="stop-color:#41B97E"/>
			<stop  offset="0.5" style="stop-color:#53C3BF"/>
			<stop  offset="0.9053" style="stop-color:#45BB8B"/>
			<stop  offset="1" style="stop-color:#41B97E"/>
		</linearGradient>
		<polygon style="fill:url(#SVGID_00000029750080318188471510000000744675297478192050_);" points="49,57.5 44.3,67 44.2,67 
			39.5,57.5 37.4,57.5 37.4,69.8 38.3,69.8 38.3,59.8 38.4,59.8 43.5,69.8 43.9,69.8 49,59.8 49,59.8 49,69.8 51.1,69.8 51.1,57.5 
					"/>
		
			<linearGradient id="SVGID_00000035521902564591658160000009872783493556357266_" gradientUnits="userSpaceOnUse" x1="54.8636" y1="63.5568" x2="67.0768" y2="63.5568">
			<stop  offset="0" style="stop-color:#41B97E"/>
			<stop  offset="0.5" style="stop-color:#53C3BF"/>
			<stop  offset="0.9053" style="stop-color:#45BB8B"/>
			<stop  offset="1" style="stop-color:#41B97E"/>
		</linearGradient>
		<path style="fill:url(#SVGID_00000035521902564591658160000009872783493556357266_);" d="M60.8,57.3l-5.9,12.6h1l1.9-4.1h5.3
			l1.9,4.1h2.1l-5.8-12.6H60.8z M60.5,60.1l2.2,4.9h-4.5L60.5,60.1z"/>
		
			<linearGradient id="SVGID_00000035504764040658060800000017070527413194554264_" gradientUnits="userSpaceOnUse" x1="69.3329" y1="63.5568" x2="81.547" y2="63.5568">
			<stop  offset="0" style="stop-color:#41B97E"/>
			<stop  offset="0.5" style="stop-color:#53C3BF"/>
			<stop  offset="0.9053" style="stop-color:#45BB8B"/>
			<stop  offset="1" style="stop-color:#41B97E"/>
		</linearGradient>
		<path style="fill:url(#SVGID_00000035504764040658060800000017070527413194554264_);" d="M75.2,57.3l-5.9,12.6h1l1.9-4.1h5.3
			l1.9,4.1h2.1l-5.8-12.6H75.2z M75,60.1l2.2,4.9h-4.5L75,60.1z"/>
		
			<linearGradient id="SVGID_00000018952947789348991430000015902762275890124217_" gradientUnits="userSpaceOnUse" x1="85.3011" y1="63.6976" x2="95.4697" y2="63.6976">
			<stop  offset="0" style="stop-color:#41B97E"/>
			<stop  offset="0.5" style="stop-color:#53C3BF"/>
			<stop  offset="0.9053" style="stop-color:#45BB8B"/>
			<stop  offset="1" style="stop-color:#41B97E"/>
		</linearGradient>
		<path style="fill:url(#SVGID_00000018952947789348991430000015902762275890124217_);" d="M92.2,63.4c0.4-0.2,0.7-0.4,1-0.7
			c0.3-0.3,0.5-0.6,0.6-0.9c0.1-0.3,0.2-0.7,0.2-1.1c0-0.5-0.1-0.9-0.3-1.3c-0.2-0.4-0.5-0.7-0.8-1c-0.4-0.3-0.8-0.5-1.4-0.7
			c-0.6-0.2-1.2-0.2-1.9-0.2h-4.3v12.3h2.1v-5.8h1.4l4.3,5.8h2.4l-4.5-6C91.4,63.8,91.9,63.6,92.2,63.4 M89.8,63.3
			c-0.4,0.1-0.8,0.2-1.3,0.2h-1.2v-5.1h1.8c0.4,0,0.7,0.1,1,0.2c0.3,0.1,0.6,0.3,0.8,0.5c0.2,0.2,0.4,0.5,0.5,0.8
			c0.1,0.3,0.2,0.6,0.2,1c0,0.4-0.1,0.8-0.2,1.1c-0.2,0.3-0.4,0.6-0.7,0.8C90.6,63,90.2,63.1,89.8,63.3"/>
		
			<linearGradient id="SVGID_00000018195041676334231950000009825060475085190297_" gradientUnits="userSpaceOnUse" x1="105.5008" y1="63.702" x2="114.2578" y2="63.702">
			<stop  offset="0" style="stop-color:#41B97E"/>
			<stop  offset="0.5" style="stop-color:#53C3BF"/>
			<stop  offset="0.9053" style="stop-color:#45BB8B"/>
			<stop  offset="1" style="stop-color:#41B97E"/>
		</linearGradient>
		<path style="fill:url(#SVGID_00000018195041676334231950000009825060475085190297_);" d="M113.2,64.5c-0.3-0.3-0.7-0.6-1.1-0.8
			c-0.4-0.2-0.8-0.5-1.3-0.7c-0.4-0.2-0.9-0.5-1.3-0.7c-0.4-0.2-0.8-0.5-1.1-0.7c-0.3-0.2-0.6-0.5-0.8-0.8c-0.2-0.3-0.3-0.6-0.3-0.9
			c0-0.2,0-0.5,0.1-0.7c0.1-0.2,0.2-0.4,0.4-0.6c0.2-0.2,0.4-0.3,0.7-0.4c0.3-0.1,0.6-0.2,1-0.2c0.4,0,0.8,0.1,1.2,0.2
			c0.3,0.1,0.7,0.3,0.9,0.5c0.3,0.2,0.5,0.5,0.7,0.8c0.2,0.3,0.3,0.7,0.5,1l1.1-0.5c-0.3-0.9-0.8-1.6-1.5-2.1
			c-0.7-0.5-1.6-0.7-2.8-0.7c-0.6,0-1.2,0.1-1.7,0.3c-0.5,0.2-0.9,0.4-1.3,0.7c-0.3,0.3-0.6,0.6-0.8,1c-0.2,0.4-0.3,0.8-0.3,1.3
			c0,0.5,0.1,0.9,0.3,1.2c0.2,0.4,0.4,0.7,0.8,1c0.3,0.3,0.7,0.6,1.1,0.8c0.4,0.2,0.8,0.5,1.2,0.7c0.4,0.2,0.8,0.4,1.2,0.6
			c0.4,0.2,0.8,0.4,1.1,0.7c0.3,0.2,0.6,0.5,0.8,0.8c0.2,0.3,0.3,0.6,0.3,1c0,0.3-0.1,0.6-0.2,0.8c-0.1,0.2-0.3,0.4-0.6,0.6
			c-0.2,0.2-0.5,0.3-0.8,0.4c-0.3,0.1-0.6,0.1-0.9,0.1c-0.4,0-0.8-0.1-1.1-0.2c-0.4-0.1-0.7-0.3-1-0.5c-0.3-0.2-0.5-0.5-0.8-0.8
			c-0.2-0.3-0.4-0.7-0.5-1.1l-1.1,0.5c0.2,0.5,0.4,0.9,0.6,1.2c0.3,0.4,0.6,0.7,0.9,0.9c0.4,0.2,0.8,0.4,1.2,0.6
			c0.5,0.1,1,0.2,1.6,0.2c0.7,0,1.4-0.1,1.9-0.3c0.6-0.2,1-0.4,1.4-0.8c0.4-0.3,0.6-0.7,0.8-1.1c0.2-0.4,0.3-0.9,0.3-1.4
			c0-0.4-0.1-0.8-0.3-1.2C113.8,65.1,113.5,64.8,113.2,64.5"/>
		
			<linearGradient id="SVGID_00000168824780370218275580000008140700729921082293_" gradientUnits="userSpaceOnUse" x1="118.2244" y1="63.7021" x2="131.7699" y2="63.7021">
			<stop  offset="0" style="stop-color:#41B97E"/>
			<stop  offset="0.5" style="stop-color:#53C3BF"/>
			<stop  offset="0.9053" style="stop-color:#45BB8B"/>
			<stop  offset="1" style="stop-color:#41B97E"/>
		</linearGradient>
		<path style="fill:url(#SVGID_00000168824780370218275580000008140700729921082293_);" d="M130.9,60.4c-0.3-0.5-0.6-0.9-1-1.3
			c-0.4-0.4-0.9-0.7-1.4-1c-0.5-0.3-1-0.5-1.6-0.6c-0.6-0.2-1.2-0.2-1.8-0.2c-0.6,0-1.2,0.1-1.8,0.2c-0.6,0.2-1.1,0.4-1.6,0.6
			c-0.5,0.3-1,0.6-1.4,1c-0.4,0.4-0.8,0.8-1,1.3c-0.3,0.5-0.5,1-0.7,1.5c-0.2,0.5-0.2,1.1-0.2,1.7c0,0.6,0.1,1.2,0.2,1.7
			c0.2,0.6,0.4,1.1,0.7,1.6c0.3,0.5,0.6,0.9,1,1.3c0.4,0.4,0.9,0.7,1.4,1c0.5,0.3,1,0.5,1.6,0.7c0.6,0.2,1.2,0.2,1.8,0.2
			c0.6,0,1.2-0.1,1.8-0.2c0.6-0.2,1.1-0.4,1.6-0.7c0.5-0.3,1-0.6,1.4-1c0.4-0.4,0.8-0.8,1-1.3c0.3-0.5,0.5-1,0.7-1.6
			c0.2-0.6,0.2-1.1,0.2-1.7c0-0.6-0.1-1.2-0.2-1.7C131.4,61.4,131.1,60.9,130.9,60.4 M129.1,66c-0.2,0.7-0.5,1.3-0.8,1.9
			c-0.4,0.5-0.8,0.9-1.4,1.2c-0.5,0.3-1.2,0.4-1.9,0.4c-0.7,0-1.3-0.1-1.9-0.4c-0.5-0.3-1-0.7-1.4-1.2c-0.4-0.5-0.6-1.1-0.8-1.9
			c-0.2-0.7-0.3-1.5-0.3-2.4c0-0.8,0.1-1.6,0.3-2.3c0.2-0.7,0.5-1.3,0.8-1.8c0.4-0.5,0.8-0.9,1.4-1.2c0.5-0.3,1.2-0.4,1.9-0.4
			c0.7,0,1.3,0.1,1.9,0.4c0.5,0.3,1,0.7,1.4,1.2c0.4,0.5,0.6,1.1,0.8,1.8c0.2,0.7,0.3,1.5,0.3,2.3C129.3,64.5,129.2,65.3,129.1,66"
			/>
		
			<linearGradient id="SVGID_00000081620322149609977770000000828323529468651435_" gradientUnits="userSpaceOnUse" x1="136.2745" y1="63.8435" x2="146.8838" y2="63.8435">
			<stop  offset="0" style="stop-color:#41B97E"/>
			<stop  offset="0.5" style="stop-color:#53C3BF"/>
			<stop  offset="0.9053" style="stop-color:#45BB8B"/>
			<stop  offset="1" style="stop-color:#41B97E"/>
		</linearGradient>
		<path style="fill:url(#SVGID_00000081620322149609977770000000828323529468651435_);" d="M146,65.5c0,0.5-0.1,1-0.3,1.5
			c-0.2,0.5-0.4,0.9-0.8,1.2c-0.3,0.3-0.7,0.6-1.2,0.8c-0.5,0.2-1,0.3-1.6,0.3c-0.6,0-1.1-0.1-1.6-0.3c-0.5-0.2-0.9-0.5-1.2-0.8
			c-0.3-0.3-0.6-0.8-0.8-1.2c-0.2-0.5-0.3-1-0.3-1.5v-8h-2.1v7.9c0,0.6,0.1,1.2,0.3,1.8c0.2,0.6,0.6,1.1,1,1.5c0.4,0.4,1,0.8,1.6,1
			c0.7,0.2,1.4,0.4,2.2,0.4c1,0,1.8-0.1,2.4-0.4c0.7-0.2,1.2-0.6,1.7-1c0.4-0.4,0.8-0.9,1-1.5c0.2-0.6,0.3-1.1,0.3-1.8v-8H146V65.5z
			"/>
		
			<linearGradient id="SVGID_00000179629396900023918780000001693052431785874111_" gradientUnits="userSpaceOnUse" x1="150.7263" y1="63.6977" x2="161.6879" y2="63.6977">
			<stop  offset="0" style="stop-color:#41B97E"/>
			<stop  offset="0.5" style="stop-color:#53C3BF"/>
			<stop  offset="0.9053" style="stop-color:#45BB8B"/>
			<stop  offset="1" style="stop-color:#41B97E"/>
		</linearGradient>
		<polygon style="fill:url(#SVGID_00000179629396900023918780000001693052431785874111_);" points="150.7,57.5 150.7,58.3 
			155.2,58.3 155.2,69.8 157.2,69.8 157.2,58.3 161.7,58.3 161.7,57.5 		"/>
		
			<linearGradient id="SVGID_00000049196740771225612230000014516702336625713043_" gradientUnits="userSpaceOnUse" x1="165.7507" y1="63.6977" x2="176.0508" y2="63.6977">
			<stop  offset="0" style="stop-color:#41B97E"/>
			<stop  offset="0.5" style="stop-color:#53C3BF"/>
			<stop  offset="0.9053" style="stop-color:#45BB8B"/>
			<stop  offset="1" style="stop-color:#41B97E"/>
		</linearGradient>
		<polygon style="fill:url(#SVGID_00000049196740771225612230000014516702336625713043_);" points="174,57.5 174,63.2 167.8,63.2 
			167.8,57.5 165.8,57.5 165.8,69.8 167.8,69.8 167.8,64 174,64 174,69.8 176.1,69.8 176.1,57.5 		"/>
	</g>
	<g>
		
			<linearGradient id="SVGID_00000000944707457122425690000004303425706871087753_" gradientUnits="userSpaceOnUse" x1="45.3045" y1="11.0449" x2="142.7015" y2="11.0449">
			<stop  offset="0" style="stop-color:#41B97E"/>
			<stop  offset="0.5" style="stop-color:#53C3BF"/>
			<stop  offset="0.9053" style="stop-color:#45BB8B"/>
			<stop  offset="1" style="stop-color:#41B97E"/>
		</linearGradient>
		<path style="fill:url(#SVGID_00000000944707457122425690000004303425706871087753_);" d="M60.2,13.1V1h-0.6v12
			c0,0.8-0.1,1.6-0.2,2.5c-0.2,0.9-0.5,1.7-1,2.4c-0.5,0.7-1.2,1.4-2.1,1.8c-0.9,0.5-2.1,0.7-3.5,0.7c-1.5,0-2.7-0.2-3.6-0.7
			c-0.9-0.5-1.6-1.1-2.1-1.9c-0.5-0.7-0.8-1.6-1-2.4c-0.2-0.9-0.2-1.7-0.2-2.5V1h-0.6v12.1c0,1.1,0.1,2.1,0.4,3.1
			c0.3,1,0.7,1.8,1.3,2.5c0.6,0.7,1.4,1.3,2.3,1.7c0.9,0.4,2.1,0.6,3.5,0.6s2.5-0.2,3.5-0.6c0.9-0.4,1.7-1,2.3-1.7
			c0.6-0.7,1-1.6,1.3-2.5C60.1,15.3,60.2,14.2,60.2,13.1 M75.3,20.5l-5.9-9.9c0.6,0,1.3-0.1,2-0.2c0.7-0.2,1.3-0.4,1.8-0.8
			c0.6-0.4,1-0.9,1.4-1.5c0.3-0.6,0.5-1.4,0.5-2.3c0-1-0.2-1.8-0.6-2.4c-0.4-0.6-0.8-1.1-1.4-1.5c-0.6-0.4-1.2-0.6-2-0.7
			C70.4,1.1,69.7,1,69,1h-5.4v19.5h0.6v-9.8h4.6l5.9,9.8H75.3z M73.1,9c-0.9,0.8-2.3,1.1-4.1,1.1h-4.8V1.5h4.5
			c0.7,0,1.5,0.1,2.2,0.2c0.7,0.1,1.3,0.4,1.9,0.7c0.5,0.3,1,0.8,1.3,1.3c0.3,0.6,0.5,1.3,0.5,2.1C74.5,7.2,74,8.3,73.1,9
			 M89.5,13.1c-0.3-0.6-0.7-1.1-1.2-1.5c-0.5-0.4-1-0.7-1.6-0.9c-0.6-0.2-1.1-0.3-1.6-0.4v-0.1c0.5-0.1,1-0.3,1.5-0.5
			c0.5-0.2,0.9-0.5,1.3-0.9c0.4-0.4,0.7-0.8,0.9-1.3c0.2-0.5,0.3-1.1,0.3-1.8c0-0.9-0.2-1.6-0.5-2.2c-0.3-0.6-0.8-1.1-1.4-1.4
			c-0.6-0.3-1.2-0.6-1.9-0.7C84.5,1.1,83.8,1,83,1h-5.3v19.5h6c0.7,0,1.4-0.1,2.1-0.2c0.7-0.2,1.4-0.4,2-0.8
			c0.6-0.4,1.1-0.9,1.5-1.6c0.4-0.7,0.6-1.5,0.6-2.6C90,14.5,89.8,13.7,89.5,13.1 M88,7.6c-0.3,0.5-0.7,1-1.3,1.3
			c-0.5,0.3-1.1,0.6-1.8,0.8c-0.7,0.2-1.3,0.2-2,0.2h-4.7V1.6h4.5c0.7,0,1.4,0.1,2.1,0.2c0.7,0.1,1.3,0.4,1.8,0.7
			c0.5,0.3,0.9,0.7,1.2,1.3c0.3,0.5,0.5,1.2,0.5,2C88.5,6.5,88.3,7.1,88,7.6 M88.9,17.5c-0.3,0.6-0.7,1.1-1.2,1.4
			c-0.5,0.4-1.2,0.6-1.9,0.8c-0.7,0.2-1.5,0.3-2.4,0.3h-5.1v-9.5h5.4c0.6,0,1.3,0.1,1.9,0.3c0.7,0.2,1.3,0.5,1.8,0.8
			c0.6,0.4,1,0.9,1.4,1.5c0.4,0.6,0.5,1.4,0.5,2.3C89.4,16.2,89.2,16.9,88.9,17.5 M107.3,20.5L99.2,1h-0.8L90,20.5h0.7l2.4-5.6h11.3
			l2.3,5.6H107.3z M104.2,14.4H93.2l5.5-13L104.2,14.4z M124.1,20.5V1h-0.6v18.7h-0.1L109.4,1h-0.9v19.5h0.6V1.8h0.1l14,18.7H124.1z
			 M142.7,20.5L134.6,1h-0.8l-8.5,19.5h0.7l2.4-5.6h11.3l2.3,5.6H142.7z M139.5,14.4h-10.9l5.5-13"/>
	</g>
</g>
</svg>
