<?xml version="1.0" encoding="utf-8"?>
<!-- Generator: Adobe Illustrator 26.0.1, SVG Export Plug-In . SVG Version: 6.00 Build 0)  -->
<!DOCTYPE svg PUBLIC "-//W3C//DTD SVG 1.1//EN" "http://www.w3.org/Graphics/SVG/1.1/DTD/svg11.dtd" [
	<!ENTITY ns_extend "http://ns.adobe.com/Extensibility/1.0/">
	<!ENTITY ns_ai "http://ns.adobe.com/AdobeIllustrator/10.0/">
	<!ENTITY ns_graphs "http://ns.adobe.com/Graphs/1.0/">
	<!ENTITY ns_vars "http://ns.adobe.com/Variables/1.0/">
	<!ENTITY ns_imrep "http://ns.adobe.com/ImageReplacement/1.0/">
	<!ENTITY ns_sfw "http://ns.adobe.com/SaveForWeb/1.0/">
	<!ENTITY ns_custom "http://ns.adobe.com/GenericCustomNamespace/1.0/">
	<!ENTITY ns_adobe_xpath "http://ns.adobe.com/XPath/1.0/">
]>
<svg version="1.1" id="Layer_1" xmlns:x="&ns_extend;" xmlns:i="&ns_ai;" xmlns:graph="&ns_graphs;"
	 xmlns="http://www.w3.org/2000/svg" xmlns:xlink="http://www.w3.org/1999/xlink" x="0px" y="0px" viewBox="0 0 200 43.7"
	 style="enable-background:new 0 0 200 43.7;" xml:space="preserve">
<style type="text/css">
	.st0{fill:#808184;}
	.st1{clip-path:url(#SVGID_00000050631898496883993760000011379233511318268545_);}
	.st2{fill:#AC9C63;}
</style>
<metadata>
	<sfw  xmlns="&ns_sfw;">
		<slices></slices>
		<sliceSourceBounds  bottomLeftOrigin="true" height="185.2" width="1488.1" x="1.3" y="-70.2"></sliceSourceBounds>
	</sfw>
</metadata>
<path class="st2" d="M45.3,3c-0.5,1.3-1,2.5-1.5,3.7c-2.5,6.4-5.1,12.7-7.6,19.1c-0.1,0.3-0.2,0.4-0.6,0.4c-1.7,0-3.3,0-5,0
	c-0.3,0-0.4-0.1-0.5-0.3c-2-5.2-4.1-10.3-6.2-15.5c0-0.1-0.1-0.2-0.2-0.4c-0.1,0.4-0.3,0.7-0.4,1c-2,5-3.9,10-5.9,15
	c-0.1,0.2-0.2,0.3-0.4,0.3c-1.7,0-3.4,0-5.2,0c-0.2,0-0.3-0.1-0.4-0.3c-3-7.6-6-15.1-9.1-22.7L2.4,3l0.3,0c2,0,4,0,5.9,0
	C8.9,3,9,3,9.1,3.3c1.8,5.2,3.7,10.3,5.5,15.5c0,0.1,0.1,0.2,0.2,0.4c0.1-0.1,0.1-0.2,0.2-0.3c2-5.2,4-10.3,6-15.5
	C21.1,3,21.2,3,21.5,3c1.6,0,3.3,0,4.9,0c0.2,0,0.4,0.1,0.4,0.3c2,5.2,4,10.3,6,15.5c0,0.1,0.1,0.2,0.2,0.4c0.1-0.2,0.1-0.3,0.2-0.5
	c1.8-5.1,3.7-10.3,5.5-15.4C38.9,3.1,39,3,39.3,3c1.9,0,3.8,0,5.8,0H45.3z M197.8,5.3c-5-2.5-10.4-3.3-15.9-2.4
	c-1.9,0.3-3.8,1-5.3,2.3c-1.9,1.6-2.8,3.5-2.2,6c0.4,1.7,1.5,2.7,2.9,3.5c1.6,0.8,3.3,1.3,5,1.6c2.1,0.4,4.3,0.7,6.5,1.1
	c0.9,0.2,1.8,0.3,2.6,0.8c1,0.5,1.1,1.7,0.2,2.4c-0.3,0.3-0.7,0.5-1.1,0.6c-1.1,0.4-2.3,0.5-3.5,0.5c-3.3,0.1-6.5-0.6-9.6-1.8
	c-0.8-0.3-1.6-0.7-2.4-1c-0.7,1.5-1.4,3-2,4.5c1.4,0.7,2.8,1.3,4.3,1.7c4.3,1.3,8.7,1.7,13.1,0.9c1.9-0.4,3.8-1,5.4-2.2
	c2.4-1.8,3-4.3,2.3-6.8c-0.5-1.5-1.5-2.4-2.9-3.1c-1.7-0.9-3.6-1.3-5.5-1.7c-2-0.4-3.9-0.6-5.9-1c-0.9-0.2-1.8-0.4-2.6-0.8
	c-0.9-0.5-1-1.5-0.2-2.2c0.3-0.2,0.7-0.4,1-0.6c1.1-0.4,2.2-0.5,3.3-0.5c3.2-0.1,6.3,0.7,9.3,1.9c0.4,0.2,0.9,0.4,1.3,0.6
	c0.7-1.5,1.4-2.9,2-4.4L197.8,5.3z M96.4,3.3c3.8,7.5,7.5,15.1,11.3,22.6c0.1,0.2,0.2,0.3,0.5,0.3c1.8,0,3.6,0,5.4,0
	c0.2,0,0.4-0.1,0.5-0.3c1.3-2.7,2.7-5.4,4-8c2.4-4.8,4.8-9.7,7.3-14.5l0.1-0.3l-0.1,0c-2.1,0-4.1,0-6.2,0c-0.2,0-0.3,0.1-0.3,0.3
	c-2.4,5.1-4.7,10.1-7.1,15.2c-0.2,0.5-0.4,0.9-0.7,1.4c-0.1-0.2-0.1-0.3-0.2-0.4c-2.5-5.4-5-10.7-7.5-16.1C103.1,3,103,3,102.7,3
	c-2,0-4.1,0-6.1,0h-0.4C96.3,3.1,96.3,3.2,96.4,3.3 M85.9,25.6c-2.2-4.3-4.4-8.7-6.6-13c-1.6-3.1-3.2-6.3-4.8-9.4
	C74.4,3,74.3,2.8,74,2.8c-2,0-4,0-6,0c-0.2,0-0.3,0.1-0.4,0.3c-0.8,1.5-1.6,3.1-2.4,4.6c-3,6-6,12-9,17.9c-0.1,0.1-0.1,0.2-0.2,0.3
	c0.1,0,0.2,0,0.3,0c1.9,0,3.8,0,5.6,0c0.2,0,0.4-0.1,0.5-0.3c0.8-1.7,1.7-3.4,2.5-5c1.3-2.7,2.6-5.3,4-8c0.7-1.4,1.4-2.7,2.1-4.2
	c0.1,0.2,0.2,0.4,0.3,0.6c2.7,5.5,5.5,11.1,8.2,16.6c0.1,0.2,0.2,0.3,0.5,0.3c1.1,0,2.1,0,3.2,0h3C86,25.8,85.9,25.7,85.9,25.6
	 M52.6,35.8c0.5,1.5,1,2.9,1.5,4.4c0.2,0.5,0.2,0.5,0.8,0.5c0.2,0,0.3-0.1,0.4-0.3c0.4-1.1,0.7-2.1,1.1-3.2c0.1-0.2,0.1-0.4,0.2-0.7
	c0.1,0.2,0.1,0.3,0.1,0.4c0.4,1,0.7,2,1.1,3c0.3,0.7,0.3,0.7,1,0.7l0.1,0c0.6-1.7,1.2-3.5,1.8-5.3c-0.3,0-0.4,0-0.6,0
	c-0.2,0-0.3,0.1-0.4,0.3c-0.1,0.3-0.2,0.5-0.2,0.7c-0.3,1-0.7,2.1-1,3.2c-0.1-0.2-0.1-0.3-0.2-0.4c-0.4-1.1-0.8-2.2-1.1-3.3
	c-0.2-0.5-0.2-0.5-0.7-0.5c-0.2,0-0.3,0.1-0.4,0.3c-0.3,0.9-0.6,1.8-0.9,2.7c-0.1,0.4-0.3,0.7-0.4,1.2c-0.5-1.4-0.9-2.8-1.4-4.2
	h-0.9C52.5,35.5,52.5,35.7,52.6,35.8 M125.9,35.4h-0.8v3.9c-0.1-0.1-0.2-0.2-0.3-0.3c-0.9-1.1-1.8-2.1-2.6-3.2
	c-0.4-0.5-0.8-0.4-1.2-0.4v5.2h0.8v-3.9c0.1,0.1,0.2,0.2,0.3,0.3c0.9,1.1,1.9,2.3,2.8,3.4l0.3,0.2c0.2,0,0.5,0,0.7,0V35.4z
	 M175.4,38.5c0.8-0.3,1.1-0.8,1.1-1.7c-0.1-0.7-0.5-1.3-1.3-1.3c-1.1-0.1-2.2,0-3.3,0v5.1h0.9v-2c0.4,0,0.8,0,1.2,0
	c0.2,0,0.3,0,0.5,0.2c0.4,0.5,0.8,1.1,1.2,1.6l0.2,0.2c0.3,0,0.6,0,0.9,0c-0.6-0.7-1.1-1.4-1.6-2.1L175.4,38.5z M174.7,36.1
	c0.7,0,1,0.4,0.9,1c-0.1,0.4-0.3,0.7-0.8,0.7c-0.7,0-1.4,0-2.1,0v-1.8C173.4,36.1,174,36.1,174.7,36.1 M103.8,40.6h0.9v-2
	c0.4,0,0.8,0,1.2,0c0.1,0,0.3,0.1,0.4,0.2c0.4,0.5,0.8,1.1,1.3,1.6l0.3,0.2c0.3,0,0.6,0,0.9,0c-0.6-0.7-1.1-1.4-1.6-2.1l0.2-0.1
	c0.8-0.3,1.2-0.8,1.2-1.7c-0.1-0.8-0.5-1.3-1.4-1.4c-1.1-0.1-2.2,0-3.3,0V40.6z M104.7,36.2c0.7,0,1.5,0,2.2,0
	c0.5,0,0.7,0.4,0.7,0.8c0,0.4-0.2,0.8-0.7,0.8c-0.7,0.1-1.5,0.1-2.2,0.1V36.2z M87.9,40.6h0.9v-2c0.5,0,0.9,0,1.3,0l0.3,0.2
	c0.4,0.5,0.7,0.9,1.1,1.4c0.3,0.4,0.7,0.5,1.3,0.4c-0.5-0.7-1-1.3-1.5-2l0.2-0.1c0.8-0.3,1.2-0.8,1.1-1.7c-0.1-0.8-0.5-1.3-1.4-1.3
	c-1.1-0.1-2.2,0-3.3,0V40.6z M90.8,36.1c0.6,0,0.8,0.3,0.8,0.8c0,0.5-0.3,0.9-0.8,0.9c-0.7,0-1.3,0-2,0v-1.8
	C89.4,36.1,90.1,36.1,90.8,36.1 M144.7,40.6c1.5-0.1,2.4-1,2.4-2.5c0-1.4-0.7-2.4-2-2.6c-1-0.1-2-0.1-3-0.1v5.3
	C143,40.6,143.9,40.7,144.7,40.6 M143,36.1c0.7,0,1.5-0.1,2.2,0.2c0.7,0.3,1,1.1,1,1.9c-0.1,0.8-0.6,1.4-1.4,1.6
	c-0.6,0.1-1.2,0.1-1.8,0.1V36.1z M114.7,35.3c-1.7,0-2.8,1-2.9,2.6c0,1.7,1,2.8,2.6,2.9c1.7,0,2.8-1,2.8-2.7
	C117.3,36.5,116.3,35.3,114.7,35.3 M115.3,36.1c0.8,0.3,1.3,1.3,1.1,2.4c-0.2,1.1-1.2,1.7-2.3,1.4c-0.8-0.2-1.3-1-1.3-2
	C112.7,36.5,114,35.6,115.3,36.1 M156.4,40.4c0.3,0.1,0.7,0.2,1,0.3c0.7,0.1,1.5,0,2.1-0.4c0.5-0.3,0.7-0.8,0.6-1.3
	c0-0.5-0.4-0.9-0.9-1c-0.2-0.1-0.4-0.1-0.6-0.2c-0.6-0.1-1.1-0.2-1.7-0.3c-0.3-0.1-0.5-0.2-0.6-0.5c0-0.3,0.2-0.5,0.5-0.7
	c0.9-0.4,1.9-0.1,2.3,0.8c0.3,0,0.5-0.1,0.9-0.1c-0.1-0.3-0.2-0.5-0.3-0.7c-0.1-0.2-0.3-0.3-0.4-0.4c-0.8-0.6-2.5-0.5-3.3,0.1
	c-0.4,0.3-0.6,0.8-0.5,1.3c0.1,0.5,0.4,0.8,0.8,0.9c0.2,0.1,0.4,0.1,0.7,0.2c0.6,0.1,1.2,0.2,1.8,0.4c0.3,0.1,0.5,0.2,0.5,0.5
	c0,0.3-0.1,0.5-0.4,0.6c-1,0.5-2.2,0.1-2.6-0.9c-0.3,0-0.5,0.1-0.8,0.1C155.6,39.7,155.9,40.2,156.4,40.4 M32.8,40.6v-2.2h3v2.2h0.9
	v-5.2h-0.9v2.2h-3.1v-2.2h-0.9v5.2H32.8z M84.2,35.4H80v5.2h4.3v-0.7h-3.4v-1.6h2.7v-0.7h-2.6v-1.5h3.4V35.4z M45,40.6v-0.7h-3.4
	v-1.6h2.7v-0.7h-2.6v-1.5H45v-0.7h-4.3v5.2H45z M68.9,40.3c-0.7-1.5-1.3-2.9-2-4.4c-0.2-0.5-0.4-0.7-0.9-0.6c-0.2,0-0.4,0.1-0.5,0.3
	c-0.7,1.6-1.4,3.1-2.1,4.7l-0.1,0.3c0.9,0.1,0.9,0.1,1.2-0.6l0.1-0.3c0.1-0.2,0.2-0.3,0.4-0.3c0.5,0,1,0,1.5,0c0.3,0,0.7-0.1,1,0
	c0.2,0.2,0.3,0.6,0.5,0.9l0,0.1l0.2,0.2c0.2,0,0.5,0,0.8,0C68.9,40.5,68.9,40.4,68.9,40.3 M66.1,36.3c0.4,0.9,0.7,1.7,1.1,2.5H65
	C65.4,37.9,65.7,37.1,66.1,36.3 M8.6,40.3c-0.7-1.5-1.3-2.9-2-4.4c-0.2-0.5-0.4-0.7-0.9-0.6c-0.2,0-0.3,0-0.4,0.3
	c-0.7,1.6-1.4,3.2-2.2,4.8l-0.1,0.2c0.9,0.1,0.9,0.1,1.2-0.7l0.1-0.2c0.1-0.2,0.2-0.3,0.4-0.3c0.7,0,1.4,0,2,0
	c0.4,0,0.5,0.1,0.7,0.4c0.3,0.8,0.3,0.8,1.3,0.7C8.7,40.5,8.6,40.4,8.6,40.3 M5.9,36.3c0.4,0.9,0.7,1.7,1.1,2.5H4.8
	C5.1,37.9,5.5,37.1,5.9,36.3 M189,35.7c-1.7-1-3.9,0-4.1,1.9c-0.2,1.4,0.6,2.6,1.8,3c0.6,0.2,1.2,0.1,1.8,0c0.8-0.3,1.3-0.8,1.4-1.6
	c-0.3,0-0.6-0.1-0.8-0.1l-0.1,0.1c-0.2,0.7-0.8,1-1.5,1c-0.7,0-1.3-0.3-1.6-1c-0.3-0.7-0.3-1.3,0-2c0.3-0.6,0.8-0.9,1.5-0.9
	c0.6,0,1.2,0.1,1.4,0.7c0.2,0.4,0.4,0.5,0.8,0.4l0.3,0C189.8,36.5,189.5,36,189,35.7 M96.3,40.6h0.8v-2.1h2.5v-0.7h-2.5v-1.7h3.3
	v-0.7h-4.1V40.6z M76.4,36.1v-0.7h-5v0.7h2v4.5h0.9v-4.5H76.4z M195.9,36.1h2.1v-0.7h-5v0.7h2v4.5h0.9V36.1z M14.1,36.1h2.1v-0.7h-5
	v0.7h2v4.5h0.9V36.1z M26.4,36.1h2.1v-0.7h-5v0.7h2v4.5h0.9V36.1z M163.3,35.4v0.7c0.6,0,1.1,0,1.7,0c0.3,0,0.4,0.1,0.3,0.3
	c0,1.3,0,2.5,0,3.8v0.4h0.9v-4.5h2.1v-0.7H163.3z M129.4,35.4v0.7h2.1v4.5h0.9v-4.5h2.1v-0.7H129.4z M181,35.4h-0.8v5.2h0.8V35.4z
	 M150.9,40.6h0.8v-5.2h-0.8V40.6z M162.9,25.8v-0.1l-0.1,0.1H162.9z M143.6,21.7c1.5-0.2,2.9-0.6,4.3-1.2h-2
	c-0.6,0.2-1.2,0.3-1.7,0.4c-1.8,0.4-3.6,0.5-5.5,0.4c-0.6,0-1.2-0.1-1.9-0.2v0.6l0.3,0C139.5,22,141.6,22,143.6,21.7 M143.2,20.6
	l0.3-0.1h-6.6v0.2C139.1,21,141.1,20.9,143.2,20.6 M145.1,23.8c2.9-0.4,5.6-1.6,8-3.3h-1c-2.2,1.4-4.6,2.3-7.1,2.7
	c-1.9,0.3-3.8,0.3-5.9,0.1c-0.8-0.1-1.5-0.2-2.3-0.4v0.5c0.6,0.1,1.3,0.2,1.9,0.3C141.1,24.1,143.1,24.1,145.1,23.8 M155.8,21.4
	c0.3-0.3,0.7-0.6,1-0.9h-0.8c-0.2,0.1-0.3,0.3-0.5,0.4c-2.1,1.8-4.4,3-6.7,3.7c-1.5,0.5-3,0.7-4.6,0.8c-1.5,0.1-3.1,0-4.7-0.3
	c-0.9-0.1-1.8-0.3-2.7-0.6v0.5c0.5,0.1,0.9,0.2,1.4,0.3c0.8,0.2,1.6,0.3,2.3,0.4h5.6l0.3,0C149.8,25.3,153,23.8,155.8,21.4
	 M144.7,22.7c2.1-0.4,4.2-1.1,6.1-2.2h-1.3c-1.4,0.7-2.9,1.2-4.5,1.5c-2.1,0.4-4.2,0.5-6.5,0.3c-0.6-0.1-1.1-0.1-1.7-0.2v0.5
	c0.5,0.1,1.1,0.2,1.6,0.2C140.7,23.1,142.7,23,144.7,22.7 M145.5,24.8c3.3-0.5,6.4-1.8,9.2-4.1l0.3-0.3h-0.9
	c-0.6,0.5-1.2,0.9-1.8,1.2c-2.2,1.3-4.5,2.2-6.9,2.5c-1.9,0.3-3.7,0.3-5.8,0c-0.9-0.1-1.9-0.3-2.8-0.5v0.5c0.8,0.2,1.5,0.3,2.2,0.4
	C141.4,25.1,143.5,25.1,145.5,24.8 M136.9,25.8h1.7c-0.6-0.1-1.1-0.3-1.7-0.4V25.8z M160.5,25.8h0.6c0.6-0.6,1.2-1.2,1.8-2v-0.6
	C162.1,24.2,161.3,25.1,160.5,25.8 M159.2,25.8h0.7c0.8-0.7,1.5-1.4,2.2-2.3c0.3-0.3,0.6-0.7,0.8-1V22c-0.7,0.9-1.5,1.7-2.2,2.5
	C160.2,24.9,159.7,25.4,159.2,25.8 M162.2,25.8c0.2-0.2,0.5-0.5,0.7-0.7v-0.5c-0.4,0.4-0.8,0.9-1.2,1.3H162.2z M161.1,20.5h-0.6
	c-0.8,0.9-1.6,1.7-2.4,2.5c-1.3,1.2-2.5,2.1-3.9,2.9h1c1-0.6,2-1.4,2.9-2.2C159.1,22.7,160.1,21.7,161.1,20.5 M159.8,20.5h-0.6
	c-0.7,0.7-1.3,1.4-2.1,2c-1.6,1.4-3.4,2.5-5.2,3.4h1.3c1.4-0.7,2.7-1.6,4-2.7C158,22.3,158.9,21.5,159.8,20.5 M157.7,25.8h0.7
	c1.2-1,2.3-2.1,3.4-3.4c0.4-0.4,0.7-0.8,1-1.2v-0.6c-0.8,1-1.6,1.9-2.4,2.8C159.6,24.3,158.7,25.1,157.7,25.8 M162.3,20.5h-0.5
	c-1,1.3-2.1,2.4-3.2,3.4c-0.8,0.7-1.6,1.4-2.5,2h0.8c0.8-0.6,1.5-1.2,2.3-1.9C160.3,22.9,161.3,21.8,162.3,20.5 M158.4,20.5h-0.7
	c-1.2,1.1-2.3,2.1-3.6,3c-1.7,1.1-3.5,1.9-5.4,2.4h1.9c2.1-0.8,4.1-2,6-3.6C157.2,21.7,157.8,21.1,158.4,20.5 M145.4,13.9
	c1.4-0.7,2.7-1.5,4-2.5h-1.2c-1.6,1.1-3.3,2-5.1,2.7c-2,0.8-4.1,1.3-6.2,1.5v0.7c0.8-0.1,1.5-0.2,2.3-0.3
	C141.3,15.6,143.4,14.9,145.4,13.9 M160.1,11.4h-0.6l-0.2,0.3c-1.5,2-2.9,3.6-4.4,5h0.8c0.7-0.7,1.3-1.4,2-2.2
	C158.5,13.6,159.3,12.5,160.1,11.4 M147.5,14.5c1.5-0.9,2.8-1.9,4.2-3.1h-1.1l-0.4,0.3c-2,1.6-4.1,2.8-6.4,3.7c-2,0.7-4,1.2-6.1,1.4
	h4.3C143.9,16.3,145.7,15.5,147.5,14.5L147.5,14.5z M143.4,11.4h-1.9c-1.5,0.6-3,1.1-4.6,1.4v0.8c0.6-0.1,1.3-0.3,1.9-0.4
	C140.4,12.8,141.9,12.2,143.4,11.4 M146.7,11.4h-1.5c-0.8,0.4-1.5,0.8-2.3,1.1c-1.9,0.8-3.9,1.4-6,1.7V15c0.6-0.1,1.3-0.2,1.9-0.3
	C141.5,14.1,144.1,13,146.7,11.4 M156.3,14.3c0.9-1,1.7-2,2.4-2.9h-0.6c-1.6,2-3,3.5-4.6,4.9c-0.2,0.2-0.4,0.3-0.6,0.5h0.9
	C154.7,16,155.5,15.2,156.3,14.3 M155.3,13.6c0.6-0.7,1.3-1.4,1.9-2.2h-0.7c-1.1,1.3-2.2,2.4-3.4,3.4c-0.8,0.7-1.7,1.3-2.5,1.9h1.1
	C153,15.9,154.1,14.8,155.3,13.6 M154.6,12.4c0.3-0.3,0.6-0.7,1-1h-0.8c-1.1,1.1-2.2,2.1-3.3,3c-1.2,0.9-2.4,1.7-3.6,2.3h1.4
	c0.3-0.2,0.7-0.4,1-0.7C151.8,15.1,153.2,13.9,154.6,12.4 M153.8,11.4h-0.9c-0.3,0.3-0.7,0.6-1,0.9c-2.4,2-4.9,3.5-7.5,4.5h1.9
	c2.1-1,4.1-2.3,6.1-4.1C152.9,12.3,153.3,11.9,153.8,11.4 M159.6,16.8h0.6c0.9-1.2,1.8-2.5,2.7-3.8v-0.8c-0.2,0.3-0.4,0.6-0.5,0.8
	C161.5,14.3,160.5,15.6,159.6,16.8 M136.9,11.4v0.7c0.8-0.2,1.6-0.5,2.4-0.7H136.9z M162.7,16.8l0.2-0.3v-0.7
	c-0.2,0.3-0.5,0.7-0.7,1H162.7z M162.7,11.4h-0.5c-0.2,0.3-0.4,0.6-0.6,0.9c-0.9,1.4-2,2.9-3.4,4.5h0.6c0.2-0.2,0.3-0.4,0.5-0.6
	C160.4,14.7,161.5,13.2,162.7,11.4 M161.4,11.4h-0.6c-0.5,0.7-1,1.4-1.5,2c-0.9,1.2-1.8,2.3-2.8,3.3h0.7c0.4-0.5,0.8-0.9,1.1-1.3
	C159.5,14.2,160.5,12.8,161.4,11.4 M161.5,16.8c0.5-0.7,1-1.4,1.4-2V14c-0.6,1-1.3,1.9-2,2.8H161.5z M148.1,2.3h-1.2
	c-2.3,1.7-4.5,3-6.7,4.1c-0.9,0.4-1.7,0.8-2.6,1.2h2.1c2.2-1,4.3-2.3,6.5-3.9C146.8,3.3,147.5,2.8,148.1,2.3 M154.8,2.3H154
	c-1.6,1.7-3.1,3-4.7,4.3c-0.5,0.4-0.9,0.7-1.4,1h1.2C151,6.2,152.8,4.5,154.8,2.3 M152.8,2.3h-0.9c-1.6,1.4-3,2.7-4.6,3.8
	c-0.8,0.6-1.5,1.1-2.3,1.6h1.4c0.4-0.3,0.8-0.6,1.2-0.9C149.4,5.5,151,4.1,152.8,2.3 M150.6,2.3h-1c-1,0.8-2,1.6-3.1,2.3
	c-1.6,1.2-3.3,2.2-4.9,3h1.7c1.4-0.8,2.8-1.7,4.1-2.8C148.5,4.1,149.5,3.3,150.6,2.3 M156.5,2.3h-0.7c-0.2,0.2-0.3,0.4-0.5,0.6
	c-1.7,1.9-3.2,3.4-4.8,4.8h1c0.3-0.3,0.7-0.6,1-0.9C153.9,5.4,155.2,3.9,156.5,2.3 M161.3,7.7c0.5-0.8,1.1-1.7,1.6-2.5V4.5
	c-0.7,1.1-1.3,2.1-2.1,3.2H161.3z M136.9,2.3v0.8c0.5-0.3,0.9-0.5,1.4-0.8H136.9z M162.6,7.7L162.6,7.7c0.1-0.2,0.2-0.4,0.3-0.5V6.4
	c-0.3,0.4-0.5,0.8-0.8,1.3H162.6z M160,7.7c1-1.5,2-3,2.9-4.4V2.5c-1,1.6-2.1,3.4-3.4,5.2H160z M159,2.3c-0.6,0.8-1.2,1.6-1.9,2.5
	c-0.8,1-1.7,2-2.5,2.9h0.8c1.4-1.6,2.8-3.4,4.2-5.4H159z M158.1,2.3h-0.6c-0.5,0.6-0.9,1.1-1.4,1.7c-1.2,1.4-2.3,2.6-3.4,3.7h0.9
	c1.8-1.9,3.3-3.7,4.4-5.1L158.1,2.3z M162.2,2.3h-0.5c-1.1,1.7-2.3,3.5-3.8,5.4h0.6c0.4-0.5,0.7-1,1-1.4
	C160.5,5,161.4,3.7,162.2,2.3 M161,2.3h-0.5c-1,1.5-2.1,2.9-3.2,4.3c-0.3,0.4-0.6,0.7-0.9,1.1h0.7c0.1-0.1,0.2-0.2,0.3-0.4
	C158.7,5.7,159.8,4,161,2.3 M142,2.3h-1.7c-0.2,0.1-0.3,0.2-0.5,0.3c-1,0.5-1.9,1.1-2.9,1.5v1c0.9-0.4,1.8-0.9,2.7-1.4
	C140.4,3.3,141.2,2.8,142,2.3 M145.2,2.3h-1.5c-2.1,1.3-4.1,2.4-6.1,3.4c-0.3,0.1-0.5,0.2-0.8,0.4v1c1.3-0.6,2.7-1.2,4-2
	C142.3,4.3,143.8,3.4,145.2,2.3"/>
</svg>
