<?xml version="1.0" encoding="utf-8"?>
<!-- Generator: Adobe Illustrator 16.0.0, SVG Export Plug-In . SVG Version: 6.00 Build 0)  -->
<!DOCTYPE svg PUBLIC "-//W3C//DTD SVG 1.1//EN" "http://www.w3.org/Graphics/SVG/1.1/DTD/svg11.dtd">
<svg version="1.1" id="Layer_1" xmlns="http://www.w3.org/2000/svg" xmlns:xlink="http://www.w3.org/1999/xlink" x="0px" y="0px"
	 width="200px" height="70px" viewBox="0 0 200 70" enable-background="new 0 0 200 70" xml:space="preserve">
<rect x="4.669" y="35.6" fill="#020202" width="191.266" height="0.344"/>
<polygon fill="#020202" points="171.921,18.078 178.08,18.078 178.08,23.387 180.024,23.387 180.024,12.058 178.08,12.058 
	178.08,16.344 171.921,16.344 171.921,12.058 169.979,12.058 169.979,23.387 171.921,23.387 "/>
<path fill="#1A0D0E" d="M107.944,18.462h5.118c0.571,0,1.074,0.242,1.422,0.607c0.276,0.296,0.451,0.659,0.451,1.076
	c0,0.417-0.175,0.851-0.469,1.146c-0.348,0.347-0.867,0.519-1.404,0.519h-5.118V18.462z M107.944,13.951h4.7
	c0.539,0,0.955,0.122,1.268,0.435c0.241,0.242,0.397,0.59,0.397,0.971c0,0.417-0.173,0.833-0.467,1.127
	c-0.313,0.313-0.729,0.416-1.198,0.416h-4.7V13.951z M115.923,22.573c0.765-0.728,1.042-1.578,1.042-2.411
	c0-1.388-0.746-2.55-2.064-2.864c0.815-0.328,1.438-1.265,1.438-2.306c0-0.694-0.276-1.301-0.762-1.787
	c-0.557-0.555-1.44-0.989-2.724-0.989h-6.853v11.329h6.99C114.623,23.546,115.369,23.093,115.923,22.573"/>
<rect x="-467.916" y="12.059" fill="none" width="510.738" height="287.291"/>
<polygon fill="#020202" points="132.804,21.653 125.137,21.653 125.137,18.339 129.491,18.339 129.491,16.604 125.137,16.604 
	125.137,13.792 132.388,13.792 132.388,12.058 123.194,12.058 123.194,23.387 132.804,23.387 "/>
<polygon fill="#020202" points="85.613,19.831 87.902,17.697 92.43,23.387 94.946,23.387 89.308,16.395 93.939,12.059 
	91.528,12.059 85.613,17.663 85.613,12.059 83.67,12.059 83.67,23.387 85.613,23.387 "/>
<path fill="#020202" d="M159.25,23.732c2.461,0,4.369-1.144,5.586-2.358l-1.305-1.284c-0.971,1.042-2.478,1.909-4.248,1.909
	c-2.533,0-4.182-1.909-4.182-4.268c0-2.343,1.614-4.285,4.095-4.285c1.388,0,2.948,0.608,3.955,1.562l1.318-1.302
	c-1.267-1.179-3.244-1.995-5.309-1.995c-3.625,0-6.106,2.724-6.106,6.003C153.055,21.045,155.518,23.732,159.25,23.732"/>
<path fill="#020202" d="M143.258,14.382h0.105l1.94,4.389h-4.006L143.258,14.382z M140.604,20.333H146l1.371,3.054h2.133
	l-5.256-11.328h-1.771l-5.256,11.328h2.031L140.604,20.333z"/>
<path fill="#020202" d="M26.773,23.732c2.464,0,4.372-1.144,5.587-2.358l-1.302-1.284c-0.971,1.042-2.48,1.909-4.25,1.909
	c-2.533,0-4.18-1.909-4.18-4.268c0-2.343,1.613-4.285,4.093-4.285c1.388,0,2.95,0.608,3.956,1.562l1.318-1.302
	c-1.267-1.179-3.245-1.995-5.308-1.995c-3.626,0-6.107,2.724-6.107,6.003C20.581,21.045,23.045,23.732,26.773,23.732"/>
<path fill="#020202" d="M39.448,13.792h4.302c0.607,0,1.232,0.054,1.769,0.608c0.296,0.313,0.47,0.695,0.47,1.128
	c0,0.971-0.868,1.77-1.892,1.77h-4.649V13.792z M39.448,19.032h4.024l2.429,4.355h2.238l-2.707-4.616
	c1.493-0.554,2.499-1.715,2.499-3.243c0-0.868-0.331-1.665-0.903-2.271c-0.729-0.782-1.769-1.197-3.278-1.197h-6.245v11.328h1.943
	V19.032z"/>
<polygon fill="#020202" points="63.333,21.653 55.665,21.653 55.665,18.339 60.019,18.339 60.019,16.604 55.665,16.604 
	55.665,13.792 62.916,13.792 62.916,12.058 53.721,12.058 53.721,23.387 63.333,23.387 "/>
<polygon fill="#020202" points="78.307,21.653 70.639,21.653 70.639,18.339 74.993,18.339 74.993,16.604 70.639,16.604 
	70.639,13.792 77.889,13.792 77.889,12.058 68.695,12.058 68.695,23.387 78.307,23.387 "/>
<path fill="#020202" d="M66.418,48.471h1.43c0.79,0,1.262,0.621,1.262,1.654c0,1.035-0.482,1.652-1.291,1.652h-1.402V48.471z
	 M70.276,50.125c0-0.561-0.227-1.869-2.336-1.869h-2.839l0.091,0.131c0.001,0.002,0.153,0.229,0.153,0.549v5.326
	c0,0.311-0.151,0.533-0.153,0.537l-0.092,0.137h1.562l-0.092-0.137c-0.001-0.004-0.153-0.227-0.153-0.537v-2.266h0.91
	c0.284,0,0.401,0.16,0.522,0.324l1.653,2.615h1.272l-1.887-2.998C69.7,51.725,70.276,50.982,70.276,50.125"/>
<path fill="#020202" d="M66.418,48.471h1.43c0.79,0,1.262,0.621,1.262,1.654c0,1.035-0.482,1.652-1.291,1.652h-1.402V48.471z
	 M70.276,50.125c0-0.561-0.227-1.869-2.336-1.869h-2.839l0.091,0.131c0.001,0.002,0.153,0.229,0.153,0.549v5.326
	c0,0.311-0.151,0.533-0.153,0.537l-0.092,0.137h1.562l-0.092-0.137c-0.001-0.004-0.153-0.227-0.153-0.537v-2.266h0.91
	c0.284,0,0.401,0.16,0.522,0.324l1.653,2.615h1.272l-1.887-2.998C69.7,51.725,70.276,50.982,70.276,50.125z"/>
<path fill="#020202" d="M73.93,51.604c0-2.398,1.319-3.25,2.554-3.25c1.886,0,2.555,1.75,2.555,3.25c0,2.402-1.32,3.26-2.555,3.26
	S73.93,54.006,73.93,51.604 M76.484,48.135c-2.747,0-3.721,1.869-3.721,3.469c0,2.568,2.004,3.48,3.721,3.48s3.721-0.912,3.721-3.48
	C80.205,50.004,79.231,48.135,76.484,48.135"/>
<path fill="#020202" d="M73.93,51.604c0-2.398,1.319-3.25,2.554-3.25c1.886,0,2.555,1.75,2.555,3.25c0,2.402-1.32,3.26-2.555,3.26
	S73.93,54.006,73.93,51.604z M76.484,48.135c-2.747,0-3.721,1.869-3.721,3.469c0,2.568,2.004,3.48,3.721,3.48
	s3.721-0.912,3.721-3.48C80.205,50.004,79.231,48.135,76.484,48.135z"/>
<path fill="#020202" d="M85.139,50.975c-0.319-0.164-0.621-0.32-0.862-0.482h-0.001c-0.495-0.338-0.78-0.775-0.78-1.205
	c0-0.561,0.506-0.926,1.291-0.926c0.473,0,0.916,0.133,1.279,0.383c0.287,0.201,0.501,0.527,0.608,0.918l0.168,0.625v-1.74
	l-0.128,0.072c-0.052,0.029-0.111,0.045-0.18,0.045c-0.154,0-0.237-0.049-0.375-0.131c-0.106-0.063-0.238-0.141-0.441-0.217
	c-0.318-0.121-0.606-0.174-0.932-0.174c-1.017,0-2.094,0.594-2.094,1.693c0,1.121,1.042,1.648,1.963,2.113
	c0.278,0.143,0.542,0.273,0.752,0.414c0.383,0.252,0.892,0.66,0.892,1.275c0,0.717-0.606,1.234-1.439,1.234
	c-0.813,0-1.902-0.387-2.289-1.484l-0.168-0.471v1.66l0.113-0.039c0.001,0,0.13-0.041,0.298-0.041c0.195,0,0.316,0.066,0.482,0.156
	l0.063,0.039c0.321,0.168,0.825,0.398,1.501,0.398c1.532,0,2.411-0.656,2.411-1.807C87.271,52.074,86.138,51.488,85.139,50.975"/>
<path fill="#020202" d="M85.139,50.975c-0.319-0.164-0.621-0.32-0.862-0.482h-0.001c-0.495-0.338-0.78-0.775-0.78-1.205
	c0-0.561,0.506-0.926,1.291-0.926c0.473,0,0.916,0.133,1.279,0.383c0.287,0.201,0.501,0.527,0.608,0.918l0.168,0.625v-1.74
	l-0.128,0.072c-0.052,0.029-0.111,0.045-0.18,0.045c-0.154,0-0.237-0.049-0.375-0.131c-0.106-0.063-0.238-0.141-0.441-0.217
	c-0.318-0.121-0.606-0.174-0.932-0.174c-1.017,0-2.094,0.594-2.094,1.693c0,1.121,1.042,1.648,1.963,2.113
	c0.278,0.143,0.542,0.273,0.752,0.414c0.383,0.252,0.892,0.66,0.892,1.275c0,0.717-0.606,1.234-1.439,1.234
	c-0.813,0-1.902-0.387-2.289-1.484l-0.168-0.471v1.66l0.113-0.039c0.001,0,0.13-0.041,0.298-0.041c0.195,0,0.316,0.066,0.482,0.156
	l0.063,0.039c0.321,0.168,0.825,0.398,1.501,0.398c1.532,0,2.411-0.656,2.411-1.807C87.271,52.074,86.138,51.488,85.139,50.975z"/>
<path fill="#020202" d="M92.91,54.715h-1.857v-3.127h1.216c0.34,0,0.622,0.137,0.832,0.258l0.128,0.074v-0.893l-0.128,0.074
	c-0.254,0.146-0.492,0.268-0.832,0.268h-1.216v-2.898h1.626c1.29,0,1.654,0.748,1.669,0.779l0.163,0.35v-1.344h-4.775l0.092,0.131
	c0.002,0.002,0.152,0.229,0.152,0.549v5.326c0,0.311-0.15,0.533-0.152,0.537l-0.092,0.137h5v-1.354l-0.164,0.355
	C94.568,53.945,94.198,54.715,92.91,54.715"/>
<path fill="#020202" d="M92.91,54.715h-1.857v-3.127h1.216c0.34,0,0.622,0.137,0.832,0.258l0.128,0.074v-0.893l-0.128,0.074
	c-0.254,0.146-0.492,0.268-0.832,0.268h-1.216v-2.898h1.626c1.29,0,1.654,0.748,1.669,0.779l0.163,0.35v-1.344h-4.775l0.092,0.131
	c0.002,0.002,0.152,0.229,0.152,0.549v5.326c0,0.311-0.15,0.533-0.152,0.537l-0.092,0.137h5v-1.354l-0.164,0.355
	C94.568,53.945,94.198,54.715,92.91,54.715z"/>
<path fill="#020202" d="M105.035,48.256l0.084,0.129c0.103,0.164,0.163,0.369,0.163,0.551c0,0.125-0.02,0.229-0.068,0.369
	l-1.578,4.127l-2.067-5.176h-1.237l0.909,2.234l-1.127,2.932l-2.048-5.113l-0.021-0.053h-1.247l2.865,6.975l1.701-4.453l1.832,4.453
	l2.233-5.875c0.071-0.18,0.274-0.635,0.637-0.949l0.173-0.15H105.035z"/>
<path fill="#020202" d="M105.035,48.256l0.084,0.129c0.103,0.164,0.163,0.369,0.163,0.551c0,0.125-0.02,0.229-0.068,0.369
	l-1.578,4.127l-2.067-5.176h-1.237l0.909,2.234l-1.127,2.932l-2.048-5.113l-0.021-0.053h-1.247l2.865,6.975l1.701-4.453l1.832,4.453
	l2.233-5.875c0.071-0.18,0.274-0.635,0.637-0.949l0.173-0.15H105.035z"/>
<path fill="#020202" d="M109.19,52.508v-0.002c-0.239-0.061-0.423-0.088-0.598-0.088c-0.18,0-0.338,0.031-0.475,0.09l1.276-2.809
	l1.51,3.252L109.19,52.508z M109.914,48.256c-0.146,0-0.257,0.033-0.337,0.104l-0.004,0.002c-0.051,0.053-0.083,0.105-0.119,0.162
	c-0.066,0.105-0.14,0.221-0.354,0.381l-0.058,0.041l0.227,0.484l-1.572,3.469l-0.008,0.018c-0.021,0.045-0.107,0.244-0.493,1.096
	c-0.11,0.221-0.345,0.615-0.666,0.758l-0.363,0.166h1.77l-0.338-0.164c-0.002-0.002-0.222-0.109-0.222-0.434
	c0-0.109,0.022-0.219,0.067-0.33l0.455-1.021c0.1-0.217,0.361-0.35,0.693-0.35c0.159,0,0.339,0.025,0.547,0.082l1.885,0.492
	l0.796,1.725h1.259l-3.112-6.68H109.914z"/>
<path fill="#020202" d="M109.19,52.508v-0.002c-0.239-0.061-0.423-0.088-0.598-0.088c-0.18,0-0.338,0.031-0.475,0.09l1.276-2.809
	l1.51,3.252L109.19,52.508z M109.914,48.256c-0.146,0-0.257,0.033-0.337,0.104l-0.004,0.002c-0.051,0.053-0.083,0.105-0.119,0.162
	c-0.066,0.105-0.14,0.221-0.354,0.381l-0.058,0.041l0.227,0.484l-1.572,3.469l-0.008,0.018c-0.021,0.045-0.107,0.244-0.493,1.096
	c-0.11,0.221-0.345,0.615-0.666,0.758l-0.363,0.166h1.77l-0.338-0.164c-0.002-0.002-0.222-0.109-0.222-0.434
	c0-0.109,0.022-0.219,0.067-0.33l0.455-1.021c0.1-0.217,0.361-0.35,0.693-0.35c0.159,0,0.339,0.025,0.547,0.082l1.885,0.492
	l0.796,1.725h1.259l-3.112-6.68H109.914z"/>
<path fill="#020202" d="M114.114,49.756l0.166-0.518c0.012-0.031,0.264-0.768,1.545-0.768h0.751v5.791
	c0,0.311-0.142,0.537-0.145,0.539l-0.085,0.135h1.386h0.161l-0.092-0.137c-0.002-0.004-0.152-0.227-0.152-0.537v-5.791h0.761
	c1.28,0,1.535,0.736,1.545,0.768l0.168,0.518v-1.5h-6.011L114.114,49.756z"/>
<path fill="#020202" d="M114.114,49.756l0.166-0.518c0.012-0.031,0.264-0.768,1.545-0.768h0.751v5.791
	c0,0.311-0.142,0.537-0.145,0.539l-0.085,0.135h1.386h0.161l-0.092-0.137c-0.002-0.004-0.152-0.227-0.152-0.537v-5.791h0.761
	c1.28,0,1.535,0.736,1.545,0.768l0.168,0.518v-1.5h-6.011L114.114,49.756z"/>
<path fill="#020202" d="M125.604,54.715h-1.855v-3.127h1.215c0.34,0,0.623,0.137,0.831,0.258l0.128,0.074v-0.893l-0.128,0.074
	c-0.254,0.146-0.491,0.268-0.831,0.268h-1.215v-2.898h1.624c1.289,0,1.653,0.748,1.67,0.779l0.164,0.35v-1.344h-4.776l0.093,0.131
	c0.001,0.002,0.15,0.229,0.15,0.549v5.326c0,0.311-0.149,0.533-0.15,0.537l-0.093,0.137h5v-1.354l-0.164,0.355
	C127.263,53.945,126.894,54.715,125.604,54.715"/>
<path fill="#020202" d="M125.604,54.715h-1.855v-3.127h1.215c0.34,0,0.623,0.137,0.831,0.258l0.128,0.074v-0.893l-0.128,0.074
	c-0.254,0.146-0.491,0.268-0.831,0.268h-1.215v-2.898h1.624c1.289,0,1.653,0.748,1.67,0.779l0.164,0.35v-1.344h-4.776l0.093,0.131
	c0.001,0.002,0.15,0.229,0.15,0.549v5.326c0,0.311-0.149,0.533-0.15,0.537l-0.093,0.137h5v-1.354l-0.164,0.355
	C127.263,53.945,126.894,54.715,125.604,54.715z"/>
<path fill="#020202" d="M131.148,48.471h1.429c0.791,0,1.264,0.621,1.264,1.654c0,1.035-0.485,1.652-1.291,1.652h-1.401V48.471z
	 M133.618,51.938c0.811-0.211,1.388-0.955,1.388-1.813c0-0.561-0.228-1.869-2.335-1.869h-2.839l0.091,0.133
	c0.001,0,0.152,0.227,0.152,0.547v5.326c0,0.311-0.151,0.533-0.152,0.537l-0.092,0.137h1.561l-0.092-0.137
	c-0.001-0.004-0.151-0.227-0.151-0.537v-2.266h0.909c0.284,0,0.4,0.16,0.521,0.324l1.652,2.615h1.273L133.618,51.938z"/>
<path fill="#020202" d="M131.148,48.471h1.429c0.791,0,1.264,0.621,1.264,1.654c0,1.035-0.485,1.652-1.291,1.652h-1.401V48.471z
	 M133.618,51.938c0.811-0.211,1.388-0.955,1.388-1.813c0-0.561-0.228-1.869-2.335-1.869h-2.839l0.091,0.133
	c0.001,0,0.152,0.227,0.152,0.547v5.326c0,0.311-0.151,0.533-0.152,0.537l-0.092,0.137h1.561l-0.092-0.137
	c-0.001-0.004-0.151-0.227-0.151-0.537v-2.266h0.909c0.284,0,0.4,0.16,0.521,0.324l1.652,2.615h1.273L133.618,51.938z"/>
</svg>
