<?xml version="1.0" encoding="utf-8"?>
<!-- Generator: Adobe Illustrator 26.0.1, SVG Export Plug-In . SVG Version: 6.00 Build 0)  -->
<!DOCTYPE svg PUBLIC "-//W3C//DTD SVG 1.1//EN" "http://www.w3.org/Graphics/SVG/1.1/DTD/svg11.dtd" [
	<!ENTITY ns_extend "http://ns.adobe.com/Extensibility/1.0/">
	<!ENTITY ns_ai "http://ns.adobe.com/AdobeIllustrator/10.0/">
	<!ENTITY ns_graphs "http://ns.adobe.com/Graphs/1.0/">
	<!ENTITY ns_vars "http://ns.adobe.com/Variables/1.0/">
	<!ENTITY ns_imrep "http://ns.adobe.com/ImageReplacement/1.0/">
	<!ENTITY ns_sfw "http://ns.adobe.com/SaveForWeb/1.0/">
	<!ENTITY ns_custom "http://ns.adobe.com/GenericCustomNamespace/1.0/">
	<!ENTITY ns_adobe_xpath "http://ns.adobe.com/XPath/1.0/">
]>
<svg version="1.1" id="Layer_1" xmlns:x="&ns_extend;" xmlns:i="&ns_ai;" xmlns:graph="&ns_graphs;"
	 xmlns="http://www.w3.org/2000/svg" xmlns:xlink="http://www.w3.org/1999/xlink" x="0px" y="0px" viewBox="0 0 295.9 70"
	 style="enable-background:new 0 0 295.9 70;" xml:space="preserve">
<style type="text/css">
	.st0{fill:#5F705D;}
	.st1{fill:#010101;}
	.st2{fill:none;}
	.st3{fill:#B4D1BF;}
	.st4{fill:#AB926D;}
	.st5{fill:#A3925F;}
	.st6{fill:#006846;}
</style>
<metadata>
	<sfw  xmlns="&ns_sfw;">
		<slices></slices>
		<sliceSourceBounds  bottomLeftOrigin="true" height="414.6" width="1236" x="96.3" y="-355.7"></sliceSourceBounds>
	</sfw>
</metadata>
<g>
	<g>
		<path class="st1" d="M134.5,63.5c0,1.8-1.3,2.9-3.4,2.9h-3.5V56h3.2c2.1,0,3.3,1,3.3,2.7c0,1.4-0.8,2-1.7,2.3
			C133.6,61.2,134.5,62.2,134.5,63.5 M130.7,60.6c1.6,0,2.5-0.6,2.5-1.9c0-1.3-0.9-1.9-2.5-1.9h-2.3v3.9H130.7z M128.4,65.6h2.7
			c1.6,0,2.5-0.8,2.5-2.1c0-1.3-0.8-2.1-2.5-2.1h-2.7V65.6z"/>
		<polygon class="st1" points="137.5,56 138.4,56 138.4,65.6 144,65.6 144,66.4 137.5,66.4 		"/>
		<rect x="146.7" y="56" class="st1" width="0.9" height="10.4"/>
		<path class="st1" d="M151.4,63.8c0.4,1.3,1.5,1.9,2.9,1.9c1.5,0,2.6-0.8,2.6-2.1c0-0.9-0.5-1.6-1.8-1.9l-2-0.6
			c-1.5-0.4-2.4-1.1-2.4-2.5c0-1.8,1.5-2.8,3.3-2.8c2,0,3.3,1.1,3.7,2.6h-0.9c-0.4-1.1-1.3-1.8-2.8-1.8c-1.4,0-2.5,0.7-2.5,2
			c0,1.1,0.7,1.5,2,1.8l1.7,0.5c1.7,0.5,2.5,1.3,2.5,2.7c0,1.8-1.5,2.9-3.4,2.9c-1.9,0-3.4-1-3.8-2.7H151.4z"/>
		<path class="st1" d="M161,63.8c0.4,1.3,1.5,1.9,2.9,1.9c1.5,0,2.6-0.8,2.6-2.1c0-0.9-0.5-1.6-1.8-1.9l-2-0.6
			c-1.5-0.4-2.4-1.1-2.4-2.5c0-1.8,1.5-2.8,3.3-2.8c2,0,3.3,1.1,3.7,2.6h-0.9c-0.4-1.1-1.3-1.8-2.8-1.8c-1.4,0-2.5,0.7-2.5,2
			c0,1.1,0.7,1.5,2,1.8l1.7,0.5c1.7,0.5,2.5,1.3,2.5,2.7c0,1.8-1.5,2.9-3.4,2.9c-1.9,0-3.4-1-3.8-2.7H161z"/>
	</g>
	<path d="M114.1,22.3l-1.3,0.5V1.4L128,19.7V2.3l1.3-0.5v21.3L114.1,4.8V22.3z M171.8,4.8L187,23.2V1.8l-1.3,0.5v17.4L170.6,1.4
		v21.3l1.3-0.5V4.8z M93.2,22.7L92,22.3l0.1-0.2l9.4-20.5l9.7,20.6l-1.2,0.5l-4.5-9.7h-7.9L93.2,22.7z M104.8,11.7l-3.4-7.5
		l-3.3,7.5H104.8z M90.2,1.8l-1.3,0.5v20.5l1.3-0.5V1.8z M80.4,22.5h-3.9V2h3.4C83.8,2,86,3.9,86,7.3c0,2.3-1.3,4.2-3.2,5
		c1.7,0.5,3.4,2.1,3.4,5C86.2,20.9,83.3,22.5,80.4,22.5 M80.4,11.6c2.5,0,4.4-1.8,4.4-4.3c0-3.5-3.1-3.9-4.4-3.9h-2.5v8.2H80.4z
		 M80.4,21.2c2.8,0,4.5-1.5,4.5-4c0-3.2-2.6-4.3-5-4.3h-2.2v8.3H80.4z M141.1,22.3l-1.3,0.5V2h1.1c6.9,0,7.7,3.4,7.7,5.9
		c0,2.6-1.5,5.6-5.8,6.1l6.8,8l-1,0.8l-7.5-9V22.3z M141.8,3.4h-0.6V13c2.2-0.1,6.3-0.4,6.3-5.2C147.5,3.8,143.5,3.4,141.8,3.4
		 M242.2,23c3.6,0,5.5-3.1,5.5-6c0-3.5-2-4.6-3.9-5.2l-1.6-0.5c-2-0.7-3.1-2-3.1-4c0-2.1,1.2-4.5,3.9-4.5c1,0,1.9,0.1,3.5,1.7
		l0.1,0.1l0.9-1l-0.1-0.1c-0.6-0.7-2-2-4.4-2c-2.9,0-5.2,2.5-5.2,5.8c0,2.7,1.4,4.5,4.1,5.4L243,13c2.3,0.7,3.3,1.9,3.3,4
		c0,1.8-1.1,4.7-4.2,4.7c-1.9,0-3.2-1.6-3.9-2.5l-0.2-0.2l-0.8,0.9l-0.1,0.1l0.1,0.1C238.1,21.1,239.6,23,242.2,23 M149.7,22.3
		l9.4-20.6l9.7,20.6l-1.2,0.4l-4.5-9.7h-7.9l-4.3,9.7L149.7,22.3z M162.5,11.7l-3.4-7.5l-3.3,7.5H162.5z M209.5,13h12.5v9.7l1.3-0.5
		V1.8l-1.3,0.5v9.5h-12.5V1.8l-1.2,0.5v20.5l1.2-0.5V13z M199.8,23c2.2,0,4.4-0.8,6.3-2.3l0.1-0.1l-0.8-0.9l-0.1,0.1
		c-1.9,1.3-3.2,2-5.5,2c-4.9,0-8.9-4.2-8.9-9.4c0-5.2,4-9.4,8.9-9.4c1.9,0,3.8,0.7,5.4,2l0.1,0.1l0.9-1l-0.1-0.1
		c-1.9-1.5-4.1-2.3-6.4-2.3c-5.5,0-10,4.8-10,10.7C189.6,18.3,194.1,23,199.8,23 M26.2,22.7L25,22.3l0.1-0.2l9.4-20.5l9.7,20.6
		l-1.2,0.5L38.4,13h-7.9L26.2,22.7z M37.8,11.7l-3.4-7.5l-3.3,7.5H37.8z M55.8,22.3l0.1-0.2l9.4-20.5l9.7,20.6l-1.2,0.5L69.2,13
		h-7.9L57,22.7L55.8,22.3z M68.6,11.7l-3.4-7.5l-3.3,7.5H68.6z M47.3,22.3L46,22.8V2h1.1c6.9,0,7.7,3.4,7.7,5.9
		c0,2.6-1.5,5.6-5.8,6.1l6.8,8l-1,0.8l-7.5-9V22.3z M47.9,3.4h-0.6V13c2.2-0.1,6.3-0.4,6.3-5.2C53.6,3.8,49.6,3.4,47.9,3.4
		 M236.8,21.2h-8.7v-8.5h7v-1.3h-7v-8h8L235.7,2h-8.8v20.5h9.3L236.8,21.2z M269.6,21.6l0.4,1.3h-4.9H258h-4.9l-0.4-1.3h3.1V3h-2.7
		l-0.4-1.3h4.9h7.1h4.9L270,3h-3.1v18.6H269.6z M260.7,21.6V3H258h-0.9v18.6h0.5H260.7z M265.6,3h-0.5H262v18.6h2.7h0.9V3z
		 M294.5,38.8H0.5v0.7h294V38.8z"/>
	<rect x="4" y="1.3" class="st2" width="292.5" height="75.7"/>
</g>
</svg>
