<?xml version="1.0" encoding="utf-8"?>
<!-- Generator: Adobe Illustrator 26.0.1, SVG Export Plug-In . SVG Version: 6.00 Build 0)  -->
<!DOCTYPE svg PUBLIC "-//W3C//DTD SVG 1.1//EN" "http://www.w3.org/Graphics/SVG/1.1/DTD/svg11.dtd" [
	<!ENTITY ns_extend "http://ns.adobe.com/Extensibility/1.0/">
	<!ENTITY ns_ai "http://ns.adobe.com/AdobeIllustrator/10.0/">
	<!ENTITY ns_graphs "http://ns.adobe.com/Graphs/1.0/">
	<!ENTITY ns_vars "http://ns.adobe.com/Variables/1.0/">
	<!ENTITY ns_imrep "http://ns.adobe.com/ImageReplacement/1.0/">
	<!ENTITY ns_sfw "http://ns.adobe.com/SaveForWeb/1.0/">
	<!ENTITY ns_custom "http://ns.adobe.com/GenericCustomNamespace/1.0/">
	<!ENTITY ns_adobe_xpath "http://ns.adobe.com/XPath/1.0/">
]>
<svg version="1.1" id="Layer_1" xmlns:x="&ns_extend;" xmlns:i="&ns_ai;" xmlns:graph="&ns_graphs;"
	 xmlns="http://www.w3.org/2000/svg" xmlns:xlink="http://www.w3.org/1999/xlink" x="0px" y="0px" viewBox="0 0 200 113.2"
	 style="enable-background:new 0 0 200 113.2;" xml:space="preserve">
<style type="text/css">
	.st0{fill:#808184;}
	.st1{clip-path:url(#SVGID_00000082365736253491763950000013506737311966672265_);}
	.st2{fill:#AC9C63;}
	.st3{fill:#038295;}
	
		.st4{clip-path:url(#SVGID_00000169555205985828084360000010087202488828437684_);fill:url(#SVGID_00000147911537524855767840000001245941963065245369_);}
	
		.st5{clip-path:url(#SVGID_00000096771557901924477170000005762954438950114964_);fill:url(#SVGID_00000072984705580619208580000005150639351147130542_);}
	
		.st6{clip-path:url(#SVGID_00000007390237997136885770000017042869666863139995_);fill:url(#SVGID_00000045591963685633015990000009668511761684456348_);}
	.st7{fill:url(#SVGID_00000024720663608921544560000005601699539255159711_);}
	.st8{fill:url(#SVGID_00000023245682830435365920000007610156489381073818_);}
	.st9{fill:url(#SVGID_00000028297774939694484290000002916093763902488246_);}
	.st10{fill:url(#SVGID_00000017491712486610571580000011423502262898433429_);}
	.st11{fill:url(#SVGID_00000056417836321979144530000016201500421814725051_);}
	.st12{fill:url(#SVGID_00000126302389434129139290000012216019830230209679_);}
	.st13{fill:url(#SVGID_00000163758797256003430860000001061445758345722294_);}
	.st14{fill:url(#SVGID_00000080924205133010716810000007439299565537550234_);}
	.st15{fill:url(#SVGID_00000055698250158590673680000006402640865063147412_);}
	.st16{fill:url(#SVGID_00000159467032290513806650000001183788434645789576_);}
	.st17{fill:url(#SVGID_00000135671495122143746210000001426458164655743381_);}
	.st18{fill:url(#SVGID_00000097467790777654268060000002630683876633200812_);}
	.st19{fill:url(#SVGID_00000054973062229800970780000015326954660743247792_);}
	.st20{fill:url(#SVGID_00000087386154196005513440000002290754177863709079_);}
	.st21{fill:url(#SVGID_00000028305702442104310880000016322729086983164293_);}
	.st22{fill:url(#SVGID_00000101080283432002079980000009045326595985261225_);}
	.st23{fill:url(#SVGID_00000044147573042765342240000004424420591411778994_);}
	.st24{fill:url(#SVGID_00000068676867422669295130000007882407082681742471_);}
	.st25{fill:url(#SVGID_00000167393293478467593040000016787468382236945578_);}
	.st26{fill:url(#SVGID_00000110429475794851625620000009001770369546885248_);}
	.st27{fill:url(#SVGID_00000078737631194590899920000009489371368351921306_);}
	.st28{fill:url(#SVGID_00000052798299108231061440000014606912449459158149_);}
	.st29{fill:url(#SVGID_00000141420289284078286740000007561446841024123284_);}
	.st30{fill:url(#SVGID_00000125562722447050251410000014878319347009810845_);}
	.st31{fill:url(#SVGID_00000068637552499913627330000009512904194859620790_);}
	.st32{fill:url(#SVGID_00000005244300178914732570000007661052276636968888_);}
	.st33{fill:url(#SVGID_00000107564226963139645650000015861768870718075021_);}
	.st34{fill:url(#SVGID_00000026862349834805068960000007826957063733065640_);}
	.st35{fill:url(#SVGID_00000000944621238273439550000008129319436832345475_);}
	.st36{fill:url(#SVGID_00000173874585375244860820000013850394059351388607_);}
	.st37{fill:url(#SVGID_00000144324039535532903150000014472528025789392567_);}
	.st38{fill:url(#SVGID_00000130611248439891722990000009375648143483248817_);}
	.st39{fill:url(#SVGID_00000036225823710011827070000000909946653347740293_);}
	.st40{fill:url(#SVGID_00000137826333180396037180000011356081626432113596_);}
	.st41{fill:url(#SVGID_00000016782766218424563900000015595146862628875163_);}
	.st42{fill:url(#SVGID_00000013186368352325891540000008234377847129979275_);}
	.st43{fill:url(#SVGID_00000106835813525032305060000013215869395143537042_);}
	.st44{fill:url(#SVGID_00000138538048369285808020000016805021881852230024_);}
	.st45{fill:url(#SVGID_00000132795327661422774100000014784698841036226233_);}
	.st46{fill:url(#SVGID_00000063598616945837389730000013284958763046727071_);}
	.st47{fill:url(#SVGID_00000037676631060707201040000001981947328614888123_);}
	.st48{fill:url(#SVGID_00000080170193943691399950000015460080243944590777_);}
	.st49{fill:url(#SVGID_00000001652089667668593170000000460601131265521083_);}
	.st50{fill:url(#SVGID_00000052811615036620259070000011245404163183796651_);}
	.st51{fill:url(#SVGID_00000171716791142799306170000004366225553742859160_);}
	.st52{fill:url(#SVGID_00000108309134607844598400000000596870029822503576_);}
	.st53{fill:url(#SVGID_00000122683776059759043020000014399813494724786829_);}
	.st54{fill:#6AC1D5;}
	.st55{fill:#73BAB2;}
</style>
<metadata>
	<sfw  xmlns="&ns_sfw;">
		<slices></slices>
		<sliceSourceBounds  bottomLeftOrigin="true" height="343" width="2527.3" x="0.4" y="-188.2"></sliceSourceBounds>
	</sfw>
</metadata>
<g>
	
		<linearGradient id="SVGID_00000113349215561426672780000005689394969553921215_" gradientUnits="userSpaceOnUse" x1="64.4506" y1="106.6093" x2="76.8047" y2="106.6093">
		<stop  offset="0" style="stop-color:#F58156"/>
		<stop  offset="0.932" style="stop-color:#CF4B7D"/>
		<stop  offset="1" style="stop-color:#CF4B7D"/>
	</linearGradient>
	<path style="fill:url(#SVGID_00000113349215561426672780000005689394969553921215_);" d="M67.3,106.6c0,0.7,0.1,1.3,0.4,1.9
		c0.3,0.6,0.7,1,1.2,1.3c0.5,0.3,1.1,0.5,1.7,0.5s1.2-0.2,1.7-0.5c0.5-0.3,0.9-0.8,1.2-1.3c0.3-0.6,0.4-1.2,0.4-1.9
		c0-0.7-0.1-1.3-0.4-1.9c-0.3-0.6-0.7-1-1.2-1.3c-0.5-0.3-1.1-0.5-1.7-0.5s-1.2,0.2-1.7,0.5c-0.5,0.3-0.9,0.8-1.2,1.3
		C67.4,105.3,67.3,105.9,67.3,106.6 M64.5,106.6c0-0.9,0.2-1.7,0.5-2.4c0.3-0.8,0.7-1.4,1.3-2c0.6-0.6,1.2-1,2-1.3
		c0.8-0.3,1.6-0.5,2.4-0.5c0.9,0,1.7,0.2,2.5,0.5c0.7,0.3,1.4,0.8,2,1.3c0.6,0.6,1,1.2,1.3,2c0.3,0.8,0.5,1.6,0.5,2.4
		c0,0.9-0.2,1.7-0.4,2.5c-0.3,0.8-0.7,1.4-1.3,2c-0.6,0.6-1.2,1-2,1.3c-0.8,0.3-1.6,0.5-2.5,0.5c-0.9,0-1.8-0.2-2.5-0.5
		c-0.8-0.3-1.4-0.8-2-1.3c-0.5-0.6-1-1.2-1.3-2C64.6,108.3,64.5,107.5,64.5,106.6"/>
	
		<linearGradient id="SVGID_00000052069374137849782010000010579580935252670869_" gradientUnits="userSpaceOnUse" x1="79.1264" y1="106.6092" x2="88.1823" y2="106.6092">
		<stop  offset="0" style="stop-color:#F58156"/>
		<stop  offset="0.932" style="stop-color:#CF4B7D"/>
		<stop  offset="1" style="stop-color:#CF4B7D"/>
	</linearGradient>
	<path style="fill:url(#SVGID_00000052069374137849782010000010579580935252670869_);" d="M81.9,106h1.2c0.5,0,0.9-0.1,1.3-0.4
		c0.4-0.2,0.5-0.7,0.5-1.3c0-0.6-0.2-1-0.5-1.3c-0.4-0.2-0.8-0.4-1.3-0.4h-1.2V106z M79.1,100.6H84c0.7,0,1.3,0.1,1.9,0.4
		c0.5,0.3,1,0.7,1.3,1.3c0.3,0.5,0.5,1.2,0.5,2c0,0.8-0.1,1.4-0.4,1.9c-0.3,0.5-0.6,0.8-1,1.1c-0.4,0.2-0.7,0.4-1,0.4l2.9,5h-3.1
		l-2.6-4.8h-0.7v4.8h-2.7L79.1,100.6L79.1,100.6z"/>
	
		<linearGradient id="SVGID_00000080891075798061431030000016399415523648498362_" gradientUnits="userSpaceOnUse" x1="89.7245" y1="106.6092" x2="101.9379" y2="106.6092">
		<stop  offset="0" style="stop-color:#F58156"/>
		<stop  offset="0.932" style="stop-color:#CF4B7D"/>
		<stop  offset="1" style="stop-color:#CF4B7D"/>
	</linearGradient>
	<path style="fill:url(#SVGID_00000080891075798061431030000016399415523648498362_);" d="M94.4,107.8h2.8l-1.4-3.9h0L94.4,107.8z
		 M94.5,100.6h2.7l4.8,12H99l-0.9-2.4h-4.6l-0.9,2.4h-2.9L94.5,100.6z"/>
	
		<linearGradient id="SVGID_00000098924896190114419960000001032834642042993080_" gradientUnits="userSpaceOnUse" x1="103.7176" y1="106.609" x2="114.841" y2="106.609">
		<stop  offset="0" style="stop-color:#F58156"/>
		<stop  offset="0.932" style="stop-color:#CF4B7D"/>
		<stop  offset="1" style="stop-color:#CF4B7D"/>
	</linearGradient>
	<polygon style="fill:url(#SVGID_00000098924896190114419960000001032834642042993080_);" points="106.2,103.1 106.4,103.1 
		106.4,112.6 103.7,112.6 103.7,100.6 107.4,100.6 112.3,110.1 112.1,110.1 112.1,100.6 114.8,100.6 114.8,112.6 111.1,112.6 	"/>
	
		<linearGradient id="SVGID_00000008853606005795193120000003224013213785474698_" gradientUnits="userSpaceOnUse" x1="117.818" y1="106.6089" x2="120.5442" y2="106.6089">
		<stop  offset="0" style="stop-color:#F58156"/>
		<stop  offset="0.932" style="stop-color:#CF4B7D"/>
		<stop  offset="1" style="stop-color:#CF4B7D"/>
	</linearGradient>
	
		<rect x="117.8" y="100.6" style="fill:url(#SVGID_00000008853606005795193120000003224013213785474698_);" width="2.7" height="12"/>
	
		<linearGradient id="SVGID_00000055666790940637104890000004467262449862851486_" gradientUnits="userSpaceOnUse" x1="122.6154" y1="106.6092" x2="134.8288" y2="106.6092">
		<stop  offset="0" style="stop-color:#F58156"/>
		<stop  offset="0.932" style="stop-color:#CF4B7D"/>
		<stop  offset="1" style="stop-color:#CF4B7D"/>
	</linearGradient>
	<path style="fill:url(#SVGID_00000055666790940637104890000004467262449862851486_);" d="M127.3,107.8h2.8l-1.4-3.9h0L127.3,107.8z
		 M127.4,100.6h2.7l4.8,12h-2.9l-0.9-2.4h-4.6l-0.9,2.4h-2.9L127.4,100.6z"/>
	
		<linearGradient id="SVGID_00000052798434144769827790000013798162986658500276_" gradientUnits="userSpaceOnUse" x1="6.382979e-02" y1="85.9184" x2="199.2128" y2="85.9184">
		<stop  offset="0" style="stop-color:#F58156"/>
		<stop  offset="0.932" style="stop-color:#CF4B7D"/>
		<stop  offset="1" style="stop-color:#CF4B7D"/>
	</linearGradient>
	
		<rect x="0.1" y="85.8" style="fill:url(#SVGID_00000052798434144769827790000013798162986658500276_);" width="199.1" height="0.3"/>
	
		<linearGradient id="SVGID_00000149353526798013738270000017928252906265395632_" gradientUnits="userSpaceOnUse" x1="170.7706" y1="65.2779" x2="182.6197" y2="65.2779">
		<stop  offset="0" style="stop-color:#F58156"/>
		<stop  offset="0.932" style="stop-color:#CF4B7D"/>
		<stop  offset="1" style="stop-color:#CF4B7D"/>
	</linearGradient>
	<polygon style="fill:url(#SVGID_00000149353526798013738270000017928252906265395632_);" points="175.8,71.1 177.6,71.1 
		177.6,66.5 182.6,59.4 180.5,59.4 176.7,64.8 172.9,59.4 170.8,59.4 175.8,66.5 	"/>
	
		<linearGradient id="SVGID_00000096739864847991368920000014938385782843029136_" gradientUnits="userSpaceOnUse" x1="16.6596" y1="65.2779" x2="25.8992" y2="65.2779">
		<stop  offset="0" style="stop-color:#F58156"/>
		<stop  offset="0.932" style="stop-color:#CF4B7D"/>
		<stop  offset="1" style="stop-color:#CF4B7D"/>
	</linearGradient>
	<polygon style="fill:url(#SVGID_00000096739864847991368920000014938385782843029136_);" points="20.4,71.1 22.2,71.1 22.2,61.1 
		25.9,61.1 25.9,59.4 16.7,59.4 16.7,61.1 20.4,61.1 	"/>
	
		<linearGradient id="SVGID_00000049939892764126051080000002552640682666382249_" gradientUnits="userSpaceOnUse" x1="34.6407" y1="65.2779" x2="44.0645" y2="65.2779">
		<stop  offset="0" style="stop-color:#F58156"/>
		<stop  offset="0.932" style="stop-color:#CF4B7D"/>
		<stop  offset="1" style="stop-color:#CF4B7D"/>
	</linearGradient>
	<polygon style="fill:url(#SVGID_00000049939892764126051080000002552640682666382249_);" points="36.4,66.1 42.3,66.1 42.3,71.1 
		44.1,71.1 44.1,59.4 42.3,59.4 42.3,64.4 36.4,64.4 36.4,59.4 34.6,59.4 34.6,71.1 36.4,71.1 	"/>
	
		<linearGradient id="SVGID_00000021823564638733501190000012434247771782533250_" gradientUnits="userSpaceOnUse" x1="53.5615" y1="65.2781" x2="62.2327" y2="65.2781">
		<stop  offset="0" style="stop-color:#F58156"/>
		<stop  offset="0.932" style="stop-color:#CF4B7D"/>
		<stop  offset="1" style="stop-color:#CF4B7D"/>
	</linearGradient>
	<polygon style="fill:url(#SVGID_00000021823564638733501190000012434247771782533250_);" points="62.2,69.4 55.3,69.4 55.3,66.1 
		61.5,66.1 61.5,64.4 55.3,64.4 55.3,61.1 62.2,61.1 62.2,59.4 53.6,59.4 53.6,71.1 62.2,71.1 	"/>
	
		<linearGradient id="SVGID_00000025436870893246537960000008247451532092668599_" gradientUnits="userSpaceOnUse" x1="82.4884" y1="65.3165" x2="94.1002" y2="65.3165">
		<stop  offset="0" style="stop-color:#F58156"/>
		<stop  offset="0.932" style="stop-color:#CF4B7D"/>
		<stop  offset="1" style="stop-color:#CF4B7D"/>
	</linearGradient>
	<polygon style="fill:url(#SVGID_00000025436870893246537960000008247451532092668599_);" points="89,71.2 94.1,59.4 92.2,59.4 
		88.3,68.6 84.4,59.4 82.5,59.4 87.6,71.2 	"/>
	
		<linearGradient id="SVGID_00000090271394010685705820000017438418464079025308_" gradientUnits="userSpaceOnUse" x1="100.0814" y1="65.2379" x2="112.3452" y2="65.2379">
		<stop  offset="0" style="stop-color:#F58156"/>
		<stop  offset="0.932" style="stop-color:#CF4B7D"/>
		<stop  offset="1" style="stop-color:#CF4B7D"/>
	</linearGradient>
	<path style="fill:url(#SVGID_00000090271394010685705820000017438418464079025308_);" d="M108.3,66.4h-4.2l2.1-4.6L108.3,66.4z
		 M100.1,71.1h1.9l1.4-3h5.7l1.4,3h1.9l-5.4-11.8h-1.4L100.1,71.1z"/>
	
		<linearGradient id="SVGID_00000136405349100711359010000005483559901838540418_" gradientUnits="userSpaceOnUse" x1="120.7488" y1="65.2781" x2="128.8075" y2="65.2781">
		<stop  offset="0" style="stop-color:#F58156"/>
		<stop  offset="0.932" style="stop-color:#CF4B7D"/>
		<stop  offset="1" style="stop-color:#CF4B7D"/>
	</linearGradient>
	<polygon style="fill:url(#SVGID_00000136405349100711359010000005483559901838540418_);" points="128.8,69.4 122.5,69.4 
		122.5,59.4 120.7,59.4 120.7,71.1 128.8,71.1 	"/>
	
		<linearGradient id="SVGID_00000061445645294342155440000009165075374963712947_" gradientUnits="userSpaceOnUse" x1="137.5321" y1="65.2781" x2="145.5908" y2="65.2781">
		<stop  offset="0" style="stop-color:#F58156"/>
		<stop  offset="0.932" style="stop-color:#CF4B7D"/>
		<stop  offset="1" style="stop-color:#CF4B7D"/>
	</linearGradient>
	<polygon style="fill:url(#SVGID_00000061445645294342155440000009165075374963712947_);" points="145.6,69.4 139.3,69.4 
		139.3,59.4 137.5,59.4 137.5,71.1 145.6,71.1 	"/>
	
		<linearGradient id="SVGID_00000047035791804464459160000013219164886260412850_" gradientUnits="userSpaceOnUse" x1="154.3153" y1="65.2781" x2="162.9865" y2="65.2781">
		<stop  offset="0" style="stop-color:#F58156"/>
		<stop  offset="0.932" style="stop-color:#CF4B7D"/>
		<stop  offset="1" style="stop-color:#CF4B7D"/>
	</linearGradient>
	<polygon style="fill:url(#SVGID_00000047035791804464459160000013219164886260412850_);" points="163,69.4 156.1,69.4 156.1,66.1 
		162.2,66.1 162.2,64.4 156.1,64.4 156.1,61.1 162.9,61.1 162.9,59.4 154.3,59.4 154.3,71.1 163,71.1 	"/>
	
		<linearGradient id="SVGID_00000111886557103541485230000018022950154647057599_" gradientUnits="userSpaceOnUse" x1="84.6127" y1="20.1467" x2="99.2986" y2="20.1467">
		<stop  offset="0" style="stop-color:#F58156"/>
		<stop  offset="0.932" style="stop-color:#CF4B7D"/>
		<stop  offset="1" style="stop-color:#CF4B7D"/>
	</linearGradient>
	<polygon style="fill:url(#SVGID_00000111886557103541485230000018022950154647057599_);" points="99.3,25.5 91.6,6.6 84.6,6.6 
		95.7,33.7 	"/>
	
		<linearGradient id="SVGID_00000149383243067009951430000013791033215427843738_" gradientUnits="userSpaceOnUse" x1="97.3416" y1="19.9224" x2="114.667" y2="19.9224">
		<stop  offset="0" style="stop-color:#F58156"/>
		<stop  offset="0.932" style="stop-color:#CF4B7D"/>
		<stop  offset="1" style="stop-color:#CF4B7D"/>
	</linearGradient>
	<polygon style="fill:url(#SVGID_00000149383243067009951430000013791033215427843738_);" points="97.9,39.1 114.7,0.7 113.4,0.7 
		97.3,37.7 	"/>
	
		<linearGradient id="SVGID_00000048488097914409197890000006805301055487521204_" gradientUnits="userSpaceOnUse" x1="170.7706" y1="65.2779" x2="182.6197" y2="65.2779">
		<stop  offset="0" style="stop-color:#F58156"/>
		<stop  offset="0.932" style="stop-color:#CF4B7D"/>
		<stop  offset="1" style="stop-color:#CF4B7D"/>
	</linearGradient>
	<polygon style="fill:url(#SVGID_00000048488097914409197890000006805301055487521204_);" points="175.8,71.1 177.6,71.1 
		177.6,66.5 182.6,59.4 180.5,59.4 176.7,64.8 172.9,59.4 170.8,59.4 175.8,66.5 	"/>
	
		<linearGradient id="SVGID_00000145780245369537672830000003705823607660537021_" gradientUnits="userSpaceOnUse" x1="16.6596" y1="65.2779" x2="25.8992" y2="65.2779">
		<stop  offset="0" style="stop-color:#F58156"/>
		<stop  offset="0.932" style="stop-color:#CF4B7D"/>
		<stop  offset="1" style="stop-color:#CF4B7D"/>
	</linearGradient>
	<polygon style="fill:url(#SVGID_00000145780245369537672830000003705823607660537021_);" points="20.4,71.1 22.2,71.1 22.2,61.1 
		25.9,61.1 25.9,59.4 16.7,59.4 16.7,61.1 20.4,61.1 	"/>
	
		<linearGradient id="SVGID_00000007402899872676328510000014624658952436239009_" gradientUnits="userSpaceOnUse" x1="34.6407" y1="65.2779" x2="44.0645" y2="65.2779">
		<stop  offset="0" style="stop-color:#F58156"/>
		<stop  offset="0.932" style="stop-color:#CF4B7D"/>
		<stop  offset="1" style="stop-color:#CF4B7D"/>
	</linearGradient>
	<polygon style="fill:url(#SVGID_00000007402899872676328510000014624658952436239009_);" points="36.4,66.1 42.3,66.1 42.3,71.1 
		44.1,71.1 44.1,59.4 42.3,59.4 42.3,64.4 36.4,64.4 36.4,59.4 34.6,59.4 34.6,71.1 36.4,71.1 	"/>
	
		<linearGradient id="SVGID_00000140736061982754329320000015633679416384787855_" gradientUnits="userSpaceOnUse" x1="53.5615" y1="65.2781" x2="62.2327" y2="65.2781">
		<stop  offset="0" style="stop-color:#F58156"/>
		<stop  offset="0.932" style="stop-color:#CF4B7D"/>
		<stop  offset="1" style="stop-color:#CF4B7D"/>
	</linearGradient>
	<polygon style="fill:url(#SVGID_00000140736061982754329320000015633679416384787855_);" points="62.2,69.4 55.3,69.4 55.3,66.1 
		61.5,66.1 61.5,64.4 55.3,64.4 55.3,61.1 62.2,61.1 62.2,59.4 53.6,59.4 53.6,71.1 62.2,71.1 	"/>
	
		<linearGradient id="SVGID_00000058574794272799449080000005048007666135751096_" gradientUnits="userSpaceOnUse" x1="82.4884" y1="65.3165" x2="94.1002" y2="65.3165">
		<stop  offset="0" style="stop-color:#F58156"/>
		<stop  offset="0.932" style="stop-color:#CF4B7D"/>
		<stop  offset="1" style="stop-color:#CF4B7D"/>
	</linearGradient>
	<polygon style="fill:url(#SVGID_00000058574794272799449080000005048007666135751096_);" points="89,71.2 94.1,59.4 92.2,59.4 
		88.3,68.6 84.4,59.4 82.5,59.4 87.6,71.2 	"/>
	
		<linearGradient id="SVGID_00000005955726564653659770000000509663605698459810_" gradientUnits="userSpaceOnUse" x1="100.0814" y1="65.2379" x2="112.3452" y2="65.2379">
		<stop  offset="0" style="stop-color:#F58156"/>
		<stop  offset="0.932" style="stop-color:#CF4B7D"/>
		<stop  offset="1" style="stop-color:#CF4B7D"/>
	</linearGradient>
	<path style="fill:url(#SVGID_00000005955726564653659770000000509663605698459810_);" d="M108.3,66.4h-4.2l2.1-4.6L108.3,66.4z
		 M100.1,71.1h1.9l1.4-3h5.7l1.4,3h1.9l-5.4-11.8h-1.4L100.1,71.1z"/>
	
		<linearGradient id="SVGID_00000127740243812835343130000013495809158989506495_" gradientUnits="userSpaceOnUse" x1="120.7488" y1="65.2781" x2="128.8075" y2="65.2781">
		<stop  offset="0" style="stop-color:#F58156"/>
		<stop  offset="0.932" style="stop-color:#CF4B7D"/>
		<stop  offset="1" style="stop-color:#CF4B7D"/>
	</linearGradient>
	<polygon style="fill:url(#SVGID_00000127740243812835343130000013495809158989506495_);" points="128.8,69.4 122.5,69.4 
		122.5,59.4 120.7,59.4 120.7,71.1 128.8,71.1 	"/>
	
		<linearGradient id="SVGID_00000132782834256358543220000004296966953173172912_" gradientUnits="userSpaceOnUse" x1="137.5321" y1="65.2781" x2="145.5908" y2="65.2781">
		<stop  offset="0" style="stop-color:#F58156"/>
		<stop  offset="0.932" style="stop-color:#CF4B7D"/>
		<stop  offset="1" style="stop-color:#CF4B7D"/>
	</linearGradient>
	<polygon style="fill:url(#SVGID_00000132782834256358543220000004296966953173172912_);" points="145.6,69.4 139.3,69.4 
		139.3,59.4 137.5,59.4 137.5,71.1 145.6,71.1 	"/>
	
		<linearGradient id="SVGID_00000173153466566416376610000006171966071816316061_" gradientUnits="userSpaceOnUse" x1="154.3153" y1="65.2781" x2="162.9865" y2="65.2781">
		<stop  offset="0" style="stop-color:#F58156"/>
		<stop  offset="0.932" style="stop-color:#CF4B7D"/>
		<stop  offset="1" style="stop-color:#CF4B7D"/>
	</linearGradient>
	<polygon style="fill:url(#SVGID_00000173153466566416376610000006171966071816316061_);" points="163,69.4 156.1,69.4 156.1,66.1 
		162.2,66.1 162.2,64.4 156.1,64.4 156.1,61.1 162.9,61.1 162.9,59.4 154.3,59.4 154.3,71.1 163,71.1 	"/>
	
		<linearGradient id="SVGID_00000122689325942839751580000010651667165768537760_" gradientUnits="userSpaceOnUse" x1="84.6127" y1="20.1467" x2="99.2986" y2="20.1467">
		<stop  offset="0" style="stop-color:#F58156"/>
		<stop  offset="0.932" style="stop-color:#CF4B7D"/>
		<stop  offset="1" style="stop-color:#CF4B7D"/>
	</linearGradient>
	<polygon style="fill:url(#SVGID_00000122689325942839751580000010651667165768537760_);" points="99.3,25.5 91.6,6.6 84.6,6.6 
		95.7,33.7 	"/>
	
		<linearGradient id="SVGID_00000120538329034158037470000015168304379734235041_" gradientUnits="userSpaceOnUse" x1="97.3416" y1="19.9224" x2="114.667" y2="19.9224">
		<stop  offset="0" style="stop-color:#F58156"/>
		<stop  offset="0.932" style="stop-color:#CF4B7D"/>
		<stop  offset="1" style="stop-color:#CF4B7D"/>
	</linearGradient>
	<polygon style="fill:url(#SVGID_00000120538329034158037470000015168304379734235041_);" points="97.9,39.1 114.7,0.7 113.4,0.7 
		97.3,37.7 	"/>
	
		<linearGradient id="SVGID_00000098902226123632060670000006375024560316432546_" gradientUnits="userSpaceOnUse" x1="6.382979e-02" y1="85.9184" x2="199.2128" y2="85.9184">
		<stop  offset="0" style="stop-color:#F58156"/>
		<stop  offset="0.932" style="stop-color:#CF4B7D"/>
		<stop  offset="1" style="stop-color:#CF4B7D"/>
	</linearGradient>
	
		<rect x="0.1" y="85.8" style="fill:url(#SVGID_00000098902226123632060670000006375024560316432546_);" width="199.1" height="0.3"/>
</g>
</svg>
