<?xml version="1.0" encoding="utf-8"?>
<!-- Generator: Adobe Illustrator 26.0.1, SVG Export Plug-In . SVG Version: 6.00 Build 0)  -->
<!DOCTYPE svg PUBLIC "-//W3C//DTD SVG 1.1//EN" "http://www.w3.org/Graphics/SVG/1.1/DTD/svg11.dtd" [
	<!ENTITY ns_extend "http://ns.adobe.com/Extensibility/1.0/">
	<!ENTITY ns_ai "http://ns.adobe.com/AdobeIllustrator/10.0/">
	<!ENTITY ns_graphs "http://ns.adobe.com/Graphs/1.0/">
	<!ENTITY ns_vars "http://ns.adobe.com/Variables/1.0/">
	<!ENTITY ns_imrep "http://ns.adobe.com/ImageReplacement/1.0/">
	<!ENTITY ns_sfw "http://ns.adobe.com/SaveForWeb/1.0/">
	<!ENTITY ns_custom "http://ns.adobe.com/GenericCustomNamespace/1.0/">
	<!ENTITY ns_adobe_xpath "http://ns.adobe.com/XPath/1.0/">
]>
<svg version="1.1" id="Layer_1" xmlns:x="&ns_extend;" xmlns:i="&ns_ai;" xmlns:graph="&ns_graphs;"
	 xmlns="http://www.w3.org/2000/svg" xmlns:xlink="http://www.w3.org/1999/xlink" x="0px" y="0px" viewBox="0 0 307.7 70"
	 style="enable-background:new 0 0 307.7 70;" xml:space="preserve">
<style type="text/css">
	.st0{fill:#005E6C;}
</style>
<metadata>
	<sfw  xmlns="&ns_sfw;">
		<slices></slices>
		<sliceSourceBounds  bottomLeftOrigin="true" height="68.2" width="307.1" x="-44.3" y="0.8"></sliceSourceBounds>
	</sfw>
</metadata>
<g>
	<path class="st0" d="M61,66.1c1.2-0.4,1.9-1.3,1.9-2.6c0-1.8-1.3-2.9-3.4-2.9h-3h-0.1v0.1V69v0.1h0.1h0.6h0.1V69v-2.7h2.3
		c0.2,0,0.5,0,0.8-0.1l2,2.8l0,0h0H63h0.1L63,69L61,66.1z M62.1,67.8l-1.2-1.7c0.4-0.1,0.8-0.3,1.1-0.6c-0.3,0.3-0.7,0.4-1.1,0.6
		L62.1,67.8z M61.9,62.3c-0.1-0.1-0.2-0.2-0.3-0.4C61.8,62.1,61.9,62.2,61.9,62.3 M57.2,61.3h2.3c1.7,0,2.7,0.8,2.7,2.2
		c0,1.4-1,2.2-2.7,2.2h-2.3V61.3z M62.2,63.5L62.2,63.5c0-0.2,0-0.4,0-0.5C62.2,63.1,62.2,63.3,62.2,63.5 M62.5,64.9
		c0,0.1-0.1,0.2-0.1,0.2C62.4,65,62.5,64.9,62.5,64.9 M56.5,69L56.5,69h0.6H56.5z M62.3,69l-1-1.4L62.3,69H63H62.3z"/>
	<path class="st0" d="M69.8,60.6L69.8,60.6L69.8,60.6l-0.7,0h0l0,0L65.3,69l0,0.1h0.1H66h0l0,0l1-2.3h4.8l1.1,2.3l0,0h0h0.7h0.1
		l0-0.1L69.8,60.6z M67.4,66.1l2.1-4.6l2.1,4.6H67.4z M71.7,66.1l-2.2-4.8L71.7,66.1z M65.3,69L65.3,69H66H65.3z M73,69l-1.1-2.3
		L73,69h0.7H73z"/>
	<path class="st0" d="M79.2,64.5c-1.2-0.3-2.4-0.6-2.4-1.7c0-1,0.9-1.6,2.3-1.6c0.8,0,1.6,0.3,2.3,0.7l0.1,0l0-0.1l0.2-0.5l0,0l0,0
		c-0.7-0.5-1.6-0.8-2.6-0.8c-2.2,0-3,1.2-3,2.3c0,1.7,1.5,2,2.9,2.4c1.2,0.3,2.4,0.6,2.4,1.7c0,1-0.9,1.6-2.3,1.6
		c-1,0-2.1-0.4-2.7-1l-0.1-0.1l0,0.1l-0.3,0.5l0,0l0,0c0.6,0.7,1.8,1.2,3.1,1.2c2.3,0,3.1-1.2,3.1-2.3
		C82.1,65.2,80.6,64.9,79.2,64.5 M80.9,65.8C80.9,65.8,80.8,65.8,80.9,65.8C80.8,65.8,80.9,65.8,80.9,65.8 M80.7,65.7
		c0,0-0.1,0-0.1-0.1C80.7,65.7,80.7,65.7,80.7,65.7 M80.3,65.5c0,0-0.1,0-0.1,0C80.3,65.5,80.3,65.5,80.3,65.5 M80.1,65.4
		c-0.2-0.1-0.4-0.1-0.7-0.2C79.7,65.3,79.9,65.4,80.1,65.4 M79.3,65.2c-0.1,0-0.2-0.1-0.3-0.1C79.1,65.1,79.2,65.2,79.3,65.2
		 M78.9,64.5c-0.1,0-0.2-0.1-0.3-0.1C78.7,64.4,78.8,64.5,78.9,64.5 M78.4,64.4c-0.1,0-0.1,0-0.2-0.1C78.3,64.3,78.4,64.4,78.4,64.4
		 M78,64.2c-0.1,0-0.2-0.1-0.3-0.1C77.8,64.2,77.9,64.2,78,64.2 M77.6,64.1C77.6,64.1,77.6,64.1,77.6,64.1
		C77.6,64.1,77.6,64.1,77.6,64.1 M77.3,63.9c-0.1,0-0.1-0.1-0.2-0.2C77.2,63.8,77.3,63.9,77.3,63.9 M77,62.1c0-0.1,0.1-0.1,0.1-0.2
		C77.1,61.9,77,62,77,62.1 M77.2,61.7c0.4-0.4,1-0.6,1.9-0.6C78.2,61.1,77.6,61.4,77.2,61.7 M80,61.2c0.5,0.1,1,0.3,1.4,0.6
		C81,61.5,80.5,61.3,80,61.2 M81.5,61.6l0.1-0.3L81.5,61.6z M80.2,60.7c-0.3-0.1-0.7-0.1-1-0.1C79.5,60.6,79.8,60.6,80.2,60.7
		 M76.7,61.4c0.2-0.2,0.5-0.4,0.8-0.5C77.2,61,76.9,61.2,76.7,61.4 M76.2,62.8c0-0.5,0.2-1,0.5-1.4C76.4,61.8,76.2,62.3,76.2,62.8
		c0,1.4,1.1,1.9,2.3,2.2C77.3,64.7,76.2,64.2,76.2,62.8 M78.8,65.1c0,0-0.1,0-0.1,0C78.8,65.1,78.8,65.1,78.8,65.1 M80.9,65.9
		c0,0,0.1,0.1,0.1,0.1C81,65.9,81,65.9,80.9,65.9 M81.4,66.9c0-0.4-0.1-0.7-0.3-0.9C81.3,66.2,81.4,66.5,81.4,66.9
		c0,0.5-0.3,1-0.9,1.3C81.1,67.9,81.4,67.4,81.4,66.9 M79,69.1c-1.2,0-2.4-0.5-3-1.1C76.6,68.6,77.8,69.1,79,69.1
		c1,0,1.8-0.3,2.3-0.7C80.8,68.8,80,69.1,79,69.1"/>
	<path class="st0" d="M91.9,60.6L91.9,60.6L91.9,60.6l-0.1,3.8h-5.4v-3.8v-0.1h-0.1h-0.6h-0.1v0.1V69v0.1h0.1h0.6h0.1V69v-3.9h5.4
		V69v0.1h0.1h0.6h0.1V69v-8.3v-0.1h-0.1H91.9z M85.7,69v-8.3V69h0.6H85.7z M91.9,69L91.9,69h0.6H91.9z"/>
	<path class="st0" d="M97.1,60.6L97.1,60.6L97.1,60.6L97,69v0.1h0.1h0.6h0.1V69v-8.3v-0.1h-0.1H97.1z M97.1,69v-8.3V69h0.6H97.1z"/>
	<path class="st0" d="M105.6,60.6h-3.3h-0.1v0.1V69v0.1h0.1h3.3c2.6,0,4.5-1.7,4.5-4.2C110.1,62.3,108.2,60.6,105.6,60.6 M103,61.3
		h2.6c2.3,0,3.8,1.4,3.8,3.6c0,2.1-1.5,3.6-3.8,3.6H103V61.3z M108,61.9c0.2,0.2,0.4,0.3,0.6,0.5C108.4,62.3,108.2,62.1,108,61.9
		 M107.1,61.5c0.2,0.1,0.3,0.1,0.5,0.2C107.5,61.6,107.3,61.5,107.1,61.5 M102.9,68.4h2.6c0.6,0,1.1-0.1,1.6-0.3
		c0.4-0.2,0.8-0.4,1.1-0.6c-0.3,0.3-0.7,0.5-1.1,0.6c-0.5,0.2-1,0.3-1.6,0.3H102.9z M109,63.1c0,0,0,0.1,0.1,0.1
		C109.1,63.2,109,63.2,109,63.1 M108.4,61.5c0.1,0.1,0.2,0.1,0.2,0.2C108.5,61.6,108.4,61.5,108.4,61.5 M105.6,60.7
		c1,0,2,0.3,2.7,0.8C107.5,60.9,106.6,60.7,105.6,60.7 M105.6,69h-3.3H105.6c2.6,0,4.4-1.7,4.4-4.2c0-1.2-0.4-2.3-1.2-3
		c0.8,0.7,1.2,1.8,1.2,3C110,67.3,108.2,69,105.6,69"/>
	<path class="st0" d="M123.8,60.6L123.8,60.6L123.8,60.6l-3,4.9l-3-4.8l0,0h0h-0.7H117l0.1,0.1l3.4,5.5V69v0.1h0.1h0.6h0.1V69v-2.9
		l3.4-5.5l0.1-0.1h-0.1H123.8z M120.8,65.6L120.8,65.6l-1.9-3L120.8,65.6z M117.1,60.7l2.2,3.6L117.1,60.7z M121.1,69h-0.6H121.1z"
		/>
	<path class="st0" d="M130.3,60.6L130.3,60.6L130.3,60.6l-0.7,0h0l0,0l-3.8,8.3l0,0.1h0.1h0.7h0l0,0l1-2.3h4.8l1.1,2.3l0,0h0h0.7
		h0.1l0-0.1L130.3,60.6z M130.2,60.7l1.6,3.4L130.2,60.7z M127.8,66.1l2.1-4.6l2.1,4.6H127.8z M132.1,66.1l-2.2-4.8L132.1,66.1z
		 M126.4,69h-0.7l1.3-2.9l-1.3,2.9H126.4l1.1-2.3L126.4,69z M133.4,69l-0.8-1.7L133.4,69h0.7H133.4z"/>
	<path class="st0" d="M140.6,61.2c1,0,1.9,0.3,2.5,1l0,0l0,0l0.4-0.4l0,0l0,0c-0.7-0.8-1.8-1.2-3-1.2c-1.2,0-2.3,0.4-3.1,1.2
		c-0.8,0.8-1.3,1.9-1.3,3.1c0,1.2,0.4,2.3,1.3,3.1c0.8,0.8,1.9,1.2,3.1,1.2c1.2,0,2.3-0.4,3-1.2l0,0l0,0l-0.4-0.4l0,0l0,0
		c-0.7,0.7-1.5,1-2.5,1c-2.1,0-3.7-1.5-3.7-3.6C137,62.8,138.6,61.2,140.6,61.2 M137.7,61.6c0.2-0.2,0.4-0.3,0.6-0.4
		C138.1,61.3,137.9,61.5,137.7,61.6 M142.6,61.6c0.2,0.1,0.4,0.3,0.7,0.5C143,61.9,142.8,61.8,142.6,61.6 M143.5,61.9l0.1-0.1
		L143.5,61.9z M142.8,61.1c-0.1-0.1-0.2-0.1-0.4-0.2C142.6,61,142.7,61.1,142.8,61.1 M142.3,60.9c-0.2-0.1-0.4-0.1-0.6-0.2
		C141.9,60.7,142.1,60.8,142.3,60.9 M139.5,60.7c-0.1,0-0.2,0-0.2,0.1c-0.3,0.1-0.6,0.2-0.9,0.4c0.3-0.2,0.6-0.3,0.9-0.4
		C139.4,60.8,139.5,60.7,139.5,60.7 M140.2,60.6c-0.1,0-0.2,0-0.3,0C140,60.6,140.1,60.6,140.2,60.6 M142.1,68.8
		c-0.5,0.1-0.9,0.2-1.5,0.2c-2.5,0-4.3-1.8-4.3-4.2c0-1.2,0.5-2.3,1.2-3c-0.8,0.8-1.2,1.8-1.2,3c0,2.4,1.8,4.2,4.3,4.2
		C141.1,69.1,141.6,69,142.1,68.8c0.2-0.1,0.4-0.1,0.6-0.2C142.5,68.7,142.3,68.8,142.1,68.8 M142.8,68.5c0.1-0.1,0.2-0.1,0.3-0.2
		C143,68.4,142.9,68.4,142.8,68.5 M143.2,67.5L143.2,67.5c-0.7,0.7-1.6,1-2.6,1C141.6,68.5,142.5,68.2,143.2,67.5 M138,67.5
		c0,0-0.1-0.1-0.1-0.1C138,67.4,138,67.5,138,67.5 M137.5,62.7c-0.4,0.6-0.6,1.3-0.6,2.1c0,0.8,0.2,1.5,0.6,2.1
		c0.1,0.1,0.1,0.2,0.2,0.3c-0.1-0.1-0.2-0.2-0.2-0.3c-0.4-0.6-0.6-1.3-0.6-2.1C136.9,64,137.1,63.3,137.5,62.7
		c0.1-0.1,0.2-0.3,0.3-0.4c0,0,0.1-0.1,0.1-0.1c0,0-0.1,0.1-0.1,0.1C137.7,62.5,137.6,62.6,137.5,62.7"/>
	<path class="st0" d="M153.5,60.6L153.5,60.6L153.5,60.6l-0.1,3.8H148v-3.8v-0.1h-0.1h-0.6h-0.1v0.1V69v0.1h0.1h0.6h0.1V69v-3.9h5.4
		V69v0.1h0.1h0.6h0.1V69v-8.3v-0.1h-0.1H153.5z M147.3,69v-8.3V69h0.6H147.3z M153.5,69L153.5,69h0.6H153.5z"/>
	<path class="st0" d="M157.3,60.6L157.3,60.6L157.3,60.6l-0.1,0.6v0.1h0.1h2.9V69v0.1h0.1h0.6h0.1V69v-7.7h2.9h0.1v-0.1v-0.5v-0.1
		h-0.1H157.3z M157.3,61.2v-0.5V61.2z M160.3,69v-7.8V69h0.6H160.3z"/>
	<path class="st0" d="M169.3,64.5c-1.2-0.3-2.4-0.6-2.4-1.7c0-1,0.9-1.6,2.3-1.6c0.8,0,1.6,0.3,2.3,0.7l0.1,0l0-0.1l0.2-0.5l0,0l0,0
		c-0.7-0.5-1.6-0.8-2.6-0.8c-2.2,0-3,1.2-3,2.3c0,1.7,1.5,2,2.9,2.4c1.2,0.3,2.4,0.6,2.4,1.7c0,1-0.9,1.6-2.3,1.6
		c-1,0-2.1-0.4-2.7-1l-0.1-0.1l0,0.1l-0.3,0.5l0,0l0,0c0.6,0.7,1.8,1.2,3.1,1.2c2.3,0,3.1-1.2,3.1-2.3
		C172.1,65.2,170.7,64.9,169.3,64.5 M171.5,66.9c0,0.1,0,0.2,0,0.3C171.5,67.1,171.5,67,171.5,66.9 M169,64.5
		c-0.1,0-0.2-0.1-0.3-0.1C168.8,64.4,168.9,64.5,169,64.5 M168.9,65.1C168.9,65.1,168.9,65.1,168.9,65.1
		C168.9,65.1,168.9,65.1,168.9,65.1 M168.5,64.4c-0.1,0-0.1,0-0.2-0.1C168.4,64.3,168.5,64.4,168.5,64.4 M168.1,64.2
		c-0.1,0-0.2-0.1-0.3-0.1C167.9,64.2,168,64.2,168.1,64.2 M167.7,64.1C167.7,64.1,167.7,64.1,167.7,64.1
		C167.7,64.1,167.7,64.1,167.7,64.1 M167.4,63.9c-0.1,0-0.1-0.1-0.2-0.2C167.3,63.8,167.4,63.9,167.4,63.9 M167.5,61.6
		c0,0,0.1-0.1,0.1-0.1C167.6,61.5,167.6,61.5,167.5,61.6 M169.2,61.1L169.2,61.1c0.4,0,0.8,0.1,1.2,0.2
		C170,61.2,169.6,61.1,169.2,61.1 M170.7,61.4c0.3,0.1,0.6,0.3,0.8,0.4C171.2,61.7,171,61.5,170.7,61.4 M171.6,61.7l0.2-0.3
		c0,0-0.1-0.1-0.1-0.1c0,0,0.1,0,0.1,0.1L171.6,61.7z M169.2,60.6c-0.4,0-0.8,0-1.1,0.1C168.4,60.6,168.8,60.6,169.2,60.6
		 M167.7,60.8c-0.2,0.1-0.4,0.2-0.6,0.3C167.3,61,167.5,60.9,167.7,60.8 M166.8,61.4c-0.1,0.1-0.2,0.2-0.2,0.3
		C166.7,61.6,166.7,61.5,166.8,61.4 M168.3,64.9c-0.1,0-0.2-0.1-0.4-0.1c-0.2-0.1-0.3-0.1-0.4-0.2c-0.7-0.3-1.2-0.8-1.2-1.8
		c0-0.3,0-0.5,0.1-0.8c-0.1,0.2-0.1,0.5-0.1,0.8c0,1,0.5,1.5,1.2,1.8c0.1,0.1,0.3,0.1,0.4,0.2C168,64.8,168.1,64.9,168.3,64.9
		c0.1,0,0.2,0,0.2,0.1C168.4,64.9,168.3,64.9,168.3,64.9 M169.1,65.1c0.1,0,0.2,0,0.2,0.1C169.3,65.2,169.2,65.1,169.1,65.1
		 M169.7,65.3c0.1,0,0.2,0,0.2,0.1C169.9,65.3,169.8,65.3,169.7,65.3 M171.4,67.4c0,0.1-0.1,0.2-0.1,0.3
		C171.3,67.6,171.4,67.5,171.4,67.4 M171.1,67.9c-0.1,0.1-0.1,0.1-0.2,0.2c-0.1,0.1-0.2,0.1-0.3,0.2c0.1,0,0.2-0.1,0.3-0.2
		C171,68,171,67.9,171.1,67.9 M166.9,67.9c-0.1,0-0.1-0.1-0.2-0.1c-0.1,0-0.1-0.1-0.2-0.2c0.1,0.1,0.1,0.1,0.2,0.2
		C166.7,67.8,166.8,67.9,166.9,67.9 M167.2,68.1c0,0-0.1,0-0.1-0.1C167.1,68.1,167.2,68.1,167.2,68.1 M169.1,69.1
		c-1.2,0-2.4-0.5-3-1.1C166.6,68.6,167.8,69.1,169.1,69.1c1,0,1.8-0.3,2.3-0.7C170.9,68.8,170.1,69.1,169.1,69.1"/>
	<path class="st0" d="M185.6,67.4c0.3-0.5,0.5-1.1,0.7-1.9l0-0.1l-0.1,0l-0.5-0.2l-0.1,0l0,0.1c-0.1,0.6-0.3,1.1-0.5,1.6l-2.3-2.5
		c1.4-0.8,1.9-1.4,1.9-2.2c0-1-0.7-1.7-1.9-1.7c-1.2,0-2,0.7-2,1.8c0,0.7,0.3,1.2,1.1,2c-1.5,0.9-2.1,1.7-2.1,2.6
		c0,1.3,1.1,2.2,2.8,2.2c1.1,0,2.1-0.4,2.8-1.2l1.2,1.2l0,0.1l0-0.1l0.4-0.4l0,0l0,0L185.6,67.4z M185.2,67L185.2,67l-1.2-1.3
		L185.2,67z M185.6,65.8c-0.1,0.4-0.3,0.8-0.4,1.1C185.4,66.6,185.5,66.2,185.6,65.8 M183.9,61.5c0.1,0.1,0.1,0.2,0.1,0.3
		c0,0.1,0,0.2,0,0.4c0,0.2,0,0.3-0.1,0.5c-0.1,0.1-0.2,0.3-0.3,0.4c0.1-0.1,0.2-0.3,0.3-0.4c0.1-0.1,0.1-0.3,0.1-0.5
		c0-0.1,0-0.2,0-0.4C184,61.7,183.9,61.6,183.9,61.5c0,0-0.1-0.1-0.1-0.1C183.8,61.4,183.8,61.5,183.9,61.5 M182.4,64
		c-0.7-0.8-0.9-1.2-0.9-1.7c0-0.7,0.5-1.2,1.4-1.2c0.8,0,1.2,0.4,1.2,1.1C184,62.8,183.6,63.2,182.4,64 M182.3,61.1
		c0.1,0,0.3-0.1,0.5-0.1C182.6,61.1,182.4,61.1,182.3,61.1 M181.9,61.3c0.1,0,0.2-0.1,0.2-0.1C182.1,61.2,182,61.2,181.9,61.3
		c-0.4,0.2-0.6,0.6-0.6,1c0,0.5,0.2,0.9,1,1.8c-0.8-0.8-1-1.2-1-1.8C181.3,61.8,181.5,61.5,181.9,61.3 M181.9,64.3L181.9,64.3
		C181.8,64.4,181.8,64.4,181.9,64.3C181.8,64.4,181.8,64.4,181.9,64.3L181.9,64.3z M182.4,68.5c-1.3,0-2.1-0.6-2.1-1.6
		c0-0.7,0.3-1.2,1.8-2.1l2.6,2.7C184.2,68.1,183.4,68.5,182.4,68.5 M182.8,68.5c-0.1,0-0.2,0-0.4,0
		C182.6,68.6,182.7,68.5,182.8,68.5 M184.8,67.5l-2.6-2.8c-0.3,0.2-0.5,0.3-0.8,0.5c0.2-0.2,0.5-0.3,0.8-0.5L184.8,67.5
		c0,0-0.1,0.1-0.1,0.1C184.8,67.6,184.8,67.5,184.8,67.5 M183.2,64.1c-0.1,0.1-0.2,0.1-0.3,0.2C183,64.3,183.1,64.2,183.2,64.1
		c0.2-0.1,0.4-0.3,0.6-0.4C183.6,63.8,183.4,64,183.2,64.1 M183.9,63.6c0.1-0.1,0.2-0.2,0.3-0.3C184.1,63.4,184,63.5,183.9,63.6
		 M183.7,60.8c-0.3-0.1-0.6-0.2-0.9-0.2C183.1,60.6,183.4,60.7,183.7,60.8 M181.1,61.3c-0.2,0.3-0.3,0.6-0.3,1
		c0,0.3,0.1,0.6,0.2,0.9c-0.1-0.3-0.2-0.6-0.2-0.9C180.8,61.9,180.9,61.6,181.1,61.3 M180.3,68.3C180.3,68.3,180.3,68.3,180.3,68.3
		C180.3,68.3,180.3,68.3,180.3,68.3 M182.4,69.1c-0.7,0-1.4-0.2-1.8-0.5C181.1,68.9,181.7,69.1,182.4,69.1c1,0,1.9-0.3,2.5-0.9
		C184.3,68.7,183.4,69.1,182.4,69.1 M185.2,67.8L185.2,67.8l1.2,1.2L185.2,67.8z M186.4,69.1L186.4,69.1l0.4-0.4l-1.2-1.3
		c0.2-0.4,0.4-0.8,0.6-1.4c-0.1,0.5-0.3,1-0.6,1.4l1.2,1.3L186.4,69.1z"/>
	<path class="st0" d="M203.3,60.7L203.3,60.7L203.3,60.7l-0.6-0.1h0l0,0L199,67l-3.7-6.3l0,0h0h-0.5h-0.1v0.1V69v0.1h0.1h0.6h0.1V69
		v-6.9l3.4,5.8l0,0h0h0.3h0l0,0l3.4-5.8l0,6.9v0.1h0.1h0.6h0.1V69L203.3,60.7z M199,67.1l0.6-1.1L199,67.1z M194.7,69L194.7,69h0.6
		H194.7z M195.3,61.9L195.3,61.9l3.5,6L195.3,61.9z M199.1,67.9L199.1,67.9l3.5-6L199.1,67.9z M202.6,69L202.6,69h0.6H202.6z"/>
	<path class="st0" d="M210.9,60.6L210.9,60.6L210.9,60.6l-0.7,0h0l0,0l-3.8,8.3l0,0.1h0.1h0.7h0l0,0l1-2.3h4.8L214,69l0,0h0h0.7h0.1
		l0-0.1L210.9,60.6z M210.9,60.7l2.2,4.8L210.9,60.7z M208.5,66.1l2.1-4.6l2.1,4.6H208.5z M212.7,66.1l-2.2-4.8L212.7,66.1z
		 M207.1,69h-0.7H207.1l1.1-2.3L207.1,69z M214,69l-0.8-1.7L214,69h0.7H214z"/>
	<path class="st0" d="M222.4,66.1c1.2-0.4,1.9-1.3,1.9-2.6c0-1.8-1.3-2.9-3.4-2.9h-3h-0.1v0.1V69v0.1h0.1h0.6h0.1V69v-2.7h2.3
		c0.2,0,0.5,0,0.8-0.1l2,2.8l0,0h0h0.7h0.1l-0.1-0.1L222.4,66.1z M222.3,66.1l1.1,1.6L222.3,66.1c0.5-0.1,0.9-0.4,1.2-0.6
		C223.1,65.7,222.7,65.9,222.3,66.1 M221.5,65.7c0.2,0,0.4-0.1,0.6-0.1C221.9,65.6,221.7,65.7,221.5,65.7 M218.5,61.3h2.3
		c1.7,0,2.7,0.8,2.7,2.2c0,1.4-0.9,2.2-2.7,2.2h-2.3V61.3z M221.5,61.2c0.2,0,0.4,0.1,0.6,0.1C221.9,61.3,221.7,61.3,221.5,61.2
		 M218.5,61.2L218.5,61.2v4.5V61.2z M223.9,64.9c-0.1,0.2-0.2,0.3-0.3,0.4C223.7,65.2,223.8,65,223.9,64.9 M221.7,60.7
		c-0.1,0-0.3,0-0.4,0C221.4,60.7,221.5,60.7,221.7,60.7 M217.9,69L217.9,69h0.6v-2.7V69H217.9z M223.7,69l-2-2.8L223.7,69h0.7H223.7
		z"/>
	<path class="st0" d="M228.1,60.6L228.1,60.6L228.1,60.6l-0.1,8.4v0.1h0.1h0.6h0.1V69v-8.3v-0.1h-0.1H228.1z M228.1,69v-8.3V69h0.6
		H228.1z"/>
	<path class="st0" d="M239.5,60.6L239.5,60.6L239.5,60.6l-0.1,7.1l-5.6-7.1l0,0h0h-0.5h-0.1v0.1V69v0.1h0.1h0.6h0.1V69v-7.1l5.6,7.1
		l0,0h0h0.5h0.1V69v-8.3v-0.1h-0.1H239.5z M233.8,60.7l5.7,7.2L233.8,60.7z M233.3,69v-8.3V69h0.6H233.3z M240.1,69h-0.5l-5.7-7.2
		l5.7,7.2H240.1z"/>
	<path class="st0" d="M247.8,60.6L247.8,60.6L247.8,60.6l-0.7,0h0l0,0l-3.8,8.3l0,0.1h0.1h0.7h0l0,0l1-2.3h4.8l1.1,2.3l0,0h0h0.7
		h0.1l0-0.1L247.8,60.6z M247.7,60.7l1.1,2.4L247.7,60.7z M245.3,66.1l2.1-4.6l2.1,4.6H245.3z M247.4,61.3L247.4,61.3l1.1,2.4
		L247.4,61.3z M243.9,69h-0.7l3.8-8.3l-3.8,8.3H243.9l1.1-2.3L243.9,69z M250.9,69L250.9,69h0.7H250.9z"/>
	<path class="st0" d="M218,1.1l-1.6,3.3c-0.2,0.5-0.2,1,0,1.5l0,0l0.8,1.7l0,0l7.4,15.4h-13.1h-3.4H208c-0.3,0-0.6,0.2-0.7,0.5
		l-5,10.5c0,0,0,0,0,0l-0.2,0.5c1.1,0.1,2.1-0.4,2.5-1.4v0c0-0.1,0.1-0.2,0.1-0.3c0.7-2.2,2.7-7.6,3.2-8.9c0.1-0.2,0.3-0.3,0.5-0.3
		h16.6l4.4,9c0.6,1.2,1.8,1.9,3.1,1.9h1.7L218,1.1z"/>
	<path class="st0" d="M305.3,33.2c-2.3,0.3-6.6,0.8-8.5,0.8h-10.9v-9.5c0-0.5,0.4-0.9,0.9-0.9H305v-0.6h-19.2V2h9.8
		c1.9,0,6.1,0.5,8.5,0.8c1,0,1.9-0.4,2.2-1.4h-24.1v33.1h25.2C307.2,33.5,306.3,33.2,305.3,33.2"/>
	<path class="st0" d="M5.1,8.2c0-3.7,2.7-6.6,10.2-6.6c3.7,0,7.3,1.5,9.9,3.2c0.4,0.3,0.9,0.4,1.4,0.4c1,0,1.9-0.6,2.3-1.6
		c0,0-7.4-2.6-13.7-2.6C5.9,1,1.6,4.7,1.6,9.5c0,9.3,24.5,8.3,24.5,17.3c0,4.8-4.1,7.5-11.6,7.5c-3.5,0-7.2-1.5-9.8-3.2
		c-0.5-0.3-1-0.5-1.5-0.5c-1.1,0-2.2,0.7-2.7,1.7c0,0,7.8,2.5,14,2.5c8.4,0,15.3-3.4,15.3-10.2C29.8,14.9,5.1,15.9,5.1,8.2"/>
	<path class="st0" d="M64.5,33.2c-2.3,0.3-6.6,0.8-8.5,0.8H45v-9.5c0-0.5,0.4-0.9,0.9-0.9h18.3v-0.6H45V2h9.8c1.9,0,6.1,0.5,8.5,0.8
		c1,0,1.9-0.4,2.2-1.4H41.5v33.1h25.2C66.3,33.5,65.5,33.2,64.5,33.2"/>
	<path class="st0" d="M123.2,8.2c0-3.7,2.7-6.6,10.2-6.6c3.7,0,7.3,1.5,9.9,3.2c0.4,0.3,0.9,0.4,1.4,0.4c1,0,1.9-0.6,2.3-1.6
		c0,0-7.4-2.6-13.7-2.6c-9.4,0-13.8,3.7-13.8,8.4c0,9.3,24.5,8.3,24.5,17.3c0,4.8-4.1,7.5-11.6,7.5c-3.5,0-7.2-1.5-9.8-3.2
		c-0.5-0.3-1-0.5-1.5-0.5c-1.1,0-2.2,0.7-2.7,1.7c0,0,7.8,2.5,14,2.5c8.4,0,15.3-3.4,15.3-10.2C147.9,14.9,123.2,15.9,123.2,8.2"/>
	<path class="st0" d="M192.7,26.1c-1,1.4-5.2,6.6-13.6,6.6c-9.5,0-16-7.1-16-16.1c0-9,7.5-15,15.1-15c3.5,0,5.8,1.2,7.8,2.7
		c0.4,0.4,1,0.5,1.5,0.5c0.9,0,1.8-0.5,2.2-1.5c0,0-6.6-2.3-11.5-2.3c-10.4,0-18.9,7.6-18.9,16.9c0,9.3,6.7,16.9,18.4,16.9
		c11.8,0,15.7-8.9,15.7-8.9c-0.1,0-0.2-0.1-0.3-0.1C193,25.9,192.9,26,192.7,26.1"/>
	<path class="st0" d="M259.8,1.4h-15v33.2h3.5V24.5c0-0.5,0.4-0.9,0.9-0.9h10.6c6.7,0,11.8-2.2,11.1-12.9
		C270.5,5.6,266.4,1.4,259.8,1.4 M258.6,23.1h-10.3V2h10.3c6.4,0,8.5,3.9,8.7,8.7C267.7,18.6,265,23.1,258.6,23.1"/>
	<path class="st0" d="M106.8,34.6h1.7L92.4,1.1l-1.6,3.3c-0.2,0.5-0.2,1,0,1.5l0,0l0.8,1.7l0,0l7.4,15.4H86h-3.4h-0.2
		c-0.3,0-0.6,0.2-0.7,0.5l-5,10.5c0,0,0,0,0,0l-0.2,0.5c1.1,0.1,2.1-0.4,2.5-1.4v0c0-0.1,0.1-0.2,0.1-0.3c0.7-2.2,2.7-7.6,3.2-8.9
		c0.1-0.2,0.3-0.3,0.5-0.3h16.6l4.4,9C104.3,33.8,105.5,34.6,106.8,34.6"/>
</g>
</svg>
