<?xml version="1.0" encoding="utf-8"?>
<!-- Generator: Adobe Illustrator 16.0.0, SVG Export Plug-In . SVG Version: 6.00 Build 0)  -->
<!DOCTYPE svg PUBLIC "-//W3C//DTD SVG 1.1//EN" "http://www.w3.org/Graphics/SVG/1.1/DTD/svg11.dtd">
<svg version="1.1" id="Layer_1" xmlns="http://www.w3.org/2000/svg" xmlns:xlink="http://www.w3.org/1999/xlink" x="0px" y="0px"
	 width="200px" height="70px" viewBox="0 0 200 70" enable-background="new 0 0 200 70" xml:space="preserve">
<rect x="-860" y="-147" fill="none" width="1920" height="1080"/>
<g>
	<path fill="#CCC0A0" d="M52.195,42.064c-0.554,1.666-1.455,3.133-2.676,4.359c-2.116,2.127-4.986,3.301-8.08,3.301
		c-3.371,0-6.72-1.426-9.191-3.908c-4.929-4.957-5.2-12.745-0.604-17.364c2.116-2.128,4.986-3.3,8.08-3.3
		c3.371,0,6.72,1.424,9.191,3.908c1.12,1.126,2.023,2.423,2.685,3.854l0.025,0.054l1.113-0.443l-0.024-0.059
		c-0.659-1.628-1.625-3.087-2.87-4.339c-2.474-2.487-5.763-3.857-9.263-3.857c-3.499,0-6.788,1.37-9.262,3.857
		c-5.107,5.135-5.107,13.489,0,18.624c2.474,2.486,5.764,3.857,9.262,3.857c3.5,0,6.789-1.371,9.263-3.857
		c1.279-1.287,2.262-2.793,2.922-4.479l0.024-0.061l-0.575-0.207L52.195,42.064z"/>
	<path fill="#CCC0A0" d="M96.605,25.268c0,0.126,0.002,12.6,0.013,18.074c0.004,1.891-0.668,3.51-2,4.813
		c-1.31,1.283-2.827,1.75-4.51,1.383c-1.732-0.377-3.04-1.473-3.887-3.258c-0.535-1.127-0.602-2.303-0.597-3.305
		c0.029-5.455,0.06-17.622,0.061-17.744v-0.064l-1.317,0.003l0,0.063c0,0.141,0.069,14.076,0.144,18.242
		c0.035,1.938,0.803,3.652,2.286,5.102c1.147,1.121,2.563,1.691,3.99,1.691c1.142,0,2.292-0.365,3.316-1.107
		c1.943-1.406,2.94-3.428,2.962-6.006c0.046-5.453,0.047-17.763,0.047-17.887v-0.064h-0.508V25.268z"/>
	<path fill="#CCC0A0" d="M77.52,46.424c-2.117,2.127-4.986,3.301-8.081,3.301c-3.371,0-6.72-1.426-9.19-3.908
		c-4.929-4.957-5.2-12.745-0.605-17.364c2.117-2.128,4.986-3.3,8.081-3.3c3.371,0,6.72,1.424,9.19,3.908
		C81.843,34.015,82.114,41.805,77.52,46.424 M68.582,24.27c-3.499,0-6.789,1.37-9.262,3.857c-5.107,5.134-5.107,13.488,0,18.623
		c2.474,2.486,5.763,3.857,9.262,3.857s6.788-1.371,9.262-3.857c5.107-5.135,5.107-13.489,0-18.623
		C75.37,25.639,72.081,24.27,68.582,24.27"/>
	<path fill="#CCC0A0" d="M172.512,25.553v-0.387l-0.055-0.008l-0.024-0.001c-3.503,0.004-10.509,0.004-10.509,0.004h-0.063
		l0.004,25.099l10.647,0.008v-0.375l-9.335-0.004c0.001-0.908,0.012-11.119,0.019-12.008l5.37,0.002v-0.348l-5.39-0.002
		l0.011-11.997L172.512,25.553z"/>
	<path fill="#CCC0A0" d="M101.434,25.548h0.063c0.059,0,5.453,0.002,6.095,0.003c0.01,1.4,0.028,24.368,0.028,24.606v0.064h1.307
		l0.014-24.674h6.191v-0.369h-13.697V25.548z"/>
	<path fill="#CCC0A0" d="M131.678,25.268c0,0.126,0.002,12.6,0.013,18.074c0.005,1.891-0.668,3.51-1.999,4.813
		c-1.311,1.283-2.828,1.75-4.51,1.383c-1.732-0.377-3.04-1.473-3.888-3.258c-0.535-1.127-0.602-2.303-0.597-3.305
		c0.029-5.455,0.061-17.622,0.062-17.744v-0.064l-1.317,0.003v0.063c0.001,0.141,0.069,14.076,0.144,18.242
		c0.035,1.938,0.804,3.652,2.286,5.102c1.146,1.121,2.563,1.691,3.989,1.691c1.143,0,2.292-0.365,3.316-1.107
		c1.943-1.406,2.94-3.428,2.962-6.006c0.047-5.453,0.048-17.763,0.048-17.887v-0.064h-0.509V25.268z"/>
	<path fill="#CCC0A0" d="M139.136,39.068l-0.021-13.517c0.546-0.003,4.435-0.024,5.765,0.003l0.195,0.004
		c1.097,0.022,2.23,0.045,3.324,0.202c2.124,0.304,3.844,1.468,4.973,3.367c1.92,3.226,1.839,6.531-0.234,9.558
		c-1.641,2.398-4.084,3.635-7.063,3.559c-0.642-0.016-1.778-0.197-2.245-0.5C141.519,40.248,139.434,39.215,139.136,39.068
		 M159.828,50.104c-1.522,0.492-3.166,0.381-4.884-0.334c-1.587-0.66-2.978-1.678-4.242-2.678c-1.088-0.861-2.831-2.223-4.232-3.316
		c-0.737-0.576-1.404-1.096-1.76-1.375c0.034,0.012,0.061,0.018,0.069,0.021c1.152,0.26,2.331,0.299,3.508,0.109
		c4.854-0.779,8.212-5.057,7.646-9.74c-0.317-2.623-1.566-4.724-3.712-6.246c-1.32-0.937-2.875-1.392-4.747-1.388
		c-3.197,0.005-9.59,0.007-9.59,0.007h-0.064v24.99l0.001,0.063h1.295l0.001-10.166c0.574,0.338,3.663,2.191,7.218,5.137
		c1.999,1.658,4.359,3.533,7.072,4.809c1.374,0.645,2.648,0.963,3.881,0.963c0.16,0,0.319-0.006,0.479-0.018
		c0.797-0.053,1.541-0.248,2.209-0.582l0.065-0.031l-0.041-0.061C159.882,50.094,159.877,50.086,159.828,50.104"/>
	<path fill="#CCC0A0" d="M90.027,9.473h-1.368c-0.027-1.127-0.672-2.028-1.463-2.028c-0.811,0-1.466,0.942-1.466,2.103v3.39
		c0,1.163,0.655,2.104,1.466,2.104c0.796,0,1.447-0.916,1.464-2.057h1.362l0,0.224c0,1.76-1.264,3.188-2.826,3.188
		s-2.828-1.427-2.828-3.188v-3.93c0-1.761,1.266-3.188,2.828-3.188s2.826,1.427,2.826,3.188L90.027,9.473z M115.131,6.441
		l-0.004,9.809h-1.509V6.441H115.131z M115.131,4.24l-0.004,1.574h-1.509V4.24H115.131z M112.734,4.24l-0.003,12.011h-1.478V4.24
		H112.734z M96.496,6.353h1.594l1.447,6.297l1.387-6.297h1.6l-2.398,9.927h-1.236L96.496,6.353z M94.988,9.018
		c-0.565,0.399-2.251,1.404-2.991,1.883c-0.738,0.481-1.627,1.283-1.627,2.905c0,1.455,1.198,2.633,2.675,2.633
		c0.749,0,1.454-0.257,1.94-0.743v0.584l1.461-0.059V9.31c0-1.745-1.229-3.161-2.745-3.161c-1.515,0-2.743,1.417-2.743,3.161v0.848
		h1.434l-0.001-0.92l0.005-0.104c0-0.873,0.583-1.58,1.302-1.58c0.682,0,1.243,0.637,1.296,1.449L94.988,9.018z M95,10.434
		l-0.002,3.201c0,0.873-0.692,1.581-1.545,1.581c-0.854,0-1.546-0.708-1.546-1.581c0-0.956,0.8-1.568,1.479-2.078
		C94.063,11.047,95,10.434,95,10.434 M110.429,4.24l-0.005,12.011h-1.508V4.24H110.429z M106.534,9.025
		c-0.566,0.399-2.254,1.403-2.992,1.884c-0.738,0.48-1.629,1.282-1.629,2.904c0,1.456,1.198,2.633,2.676,2.633
		c0.747,0,1.453-0.257,1.938-0.742v0.583l1.464-0.059V9.317c0-1.745-1.229-3.161-2.743-3.161c-1.517,0-2.745,1.416-2.745,3.161
		v0.849h1.433V9.247l0.004-0.104c0-0.875,0.583-1.581,1.302-1.581c0.684,0,1.242,0.638,1.299,1.449L106.534,9.025z M106.544,10.443
		l-0.001,3.199c0,0.873-0.691,1.581-1.547,1.581c-0.854,0-1.544-0.708-1.544-1.581c0-0.956,0.8-1.567,1.478-2.077
		C105.607,11.055,106.544,10.443,106.544,10.443"/>
	<rect x="119.403" y="16.097" fill="#CCC0A0" width="42.118" height="0.11"/>
	<rect x="38.477" y="16.097" fill="#CCC0A0" width="42.119" height="0.11"/>
	<polygon fill="#CCC0A0" points="66.935,64.969 66.935,65.188 64.248,65.188 64.248,62.078 64.479,62.078 64.479,64.969 	"/>
	<path fill="#CCC0A0" d="M71.698,62.078v1.643c0,0.893-0.551,1.559-1.594,1.559c-1.049,0-1.599-0.666-1.599-1.559v-1.643h0.23v1.629
		c0,0.826,0.502,1.354,1.368,1.354c0.861,0,1.363-0.527,1.363-1.354v-1.629H71.698z"/>
	<polygon fill="#CCC0A0" points="75.341,63.623 76.838,65.188 76.531,65.188 75.186,63.787 73.84,65.188 73.542,65.188 
		75.035,63.627 73.547,62.078 73.854,62.078 75.194,63.467 76.531,62.078 76.833,62.078 	"/>
	<path fill="#CCC0A0" d="M81.871,62.078v1.643c0,0.893-0.551,1.559-1.594,1.559c-1.048,0-1.599-0.666-1.599-1.559v-1.643h0.231
		v1.629c0,0.826,0.501,1.354,1.368,1.354c0.861,0,1.363-0.527,1.363-1.354v-1.629H81.871z"/>
	<path fill="#CCC0A0" d="M86.185,63.725c0.573,0,0.933-0.254,0.933-0.719c0-0.463-0.36-0.715-0.933-0.715H84.39v1.434H86.185z
		 M87.148,65.188l-1.088-1.25h-1.665v1.25h-0.236v-3.109h2.038c0.693,0,1.155,0.346,1.155,0.928c0,0.545-0.399,0.885-1.008,0.928
		l1.106,1.254H87.148z"/>
	<polygon fill="#CCC0A0" points="89.228,62.078 90.653,63.871 92.074,62.078 92.354,62.078 90.765,64.084 90.765,65.188 
		90.534,65.188 90.534,64.084 88.943,62.078 	"/>
	<path fill="#CCC0A0" d="M93.981,65.061c0,0.24-0.098,0.494-0.262,0.699l-0.088-0.063c0.142-0.201,0.191-0.342,0.204-0.488
		c-0.009,0.008-0.035,0.012-0.058,0.012c-0.097,0-0.173-0.074-0.173-0.178c0-0.102,0.076-0.178,0.186-0.178
		C93.902,64.865,93.981,64.945,93.981,65.061"/>
	<path fill="#CCC0A0" d="M101.949,62.078v1.643c0,0.893-0.551,1.559-1.594,1.559c-1.049,0-1.599-0.666-1.599-1.559v-1.643h0.23
		v1.629c0,0.826,0.502,1.354,1.368,1.354c0.861,0,1.363-0.527,1.363-1.354v-1.629H101.949z"/>
	<polygon fill="#CCC0A0" points="107.445,62.078 107.445,65.188 107.241,65.188 104.465,62.371 104.465,65.188 104.238,65.188 
		104.238,62.078 104.496,62.078 107.219,64.844 107.219,62.078 	"/>
	<polygon fill="#CCC0A0" points="112.616,62.287 111.097,62.287 111.097,65.188 110.866,65.188 110.866,62.287 109.351,62.287 
		109.351,62.078 112.616,62.078 	"/>
	<path fill="#CCC0A0" d="M116.393,64.055l-0.986-1.764l-0.981,1.764H116.393z M116.508,64.266h-2.198l-0.511,0.922h-0.258
		l1.741-3.109h0.258l1.74,3.109h-0.257L116.508,64.266z"/>
	<polygon fill="#CCC0A0" points="123.002,62.078 123.002,65.188 122.771,65.188 122.771,62.406 121.097,64.422 121.079,64.422 
		119.399,62.406 119.399,65.188 119.174,65.188 119.174,62.078 119.427,62.078 121.093,64.084 122.758,62.078 	"/>
	<polygon fill="#CCC0A0" points="128.279,64.969 128.279,65.188 125.352,65.188 125.352,62.078 128.234,62.078 128.234,62.291 
		125.583,62.291 125.583,63.494 127.856,63.494 127.856,63.713 125.583,63.713 125.583,64.969 	"/>
	<path fill="#CCC0A0" d="M133.41,63.633c0-0.871-0.681-1.342-1.622-1.342h-1.203v2.678h1.203
		C132.729,64.969,133.41,64.502,133.41,63.633 M133.646,63.633c0,0.949-0.721,1.555-1.844,1.555h-1.448v-3.109h1.448
		C132.925,62.078,133.646,62.682,133.646,63.633"/>
	<path fill="#CCC0A0" d="M135.378,65.043c0-0.102,0.075-0.178,0.187-0.178s0.188,0.076,0.188,0.178c0,0.104-0.076,0.178-0.188,0.178
		S135.378,65.146,135.378,65.043"/>
</g>
</svg>
