<?xml version="1.0" encoding="utf-8"?>
<!-- Generator: Adobe Illustrator 16.0.0, SVG Export Plug-In . SVG Version: 6.00 Build 0)  -->
<!DOCTYPE svg PUBLIC "-//W3C//DTD SVG 1.1//EN" "http://www.w3.org/Graphics/SVG/1.1/DTD/svg11.dtd">
<svg version="1.1" id="Layer_1" xmlns="http://www.w3.org/2000/svg" xmlns:xlink="http://www.w3.org/1999/xlink" x="0px" y="0px"
	 width="200px" height="70px" viewBox="0 0 200 70" enable-background="new 0 0 200 70" xml:space="preserve">
<text transform="matrix(1 0 0 1 27.0488 56.3027)"><tspan x="0" y="0" fill="#040303" font-family="'AvenirNext-Regular'" font-size="20.0527" letter-spacing="1">HARBOUR</tspan><tspan x="93.004" y="0" fill="#040303" font-family="'AvenirNext-Regular'" font-size="20.0527" letter-spacing="1"> </tspan><tspan x="98.438" y="0" fill="#040303" font-family="'AvenirNext-Regular'" font-size="20.0527" letter-spacing="1">G</tspan><tspan x="112.595" y="0" fill="#040303" font-family="'AvenirNext-Regular'" font-size="20.0527">A</tspan><tspan x="124.867" y="0" fill="#040303" font-family="'AvenirNext-Regular'" font-size="20.0527" letter-spacing="1">T</tspan><tspan x="136.036" y="0" fill="#040303" font-family="'AvenirNext-Regular'" font-size="20.0527">E</tspan></text>
<g>
	<path fill="#040607" d="M7.25,13.106h6.162c1.908,0,3.546,0.176,4.917,0.534c1.372,0.355,2.51,0.922,3.423,1.701
		c1.048,0.891,1.837,1.908,2.366,3.071c0.524,1.164,0.792,2.423,0.792,3.797c0,1.305-0.235,2.53-0.711,3.674
		c-0.476,1.147-1.167,2.146-2.075,3.004c-0.913,0.856-2.033,1.527-3.371,2.022c-1.335,0.488-2.864,0.734-4.585,0.734H7.25V13.106z
		 M10.365,30.289h3.299c1.046,0,2.03-0.173,2.955-0.517c0.924-0.348,1.725-0.858,2.412-1.54c0.69-0.676,1.229-1.514,1.625-2.517
		c0.393-0.995,0.592-2.147,0.592-3.45c0-1.139-0.185-2.184-0.558-3.135c-0.372-0.958-0.896-1.775-1.563-2.464
		c-0.67-0.685-1.469-1.223-2.397-1.611c-0.928-0.386-1.939-0.579-3.043-0.579h-3.322V30.289z"/>
	<path fill="#040607" d="M28.552,13.106h3.115v12.036c0,0.786,0.136,1.53,0.405,2.227c0.272,0.698,0.661,1.308,1.166,1.828
		c0.505,0.525,1.113,0.941,1.825,1.241c0.708,0.3,1.501,0.449,2.381,0.449c0.884,0,1.684-0.148,2.396-0.449
		c0.706-0.3,1.311-0.715,1.809-1.241c0.496-0.52,0.875-1.13,1.145-1.828c0.263-0.697,0.397-1.44,0.397-2.227V13.106h1.372v12.036
		c0,0.945-0.154,1.84-0.46,2.677c-0.307,0.838-0.788,1.579-1.446,2.208c-0.654,0.635-1.494,1.134-2.519,1.508
		c-1.025,0.367-2.259,0.549-3.69,0.549c-1.282,0-2.414-0.182-3.398-0.549c-0.983-0.374-1.81-0.873-2.477-1.51
		c-0.66-0.638-1.167-1.385-1.506-2.237c-0.344-0.852-0.516-1.755-0.516-2.716V13.106z"/>
	<path fill="#040607" d="M49.004,13.106h7.469c0.984,0,1.889,0.11,2.717,0.333c0.822,0.223,1.53,0.533,2.12,0.933
		c0.591,0.399,1.048,0.879,1.378,1.435c0.33,0.559,0.492,1.178,0.492,1.852c0,0.505-0.053,0.96-0.158,1.354
		c-0.108,0.4-0.29,0.775-0.546,1.114c-0.259,0.344-0.604,0.665-1.04,0.97c-0.435,0.308-0.982,0.618-1.637,0.928v0.051
		c0.655,0.111,1.254,0.288,1.792,0.537c0.538,0.252,0.997,0.577,1.371,0.967c0.375,0.391,0.669,0.841,0.868,1.351
		c0.206,0.51,0.31,1.074,0.31,1.699c0,0.7-0.15,1.357-0.46,1.968c-0.303,0.613-0.739,1.145-1.303,1.598
		c-0.563,0.451-1.248,0.805-2.045,1.064c-0.798,0.257-1.688,0.382-2.672,0.382h-8.655V13.106z M52.122,21.457h3.966
		c0.62,0,1.172-0.097,1.662-0.267c0.489-0.181,0.902-0.429,1.235-0.748c0.329-0.312,0.583-0.681,0.753-1.109
		C59.913,18.911,60,18.445,60,17.937c0-0.539-0.104-1.032-0.305-1.477c-0.206-0.441-0.525-0.823-0.961-1.137
		c-0.432-0.315-0.983-0.561-1.648-0.726c-0.664-0.167-1.462-0.252-2.392-0.252h-2.571V21.457z M52.122,30.289h3.366
		c0.906,0,1.692-0.088,2.354-0.26c0.665-0.176,1.219-0.412,1.651-0.723c0.438-0.31,0.759-0.686,0.965-1.125
		c0.206-0.441,0.314-0.922,0.314-1.445c0-0.585-0.094-1.13-0.28-1.641c-0.187-0.503-0.492-0.938-0.919-1.31
		c-0.426-0.365-0.979-0.656-1.661-0.865c-0.685-0.219-1.524-0.324-2.517-0.324h-3.272V30.289z"/>
	<path fill="#040607" d="M75.777,12.683l8.731,18.964h-3.164l-2.838-6.187h-7.944l-2.927,6.187h-1.559l8.932-18.964H75.777z
		 M71.107,24.263h6.829l-3.37-7.336L71.107,24.263z"/>
	<rect x="87.14" y="13.106" fill="#040607" width="3.113" height="18.539"/>
	<path fill="#040607" d="M105.744,22.438c0,1.305,0.198,2.473,0.587,3.499c0.39,1.033,0.928,1.901,1.609,2.615
		c0.686,0.717,1.494,1.263,2.429,1.639c0.938,0.377,1.952,0.566,3.044,0.566c0.645,0,1.271-0.129,1.875-0.381
		c0.603-0.252,1.165-0.583,1.682-0.986c0.521-0.4,0.984-0.856,1.396-1.372c0.404-0.507,0.743-1.022,1.009-1.548l1.306,0.837
		c-0.382,0.621-0.835,1.223-1.352,1.804c-0.519,0.575-1.121,1.08-1.8,1.517c-0.688,0.444-1.46,0.795-2.319,1.059
		c-0.863,0.269-1.824,0.399-2.888,0.399c-1.022,0-1.983-0.115-2.891-0.352c-0.903-0.234-1.736-0.562-2.495-0.986
		c-0.761-0.417-1.436-0.929-2.037-1.523c-0.596-0.595-1.102-1.247-1.515-1.966c-0.413-0.71-0.729-1.477-0.952-2.293
		c-0.225-0.813-0.333-1.658-0.333-2.527c0-0.866,0.112-1.713,0.34-2.538c0.227-0.817,0.55-1.59,0.972-2.319
		c0.42-0.721,0.937-1.38,1.552-1.987c0.611-0.605,1.302-1.121,2.066-1.551c0.77-0.427,1.611-0.764,2.523-1.001
		c0.916-0.245,1.89-0.36,2.928-0.36c0.984,0,1.895,0.13,2.726,0.397c0.826,0.271,1.587,0.62,2.272,1.056
		c0.686,0.441,1.299,0.953,1.831,1.524c0.527,0.578,0.989,1.175,1.371,1.802l-1.345,0.899c-0.783-1.497-1.651-2.596-2.609-3.3
		c-0.961-0.7-2.06-1.049-3.304-1.049c-1.068,0-2.072,0.196-3.005,0.583c-0.932,0.395-1.745,0.954-2.435,1.679
		c-0.692,0.729-1.238,1.612-1.638,2.651C105.946,19.965,105.744,21.132,105.744,22.438"/>
	<path fill="#040607" d="M124.539,13.106h6.414c1.117,0,2.095,0.125,2.937,0.36c0.84,0.24,1.534,0.578,2.095,1.006
		c0.557,0.429,0.976,0.938,1.264,1.527c0.286,0.595,0.425,1.235,0.425,1.936c0,0.581-0.108,1.117-0.323,1.619
		c-0.22,0.503-0.527,0.951-0.928,1.356c-0.396,0.408-0.877,0.759-1.436,1.054c-0.558,0.298-1.176,0.527-1.851,0.687l6.748,8.996
		h-3.606l-6.44-8.717h-2.183v8.717h-3.115V13.106z M127.654,21.999h1.791c0.703,0,1.352-0.098,1.941-0.279
		c0.589-0.187,1.103-0.454,1.536-0.793c0.435-0.343,0.771-0.757,1.016-1.246c0.246-0.487,0.369-1.031,0.369-1.634
		c0-0.553-0.099-1.061-0.293-1.526c-0.195-0.466-0.466-0.863-0.813-1.199c-0.346-0.332-0.757-0.59-1.235-0.774
		c-0.483-0.187-1.003-0.286-1.572-0.286h-2.74V21.999z"/>
	<polygon fill="#040607" points="155.681,13.106 155.681,14.305 145.915,14.305 145.915,20.933 152.449,20.933 152.449,22.127 
		145.915,22.127 145.915,30.45 155.681,30.45 155.681,31.647 142.798,31.647 142.798,13.106 	"/>
	<polygon fill="#040607" points="172.142,13.106 172.142,14.305 162.376,14.305 162.376,20.933 168.908,20.933 168.908,22.127 
		162.376,22.127 162.376,30.45 172.142,30.45 172.142,31.647 159.262,31.647 159.262,13.106 	"/>
	<polygon fill="#040607" points="175.368,13.106 178.487,13.106 178.487,21.318 188.222,13.106 190.262,13.106 180.997,20.902 
		192.75,31.647 188.787,31.647 178.487,22.24 178.487,31.647 175.368,31.647 	"/>
</g>
</svg>
