<?xml version="1.0" encoding="utf-8"?>
<!-- Generator: Adobe Illustrator 16.0.0, SVG Export Plug-In . SVG Version: 6.00 Build 0)  -->
<!DOCTYPE svg PUBLIC "-//W3C//DTD SVG 1.1//EN" "http://www.w3.org/Graphics/SVG/1.1/DTD/svg11.dtd">
<svg version="1.1" id="Layer_1" xmlns="http://www.w3.org/2000/svg" xmlns:xlink="http://www.w3.org/1999/xlink" x="0px" y="0px"
	 width="200px" height="70px" viewBox="0 0 200 70" enable-background="new 0 0 200 70" xml:space="preserve">
<rect x="-74.335" y="-113.293" fill="none" width="345.835" height="302.605"/>
<g>
	<path fill="#010203" d="M117.639,39.578h0.213V38.95h0.252l0.381,0.628h0.249l-0.412-0.639c0.214-0.026,0.375-0.142,0.375-0.396
		c0-0.287-0.168-0.407-0.512-0.407h-0.546V39.578z M117.852,38.314h0.307c0.15,0,0.313,0.037,0.313,0.216
		c0,0.222-0.169,0.235-0.353,0.235h-0.267V38.314z M79.875,25.718c0,3.048,0.801,6.475,2.24,9.289
		c2.596-2.424,9.418-10.14,10.199-11.04c1.19-1.365,1.704-0.496,2.341-1.256C95,22.289,95.2,22.129,95.35,22.043
		c0.246-0.145,0.527-0.492,0.664-0.595c0.139-0.107,0.455-0.526,0.699-0.737c0.248-0.208,0.735-0.527,1.224-0.947
		c0.49-0.417,1.325-1.399,2.233-1.399c1.081,0,1.535,0.734,1.627,0.824c0.082,0.085,0.746,0.673,0.854,0.785
		c0.118,0.131,0.834,0.7,1.219,0.7c0.383,0,0.667,0.421,0.872,0.629c0.456,0.418,2.351,2.409,2.969,2.836
		c0.282,0.191,0.541,0.154,0.75,0.316c0.211,0.155,0.315,0.26,0.437,0.295c0.12,0.036,0.524-0.069,0.996,0.523
		c0.22,0.15,0.278,0.175,0.278,0.175s0.64,0.584,0.869,0.997c0.206,0.359,5.002,6.735,6.718,9.018c1.59-2.893,2.5-6.216,2.5-9.752
		c0-11.179-9.046-20.24-20.198-20.24C88.91,5.476,79.872,14.541,79.875,25.718 M95.306,14.569c-0.33,0.748-0.57,1.281-0.875,1.982
		c-0.026,0.07-0.052,0.187,0.017,0.227c0.052,0.028,0.118,0.028,0.154,0c0.388-0.183,0.732-0.639,1-1.158l0.479-1.06h0.671
		l-0.182,0.398c-0.016,0.026-0.016,0.036,0,0.026c0.209-0.161,0.438-0.399,0.704-0.547c0.106-0.052,0.357-0.052,0.33,0.123
		c-0.012,0.156-0.133,0.277-0.197,0.424c-0.041,0.093-0.08,0.213-0.067,0.276c0.026,0.068,0.106,0.109,0.209,0.029
		c0.106-0.066,0.189-0.12,0.284-0.198c0.169-0.163,0.381-0.321,0.622-0.442c0.478-0.226,1.128-0.37,1.605-0.064
		c-0.333,0.743-0.583,1.303-0.899,2.009c-0.057,0.116-0.015,0.158,0.024,0.183c0.04,0.028,0.122,0.042,0.229-0.016
		c0.262-0.114,0.727-0.631,0.912-1.034c0.174-0.375,0.333-0.744,0.518-1.168h0.696l-0.192,0.41c0,0,0.017,0.014,0.027,0.014
		c0.188-0.173,0.668-0.561,1.025-0.48c0.2,0.041,0.293,0.279,0.277,0.454c0.228-0.163,0.462-0.361,0.793-0.442
		c0.481-0.119,0.67,0.215,0.521,0.535c-0.186,0.437-0.558,1.3-0.771,1.744c-0.024,0.049-0.024,0.145,0,0.169
		c0.054,0.04,0.146,0,0.189-0.024c0.236-0.202,0.368-0.334,0.555-0.602c0.051-0.464,0.305-0.889,0.652-1.247
		c0.368-0.416,0.954-0.733,1.515-0.547c0.196,0.065,0.33,0.267,0.383,0.466c0.027,0.107,0.052,0.159,0.052,0.279
		c0.293,0.212,0.678-0.136,0.835-0.397c0.043-0.109,0.094-0.229,0.122-0.307c0.171,0.011,0.502,0,0.693,0l-0.865,1.983
		c-0.055,0.12-0.068,0.185-0.068,0.276c0,0.069,0.079,0.083,0.161,0.069c0.241-0.038,0.626-0.508,0.824-0.907
		c0.221-0.491,0.437-0.903,0.65-1.396h0.699c-0.275,0.666-0.592,1.371-0.823,1.889c-0.051,0.107-0.115,0.212-0.08,0.362
		c0.029,0.067,0.122,0.052,0.178,0.027c0.304-0.177,0.826-0.757,1.006-1.118c0.188-0.428,0.33-0.746,0.528-1.16h0.722l-0.174,0.414
		c0.267-0.213,0.559-0.438,0.903-0.492c0.16-0.028,0.358-0.016,0.449,0.143c0.108,0.188,0.043,0.387-0.038,0.561
		c-0.198,0.453-0.427,0.945-0.625,1.386c-0.035,0.108-0.049,0.208,0.029,0.254c0.105,0.065,0.61-0.244,0.861-0.802
		c0.225-0.491,0.372-0.784,0.57-1.263h-0.369l0.104-0.214h0.371l0.532-1.157h0.714l-0.514,1.157h0.541l-0.104,0.214h-0.53
		c-0.306,0.651-0.562,1.195-0.826,1.811c-0.105,0.208-0.212,0.558-0.156,0.773c0.039,0.117,0.188,0.145,0.319,0.103
		c0.41-0.142,0.688-0.492,0.931-0.865c0.01-0.037,0.223-0.01,0.21,0.016c-0.28,0.561-0.89,1.121-1.472,1.104
		c-0.177,0-0.363-0.104-0.466-0.254c-0.054-0.076-0.083-0.142-0.106-0.236c-0.04-0.15-0.029-0.321,0-0.483
		c-0.319,0.242-0.62,0.533-1.02,0.617c-0.175,0.026-0.399-0.039-0.441-0.23c-0.026-0.145-0.013-0.304,0.042-0.435
		c0.252-0.548,0.476-1.041,0.716-1.612c0.015-0.026,0-0.124-0.029-0.133c-0.038-0.04-0.156-0.04-0.262,0.04
		c-0.493,0.375-0.743,0.85-0.957,1.342c-0.148,0.332-0.308,0.666-0.466,0.989h-0.705c0.08-0.199,0.202-0.468,0.291-0.681
		c0-0.014-0.012-0.014-0.012,0c-0.288,0.291-0.666,0.622-1.034,0.72c-0.146,0.039-0.294-0.014-0.369-0.15
		c-0.086-0.134-0.109-0.332-0.032-0.506c0-0.009-0.012-0.009-0.024,0c-0.266,0.267-0.519,0.506-0.873,0.627
		c-0.403,0.121-0.761-0.157-0.509-0.744c0.066-0.159,0.268-0.603,0.489-1.133c-0.184,0.079-0.409,0.079-0.526,0.041
		c-0.016,0-0.016,0-0.016,0.013c-0.158,0.746-0.597,1.423-1.275,1.744c-0.331,0.16-0.703,0.201-1.034-0.024
		c-0.16-0.105-0.253-0.363-0.266-0.587c-0.345,0.346-0.73,0.782-1.262,0.706c-0.08-0.015-0.147-0.084-0.187-0.16
		c-0.12-0.201-0.049-0.415,0.026-0.589c0.254-0.53,0.466-1.027,0.718-1.621c0.041-0.083-0.075-0.147-0.157-0.106
		c-0.226,0.12-0.4,0.25-0.548,0.494c-0.088,0.104-0.159,0.206-0.208,0.341c-0.23,0.535-0.48,1.039-0.693,1.557h-0.719
		c0.323-0.728,0.626-1.434,0.943-2.153c0.031-0.066,0.014-0.159-0.024-0.185c-0.067-0.03-0.175,0.026-0.25,0.066
		c-0.173,0.119-0.32,0.28-0.439,0.478c-0.12,0.203-0.229,0.399-0.315,0.616l-0.538,1.178h-0.702
		c0.067-0.159,0.201-0.467,0.281-0.622c0-0.014-0.015-0.027-0.015-0.014c-0.383,0.319-0.876,0.734-1.234,0.665
		c-0.121-0.015-0.226-0.117-0.253-0.225c-0.023-0.135-0.015-0.256,0.015-0.371c0-0.019-0.015-0.019-0.03,0
		c-0.306,0.291-0.583,0.532-0.967,0.626c-0.225,0.05-0.426-0.094-0.502-0.255c-0.098-0.187-0.124-0.479,0.038-0.813
		c0.094-0.214,0.197-0.438,0.331-0.626c-0.081,0.043-0.236,0.053-0.344,0.043c-0.093-0.016-0.188-0.084-0.237-0.151
		c-0.056-0.065-0.067-0.183-0.067-0.264c0.011-0.014-0.027-0.014-0.055,0c-0.211,0.172-0.305,0.372-0.411,0.599l-0.614,1.384h-0.714
		l0.265-0.584c0.013-0.014,0-0.028-0.014-0.014c-0.373,0.331-0.822,0.706-1.183,0.636c-0.103-0.014-0.21-0.121-0.237-0.223
		c-0.027-0.123-0.014-0.258,0-0.377h-0.027c-0.288,0.294-0.568,0.534-0.955,0.614c-0.211,0.069-0.412-0.064-0.493-0.25
		c-0.107-0.269-0.067-0.546,0.028-0.801c0.274-0.721,0.785-1.238,1.474-1.625C94.151,14.397,94.829,14.32,95.306,14.569
		 M90.188,11.413c2.065,0.097,3.28,1.112,3.28,2.2c-0.003,1.945-3.08,2.279-3.08,2.279c-0.536,2.698-2.671,3.726-4.15,3.709
		c-1.979-0.017-1.951-1.623-1.88-1.833c0.08-0.241,0.204-0.458,0.455-0.458c0.25,0,0.453,0.204,0.453,0.458
		c0,0.156-0.075,0.297-0.203,0.374c-0.264,0.161-0.214,0.363-0.214,0.363c0,0.857,1.104,0.921,1.39,0.921
		c2.955,0,2.615-4.875,5.216-6.529c0.121-0.079,0.214,0,0.141,0.083c-0.812,1.02-1.119,2.665-1.119,2.665
		c1.255,0,2.083-1.196,2.083-2.031c0-1.426-1.281-2.021-2.372-2.021c-3.041,0-4.359,2.127-4.359,3.288
		c0,1.163,0.731,1.582,1.262,1.582c0.733,0,0.964-0.496,0.874-0.735c-0.145-0.379,0.058-0.696,0.285-0.696
		c0.09,0,0.393-0.015,0.393,0.521c0,0.514-0.732,1.033-1.533,1.033c-0.799,0-1.958-0.434-1.958-1.706
		C85.151,12.297,88.318,11.319,90.188,11.413 M93.104,16.83c0.268,0,0.638-0.478,0.85-0.889c0.213-0.452,0.322-0.705,0.583-1.277
		c0.013-0.027-0.013-0.027-0.037-0.027c-0.304,0-0.64,0.309-0.85,0.561c-0.253,0.305-0.667,0.891-0.732,1.317
		C92.878,16.738,92.983,16.83,93.104,16.83 M104.577,17.232c0.293,0.148,0.663-0.502,0.981-1.102
		c0.319-0.602,0.574-1.347,0.306-1.439c-0.306-0.123-0.688,0.462-1.009,1.063C104.539,16.352,104.298,17.1,104.577,17.232
		 M97.86,16.83c0.265,0,0.639-0.478,0.845-0.889c0.215-0.452,0.321-0.705,0.587-1.277c0.015-0.027-0.014-0.027-0.041-0.027
		c-0.303,0-0.64,0.309-0.852,0.561c-0.251,0.305-0.662,0.891-0.727,1.317C97.632,16.738,97.728,16.83,97.86,16.83 M95.159,26.445
		c0.068-0.147,0.286-0.601,0.272-0.781c0-0.032-0.08-0.087-0.147-0.022c-0.312,0.31-0.953,1.417-1.192,1.542
		c-0.549,0.27-0.787,0.911-0.948,1.163c-0.117,0.189-0.267,0.491-0.527,0.872c-0.228,0.333-0.489,0.822-0.584,0.998
		c-0.097,0.176-0.131,0.34,0.042,0.34c0.181,0,0.041,0.287-0.173,0.605c-0.124,0.185-0.424,1.072-0.514,1.313
		c-0.115,0.297-0.099,0.678-0.138,0.803c-0.043,0.121-0.621,1.354-0.77,1.627c-0.095,0.175-0.068,0.245-0.104,0.338
		c-0.052,0.123,0.014,0.152,0.104,0.069c0.11-0.111,0.727-1.053,0.916-1.166c0.188-0.118,0.356-0.29,0.381-0.695
		c0.03-0.403,0.29-0.513,0.491-0.752c0.199-0.234,0.469-0.549,0.616-0.879c0.132-0.337,0.306-0.081,0.622-0.588
		c0.313-0.51,1.019-1.769,1.178-2.013c0.158-0.244,0.046-0.595,0.025-0.885c-0.007-0.151,0.011-0.532,0.105-0.932
		C94.901,27.045,95.067,26.682,95.159,26.445 M114.483,33.338c0.049-0.051-0.077-0.208-0.144-0.329
		c-0.072-0.124-0.51-0.605-0.589-0.738c-0.072-0.13-0.634-0.934-0.835-1.196c-0.351-0.455-0.027-0.621-0.212-0.901
		c-0.076-0.122-0.525-0.666-1.052-1.204c-0.269-0.271-0.57-0.533-0.828-0.763c-0.414-0.37-0.729-0.647-0.778-0.597
		c-0.072,0.071,0.173,0.369,0.275,0.499c0.104,0.131,0.271,0.369,0.49,0.631c0.357,0.425,0.025,0.743,0.366,1.083
		c0.057,0.056,0.993,1.109,1.224,1.304c0.344,0.304,1.563,1.754,1.649,1.836C114.192,33.097,114.444,33.39,114.483,33.338
		 M116.85,38.854c0,0.725,0.578,1.254,1.269,1.254c0.684,0,1.269-0.529,1.269-1.254c0-0.718-0.585-1.251-1.269-1.251
		C117.428,37.603,116.85,38.136,116.85,38.854 M119.133,38.854c0,0.601-0.444,1.049-1.015,1.049c-0.571,0-1.02-0.448-1.02-1.049
		c0-0.598,0.448-1.046,1.02-1.046C118.688,37.808,119.133,38.256,119.133,38.854 M108.919,31.259
		c0.333,0.562,0.429,0.451,0.566,0.456c0.316,0.011,1.027,0.775,1.173,0.984c0.133,0.213,1.282,1.358,1.575,1.637
		c0.13,0.122,1.034,1.591,1.154,1.488c0.122-0.106-0.349-0.823-0.421-0.977c-0.066-0.159-0.327-0.39-0.453-0.722
		c-0.121-0.329-0.66-1.152-0.835-1.417c-0.174-0.261-0.457-0.839-0.77-1.209c-0.284-0.325-0.054-0.413-0.351-0.698
		c-0.179-0.168-0.732-0.663-0.858-0.769c-0.117-0.104-0.569-0.504-0.835-0.733c-0.254-0.218-0.871-0.649-0.853-0.926
		c0.014-0.281-0.125-0.821-0.333-1c-0.153-0.126-0.596-0.84-1.104-1.259c-0.256-0.216-0.798-0.779-1.221-1.274
		c-0.396-0.471-0.694-0.9-0.784-0.842c-0.13,0.087,0.462,0.917,0.523,1.015c0.063,0.096,0.741,1.276,0.811,1.589
		c0.069,0.316,1.344,2.468,1.617,3.135C107.68,30.125,108.551,30.649,108.919,31.259 M101.13,25.258
		c0.112,0.333,0.526,2.273,0.648,2.677c0.121,0.405,0.25,0.424,0.315,0.579c0.246,0.605,0.587,0.632,0.769,0.681
		c0.496,0.152,0.538,0.824,0.857,1.42c0.295,0.563,0.574,1.066,0.835,1.677c0.263,0.612,1.605,3.927,1.832,4.433
		c0.083,0.182,0.72,0.182,0.648,0c-0.161-0.364-0.526-1.282-0.754-2.196c-0.146-0.592,0.405-0.174,0.055-1.12
		c-0.163-0.438-0.472-0.873-0.644-1.047c-0.183-0.173-0.353-0.925-0.491-1.261c-0.142-0.329-0.069-0.346-0.366-1.139
		c-0.218-0.574,0.404-0.383,0.05-1.276c-0.228-0.578-1.372-2.673-1.503-2.887c-0.066-0.117-0.29-0.477-0.562-0.909
		c-0.256-0.409-0.472-0.843-0.592-1.033c-0.24-0.383-0.68-1.225-0.924-1.574c-0.246-0.351-0.551-1.122-0.68-0.992
		c-0.121,0.112,0.37,1.272,0.576,2.009c0.213,0.733,0.054,1.033-0.071,1.244C101.011,24.75,101.011,24.888,101.13,25.258
		 M100.977,4.248l1.029-0.607l0.886,0.796l-0.26-1.183l1.032-0.621l-1.195-0.122l-0.24-1.153l-0.472,1.081l-1.188-0.117l0.898,0.817
		L100.977,4.248z M119.883,17.823l0.974,0.693l-0.37,1.138l0.968-0.721l0.998,0.694l-0.382-1.144l0.954-0.689l-1.175,0.01
		l-0.377-1.14l-0.382,1.155L119.883,17.823z M122.795,20.951l-0.595,1.061l-1.188-0.231l0.822,0.871l-0.578,1.042l1.093-0.519
		l0.838,0.868l-0.149-1.194l1.068-0.496l-1.161-0.214L122.795,20.951z M90.522,28.247c-0.095-0.075-1.227,1.081-1.97,1.887
		c-0.264,0.282-0.432,0.545-0.532,0.671c0,0-0.331,0.542-0.502,0.77c-0.177,0.226-0.615,0.873-0.805,1.151
		c-0.068,0.095-0.243,0.501-0.577,0.924c-0.167,0.213-0.339,0.485-0.667,0.909c-0.437,0.565-0.772,1.03-0.694,1.089
		c0.043,0.033,0.689-0.747,1.381-1.589c0.288-0.351,0.602-0.714,0.863-1.055c0.127-0.165,0.425-0.446,0.522-0.589
		c0.169-0.249,0.355-0.439,0.428-0.499c0.386-0.317,0.603-0.341,0.723-0.516c0.063-0.091,0.822-1.244,1.099-1.712
		C90.048,29.247,90.673,28.382,90.522,28.247 M120.066,35.782l0.229,1.193l0.521-1.083l1.164,0.164l-0.852-0.811l0.521-1.075
		l-1.077,0.562l-0.875-0.845l0.223,1.176l-1.051,0.56L120.066,35.782z M122.393,31.722l1.177-0.057l-0.991-0.638l0.304-1.156
		l-0.949,0.759l-1.016-0.662l0.443,1.117l-0.936,0.749l1.212-0.07l0.454,1.119L122.393,31.722z M123.193,26.602l0.082-1.197
		l-0.79,0.933l-1.12-0.456l0.643,1.003l-0.769,0.917l1.172-0.299l0.658,1.014l0.081-1.2l1.135-0.283L123.193,26.602z M105.039,4.839
		l1.128-0.405l0.718,0.962l-0.031-1.217l1.137-0.412l-1.152-0.347l-0.02-1.179l-0.666,0.971l-1.143-0.346l0.725,0.977L105.039,4.839
		z M119.108,14.668l-0.149,1.187l0.821-0.892l1.104,0.491l-0.589-1.055l0.806-0.85l-1.152,0.229l-0.589-1.048l-0.151,1.209
		l-1.186,0.229L119.108,14.668z M110.08,6.013l0.521,1.071l0.204-1.189l1.193-0.192l-1.061-0.562l0.205-1.16l-0.842,0.829
		l-1.061-0.555l0.526,1.096l-0.866,0.843L110.08,6.013z M115.506,10.944l1.161,0.278l0.082,1.193l0.634-1.033l1.176,0.271
		l-0.775-0.919l0.626-0.996l-1.089,0.447l-0.772-0.911l0.078,1.217L115.506,10.944z M113.621,8.307l0.312,1.156l0.426-1.132
		l1.206,0.034l-0.936-0.75l0.427-1.097l-0.984,0.648l-0.933-0.75l0.308,1.177l-1.015,0.663L113.621,8.307z M78.995,15.637
		l1.111-0.494l0.808,0.904l-0.138-1.189l1.091-0.487l-1.183-0.241l-0.15-1.203l-0.596,1.044l-1.146-0.25l0.793,0.876L78.995,15.637z
		 M77.647,31.939l0.293,1.157l0.461-1.129l1.211,0.089l-0.923-0.761l0.447-1.108l-1.021,0.648l-0.942-0.76l0.297,1.166l-1,0.623
		L77.647,31.939z M92.891,5.451l0.724-0.953l1.125,0.409l-0.684-1l0.722-0.966l-1.149,0.332l-0.654-0.977l-0.033,1.181l-1.148,0.336
		l1.137,0.424L92.891,5.451z M88.997,5.989l0.189,1.197l0.531-1.073L90.896,6.3l-0.862-0.849l0.529-1.09l-1.068,0.552l-0.828-0.834
		l0.195,1.164L87.8,5.796L88.997,5.989z M85.464,8.461l0.417,1.137l0.313-1.156l1.197-0.04l-1.008-0.67l0.311-1.172l-0.94,0.744
		l-0.977-0.66l0.41,1.105l-0.934,0.741L85.464,8.461z M79.773,37.171l0.243-1.191l1.197-0.147l-1.048-0.57l0.225-1.175l-0.876,0.831
		l-1.067-0.563l0.514,1.088l-0.863,0.8l1.165-0.147L79.773,37.171z M96.875,4.454l0.894-0.795l1.025,0.617l-0.482-1.113l0.894-0.812
		l-1.194,0.111l-0.451-1.087L97.3,2.527l-1.188,0.114l1.035,0.63L96.875,4.454z M82.469,11.545l0.623,1.034l0.089-1.187l1.166-0.273
		l-1.113-0.467l0.079-1.205L82.53,10.36l-1.08-0.466l0.611,1.009l-0.776,0.907L82.469,11.545z M77.462,19.827l1.001-0.689
		l0.966,0.724l-0.366-1.137l0.986-0.686l-1.212-0.013l-0.375-1.15l-0.388,1.14l-1.173-0.026l0.944,0.702L77.462,19.827z
		 M76.761,24.256l0.85-0.878l1.087,0.538l-0.57-1.053l0.828-0.86l-1.188,0.217l-0.589-1.055l-0.158,1.188l-1.163,0.201l1.063,0.513
		L76.761,24.256z M76.921,28.731l0.67-1.015l1.167,0.316l-0.762-0.926l0.652-1.003l-1.128,0.442l-0.779-0.926l0.068,1.202
		l-1.096,0.416l1.14,0.297L76.921,28.731z"/>
	<path fill="#010203" d="M127.67,59.569c-0.231,0.289-0.456,0.503-0.668,0.643c-0.598,0.396-0.871,0.09-0.831-0.338
		c0.046-0.476,0.304-1.098,0.194-1.727c-0.082-0.466-0.512-0.865-0.907-1.016c-0.058-0.021-0.159-0.051-0.283-0.075
		c0.813-0.168,2.336-0.66,2.336-2.003c0-1.005-1.147-1.964-3.028-2.028c-1.729-0.058-4.649,0.814-4.649,3.192
		c0,1.171,1.03,1.613,1.809,1.604c0.74-0.013,1.351-0.515,1.412-0.982c0.063-0.485-0.277-0.487-0.361-0.479
		c-0.209,0.02-0.397,0.288-0.265,0.638c0.086,0.219-0.136,0.646-0.813,0.633c-0.53-0.013-1.158-0.342-1.158-1.413
		c0-1.066,1.142-3.027,3.987-3.027c1.08,0,2.228,0.55,2.228,1.863c0,0.864-0.791,1.852-1.956,1.877c0,0,0.315-1.521,1.068-2.46
		c0.064-0.08-0.021-0.149-0.131-0.08c-2.401,1.524-2.105,6.081-4.835,6.142c-0.286,0.007-1.289-0.086-1.267-0.839
		c0,0-0.012-0.208,0.199-0.336c0.116-0.073,0.209-0.218,0.209-0.36c0-0.231-0.153-0.412-0.439-0.405
		c-0.231,0.006-0.365,0.181-0.42,0.421c-0.068,0.298-0.092,1.681,1.735,1.695c1.365,0.015,3.349-1.095,3.843-3.572
		c0.393,0.039,0.853,0.163,0.934,0.619c0.038,0.22-0.08,0.599-0.19,1.013c-0.112,0.413-0.217,0.864-0.151,1.249
		c0.077,0.43,0.461,0.699,0.921,0.69c0.642-0.011,1.146-0.431,1.644-1.063c0.112-0.144,0.226-0.305,0.327-0.46l-0.213-0.002
		C127.86,59.318,127.768,59.448,127.67,59.569"/>
	<path fill="#010203" d="M118.687,55.674c-0.008,0-0.014-0.001-0.021-0.001c-0.158,0-0.271,0.076-0.326,0.127
		c-0.132,0.124-0.144,0.242-0.131,0.319c0.016,0.093,0.073,0.165,0.123,0.185c0.04,0.021,0.084,0.03,0.13,0.03
		c0.071,0,0.247-0.031,0.319-0.299c0.007-0.023,0.031-0.048,0.068-0.048c0.013,0,0.024,0.003,0.037,0.009
		c0.064,0.025,0.099,0.103,0.089,0.211c-0.032,0.436-0.572,0.492-1.144,0.553l-0.03,0.003c-0.604,0.064-1.059,0.13-1.438,0.404
		c-0.22,0.16-0.381,0.438-0.482,0.828c-0.012,0.044-0.001,0.072,0.011,0.086c0.012,0.015,0.028,0.023,0.048,0.023
		c0.031,0,0.06-0.023,0.075-0.058c0.035-0.092,0.187-0.327,0.424-0.477c0.266-0.165,0.786-0.279,1.195-0.32
		c-0.14,1.093-0.819,1.772-1.773,1.775c-0.808,0.002-1.074-0.593-1.075-0.941v-0.017c0-0.167-0.002-0.553,0.346-1.054
		c0.352-0.508,0.948-0.682,1.252-0.686h0.019c0.18,0,0.325,0.022,0.447,0.074c0.046,0.02,0.082,0.028,0.11,0.028
		c0.036,0,0.061-0.016,0.072-0.045c0.023-0.054-0.002-0.099-0.077-0.142c-0.243-0.137-0.596-0.152-0.638-0.155
		c-0.092-0.073-0.212-0.229-0.225-0.36c-0.023-0.26,0.128-0.578,0.288-0.757c0.262-0.292,0.582-0.471,0.888-0.49
		c0.265-0.019,0.529,0.113,0.577,0.255c0.043,0.117-0.011,0.167-0.072,0.212c-0.098,0.073-0.15,0.18-0.142,0.288
		c0.005,0.08,0.045,0.148,0.104,0.178c0.024,0.014,0.074,0.028,0.126,0.028c0.077,0,0.185-0.034,0.24-0.201
		c0.02-0.056,0.024-0.12,0.029-0.196c0.008-0.338-0.24-0.84-1.134-0.837c-0.893,0.001-1.493,0.632-1.556,1.24
		c-0.017,0.147,0.025,0.285,0.116,0.399c0.1,0.121,0.247,0.204,0.435,0.245c-0.248,0.014-0.76,0.088-1.271,0.423
		c-0.646,0.424-0.783,1.021-0.781,1.448c0,0.136,0.029,0.487,0.296,0.799c0.278,0.321,0.717,0.493,1.307,0.507
		c0.029,0.001,0.059,0.001,0.088,0.001c0.661-0.004,1.141-0.182,1.516-0.537c0.366-0.347,0.594-0.853,0.682-1.5
		c1.174-0.099,1.363-0.674,1.362-1.004C119.19,55.822,118.894,55.673,118.687,55.674"/>
	<path fill="#010203" d="M112.345,56.135c-0.032,0.042-0.075,0.096-0.12,0.168c-0.039,0.059-0.092,0.172-0.194,0.363
		c-0.075,0.14-0.303,0.587-0.461,0.837c-0.217,0.344-0.455,0.663-0.83,0.794c-0.121,0.038-0.242,0.012-0.291-0.088
		c-0.06-0.131-0.015-0.334,0.113-0.646c0.113-0.261,1.214-2.686,1.214-2.686h-0.656c0,0-0.424,0.939-0.751,1.651
		c-0.019,0.039-0.042,0.086-0.068,0.143c-0.203,0.433-0.455,0.807-0.615,0.992c-0.351,0.405-0.672,0.641-0.979,0.596
		c-0.313-0.045-0.402-0.329-0.385-0.685c0.647-0.167,1.45-0.584,1.494-1.179c0.022-0.286-0.202-0.54-0.553-0.54
		c-0.48,0-1.053,0.388-1.349,0.951v-0.004c-0.651,1.067-1.164,1.399-1.252,1.312c-0.077-0.073-0.042-0.251,0.112-0.577l0.619-1.403
		h0.513L108,55.938h-0.521l0.491-1.06h-0.656l-0.477,1.06h-0.287l-0.084,0.199l0.271-0.002c-0.175,0.425-0.08,0.201-0.259,0.604
		c-0.244,0.577-0.732,0.967-1.188,1.223c0.263-0.3,0.435-0.684,0.525-1.105c0.116-0.54-0.153-0.868-0.357-0.945
		c-0.492-0.192-1.049,0.117-1.385,0.498c-0.316,0.326-0.523,0.69-0.595,1.143c-0.037,0.229-0.005,0.631,0.259,0.845
		c0.215,0.174,0.559,0.169,0.846,0.065c0.374-0.108,1.021-0.387,1.523-0.887c-0.028,0.073-0.053,0.141-0.073,0.196
		c0,0-0.212,0.535,0.097,0.728c0.261,0.16,0.913-0.108,1.595-1.085c-0.002,0.034-0.007,0.065-0.009,0.099
		c-0.029,0.661,0.255,0.957,0.67,1.019c0.406,0.058,0.936-0.138,1.405-0.726c0.039-0.05,0.078-0.111,0.116-0.166
		c-0.03,0.153-0.043,0.331-0.009,0.455c0.023,0.085,0.049,0.145,0.098,0.217c0.093,0.135,0.277,0.226,0.439,0.226
		c0.533,0.014,0.95-0.394,1.308-0.994c0.255-0.425,0.349-0.648,0.349-0.648c0.021,0.155,0.073,0.32,0.181,0.499
		c0.19,0.319,0.261,0.399,0.266,0.546c0.005,0.261-0.204,0.414-0.425,0.427c-0.201,0.009-0.292-0.074-0.388-0.255
		c-0.056-0.104-0.18-0.116-0.238-0.052c-0.055,0.062-0.071,0.178,0.051,0.288c0.128,0.118,0.295,0.193,0.543,0.193
		c0.745,0,0.966-0.481,0.981-0.778c0.016-0.259-0.089-0.497-0.268-0.771c-0.206-0.317-0.272-0.409-0.278-0.574
		c-0.007-0.249,0.173-0.347,0.323-0.326c0.107,0.015,0.195,0.084,0.228,0.169c0.1,0.267,0.318,0.293,0.44,0.2
		c0.078-0.059,0.161-0.275-0.063-0.483C113.204,55.753,112.676,55.787,112.345,56.135 M108.332,57.375
		c0.015-0.284,0.149-0.886,0.521-1.176c0.139-0.106,0.402-0.16,0.368,0.144c-0.038,0.343-0.301,0.759-0.895,1.054
		C108.334,57.394,108.328,57.383,108.332,57.375 M104.083,58.335c-0.257-0.12-0.051-0.772,0.237-1.319
		c0.294-0.549,0.642-1.074,0.917-0.964c0.247,0.083,0.008,0.802-0.282,1.353C104.663,57.951,104.351,58.472,104.083,58.335"/>
	<path fill="#010203" d="M104.123,60.522c0,0-3.149,0.165-1.593-2.926c0.048-0.092,0.258-0.521,0.306-0.604
		c0.06-0.104,0.194-0.344,0.255-0.446c0.604-0.297,1.049-0.584,1.412-0.896c0.076-0.067,0.149-0.13,0.219-0.188
		c0.297-0.246,0.535-0.49,0.772-0.795c0.2-0.257,0.555-0.722,0.39-1.069c-0.084-0.175-0.294-0.245-0.473-0.227
		c-0.259,0.027-0.657,0.24-0.889,0.432c-0.94,0.779-1.554,1.376-2.402,2.658c-0.069,0.107-0.214,0.296-0.278,0.395
		c-0.589,0.246-0.99,0.308-1.651,0.481l0.01-0.032c0.574-1.206,1.056-2.815,2.151-3.571c0.087-0.06,0.057-0.146-0.012-0.178
		c-1.689-0.674-5.199-1.083-6.034,1.12c-0.416,1.095,0.09,2.021,0.82,2.287c0.696,0.25,1.445-0.002,1.668-0.417
		c0.23-0.433-0.087-0.555-0.168-0.575c-0.201-0.055-0.472,0.128-0.471,0.502c0,0.236-0.358,0.555-0.985,0.303
		c-0.492-0.198-0.659-0.877-0.28-1.878c0.37-0.977,2.644-2.141,5.237-1.239c-1.879,0.901-2.522,2.638-3.072,3.924
		c-0.149,0.033-0.272,0.048-0.426,0.072c-1.287,0.208-2.294,0.6-2.87,1.022c-0.464,0.342-0.703,0.914-0.508,1.396
		c0.052,0.13,0.177,0.346,0.453,0.486c0.104,0.056,0.233,0.1,0.396,0.12c0.109,0.018,0.232,0.023,0.37,0.017
		c0.104-0.006,0.22-0.017,0.342-0.039c1.567-0.243,2.666-1.698,3.292-3.109c0.822-0.207,1.048-0.213,1.592-0.441
		c0,0-0.241,0.372-0.375,0.949c-0.295,1.278,0.366,2.647,2.798,2.647L104.123,60.522z M103.349,56.001
		c0.43-0.791,0.729-1.382,1.122-1.853c0.188-0.217,0.641-0.62,0.931-0.413c0.198,0.142,0.059,0.523-0.132,0.835
		c-0.21,0.339-0.476,0.596-0.779,0.848c-0.308,0.259-0.76,0.594-1.283,0.872C103.265,56.186,103.295,56.1,103.349,56.001
		 M97.974,59.707c-0.404,0.432-0.829,0.746-1.434,0.821c-0.537,0.038-0.897-0.104-1.023-0.41c-0.145-0.352,0.066-0.826,0.431-1.107
		c0.656-0.507,1.605-0.98,3.035-1.243C98.706,58.405,98.445,59.206,97.974,59.707"/>
	<path fill="#010203" d="M75.853,55.039c0-1.006-1.146-1.963-3.023-2.027c-1.725-0.06-4.643,0.814-4.643,3.189
		c0,1.172,1.029,1.613,1.805,1.602c0.74-0.011,1.351-0.513,1.411-0.982c0.063-0.483-0.277-0.485-0.36-0.478
		c-0.208,0.021-0.398,0.287-0.264,0.638c0.083,0.221-0.137,0.646-0.813,0.633c-0.532-0.011-1.156-0.34-1.156-1.412
		c0-1.066,1.138-3.025,3.979-3.025c1.08,0,2.223,0.549,2.223,1.863c0,0.862-0.79,1.85-1.952,1.875c0,0,0.316-1.523,1.067-2.462
		c0.064-0.077-0.019-0.147-0.131-0.077c-2.398,1.524-2.104,6.075-4.828,6.136c-0.284,0.008-1.286-0.086-1.262-0.837
		c0,0-0.013-0.206,0.198-0.336c0.118-0.071,0.21-0.217,0.21-0.359c0-0.23-0.154-0.41-0.439-0.402
		c-0.231,0.006-0.366,0.179-0.421,0.419c-0.066,0.298-0.09,1.678,1.734,1.694c1.363,0.013,3.344-1.095,3.836-3.571
		C73.025,57.118,75.853,56.866,75.853,55.039"/>
	<path fill="#010203" d="M95.013,57.44c-0.451,0.526-0.788,0.741-0.854,0.676c-0.075-0.073-0.062-0.188,0.092-0.514l0.653-1.471
		h0.511l0.095-0.195h-0.521l0.486-1.059h-0.654l-0.473,1.059h-0.291l-0.083,0.197l0.276-0.002c-0.167,0.404-0.352,0.881-0.614,1.234
		c-0.314,0.421-0.717,0.75-0.834,0.695c-0.086-0.043-0.063-0.135-0.016-0.26c0.185-0.405,0.407-0.879,0.589-1.297
		c0.075-0.16,0.136-0.343,0.035-0.517c-0.083-0.146-0.267-0.158-0.414-0.132c-0.318,0.05-0.591,0.263-0.845,0.485l0.164-0.405
		h-0.663c-0.189,0.405-0.321,0.7-0.495,1.092c-0.167,0.333-0.618,0.858-0.93,1.029c-0.047,0.024-0.124,0.039-0.16-0.025
		c-0.035-0.077-0.006-0.169,0.052-0.293c0.225-0.471,0.524-1.166,0.786-1.803h-0.647c-0.203,0.477-0.393,0.834-0.597,1.287
		c-0.181,0.368-0.545,0.815-0.767,0.851c-0.075,0.013-0.134-0.002-0.146-0.065c-0.011-0.063,0.009-0.142,0.063-0.254l0.793-1.818
		h-0.636c-0.027,0.072-0.067,0.156-0.117,0.254c-0.153,0.283-0.497,0.591-0.765,0.395c-0.005-0.098-0.011-0.156-0.035-0.255
		c-0.047-0.18-0.185-0.371-0.367-0.431c-0.518-0.173-1.056,0.12-1.397,0.503c-0.32,0.329-0.541,0.71-0.605,1.188
		c-0.172,0.246-0.319,0.373-0.481,0.477c-0.059,0.035-0.123,0.046-0.172-0.005c-0.025-0.024-0.03-0.083,0.006-0.163
		c0.188-0.412,0.505-1.136,0.678-1.537c0.135-0.296-0.037-0.604-0.479-0.493c-0.306,0.072-0.541,0.245-0.733,0.405
		c0.009-0.238-0.071-0.378-0.255-0.418c-0.331-0.075-0.786,0.265-0.959,0.423l0.154-0.343h-0.642
		c-0.159,0.367-0.369,0.842-0.529,1.187c-0.172,0.369-0.57,0.786-0.811,0.891c-0.101,0.052-0.183,0.041-0.221,0.017
		c-0.036-0.025-0.055-0.083-0.005-0.191c0.294-0.65,0.511-1.142,0.815-1.828c-0.438-0.282-1.025-0.165-1.479,0.061
		c-0.22,0.112-0.402,0.232-0.562,0.382c-0.084,0.074-0.166,0.135-0.258,0.184c-0.077,0.042-0.18,0.03-0.196-0.025
		c-0.012-0.055-0.012-0.108,0.047-0.236c0.065-0.134,0.184-0.249,0.184-0.392c0-0.156-0.188-0.167-0.305-0.114
		c-0.223,0.108-0.372,0.22-0.648,0.48l0.192-0.413h-0.624l-0.446,1.006c-0.248,0.478-0.563,0.923-0.918,1.091
		c-0.059,0.026-0.118,0.041-0.16,0.011c-0.063-0.038-0.037-0.147-0.015-0.21c0.283-0.647,0.517-1.174,0.82-1.859
		c-0.438-0.233-1.064-0.159-1.467,0.073c-0.637,0.355-1.11,0.903-1.365,1.565c-0.117,0.304-0.168,1.017,0.453,0.917
		c0.356-0.073,0.602-0.294,0.869-0.564c-0.015,0.11-0.031,0.23,0.003,0.342c0.036,0.126,0.129,0.214,0.224,0.227
		c0.332,0.063,0.803-0.33,1.122-0.639l-0.229,0.535h0.658l0.544-1.24c0.096-0.211,0.172-0.379,0.368-0.54
		c0.036-0.02,0.064-0.024,0.06-0.014c0.007,0.087,0.012,0.323,0.281,0.382c0.097,0.021,0.238-0.021,0.35-0.082
		c-0.141,0.188-0.283,0.477-0.349,0.637c-0.137,0.355-0.12,0.596-0.044,0.741c0.084,0.162,0.304,0.269,0.512,0.22
		c0.355-0.083,0.582-0.302,0.865-0.569c0.013-0.015,0.036-0.041,0.036-0.041c-0.039,0.122-0.063,0.302-0.036,0.403
		c0.038,0.117,0.125,0.194,0.235,0.205c0.331,0.064,0.824-0.328,1.149-0.632l0.041-0.033c-0.073,0.147-0.196,0.42-0.261,0.563h0.65
		l0.491-1.082c0.082-0.198,0.18-0.382,0.292-0.567c0.109-0.183,0.259-0.354,0.418-0.465c0.093-0.052,0.173-0.087,0.235-0.061
		c0.061,0.028,0.05,0.109,0.022,0.173c-0.293,0.663-0.59,1.328-0.885,2.002h0.663c0.195-0.478,0.377-0.836,0.588-1.329
		c0.046-0.122,0.14-0.292,0.214-0.4c0.176-0.254,0.38-0.409,0.494-0.448c0.109-0.038,0.208,0.025,0.157,0.141
		c-0.232,0.549-0.453,0.993-0.626,1.397c-0.071,0.162-0.16,0.412-0.067,0.6c0.037,0.068,0.118,0.128,0.193,0.142
		c0.489,0.07,0.87-0.339,1.177-0.674c0.006,0.235,0.099,0.437,0.236,0.548c0.245,0.2,0.655,0.166,0.962,0.021
		c0.623-0.298,1.013-0.948,1.16-1.637c0,0,0.015,0.015,0.028,0.015c0.109,0.035,0.307,0.047,0.486-0.038
		c-0.206,0.489-0.396,0.915-0.458,1.06c-0.233,0.539,0.096,0.796,0.467,0.688c0.327-0.112,0.583-0.348,0.827-0.597
		c-0.046,0.164-0.06,0.362,0.01,0.476c0.07,0.124,0.23,0.167,0.367,0.137c0.336-0.077,0.698-0.4,0.965-0.672
		c-0.083,0.199-0.194,0.438-0.248,0.572h0.647c0.129-0.248,0.275-0.545,0.411-0.853c0.197-0.455,0.436-0.903,0.884-1.253
		c0.113-0.09,0.24-0.114,0.274-0.077c0.028,0.009,0.045,0.073,0.02,0.126c-0.224,0.528-0.465,1.046-0.698,1.553
		c-0.05,0.119-0.081,0.278-0.046,0.395c0.051,0.172,0.252,0.242,0.413,0.218c0.368-0.075,0.552-0.248,0.791-0.455
		c0.14-0.12,0.359-0.413,0.359-0.413c-0.027,0.073-0.039,0.109-0.06,0.166c0,0-0.187,0.458,0.121,0.651
		c0.259,0.159,0.871-0.058,1.592-1.049L95.013,57.44z M76.473,57.164c-0.221,0.449-0.555,0.908-0.799,0.908
		c-0.112,0-0.21-0.085-0.173-0.291c0.061-0.393,0.418-0.948,0.652-1.229c0.194-0.233,0.507-0.524,0.788-0.524
		c0.023,0,0.048,0,0.034,0.025C76.735,56.581,76.668,56.747,76.473,57.164 M80.813,57.229c-0.193,0.38-0.536,0.822-0.778,0.822
		c-0.124,0-0.212-0.087-0.174-0.291c0.062-0.395,0.427-0.904,0.658-1.187c0.196-0.231,0.514-0.535,0.795-0.535
		c0.025,0,0.049,0,0.036,0.026C81.106,56.593,81.009,56.813,80.813,57.229 M87.144,57.407c-0.292,0.551-0.601,1.077-0.871,0.938
		c-0.259-0.123-0.058-0.78,0.233-1.332c0.296-0.553,0.65-1.074,0.931-0.963C87.685,56.136,87.437,56.851,87.144,57.407"/>
	<path fill="#010203" d="M137.002,57.487c0.121-0.185,0.221-0.305,0.328-0.5c0.004-0.008,0.044-0.082,0.044-0.09
		c0.021,0.155,0.072,0.319,0.179,0.496c0.191,0.32,0.263,0.401,0.266,0.548c0.007,0.26-0.204,0.415-0.423,0.426
		c-0.203,0.009-0.294-0.115-0.39-0.297c-0.056-0.102-0.18-0.112-0.236-0.049c-0.057,0.062-0.072,0.178,0.048,0.286
		c0.13,0.12,0.295,0.233,0.545,0.233c0.745,0,0.964-0.481,0.981-0.777c0.015-0.259-0.09-0.497-0.267-0.771
		c-0.206-0.317-0.274-0.406-0.278-0.573c-0.008-0.251,0.172-0.348,0.321-0.327c0.107,0.017,0.196,0.084,0.228,0.168
		c0.101,0.267,0.317,0.293,0.44,0.2c0.077-0.059,0.163-0.273-0.063-0.481c-0.242-0.225-0.771-0.191-1.103,0.156
		c-0.033,0.043-0.075,0.095-0.12,0.167c-0.04,0.06-0.091,0.172-0.194,0.363c-0.15,0.282-0.291,0.527-0.483,0.784
		c-0.084,0.112-0.168,0.228-0.27,0.323c-0.283,0.265-0.476,0.371-0.524,0.322c-0.077-0.071-0.07-0.156,0.084-0.482l0.644-1.478
		h0.512l0.08-0.199h-0.508l0.494-1.059h-0.655l-0.479,1.059h-0.292l-0.082,0.199h0.275l-0.12,0.286
		c-0.349,0.745-0.912,0.528-0.666,0.13c0.078-0.124,0.271-0.373,0.246-0.562c-0.021-0.152-0.187-0.166-0.304-0.112
		c-0.221,0.107-0.37,0.219-0.645,0.478l0.189-0.414h-0.611c-0.026,0.073-0.066,0.158-0.116,0.255
		c-0.152,0.282-0.496,0.589-0.762,0.393c-0.004-0.097-0.01-0.153-0.036-0.251c-0.046-0.183-0.184-0.373-0.363-0.43
		c-0.515-0.174-1.052,0.119-1.39,0.499c-0.079,0.078-0.215,0.241-0.3,0.374c-0.359,0.526-0.81,0.987-0.81,0.987
		c0.013-0.258-0.087-0.481-0.267-0.776c-0.193-0.327-0.273-0.407-0.278-0.575c-0.007-0.25,0.174-0.348,0.322-0.327
		c0.106,0.017,0.194,0.085,0.228,0.17c0.1,0.268,0.317,0.294,0.44,0.199c0.076-0.059,0.161-0.273-0.063-0.482
		c-0.241-0.225-0.772-0.19-1.103,0.157c-0.034,0.043-0.075,0.096-0.121,0.168c-0.04,0.058-0.1,0.166-0.193,0.363
		c-0.193,0.409-0.422,0.773-0.584,0.969c-0.08,0.093-0.198,0.229-0.349,0.355c-0.245,0.202-0.486,0.307-0.7,0.276
		c-0.313-0.046-0.403-0.329-0.386-0.687c0.65-0.165,1.454-0.584,1.5-1.181c0.022-0.286-0.205-0.543-0.555-0.543
		c-0.667,0-1.509,0.743-1.549,1.661c-0.029,0.663,0.255,0.962,0.672,1.021c0.313,0.045,0.722-0.066,1.111-0.388
		c0.139-0.122,0.254-0.242,0.372-0.386c0.224-0.285,0.406-0.611,0.531-0.871c0.021,0.156,0.071,0.329,0.18,0.507
		c0.225,0.364,0.262,0.399,0.265,0.546c0.007,0.259-0.203,0.415-0.423,0.425c-0.202,0.01-0.325-0.084-0.422-0.267
		c-0.053-0.101-0.183-0.108-0.237-0.05c-0.055,0.062-0.07,0.178,0.05,0.288c0.129,0.117,0.326,0.203,0.577,0.203
		c0.15,0,0.33-0.026,0.587-0.193c0.244-0.161,0.552-0.443,0.925-0.898c-0.009,0.033-0.014,0.065-0.021,0.099
		c-0.038,0.215-0.029,0.628,0.262,0.85c0.25,0.189,0.651,0.165,0.957,0.02c0.621-0.296,1.008-0.942,1.155-1.627l0.027,0.015
		c0.123,0.047,0.31,0.033,0.487-0.053c-0.202,0.487-0.679,1.53-0.742,1.673h0.656l0.545-1.239c0.099-0.209,0.177-0.394,0.371-0.554
		c0.046-0.029,0.092-0.02,0.092,0c-0.016,0.112-0.052,0.426,0.181,0.555c0.161,0.091,0.512,0.071,0.825-0.223l-0.309,0.714
		c-0.027,0.072-0.031,0.078-0.052,0.134c0,0-0.194,0.49,0.113,0.683c0.132,0.083,0.335,0.046,0.468-0.004
		c0.278-0.103,0.521-0.344,0.714-0.566C136.799,57.787,136.905,57.64,137.002,57.487 M127.374,57.38
		c0.018-0.287,0.188-0.953,0.563-1.242c0.138-0.108,0.364-0.098,0.33,0.205c-0.04,0.346-0.303,0.762-0.896,1.059
		C127.377,57.396,127.374,57.388,127.374,57.38 M132.412,57.407c-0.292,0.55-0.604,1.067-0.872,0.931
		c-0.259-0.123-0.054-0.772,0.238-1.321c0.294-0.551,0.639-1.069,0.916-0.96C132.943,56.14,132.704,56.854,132.412,57.407"/>
	<path fill="#010203" d="M66.067,55.762c-0.204,0.481-0.394,0.841-0.6,1.299c-0.181,0.37-0.544,0.819-0.765,0.854
		c-0.077,0.014-0.138-0.001-0.148-0.063c-0.008-0.063,0.011-0.146,0.063-0.258l0.796-1.833h-0.637
		c-0.026,0.076-0.069,0.16-0.119,0.258l-0.262,0.582c-0.207,0.491-0.397,0.92-0.46,1.064c-0.042,0.1-0.07,0.188-0.077,0.267
		c0,0-0.115,0.152-0.377,0.21c-0.069,0.015-0.184,0-0.149-0.049c0.01-0.025,0.2-0.286,0.211-0.312
		c0.003-0.005,0.018-0.031,0.021-0.037c0.27-0.412,0.392-0.876,0.307-1.289c-0.079-0.368-0.357-0.602-0.682-0.602
		c-0.125,0-0.305,0.043-0.455,0.127c-0.188,0.095-0.26,0.157-0.432,0.337l1.116-2.407c0.051-0.095,0.078-0.173,0.091-0.241h-0.701
		c-0.013,0.04-0.036,0.094-0.073,0.177l-1.392,2.99c-0.179,0.392-0.253,0.834-0.197,1.109c0.089,0.423,0.43,0.697,0.89,0.697
		c0.257,0,0.552-0.102,0.827-0.265c0.045,0.088,0.119,0.148,0.197,0.16c0.24,0.046,0.554-0.151,0.833-0.385
		c0.013,0.037,0.03,0.075,0.053,0.109c0.09,0.124,0.274,0.15,0.458,0.095c0.32-0.107,0.57-0.341,0.808-0.582l-0.304,0.672
		c-0.021,0.059-0.077,0.142-0.153,0.283c-0.126,0.201-0.212,0.353-0.264,0.448c-0.08,0.128-0.194,0.234-0.314,0.362
		c-0.279,0.268-0.67,0.423-1.046,0.412c-0.297-0.009-0.598-0.161-0.648-0.332c-0.019-0.06-0.015-0.131,0.018-0.153l0.039-0.048
		c0.011-0.012,0.005-0.024-0.005-0.062c-0.034-0.106-0.153-0.194-0.314-0.2c-0.229-0.006-0.359,0.134-0.298,0.339
		c0.098,0.316,0.582,0.546,1.241,0.564c0.404,0.013,0.746-0.068,1.128-0.214c0.532-0.221,0.909-0.647,1.148-1.217l0.527-1.16
		c0.003,0,0.007-0.001,0.011-0.001c0.217-0.469,0.494-1.112,0.738-1.708H66.067z M62.943,57.523
		c-0.313,0.654-0.601,0.981-0.936,0.981c-0.167,0-0.304-0.104-0.34-0.274c-0.054-0.264,0.145-0.907,0.417-1.404
		c0.264-0.486,0.606-0.804,0.858-0.804c0.157,0,0.248,0.084,0.286,0.266C63.281,56.541,63.173,57.026,62.943,57.523"/>
	<path d="M142.114,44.27c-0.431-0.501-1.257-0.751-2.479-0.751h-4.185l-2.514,5.783h1.241l2.132-4.901h1.635
		c1.311,0,1.77,0.611,1.46,1.613h-3.005l-0.342,0.794h0.011l2.529,2.494h2.885l-2.268-2.494h2.742l0.199-0.453l0.008-0.019
		l0.05-0.126c0.025-0.065,0.053-0.131,0.074-0.194l0.001-0.002h-0.001C142.536,45.283,142.484,44.701,142.114,44.27"/>
	<polygon points="127.862,43.519 127.856,43.535 127.827,43.535 125.427,49.301 132.069,49.301 132.511,48.243 128.582,48.243 
		129.18,46.806 130.997,46.806 131.315,46.04 129.499,46.04 130.165,44.441 134.093,44.441 134.476,43.523 	"/>
	<path fill="#010203" d="M126.794,43.519h-1.22l-1.465,3.573c-0.073,0.179-0.144,0.388-0.213,0.616
		c-0.006-0.187-0.055-0.384-0.146-0.593l-1.287-2.983h-0.219l-3.683,2.973c-0.138,0.111-0.348,0.313-0.626,0.604
		c0.143-0.269,0.241-0.475,0.301-0.616l1.464-3.573h-2.656h-0.018l-0.1,0.241l-2.267,5.541h2.486l3.005-2.401l1.546-1.297h0.071
		l-0.729,1.888l0.888,1.811h2.5l2.271-5.549L126.794,43.519z"/>
	<path fill="#010203" d="M115.111,44.875c-0.119-0.495-0.425-0.848-0.914-1.064c-0.239-0.104-0.564-0.179-0.972-0.227
		c-0.36-0.044-0.787-0.064-1.281-0.064h-2.282l-0.892,0.049c-0.845,0.093-1.589,0.328-2.231,0.702
		c-0.857,0.501-1.474,1.204-1.851,2.106c-0.241,0.576-0.309,1.098-0.206,1.568c0.122,0.494,0.426,0.848,0.915,1.064
		c0.239,0.104,0.563,0.179,0.972,0.226c0.361,0.044,0.789,0.066,1.28,0.066h2.284l0.891-0.049c0.845-0.095,1.59-0.328,2.231-0.702
		c0.857-0.502,1.475-1.205,1.852-2.108C115.146,45.867,115.216,45.346,115.111,44.875 M112.006,46.47
		c-0.218,0.525-0.579,1.013-1.087,1.368c-0.506,0.355-1.156,0.58-1.959,0.58l0,0c-1.438,0-1.556-0.717-1.585-0.905
		c-0.049-0.322,0.036-0.735,0.214-1.162c0.219-0.525,0.58-1.013,1.086-1.368c0.508-0.356,1.159-0.581,1.962-0.581l0,0
		c1.438,0,1.556,0.719,1.583,0.906C112.268,45.629,112.183,46.042,112.006,46.47"/>
	<path fill="#060A0D" d="M151.408,45.304l0.749-1.785h-4.183c-1.223,0-2.263,0.25-3.121,0.751c-0.74,0.432-1.289,1.012-1.668,1.744
		h-0.001l-0.001,0.002c-0.031,0.063-0.062,0.127-0.092,0.193l-0.059,0.126l-0.008,0.019l-0.191,0.452h5.049
		c-0.549,1.002-1.531,1.612-2.842,1.612h-1.634l0.376-0.901h-1.241l-0.746,1.785h4.179c1.223,0,2.263-0.251,3.123-0.751
		c0.741-0.433,1.284-1.013,1.662-1.745h0.002l0.005-0.011c0.018-0.033,0.033-0.069,0.049-0.104l0.104-0.221l0.001-0.004l0.188-0.452
		h-5.039c0.548-1.003,1.53-1.613,2.841-1.613h1.633l-0.375,0.903H151.408z"/>
	<polygon points="98.045,43.519 97.684,44.421 100.322,44.421 98.29,49.301 100.986,49.301 103.018,44.421 105.657,44.421 
		106.021,43.519 	"/>
	<path d="M56.978,46.381c0.375-0.9,0.343-1.602-0.097-2.103c-0.441-0.499-1.271-0.748-2.491-0.748h-4.132l-0.374,0.903h2.846
		c1.451,0,1.872,0.726,1.37,1.926c-0.288,0.694-0.544,1.333-1.148,1.617c-0.552,0.261-1.124,0.337-2.14,0.337l-1.317-0.002
		l0.983-2.338h-1.24l-1.395,3.327h3.746c1.048,0,1.878-0.097,2.49-0.291c0.669-0.216,1.269-0.57,1.798-1.062
		C56.371,47.479,56.738,46.956,56.978,46.381 M82.806,43.523l0.001,0.005h-1.534l-5.896,5.53l2.304-5.528h-2.527l-3.052,2.396
		l-1.573,1.294h-0.071l0.74-1.885l-0.902-1.806h-2.539l-2.308,5.539l-1.329-5.539h-2.783l-6.145,5.771h1.536l1.57-1.508h3.872
		l0.309,1.508h4.113l1.487-3.566c0.075-0.18,0.147-0.385,0.217-0.616c0.006,0.187,0.057,0.385,0.148,0.594l1.308,2.976h0.221
		l3.742-2.965c0.14-0.112,0.352-0.313,0.636-0.604c-0.144,0.27-0.246,0.474-0.305,0.616l-1.487,3.566h2.716h0.001h2.863l1.553-1.518
		h4.022l0.322,1.518h1.414l-1.378-5.777H82.806z M59.109,47l2.45-2.35L62.002,47H59.109z M80.506,46.991l2.516-2.455l0.523,2.455
		H80.506z M95.056,43.519l-4.17,0.001c-1.22,0-2.262,0.251-3.118,0.752c-0.857,0.5-1.473,1.202-1.85,2.104
		c-0.24,0.573-0.307,1.098-0.205,1.565c0.122,0.494,0.425,0.85,0.915,1.064c0.447,0.193,1.198,0.291,2.248,0.291h3.738l0.374-0.916
		h-2.107c-1.015,0-1.69-0.131-2.027-0.393c-0.368-0.284-0.326-0.939-0.041-1.636c0.503-1.203,1.553-1.952,3.005-1.952h1.632
		l-0.374,0.904h1.238L95.056,43.519z"/>
	<path fill="#010203" d="M95.827,68.196c0.039,0,0.083-0.006,0.132-0.02c0.05-0.015,0.088-0.052,0.117-0.111
		c0.007-0.019,0.015-0.047,0.021-0.088c0.007-0.04,0.011-0.112,0.011-0.215v-2.078c0-0.054-0.002-0.109-0.007-0.17
		s-0.017-0.105-0.034-0.138c-0.029-0.053-0.067-0.085-0.117-0.093c-0.05-0.01-0.088-0.013-0.117-0.013h-0.18v2.925H95.827z
		 M95.239,64.878h0.642c0.083,0,0.156,0.009,0.216,0.026c0.061,0.019,0.111,0.039,0.155,0.065c0.042,0.022,0.075,0.048,0.101,0.075
		c0.024,0.026,0.042,0.049,0.053,0.066c0.021,0.028,0.045,0.086,0.074,0.173c0.029,0.087,0.042,0.23,0.042,0.432v2.133
		c0,0.077-0.008,0.166-0.026,0.268c-0.018,0.101-0.063,0.191-0.132,0.272c-0.071,0.084-0.149,0.14-0.236,0.164
		c-0.087,0.025-0.165,0.037-0.236,0.037h-0.651V64.878z"/>
	<path fill="#010203" d="M97.97,64.878v3.001c0,0.092,0.003,0.155,0.01,0.191c0.006,0.035,0.014,0.062,0.021,0.08
		c0.014,0.027,0.035,0.052,0.065,0.071c0.03,0.02,0.07,0.028,0.12,0.028s0.089-0.009,0.12-0.028c0.03-0.02,0.051-0.044,0.066-0.071
		c0.007-0.019,0.015-0.045,0.021-0.08c0.007-0.036,0.011-0.1,0.011-0.191v-3.001h0.414v2.896v0.157c0,0.053-0.004,0.108-0.011,0.165
		c-0.007,0.057-0.02,0.113-0.04,0.17c-0.019,0.056-0.049,0.109-0.087,0.159c-0.028,0.039-0.082,0.084-0.16,0.138
		c-0.078,0.054-0.189,0.079-0.334,0.079s-0.256-0.025-0.333-0.079c-0.079-0.054-0.131-0.099-0.16-0.138
		c-0.038-0.05-0.067-0.104-0.087-0.159c-0.02-0.057-0.033-0.113-0.04-0.17c-0.006-0.057-0.011-0.112-0.011-0.165v-0.157v-2.896
		H97.97z"/>
	<path fill="#010203" d="M100.457,68.196c0.027,0,0.065-0.003,0.111-0.013c0.045-0.008,0.083-0.033,0.111-0.076
		c0.032-0.046,0.048-0.131,0.048-0.254v-0.552c0-0.071-0.002-0.137-0.005-0.196c-0.004-0.061-0.02-0.113-0.047-0.16
		c-0.04-0.06-0.085-0.095-0.138-0.107c-0.053-0.014-0.099-0.02-0.134-0.02h-0.122v1.378H100.457z M100.446,66.437
		c0.028,0,0.062-0.002,0.101-0.011c0.038-0.007,0.074-0.027,0.106-0.063c0.029-0.033,0.046-0.073,0.053-0.125
		c0.007-0.051,0.01-0.106,0.01-0.167v-0.445c0-0.039-0.003-0.084-0.008-0.136c-0.005-0.051-0.025-0.097-0.061-0.136
		c-0.024-0.024-0.058-0.044-0.098-0.061c-0.041-0.016-0.089-0.022-0.146-0.022h-0.122v1.165H100.446z M99.868,64.878h0.635
		c0.128,0,0.23,0.021,0.306,0.067c0.075,0.043,0.134,0.088,0.172,0.134c0.068,0.082,0.108,0.176,0.123,0.284
		c0.014,0.107,0.021,0.213,0.021,0.315v0.371c0,0.066-0.004,0.137-0.011,0.207c-0.009,0.07-0.029,0.136-0.064,0.196
		c-0.032,0.061-0.07,0.104-0.116,0.133c-0.046,0.027-0.096,0.047-0.149,0.058l-0.005,0.017c0.091,0.028,0.162,0.067,0.209,0.119
		c0.048,0.051,0.083,0.104,0.103,0.156c0.025,0.06,0.039,0.125,0.043,0.19c0.004,0.067,0.006,0.138,0.006,0.212v0.53
		c0,0.082-0.004,0.164-0.012,0.248c-0.006,0.081-0.032,0.161-0.079,0.235c-0.038,0.061-0.092,0.114-0.162,0.164
		c-0.069,0.05-0.163,0.074-0.283,0.074h-0.737V64.878z"/>
	<path fill="#010203" d="M102.901,67.515l-0.192-1.836l-0.01-0.005l-0.191,1.841H102.901z M103.012,68.59l-0.074-0.684h-0.467
		l-0.073,0.684h-0.425l0.467-3.712h0.529l0.468,3.712H103.012z"/>
	<rect x="104.348" y="64.878" fill="#010203" width="0.413" height="3.712"/>
</g>
</svg>
