<?xml version="1.0" encoding="utf-8"?>
<!-- Generator: Adobe Illustrator 16.0.0, SVG Export Plug-In . SVG Version: 6.00 Build 0)  -->
<!DOCTYPE svg PUBLIC "-//W3C//DTD SVG 1.1//EN" "http://www.w3.org/Graphics/SVG/1.1/DTD/svg11.dtd">
<svg version="1.1" id="Layer_1" xmlns="http://www.w3.org/2000/svg" xmlns:xlink="http://www.w3.org/1999/xlink" x="0px" y="0px"
	 width="200px" height="70px" viewBox="0 0 200 70" enable-background="new 0 0 200 70" xml:space="preserve">
<g>
	<text transform="matrix(1 0 0 1 27.5415 54.3691)" fill="#090405" font-family="'FuturaBT-MediumCondensed'" font-size="26.6945">sobha avenues</text>
	<path fill="#090405" d="M100,9.335c-6.038,0-10.951,4.913-10.951,10.951c0,6.039,4.913,10.951,10.951,10.951
		s10.951-4.912,10.951-10.951C110.951,14.248,106.038,9.335,100,9.335 M103.381,20.069c0.656-0.738,1.208-1.6,1.634-2.584
		c0.354-0.815,0.607-1.697,0.771-2.609c0.991-0.153,2.016-0.186,3.029-0.098c-0.371,2.103-1.274,3.971-2.566,5.291H103.381z
		 M105.507,29.104c-2.103-0.375-3.97-1.281-5.29-2.572v-2.863c0.738,0.656,1.602,1.209,2.584,1.633
		c0.816,0.354,1.698,0.611,2.61,0.773C105.564,27.065,105.596,28.089,105.507,29.104 M94.588,26.075
		c0.912-0.164,1.795-0.42,2.61-0.773c0.983-0.424,1.846-0.977,2.584-1.633v2.863c-1.321,1.293-3.188,2.197-5.291,2.572
		C94.403,28.089,94.436,27.065,94.588,26.075 M102.974,24.905c-1.1-0.477-2.048-1.109-2.82-1.881L100,22.87l-0.153,0.154
		c-0.773,0.771-1.722,1.404-2.82,1.881c-0.739,0.318-1.534,0.555-2.358,0.713c0.159-0.824,0.396-1.617,0.715-2.357
		c0.476-1.1,1.109-2.049,1.881-2.82l0.154-0.152l-0.154-0.154c-0.771-0.771-1.405-1.721-1.881-2.821
		c-0.319-0.738-0.556-1.533-0.715-2.357c0.824,0.158,1.619,0.396,2.357,0.715c1.101,0.477,2.05,1.109,2.821,1.882L100,17.704
		l0.153-0.152c0.772-0.772,1.721-1.405,2.82-1.882c0.738-0.319,1.533-0.556,2.357-0.715c-0.158,0.824-0.395,1.621-0.715,2.357
		c-0.476,1.101-1.108,2.05-1.881,2.821l-0.152,0.154l0.152,0.152c0.772,0.771,1.405,1.721,1.881,2.82
		c0.32,0.74,0.557,1.533,0.715,2.357C104.508,25.46,103.712,25.224,102.974,24.905 M94.491,11.472
		c2.105,0.375,3.972,1.278,5.291,2.568v2.866c-0.738-0.656-1.601-1.209-2.584-1.635c-0.815-0.353-1.698-0.607-2.61-0.771
		C94.436,13.51,94.403,12.486,94.491,11.472 M105.411,14.5c-0.912,0.164-1.794,0.419-2.61,0.771
		c-0.983,0.426-1.846,0.979-2.584,1.635V14.04c1.321-1.293,3.19-2.197,5.292-2.568C105.596,12.486,105.564,13.51,105.411,14.5
		 M100.217,13.452V9.775c1.776,0.036,3.444,0.514,4.901,1.329C103.211,11.492,101.505,12.31,100.217,13.452 M99.782,13.452
		c-1.285-1.14-2.991-1.957-4.901-2.348c1.457-0.815,3.126-1.293,4.901-1.329V13.452z M94.983,17.485
		c0.427,0.984,0.979,1.846,1.636,2.584h-2.865c-1.294-1.32-2.199-3.188-2.57-5.291c1.015-0.088,2.039-0.056,3.029,0.098
		C94.377,15.788,94.631,16.67,94.983,17.485 M93.166,20.069h-3.678c0.036-1.773,0.514-3.442,1.328-4.898
		C91.204,17.078,92.022,18.784,93.166,20.069 M93.166,20.505c-1.155,1.295-1.958,2.969-2.35,4.896
		c-0.814-1.455-1.291-3.123-1.328-4.896H93.166z M93.756,20.505h2.863c-0.656,0.738-1.209,1.6-1.636,2.584
		c-0.353,0.814-0.606,1.697-0.771,2.609c-0.99,0.152-2.015,0.186-3.03,0.098C91.56,23.665,92.444,21.839,93.756,20.505
		 M99.782,27.122v3.676c-1.773-0.037-3.441-0.514-4.897-1.328C96.791,29.079,98.496,28.261,99.782,27.122 M100.217,27.122
		c1.285,1.139,2.991,1.957,4.897,2.348c-1.455,0.814-3.123,1.291-4.897,1.328V27.122z M105.015,23.089
		c-0.426-0.984-0.978-1.846-1.634-2.584h2.866c1.309,1.336,2.192,3.16,2.569,5.291c-1.015,0.088-2.039,0.055-3.03-0.098
		C105.622,24.786,105.369,23.903,105.015,23.089 M106.836,20.505h3.675c-0.036,1.775-0.514,3.441-1.327,4.896
		C108.792,23.474,107.989,21.8,106.836,20.505 M106.836,20.069c1.142-1.287,1.959-2.993,2.348-4.899
		c0.813,1.457,1.291,3.124,1.327,4.899H106.836z M108.662,14.331c-0.938-0.067-1.88-0.039-2.798,0.091
		c0.131-0.917,0.159-1.86,0.091-2.797C107.014,12.354,107.932,13.273,108.662,14.331 M94.044,11.625
		c-0.068,0.937-0.04,1.88,0.091,2.797c-0.917-0.13-1.86-0.158-2.797-0.091C92.067,13.273,92.985,12.354,94.044,11.625 M91.34,26.243
		c0.936,0.068,1.878,0.039,2.795-0.092c-0.131,0.918-0.159,1.859-0.091,2.797C92.986,28.218,92.068,27.302,91.34,26.243
		 M105.955,28.948c0.068-0.938,0.039-1.881-0.091-2.797c0.609,0.086,1.229,0.133,1.852,0.133c0.313,0,0.629-0.016,0.942-0.039
		C107.93,27.302,107.012,28.218,105.955,28.948"/>
</g>
</svg>
