<?xml version="1.0" encoding="utf-8"?>
<!-- Generator: Adobe Illustrator 26.0.1, SVG Export Plug-In . SVG Version: 6.00 Build 0)  -->
<!DOCTYPE svg PUBLIC "-//W3C//DTD SVG 1.1//EN" "http://www.w3.org/Graphics/SVG/1.1/DTD/svg11.dtd" [
	<!ENTITY ns_extend "http://ns.adobe.com/Extensibility/1.0/">
	<!ENTITY ns_ai "http://ns.adobe.com/AdobeIllustrator/10.0/">
	<!ENTITY ns_graphs "http://ns.adobe.com/Graphs/1.0/">
	<!ENTITY ns_vars "http://ns.adobe.com/Variables/1.0/">
	<!ENTITY ns_imrep "http://ns.adobe.com/ImageReplacement/1.0/">
	<!ENTITY ns_sfw "http://ns.adobe.com/SaveForWeb/1.0/">
	<!ENTITY ns_custom "http://ns.adobe.com/GenericCustomNamespace/1.0/">
	<!ENTITY ns_adobe_xpath "http://ns.adobe.com/XPath/1.0/">
]>
<svg version="1.1" id="Layer_1" xmlns:x="&ns_extend;" xmlns:i="&ns_ai;" xmlns:graph="&ns_graphs;"
	 xmlns="http://www.w3.org/2000/svg" xmlns:xlink="http://www.w3.org/1999/xlink" x="0px" y="0px" viewBox="0 0 200 40.5"
	 style="enable-background:new 0 0 200 40.5;" xml:space="preserve">
<style type="text/css">
	.st0{fill:#808184;}
	.st1{clip-path:url(#SVGID_00000177478523491362062070000014250102611124014743_);}
	.st2{fill:#AC9C63;}
	.st3{fill:#038295;}
	
		.st4{clip-path:url(#SVGID_00000140709065172389054570000003092753119251113130_);fill:url(#SVGID_00000055681871704086026490000008859770827920143291_);}
	
		.st5{clip-path:url(#SVGID_00000107585174656993194420000018079345110027131039_);fill:url(#SVGID_00000079452791577114688520000017644449553906446267_);}
	
		.st6{clip-path:url(#SVGID_00000143601801667259483560000007976363484757792684_);fill:url(#SVGID_00000060738248350671773670000011456235820385985976_);}
	.st7{fill:url(#SVGID_00000113343215889684996560000015826793029069011091_);}
	.st8{fill:url(#SVGID_00000175289404211841760880000016725858176380316305_);}
	.st9{fill:url(#SVGID_00000054973835841932744170000007084718535401402765_);}
	.st10{fill:url(#SVGID_00000013888301430643721160000016508595464289440440_);}
	.st11{fill:url(#SVGID_00000108272602236943587400000003307557881724288692_);}
	.st12{fill:url(#SVGID_00000165233451770547961860000017094814940002398097_);}
	.st13{fill:url(#SVGID_00000159458112710955129160000004145526627014407841_);}
	.st14{fill:url(#SVGID_00000132802707721168057480000001630725643884195983_);}
	.st15{fill:url(#SVGID_00000060015620596490119880000005607843228172785559_);}
	.st16{fill:url(#SVGID_00000109001453561978675400000000920878017401403523_);}
	.st17{fill:url(#SVGID_00000056411173376429996540000015224942706784378810_);}
	.st18{fill:url(#SVGID_00000163046203886789541490000009711573239143179186_);}
	.st19{fill:url(#SVGID_00000033333786677943950960000011911149254982007728_);}
	.st20{fill:url(#SVGID_00000018221375854293079170000009568123448882085023_);}
	.st21{fill:url(#SVGID_00000112600848050871326330000007470541423576919703_);}
	.st22{fill:url(#SVGID_00000170278255175959908700000018132602410253424796_);}
	.st23{fill:url(#SVGID_00000036933294439642009100000009026600798757825930_);}
	.st24{fill:url(#SVGID_00000050636616136491495680000005272796319967074695_);}
	.st25{fill:url(#SVGID_00000058557713552223694810000011783859288073320614_);}
	.st26{fill:url(#SVGID_00000065035394804577649370000016417956426637763756_);}
	.st27{fill:url(#SVGID_00000094619429733541999970000017219643906270996358_);}
	.st28{fill:url(#SVGID_00000023980219289248950070000011915144589030753156_);}
	.st29{fill:url(#SVGID_00000127743936789904652370000010124151241758310536_);}
	.st30{fill:url(#SVGID_00000101072313957980393930000004962114630862130092_);}
	.st31{fill:url(#SVGID_00000111175082230240364390000017621751343819630267_);}
	.st32{fill:url(#SVGID_00000181801446816680079420000008377638434046093498_);}
	.st33{fill:url(#SVGID_00000128458509432636476750000003763562550131362964_);}
	.st34{fill:url(#SVGID_00000134955763031392832010000010232301289741709958_);}
	.st35{fill:url(#SVGID_00000000910029679496270630000003958772467470536331_);}
	.st36{fill:url(#SVGID_00000160181043476140528620000013693714991200382596_);}
	.st37{fill:url(#SVGID_00000173862905208359486120000008443429761502109341_);}
	.st38{fill:url(#SVGID_00000049184630068870932710000007550797435547571363_);}
	.st39{fill:url(#SVGID_00000079453640049844004730000004412237796049273271_);}
	.st40{fill:url(#SVGID_00000096058363088111608980000010016419656441982131_);}
	.st41{fill:url(#SVGID_00000163060914786318414150000017960910563371358894_);}
	.st42{fill:url(#SVGID_00000136413479980017334310000018245480153389497508_);}
	.st43{fill:url(#SVGID_00000161632519536411557720000016941002131500829067_);}
	.st44{fill:url(#SVGID_00000133504899303286693710000005692586071741390466_);}
	.st45{fill:url(#SVGID_00000044865524078825077300000013405248669341618835_);}
	.st46{fill:url(#SVGID_00000127020996400057213020000010186233308941929648_);}
	.st47{fill:url(#SVGID_00000106844011742943873580000008971282542388360610_);}
	.st48{fill:url(#SVGID_00000097471978308750258050000010222540988641474697_);}
	.st49{fill:url(#SVGID_00000137837614341660538690000017652844287668102820_);}
	.st50{fill:url(#SVGID_00000154426413857742895360000014938651078057270403_);}
	.st51{fill:url(#SVGID_00000155122463955165495210000004799263074357738686_);}
	.st52{fill:url(#SVGID_00000060006501708362377010000000045672597328534155_);}
	.st53{fill:url(#SVGID_00000008125926182638427350000010896367863207440540_);}
	.st54{fill:#6AC1D5;}
	.st55{fill:#73BAB2;}
	.st56{fill:url(#SVGID_00000041987493342034708030000017789202252546544285_);}
	.st57{fill:url(#SVGID_00000078758833710281954700000017251689419361531541_);}
	.st58{fill:url(#SVGID_00000092430459222302012840000011852088970507962513_);}
	.st59{fill:url(#SVGID_00000050638232433627592990000010719994363723016379_);}
	.st60{fill:url(#SVGID_00000040555633069327834730000010029672484936458409_);}
	.st61{fill:url(#SVGID_00000117657269995435683520000016574544684370945194_);}
	.st62{fill:url(#SVGID_00000138546146668215343000000013112143706265846946_);}
	.st63{fill:url(#SVGID_00000021811407864957688930000010160505145452616355_);}
	.st64{fill:url(#SVGID_00000168075602793955503400000000531408804622606232_);}
	.st65{fill:url(#SVGID_00000096762762878331825580000011486940855562289849_);}
	.st66{fill:url(#SVGID_00000052788877124989951060000012028937982139415487_);}
	.st67{fill:url(#SVGID_00000111180067723614196810000012386305718131553688_);}
	.st68{fill:url(#SVGID_00000132799282545685793360000018411024662888076954_);}
	.st69{fill:url(#SVGID_00000084525939860381864860000017860864232143698367_);}
	.st70{fill:url(#SVGID_00000183947863415435694410000001215481493725952666_);}
	.st71{fill:url(#SVGID_00000181085283856601128340000001856037602992614583_);}
	.st72{fill:url(#SVGID_00000176753425622155736330000005027608830590224312_);}
	.st73{fill:url(#SVGID_00000020359292911918495070000000264485505275551135_);}
	.st74{fill:url(#SVGID_00000109026426369580564890000018252157511942386318_);}
	.st75{fill:url(#SVGID_00000138538011936644914930000006828775722054212524_);}
	.st76{fill:url(#SVGID_00000034072727718955668800000003383025698683340951_);}
	.st77{fill:url(#SVGID_00000178891529962151737160000010000944059261735611_);}
	.st78{fill:url(#SVGID_00000058556796348109601820000009969230208469794177_);}
	.st79{fill:url(#SVGID_00000049193967758308671510000004664240914136026523_);}
	.st80{fill:url(#SVGID_00000035519172000166635550000009658809000190950020_);}
	.st81{fill:url(#SVGID_00000181065249677490593060000008210124016197824144_);}
	.st82{fill:url(#SVGID_00000094609318178777584320000003889973733220817547_);}
	.st83{fill:url(#SVGID_00000110444242845412843810000008540936300742800521_);}
	.st84{fill:url(#SVGID_00000016776059949488127910000003678665647242951313_);}
	.st85{fill:url(#SVGID_00000014611818044188375670000011221259403566737842_);}
	.st86{fill:url(#SVGID_00000181768689091432563700000016093997085044824763_);}
	.st87{fill:url(#SVGID_00000133522911657081533310000012521828300814708131_);}
	.st88{fill:url(#SVGID_00000062872241602079394840000002227508548082189241_);}
	.st89{fill:url(#SVGID_00000165935557327430818470000009379471328650931888_);}
	.st90{fill:#004F54;}
	.st91{fill-rule:evenodd;clip-rule:evenodd;fill:#065055;}
</style>
<metadata>
	<sfw  xmlns="&ns_sfw;">
		<slices></slices>
		<sliceSourceBounds  bottomLeftOrigin="true" height="536.8" width="2527.3" x="0.4" y="-381.9"></sliceSourceBounds>
	</sfw>
</metadata>
<g>
	<rect x="0.4" y="21.3" class="st90" width="198.9" height="0.2"/>
	<path class="st90" d="M179.5,6.5V3.3l-3,3.2H179.5z M179.5,10.4V8.1h-4.9c0,0,0,0,0,0V6.5l0,0l4.8-5.3l0,0h1.7c0,0,0,0,0,0v5.3h1.8
		c0,0,0,0,0,0v1.5c0,0,0,0,0,0h-1.8v2.3c0,0,0,0,0,0L179.5,10.4C179.6,10.4,179.5,10.4,179.5,10.4"/>
	<path class="st90" d="M17.1,10.2V1.1c0,0,0,0,0,0h6.1c0,0,0,0,0,0v1.6c0,0,0,0,0,0l-4.3,0v2.2l3,0c0,0,0,0,0,0v1.6c0,0,0,0,0,0
		l-3,0v2h4.7c0,0,0,0,0,0v1.6c0,0,0,0,0,0L17.1,10.2C17.1,10.2,17.1,10.2,17.1,10.2"/>
	<path class="st90" d="M26.1,10.2l3.4-4.4l-3.3-4.7c0,0,0-0.1,0-0.1h2.1c0,0,0,0,0,0l2.2,3.2L33.1,1l0,0h1.9c0,0,0.1,0,0,0.1
		l-3.5,4.5l3.3,4.6c0,0,0,0.1,0,0.1h-2.1c0,0,0,0,0,0l-2.2-3.1l-2.5,3.1l0,0L26.1,10.2C26.1,10.2,26,10.2,26.1,10.2"/>
	<path class="st90" d="M38.1,10.2V1.1c0,0,0,0,0,0h3.7c1.7,0,2.9,1.2,2.9,2.8c0,2.2-1.5,2.9-2.6,3l-2.3,0.1v3.3c0,0,0,0,0,0
		L38.1,10.2C38.1,10.2,38.1,10.2,38.1,10.2 M41.6,5.3c0.8,0,1.6-0.6,1.6-1.3c0-0.8-0.7-1.4-1.7-1.4h-1.6v2.7H41.6z"/>
	<path class="st90" d="M47.3,5.7c0-3,2.4-4.8,4.9-4.8C54.8,0.8,57,3,57,5.7c0,2.7-2.2,4.7-4.8,4.7C49.3,10.4,47.3,8.1,47.3,5.7
		 M55.1,5.7c0-1.7-1.3-3.2-3-3.2c-1.9,0-3,1.3-3,3.2c0,1.7,1.1,3.2,3,3.2C54.1,8.8,55.1,7.4,55.1,5.7"/>
	<path class="st90" d="M64.6,5.8c0-3,2.2-4.9,4.5-4.9c2.3,0,3.5,1.1,3.8,2.7c0,0,0,0,0,0l-1.5,0.5c0,0,0,0-0.1,0
		c-0.2-0.8-0.6-1.6-2.1-1.6c-1.7,0-2.8,1.1-2.8,3.2c0,1.8,0.9,3.2,2.8,3.2c1.3,0,2.3-0.5,2.3-1.6V7l-2.3,0c0,0,0,0,0,0V5.5
		c0,0,0,0,0,0h3.8c0,0,0,0,0,0v4.8c0,0,0,0,0,0h-1.5c0,0,0,0,0,0V9.4c-0.5,0.7-1.5,1-2.6,1C66.4,10.4,64.6,8.3,64.6,5.8"/>
	<path class="st90" d="M76,5.7c0-3,2.4-4.8,4.9-4.8c2.6,0,4.8,2.1,4.8,4.8c0,2.7-2.2,4.7-4.8,4.7C78,10.4,76,8.1,76,5.7 M83.9,5.7
		c0-1.7-1.3-3.2-3-3.2c-1.9,0-3,1.3-3,3.2c0,1.7,1.1,3.2,3,3.2C82.8,8.8,83.9,7.4,83.9,5.7"/>
	<path class="st90" d="M89,10.2V1.1c0,0,0,0,0,0h1.7c0,0,0,0,0,0v7.5l4.7,0c0,0,0,0,0,0v1.6c0,0,0,0,0,0L89,10.2
		C89,10.2,89,10.2,89,10.2"/>
	<path class="st90" d="M98.9,10.2V1.1c0,0,0,0,0,0h6.1c0,0,0,0,0,0v1.6c0,0,0,0,0,0l-4.3,0v2.3l2.7,0c0,0,0,0,0,0v1.6c0,0,0,0,0,0
		l-2.7,0v3.4c0,0,0,0,0,0L98.9,10.2C98.9,10.2,98.9,10.2,98.9,10.2"/>
	<path class="st90" d="M116.2,10.2l-3.6-9.1c0,0,0-0.1,0-0.1h1.9c0,0,0,0,0,0l2.3,6.2l2.5-6.2c0,0,0,0,0,0h1.8c0,0,0.1,0,0,0.1
		l-3.8,9.1c0,0,0,0,0,0L116.2,10.2C116.2,10.2,116.2,10.2,116.2,10.2"/>
	<path class="st90" d="M124.5,10.2V1.1c0,0,0,0,0,0h1.7c0,0,0,0,0,0v9.1c0,0,0,0,0,0L124.5,10.2C124.5,10.2,124.5,10.2,124.5,10.2"
		/>
	<path class="st90" d="M130.4,10.2V1.1c0,0,0,0,0,0h1.7c0,0,0,0,0,0v7.5l4.7,0c0,0,0,0,0,0v1.6c0,0,0,0,0,0L130.4,10.2
		C130.4,10.2,130.4,10.2,130.4,10.2"/>
	<path class="st90" d="M140.3,10.2V1.1c0,0,0,0,0,0h1.7c0,0,0,0,0,0v7.5l4.7,0c0,0,0,0,0,0v1.6c0,0,0,0,0,0L140.3,10.2
		C140.4,10.2,140.3,10.2,140.3,10.2"/>
	<path class="st90" d="M149.1,10.2l3.9-9.1c0,0,0,0,0,0h1.4c0,0,0,0,0,0l3.7,9.1c0,0,0,0.1,0,0.1h-1.8c0,0,0,0,0,0l-1-2.5h-3.3
		l-1,2.5c0,0,0,0,0,0L149.1,10.2C149.1,10.2,149.1,10.2,149.1,10.2 M154.8,6.2l-1-2.6l-1.1,2.6H154.8z"/>
	<path class="st90" d="M160.3,8.6C160.3,8.5,160.3,8.5,160.3,8.6l1.2-0.9c0,0,0.1,0,0.1,0c0.5,0.8,1.4,1.2,2.2,1.2
		c0.8,0,1.1-0.5,1.1-1c0-0.6-0.4-1.1-1.4-1.4c-1.7-0.6-2.7-1.4-2.7-3c0-1.5,1.2-2.5,2.7-2.5c1.5,0,2.5,0.8,3,1.6c0,0,0,0,0,0.1
		l-1.1,0.9c0,0,0,0-0.1,0c-0.5-0.5-1.1-1-1.8-1c-0.7,0-1,0.4-1,1c0,0.6,0.5,0.9,1.5,1.2c1.6,0.5,2.6,1.5,2.6,2.9
		c0,1.4-0.9,2.8-3.1,2.8C161.8,10.4,160.8,9.4,160.3,8.6"/>
	<polygon class="st90" points="55.2,32.3 55.2,39.6 60.3,39.6 60.3,39.1 56.4,39.1 56.4,35.9 59,35.9 59,35.4 56.4,35.4 56.4,32.8 
		60.3,32.8 60.3,32.3 	"/>
	<polygon class="st90" points="69.8,32.3 67.1,37.9 67,37.9 64.2,32.3 62.9,32.3 62.9,39.6 63.5,39.6 63.5,33.7 63.5,33.7 
		66.6,39.6 66.8,39.6 69.8,33.6 69.8,33.6 69.8,39.6 71.1,39.6 71.1,32.3 	"/>
	<path class="st90" d="M76.8,32.1l-3.5,7.5h0.6l1.2-2.4h3.1l1.1,2.4h1.2l-3.4-7.5H76.8z M76.7,33.8l1.3,2.9h-2.7L76.7,33.8z"/>
	<path class="st90" d="M85.4,32.1l-3.5,7.5h0.6l1.2-2.4h3.1l1.1,2.4h1.2l-3.4-7.5H85.4z M85.2,33.8l1.3,2.9h-2.7L85.2,33.8z"/>
	<path class="st90" d="M94.1,35.7c-0.2,0.1-0.5,0.1-0.8,0.1h-0.7v-3h1.1c0.2,0,0.4,0,0.6,0.1c0.2,0.1,0.4,0.2,0.5,0.3
		c0.1,0.1,0.2,0.3,0.3,0.5c0.1,0.2,0.1,0.4,0.1,0.6c0,0.2,0,0.5-0.1,0.6c-0.1,0.2-0.2,0.4-0.4,0.5C94.5,35.5,94.3,35.6,94.1,35.7
		 M95.5,35.8c0.2-0.1,0.4-0.3,0.6-0.4c0.2-0.2,0.3-0.3,0.4-0.5c0.1-0.2,0.1-0.4,0.1-0.6c0-0.3-0.1-0.5-0.2-0.8
		c-0.1-0.2-0.3-0.4-0.5-0.6c-0.2-0.2-0.5-0.3-0.8-0.4c-0.3-0.1-0.7-0.1-1.2-0.1h-2.5v7.3h1.2v-3.4h0.9l2.5,3.4h1.4l-2.7-3.5
		C95,36,95.3,35.9,95.5,35.8"/>
	<path class="st90" d="M108,36.4c-0.2-0.2-0.4-0.3-0.7-0.5c-0.2-0.1-0.5-0.3-0.8-0.4c-0.3-0.1-0.5-0.3-0.8-0.4
		c-0.2-0.1-0.5-0.3-0.7-0.4c-0.2-0.1-0.3-0.3-0.5-0.5c-0.1-0.2-0.2-0.3-0.2-0.5c0-0.1,0-0.3,0.1-0.4c0.1-0.1,0.1-0.2,0.3-0.4
		c0.1-0.1,0.3-0.2,0.4-0.3c0.2-0.1,0.4-0.1,0.6-0.1c0.3,0,0.5,0,0.7,0.1c0.2,0.1,0.4,0.2,0.5,0.3c0.2,0.1,0.3,0.3,0.4,0.5
		c0.1,0.2,0.2,0.4,0.3,0.6l0.6-0.3c-0.2-0.5-0.5-1-0.9-1.3c-0.4-0.3-0.9-0.4-1.6-0.4c-0.4,0-0.7,0-1,0.1c-0.3,0.1-0.5,0.2-0.7,0.4
		c-0.2,0.2-0.4,0.4-0.5,0.6c-0.1,0.2-0.2,0.5-0.2,0.8c0,0.3,0.1,0.5,0.2,0.7c0.1,0.2,0.3,0.4,0.5,0.6c0.2,0.2,0.4,0.3,0.6,0.5
		c0.2,0.1,0.5,0.3,0.7,0.4c0.2,0.1,0.5,0.3,0.7,0.4c0.2,0.1,0.5,0.3,0.6,0.4c0.2,0.1,0.3,0.3,0.5,0.5c0.1,0.2,0.2,0.4,0.2,0.6
		c0,0.2,0,0.3-0.1,0.5c-0.1,0.1-0.2,0.3-0.3,0.4c-0.1,0.1-0.3,0.2-0.5,0.2c-0.2,0-0.4,0.1-0.5,0.1c-0.2,0-0.5,0-0.7-0.1
		c-0.2-0.1-0.4-0.2-0.6-0.3c-0.2-0.1-0.3-0.3-0.5-0.5c-0.1-0.2-0.2-0.4-0.3-0.6l-0.7,0.3c0.1,0.3,0.2,0.5,0.4,0.7
		c0.1,0.2,0.3,0.4,0.5,0.5c0.2,0.1,0.5,0.3,0.7,0.3c0.3,0.1,0.6,0.1,0.9,0.1c0.4,0,0.8-0.1,1.1-0.2c0.3-0.1,0.6-0.3,0.8-0.5
		c0.2-0.2,0.4-0.4,0.5-0.7c0.1-0.3,0.2-0.5,0.2-0.8c0-0.3-0.1-0.5-0.2-0.7C108.3,36.8,108.1,36.6,108,36.4"/>
	<path class="st90" d="M117.4,37.3c-0.1,0.4-0.3,0.8-0.5,1.1c-0.2,0.3-0.5,0.6-0.8,0.7c-0.3,0.2-0.7,0.3-1.1,0.3
		c-0.4,0-0.8-0.1-1.1-0.3c-0.3-0.2-0.6-0.4-0.8-0.7c-0.2-0.3-0.4-0.7-0.5-1.1c-0.1-0.4-0.2-0.9-0.2-1.4c0-0.5,0.1-1,0.2-1.4
		c0.1-0.4,0.3-0.8,0.5-1.1c0.2-0.3,0.5-0.5,0.8-0.7c0.3-0.2,0.7-0.3,1.1-0.3c0.4,0,0.8,0.1,1.1,0.3c0.3,0.2,0.6,0.4,0.8,0.7
		c0.2,0.3,0.4,0.7,0.5,1.1c0.1,0.4,0.2,0.9,0.2,1.4C117.6,36.4,117.5,36.9,117.4,37.3 M118.5,34c-0.2-0.3-0.4-0.5-0.6-0.8
		c-0.2-0.2-0.5-0.4-0.8-0.6c-0.3-0.2-0.6-0.3-1-0.4c-0.3-0.1-0.7-0.1-1.1-0.1c-0.4,0-0.7,0-1.1,0.1c-0.3,0.1-0.7,0.2-1,0.4
		c-0.3,0.2-0.6,0.4-0.8,0.6c-0.2,0.2-0.5,0.5-0.6,0.8c-0.2,0.3-0.3,0.6-0.4,0.9c-0.1,0.3-0.1,0.7-0.1,1c0,0.4,0,0.7,0.1,1
		c0.1,0.3,0.2,0.6,0.4,0.9c0.2,0.3,0.4,0.5,0.6,0.8c0.2,0.2,0.5,0.4,0.8,0.6c0.3,0.2,0.6,0.3,1,0.4c0.3,0.1,0.7,0.1,1.1,0.1
		c0.4,0,0.7,0,1.1-0.1c0.3-0.1,0.7-0.2,1-0.4c0.3-0.2,0.6-0.4,0.8-0.6c0.2-0.2,0.5-0.5,0.6-0.8c0.2-0.3,0.3-0.6,0.4-0.9
		c0.1-0.3,0.1-0.7,0.1-1c0-0.3,0-0.7-0.1-1C118.8,34.6,118.6,34.3,118.5,34"/>
	<path class="st90" d="M127.4,37c0,0.3-0.1,0.6-0.2,0.9c-0.1,0.3-0.3,0.5-0.5,0.7c-0.2,0.2-0.4,0.4-0.7,0.5
		c-0.3,0.1-0.6,0.2-0.9,0.2c-0.3,0-0.7-0.1-0.9-0.2c-0.3-0.1-0.5-0.3-0.7-0.5c-0.2-0.2-0.4-0.4-0.5-0.7c-0.1-0.3-0.2-0.6-0.2-0.9
		v-4.7h-1.2V37c0,0.4,0.1,0.7,0.2,1.1c0.1,0.3,0.3,0.6,0.6,0.9c0.3,0.3,0.6,0.5,1,0.6c0.4,0.1,0.8,0.2,1.3,0.2
		c0.6,0,1.1-0.1,1.5-0.2c0.4-0.1,0.7-0.3,1-0.6c0.3-0.3,0.4-0.5,0.6-0.9c0.1-0.3,0.2-0.7,0.2-1.1v-4.7h-0.5V37z"/>
	<polygon class="st90" points="130.3,32.3 130.3,32.8 132.9,32.8 132.9,39.6 134.1,39.6 134.1,32.8 136.8,32.8 136.8,32.3 	"/>
	<polygon class="st90" points="144.1,32.3 144.1,35.6 140.4,35.6 140.4,32.3 139.2,32.3 139.2,39.6 140.4,39.6 140.4,36.1 
		144.1,36.1 144.1,39.6 145.3,39.6 145.3,32.3 	"/>
</g>
</svg>
