<?xml version="1.0" encoding="utf-8"?>
<!-- Generator: Adobe Illustrator 26.0.1, SVG Export Plug-In . SVG Version: 6.00 Build 0)  -->
<!DOCTYPE svg PUBLIC "-//W3C//DTD SVG 1.1//EN" "http://www.w3.org/Graphics/SVG/1.1/DTD/svg11.dtd" [
	<!ENTITY ns_extend "http://ns.adobe.com/Extensibility/1.0/">
	<!ENTITY ns_ai "http://ns.adobe.com/AdobeIllustrator/10.0/">
	<!ENTITY ns_graphs "http://ns.adobe.com/Graphs/1.0/">
	<!ENTITY ns_vars "http://ns.adobe.com/Variables/1.0/">
	<!ENTITY ns_imrep "http://ns.adobe.com/ImageReplacement/1.0/">
	<!ENTITY ns_sfw "http://ns.adobe.com/SaveForWeb/1.0/">
	<!ENTITY ns_custom "http://ns.adobe.com/GenericCustomNamespace/1.0/">
	<!ENTITY ns_adobe_xpath "http://ns.adobe.com/XPath/1.0/">
]>
<svg version="1.1" id="Layer_1" xmlns:x="&ns_extend;" xmlns:i="&ns_ai;" xmlns:graph="&ns_graphs;"
	 xmlns="http://www.w3.org/2000/svg" xmlns:xlink="http://www.w3.org/1999/xlink" x="0px" y="0px" viewBox="0 0 200 82.2"
	 style="enable-background:new 0 0 200 82.2;" xml:space="preserve">
<style type="text/css">
	.st0{fill:#808184;}
	.st1{clip-path:url(#SVGID_00000069396330930060699600000004159662929456110472_);}
	.st2{fill:#AC9C63;}
	.st3{fill:#038295;}
	
		.st4{clip-path:url(#SVGID_00000049205705395680174570000002265608773946308487_);fill:url(#SVGID_00000137118536980733898640000010753642961506744723_);}
	
		.st5{clip-path:url(#SVGID_00000169558078116370846830000000055754603637749673_);fill:url(#SVGID_00000114774754588629266950000008264257454578719400_);}
	
		.st6{clip-path:url(#SVGID_00000059285261293750912600000000904050497061623218_);fill:url(#SVGID_00000136385168714817867470000013390926701159212681_);}
	.st7{fill:url(#SVGID_00000036940911679145327640000012754438823195948445_);}
	.st8{fill:url(#SVGID_00000071528132242611377880000008421393146294134677_);}
	.st9{fill:url(#SVGID_00000060723716218725126390000017177545492591128992_);}
	.st10{fill:url(#SVGID_00000068663253893486121160000000577534255658049207_);}
	.st11{fill:url(#SVGID_00000128483583392988572590000004678972289477117094_);}
	.st12{fill:url(#SVGID_00000021814403715421241360000008257386414258643902_);}
	.st13{fill:url(#SVGID_00000114038526220107582570000013026461415360053897_);}
	.st14{fill:url(#SVGID_00000057851731517626335130000016612121635798274234_);}
	.st15{fill:url(#SVGID_00000005968671925158664070000013605880337543763889_);}
	.st16{fill:url(#SVGID_00000049924107817341079230000002871649157419542404_);}
	.st17{fill:url(#SVGID_00000157998843310095211500000007086722659778416290_);}
	.st18{fill:url(#SVGID_00000026162824867416594390000013943174322112036744_);}
	.st19{fill:url(#SVGID_00000089569997084177329360000009842287896306017979_);}
	.st20{fill:url(#SVGID_00000008138425709871492900000014792469816637769148_);}
	.st21{fill:url(#SVGID_00000176762158810011039600000017878877312130948020_);}
	.st22{fill:url(#SVGID_00000111192407176989556200000011757974967979918998_);}
	.st23{fill:url(#SVGID_00000119795860292757199750000004761517735390070961_);}
	.st24{fill:url(#SVGID_00000087396340583277907000000018201530994739222408_);}
	.st25{fill:url(#SVGID_00000068642136264684457050000007683090826199786370_);}
	.st26{fill:url(#SVGID_00000021838434099192111670000017616103943808498085_);}
	.st27{fill:url(#SVGID_00000090266854156679503200000018019148042440122010_);}
	.st28{fill:url(#SVGID_00000181808059976059229930000008815202845210894510_);}
	.st29{fill:url(#SVGID_00000086693757516661819480000000914017748098224536_);}
	.st30{fill:url(#SVGID_00000047741247044332432570000012971440034858552991_);}
	.st31{fill:url(#SVGID_00000160170772517454925580000002366865416639888020_);}
	.st32{fill:url(#SVGID_00000177464513392847393940000011822209089821711496_);}
	.st33{fill:url(#SVGID_00000026842990343279528390000004637391372676556467_);}
	.st34{fill:url(#SVGID_00000083793099752059111160000016416962355723459222_);}
	.st35{fill:url(#SVGID_00000126302404091684854650000007192978888711328640_);}
	.st36{fill:url(#SVGID_00000030448080430979310520000017965231832878477195_);}
	.st37{fill:url(#SVGID_00000020369568976926177380000008544334752732227005_);}
	.st38{fill:url(#SVGID_00000082349108102731691090000012152817492124457616_);}
	.st39{fill:url(#SVGID_00000038399680902412689770000003761820593356237716_);}
	.st40{fill:url(#SVGID_00000155825169568463752730000005354218991177866672_);}
	.st41{fill:url(#SVGID_00000098933198826270818860000001520592020045973127_);}
	.st42{fill:url(#SVGID_00000101811578658359131710000006092010370218660231_);}
	.st43{fill:url(#SVGID_00000171708772170764276070000000980566225670557620_);}
	.st44{fill:url(#SVGID_00000065045921839033271020000000810542034821344666_);}
	.st45{fill:url(#SVGID_00000124143164394319827690000010381840120717041595_);}
	.st46{fill:url(#SVGID_00000038412645583127702170000015499919423891501492_);}
	.st47{fill:url(#SVGID_00000073722154485068503480000009685205295721838775_);}
	.st48{fill:url(#SVGID_00000016788873337099911510000009840951150362727325_);}
	.st49{fill:url(#SVGID_00000165941217055088103540000005090011864962192790_);}
	.st50{fill:url(#SVGID_00000150098989769847457080000006915623607702587323_);}
	.st51{fill:url(#SVGID_00000127751232531582421980000009777441235960799130_);}
	.st52{fill:url(#SVGID_00000059993686125632786060000012912735337302151614_);}
	.st53{fill:url(#SVGID_00000101093404178629079380000017206289284693822876_);}
	.st54{fill:#6AC1D5;}
	.st55{fill:#73BAB2;}
	.st56{fill:url(#SVGID_00000010286798429219534790000012260806332614696083_);}
	.st57{fill:url(#SVGID_00000067216489997929486890000003962946388449174923_);}
	.st58{fill:url(#SVGID_00000168807741378642473750000004253749844287713664_);}
	.st59{fill:url(#SVGID_00000154399982849525894880000010932185935806301360_);}
	.st60{fill:url(#SVGID_00000026843213465706351070000001593804432716578444_);}
	.st61{fill:url(#SVGID_00000118381348960632029800000007314768613145019009_);}
	.st62{fill:url(#SVGID_00000117676277671991561780000001804620070334255760_);}
	.st63{fill:url(#SVGID_00000153689218875517497160000004674771124553732028_);}
	.st64{fill:url(#SVGID_00000057871239252737288990000015466066814449281943_);}
	.st65{fill:url(#SVGID_00000176043695191143522580000000479115045803211926_);}
	.st66{fill:url(#SVGID_00000033355658439164886360000008251268543124470404_);}
	.st67{fill:url(#SVGID_00000142151641557678363360000012429371007625089709_);}
	.st68{fill:url(#SVGID_00000056395169942615830310000018304421878348654745_);}
	.st69{fill:url(#SVGID_00000129922829969413662280000001781910322634358199_);}
	.st70{fill:url(#SVGID_00000096761090807759567740000017485828340783419017_);}
	.st71{fill:url(#SVGID_00000146495135443560754840000008568820308599347371_);}
	.st72{fill:url(#SVGID_00000024705282563730132040000000066651975087124872_);}
	.st73{fill:url(#SVGID_00000126307815948285523790000017059431218131664033_);}
	.st74{fill:url(#SVGID_00000168826789595159784790000003957329354206118050_);}
	.st75{fill:url(#SVGID_00000180336453197669701740000009497518457091921064_);}
	.st76{fill:url(#SVGID_00000113354611669607883540000016081506574218787241_);}
	.st77{fill:url(#SVGID_00000018928746786611674160000009872626911574646971_);}
	.st78{fill:url(#SVGID_00000072991705694627457250000016951191778600740000_);}
	.st79{fill:url(#SVGID_00000033346422493906664850000000332223344938615207_);}
	.st80{fill:url(#SVGID_00000021809816204411301450000004826013243112062113_);}
	.st81{fill:url(#SVGID_00000144337188974650509600000015537405176174646931_);}
	.st82{fill:url(#SVGID_00000140720040681088749950000002591411811782544288_);}
	.st83{fill:url(#SVGID_00000178906010124571845780000016617664602778325668_);}
	.st84{fill:url(#SVGID_00000109714660407369229340000000874508073949044398_);}
	.st85{fill:url(#SVGID_00000083055139339380324570000009705161953504077246_);}
	.st86{fill:url(#SVGID_00000132794366146976499390000008731174679757113512_);}
	.st87{fill:url(#SVGID_00000055666471621273439060000003708328829360144288_);}
	.st88{fill:url(#SVGID_00000155105259005319059890000009077731785714011036_);}
	.st89{fill:url(#SVGID_00000069387345458605923830000004037692518347981722_);}
	.st90{fill:#004F54;}
	.st91{fill-rule:evenodd;clip-rule:evenodd;fill:#065055;}
	.st92{fill:#7A9699;}
	.st93{fill:#87A4AB;}
	
		.st94{clip-path:url(#SVGID_00000125581503696482383480000011602773228555044523_);fill:url(#SVGID_00000108291838661011553180000015055018896207259523_);}
	
		.st95{clip-path:url(#SVGID_00000062178588609178626230000015225768326475507099_);fill:url(#SVGID_00000089566533295967939300000004551779397418784441_);}
	
		.st96{clip-path:url(#SVGID_00000027572678170139815370000006179791824965583031_);fill:url(#SVGID_00000065075928073376754430000005813902174277736382_);}
	
		.st97{clip-path:url(#SVGID_00000124856337872605596000000015166097273833387189_);fill:url(#SVGID_00000161613019371291718620000004877222165150589366_);}
	
		.st98{clip-path:url(#SVGID_00000173129653052927232210000007910697980935624600_);fill:url(#SVGID_00000039853215569449977040000003281905152157920137_);}
	
		.st99{clip-path:url(#SVGID_00000157999320247961052070000016234671367557318072_);fill:url(#SVGID_00000011724591470666145540000005418262771747847072_);}
	
		.st100{clip-path:url(#SVGID_00000070099044573790129670000002394923790714203041_);fill:url(#SVGID_00000180335735123968445330000004382863811118293166_);}
	
		.st101{clip-path:url(#SVGID_00000129179868753061101920000013910556801431741106_);fill:url(#SVGID_00000067223657846217688470000006213130164982624160_);}
	
		.st102{clip-path:url(#SVGID_00000000901975533488800130000012670085766875255435_);fill:url(#SVGID_00000107573060717257012640000018201842995686470033_);}
	
		.st103{clip-path:url(#SVGID_00000095333367618225251460000006104152260825437832_);fill:url(#SVGID_00000065760412368001425700000009227125978406960282_);}
	
		.st104{clip-path:url(#SVGID_00000071556343967518406590000017260155257979806594_);fill:url(#SVGID_00000134217202211772212570000001450251845223481777_);}
	
		.st105{clip-path:url(#SVGID_00000008132631517493706690000011954316047150034595_);fill:url(#SVGID_00000125567623714011212120000016512587674347636898_);}
	
		.st106{clip-path:url(#SVGID_00000116207549001857889120000007719154426756651926_);fill:url(#SVGID_00000036245319037760239850000002908647404610644647_);}
	
		.st107{clip-path:url(#SVGID_00000122704764439224260140000012911758797320412813_);fill:url(#SVGID_00000091737473322086265940000007142019923375169429_);}
	
		.st108{clip-path:url(#SVGID_00000146465894345078518510000002560185124214864039_);fill:url(#SVGID_00000053527301088113987570000002963022352636013986_);}
	
		.st109{clip-path:url(#SVGID_00000142894262495107036010000003909465047383576987_);fill:url(#SVGID_00000096752180337454137210000005591875058759486134_);}
	
		.st110{clip-path:url(#SVGID_00000055671423083826684370000008020496219020353177_);fill:url(#SVGID_00000093134441417632513490000001264078387371627941_);}
	
		.st111{clip-path:url(#SVGID_00000104694927036330939800000010584913423525524365_);fill:url(#SVGID_00000170249175928320684280000010510206982186707372_);}
	
		.st112{clip-path:url(#SVGID_00000134959070424709788130000016252915788526318256_);fill:url(#SVGID_00000047057046197069701240000010453362019215451017_);}
	
		.st113{clip-path:url(#SVGID_00000059268307278102650170000000433282769982551714_);fill:url(#SVGID_00000173124660399423883140000001105138660158245008_);}
	
		.st114{clip-path:url(#SVGID_00000008852924109605481400000011249724901485658264_);fill:url(#SVGID_00000014623268959331986440000008087223681828947615_);}
	
		.st115{clip-path:url(#SVGID_00000091014692553380743830000016150484799862094991_);fill:url(#SVGID_00000067952039927602721450000003990494199793352610_);}
	
		.st116{clip-path:url(#SVGID_00000058568210214377215400000012725653570680936102_);fill:url(#SVGID_00000181077223569764269000000002073739585916653721_);}
	
		.st117{clip-path:url(#SVGID_00000096755292924498225530000011121186077982706067_);fill:url(#SVGID_00000087383567917754262690000007595185222787200414_);}
	
		.st118{clip-path:url(#SVGID_00000090254357960719233940000015524808840463598722_);fill:url(#SVGID_00000061464578707172757840000005177110713257682077_);}
	
		.st119{clip-path:url(#SVGID_00000036973336361440904160000001460045937723355834_);fill:url(#SVGID_00000031890298626470262340000012825035880555137453_);}
	
		.st120{clip-path:url(#SVGID_00000127735176398383321660000010355537223708879523_);fill:url(#SVGID_00000096773981115834009540000009886652902489918094_);}
	.st121{fill:#68934B;}
	.st122{fill:#5F7360;}
	.st123{fill:#7D897A;}
	.st124{fill:#5B8172;}
	.st125{fill:#54665D;}
	.st126{clip-path:url(#SVGID_00000141421780111345245010000003378934463956259493_);fill:#54665D;}
	.st127{fill:#00495C;}
</style>
<metadata>
	<sfw  xmlns="&ns_sfw;">
		<slices></slices>
		<sliceSourceBounds  bottomLeftOrigin="true" height="1021.1" width="4161.2" x="-38.2" y="-866.2"></sliceSourceBounds>
	</sfw>
</metadata>
<g>
	<path class="st124" d="M60.2,1.2h5.4c3.1,0,5.3,1.4,5.3,3.7c0,1.5-1.1,2.9-2.7,3.5c2.5,0.8,3.9,2.4,3.9,4.5c0,2.5-1.7,5.1-6.5,5.1
		h-5.4V1.2z M62,8h3.6c2.6,0,3.5-1.5,3.5-2.8c0-2.2-1.2-3.3-4.9-3.3C63.6,1.9,62,2,62,2V8z M65.4,8.6H62V14c0,3.1,0.5,3.2,3.4,3.2
		c2.7,0,4.6-2,4.6-4.3C70.1,10.5,68.5,8.6,65.4,8.6"/>
	<rect x="98.4" y="1.2" class="st124" width="1.8" height="16.7"/>
	<rect x="135.6" y="1.2" class="st124" width="1.8" height="16.7"/>
	<polygon class="st124" points="154.7,17 154.7,17.9 144.5,17.9 144.5,1.2 146.4,1.2 146.4,17 	"/>
	<polygon class="st124" points="170.5,17 170.5,17.9 160.4,17.9 160.4,1.2 162.2,1.2 162.2,17 	"/>
	<path class="st124" d="M178,7.9c-1.8-1-3.4-1.9-3.4-3.6c0-1.5,1.2-2.7,2.9-2.7c0.7,0,1.5,0.1,2.3,0.3V1.4c-0.6-0.2-1.1-0.4-2.1-0.4
		c-2.9,0-4.7,1.5-4.7,4c0,1.9,1.8,3.2,3.8,4.3c3,1.7,4.4,2.8,4.4,4.9c0,1.9-1.7,3.1-3.9,3.1c-0.5,0-0.9-0.1-1.3-0.1v0.7
		c0.4,0.1,0.9,0.1,1.3,0.1c3.4,0,5.8-2.2,5.8-4.4C183.1,10.8,180.7,9.4,178,7.9"/>
	<path class="st124" d="M84,1.2h1l7.1,16.7h-1.6l-2.1-5h-7.7l-2.1,5h-1.7L84,1.2z M81.2,11.6h6.6l-3.3-7.7L81.2,11.6z"/>
	<polygon class="st124" points="126.8,1.2 126.8,8.9 117,8.9 117,1.2 115.2,1.2 115.2,17.9 117,17.9 117,10.2 126.7,10.2 
		126.8,17.9 128.6,17.9 128.6,1.2 	"/>
	<path class="st124" d="M23.2,17.9c-1.3,0-5.1,0-5.1,0l-0.8,0l0.3-0.8c2.7-8.4,0-14.9,0-15l-0.3-0.8l0.9,0c0.2,0,4-0.1,5.1-0.1
		c5.5,0,9.5,3.4,9.5,8.1C32.7,14.1,28.6,17.9,23.2,17.9 M19.7,17c1.2,0,2.7,0.1,3.6,0.1c4.7,0,7-3.6,7-7.8c0-4-2.2-7.1-7-7.2
		c-0.8,0-2.3,0-3.5,0C20.4,4.1,21.7,10.2,19.7,17"/>
	<path class="st124" d="M52.3,1.2v10.2c0,3.9-2.7,6.4-5.7,6.4v0c-3.2,0-5.7-2.4-5.7-6.4V1.2h-1.8v9.5c0,4.7,2.9,7.9,7.5,7.9v0
		c4.4,0,7.1-3.4,7.1-7.9V1.2H52.3z"/>
	<polygon class="st124" points="80.6,36.8 80.6,37.3 74.7,37.3 74.7,27.7 75.7,27.7 75.7,36.8 	"/>
	<rect x="74.7" y="27.6" class="st124" width="5.9" height="0.5"/>
	<rect x="74.7" y="31.8" class="st124" width="4.8" height="0.5"/>
	<rect x="119.8" y="31.8" class="st124" width="4.8" height="0.5"/>
	<polygon class="st124" points="125.7,36.8 125.7,37.3 119.8,37.3 119.8,27.7 120.9,27.7 120.9,36.8 	"/>
	<rect x="119.8" y="27.6" class="st124" width="5.9" height="0.5"/>
	<path class="st124" d="M86.6,31.6c-1-0.6-1.9-1.1-1.9-2.1c0-0.9,0.7-1.5,1.7-1.5c0.4,0,0.9,0,1.3,0.2v-0.4
		c-0.3-0.1-0.7-0.2-1.2-0.2c-1.6,0-2.7,0.9-2.7,2.3c0,1.1,1,1.9,2.2,2.5c1.8,1,2.6,1.6,2.6,2.8c0,1.1-1,1.8-2.2,1.8
		c-0.3,0-0.5,0-0.8-0.1v0.4c0.2,0,0.5,0.1,0.8,0.1c2,0,3.3-1.3,3.3-2.6C89.6,33.2,88.2,32.4,86.6,31.6"/>
	<rect x="109.2" y="27.6" class="st124" width="6.9" height="0.5"/>
	<polygon class="st124" points="113.2,36.8 113.2,27.7 112.1,27.7 112.1,37.3 113.2,37.3 	"/>
	<rect x="91.6" y="27.6" class="st124" width="6.9" height="0.5"/>
	<polygon class="st124" points="95.5,36.8 95.5,27.7 94.5,27.7 94.5,37.3 95.5,37.3 	"/>
	<path class="st124" d="M103.8,27.7h0.6l4.1,9.7h-1l-1.2-2.9h-4.4l-1.2,2.9h-1L103.8,27.7z M102.1,33.7h3.8l-1.9-4.5L102.1,33.7z"/>
	<path class="st124" d="M49.6,77c0.7,0,1.2-0.2,1.6-0.5c0.4-0.3,0.6-0.8,0.6-1.5c0-0.7-0.2-1.2-0.6-1.5c-0.4-0.3-0.9-0.5-1.6-0.5
		h-3.2v4H49.6z M49.8,72.1c0.4,0,0.8,0.1,1.2,0.2c0.4,0.1,0.7,0.3,0.9,0.6c0.3,0.2,0.5,0.5,0.6,0.9c0.1,0.3,0.2,0.7,0.2,1.2
		c0,0.4-0.1,0.8-0.2,1.2c-0.1,0.3-0.3,0.6-0.6,0.9c-0.3,0.2-0.6,0.4-0.9,0.6c-0.4,0.1-0.8,0.2-1.2,0.2h-3.4V82h-0.9v-9.8H49.8z"/>
	<path class="st124" d="M62.5,78.1l-1.9-5l-2,5H62.5z M61.2,72.1l3.9,9.8h-1l-1.2-3.1h-4.5L57.2,82h-1l4-9.8H61.2z"/>
	<path class="st124" d="M74.5,76.8c0.3,0,0.6,0,0.8-0.1c0.3-0.1,0.5-0.2,0.7-0.4c0.2-0.2,0.3-0.4,0.5-0.6c0.1-0.2,0.2-0.5,0.2-0.8
		c0-0.6-0.2-1.1-0.5-1.4c-0.3-0.3-0.9-0.5-1.6-0.5H71v3.9H74.5z M74.6,72.1c0.4,0,0.8,0.1,1.2,0.2c0.4,0.1,0.7,0.3,1,0.5
		c0.3,0.2,0.5,0.5,0.6,0.8c0.2,0.3,0.2,0.7,0.2,1.2c0,0.6-0.2,1.2-0.5,1.6c-0.3,0.5-0.8,0.8-1.4,0.9v0c0.3,0,0.6,0.1,0.8,0.3
		c0.2,0.1,0.4,0.3,0.5,0.5c0.1,0.2,0.2,0.4,0.3,0.7c0.1,0.3,0.1,0.5,0.1,0.8c0,0.2,0,0.4,0,0.6c0,0.2,0,0.5,0.1,0.7
		c0,0.2,0.1,0.5,0.1,0.7c0.1,0.2,0.1,0.4,0.2,0.5h-1c-0.1-0.1-0.1-0.2-0.1-0.3c0-0.1-0.1-0.3-0.1-0.4c0-0.1,0-0.3,0-0.4
		c0-0.1,0-0.3,0-0.4c0-0.3,0-0.7-0.1-1c0-0.3-0.1-0.7-0.3-0.9c-0.1-0.3-0.3-0.5-0.6-0.7c-0.3-0.2-0.6-0.2-1-0.2H71V82h-0.9v-9.8
		H74.6z"/>
	<polygon class="st124" points="84.3,72.1 84.3,77.4 90.1,72.1 91.3,72.1 86.9,76.2 91.5,82 90.3,82 86.2,76.8 84.3,78.6 84.3,82 
		83.4,82 83.4,72.1 	"/>
	<polygon class="st124" points="110.7,72.1 110.7,72.9 105.4,72.9 105.4,76.5 110.1,76.5 110.1,77.3 105.4,77.3 105.4,82 104.4,82 
		104.4,72.1 	"/>
	<rect x="116" y="72.1" class="st124" width="0.9" height="9.8"/>
	<polygon class="st124" points="129.9,72.1 129.9,72.9 124.1,72.9 124.1,76.5 129.6,76.5 129.6,77.3 124.1,77.3 124.1,81.2 
		130,81.2 130,82 123.1,82 123.1,72.1 	"/>
	<polygon class="st124" points="136.4,72.1 136.4,81.2 141.9,81.2 141.9,82 135.4,82 135.4,72.1 	"/>
	<path class="st124" d="M149.9,81.2c0.7,0,1.3-0.1,1.8-0.2c0.5-0.2,0.9-0.4,1.3-0.7c0.3-0.3,0.6-0.8,0.7-1.3
		c0.2-0.5,0.2-1.2,0.2-1.9c0-0.7-0.1-1.4-0.2-1.9c-0.2-0.5-0.4-1-0.7-1.3c-0.3-0.3-0.8-0.6-1.3-0.7c-0.5-0.2-1.1-0.2-1.8-0.2h-2v8.2
		H149.9z M150.4,72.1c1.5,0,2.6,0.5,3.4,1.3c0.8,0.8,1.1,2,1.1,3.7c0,1.6-0.4,2.9-1.1,3.7c-0.8,0.8-1.9,1.2-3.4,1.3H147v-9.8H150.4z
		"/>
</g>
</svg>
