<?xml version="1.0" encoding="utf-8"?>
<!-- Generator: Adobe Illustrator 26.0.1, SVG Export Plug-In . SVG Version: 6.00 Build 0)  -->
<!DOCTYPE svg PUBLIC "-//W3C//DTD SVG 1.1//EN" "http://www.w3.org/Graphics/SVG/1.1/DTD/svg11.dtd" [
	<!ENTITY ns_extend "http://ns.adobe.com/Extensibility/1.0/">
	<!ENTITY ns_ai "http://ns.adobe.com/AdobeIllustrator/10.0/">
	<!ENTITY ns_graphs "http://ns.adobe.com/Graphs/1.0/">
	<!ENTITY ns_vars "http://ns.adobe.com/Variables/1.0/">
	<!ENTITY ns_imrep "http://ns.adobe.com/ImageReplacement/1.0/">
	<!ENTITY ns_sfw "http://ns.adobe.com/SaveForWeb/1.0/">
	<!ENTITY ns_custom "http://ns.adobe.com/GenericCustomNamespace/1.0/">
	<!ENTITY ns_adobe_xpath "http://ns.adobe.com/XPath/1.0/">
]>
<svg version="1.1" id="Layer_1" xmlns:x="&ns_extend;" xmlns:i="&ns_ai;" xmlns:graph="&ns_graphs;"
	 xmlns="http://www.w3.org/2000/svg" xmlns:xlink="http://www.w3.org/1999/xlink" x="0px" y="0px" viewBox="0 0 200 83.5"
	 style="enable-background:new 0 0 200 83.5;" xml:space="preserve">
<style type="text/css">
	.st0{fill:#080505;}
	.st1{fill:#F8AF41;}
	.st2{fill:#376278;}
	.st3{fill:#FFC663;}
	.st4{fill:#F6CE76;}
	.st5{fill:#0D98BB;}
	.st6{fill:#70B599;}
	.st7{fill:#EAE3AC;}
	.st8{fill:#91060D;}
	.st9{fill:#2D628C;}
	.st10{fill:#012944;}
	.st11{fill:#043754;}
	.st12{fill:#1D324D;}
	.st13{fill:#8C7449;}
	.st14{fill:#003756;}
	.st15{fill:#53B2D3;}
	.st16{fill:#082042;}
	.st17{fill:#055985;}
	.st18{fill:#A08C6A;}
	.st19{clip-path:url(#SVGID_00000063608849425371647880000011046387266456718212_);}
	.st20{filter:url(#Adobe_OpacityMaskFilter);}
	.st21{opacity:0.9;mask:url(#SVGID_00000160900029376069554770000007312762408134627219_);fill:#FFFFFF;}
	.st22{filter:url(#Adobe_OpacityMaskFilter_00000163777962597792104420000007904168508300692127_);}
	.st23{opacity:0.75;mask:url(#SVGID_00000008141273402839785940000015805520082684681112_);}
	.st24{filter:url(#Adobe_OpacityMaskFilter_00000099620024618793660510000017705994603042814606_);}
	.st25{mask:url(#SVGID_00000157990436623675422070000017326659383286520737_);fill:#FFFFFF;}
	.st26{filter:url(#Adobe_OpacityMaskFilter_00000034801323174724061790000007421929942314911156_);}
	.st27{opacity:0.75;mask:url(#SVGID_00000075159571889366173730000009252000842304911546_);}
	.st28{fill:none;stroke:#000000;stroke-width:1.2;}
	.st29{clip-path:url(#SVGID_00000028296725436329490570000008090606121867510968_);}
	.st30{fill:#1E2731;}
	.st31{fill:#777779;}
	
		.st32{clip-path:url(#SVGID_00000119114246263707860910000016263103118975604645_);fill:url(#SVGID_00000134932495417099451520000004112465210581794235_);}
</style>
<metadata>
	<sfw  xmlns="&ns_sfw;">
		<slices></slices>
		<sliceSourceBounds  bottomLeftOrigin="true" height="515.4" width="2527.2" x="1.1" y="-405.1"></sliceSourceBounds>
	</sfw>
</metadata>
<g>
	<polygon points="99.8,76.3 98.6,75.1 99.8,74 101,75.1 	"/>
	<path d="M42.7,72.1L41,76.2h3.3L42.7,72.1 M47.7,80.7h-0.2c-0.1,0-0.3,0-0.5,0c-0.3,0-0.4,0-0.5,0c-0.1,0-0.2,0-0.5,0
		c-0.3,0-0.4,0-0.6,0h-0.2c0.2-0.3,0.3-0.6,0.3-0.9c0-0.2-0.1-0.5-0.2-0.8c-0.1-0.3-0.1-0.5-0.2-0.6L45,78.1c0-0.1-0.1-0.2-0.2-0.4
		c-0.1-0.2-0.1-0.4-0.2-0.4l-0.1-0.3h-3.9l-0.1,0.3c-0.5,1.2-0.7,2-0.7,2.4c0,0.4,0.1,0.7,0.4,1h-0.2c-0.1,0-0.3,0-0.5,0
		c-0.2,0-0.4,0-0.4,0c-0.1,0-0.3,0-0.5,0c-0.2,0-0.4,0-0.4,0h-0.2c0.3-0.5,0.6-1.1,0.9-1.7c0.1-0.3,0.4-0.9,0.7-1.8l3.2-7.9l3.1,7.9
		c0.3,0.9,0.6,1.5,0.7,1.8C47.1,79.9,47.4,80.4,47.7,80.7"/>
	<path d="M53.7,81c-1.1,0-2-0.2-3-0.6c-0.9-0.4-1.7-1.1-2.3-2c-0.6-0.9-0.9-2-0.9-3.2c0-1.7,0.6-3.1,1.8-4.2
		c1.2-1.1,2.7-1.6,4.4-1.6c1.2,0,2.4,0.3,3.5,0.8c0,0.4,0,0.7,0,0.9c0,0.7,0,1.3-0.1,1.8c-0.4-1-0.8-1.7-1.3-2.1
		c-0.5-0.4-1.2-0.7-2.1-0.7c-1.4,0-2.5,0.5-3.4,1.4c-0.9,0.9-1.3,2.1-1.3,3.6c0,1.5,0.5,2.8,1.5,3.7c1,0.9,2.1,1.4,3.4,1.4
		c0.9,0,1.6-0.3,2.1-0.8c0.5-0.5,0.9-1.3,1.4-2.4c0,0.3,0.1,0.6,0.1,1c0,0.8-0.1,1.5-0.2,2C56.2,80.7,55,81,53.7,81"/>
	<path d="M64.6,80.7h-0.2c0,0-0.1,0-0.1,0c0,0-0.1,0-0.2,0c-0.1,0-0.2,0-0.2,0c-0.3,0-0.5,0-0.7,0c-0.2,0-0.4,0-0.7,0
		c-0.1,0-0.2,0-0.2,0c-0.1,0-0.2,0-0.2,0c0,0-0.1,0-0.1,0h-0.2c0.5-0.4,0.7-1,0.7-1.7c0-0.5,0-1.1,0-1.8v-4.6c0-0.8,0-1.3,0-1.6
		c0-0.3-0.1-0.5-0.2-0.6c-0.1-0.1-0.3-0.1-0.7-0.1c-0.4,0-0.7,0-1.1,0.1c-0.4,0.1-0.8,0.2-1.1,0.5c-0.3,0.3-0.5,0.7-0.8,1.2
		c-0.1-0.4-0.1-0.9-0.1-1.5c0-0.4,0-0.7,0-1c0.4,0,1,0,1.8,0h5.5c0.8,0,1.4,0,1.8,0c0,0.3,0,0.6,0,1c0,0.6,0,1.1-0.1,1.5
		c-0.2-0.5-0.5-0.9-0.8-1.2c-0.3-0.3-0.6-0.5-1.1-0.5c-0.4-0.1-0.7-0.1-1.1-0.1c-0.4,0-0.6,0-0.7,0.1c-0.1,0.1-0.2,0.3-0.2,0.6
		c0,0.3,0,0.9,0,1.6v4.6c0,0.3,0,0.8,0,1.8c0,0.4,0.1,0.7,0.2,1C64.1,80.2,64.3,80.5,64.6,80.7"/>
	<path d="M76.8,70.1c-1.2,0-2.2,0.6-3,1.8c-0.9,1.2-1.3,2.7-1.3,4.5c0,1.1,0.3,2,0.8,2.7c0.5,0.7,1.2,1.1,2.2,1.1
		c1.2,0,2.2-0.6,3-1.8c0.9-1.2,1.3-2.7,1.3-4.5c0-1.1-0.3-2-0.8-2.7C78.4,70.5,77.7,70.1,76.8,70.1 M75.4,81c-1.3,0-2.4-0.5-3.2-1.4
		c-0.8-0.9-1.2-2.2-1.2-3.7c0-0.9,0.2-1.7,0.5-2.6c0.3-0.8,0.8-1.5,1.3-2.1c1.2-1.2,2.5-1.9,3.9-1.9c1.3,0,2.4,0.5,3.2,1.4
		c0.8,0.9,1.2,2.2,1.2,3.7c0,0.9-0.2,1.7-0.5,2.6c-0.3,0.8-0.8,1.5-1.3,2.1c-0.5,0.6-1.1,1-1.8,1.3C76.8,80.8,76.1,81,75.4,81"/>
	<path d="M86.2,80.9c-0.2,0-0.4-0.1-0.5-0.2c-0.1-0.1-0.2-0.3-0.2-0.5c0-0.3,0.1-0.9,0.4-1.8l0.8-2.4c0.1-0.4,0.2-0.7,0.2-1
		c0-0.3-0.2-0.5-0.5-0.5c-0.4,0-0.8,0.3-1.3,0.8c-0.5,0.6-0.9,1.3-1.1,2.3l-0.8,3.2l-1.1-0.3c0.4-1.4,0.7-2.4,0.8-2.9l0.5-2.2
		c0.1-0.3,0.1-0.6,0.1-0.7c0-0.2-0.1-0.2-0.2-0.2c-0.3,0-0.7,0.4-1.3,1.3c0.1-0.7,0.3-1.3,0.7-1.7c0.4-0.4,0.7-0.6,1.1-0.6
		c0.2,0,0.4,0.1,0.5,0.2c0.1,0.2,0.2,0.4,0.2,0.6c0,0.3-0.1,0.7-0.2,1.2c0.9-1.4,1.7-2.1,2.4-2.1c0.3,0,0.6,0.1,0.8,0.3
		c0.2,0.2,0.3,0.5,0.3,0.9c0,0.3-0.1,0.8-0.2,1.3c-0.6,1.9-1,3-1.1,3.4c0,0.1-0.1,0.2-0.1,0.3c0,0.1,0,0.2,0.1,0.2
		c0.3,0,0.9-0.5,1.6-1.5c-0.2,0.8-0.5,1.4-0.9,1.8C87,80.6,86.6,80.9,86.2,80.9"/>
	<path d="M92.7,74.3c-0.4,0-0.8,0.3-1.2,0.8c-0.4,0.5-0.7,1.1-1,1.9c1.7-0.5,2.6-1.2,2.6-2.1C93.1,74.5,93,74.3,92.7,74.3 M90.7,81
		c-0.5,0-0.8-0.2-1.1-0.5c-0.3-0.3-0.4-0.7-0.4-1.3c0-0.9,0.2-1.8,0.6-2.7c0.4-0.9,0.9-1.6,1.5-2.2c0.6-0.6,1.2-0.9,1.7-0.9
		c0.4,0,0.6,0.1,0.8,0.3c0.2,0.2,0.3,0.5,0.3,0.8c0,0.6-0.3,1.2-0.9,1.7c-0.6,0.5-1.6,0.9-2.8,1.1c-0.1,0.5-0.2,0.9-0.2,1.4
		c0,0.8,0.2,1.1,0.7,1.1c0.3,0,0.6-0.1,1-0.4c0.3-0.3,0.8-0.8,1.3-1.6c-0.2,1-0.6,1.7-1,2.2C91.7,80.7,91.2,81,90.7,81"/>
	<path d="M110,72.1l-1.7,4.1h3.3L110,72.1 M115,80.7h-0.2c-0.1,0-0.3,0-0.5,0c-0.3,0-0.4,0-0.5,0c-0.1,0-0.2,0-0.5,0
		c-0.3,0-0.4,0-0.6,0h-0.2c0.2-0.3,0.3-0.6,0.3-0.9c0-0.2-0.1-0.5-0.2-0.8c-0.1-0.3-0.1-0.5-0.2-0.6l-0.1-0.3c0-0.1-0.1-0.2-0.2-0.4
		c-0.1-0.2-0.1-0.4-0.2-0.4l-0.1-0.3H108l-0.1,0.3c-0.5,1.2-0.7,2-0.7,2.4c0,0.4,0.1,0.7,0.4,1h-0.2c-0.1,0-0.3,0-0.5,0
		c-0.2,0-0.4,0-0.4,0c-0.1,0-0.3,0-0.5,0c-0.2,0-0.4,0-0.4,0h-0.2c0.3-0.5,0.6-1.1,0.9-1.7c0.1-0.3,0.4-0.9,0.7-1.8l3.2-7.9l3.1,7.9
		c0.3,0.9,0.6,1.5,0.7,1.8C114.4,79.9,114.7,80.4,115,80.7"/>
	<path d="M120.9,81c-1.1,0-2-0.2-3-0.6c-0.9-0.4-1.7-1.1-2.3-2c-0.6-0.9-0.9-2-0.9-3.2c0-1.7,0.6-3.1,1.8-4.2
		c1.2-1.1,2.7-1.6,4.4-1.6c1.2,0,2.4,0.3,3.5,0.8c0,0.4,0,0.7,0,0.9c0,0.7,0,1.3-0.1,1.8c-0.4-1-0.8-1.7-1.3-2.1
		c-0.5-0.4-1.2-0.7-2.1-0.7c-1.4,0-2.5,0.5-3.4,1.4c-0.9,0.9-1.3,2.1-1.3,3.6c0,1.5,0.5,2.8,1.5,3.7c1,0.9,2.1,1.4,3.4,1.4
		c0.9,0,1.6-0.3,2.1-0.8c0.5-0.5,0.9-1.3,1.4-2.4c0,0.3,0.1,0.6,0.1,1c0,0.8-0.1,1.5-0.2,2C123.5,80.7,122.3,81,120.9,81"/>
	<path d="M131.9,80.7h-0.2c0,0-0.1,0-0.1,0c0,0-0.1,0-0.2,0c-0.1,0-0.2,0-0.2,0c-0.3,0-0.5,0-0.7,0c-0.2,0-0.4,0-0.7,0
		c-0.1,0-0.2,0-0.2,0c-0.1,0-0.2,0-0.2,0c0,0-0.1,0-0.1,0H129c0.5-0.4,0.7-1,0.7-1.7c0-0.5,0-1.1,0-1.8v-4.6c0-0.8,0-1.3,0-1.6
		c0-0.3-0.1-0.5-0.2-0.6c-0.1-0.1-0.3-0.1-0.7-0.1c-0.4,0-0.7,0-1.1,0.1c-0.4,0.1-0.8,0.2-1.1,0.5c-0.3,0.3-0.5,0.7-0.8,1.2
		c-0.1-0.4-0.1-0.9-0.1-1.5c0-0.4,0-0.7,0-1c0.4,0,1,0,1.8,0h5.5c0.8,0,1.4,0,1.8,0c0,0.3,0,0.6,0,1c0,0.6,0,1.1-0.1,1.5
		c-0.2-0.5-0.5-0.9-0.8-1.2c-0.3-0.3-0.6-0.5-1.1-0.5c-0.4-0.1-0.7-0.1-1.1-0.1c-0.4,0-0.6,0-0.7,0.1c-0.1,0.1-0.2,0.3-0.2,0.6
		c0,0.3,0,0.9,0,1.6v4.6c0,0.3,0,0.8,0,1.8c0,0.4,0.1,0.7,0.2,1C131.4,80.2,131.6,80.5,131.9,80.7"/>
	<path d="M143.6,80.7h-0.1c-0.1,0-0.4,0-0.7,0c-0.3,0-0.5,0-0.5,0c-0.1,0-0.2,0-0.5,0c-0.3,0-0.5,0-0.7,0h-0.2
		c0.4-0.5,0.7-1.1,0.8-1.7c0.1-0.6,0.3-1.2,0.4-1.8l0.7-4.2c0.2-1.2,0.3-2,0.3-2.2c0-0.2-0.1-0.4-0.2-0.5c-0.1-0.1-0.4-0.1-0.7-0.1
		c-0.3,0-0.7,0-1,0.1c-0.4,0.1-0.7,0.2-1,0.5c-0.3,0.3-0.6,0.8-1,1.5c0-0.2-0.1-0.4-0.1-0.7c0-0.7,0.1-1.4,0.4-2.1c0.4,0,1,0,1.8,0
		h5.4c0.6,0,1.2,0,1.8,0c0,0.1,0,0.3,0,0.7c0,0.8-0.1,1.5-0.4,2.1c-0.2-0.7-0.3-1.2-0.5-1.5c-0.2-0.3-0.4-0.5-0.8-0.5
		c-0.5-0.1-0.9-0.1-1.3-0.1c-0.4,0-0.6,0-0.7,0.1c-0.1,0.1-0.2,0.3-0.3,0.6c-0.1,0.3-0.2,0.9-0.3,1.6l-0.8,4.6
		c-0.2,1.2-0.3,2-0.3,2.2C143,79.9,143.2,80.3,143.6,80.7"/>
	<path d="M152.4,80.9c-0.7,0-1.2-0.5-1.5-1.5c-0.3,0.5-0.5,0.9-0.8,1.1c-0.3,0.2-0.6,0.4-1,0.4c-0.5,0-0.9-0.2-1.2-0.5
		c-0.3-0.3-0.5-0.8-0.5-1.4c0-0.6,0.2-1.2,0.5-1.9c0.3-0.6,0.9-1.5,1.7-2.5c-0.7-0.1-1.3-0.1-1.7-0.1c-0.3,0-0.6,0.1-0.7,0.2
		c-0.1,0.1-0.2,0.3-0.2,0.5c0,0.3,0.2,0.6,0.5,0.9l-0.6,0.7c-0.4-0.2-0.6-0.6-0.6-1.1c0-0.6,0.2-1.1,0.7-1.5c0.5-0.4,1-0.6,1.8-0.6
		c0.7,0,1.4,0,2.1,0.1c-0.9,1.6-1.5,2.6-1.8,3.2c-0.3,0.6-0.4,1.2-0.4,1.8c0,0.3,0.1,0.6,0.3,0.8s0.4,0.3,0.7,0.3
		c0.5,0,1-0.4,1.4-1.1c0-1.3,0.2-2.3,0.5-3.2l0.8,0.3c-0.1,0.9-0.3,1.9-0.8,2.9c0.2,0.7,0.6,1.1,1.1,1.1c0.5,0,0.8-0.3,1.1-0.8
		c0.3-0.5,0.4-1.2,0.4-2c0-1.2-0.4-2.1-1.3-2.7l0.9-0.8c0.7,0.6,1.1,1.6,1.1,3.2c0,1.1-0.2,2.1-0.7,2.9
		C153.6,80.4,153.1,80.9,152.4,80.9"/>
	<path d="M159.4,74.2c-0.4,0-0.7,0.2-1.1,0.6c-0.3,0.4-0.6,1-0.8,1.6c-0.2,0.7-0.3,1.4-0.3,2.1c0,0.5,0.1,1,0.3,1.3
		c0.2,0.3,0.4,0.5,0.7,0.5c0.4,0,0.8-0.2,1.2-0.7c0.6-0.9,0.9-2.1,0.9-3.6c0-0.6-0.1-1-0.3-1.3C159.9,74.3,159.6,74.2,159.4,74.2
		 M158.2,81c-0.6,0-1.1-0.2-1.5-0.7c-0.4-0.5-0.6-1.1-0.6-1.9c0-0.9,0.2-1.7,0.5-2.4c0.3-0.7,0.7-1.3,1.3-1.8
		c0.5-0.4,0.9-0.6,1.4-0.6c0.6,0,1.1,0.3,1.5,0.8c0.4,0.5,0.6,1.2,0.6,2.1c0,0.8-0.1,1.5-0.4,2.2c-0.3,0.7-0.7,1.3-1.1,1.7
		C159.3,80.7,158.8,81,158.2,81"/>
	<defs>
		<filter id="Adobe_OpacityMaskFilter" filterUnits="userSpaceOnUse" x="36.8" y="68" width="125.5" height="13.4">
			<feColorMatrix  type="matrix" values="1 0 0 0 0  0 1 0 0 0  0 0 1 0 0  0 0 0 1 0"/>
		</filter>
	</defs>
	
		<mask maskUnits="userSpaceOnUse" x="36.8" y="68" width="125.5" height="13.4" id="SVGID_00000102523521372171949630000004338828339490004354_">
		<g class="st20">
			<g>
				<defs>
					<rect id="SVGID_00000011007219011047294160000011380689903380527245_" x="34.1" y="66.1" width="131.3" height="15.3"/>
				</defs>
				<clipPath id="SVGID_00000085952272905092755640000014870354973050562732_">
					<use xlink:href="#SVGID_00000011007219011047294160000011380689903380527245_"  style="overflow:visible;"/>
				</clipPath>
				<g transform="matrix(1 0 0 1 0 0)" style="clip-path:url(#SVGID_00000085952272905092755640000014870354973050562732_);">
					
						<image style="overflow:visible;" width="557" height="65" xlink:href="2D9A8F5F.jpg"  transform="matrix(0.2357 0 0 0.235 34.0755 66.0861)">
					</image>
				</g>
			</g>
		</g>
	</mask>
	
		<rect x="36.8" y="68" style="opacity:0.9;mask:url(#SVGID_00000102523521372171949630000004338828339490004354_);fill:#FFFFFF;" width="125.5" height="13.4"/>
	<defs>
		
			<filter id="Adobe_OpacityMaskFilter_00000124851407290373540780000006490054695531952798_" filterUnits="userSpaceOnUse" x="37" y="68.5" width="125.8" height="12.8">
			<feColorMatrix  type="matrix" values="1 0 0 0 0  0 1 0 0 0  0 0 1 0 0  0 0 0 1 0"/>
		</filter>
	</defs>
	
		<mask maskUnits="userSpaceOnUse" x="37" y="68.5" width="125.8" height="12.8" id="SVGID_00000143611706252381524500000005746188982475448495_">
		<g style="filter:url(#Adobe_OpacityMaskFilter_00000124851407290373540780000006490054695531952798_);">
			<g>
				<defs>
					<rect id="SVGID_00000075873600294156868350000008994217935640175014_" x="34.1" y="66.1" width="131.3" height="15.3"/>
				</defs>
				<clipPath id="SVGID_00000173140652401288126740000016420607328536632725_">
					<use xlink:href="#SVGID_00000075873600294156868350000008994217935640175014_"  style="overflow:visible;"/>
				</clipPath>
				<g transform="matrix(1 0 0 1 0 0)" style="clip-path:url(#SVGID_00000173140652401288126740000016420607328536632725_);">
					
						<image style="overflow:visible;" width="557" height="65" xlink:href="2D9A8F5D.jpg"  transform="matrix(0.2357 0 0 0.235 34.0755 66.0861)">
					</image>
				</g>
			</g>
		</g>
	</mask>
	
		<rect x="37" y="68.5" style="opacity:0.75;mask:url(#SVGID_00000143611706252381524500000005746188982475448495_);" width="125.8" height="12.8"/>
	<path d="M19.3,7v10.6h1.1c1.6,0,3-0.2,4.2-1.4c1.1-1,1.7-2.4,1.7-3.9c0-1.5-0.6-3-1.7-4C23.3,7.2,21.9,7,20.3,7H19.3 M20.3,19h-2.5
		V5.6h2.5c2,0,3.6,0.3,5.2,1.6c1.5,1.3,2.2,3.1,2.2,5.1c0,2-0.7,3.7-2.2,5C24,18.8,22.4,19,20.3,19"/>
	<path d="M43.1,6.8c-3.1,0-5.5,2.5-5.5,5.5c0,3,2.5,5.5,5.5,5.5c3,0,5.5-2.5,5.5-5.5C48.6,9.3,46.2,6.8,43.1,6.8 M43.1,19.3
		c-3.8,0-7-3.1-7-6.9c0-3.8,3.2-7,7-7c3.8,0,7,3.1,7,7C50.1,16.2,46.9,19.3,43.1,19.3"/>
	<polygon points="71,19 66.6,9.4 62.3,19 57.2,5.6 58.8,5.6 62.3,15 66.6,5.6 71,15 74.5,5.6 76.1,5.6 	"/>
	<polygon points="156.2,19 151.9,9.4 147.5,19 142.4,5.6 144,5.6 146.1,11.1 147.5,15 151.9,5.6 156.2,15 159.7,5.6 161.3,5.6 	"/>
	<polygon points="96.7,19 86.2,9.1 86.2,19 84.7,19 84.7,5.6 95.2,15.4 95.2,5.6 96.7,5.6 	"/>
	<polygon points="181.8,19 171.4,9.1 171.4,19 169.9,19 169.9,5.6 180.3,15.4 180.3,5.6 181.8,5.6 	"/>
	<polygon points="110.2,19 108.7,19 108.7,7 105.5,7 105.5,5.6 113.5,5.6 113.5,7 110.2,7 	"/>
	<path d="M128.4,6.8c-3.1,0-5.5,2.5-5.5,5.5c0,3,2.5,5.5,5.5,5.5c3,0,5.5-2.5,5.5-5.5C133.9,9.3,131.5,6.8,128.4,6.8 M128.4,19.3
		c-3.8,0-7-3.1-7-6.9c0-3.8,3.2-7,7-7c3.8,0,7,3.1,7,7C135.4,16.2,132.3,19.3,128.4,19.3"/>
	<path d="M63.7,28.3V39h1.1c1.6,0,3-0.2,4.2-1.4c1.1-1,1.7-2.4,1.7-3.9c0-1.5-0.6-3-1.7-4c-1.2-1.1-2.6-1.3-4.2-1.3H63.7 M64.7,40.4
		h-2.5V27h2.5c2,0,3.6,0.3,5.2,1.6c1.5,1.3,2.2,3.1,2.2,5.1c0,2-0.7,3.7-2.2,5C68.4,40.1,66.8,40.4,64.7,40.4"/>
	<path d="M85.2,40.6c-1.3,0-2.6-0.5-3.5-1.4c-1.2-1.1-1.3-2.3-1.3-3.9V27h1.5v8c0,1,0,2.1,0.6,3c0.6,0.8,1.7,1.3,2.7,1.3
		c1,0,2-0.4,2.6-1.2c0.7-0.9,0.7-2,0.7-3.1v-8h1.5v8.4c0,1.5-0.1,2.6-1.2,3.7C87.8,40.1,86.5,40.6,85.2,40.6"/>
	<path d="M101,28.3v4.5h0.6c1.7,0,3.1-0.2,3.1-2.3c0-2-1.3-2.2-3.1-2.2H101 M101,34.1V39h1.5c1.7,0,3.4-0.4,3.4-2.5
		c0-2.1-2-2.4-3.6-2.4H101 M102.7,40.4h-3.1V27h2.2c2.4,0,4.5,0.9,4.5,3.6c0,1.1-0.4,2-1.3,2.6c1.6,0.4,2.5,1.8,2.5,3.4
		C107.5,39.3,105.3,40.4,102.7,40.4"/>
	<path d="M121.5,30.1l-2.3,5h4.5L121.5,30.1z M127.6,40.4h-1.7l-1.6-3.8h-5.7l-1.6,3.8h-1.6l6.2-13.4L127.6,40.4"/>
	<rect x="136" y="27" width="1.5" height="13.4"/>
	<defs>
		
			<filter id="Adobe_OpacityMaskFilter_00000086656670642610546120000009105536207792219264_" filterUnits="userSpaceOnUse" x="15.9" y="3.4" width="167.9" height="37.5">
			<feColorMatrix  type="matrix" values="1 0 0 0 0  0 1 0 0 0  0 0 1 0 0  0 0 0 1 0"/>
		</filter>
	</defs>
	
		<mask maskUnits="userSpaceOnUse" x="15.9" y="3.4" width="167.9" height="37.5" id="SVGID_00000134231953316403643190000015721200627664723110_">
		<g style="filter:url(#Adobe_OpacityMaskFilter_00000086656670642610546120000009105536207792219264_);">
			<g>
				<defs>
					<rect id="SVGID_00000078041381425647950220000000878660073042808453_" x="13.8" y="2.4" width="172" height="38.5"/>
				</defs>
				<clipPath id="SVGID_00000026865830884411910750000004962514228236131234_">
					<use xlink:href="#SVGID_00000078041381425647950220000000878660073042808453_"  style="overflow:visible;"/>
				</clipPath>
				<g style="clip-path:url(#SVGID_00000026865830884411910750000004962514228236131234_);">
					
						<image style="overflow:visible;" width="730" height="164" xlink:href="2D9A8F63.jpg"  transform="matrix(0.2356 0 0 0.2349 13.7794 2.411)">
					</image>
				</g>
			</g>
		</g>
	</mask>
	
		<rect x="15.9" y="3.4" style="mask:url(#SVGID_00000134231953316403643190000015721200627664723110_);fill:#FFFFFF;" width="167.9" height="37.5"/>
	<defs>
		
			<filter id="Adobe_OpacityMaskFilter_00000160192982219085936570000017566341414040091296_" filterUnits="userSpaceOnUse" x="15.9" y="4.4" width="167.9" height="36.5">
			<feColorMatrix  type="matrix" values="1 0 0 0 0  0 1 0 0 0  0 0 1 0 0  0 0 0 1 0"/>
		</filter>
	</defs>
	
		<mask maskUnits="userSpaceOnUse" x="15.9" y="4.4" width="167.9" height="36.5" id="SVGID_00000143584649909671131020000011789791748249686441_">
		<g style="filter:url(#Adobe_OpacityMaskFilter_00000160192982219085936570000017566341414040091296_);">
			<g>
				<defs>
					<rect id="SVGID_00000174571248575683733890000015339514028575809186_" x="13.8" y="2.4" width="172" height="38.5"/>
				</defs>
				<clipPath id="SVGID_00000052788670274845154230000012430172151763452584_">
					<use xlink:href="#SVGID_00000174571248575683733890000015339514028575809186_"  style="overflow:visible;"/>
				</clipPath>
				<g style="clip-path:url(#SVGID_00000052788670274845154230000012430172151763452584_);">
					
						<image style="overflow:visible;" width="730" height="164" xlink:href="2D9A8F65.jpg"  transform="matrix(0.2356 0 0 0.2349 13.7794 2.411)">
					</image>
				</g>
			</g>
		</g>
	</mask>
	
		<rect x="15.9" y="4.4" style="opacity:0.75;mask:url(#SVGID_00000143584649909671131020000011789791748249686441_);" width="167.9" height="36.5"/>
	<line class="st28" x1="0.7" y1="55" x2="199" y2="55"/>
</g>
</svg>
