<?xml version="1.0" encoding="utf-8"?>
<!-- Generator: Adobe Illustrator 26.0.1, SVG Export Plug-In . SVG Version: 6.00 Build 0)  -->
<!DOCTYPE svg PUBLIC "-//W3C//DTD SVG 1.1//EN" "http://www.w3.org/Graphics/SVG/1.1/DTD/svg11.dtd" [
	<!ENTITY ns_extend "http://ns.adobe.com/Extensibility/1.0/">
	<!ENTITY ns_ai "http://ns.adobe.com/AdobeIllustrator/10.0/">
	<!ENTITY ns_graphs "http://ns.adobe.com/Graphs/1.0/">
	<!ENTITY ns_vars "http://ns.adobe.com/Variables/1.0/">
	<!ENTITY ns_imrep "http://ns.adobe.com/ImageReplacement/1.0/">
	<!ENTITY ns_sfw "http://ns.adobe.com/SaveForWeb/1.0/">
	<!ENTITY ns_custom "http://ns.adobe.com/GenericCustomNamespace/1.0/">
	<!ENTITY ns_adobe_xpath "http://ns.adobe.com/XPath/1.0/">
]>
<svg version="1.1" id="Layer_1" xmlns:x="&ns_extend;" xmlns:i="&ns_ai;" xmlns:graph="&ns_graphs;"
	 xmlns="http://www.w3.org/2000/svg" xmlns:xlink="http://www.w3.org/1999/xlink" x="0px" y="0px" viewBox="0 0 200 35.9"
	 style="enable-background:new 0 0 200 35.9;" xml:space="preserve">
<style type="text/css">
	.st0{fill:#808184;}
	.st1{clip-path:url(#SVGID_00000075158527324640108570000002695986647208216222_);}
	.st2{fill:#AC9C63;}
</style>
<metadata>
	<sfw  xmlns="&ns_sfw;">
		<slices></slices>
		<sliceSourceBounds  bottomLeftOrigin="true" height="185.2" width="1488.1" x="1.3" y="-70.2"></sliceSourceBounds>
	</sfw>
</metadata>
<g>
	<g>
		<path d="M9.5,18.6H5.4c-0.4,0-0.7-0.2-0.7-0.5L1.5,3.9C1.4,3.6,1.6,3.4,2.1,3.4h3c0.4,0,0.7,0.2,0.7,0.5l1.7,11.6h0.2l2.8-11.7
			c0.1-0.3,0.3-0.4,0.6-0.4h3.3c0.4,0,0.6,0.1,0.6,0.4L18,15.5h0.2l1.7-11.6c0-0.3,0.3-0.5,0.7-0.5h3c0.5,0,0.7,0.2,0.6,0.5
			l-3.2,14.2c-0.1,0.3-0.3,0.5-0.7,0.5h-4.1c-0.4,0-0.6-0.2-0.7-0.5L12.9,7h-0.1l-2.7,11.1C10.1,18.4,9.8,18.6,9.5,18.6z"/>
		<path d="M33.3,18.6h-0.7c-1.5,0-2.7-0.3-3.6-1c-0.8-0.7-1.3-1.6-1.3-2.9v-4.3c0-1.2,0.4-2.2,1.3-2.9c0.8-0.7,2-1,3.6-1h6.8
			C39.8,6.5,40,6.7,40,7v11.1c0,0.3-0.2,0.5-0.6,0.5h-2.5c-0.4,0-0.6-0.2-0.6-0.5v-0.8h-0.1c-0.2,0.4-0.6,0.7-1.1,1
			C34.5,18.5,33.9,18.6,33.3,18.6z M36.3,14.2V9.4c0-0.2-0.1-0.3-0.4-0.3h-2.8c-0.6,0-1.1,0.1-1.3,0.3c-0.3,0.2-0.4,0.6-0.4,1.1v4.1
			c0,0.5,0.1,0.9,0.4,1.1c0.3,0.2,0.7,0.3,1.3,0.3h1.1C35.6,16,36.3,15.4,36.3,14.2z"/>
		<path d="M44.3,6.5h2.6c0.4,0,0.6,0.2,0.7,0.5l2.5,8.9h0.2L52.8,7c0.1-0.3,0.3-0.5,0.7-0.5h2.6c0.4,0,0.6,0.2,0.4,0.5l-3.7,11
			c-0.1,0.3-0.3,0.5-0.8,0.5h-3.7c-0.4,0-0.7-0.2-0.8-0.5L43.9,7C43.8,6.7,43.9,6.5,44.3,6.5z"/>
		<path d="M71.4,18.6h-6.5c-1.5,0-2.7-0.3-3.6-1c-0.8-0.7-1.3-1.6-1.3-2.9v-4.3c0-1.2,0.4-2.2,1.3-2.9c0.8-0.7,2-1,3.6-1h2.3
			c1.5,0,2.7,0.3,3.6,1c0.8,0.7,1.3,1.6,1.3,2.9v3c0,0.3-0.2,0.5-0.6,0.5h-7.3c-0.2,0-0.4,0.1-0.4,0.3v0.5c0,0.5,0.1,0.8,0.4,1.1
			c0.3,0.2,0.7,0.3,1.3,0.3h5.9c0.4,0,0.6,0.2,0.6,0.5v1.6c0,0.2,0,0.3-0.1,0.4C71.8,18.5,71.6,18.6,71.4,18.6z M64.1,11.9h4
			c0.2,0,0.3-0.1,0.3-0.3v-1.1c0-0.5-0.1-0.9-0.4-1.1s-0.7-0.3-1.3-0.3h-1.2c-0.6,0-1.1,0.1-1.3,0.3c-0.3,0.2-0.4,0.6-0.4,1.1v1.1
			C63.8,11.8,63.9,11.9,64.1,11.9z"/>
		<path d="M82.3,18.6h-5.6c-0.4,0-0.6-0.2-0.6-0.5v-1.5c0-0.2,0-0.3,0.1-0.4c0.1-0.1,0.2-0.1,0.5-0.1h4.9c1,0,1.4-0.2,1.4-0.7v-0.1
			c0-0.4-0.4-0.7-1.2-1.1l-2.9-1.3c-1-0.4-1.7-0.9-2.2-1.3c-0.5-0.5-0.7-1.1-0.7-1.8c0-1.1,0.4-1.9,1.1-2.4c0.7-0.5,1.9-0.8,3.4-0.8
			h4.9C85.8,6.5,86,6.7,86,7v1.5c0,0.2,0,0.3-0.1,0.4C85.8,9,85.6,9,85.4,9h-4.1c-1,0-1.4,0.2-1.4,0.6v0.1c0,0.3,0.4,0.7,1.3,1.1
			l3,1.4c1,0.4,1.7,0.9,2.1,1.4c0.4,0.5,0.6,1.1,0.6,1.8C86.9,17.5,85.3,18.6,82.3,18.6z"/>
		<path d="M102.8,18.6h-2.5c-0.4,0-0.6-0.2-0.6-0.5V3.9c0-0.3,0.2-0.5,0.6-0.5h2.5c0.4,0,0.6,0.2,0.6,0.5v5.6c0,0.2,0.1,0.3,0.4,0.3
			h4.9c0.2,0,0.3-0.1,0.3-0.3V3.9c0-0.3,0.2-0.5,0.6-0.5h2.5c0.4,0,0.6,0.2,0.6,0.5v14.2c0,0.3-0.2,0.5-0.6,0.5h-2.5
			c-0.4,0-0.6-0.2-0.6-0.5v-5.5c0-0.2-0.1-0.3-0.3-0.3h-4.9c-0.2,0-0.4,0.1-0.4,0.3v5.5C103.4,18.4,103.2,18.6,102.8,18.6z"/>
		<path d="M129,18.6h-6.5c-1.5,0-2.7-0.3-3.6-1c-0.8-0.7-1.3-1.6-1.3-2.9v-4.3c0-1.2,0.4-2.2,1.3-2.9s2-1,3.6-1h2.3
			c1.5,0,2.7,0.3,3.6,1s1.3,1.6,1.3,2.9v3c0,0.3-0.2,0.5-0.6,0.5h-7.3c-0.2,0-0.4,0.1-0.4,0.3v0.5c0,0.5,0.1,0.8,0.4,1.1
			c0.3,0.2,0.7,0.3,1.3,0.3h5.9c0.4,0,0.6,0.2,0.6,0.5v1.6c0,0.2,0,0.3-0.1,0.4C129.4,18.5,129.2,18.6,129,18.6z M121.7,11.9h4
			c0.2,0,0.3-0.1,0.3-0.3v-1.1c0-0.5-0.1-0.9-0.4-1.1c-0.3-0.2-0.7-0.3-1.3-0.3h-1.2c-0.6,0-1.1,0.1-1.3,0.3
			c-0.3,0.2-0.4,0.6-0.4,1.1v1.1C121.4,11.8,121.5,11.9,121.7,11.9z"/>
		<path d="M134.4,4.5V2.4c0-0.3,0.2-0.5,0.6-0.5h2.5c0.4,0,0.6,0.1,0.6,0.4v2.1c0,0.3-0.2,0.5-0.6,0.5h-2.5
			C134.6,5,134.4,4.8,134.4,4.5z M134.4,18.1V7c0-0.3,0.2-0.5,0.6-0.5h2.5c0.4,0,0.6,0.2,0.6,0.5v11.1c0,0.2,0,0.3-0.1,0.4
			c-0.1,0.1-0.2,0.1-0.5,0.1H135C134.6,18.6,134.4,18.4,134.4,18.1z"/>
		<path d="M148.5,18h-1c-1.5,0-2.6-0.3-3.4-1c-0.8-0.7-1.2-1.6-1.2-2.9v-3.8c0-1.2,0.4-2.2,1.3-2.9c0.8-0.7,2-1,3.6-1h6.8
			c0.4,0,0.6,0.2,0.6,0.5v11.6c0,1.2-0.4,2.2-1.3,2.8c-0.8,0.7-2,1-3.6,1h-5.6c-0.2,0-0.4,0-0.5-0.1c-0.1-0.1-0.1-0.2-0.1-0.4v-1.6
			c0-0.3,0.2-0.5,0.6-0.5h5c0.6,0,1.1-0.1,1.3-0.3c0.3-0.2,0.4-0.6,0.4-1.1v-1.8h-0.1c-0.2,0.4-0.6,0.7-1.1,1S149.1,18,148.5,18z
			 M151.4,13.6V9.4c0-0.2-0.1-0.3-0.4-0.3h-2.8c-0.6,0-1.1,0.1-1.3,0.3c-0.3,0.2-0.4,0.6-0.4,1.1V14c0,0.5,0.1,0.9,0.4,1.1
			c0.3,0.2,0.7,0.3,1.3,0.3h1.1C150.8,15.4,151.4,14.8,151.4,13.6z"/>
		<path d="M163.2,18.6h-2.5c-0.4,0-0.6-0.2-0.6-0.5V2.5c0-0.3,0.2-0.5,0.6-0.5h2.5c0.4,0,0.6,0.2,0.6,0.5v5.3h0.1
			c0.4-0.9,1.4-1.3,2.9-1.3h0.9c3.1,0,4.6,1.3,4.6,3.8v7.7c0,0.3-0.2,0.5-0.6,0.5h-2.5c-0.4,0-0.6-0.2-0.6-0.5v-7.6
			c0-0.5-0.1-0.9-0.4-1.1c-0.3-0.2-0.7-0.3-1.3-0.3h-1.1c-1.3,0-2,0.6-2,1.8v7.2C163.9,18.4,163.7,18.6,163.2,18.6z"/>
		<path d="M177.5,9.1h-1.2c-0.2,0-0.4,0-0.5-0.1c-0.1-0.1-0.1-0.2-0.1-0.4V7c0-0.3,0.2-0.5,0.6-0.5h1.2c0.2,0,0.3-0.1,0.3-0.3V4
			c0-0.3,0.2-0.5,0.6-0.5h2.5c0.4,0,0.6,0.2,0.6,0.5v2.2c0,0.2,0.1,0.3,0.4,0.3h2.3c0.4,0,0.6,0.2,0.6,0.5v1.6c0,0.2,0,0.3-0.1,0.4
			c-0.1,0.1-0.2,0.1-0.5,0.1h-2.3c-0.2,0-0.4,0.1-0.4,0.3v5.2c0,0.5,0.1,0.8,0.4,1.1c0.3,0.2,0.7,0.3,1.3,0.3h1.2
			c0.4,0,0.6,0.2,0.6,0.5v1.6c0,0.2,0,0.3-0.1,0.4c-0.1,0.1-0.2,0.1-0.5,0.1h-1.8c-1.5,0-2.7-0.3-3.6-1c-0.8-0.7-1.3-1.6-1.3-2.8
			V9.4C177.8,9.2,177.7,9.1,177.5,9.1z"/>
		<path d="M194.9,18.6h-5.6c-0.4,0-0.6-0.2-0.6-0.5v-1.5c0-0.2,0-0.3,0.1-0.4s0.2-0.1,0.5-0.1h4.9c1,0,1.4-0.2,1.4-0.7v-0.1
			c0-0.4-0.4-0.7-1.2-1.1l-2.9-1.3c-1-0.4-1.7-0.9-2.2-1.3c-0.5-0.5-0.7-1.1-0.7-1.8c0-1.1,0.4-1.9,1.1-2.4c0.7-0.5,1.9-0.8,3.4-0.8
			h4.9c0.4,0,0.6,0.2,0.6,0.5v1.5c0,0.2,0,0.3-0.1,0.4C198.5,9,198.3,9,198.1,9H194c-1,0-1.4,0.2-1.4,0.6v0.1c0,0.3,0.4,0.7,1.3,1.1
			l3,1.4c1,0.4,1.7,0.9,2.1,1.4c0.4,0.5,0.6,1.1,0.6,1.8C199.5,17.5,198,18.6,194.9,18.6z"/>
	</g>
	<g>
		<path d="M46,33.5h-0.8c-0.1,0-0.1-0.1-0.1-0.2l2-5.5c0-0.1,0.1-0.2,0.3-0.2h1.1c0.1,0,0.2,0.1,0.3,0.2l2,5.5c0,0.1,0,0.2-0.1,0.2
			h-0.8c-0.1,0-0.1,0-0.1,0c0,0,0-0.1-0.1-0.1l-0.4-1.2h-2.5l-0.4,1.2C46.2,33.5,46.2,33.5,46,33.5z M47.9,28.6l-1,2.9h2L47.9,28.6
			L47.9,28.6z"/>
		<path d="M52.5,29.7H52c-0.1,0-0.1,0-0.2,0c0,0,0-0.1,0-0.1v-0.5c0-0.1,0.1-0.2,0.2-0.2h0.5c0.1,0,0.1,0,0.1-0.1V28
			c0-0.1,0.1-0.2,0.2-0.2h0.7c0.1,0,0.2,0.1,0.2,0.2v0.8c0,0.1,0,0.1,0.1,0.1h1c0.1,0,0.2,0.1,0.2,0.2v0.5c0,0.1-0.1,0.1-0.2,0.1h-1
			c-0.1,0-0.1,0-0.1,0.1v2.3c0,0.4,0.3,0.7,0.8,0.7H55c0.1,0,0.2,0.1,0.2,0.2v0.5c0,0.1-0.1,0.1-0.2,0.1h-0.6c-0.6,0-1-0.1-1.3-0.4
			s-0.5-0.6-0.5-1v-2.4C52.6,29.7,52.6,29.7,52.5,29.7z"/>
		<path d="M62.6,33.5h-1.2c-0.1,0-0.2-0.1-0.2-0.2l-1.3-5.5c0-0.1,0-0.2,0.2-0.2h0.9c0.1,0,0.2,0.1,0.2,0.2l0.9,4.7h0.1l1.3-4.8
			c0-0.1,0.1-0.1,0.2-0.1h0.9c0.1,0,0.2,0,0.2,0.1l1.3,4.8h0.1l0.9-4.7c0-0.1,0.1-0.2,0.2-0.2h0.9c0.1,0,0.2,0.1,0.2,0.2L67,33.4
			c0,0.1-0.1,0.2-0.2,0.2h-1.2c-0.1,0-0.2-0.1-0.2-0.2l-1.3-4.6h0l-1.3,4.6C62.8,33.5,62.7,33.5,62.6,33.5z"/>
		<path d="M72.1,33.5h-0.4c-0.6,0-1-0.1-1.3-0.4c-0.3-0.2-0.5-0.6-0.5-1v-1.8c0-0.4,0.2-0.8,0.5-1c0.3-0.2,0.7-0.4,1.3-0.4h2.5
			c0.1,0,0.2,0.1,0.2,0.2v4.3c0,0.1-0.1,0.2-0.2,0.2h-0.7c-0.1,0-0.2-0.1-0.2-0.2V33h0C73,33.4,72.6,33.5,72.1,33.5z M73.2,32v-2.2
			c0-0.1,0-0.1-0.1-0.1h-1.3c-0.5,0-0.8,0.2-0.8,0.7v1.7c0,0.4,0.3,0.7,0.8,0.7h0.5C72.9,32.8,73.2,32.5,73.2,32z"/>
		<path d="M76.6,29.7H76c-0.1,0-0.1,0-0.2,0c0,0,0-0.1,0-0.1v-0.5c0-0.1,0.1-0.2,0.2-0.2h0.5c0.1,0,0.1,0,0.1-0.1V28
			c0-0.1,0.1-0.2,0.2-0.2h0.7c0.1,0,0.2,0.1,0.2,0.2v0.8c0,0.1,0,0.1,0.1,0.1h1c0.1,0,0.2,0.1,0.2,0.2v0.5c0,0.1-0.1,0.1-0.2,0.1h-1
			c-0.1,0-0.1,0-0.1,0.1v2.3c0,0.4,0.3,0.7,0.8,0.7h0.4c0.1,0,0.2,0.1,0.2,0.2v0.5c0,0.1-0.1,0.1-0.2,0.1h-0.6c-0.6,0-1-0.1-1.3-0.4
			c-0.3-0.2-0.5-0.6-0.5-1v-2.4C76.7,29.7,76.7,29.7,76.6,29.7z"/>
		<path d="M85.1,33.5h-2.4c-0.6,0-1-0.1-1.3-0.4c-0.3-0.2-0.5-0.6-0.5-1v-1.8c0-0.4,0.2-0.8,0.5-1c0.3-0.2,0.7-0.4,1.3-0.4h0.9
			c0.6,0,1,0.1,1.3,0.4c0.3,0.2,0.5,0.6,0.5,1v1.2c0,0.1-0.1,0.2-0.2,0.2h-3c-0.1,0-0.1,0-0.1,0.1v0.4c0,0.4,0.3,0.7,0.8,0.7h2.3
			c0.1,0,0.2,0.1,0.2,0.2v0.5C85.3,33.5,85.2,33.5,85.1,33.5z M82.1,31h2c0.1,0,0.1,0,0.1-0.1v-0.6c0-0.2-0.1-0.4-0.2-0.5
			c-0.1-0.1-0.3-0.2-0.6-0.2h-0.6c-0.3,0-0.5,0.1-0.6,0.2c-0.1,0.1-0.2,0.3-0.2,0.5v0.6C82,31,82,31,82.1,31z"/>
		<path d="M88.1,33.5h-0.7c-0.1,0-0.2-0.1-0.2-0.2v-4.3c0-0.1,0.1-0.2,0.2-0.2h0.7c0.1,0,0.2,0.1,0.2,0.2v0.3h0
			c0.1-0.2,0.2-0.3,0.4-0.4c0.2-0.1,0.5-0.1,0.7-0.1h0.4c0.1,0,0.2,0.1,0.2,0.2v0.5c0,0.1-0.1,0.2-0.2,0.1h-0.7
			c-0.6,0-0.9,0.3-0.9,0.8v2.9C88.3,33.5,88.2,33.5,88.1,33.5z"/>
		<path d="M93.4,28.9h0.9c0.1,0,0.2,0,0.2,0.1v0.5c0,0.1-0.1,0.2-0.2,0.2h-0.9c-0.1,0-0.1,0-0.1,0.1v3.6c0,0.1-0.1,0.2-0.2,0.2h-0.7
			c-0.1,0-0.2-0.1-0.2-0.2v-3.6c0-0.1,0-0.1-0.1-0.1h-0.6c-0.1,0-0.2-0.1-0.2-0.2V29c0-0.1,0-0.1,0-0.1c0,0,0.1,0,0.2,0H92
			c0.1,0,0.1,0,0.1-0.1v-0.3c0-0.4,0.1-0.8,0.4-1c0.3-0.2,0.7-0.4,1.2-0.4h0.5c0.1,0,0.2,0,0.2,0.1v0.5c0,0.1-0.1,0.2-0.2,0.2H94
			c-0.3,0-0.5,0.1-0.6,0.2c-0.1,0.1-0.2,0.3-0.2,0.5v0.2C93.3,28.9,93.3,28.9,93.4,28.9z"/>
		<path d="M97,33.5h-0.7c-0.1,0-0.2-0.1-0.2-0.2v-4.3c0-0.1,0.1-0.2,0.2-0.2H97c0.1,0,0.2,0.1,0.2,0.2v0.3h0
			c0.1-0.2,0.2-0.3,0.4-0.4c0.2-0.1,0.5-0.1,0.7-0.1h0.4c0.1,0,0.2,0.1,0.2,0.2v0.5c0,0.1-0.1,0.2-0.2,0.1h-0.7
			c-0.6,0-0.9,0.3-0.9,0.8v2.9C97.2,33.5,97.1,33.5,97,33.5z"/>
		<path d="M103.1,33.5h-1c-0.6,0-1-0.1-1.3-0.4c-0.3-0.2-0.5-0.6-0.5-1v-1.8c0-0.4,0.2-0.8,0.5-1c0.3-0.2,0.7-0.4,1.3-0.4h1
			c0.5,0,1,0.1,1.3,0.4c0.3,0.2,0.5,0.6,0.5,1v1.8c0,0.4-0.2,0.8-0.5,1C104.1,33.4,103.7,33.5,103.1,33.5z M102.3,32.8h0.7
			c0.5,0,0.8-0.2,0.8-0.7v-1.8c0-0.4-0.3-0.7-0.8-0.7h-0.7c-0.3,0-0.5,0.1-0.6,0.2c-0.1,0.1-0.2,0.3-0.2,0.5v1.8
			c0,0.2,0.1,0.4,0.2,0.5C101.8,32.7,102,32.8,102.3,32.8z"/>
		<path d="M107.7,33.5H107c-0.1,0-0.2-0.1-0.2-0.2v-4.3c0-0.1,0.1-0.2,0.2-0.2h0.7c0.1,0,0.2,0.1,0.2,0.2v0.3h0
			c0.2-0.3,0.6-0.5,1.1-0.5h0.5c0.5,0,1,0.1,1.3,0.4c0.3,0.2,0.4,0.6,0.4,1v3.1c0,0.1-0.1,0.2-0.2,0.2h-0.7c-0.1,0-0.2-0.1-0.2-0.2
			v-3c0-0.4-0.3-0.7-0.8-0.7h-0.5c-0.6,0-0.9,0.3-0.9,0.8v2.9C107.9,33.5,107.9,33.5,107.7,33.5z"/>
		<path d="M113.5,29.7H113c-0.1,0-0.1,0-0.2,0c0,0,0-0.1,0-0.1v-0.5c0-0.1,0.1-0.2,0.2-0.2h0.5c0.1,0,0.1,0,0.1-0.1V28
			c0-0.1,0.1-0.2,0.2-0.2h0.7c0.1,0,0.2,0.1,0.2,0.2v0.8c0,0.1,0,0.1,0.1,0.1h1c0.1,0,0.2,0.1,0.2,0.2v0.5c0,0.1-0.1,0.1-0.2,0.1h-1
			c-0.1,0-0.1,0-0.1,0.1v2.3c0,0.4,0.3,0.7,0.8,0.7h0.4c0.1,0,0.2,0.1,0.2,0.2v0.5c0,0.1-0.1,0.1-0.2,0.1h-0.6c-0.6,0-1-0.1-1.3-0.4
			c-0.3-0.2-0.5-0.6-0.5-1v-2.4C113.6,29.7,113.6,29.7,113.5,29.7z"/>
		<path d="M121.4,33.4v-5.5c0-0.1,0.1-0.2,0.2-0.2h2.8c0.5,0,1,0.1,1.3,0.4c0.3,0.2,0.5,0.6,0.5,1v3c0,0.4-0.2,0.8-0.5,1
			c-0.3,0.2-0.7,0.4-1.3,0.4h-2.8C121.5,33.5,121.4,33.5,121.4,33.4z M122.6,32.8h1.6c0.5,0,0.8-0.2,0.8-0.7v-2.9
			c0-0.4-0.3-0.7-0.8-0.7h-1.6c-0.1,0-0.1,0-0.1,0.1v4.1C122.5,32.7,122.5,32.8,122.6,32.8z"/>
		<path d="M128.2,28.1v-0.8c0-0.1,0.1-0.1,0.2-0.1h0.7c0.1,0,0.2,0,0.2,0.1v0.8c0,0.1-0.1,0.2-0.2,0.2h-0.7
			C128.3,28.3,128.2,28.2,128.2,28.1z M128.2,33.4v-4.3c0-0.1,0.1-0.2,0.2-0.2h0.7c0.1,0,0.2,0.1,0.2,0.2v4.3c0,0.1,0,0.1,0,0.1
			s-0.1,0-0.1,0h-0.7C128.3,33.5,128.2,33.5,128.2,33.4z"/>
		<path d="M133.5,33.5h-2.1c-0.1,0-0.2-0.1-0.2-0.2v-0.4c0-0.1,0.1-0.1,0.2-0.1h1.9c0.5,0,0.7-0.1,0.7-0.4v-0.1
			c0-0.2-0.2-0.4-0.5-0.6l-1.2-0.5c-0.4-0.1-0.7-0.3-0.8-0.5c-0.2-0.2-0.3-0.4-0.3-0.7c0-0.8,0.5-1.2,1.6-1.2h1.9
			c0.1,0,0.2,0.1,0.2,0.2v0.4c0,0.1-0.1,0.2-0.2,0.2H133c-0.2,0-0.4,0-0.5,0.1c-0.1,0.1-0.2,0.1-0.2,0.2v0.1c0,0.2,0.2,0.4,0.6,0.5
			l1.2,0.5c0.4,0.1,0.7,0.3,0.8,0.5c0.1,0.2,0.2,0.4,0.2,0.7C135.2,33.1,134.6,33.5,133.5,33.5z"/>
		<path d="M137.2,29.7h-0.5c-0.1,0-0.1,0-0.2,0c0,0,0-0.1,0-0.1v-0.5c0-0.1,0.1-0.2,0.2-0.2h0.5c0.1,0,0.1,0,0.1-0.1V28
			c0-0.1,0.1-0.2,0.2-0.2h0.7c0.1,0,0.2,0.1,0.2,0.2v0.8c0,0.1,0,0.1,0.1,0.1h1c0.1,0,0.2,0.1,0.2,0.2v0.5c0,0.1-0.1,0.1-0.2,0.1h-1
			c-0.1,0-0.1,0-0.1,0.1v2.3c0,0.4,0.3,0.7,0.8,0.7h0.4c0.1,0,0.2,0.1,0.2,0.2v0.5c0,0.1-0.1,0.1-0.2,0.1h-0.6c-0.6,0-1-0.1-1.3-0.4
			c-0.3-0.2-0.5-0.6-0.5-1v-2.4C137.3,29.7,137.3,29.7,137.2,29.7z"/>
		<path d="M142.5,33.5h-0.7c-0.1,0-0.2-0.1-0.2-0.2v-4.3c0-0.1,0.1-0.2,0.2-0.2h0.7c0.1,0,0.2,0.1,0.2,0.2v0.3h0
			c0.1-0.2,0.2-0.3,0.4-0.4c0.2-0.1,0.5-0.1,0.7-0.1h0.4c0.1,0,0.2,0.1,0.2,0.2v0.5c0,0.1-0.1,0.2-0.2,0.1h-0.7
			c-0.6,0-0.9,0.3-0.9,0.8v2.9C142.7,33.5,142.7,33.5,142.5,33.5z"/>
		<path d="M146.1,28.1v-0.8c0-0.1,0.1-0.1,0.2-0.1h0.7c0.1,0,0.2,0,0.2,0.1v0.8c0,0.1-0.1,0.2-0.2,0.2h-0.7
			C146.2,28.3,146.1,28.2,146.1,28.1z M146.1,33.4v-4.3c0-0.1,0.1-0.2,0.2-0.2h0.7c0.1,0,0.2,0.1,0.2,0.2v4.3c0,0.1,0,0.1,0,0.1
			c0,0-0.1,0-0.1,0h-0.7C146.2,33.5,146.1,33.5,146.1,33.4z"/>
		<path d="M152.8,32.9v0.5c0,0.1-0.1,0.1-0.2,0.1H151c-0.6,0-1-0.1-1.3-0.4c-0.3-0.2-0.5-0.6-0.5-1v-1.8c0-0.4,0.2-0.8,0.5-1
			c0.3-0.2,0.7-0.4,1.3-0.4h1.6c0.1,0,0.2,0.1,0.2,0.2v0.5c0,0.1-0.1,0.1-0.2,0.1h-1.5c-0.5,0-0.8,0.2-0.8,0.7v1.7
			c0,0.4,0.3,0.7,0.8,0.7h1.5C152.8,32.8,152.8,32.8,152.8,32.9z"/>
		<path d="M154.7,29.7h-0.5c-0.1,0-0.1,0-0.2,0c0,0,0-0.1,0-0.1v-0.5c0-0.1,0.1-0.2,0.2-0.2h0.5c0.1,0,0.1,0,0.1-0.1V28
			c0-0.1,0.1-0.2,0.2-0.2h0.7c0.1,0,0.2,0.1,0.2,0.2v0.8c0,0.1,0,0.1,0.1,0.1h1c0.1,0,0.2,0.1,0.2,0.2v0.5c0,0.1-0.1,0.1-0.2,0.1h-1
			c-0.1,0-0.1,0-0.1,0.1v2.3c0,0.4,0.3,0.7,0.8,0.7h0.4c0.1,0,0.2,0.1,0.2,0.2v0.5c0,0.1-0.1,0.1-0.2,0.1h-0.6c-0.6,0-1-0.1-1.3-0.4
			c-0.3-0.2-0.5-0.6-0.5-1v-2.4C154.8,29.7,154.8,29.7,154.7,29.7z"/>
	</g>
</g>
</svg>
