<?xml version="1.0" encoding="utf-8"?>
<!-- Generator: Adobe Illustrator 26.0.1, SVG Export Plug-In . SVG Version: 6.00 Build 0)  -->
<!DOCTYPE svg PUBLIC "-//W3C//DTD SVG 1.1//EN" "http://www.w3.org/Graphics/SVG/1.1/DTD/svg11.dtd" [
	<!ENTITY ns_extend "http://ns.adobe.com/Extensibility/1.0/">
	<!ENTITY ns_ai "http://ns.adobe.com/AdobeIllustrator/10.0/">
	<!ENTITY ns_graphs "http://ns.adobe.com/Graphs/1.0/">
	<!ENTITY ns_vars "http://ns.adobe.com/Variables/1.0/">
	<!ENTITY ns_imrep "http://ns.adobe.com/ImageReplacement/1.0/">
	<!ENTITY ns_sfw "http://ns.adobe.com/SaveForWeb/1.0/">
	<!ENTITY ns_custom "http://ns.adobe.com/GenericCustomNamespace/1.0/">
	<!ENTITY ns_adobe_xpath "http://ns.adobe.com/XPath/1.0/">
]>
<svg version="1.1" id="Layer_1" xmlns:x="&ns_extend;" xmlns:i="&ns_ai;" xmlns:graph="&ns_graphs;"
	 xmlns="http://www.w3.org/2000/svg" xmlns:xlink="http://www.w3.org/1999/xlink" x="0px" y="0px" viewBox="0 0 200 56.4"
	 style="enable-background:new 0 0 200 56.4;" xml:space="preserve">
<style type="text/css">
	.st0{fill:#808184;}
	.st1{clip-path:url(#SVGID_00000100355213621206814560000016516969901272315010_);}
	.st2{fill:#AC9C63;}
	.st3{fill:#038295;}
	
		.st4{clip-path:url(#SVGID_00000124142207061631356210000011479278014225779390_);fill:url(#SVGID_00000000910422850421025580000008037853390574130342_);}
	
		.st5{clip-path:url(#SVGID_00000090293412262369312310000004836602955790224823_);fill:url(#SVGID_00000017475493187577105120000006956279585692738179_);}
	
		.st6{clip-path:url(#SVGID_00000058570473610283063520000008913778787205307038_);fill:url(#SVGID_00000138571778992138463680000003902395201245303456_);}
	.st7{fill:url(#SVGID_00000084528373165388856420000002477347238053005486_);}
	.st8{fill:url(#SVGID_00000086652570185695623860000010298029673665686433_);}
	.st9{fill:url(#SVGID_00000110470343651734750840000006157199108224029081_);}
	.st10{fill:url(#SVGID_00000174574996149107500150000007576551839014587532_);}
	.st11{fill:url(#SVGID_00000152957472490680590420000008649377900445143196_);}
	.st12{fill:url(#SVGID_00000013873914657149262890000000995790944531305115_);}
	.st13{fill:url(#SVGID_00000145748932494066668520000002136025056360257152_);}
	.st14{fill:url(#SVGID_00000084529197353360679220000017670969787226536113_);}
	.st15{fill:url(#SVGID_00000136370754925556025630000003772733983996324746_);}
	.st16{fill:url(#SVGID_00000120521939280447302040000014090313542647701658_);}
	.st17{fill:url(#SVGID_00000016047329025666009410000008824818784963597196_);}
	.st18{fill:url(#SVGID_00000072247765812954498970000005262351442042745006_);}
	.st19{fill:url(#SVGID_00000060719319572275803370000016872134563138857379_);}
	.st20{fill:url(#SVGID_00000174577282820371100450000000572937531211523243_);}
	.st21{fill:url(#SVGID_00000106846970884253473350000001699781983296406694_);}
	.st22{fill:url(#SVGID_00000146460726821388308160000012732270596562298537_);}
	.st23{fill:url(#SVGID_00000057847184625843679360000016400185591536833691_);}
	.st24{fill:url(#SVGID_00000101790149339101445240000015955240891353541286_);}
	.st25{fill:url(#SVGID_00000168081181946908703940000012737275570749024166_);}
	.st26{fill:url(#SVGID_00000036959907644365734660000007926679235061541789_);}
	.st27{fill:url(#SVGID_00000006666765930149387090000017768419901691220096_);}
	.st28{fill:url(#SVGID_00000114066334976644225750000012415922245845040773_);}
	.st29{fill:url(#SVGID_00000148644430047703204590000010479193960787038856_);}
	.st30{fill:url(#SVGID_00000041294059818087711820000012907330853697844885_);}
	.st31{fill:url(#SVGID_00000165192504496902078270000010856282108836668584_);}
	.st32{fill:url(#SVGID_00000134948657894102938640000016880604476906266752_);}
	.st33{fill:url(#SVGID_00000114762547388372989800000012500491287680368515_);}
	.st34{fill:url(#SVGID_00000165950180995533968570000002943004992397280701_);}
	.st35{fill:url(#SVGID_00000008842805894875562110000008862299866760331189_);}
	.st36{fill:url(#SVGID_00000018226794382390736260000007096245445609901247_);}
	.st37{fill:url(#SVGID_00000160150341487839647950000008292467988064304513_);}
	.st38{fill:url(#SVGID_00000134946246443362525950000013012449936992798592_);}
	.st39{fill:url(#SVGID_00000130627482543387366220000017660917469906551467_);}
	.st40{fill:url(#SVGID_00000029752172196259919680000008236291663231675064_);}
	.st41{fill:url(#SVGID_00000152261169175244633390000017512512911746293385_);}
	.st42{fill:url(#SVGID_00000065752756523885616080000005702825230445895848_);}
	.st43{fill:url(#SVGID_00000065776339990941912430000004412642924464445341_);}
	.st44{fill:url(#SVGID_00000172431387794730646590000004298517533953859767_);}
	.st45{fill:url(#SVGID_00000000902807053401568030000005102825891030155137_);}
	.st46{fill:url(#SVGID_00000079463262395752825870000015487960389210098564_);}
	.st47{fill:url(#SVGID_00000094607752141493654900000012014620619728929190_);}
	.st48{fill:url(#SVGID_00000173853444940237254400000009518827557584329344_);}
	.st49{fill:url(#SVGID_00000059278224500109289400000017453617275105148557_);}
	.st50{fill:url(#SVGID_00000147931930947645518210000002570649094504872869_);}
	.st51{fill:url(#SVGID_00000076570192429428020960000008248099655245544613_);}
	.st52{fill:url(#SVGID_00000030486358665155418730000005023782882559741853_);}
	.st53{fill:url(#SVGID_00000072264502912231127520000013578827094898226344_);}
	.st54{fill:#6AC1D5;}
	.st55{fill:#73BAB2;}
	.st56{fill:url(#SVGID_00000160872594826884051610000004005570865719002251_);}
	.st57{fill:url(#SVGID_00000060742140474281779740000002866368618109963909_);}
	.st58{fill:url(#SVGID_00000154407006580977117410000000539583049174105228_);}
	.st59{fill:url(#SVGID_00000048463609787770798950000001212214196356339851_);}
	.st60{fill:url(#SVGID_00000163041969195763956220000004823797745225376678_);}
	.st61{fill:url(#SVGID_00000145019134709513206060000011876464570297184941_);}
	.st62{fill:url(#SVGID_00000026139360549427735790000004326531558336268475_);}
	.st63{fill:url(#SVGID_00000026161249695001277020000013732855507172325779_);}
	.st64{fill:url(#SVGID_00000124121468004041089390000014163875069567829175_);}
	.st65{fill:url(#SVGID_00000054258116702507388700000017393430661942575749_);}
	.st66{fill:url(#SVGID_00000181077381337510610430000008698684974458821567_);}
	.st67{fill:url(#SVGID_00000072270545765933126320000002720690683978816425_);}
	.st68{fill:url(#SVGID_00000178199740065894716210000014412934506273305772_);}
	.st69{fill:url(#SVGID_00000042699403685639572780000008398759281983563149_);}
	.st70{fill:url(#SVGID_00000067197289433504399580000008846198797131268008_);}
	.st71{fill:url(#SVGID_00000036942503098593445850000017416105017549125553_);}
	.st72{fill:url(#SVGID_00000002377513448916978680000002647404591474453671_);}
	.st73{fill:url(#SVGID_00000128452851081820221460000011774652084988200086_);}
	.st74{fill:url(#SVGID_00000017502597771592579010000008825257332613994920_);}
	.st75{fill:url(#SVGID_00000096738161314200424720000007171348197208471689_);}
	.st76{fill:url(#SVGID_00000103251092918401238120000011493205844783074456_);}
	.st77{fill:url(#SVGID_00000067193876533381930790000017607396159356985249_);}
	.st78{fill:url(#SVGID_00000036960858393209578930000015984342572883012751_);}
	.st79{fill:url(#SVGID_00000098917129204344364050000014651614486832273591_);}
	.st80{fill:url(#SVGID_00000013185823980715320900000000472596299415740336_);}
	.st81{fill:url(#SVGID_00000029041565800932275160000001082170015701563783_);}
	.st82{fill:url(#SVGID_00000031187434944201090470000017573871397521491607_);}
	.st83{fill:url(#SVGID_00000017503143768206981760000009137265517301246635_);}
	.st84{fill:url(#SVGID_00000119801363929097714880000000858407381333766552_);}
	.st85{fill:url(#SVGID_00000133509291583822197450000006997573385403974307_);}
	.st86{fill:url(#SVGID_00000163074600156440820440000017516200841401640889_);}
	.st87{fill:url(#SVGID_00000036241116089774434930000017521412063793518522_);}
	.st88{fill:url(#SVGID_00000183220204443868675860000015255629540257372340_);}
	.st89{fill:url(#SVGID_00000163048502859520146130000005764636823597301944_);}
	.st90{fill:#004F54;}
	.st91{fill-rule:evenodd;clip-rule:evenodd;fill:#065055;}
	.st92{fill:#7A9699;}
	.st93{fill:#87A4AB;}
	
		.st94{clip-path:url(#SVGID_00000050650927289885709380000010775631750253139609_);fill:url(#SVGID_00000078003678573759812550000007124681208233838516_);}
	
		.st95{clip-path:url(#SVGID_00000145766739687138389690000015377686123553695930_);fill:url(#SVGID_00000012433692742309998880000010532331664529429386_);}
	
		.st96{clip-path:url(#SVGID_00000007389060118507400070000004195799974076829068_);fill:url(#SVGID_00000083808554899691324410000015801217191776813453_);}
	
		.st97{clip-path:url(#SVGID_00000091728396676821440070000011806465877899900803_);fill:url(#SVGID_00000031893607087815629200000004264148913313948337_);}
	
		.st98{clip-path:url(#SVGID_00000155832289742273361270000015219018113458358938_);fill:url(#SVGID_00000154397636452727878140000001166302200526291864_);}
	
		.st99{clip-path:url(#SVGID_00000097490028767418935140000011470663466952398209_);fill:url(#SVGID_00000092451468623045664660000018229897248454523277_);}
	
		.st100{clip-path:url(#SVGID_00000165956476170035498080000012792536081634049204_);fill:url(#SVGID_00000116926576817102654030000002346034854355750278_);}
	
		.st101{clip-path:url(#SVGID_00000125564211270777904290000008726717443393399698_);fill:url(#SVGID_00000021088805754534390660000009628513636666760090_);}
	
		.st102{clip-path:url(#SVGID_00000070113855839155688260000016616999635814226836_);fill:url(#SVGID_00000178191620382031911020000016609237830204888468_);}
	
		.st103{clip-path:url(#SVGID_00000057107824905767991750000010938838295323556234_);fill:url(#SVGID_00000039838822135192757290000000220987613113246877_);}
	
		.st104{clip-path:url(#SVGID_00000181076528747802545530000010121512358924930192_);fill:url(#SVGID_00000121963816825663174260000015972372898208217749_);}
	
		.st105{clip-path:url(#SVGID_00000080173469909391634620000017253228931462822075_);fill:url(#SVGID_00000036220978897611752410000009740912304107816610_);}
	
		.st106{clip-path:url(#SVGID_00000131328851301493830760000013073610589039931789_);fill:url(#SVGID_00000116935123030931241670000009585965650766191752_);}
	
		.st107{clip-path:url(#SVGID_00000116219653943951541070000003631507665712351925_);fill:url(#SVGID_00000088092279080884303900000009730616008586880398_);}
	
		.st108{clip-path:url(#SVGID_00000042715364652699582910000016895921854910669703_);fill:url(#SVGID_00000127747045421427269480000014041900821440687801_);}
	
		.st109{clip-path:url(#SVGID_00000095314368743620970000000007702591701506667926_);fill:url(#SVGID_00000117655515399151762800000005314120159220894655_);}
	
		.st110{clip-path:url(#SVGID_00000088820903332449182990000005548400610224033202_);fill:url(#SVGID_00000071551623678375983930000012101362754305803934_);}
	
		.st111{clip-path:url(#SVGID_00000016772568626899272190000012505028323726540729_);fill:url(#SVGID_00000052797204773331083340000003089610158709956790_);}
	
		.st112{clip-path:url(#SVGID_00000172441287888795357030000000933955643180319651_);fill:url(#SVGID_00000047771194337090542890000010646474687560761014_);}
	
		.st113{clip-path:url(#SVGID_00000034800260797981533180000006791551366969309598_);fill:url(#SVGID_00000048460869770302909180000008189176203153779602_);}
	
		.st114{clip-path:url(#SVGID_00000121266978658780314320000007051195456728338334_);fill:url(#SVGID_00000057124952124132275470000014476751294687781766_);}
	
		.st115{clip-path:url(#SVGID_00000022559037496269615460000018435083884983246980_);fill:url(#SVGID_00000077308608388028163690000002010747386219045047_);}
	
		.st116{clip-path:url(#SVGID_00000082370747576789727660000010533500867722210188_);fill:url(#SVGID_00000114795073581124466750000005633583216976704675_);}
	
		.st117{clip-path:url(#SVGID_00000176734275740843502900000013189507289080116382_);fill:url(#SVGID_00000112612111553475490160000011104502931141105538_);}
	
		.st118{clip-path:url(#SVGID_00000069359344423169200010000003349740689547249026_);fill:url(#SVGID_00000083771393907831567000000014592739748556829844_);}
	
		.st119{clip-path:url(#SVGID_00000165947987517436654310000012516612112380287163_);fill:url(#SVGID_00000152958047717860150820000001881474133876250531_);}
	
		.st120{clip-path:url(#SVGID_00000098221508537493053110000006749036264331004588_);fill:url(#SVGID_00000152251362292428507350000013754804212689479043_);}
	.st121{fill:#68934B;}
	.st122{fill:#5F7360;}
	.st123{fill:#7D897A;}
	.st124{fill:#5B8172;}
	.st125{fill:#54665D;}
	.st126{clip-path:url(#SVGID_00000156573821819273051240000004177270460370459306_);fill:#54665D;}
	.st127{fill:#00495C;}
</style>
<metadata>
	<sfw  xmlns="&ns_sfw;">
		<slices></slices>
		<sliceSourceBounds  bottomLeftOrigin="true" height="1021.1" width="4161.2" x="-38.2" y="-866.2"></sliceSourceBounds>
	</sfw>
</metadata>
<g>
	<path class="st92" d="M4.2,14.7v3.6h2.1c1,0,1.7-0.1,2.2-0.4c0.4-0.3,0.7-0.8,0.7-1.4c0-0.5-0.2-0.9-0.6-1.3
		c-0.4-0.3-1-0.5-1.7-0.5H4.2z M4.2,8.7V12h2c0.6,0,1.1-0.2,1.4-0.5c0.3-0.3,0.5-0.7,0.5-1.2c0-0.5-0.2-0.8-0.5-1.1
		C7.2,8.9,6.7,8.7,6.1,8.7L4.2,8.7L4.2,8.7z M0.4,6h6.5c1.6,0,2.8,0.4,3.7,1.1c0.9,0.7,1.3,1.6,1.3,2.7c0,1.3-0.7,2.3-2.1,3
		c1,0.3,1.8,0.8,2.4,1.5c0.6,0.7,0.8,1.5,0.8,2.4c0,1.3-0.4,2.4-1.4,3.2c-0.9,0.8-2.2,1.2-4,1.2H0.4V6z"/>
	<polygon class="st92" points="34.3,18.3 34.3,21.1 23.1,21.1 23.1,6 34.1,6 34.1,8.7 26.9,8.7 26.9,11.9 33.8,11.9 33.8,14.7 
		26.9,14.7 26.9,18.3 	"/>
	<path class="st92" d="M53.5,15.4l-2.5-5.9l-2.2,5.9H53.5z M53.2,6l6.7,15.1h-4.1l-1.2-3h-6.8l-1.1,3h-4L48.9,6H53.2z"/>
	<path class="st92" d="M82.1,16.5v3.3c-1.9,1-3.9,1.5-5.9,1.5c-2.7,0-4.8-0.7-6.4-2.2c-1.6-1.5-2.4-3.3-2.4-5.5c0-2.2,0.8-4,2.5-5.5
		c1.7-1.5,3.9-2.3,6.6-2.3c2.2,0,4,0.4,5.5,1.3v3.4c-1.8-1-3.6-1.5-5.2-1.5c-1.6,0-2.9,0.4-3.9,1.3c-1,0.9-1.5,2-1.5,3.3
		s0.5,2.5,1.5,3.3c1,0.9,2.3,1.3,3.9,1.3c0.8,0,1.5-0.1,2.2-0.3C79.6,17.6,80.7,17.2,82.1,16.5L82.1,16.5z"/>
	<polygon class="st92" points="107.4,6 107.4,21.1 103.6,21.1 103.6,15 96.1,15 96.1,21.1 92.3,21.1 92.3,6 96.1,6 96.1,12 
		103.6,12 103.6,6 	"/>
	<path class="st92" d="M132.4,7v3.3c-1.9-0.9-3.8-1.4-5.7-1.4c-1.8,0-3.1,0.4-4.1,1.3c-1,0.9-1.4,2-1.4,3.4s0.5,2.4,1.4,3.2
		c1,0.8,2.2,1.2,3.8,1.2c0.8,0,1.7-0.2,2.5-0.5v-1.8h-2.2v-2.8h6v6.2c-0.6,0.6-1.5,1.1-2.7,1.5c-1.2,0.4-2.4,0.6-3.6,0.6
		c-2.6,0-4.8-0.7-6.5-2.2c-1.7-1.5-2.5-3.3-2.5-5.6s0.8-4.2,2.5-5.6c1.7-1.4,3.9-2.2,6.6-2.2C128.7,5.8,130.7,6.2,132.4,7L132.4,7z"
		/>
	<path class="st92" d="M152.4,15.4L150,9.6l-2.2,5.9H152.4z M152.1,6l6.7,15.1h-4.1l-1.2-3h-6.8l-1.1,3h-4L147.7,6H152.1z"/>
	<polygon class="st92" points="178.8,6 178.8,8.7 173.3,8.7 173.3,21.1 169.5,21.1 169.5,8.7 164,8.7 164,6 178.8,6 	"/>
	<polygon class="st92" points="199.5,18.3 199.5,21.1 188.3,21.1 188.3,6 199.3,6 199.3,8.7 192.1,8.7 192.1,11.9 199,11.9 
		199,14.7 192.1,14.7 192.1,18.3 	"/>
	<polygon class="st92" points="63,56.1 61.8,56.1 68.9,40.8 75.9,56.1 74.8,56.1 68.9,43.2 	"/>
	<path class="st92" d="M85,41.5c6.2,0,8,4.1,8,7.3c0,3.4-2,7.3-7.8,7.3h-5.3V41.5H85z M81,55.1h4.1c3.5,0,6.6-2.2,6.6-6.3
		c0-3.7-2.7-6.3-6.7-6.3h-4V55.1z"/>
	<path class="st92" d="M102.6,41.5c6.2,0,8,4.1,8,7.3c0,3.4-2,7.3-7.8,7.3h-5.3V41.5H102.6z M98.7,55.1h4.1c3.5,0,6.6-2.2,6.6-6.3
		c0-3.7-2.7-6.3-6.7-6.3h-4V55.1z"/>
	<path class="st92" d="M119,41.5c3.6,0,4.8,1.8,4.8,3.8c0,1.7-0.9,2.9-2.8,3.5c0.7,0.4,1.3,1.2,1.9,2.2l3.3,5H125l-2.5-4
		c-1.8-2.8-2.3-3-4.1-3h-2v7h-1.1V41.5L119,41.5L119,41.5z M116.4,48.1h2.4c2.6,0,3.8-1.1,3.8-2.9c0-1.6-1.2-2.8-3.8-2.8h-2.4
		L116.4,48.1L116.4,48.1z"/>
	<polygon class="st92" points="137.8,42.4 131,42.4 131,48.2 137.6,48.2 137.6,49.1 131,49.1 131,55.1 138,55.1 138,56.1 
		129.9,56.1 129.9,41.5 137.8,41.5 	"/>
	<path class="st92" d="M150.6,43.5c-1.6-0.9-2.4-1.1-3.4-1.1c-1.8,0-3.2,1.2-3.2,2.8c0,3.9,7.3,2,7.3,7.1c0,2.2-2,4-4.4,4
		c-1.3,0-2.6-0.4-3.9-1.3v-1.3c1.7,1.2,2.7,1.6,3.9,1.6c1.8,0,3.2-1.3,3.2-2.9c0-4.1-7.3-2.3-7.3-7.1c0-2.2,2-3.9,4.4-3.9
		c1.2,0,2.4,0.3,3.5,0.9V43.5L150.6,43.5z"/>
	<path class="st92" d="M163.5,43.5c-1.6-0.9-2.4-1.1-3.4-1.1c-1.8,0-3.2,1.2-3.2,2.8c0,3.9,7.3,2,7.3,7.1c0,2.2-2,4-4.4,4
		c-1.3,0-2.6-0.4-3.9-1.3v-1.3c1.7,1.2,2.7,1.6,3.9,1.6c1.8,0,3.2-1.3,3.2-2.9c0-4.1-7.3-2.3-7.3-7.1c0-2.2,2-3.9,4.4-3.9
		c1.2,0,2.4,0.3,3.5,0.9V43.5L163.5,43.5z"/>
	<path class="st92" d="M40.1,51c0.3-0.2,0.4-0.5,0.4-0.8c0-0.7-0.5-1.1-1.6-1.1h-2.2v2.2h2.2C39.4,51.2,39.8,51.1,40.1,51
		 M36.7,46.1v2.1h2c0.5,0,0.9-0.1,1.1-0.3c0.3-0.2,0.4-0.4,0.4-0.8c0-0.3-0.1-0.6-0.4-0.8c-0.3-0.2-0.6-0.3-1.1-0.3H36.7z
		 M41.1,49.1c0.2,0.3,0.3,0.6,0.3,1.1c0,0.6-0.2,1-0.7,1.3c-0.4,0.3-1.1,0.5-1.9,0.5h-3.2v-6.7h3c0.8,0,1.4,0.2,1.8,0.5
		c0.4,0.3,0.6,0.7,0.6,1.3c0,0.3-0.1,0.7-0.2,0.9c-0.2,0.3-0.4,0.4-0.7,0.6C40.6,48.7,40.9,48.8,41.1,49.1"/>
	<polygon class="st92" points="48.5,49.7 48.5,52 47.5,52 47.5,49.7 44.9,45.3 45.9,45.3 48,48.8 50.2,45.3 51.1,45.3 	"/>
</g>
</svg>
