<?xml version="1.0" encoding="utf-8"?>
<!-- Generator: Adobe Illustrator 26.0.1, SVG Export Plug-In . SVG Version: 6.00 Build 0)  -->
<!DOCTYPE svg PUBLIC "-//W3C//DTD SVG 1.1//EN" "http://www.w3.org/Graphics/SVG/1.1/DTD/svg11.dtd" [
	<!ENTITY ns_extend "http://ns.adobe.com/Extensibility/1.0/">
	<!ENTITY ns_ai "http://ns.adobe.com/AdobeIllustrator/10.0/">
	<!ENTITY ns_graphs "http://ns.adobe.com/Graphs/1.0/">
	<!ENTITY ns_vars "http://ns.adobe.com/Variables/1.0/">
	<!ENTITY ns_imrep "http://ns.adobe.com/ImageReplacement/1.0/">
	<!ENTITY ns_sfw "http://ns.adobe.com/SaveForWeb/1.0/">
	<!ENTITY ns_custom "http://ns.adobe.com/GenericCustomNamespace/1.0/">
	<!ENTITY ns_adobe_xpath "http://ns.adobe.com/XPath/1.0/">
]>
<svg version="1.1" id="Layer_1" xmlns:x="&ns_extend;" xmlns:i="&ns_ai;" xmlns:graph="&ns_graphs;"
	 xmlns="http://www.w3.org/2000/svg" xmlns:xlink="http://www.w3.org/1999/xlink" x="0px" y="0px" viewBox="0 0 200 48.2"
	 style="enable-background:new 0 0 200 48.2;" xml:space="preserve">
<style type="text/css">
	.st0{fill:#080505;}
	.st1{fill:#F8AF41;}
	.st2{fill:#376278;}
	.st3{fill:#FFC663;}
	.st4{fill:#F6CE76;}
	.st5{fill:#0D98BB;}
	.st6{fill:#70B599;}
	.st7{fill:#EAE3AC;}
	.st8{fill:#91060D;}
	.st9{fill:#2D628C;}
	.st10{fill:#012944;}
	.st11{fill:#043754;}
	.st12{fill:#1D324D;}
	.st13{fill:#8C7449;}
	.st14{fill:#003756;}
	.st15{fill:#53B2D3;}
	.st16{fill:#082042;}
	.st17{fill:#055985;}
	.st18{fill:#A08C6A;}
	.st19{clip-path:url(#SVGID_00000008843942526859754400000007665374439798807230_);}
	.st20{filter:url(#Adobe_OpacityMaskFilter);}
	.st21{opacity:0.9;mask:url(#SVGID_00000036232880308351338900000018249946038278184846_);fill:#FFFFFF;}
	.st22{filter:url(#Adobe_OpacityMaskFilter_00000096018624990702661050000016704718882314536837_);}
	.st23{opacity:0.75;mask:url(#SVGID_00000147935886909248805850000003988011303946230463_);}
	.st24{filter:url(#Adobe_OpacityMaskFilter_00000155833540136251953930000000813219308886378419_);}
	.st25{mask:url(#SVGID_00000136381655150184550030000012332578085956456617_);fill:#FFFFFF;}
	.st26{filter:url(#Adobe_OpacityMaskFilter_00000072267985678648393710000013845024538424171656_);}
	.st27{opacity:0.75;mask:url(#SVGID_00000183970821112197112400000013655042850110906517_);}
	.st28{fill:none;stroke:#000000;stroke-width:1.2;}
	.st29{clip-path:url(#SVGID_00000012447031345923429920000001917803526649053575_);}
	.st30{fill:#1E2731;}
	.st31{fill:#777779;}
	
		.st32{clip-path:url(#SVGID_00000068638152545077805460000009116888663637489073_);fill:url(#SVGID_00000087384880367835872360000005604515006412074402_);}
</style>
<metadata>
	<sfw  xmlns="&ns_sfw;">
		<slices></slices>
		<sliceSourceBounds  bottomLeftOrigin="true" height="515.4" width="2528.1" x="0.1" y="-405.1"></sliceSourceBounds>
	</sfw>
</metadata>
<g>
	<rect x="0.1" y="26" class="st12" width="198.5" height="0.4"/>
	<path class="st12" d="M173.7,13.3V7.8h6.4v5.5h2V1.6h-2V6h-6.4V1.6h-2v11.7H173.7z M165,9.9c-1,1.1-2.6,2-4.4,2
		c-2.6,0-4.3-2-4.3-4.4c0-2.4,1.7-4.4,4.2-4.4c1.4,0,3.1,0.6,4.1,1.6l1.4-1.3c-1.3-1.2-3.4-2.1-5.5-2.1c-3.8,0-6.3,2.8-6.3,6.2
		c0,3.4,2.6,6.2,6.4,6.2c2.6,0,4.5-1.2,5.8-2.4L165,9.9z M143.9,4h0.1l2,4.5h-4.2L143.9,4z M137.7,13.3h2.1l1.4-3.2h5.6l1.4,3.2h2.2
		L145,1.6h-1.8L137.7,13.3z M129.6,6.3h-4.5V3.4h7.5V1.6h-9.5v11.7h10v-1.8h-8V8.1h4.5V6.3z M112.6,3.4c0.6,0,1,0.1,1.3,0.4
		c0.3,0.3,0.4,0.6,0.4,1c0,0.4-0.2,0.9-0.5,1.2c-0.3,0.3-0.8,0.4-1.2,0.4h-4.9V3.4H112.6z M113,8.1c0.6,0,1.1,0.3,1.5,0.6
		c0.3,0.3,0.5,0.7,0.5,1.1c0,0.4-0.2,0.9-0.5,1.2c-0.4,0.4-0.9,0.5-1.5,0.5h-5.3V8.1H113z M113,13.3c1.7,0,2.5-0.5,3-1
		c0.8-0.8,1.1-1.6,1.1-2.5c0-1.4-0.8-2.6-2.1-3c0.8-0.3,1.5-1.3,1.5-2.4c0-0.7-0.3-1.3-0.8-1.8c-0.6-0.6-1.5-1-2.8-1h-7.1v11.7H113z
		 M84.1,1.6h-2v11.7h2V9.7l2.4-2.2l4.7,5.9h2.6l-5.9-7.2l4.8-4.5h-2.5l-6.1,5.8V1.6z M73.1,6.3h-4.5V3.4h7.5V1.6h-9.5v11.7h10v-1.8
		h-8V8.1h4.5V6.3z M57.5,6.3H53V3.4h7.5V1.6H51v11.7h10v-1.8h-8V8.1h4.5V6.3z M40.7,3.4c0.6,0,1.3,0.1,1.8,0.6
		C42.8,4.4,43,4.8,43,5.2c0,1-0.9,1.8-2,1.8h-4.8V3.4H40.7z M36.2,13.3V8.8h4.2l2.5,4.5h2.3l-2.8-4.8C44,8,45,6.8,45,5.2
		c0-0.9-0.3-1.7-0.9-2.4c-0.8-0.8-1.8-1.2-3.4-1.2h-6.5v11.7H36.2z M27.5,9.9c-1,1.1-2.6,2-4.4,2c-2.6,0-4.3-2-4.3-4.4
		c0-2.4,1.7-4.4,4.2-4.4c1.4,0,3.1,0.6,4.1,1.6l1.4-1.3c-1.3-1.2-3.4-2.1-5.5-2.1c-3.8,0-6.3,2.8-6.3,6.2c0,3.4,2.6,6.2,6.4,6.2
		c2.6,0,4.5-1.2,5.8-2.4L27.5,9.9z"/>
	<path class="st12" d="M81,47.3h-5.7c0,0,0.2-0.3,0.2-0.8v-6.9c0-0.5-0.2-0.8-0.2-0.8h1.4v8.4h2.1c1.8,0,2.3-1.1,2.3-1.1V47.3z"/>
	<path class="st12" d="M75.5,47.2h1.1V39h-1.1c0.1,0.1,0.1,0.4,0.1,0.7v6.9C75.6,46.8,75.5,47.1,75.5,47.2 M79.9,47.2h1v-0.7
		C80.7,46.7,80.4,47,79.9,47.2 M81.1,47.4h-6l0.1-0.2c0,0,0.2-0.3,0.2-0.7v-6.9c0-0.4-0.2-0.7-0.2-0.7l-0.1-0.2l1.7,0v8.4h2
		c1.7,0,2.1-1,2.2-1l0.2-0.5V47.4z"/>
	<path class="st12" d="M91.8,43.1c0-3-1.6-4.3-3.4-4.3c-1.8,0-3.4,1.3-3.4,4.3c0,3,1.6,4.3,3.4,4.3C90.2,47.4,91.8,46.1,91.8,43.1
		 M93.1,43.1c0,3-2.3,4.4-4.7,4.4c-2.4,0-4.7-1.3-4.7-4.4c0-3,2.3-4.4,4.7-4.4C90.8,38.7,93.1,40.1,93.1,43.1"/>
	<path class="st12" d="M86.8,39.1c-1.6,0.5-3,1.7-3,4c0,2.4,1.4,3.6,3,4.1c-1.4-0.8-1.9-2.5-1.9-4.1C84.8,41.6,85.4,39.8,86.8,39.1
		 M89.9,39c1.1,0.6,2,1.8,2,4.1c0,1.5-0.5,3.3-1.9,4.1c1.6-0.5,3-1.7,3-4.1C93,40.7,91.5,39.5,89.9,39 M88.4,38.9
		c-1.6,0-3.3,1.1-3.3,4.2c0,3.1,1.7,4.2,3.3,4.2c1.6,0,3.3-1.1,3.3-4.2C91.7,41.2,90.8,38.9,88.4,38.9 M88.4,47.6
		c-2.2,0-4.8-1.2-4.8-4.5c0-2.1,1.3-4.5,4.8-4.5c3.6,0,4.8,2.4,4.8,4.5C93.2,46.4,90.6,47.6,88.4,47.6"/>
	<path class="st12" d="M103.2,38.9V40c0,0-0.3-1.1-2.1-1.1H100v7.6c0,0.4,0.2,0.8,0.2,0.8h-1.6c0,0,0.2-0.3,0.2-0.8V39h-1.1
		C96,39,95.6,40,95.6,40v-1.1H103.2z"/>
	<path class="st12" d="M95.7,39v0.6c0.2-0.2,0.4-0.5,0.9-0.6H95.7z M102.2,39c0.5,0.2,0.7,0.4,0.9,0.6V39H102.2z M98.8,47.2h1.2
		c-0.1-0.1-0.1-0.4-0.1-0.6V39h-0.9v7.6C98.9,46.8,98.9,47.1,98.8,47.2 M100.2,47.4h-1.8l0.1-0.2c0,0,0.2-0.3,0.2-0.7v-7.5h-1
		c-1.7,0-2,1-2,1l-0.2,0.7l0-1.9h7.8v1.9l-0.2-0.7c0,0-0.3-1-2-1h-1v7.5c0,0.4,0.2,0.7,0.2,0.7l0.1,0.2H100.2z"/>
	<path class="st12" d="M113.7,40.3v3.9c0,0.9-0.3,1.8-1,2.4c-0.6,0.6-1.4,0.9-2.3,0.9c-2.5,0-3.7-1.5-3.7-3.5v-4.4
		c0-0.4-0.2-0.7-0.2-0.7h1.4v5c0,3.6,2.5,3.6,2.5,3.6c0.9,0,1.7-0.3,2.3-0.9c0.6-0.6,0.9-1.4,0.9-2.3L113.7,40.3
		c-0.1-0.6-0.3-1-0.5-1.4h1C114,39.3,113.7,39.8,113.7,40.3"/>
	<path class="st12" d="M113.4,39c0.1,0.2,0.2,0.5,0.3,0.7c0.1-0.3,0.2-0.5,0.3-0.7H113.4z M106.7,39c0.1,0.1,0.1,0.4,0.1,0.6V44
		c0,1.8,0.9,3,2.6,3.3c-0.2-0.1-0.4-0.2-0.6-0.4c-0.7-0.6-1-1.7-1-3V39H106.7z M110.4,47.6c-2.4,0-3.8-1.3-3.8-3.6v-4.4
		c0-0.4-0.2-0.7-0.2-0.7l-0.1-0.2l1.7,0v5.1c0,1.3,0.3,2.2,0.9,2.8c0.7,0.6,1.4,0.6,1.4,0.6c0.9,0,1.6-0.3,2.2-0.9
		c0.6-0.6,0.9-1.4,0.9-2.2v-3.9c0-0.5-0.2-1-0.5-1.4l-0.1-0.2h1.4l-0.1,0.2c-0.2,0.4-0.5,0.9-0.5,1.4v3.9c0,0.9-0.4,1.8-1,2.4
		C112.2,47.3,111.3,47.6,110.4,47.6"/>
	<path class="st12" d="M117.3,45.5c0.6,1.6,2.1,2,3.1,2c1.1,0,2-0.7,2-1.7c0-0.8-0.6-1.3-1.2-1.7c-1.2-0.8-3.5-1.4-3.5-3.2
		c0-1.4,1.4-2.1,2.6-2.1c0.4,0,0.8,0.1,1.2,0.2c0.6,0.2,0.7,0.5,1.1,0.5c0.1,0,0.2,0,0.3-0.1v1.2c-0.2-0.6-0.5-1-0.8-1.3
		c-0.5-0.3-1.1-0.5-1.7-0.5c-1.2,0-1.8,0.6-1.8,1.3c0,0.6,0.4,1.2,1.1,1.6c1.3,0.9,3.8,1.5,3.8,3.5c0,1.6-1.4,2.2-3,2.2
		c-0.8,0-1.4-0.2-1.9-0.5c-0.3-0.1-0.4-0.3-0.8-0.3c-0.2,0-0.4,0.1-0.4,0.1V45.5z"/>
	<path class="st12" d="M122.4,39.5c0.1,0.1,0.2,0.3,0.3,0.5v-0.5C122.6,39.5,122.5,39.5,122.4,39.5 M117.4,46v0.7c0.1,0,0.4,0,0.5,0
		C117.8,46.5,117.6,46.2,117.4,46 M118.7,39.3c-0.5,0.3-0.9,0.8-0.9,1.5c0,1.3,1.3,2,2.4,2.5c0.4,0.2,0.7,0.4,1,0.5
		c0.5,0.4,1.3,0.9,1.3,1.8c0,0.7-0.3,1.2-0.9,1.5c0.8-0.2,1.7-0.7,1.7-2c0-1.4-1.4-2.2-2.6-2.8c-0.4-0.2-0.8-0.4-1.1-0.6
		c-0.7-0.5-1.1-1.1-1.1-1.7C118.4,39.8,118.5,39.5,118.7,39.3 M120.4,47.6c-0.9,0-1.5-0.3-1.9-0.5l-0.1,0c-0.2-0.1-0.4-0.2-0.6-0.2
		c-0.2,0-0.4,0.1-0.4,0.1l-0.1,0l0-2.1l0.2,0.6c0.5,1.4,1.9,1.9,3,1.9c1.1,0,1.9-0.7,1.9-1.6c0-0.8-0.7-1.3-1.2-1.7
		c-0.3-0.2-0.6-0.4-1-0.5c-1.2-0.6-2.5-1.3-2.5-2.7c0-1.4,1.4-2.2,2.7-2.2c0.4,0,0.8,0.1,1.2,0.2c0.3,0.1,0.4,0.2,0.6,0.3
		c0.2,0.1,0.3,0.2,0.5,0.2c0.1,0,0.2,0,0.2-0.1l0.2-0.1v2.3l-0.2-0.8c-0.1-0.5-0.4-0.9-0.8-1.2c-0.5-0.3-1-0.5-1.7-0.5
		c-1,0-1.7,0.5-1.7,1.2c0,0.6,0.4,1.1,1,1.6c0.3,0.2,0.7,0.4,1.1,0.6c1.3,0.7,2.8,1.4,2.8,3C123.5,46.8,122.4,47.6,120.4,47.6"/>
</g>
</svg>
