<?xml version="1.0" encoding="utf-8"?>
<!-- Generator: Adobe Illustrator 26.0.1, SVG Export Plug-In . SVG Version: 6.00 Build 0)  -->
<!DOCTYPE svg PUBLIC "-//W3C//DTD SVG 1.1//EN" "http://www.w3.org/Graphics/SVG/1.1/DTD/svg11.dtd" [
	<!ENTITY ns_extend "http://ns.adobe.com/Extensibility/1.0/">
	<!ENTITY ns_ai "http://ns.adobe.com/AdobeIllustrator/10.0/">
	<!ENTITY ns_graphs "http://ns.adobe.com/Graphs/1.0/">
	<!ENTITY ns_vars "http://ns.adobe.com/Variables/1.0/">
	<!ENTITY ns_imrep "http://ns.adobe.com/ImageReplacement/1.0/">
	<!ENTITY ns_sfw "http://ns.adobe.com/SaveForWeb/1.0/">
	<!ENTITY ns_custom "http://ns.adobe.com/GenericCustomNamespace/1.0/">
	<!ENTITY ns_adobe_xpath "http://ns.adobe.com/XPath/1.0/">
]>
<svg version="1.1" id="Layer_1" xmlns:x="&ns_extend;" xmlns:i="&ns_ai;" xmlns:graph="&ns_graphs;"
	 xmlns="http://www.w3.org/2000/svg" xmlns:xlink="http://www.w3.org/1999/xlink" x="0px" y="0px" viewBox="0 0 200 52.4"
	 style="enable-background:new 0 0 200 52.4;" xml:space="preserve">
<style type="text/css">
	.st0{fill:#808184;}
	.st1{clip-path:url(#SVGID_00000141449140688698141890000008535530051019843764_);}
	.st2{fill:#AC9C63;}
</style>
<metadata>
	<sfw  xmlns="&ns_sfw;">
		<slices></slices>
		<sliceSourceBounds  bottomLeftOrigin="true" height="185.2" width="1488.1" x="1.3" y="-70.2"></sliceSourceBounds>
	</sfw>
</metadata>
<path d="M45.2,7c-0.5,1.3-1,2.5-1.5,3.7c-2.5,6.3-5.1,12.7-7.6,19c-0.1,0.3-0.2,0.4-0.6,0.4c-1.7,0-3.3,0-5,0
	c-0.3,0-0.4-0.1-0.5-0.3c-2-5.2-4.1-10.3-6.1-15.5c0-0.1-0.1-0.2-0.2-0.4c-0.1,0.4-0.3,0.7-0.4,1c-2,5-3.9,9.9-5.9,14.9
	c-0.1,0.2-0.2,0.3-0.4,0.3c-1.7,0-3.4,0-5.2,0c-0.2,0-0.3-0.1-0.4-0.3c-3-7.5-6-15.1-9.1-22.6L2.4,7.1c0.1,0,0.2,0,0.3,0
	c2,0,3.9,0,5.9,0C8.9,7,9,7.1,9.1,7.3c1.8,5.2,3.7,10.3,5.5,15.4c0,0.1,0.1,0.2,0.2,0.4c0.1-0.1,0.1-0.2,0.1-0.3
	c2-5.2,4-10.3,6-15.5C21,7.1,21.2,7,21.5,7c1.6,0,3.3,0,4.9,0c0.2,0,0.4,0.1,0.4,0.3c2,5.2,4,10.3,6,15.4c0,0.1,0.1,0.2,0.2,0.4
	c0.1-0.2,0.1-0.3,0.2-0.5c1.8-5.1,3.7-10.2,5.5-15.4C38.8,7.1,38.9,7,39.2,7c1.9,0,3.8,0,5.7,0L45.2,7L45.2,7z M197.2,9.3
	c-5-2.5-10.3-3.3-15.9-2.4c-1.9,0.3-3.7,1-5.3,2.3c-1.9,1.6-2.8,3.5-2.2,6c0.4,1.6,1.5,2.7,2.9,3.5c1.6,0.8,3.3,1.3,5,1.6
	c2.1,0.4,4.3,0.7,6.4,1.1c0.9,0.2,1.8,0.3,2.6,0.8c1,0.5,1.1,1.7,0.2,2.4c-0.3,0.3-0.7,0.5-1.1,0.6c-1.1,0.4-2.3,0.5-3.5,0.5
	c-3.3,0.1-6.5-0.6-9.6-1.8c-0.8-0.3-1.6-0.7-2.4-1c-0.7,1.5-1.3,3-2,4.5c1.4,0.7,2.8,1.3,4.3,1.7c4.3,1.3,8.7,1.7,13.1,0.9
	c1.9-0.4,3.8-1,5.4-2.2c2.4-1.8,3-4.2,2.3-6.8c-0.5-1.5-1.5-2.4-2.9-3.1c-1.7-0.9-3.6-1.3-5.5-1.6c-2-0.3-3.9-0.6-5.9-1
	c-0.9-0.2-1.8-0.4-2.6-0.8c-0.9-0.5-1-1.5-0.2-2.2c0.3-0.2,0.7-0.4,1-0.6c1.1-0.4,2.2-0.5,3.3-0.5c3.2-0.1,6.3,0.7,9.3,1.9
	c0.4,0.2,0.9,0.4,1.3,0.6c0.7-1.5,1.4-2.9,2-4.4L197.2,9.3z M96.1,7.3c3.7,7.5,7.5,15,11.2,22.5c0.1,0.2,0.2,0.3,0.5,0.3
	c1.8,0,3.6,0,5.4,0c0.2,0,0.4-0.1,0.5-0.3c1.3-2.7,2.7-5.3,4-8c2.4-4.8,4.8-9.7,7.2-14.5c0-0.1,0.1-0.2,0.1-0.3l-0.1,0
	c-2.1,0-4.1,0-6.2,0c-0.2,0-0.3,0.1-0.3,0.3c-2.4,5-4.7,10.1-7.1,15.1c-0.2,0.4-0.4,0.9-0.7,1.4c-0.1-0.2-0.1-0.3-0.2-0.4
	c-2.5-5.4-5-10.7-7.5-16.1c-0.1-0.2-0.2-0.3-0.5-0.3c-2,0-4.1,0-6.1,0H96C96,7.2,96.1,7.3,96.1,7.3 M85.6,29.6
	c-2.2-4.3-4.4-8.7-6.6-13c-1.6-3.1-3.2-6.2-4.7-9.4c-0.1-0.2-0.2-0.3-0.5-0.3c-2,0-4,0-6,0c-0.2,0-0.3,0.1-0.4,0.3
	c-0.8,1.5-1.6,3.1-2.4,4.6c-3,6-6,11.9-9,17.9c-0.1,0.1-0.1,0.2-0.2,0.3c0.1,0,0.2,0,0.3,0c1.9,0,3.7,0,5.6,0c0.2,0,0.4-0.1,0.5-0.3
	c0.8-1.7,1.7-3.3,2.5-5c1.3-2.7,2.6-5.3,4-8c0.7-1.4,1.4-2.7,2.1-4.1c0.1,0.2,0.2,0.4,0.3,0.5c2.7,5.5,5.4,11,8.2,16.6
	c0.1,0.2,0.2,0.3,0.5,0.3c1.1,0,2.1,0,3.2,0h3C85.8,29.8,85.7,29.7,85.6,29.6 M162.4,20.8v-0.3l-0.2,0.3H162.4z M162.4,29.9v-0.1
	l-0.1,0.1H162.4z M147.7,6.4h-1.2c-2.3,1.7-4.5,3-6.7,4.1c-0.9,0.4-1.7,0.8-2.6,1.2h2.1c2.2-1,4.3-2.3,6.5-3.9
	C146.4,7.4,147.1,6.9,147.7,6.4 M154.3,6.4h-0.8c-1.6,1.7-3.1,3-4.7,4.3c-0.5,0.4-0.9,0.7-1.4,1h1.2C150.6,10.3,152.4,8.6,154.3,6.4
	 M152.4,6.4h-0.9c-1.5,1.4-3,2.7-4.6,3.8c-0.8,0.6-1.5,1.1-2.3,1.5h1.4c0.4-0.3,0.8-0.6,1.2-0.9C149,9.6,150.6,8.2,152.4,6.4
	 M150.2,6.4h-1c-1,0.8-2,1.6-3,2.3c-1.6,1.1-3.3,2.1-4.9,3h1.7c1.4-0.8,2.8-1.7,4.1-2.8C148.1,8.2,149.1,7.4,150.2,6.4 M143.2,25.7
	c1.5-0.2,2.9-0.6,4.3-1.2h-2c-0.6,0.2-1.2,0.3-1.7,0.4c-1.8,0.4-3.6,0.5-5.5,0.4c-0.6,0-1.2-0.1-1.9-0.2v0.6l0.3,0
	C139.1,26.1,141.2,26.1,143.2,25.7 M156.1,6.4h-0.7c-0.2,0.2-0.3,0.4-0.5,0.6c-1.7,1.9-3.2,3.4-4.8,4.7h1c0.3-0.3,0.7-0.6,1-0.9
	C153.4,9.5,154.8,8,156.1,6.4 M142.8,24.6l0.3-0.1h-6.6v0.2C138.8,25,140.8,24.9,142.8,24.6 M144.7,27.8c2.9-0.4,5.6-1.5,8-3.3h-1
	c-2.2,1.4-4.6,2.3-7.1,2.7c-1.9,0.3-3.8,0.3-5.8,0.1c-0.8-0.1-1.5-0.2-2.3-0.4v0.5c0.6,0.1,1.3,0.2,1.9,0.3
	C140.7,28.1,142.7,28.1,144.7,27.8 M160.9,11.8c0.5-0.8,1.1-1.7,1.6-2.5V8.6c-0.7,1.1-1.3,2.1-2.1,3.2H160.9z M155.4,25.4
	c0.3-0.3,0.7-0.6,1-0.9h-0.8c-0.2,0.1-0.3,0.3-0.5,0.4c-2.1,1.7-4.3,3-6.7,3.7c-1.5,0.5-3,0.7-4.6,0.8c-1.5,0.1-3.1,0-4.7-0.3
	c-0.9-0.1-1.8-0.3-2.7-0.6v0.5c0.5,0.1,0.9,0.2,1.4,0.3c0.8,0.2,1.6,0.3,2.3,0.4h5.6c0.1,0,0.2,0,0.3,0
	C149.4,29.3,152.6,27.8,155.4,25.4 M136.5,6.4v0.8c0.5-0.3,0.9-0.5,1.4-0.8H136.5z M162.1,11.8L162.1,11.8c0.1-0.2,0.2-0.4,0.3-0.5
	v-0.7c-0.3,0.4-0.5,0.8-0.8,1.3L162.1,11.8L162.1,11.8z M159.6,11.8c1-1.5,2-3,2.9-4.4V6.6c-1,1.6-2.1,3.4-3.4,5.1L159.6,11.8
	L159.6,11.8z M158.6,6.4c-0.6,0.8-1.2,1.6-1.9,2.5c-0.8,1-1.7,2-2.5,2.9h0.7c1.4-1.6,2.8-3.4,4.2-5.3H158.6z M144.3,26.7
	c2.1-0.4,4.2-1.1,6.1-2.2h-1.3c-1.4,0.7-2.9,1.2-4.5,1.5c-2.1,0.4-4.2,0.5-6.5,0.3c-0.6-0.1-1.1-0.1-1.7-0.2v0.5
	c0.5,0.1,1,0.2,1.6,0.2C140.3,27.1,142.3,27.1,144.3,26.7 M157.7,6.4h-0.6c-0.5,0.6-0.9,1.1-1.4,1.7c-1.2,1.4-2.3,2.6-3.4,3.7h0.9
	c1.8-1.8,3.3-3.7,4.4-5.1L157.7,6.4z M145.1,28.9c3.3-0.5,6.4-1.8,9.2-4.1c0.1-0.1,0.2-0.2,0.3-0.3h-0.9c-0.6,0.5-1.2,0.9-1.8,1.2
	c-2.2,1.3-4.4,2.2-6.9,2.5c-1.9,0.3-3.7,0.3-5.8,0c-0.9-0.1-1.9-0.3-2.8-0.5v0.5c0.8,0.2,1.5,0.3,2.2,0.4
	C141.1,29.1,143.1,29.2,145.1,28.9 M161.8,6.4h-0.5c-1.1,1.7-2.3,3.5-3.8,5.3h0.6c0.4-0.5,0.7-1,1-1.4C160.1,9.1,161,7.7,161.8,6.4
	 M160.5,6.4H160c-1,1.5-2.1,2.9-3.2,4.3c-0.3,0.4-0.6,0.7-0.9,1.1h0.7c0.1-0.1,0.2-0.2,0.3-0.4C158.2,9.7,159.4,8.1,160.5,6.4
	 M136.5,29.9h1.7c-0.6-0.1-1.1-0.3-1.7-0.4V29.9z M145,18c1.4-0.7,2.7-1.5,4-2.5h-1.2c-1.6,1.1-3.3,2-5.1,2.7c-2,0.8-4,1.3-6.2,1.5
	v0.7c0.8-0.1,1.5-0.2,2.3-0.3C140.9,19.7,143,19,145,18 M159.7,15.5h-0.6c-0.1,0.1-0.2,0.2-0.2,0.3c-1.5,2-2.9,3.6-4.4,5h0.8
	c0.7-0.7,1.3-1.4,2-2.2C158.1,17.6,158.9,16.6,159.7,15.5 M147.1,18.5c1.5-0.9,2.8-1.9,4.2-3.1h-1.1c-0.1,0.1-0.2,0.2-0.4,0.3
	c-2,1.6-4.1,2.8-6.4,3.7c-2,0.7-4,1.2-6.1,1.4h4.3C143.5,20.3,145.3,19.6,147.1,18.5L147.1,18.5z M160,29.9h0.6
	c0.6-0.6,1.2-1.2,1.8-1.9v-0.6C161.6,28.3,160.8,29.1,160,29.9 M143,15.5h-1.9c-1.5,0.6-3,1.1-4.6,1.4v0.8c0.6-0.1,1.3-0.3,1.9-0.4
	C140,16.8,141.5,16.2,143,15.5 M158.7,29.9h0.7c0.7-0.7,1.5-1.4,2.2-2.3c0.3-0.3,0.6-0.6,0.8-1V26c-0.7,0.9-1.5,1.7-2.2,2.5
	C159.7,29,159.2,29.4,158.7,29.9 M146.3,15.5h-1.5c-0.8,0.4-1.5,0.8-2.3,1.1c-1.9,0.8-3.9,1.4-6,1.7v0.8c0.6-0.1,1.2-0.2,1.9-0.3
	C141.1,18.1,143.8,17,146.3,15.5 M161.8,29.9c0.2-0.2,0.5-0.5,0.7-0.7v-0.5c-0.4,0.4-0.8,0.9-1.2,1.3H161.8z M155.9,18.4
	c0.9-1,1.7-2,2.4-2.9h-0.6c-1.5,2-3,3.5-4.6,4.9c-0.2,0.2-0.4,0.3-0.6,0.5h0.9C154.3,20.1,155.1,19.3,155.9,18.4 M154.9,17.6
	c0.6-0.7,1.3-1.4,1.9-2.2h-0.7c-1.1,1.3-2.2,2.4-3.4,3.4c-0.8,0.7-1.6,1.3-2.5,1.9h1.1C152.6,19.9,153.7,18.9,154.9,17.6
	 M154.2,16.5c0.3-0.3,0.6-0.7,0.9-1h-0.8c-1.1,1.1-2.2,2.1-3.3,3c-1.2,0.9-2.4,1.7-3.6,2.3h1.4c0.3-0.2,0.7-0.4,1-0.7
	C151.4,19.1,152.8,17.9,154.2,16.5 M153.3,15.5h-0.9c-0.3,0.3-0.7,0.6-1,0.9c-2.4,2-4.9,3.5-7.5,4.4h1.9c2.1-1,4.1-2.3,6.1-4
	C152.4,16.4,152.9,15.9,153.3,15.5 M159.2,20.8h0.6c0.9-1.2,1.8-2.4,2.7-3.8v-0.8c-0.2,0.3-0.4,0.6-0.5,0.8
	C161,18.4,160.1,19.6,159.2,20.8 M160.6,24.5h-0.6c-0.8,0.9-1.6,1.7-2.4,2.5c-1.2,1.2-2.5,2.1-3.8,2.9h1c1-0.6,1.9-1.4,2.9-2.2
	C158.7,26.7,159.7,25.7,160.6,24.5 M157.3,29.9h0.7c1.2-1,2.3-2.1,3.4-3.4c0.3-0.4,0.7-0.8,1-1.2v-0.6c-0.8,1-1.6,1.9-2.4,2.7
	C159.2,28.3,158.2,29.1,157.3,29.9 M136.5,15.5v0.7c0.8-0.2,1.6-0.5,2.4-0.7H136.5z M141.6,6.4h-1.7c-0.1,0.1-0.3,0.2-0.4,0.3
	c-1,0.5-1.9,1.1-2.9,1.5v1c0.9-0.4,1.8-0.9,2.7-1.4C140,7.4,140.8,6.9,141.6,6.4 M144.8,6.4h-1.5c-2,1.3-4,2.4-6.1,3.4
	c-0.3,0.1-0.5,0.2-0.8,0.4v1c1.3-0.6,2.7-1.2,4-2C141.9,8.4,143.4,7.4,144.8,6.4 M162.2,20.8l0.2-0.3v-0.7c-0.2,0.3-0.5,0.7-0.7,1
	H162.2z M162.2,15.5h-0.5c-0.2,0.3-0.4,0.6-0.6,0.9c-0.9,1.4-2,2.9-3.4,4.4h0.6c0.2-0.2,0.3-0.4,0.5-0.6
	C160,18.8,161.1,17.2,162.2,15.5 M161,15.5h-0.6c-0.5,0.7-1,1.4-1.5,2c-0.9,1.2-1.8,2.3-2.8,3.3h0.7c0.4-0.5,0.8-0.9,1.1-1.3
	C159.1,18.2,160.1,16.9,161,15.5 M161,20.8c0.5-0.7,1-1.4,1.4-2v-0.7c-0.6,1-1.3,1.9-2,2.7C160.5,20.8,161,20.8,161,20.8z
	 M161.8,24.5h-0.5c-1,1.3-2.1,2.4-3.2,3.4c-0.8,0.7-1.6,1.4-2.5,2h0.8c0.8-0.6,1.5-1.2,2.3-1.9C159.8,26.9,160.8,25.8,161.8,24.5
	 M157.9,24.5h-0.7c-1.2,1.1-2.3,2.1-3.6,3c-1.7,1.1-3.5,1.9-5.4,2.4h1.9c2.1-0.8,4.1-2,6-3.6C156.7,25.7,157.3,25.1,157.9,24.5
	 M156.7,27.1c0.9-0.8,1.8-1.7,2.6-2.6h-0.6c-0.7,0.7-1.3,1.4-2,2c-1.6,1.4-3.4,2.5-5.2,3.3h1.3C154.1,29.1,155.4,28.2,156.7,27.1
	 M46.9,46.9c0,2.4-1.5,4.7-4.6,4.7c-3.1,0-4.6-2.3-4.6-4.7c0-2.6,1.8-4.7,4.6-4.7C45.4,42.2,46.9,44.5,46.9,46.9 M42.3,43.2
	c-2.3,0-3.5,1.7-3.5,3.7c0,1.8,1.1,3.6,3.5,3.6c2.4,0,3.5-1.8,3.5-3.6C45.8,45,44.7,43.2,42.3,43.2 M57.5,51.4h-1.1v-9.1h4.1
	c4.2,0,4.2,6.1,0,6.1h-3V51.4z M60.5,43.4h-3v4h3C63.2,47.4,63.2,43.4,60.5,43.4 M80.2,42.3v5.4c0,2.5-1.7,3.8-3.7,3.8
	c-1.9,0-3.7-1.2-3.7-3.8v-5.4H74v5.4c0,1.8,1.2,2.7,2.6,2.7s2.6-1,2.6-2.8v-5.4L80.2,42.3L80.2,42.3z M91.3,50.3h4.9v1h-6v-9.1h1.1
	V50.3z M105.4,42.3h6.4v1h-5.3v2.8h5v1h-5v3.1h5.5v1.1h-6.6L105.4,42.3L105.4,42.3z M122.3,42.3l5.5,6.9v-6.9h1.1v9.1h-0.8l-5.6-6.9
	v6.9h-1.1v-9.1H122.3z M143.2,51.5c-3.2,0-4.7-2.2-4.7-4.6c0-2.4,1.5-4.7,4.7-4.7c1.2,0,2.4,0.5,3.3,1.4l-0.8,0.7
	c-0.7-0.7-1.6-1-2.5-1c-2.4,0-3.6,1.8-3.6,3.6c0,1.8,1.2,3.6,3.6,3.6c0.9,0,1.9-0.4,2.6-1l0.8,0.8C145.6,51.1,144.4,51.5,143.2,51.5
	 M155.9,42.3h6.4v1H157v2.8h5v1h-5v3.1h5.5v1.1h-6.6L155.9,42.3L155.9,42.3z"/>
</svg>
