<?xml version="1.0" encoding="utf-8"?>
<!-- Generator: Adobe Illustrator 26.0.1, SVG Export Plug-In . SVG Version: 6.00 Build 0)  -->
<!DOCTYPE svg PUBLIC "-//W3C//DTD SVG 1.1//EN" "http://www.w3.org/Graphics/SVG/1.1/DTD/svg11.dtd" [
	<!ENTITY ns_extend "http://ns.adobe.com/Extensibility/1.0/">
	<!ENTITY ns_ai "http://ns.adobe.com/AdobeIllustrator/10.0/">
	<!ENTITY ns_graphs "http://ns.adobe.com/Graphs/1.0/">
	<!ENTITY ns_vars "http://ns.adobe.com/Variables/1.0/">
	<!ENTITY ns_imrep "http://ns.adobe.com/ImageReplacement/1.0/">
	<!ENTITY ns_sfw "http://ns.adobe.com/SaveForWeb/1.0/">
	<!ENTITY ns_custom "http://ns.adobe.com/GenericCustomNamespace/1.0/">
	<!ENTITY ns_adobe_xpath "http://ns.adobe.com/XPath/1.0/">
]>
<svg version="1.1" id="Layer_1" xmlns:x="&ns_extend;" xmlns:i="&ns_ai;" xmlns:graph="&ns_graphs;"
	 xmlns="http://www.w3.org/2000/svg" xmlns:xlink="http://www.w3.org/1999/xlink" x="0px" y="0px" viewBox="0 0 200 156.6"
	 style="enable-background:new 0 0 200 156.6;" xml:space="preserve">
<style type="text/css">
	.st0{fill:#808184;}
	.st1{clip-path:url(#SVGID_00000160192309241679109430000014969633767037773473_);}
	.st2{fill:#AC9C63;}
	.st3{fill:#038295;}
	
		.st4{clip-path:url(#SVGID_00000074434337193172776500000002369514566815044271_);fill:url(#SVGID_00000052794873505981790930000016401564317144993168_);}
	
		.st5{clip-path:url(#SVGID_00000114752134136738060020000017088456992772697231_);fill:url(#SVGID_00000039812796026053662800000007325076253292376227_);}
	
		.st6{clip-path:url(#SVGID_00000103235130365517100110000013017320304381497741_);fill:url(#SVGID_00000104697820195021458040000004209153549422856075_);}
	.st7{fill:url(#SVGID_00000062888036497229241250000005507249884375671220_);}
	.st8{fill:url(#SVGID_00000146474985862925046870000006604616058975272628_);}
	.st9{fill:url(#SVGID_00000150803620582646305270000010021142905254106549_);}
	.st10{fill:url(#SVGID_00000032642167778455343400000002840843976405343423_);}
	.st11{fill:url(#SVGID_00000059311324208969310890000013491139682889937318_);}
	.st12{fill:url(#SVGID_00000088099476571385506470000015665280061155560115_);}
	.st13{fill:url(#SVGID_00000130632712531226561660000017207447916209252510_);}
	.st14{fill:url(#SVGID_00000123438824219469627310000005828871194893903023_);}
	.st15{fill:url(#SVGID_00000148656380285601993140000002873402153443849362_);}
	.st16{fill:url(#SVGID_00000181050026380424609670000014062586315069953934_);}
	.st17{fill:url(#SVGID_00000182498369637460039820000009460758330605303483_);}
	.st18{fill:url(#SVGID_00000159467753885708256910000003486009877536061374_);}
	.st19{fill:url(#SVGID_00000178899096178776705740000006043623169226329998_);}
	.st20{fill:url(#SVGID_00000060019130151559460660000003956598722828609209_);}
	.st21{fill:url(#SVGID_00000029762763594842261370000003623721396699267216_);}
	.st22{fill:url(#SVGID_00000040571337334075513950000014882760403382090666_);}
	.st23{fill:url(#SVGID_00000003806190606944227240000011935775444994762637_);}
	.st24{fill:url(#SVGID_00000127038143946553658090000007811127697478791596_);}
	.st25{fill:url(#SVGID_00000126295753393476414710000011095724481888149891_);}
	.st26{fill:url(#SVGID_00000044148655659569529160000011435252054983638975_);}
	.st27{fill:url(#SVGID_00000160908946353877903510000008449865121012814488_);}
	.st28{fill:url(#SVGID_00000145041290697824871820000016695728589125233336_);}
	.st29{fill:url(#SVGID_00000108288731461524206640000014889319511789206664_);}
	.st30{fill:url(#SVGID_00000085247712448784627870000000944972389291844234_);}
	.st31{fill:url(#SVGID_00000168119206397587671520000005585718982200349848_);}
	.st32{fill:url(#SVGID_00000042008356907271359740000010732456044603437228_);}
	.st33{fill:url(#SVGID_00000088099659570344058440000003073536172892221337_);}
	.st34{fill:url(#SVGID_00000152945018637596559220000002439833419236689030_);}
	.st35{fill:url(#SVGID_00000119809773441876384020000012260112146103581618_);}
	.st36{fill:url(#SVGID_00000018230498947857392610000002673123793311192483_);}
	.st37{fill:url(#SVGID_00000113338638917477799160000013965381528312121258_);}
	.st38{fill:url(#SVGID_00000088820148491465157400000010797125763366905265_);}
	.st39{fill:url(#SVGID_00000077290095182645229930000013491094705743976856_);}
	.st40{fill:url(#SVGID_00000114068130232360277020000015585743550309143213_);}
	.st41{fill:url(#SVGID_00000017492310644460632330000017706363531475019447_);}
	.st42{fill:url(#SVGID_00000005949027381477347950000012110087883469884582_);}
	.st43{fill:url(#SVGID_00000127759437404467560390000006037121309140175529_);}
	.st44{fill:url(#SVGID_00000088828562670799650740000016952986331037560995_);}
	.st45{fill:url(#SVGID_00000080179239746568466730000005640112925751457926_);}
	.st46{fill:url(#SVGID_00000080176046357669655950000001910066817603366842_);}
	.st47{fill:url(#SVGID_00000097475038757777482180000009804172964740063400_);}
	.st48{fill:url(#SVGID_00000178896725580947312150000013598040768173520031_);}
	.st49{fill:url(#SVGID_00000012445847573568414600000001531152463951755908_);}
	.st50{fill:url(#SVGID_00000160898284857408179880000001856423964815085961_);}
	.st51{fill:url(#SVGID_00000132081816089652963610000007426723009700643235_);}
	.st52{fill:url(#SVGID_00000078746715826305984910000006755493985391635621_);}
	.st53{fill:url(#SVGID_00000075130821920999832530000009731804122766203022_);}
	.st54{fill:#6AC1D5;}
	.st55{fill:#73BAB2;}
	.st56{fill:url(#SVGID_00000044151474393012763990000009998682119299248280_);}
	.st57{fill:url(#SVGID_00000120538790336942922700000003461954246604704184_);}
	.st58{fill:url(#SVGID_00000000199441057584188980000008347585836145679791_);}
	.st59{fill:url(#SVGID_00000010998473741478583350000009587787062692291519_);}
	.st60{fill:url(#SVGID_00000154414497746867726840000015022931165521717177_);}
	.st61{fill:url(#SVGID_00000089559333676069595070000014698748121016997302_);}
	.st62{fill:url(#SVGID_00000133511598436968674600000006081553273524852625_);}
	.st63{fill:url(#SVGID_00000122699065400763677080000015489498919334053039_);}
	.st64{fill:url(#SVGID_00000054981101486131851410000017742641710827935407_);}
	.st65{fill:url(#SVGID_00000119837399229619802100000017519369066294586268_);}
	.st66{fill:url(#SVGID_00000048471099472967733510000004789382237627607716_);}
	.st67{fill:url(#SVGID_00000181054499365035996600000012452845501775624376_);}
	.st68{fill:url(#SVGID_00000135681485050171111610000018280199868830582176_);}
	.st69{fill:url(#SVGID_00000004518121924943741080000004176626961416759983_);}
	.st70{fill:url(#SVGID_00000098203430444263098570000003794585243566320534_);}
	.st71{fill:url(#SVGID_00000011015534516835646890000000632503820529484211_);}
	.st72{fill:url(#SVGID_00000129192368069486807800000000156239744298355126_);}
	.st73{fill:url(#SVGID_00000160894836134075872250000004185549343107274881_);}
	.st74{fill:url(#SVGID_00000148641643682332986100000006873962424925593776_);}
	.st75{fill:url(#SVGID_00000018927879308603373600000003283547344685440908_);}
	.st76{fill:url(#SVGID_00000121243824315140038330000018198072270923877311_);}
	.st77{fill:url(#SVGID_00000093868735949479021160000003912376379406421917_);}
	.st78{fill:url(#SVGID_00000014607413351303405910000014884576658663363748_);}
	.st79{fill:url(#SVGID_00000153699127955813205340000011106389202498920103_);}
	.st80{fill:url(#SVGID_00000015331893922345528270000007994528865988570012_);}
	.st81{fill:url(#SVGID_00000044160253486224022040000011778390604797592979_);}
	.st82{fill:url(#SVGID_00000168839630307028329240000017422514175862568628_);}
	.st83{fill:url(#SVGID_00000041285044813219254990000008708813117602993328_);}
	.st84{fill:url(#SVGID_00000086689892955868646860000010491583078878581407_);}
	.st85{fill:url(#SVGID_00000014603628129294342510000014575812608369865636_);}
	.st86{fill:url(#SVGID_00000065044074990833328090000004616440053497215904_);}
	.st87{fill:url(#SVGID_00000013905662240982361500000006260601298021801612_);}
	.st88{fill:url(#SVGID_00000179606493419727120330000009267839536291842741_);}
	.st89{fill:url(#SVGID_00000072979460612360595970000002426113193966536320_);}
	.st90{fill:#004F54;}
	.st91{fill-rule:evenodd;clip-rule:evenodd;fill:#065055;}
	.st92{fill:#7A9699;}
	.st93{fill:#87A4AB;}
	
		.st94{clip-path:url(#SVGID_00000127755052598830945930000015204801964227352705_);fill:url(#SVGID_00000124120775773073417690000009558422648513295780_);}
	
		.st95{clip-path:url(#SVGID_00000016797531178282715960000005198019261026229429_);fill:url(#SVGID_00000005967439797707143180000008879996753113804680_);}
	
		.st96{clip-path:url(#SVGID_00000053514316830633537730000013883891393131757481_);fill:url(#SVGID_00000144325645325312242670000013686674602069315730_);}
	
		.st97{clip-path:url(#SVGID_00000129885182824192618940000017463695345921304480_);fill:url(#SVGID_00000078040816245772526900000007730464455582134179_);}
	
		.st98{clip-path:url(#SVGID_00000178205718742214042980000017916094610383213238_);fill:url(#SVGID_00000138532344664038509930000013328615760261565333_);}
	
		.st99{clip-path:url(#SVGID_00000100348710469885658830000012378718812506144174_);fill:url(#SVGID_00000013894516490185202780000015961179686213475712_);}
	
		.st100{clip-path:url(#SVGID_00000080894349517635569290000004972424523017542052_);fill:url(#SVGID_00000155126856554624859910000015863603387096837039_);}
	
		.st101{clip-path:url(#SVGID_00000076582186499302518250000012287493220459718575_);fill:url(#SVGID_00000095310897082528779980000015061111515785054906_);}
	
		.st102{clip-path:url(#SVGID_00000172421894908922073490000000599192059802873268_);fill:url(#SVGID_00000167371763525435400090000016884754048019012016_);}
	
		.st103{clip-path:url(#SVGID_00000160169846987905053490000009700176490002144162_);fill:url(#SVGID_00000076586938139523594380000011863001390394708879_);}
	
		.st104{clip-path:url(#SVGID_00000118358480326337989960000014577812608497726876_);fill:url(#SVGID_00000017475260147490394210000012681897131922821027_);}
	
		.st105{clip-path:url(#SVGID_00000026870954893949459500000002036184466190078137_);fill:url(#SVGID_00000078731769245097297160000014184742167721457815_);}
	
		.st106{clip-path:url(#SVGID_00000153688497469892504010000008270226011447772071_);fill:url(#SVGID_00000181780653401664922270000000784784410375529127_);}
	
		.st107{clip-path:url(#SVGID_00000003814225284747185390000012218169782690128548_);fill:url(#SVGID_00000038382477433170219960000010146310625910546338_);}
	
		.st108{clip-path:url(#SVGID_00000155856600183234465280000003958949021488832131_);fill:url(#SVGID_00000000198991732755966310000016549627521904044444_);}
	
		.st109{clip-path:url(#SVGID_00000175285881898791827740000013733008553061872005_);fill:url(#SVGID_00000028296732632193912090000007332520626721072780_);}
	
		.st110{clip-path:url(#SVGID_00000145755483567484417620000014144325637500568728_);fill:url(#SVGID_00000169540921528546133430000013239193042553861524_);}
	
		.st111{clip-path:url(#SVGID_00000165926004662453644790000010186738069110033812_);fill:url(#SVGID_00000061433990446794208210000001023075458534824580_);}
	
		.st112{clip-path:url(#SVGID_00000177463575377116202310000018263592783944512657_);fill:url(#SVGID_00000170981391059322140340000004427828542292292780_);}
	
		.st113{clip-path:url(#SVGID_00000183233374229496123930000004675477826362808455_);fill:url(#SVGID_00000057118492700766110790000008842734138966311581_);}
	
		.st114{clip-path:url(#SVGID_00000101097179021938203390000000960121431360299942_);fill:url(#SVGID_00000072271655000954416590000004126020282752747952_);}
	
		.st115{clip-path:url(#SVGID_00000044143052062610811580000009705219244584462464_);fill:url(#SVGID_00000045593378873060022860000004945279009482711201_);}
	
		.st116{clip-path:url(#SVGID_00000111898465156247982900000013242476032152344205_);fill:url(#SVGID_00000079466006210237271340000008332530966860699011_);}
	
		.st117{clip-path:url(#SVGID_00000088817467291738814950000011881685615280699816_);fill:url(#SVGID_00000021810167707534033610000017089780105812074924_);}
	
		.st118{clip-path:url(#SVGID_00000031178775172584421800000011340056252324462232_);fill:url(#SVGID_00000178925607502177896610000009959731141411656113_);}
	
		.st119{clip-path:url(#SVGID_00000066498966597885331010000006148893306198413969_);fill:url(#SVGID_00000045589791424560820910000012403243664008869021_);}
	
		.st120{clip-path:url(#SVGID_00000151515658570494234730000010460909879562069933_);fill:url(#SVGID_00000034060986200406905780000008705249636330399118_);}
	.st121{fill:#68934B;}
	.st122{fill:#5F7360;}
	.st123{fill:#7D897A;}
	.st124{fill:#5B8172;}
	.st125{fill:#54665D;}
	.st126{clip-path:url(#SVGID_00000126322240678312243540000009614458616159987857_);fill:#54665D;}
	.st127{fill:#00495C;}
</style>
<metadata>
	<sfw  xmlns="&ns_sfw;">
		<slices></slices>
		<sliceSourceBounds  bottomLeftOrigin="true" height="1021.1" width="4161.2" x="-38.2" y="-866.2"></sliceSourceBounds>
	</sfw>
</metadata>
<g>
	<polygon class="st93" points="7.7,94.8 3.2,104.8 1,104.8 14.5,74.6 15.2,75.9 28.2,104.8 25.9,104.8 21.4,94.8 20.6,93 14.5,79.5 
		8.5,93 	"/>
	<path class="st93" d="M37.9,102.9h7.9c6.8,0,12.8-4.4,12.8-12.5c0-7.4-5.2-12.5-12.9-12.5h-7.8V102.9z M45.6,76.1
		c12,0,15.4,8,15.4,14.3c0,6.6-3.8,14.3-15,14.3H35.7V76.1H45.6z"/>
	<path class="st93" d="M72,102.9h7.9c6.8,0,12.8-4.4,12.8-12.5c0-7.4-5.2-12.5-12.9-12.5H72V102.9z M79.7,76.1
		c12,0,15.4,8,15.4,14.3c0,6.6-3.8,14.3-15,14.3H69.8V76.1H79.7z"/>
	<path class="st93" d="M106.3,89.2h4.7c5,0,7.3-2.2,7.3-5.6c0-3.2-2.3-5.6-7.4-5.6h-4.6V89.2z M111.3,76.1c6.9,0,9.3,3.6,9.3,7.4
		c0,3.3-1.8,5.6-5.4,7c1.3,0.7,2.4,2.4,3.8,4.4l6.4,9.9h-2.6l-4.9-7.9c-3.4-5.4-4.5-5.9-7.8-5.9h-3.8v13.7h-2.2V76.1H111.3z"/>
	<polygon class="st93" points="147.6,78 134.4,78 134.4,89.2 147.3,89.2 147.3,91 134.4,91 134.4,102.9 148,102.9 148,104.8 
		132.3,104.8 132.3,76.1 147.6,76.1 	"/>
	<path class="st93" d="M172.2,80c-3-1.7-4.6-2.2-6.6-2.2c-3.6,0-6.2,2.3-6.2,5.5c0,7.6,14.1,4,14.1,14c0,4.4-3.8,7.9-8.6,7.9
		c-2.4,0-5-0.8-7.6-2.5V100c3.3,2.3,5.1,3.1,7.5,3.1c3.5,0,6.2-2.5,6.2-5.7c0-8.1-14.1-4.6-14.1-14c0-4.2,3.8-7.6,8.5-7.6
		c2.3,0,4.5,0.6,6.8,1.8V80z"/>
	<path class="st93" d="M197.2,80c-3-1.7-4.6-2.2-6.6-2.2c-3.5,0-6.2,2.3-6.2,5.5c0,7.6,14.1,4,14.1,14c0,4.4-3.8,7.9-8.6,7.9
		c-2.4,0-5-0.8-7.6-2.5V100c3.3,2.3,5.2,3.1,7.5,3.1c3.5,0,6.2-2.5,6.2-5.7c0-8.1-14.1-4.6-14.1-14c0-4.2,3.8-7.6,8.5-7.6
		c2.3,0,4.6,0.6,6.9,1.8V80z"/>
	<path class="st93" d="M107.3,34.3l-7.6-16.6l-7.6,16.6h-2.4l9.9-21.6l10,21.6H107.3z M75.5,48.5h48.4V0.1H75.5V48.5z"/>
	<path class="st93" d="M4.2,122.7v3.2H6c0.6,0,1.1-0.2,1.4-0.4c0.3-0.3,0.5-0.7,0.5-1.2c0-1.1-0.7-1.6-2-1.6H4.2z M0.7,120.1h6.2
		c1.4,0,2.5,0.4,3.3,1.2c0.9,0.8,1.3,1.7,1.3,2.9c0,1.5-0.8,2.7-2.4,3.4c0.7,0.3,1.4,1.2,2,2.6c0.6,1.4,1.2,2.7,1.8,4H9.1
		c-0.2-0.5-0.6-1.3-1.2-2.6c-0.6-1.3-1.1-2.1-1.5-2.5c-0.4-0.4-0.8-0.6-1.3-0.6h-1v5.7H0.7V120.1z"/>
	<polygon class="st93" points="32.3,131.6 32.3,134.2 22,134.2 22,120.1 32.1,120.1 32.1,122.7 25.4,122.7 25.4,125.6 31.8,125.6 
		31.8,128.2 25.4,128.2 25.4,131.6 	"/>
	<path class="st93" d="M51.8,121v2.7c-1.9-0.8-3.3-1.3-4.4-1.3c-0.6,0-1.1,0.1-1.5,0.3c-0.4,0.2-0.6,0.5-0.6,0.8
		c0,0.3,0.1,0.5,0.4,0.8c0.3,0.2,0.9,0.6,1.9,0.9c1,0.4,1.9,0.7,2.5,1.1c0.6,0.3,1.1,0.8,1.6,1.4c0.4,0.6,0.7,1.3,0.7,2.3
		c0,1.3-0.5,2.3-1.5,3.1c-1,0.8-2.3,1.2-3.9,1.2c-1.7,0-3.4-0.5-5-1.4v-3c0.9,0.6,1.8,1.1,2.5,1.4c0.7,0.3,1.5,0.4,2.3,0.4
		c1.4,0,2-0.4,2-1.3c0-0.3-0.1-0.6-0.4-0.8c-0.3-0.3-0.9-0.6-2-1c-1-0.4-1.9-0.7-2.5-1c-0.6-0.3-1.1-0.8-1.6-1.4
		c-0.4-0.6-0.7-1.4-0.7-2.3c0-1.2,0.5-2.2,1.4-2.9c1-0.7,2.3-1.1,3.9-1.1C48.5,120,50.1,120.3,51.8,121"/>
	<rect x="62.1" y="120.1" class="st93" width="3.5" height="14"/>
	<path class="st93" d="M79.7,122.7v8.9h2.3c1.5,0,2.6-0.4,3.4-1.2c0.8-0.8,1.2-1.9,1.2-3.2c0-1.4-0.4-2.5-1.2-3.3
		c-0.8-0.8-1.9-1.2-3.4-1.2H79.7z M76.2,120.1h6.2c2.4,0,4.3,0.7,5.6,2c1.4,1.3,2.1,3,2.1,5.1c0,2.2-0.7,3.9-2.1,5.1
		c-1.4,1.2-3.4,1.9-6,1.9h-5.8V120.1z"/>
	<polygon class="st93" points="110.3,131.6 110.3,134.2 100,134.2 100,120.1 110.2,120.1 110.2,122.7 103.5,122.7 103.5,125.6 
		109.9,125.6 109.9,128.2 103.5,128.2 103.5,131.6 	"/>
	<polygon class="st93" points="134.5,120.1 134.5,134.2 131.6,134.2 123.9,125.2 123.9,134.2 120.4,134.2 120.4,120.1 123.6,120.1 
		131.1,128.7 131.1,120.1 	"/>
	<path class="st93" d="M158.1,129.9v3.1c-1.7,0.9-3.6,1.4-5.5,1.4c-2.5,0-4.5-0.7-5.9-2.1c-1.5-1.4-2.2-3.1-2.2-5.1
		c0-2,0.8-3.7,2.3-5.1c1.5-1.4,3.6-2.1,6.1-2.1c2,0,3.7,0.4,5.1,1.2v3.1c-1.7-1-3.3-1.4-4.8-1.4c-1.5,0-2.7,0.4-3.6,1.2
		c-0.9,0.8-1.4,1.8-1.4,3.1c0,1.2,0.5,2.3,1.4,3.1c0.9,0.8,2.1,1.2,3.6,1.2c0.7,0,1.4-0.1,2.1-0.3
		C155.7,131,156.7,130.5,158.1,129.9"/>
	<polygon class="st93" points="178.5,131.6 178.5,134.2 168.2,134.2 168.2,120.1 178.4,120.1 178.4,122.7 171.7,122.7 171.7,125.6 
		178.1,125.6 178.1,128.2 171.7,128.2 171.7,131.6 	"/>
	<path class="st93" d="M198.1,121v2.7c-1.9-0.8-3.3-1.3-4.4-1.3c-0.6,0-1.1,0.1-1.5,0.3c-0.4,0.2-0.5,0.5-0.5,0.8
		c0,0.3,0.1,0.5,0.4,0.8c0.3,0.2,0.9,0.6,1.9,0.9c1,0.4,1.9,0.7,2.5,1.1c0.6,0.3,1.2,0.8,1.6,1.4c0.4,0.6,0.7,1.3,0.7,2.3
		c0,1.3-0.5,2.3-1.5,3.1c-1,0.8-2.3,1.2-3.9,1.2c-1.7,0-3.4-0.5-5-1.4v-3c0.9,0.6,1.8,1.1,2.5,1.4c0.7,0.3,1.5,0.4,2.3,0.4
		c1.4,0,2-0.4,2-1.3c0-0.3-0.1-0.6-0.4-0.8c-0.3-0.3-0.9-0.6-2-1c-1-0.4-1.9-0.7-2.5-1c-0.6-0.3-1.1-0.8-1.6-1.4
		c-0.4-0.6-0.7-1.4-0.7-2.3c0-1.2,0.5-2.2,1.4-2.9c1-0.7,2.3-1.1,3.9-1.1C194.8,120,196.4,120.3,198.1,121"/>
	<path class="st93" d="M135.4,150.9l2.1-5.5l2.3,5.5H135.4z M135.4,142.1l-5.7,14h3.7l1-2.8h6.3l1.2,2.8h3.8l-6.2-14H135.4z"/>
	<polygon class="st93" points="158,146.5 155,142.1 150.7,142.1 156.3,149.6 156.3,156.1 159.8,156.1 159.8,149.6 165.3,142.1 
		161.1,142.1 	"/>
	<polygon class="st93" points="67.7,147.7 60.8,147.7 60.8,142.1 57.3,142.1 57.3,156.1 60.8,156.1 60.8,150.5 67.7,150.5 
		67.7,156.1 71.2,156.1 71.2,142.1 67.7,142.1 	"/>
	<polygon class="st93" points="34.1,144.7 39.1,144.7 39.1,156.1 42.6,156.1 42.6,144.7 47.7,144.7 47.7,142.1 34.1,142.1 	"/>
	<polygon class="st93" points="85.2,150.2 91.6,150.2 91.6,147.6 85.2,147.6 85.2,144.7 91.9,144.7 91.9,142.1 81.7,142.1 
		81.7,156.1 92.1,156.1 92.1,153.6 85.2,153.6 	"/>
	<path class="st93" d="M117.1,151.8c0,0.6-0.2,1.1-0.6,1.3c-0.4,0.3-1.1,0.4-2,0.4h-2v-3.3h2.5c0.6,0,1.2,0.1,1.6,0.4
		C116.9,151,117.1,151.3,117.1,151.8 M114.3,147.7h-1.8v-3h1.8c0.6,0,1,0.1,1.3,0.4c0.3,0.3,0.5,0.6,0.5,1.1c0,0.4-0.2,0.8-0.5,1.1
		C115.3,147.5,114.9,147.7,114.3,147.7 M120,149.8c-0.5-0.6-1.2-1.1-2.2-1.4c1.3-0.6,1.9-1.6,1.9-2.8c0-0.9-0.4-1.8-1.2-2.5
		c-0.8-0.7-2-1-3.4-1H109v14h6.8c1.6,0,2.9-0.4,3.7-1.1c0.8-0.8,1.2-1.7,1.2-3C120.8,151.2,120.5,150.4,120,149.8"/>
</g>
</svg>
