<?xml version="1.0" encoding="utf-8"?>
<!-- Generator: Adobe Illustrator 16.0.0, SVG Export Plug-In . SVG Version: 6.00 Build 0)  -->
<!DOCTYPE svg PUBLIC "-//W3C//DTD SVG 1.1//EN" "http://www.w3.org/Graphics/SVG/1.1/DTD/svg11.dtd">
<svg version="1.1" id="Layer_1" xmlns="http://www.w3.org/2000/svg" xmlns:xlink="http://www.w3.org/1999/xlink" x="0px" y="0px"
	 width="200px" height="70px" viewBox="0 0 200 70" enable-background="new 0 0 200 70" xml:space="preserve">
<g>
	<path fill="#1B241E" d="M115.017,6.333c-0.61,1.661-3.688,1.187-5.767,1.948c-2.918,1.069-4.328,4.079-4.71,6.062v-1.98
		c0-0.552-0.448-1-1-1v12.065h1V16.96c0-1.666-0.008-6.389,5.296-7.409C112.099,9.116,114.556,9.133,115.017,6.333 M124.287,11.117
		c-2.089,0-3.91,1.067-4.511,3.377c-0.6-2.31-2.376-3.377-4.466-3.377c-1.91,0-3.577,0.911-4.288,2.866v-1.622
		c0-0.552-0.446-1-0.999-1v12.065h0.999v-6.421c0-3.377,1.732-5.021,4.133-5.021c2.333,0,3.866,1.511,3.866,4.444v6.999h0.978
		v-6.421c0-3.377,1.755-5.021,4.133-5.021c2.333,0,3.865,1.511,3.865,4.444v6.999h0.979v-7.065
		C128.976,12.739,126.864,11.117,124.287,11.117 M97.679,17.382c0-3.221-2.155-5.31-4.977-5.31c-2.911,0-4.933,1.977-4.933,5.31
		c0,3.333,2.022,5.333,4.933,5.333C95.524,22.715,97.679,20.648,97.679,17.382 M98.679,12.361v11.065h-1v-3.177
		c-0.667,1.844-2.466,3.355-5.11,3.355c-3.377,0-5.821-2.422-5.821-6.222c0-3.821,2.444-6.176,5.821-6.176
		c2.667,0,4.444,1.489,5.11,3.311v-3.155C98.231,11.361,98.679,11.809,98.679,12.361 M77.55,7.829h8.043
		c0,0.466-0.378,0.845-0.844,0.845H78.55v6.51h6.154c0,0.466-0.377,0.844-0.844,0.844h-5.31v7.399h-1V7.829z"/>
	<polygon fill="#1B241E" points="132.567,64.306 133.25,64.306 133.25,62.539 135.187,59.807 134.37,59.807 132.908,61.875 
		131.466,59.807 130.631,59.807 132.567,62.539 	"/>
	<polygon fill="#1B241E" points="72.781,64.306 73.446,64.306 73.446,60.451 74.888,60.451 74.888,59.807 71.339,59.807 
		71.339,60.451 72.781,60.451 	"/>
	<polygon fill="#1B241E" points="78.931,62.369 81.208,62.369 81.208,64.306 81.892,64.306 81.892,59.807 81.208,59.807 
		81.208,61.704 78.931,61.704 78.931,59.807 78.248,59.807 78.248,64.306 78.931,64.306 	"/>
	<polygon fill="#1B241E" points="88.876,63.659 86.2,63.659 86.2,62.351 88.572,62.351 88.572,61.704 86.2,61.704 86.2,60.451 
		88.838,60.451 88.838,59.807 85.536,59.807 85.536,64.306 88.876,64.306 	"/>
	<polygon fill="#1B241E" points="99.145,64.324 101.138,59.807 100.416,59.807 98.897,63.317 97.398,59.807 96.658,59.807 
		98.651,64.324 	"/>
	<path fill="#1B241E" d="M106.584,62.501h-1.613l0.815-1.764L106.584,62.501z M103.433,64.306h0.722l0.532-1.158h2.201l0.531,1.158
		h0.74l-2.106-4.538h-0.531L103.433,64.306z"/>
	<polygon fill="#1B241E" points="114.479,63.659 112.051,63.659 112.051,59.807 111.386,59.807 111.386,64.306 114.479,64.306 	"/>
	<polygon fill="#1B241E" points="120.933,63.659 118.522,63.659 118.522,59.807 117.839,59.807 117.839,64.306 120.933,64.306 	"/>
	<polygon fill="#1B241E" points="127.632,63.659 124.976,63.659 124.976,62.351 127.348,62.351 127.348,61.704 124.976,61.704 
		124.976,60.451 127.613,60.451 127.613,59.807 124.291,59.807 124.291,64.306 127.632,64.306 	"/>
	<polygon fill="#1B241E" points="132.567,64.306 133.25,64.306 133.25,62.539 135.187,59.807 134.37,59.807 132.908,61.875 
		131.466,59.807 130.631,59.807 132.567,62.539 	"/>
	<polygon fill="#1B241E" points="72.781,64.306 73.446,64.306 73.446,60.451 74.888,60.451 74.888,59.807 71.339,59.807 
		71.339,60.451 72.781,60.451 	"/>
	<polygon fill="#1B241E" points="78.931,62.369 81.208,62.369 81.208,64.306 81.892,64.306 81.892,59.807 81.208,59.807 
		81.208,61.704 78.931,61.704 78.931,59.807 78.248,59.807 78.248,64.306 78.931,64.306 	"/>
	<polygon fill="#1B241E" points="88.876,63.659 86.2,63.659 86.2,62.351 88.572,62.351 88.572,61.704 86.2,61.704 86.2,60.451 
		88.838,60.451 88.838,59.807 85.536,59.807 85.536,64.306 88.876,64.306 	"/>
	<polygon fill="#1B241E" points="99.145,64.324 101.138,59.807 100.416,59.807 98.897,63.317 97.398,59.807 96.658,59.807 
		98.651,64.324 	"/>
	<path fill="#1B241E" d="M106.584,62.501h-1.613l0.815-1.764L106.584,62.501z M103.433,64.306h0.722l0.532-1.158h2.201l0.531,1.158
		h0.74l-2.106-4.538h-0.531L103.433,64.306z"/>
	<polygon fill="#1B241E" points="114.479,63.659 112.051,63.659 112.051,59.807 111.386,59.807 111.386,64.306 114.479,64.306 	"/>
	<polygon fill="#1B241E" points="120.933,63.659 118.522,63.659 118.522,59.807 117.839,59.807 117.839,64.306 120.933,64.306 	"/>
	<polygon fill="#1B241E" points="127.632,63.659 124.976,63.659 124.976,62.351 127.348,62.351 127.348,61.704 124.976,61.704 
		124.976,60.451 127.613,60.451 127.613,59.807 124.291,59.807 124.291,64.306 127.632,64.306 	"/>
	<path fill="#1B241E" d="M134.841,35.054c-1.999,0-3.732,0.934-4.442,2.799v-1.555c0-0.552-0.448-1-1.001-1v12.064h1.001v-6.51
		c0-3.354,1.776-4.933,4.287-4.933c2.423,0,4.044,1.511,4.044,4.444v6.998h0.978v-7.065
		C139.707,36.676,137.529,35.054,134.841,35.054 M118.974,35.988c-2.468,0-4.71,1.577-4.821,4.91h9.465
		C123.773,37.543,121.417,35.988,118.974,35.988 M124.616,40.521c0,0.532,0,0.799-0.044,1.199h-10.42
		c0.088,3.354,2.354,4.955,4.843,4.955c2.009,0,3.541-0.903,4.21-2.39c0.236-0.526,0.746-0.876,1.322-0.876
		c-0.467,2.377-2.443,4.133-5.532,4.133c-3.376,0-5.865-2.356-5.865-6.223c0-3.843,2.444-6.176,5.865-6.176
		C122.617,35.144,124.616,37.721,124.616,40.521 M107.308,41.319c0-3.221-2.156-5.31-4.979-5.31c-2.91,0-4.932,1.979-4.932,5.31
		c0,3.334,2.022,5.333,4.932,5.333C105.151,46.652,107.308,44.586,107.308,41.319 M108.306,31.922v15.441h-0.998v-3.199
		c-0.667,1.888-2.468,3.378-5.11,3.378c-3.378,0-5.822-2.424-5.822-6.223c0-3.82,2.444-6.176,5.822-6.176
		c2.532,0,4.398,1.422,5.11,3.311v-7.532C107.859,30.922,108.306,31.37,108.306,31.922 M101.742,30.27
		c-0.611,1.66-3.689,1.187-5.767,1.948c-2.918,1.069-4.329,4.079-4.71,6.061v-1.98c0-0.552-0.448-1-1-1v12.064h1v-6.466
		c0-1.665-0.008-6.388,5.297-7.409C98.824,33.054,101.281,33.07,101.742,30.27 M84.257,41.319c0-3.221-2.155-5.31-4.977-5.31
		c-2.911,0-4.932,1.979-4.932,5.31c0,3.334,2.021,5.333,4.932,5.333C82.102,46.652,84.257,44.586,84.257,41.319 M85.257,36.299
		v11.064h-1v-3.177c-0.667,1.844-2.466,3.355-5.11,3.355c-3.377,0-5.821-2.424-5.821-6.223c0-3.82,2.444-6.176,5.821-6.176
		c2.667,0,4.444,1.488,5.11,3.311v-3.155C84.81,35.299,85.257,35.747,85.257,36.299 M60.744,39.253h7.977v0.667
		c-0.134,4.377-3.2,7.599-7.51,7.599c-4.354,0-7.577-3.267-7.577-7.932c0-4.688,3.222-7.954,7.577-7.954
		c3.377,0,5.91,1.821,7.021,4.732h-1.155c-0.866-2.266-3-3.843-5.866-3.843c-3.666,0-6.554,2.688-6.554,7.065
		c0,4.354,2.888,7.043,6.554,7.043c3.555,0,6.288-2.487,6.488-6.531h-6.11C61.122,40.099,60.744,39.721,60.744,39.253"/>
	<path fill="#1B241E" d="M148.907,47.546c-2.648,0-4.518-1.202-4.74-3.428h1.023c0.155,1.535,1.425,2.56,3.717,2.56
		c1.893,0,3.004-1.112,3.004-2.426c0-3.337-7.41-1.402-7.41-5.987c0-1.69,1.646-3.137,4.006-3.137c2.515,0,4.184,1.313,4.317,3.561
		h-0.047c-0.509,0-0.946-0.333-1.112-0.813c-0.386-1.109-1.444-1.903-3.181-1.903c-1.758,0-2.982,1.046-2.982,2.292
		c0,3.74,7.345,1.759,7.389,5.987C152.891,46.144,151.222,47.546,148.907,47.546"/>
</g>
</svg>
