<?xml version="1.0" encoding="utf-8"?>
<!-- Generator: Adobe Illustrator 26.0.1, SVG Export Plug-In . SVG Version: 6.00 Build 0)  -->
<!DOCTYPE svg PUBLIC "-//W3C//DTD SVG 1.1//EN" "http://www.w3.org/Graphics/SVG/1.1/DTD/svg11.dtd" [
	<!ENTITY ns_extend "http://ns.adobe.com/Extensibility/1.0/">
	<!ENTITY ns_ai "http://ns.adobe.com/AdobeIllustrator/10.0/">
	<!ENTITY ns_graphs "http://ns.adobe.com/Graphs/1.0/">
	<!ENTITY ns_vars "http://ns.adobe.com/Variables/1.0/">
	<!ENTITY ns_imrep "http://ns.adobe.com/ImageReplacement/1.0/">
	<!ENTITY ns_sfw "http://ns.adobe.com/SaveForWeb/1.0/">
	<!ENTITY ns_custom "http://ns.adobe.com/GenericCustomNamespace/1.0/">
	<!ENTITY ns_adobe_xpath "http://ns.adobe.com/XPath/1.0/">
]>
<svg version="1.1" id="Layer_1" xmlns:x="&ns_extend;" xmlns:i="&ns_ai;" xmlns:graph="&ns_graphs;"
	 xmlns="http://www.w3.org/2000/svg" xmlns:xlink="http://www.w3.org/1999/xlink" x="0px" y="0px" viewBox="0 0 200 44.7"
	 style="enable-background:new 0 0 200 44.7;" xml:space="preserve">
<style type="text/css">
	.st0{fill:#080505;}
	.st1{fill:#F8AF41;}
	.st2{fill:#376278;}
	.st3{fill:#FFC663;}
	.st4{fill:#F6CE76;}
	.st5{fill:#0D98BB;}
	.st6{fill:#70B599;}
	.st7{fill:#EAE3AC;}
	.st8{fill:#91060D;}
	.st9{fill:#2D628C;}
	.st10{fill:#012944;}
	.st11{fill:#043754;}
	.st12{fill:#1D324D;}
	.st13{fill:#8C7449;}
	.st14{fill:#003756;}
	.st15{fill:#53B2D3;}
	.st16{fill:#082042;}
	.st17{fill:#055985;}
	.st18{fill:#A08C6A;}
	.st19{clip-path:url(#SVGID_00000001642328165087883040000012819622939292635055_);}
	.st20{filter:url(#Adobe_OpacityMaskFilter);}
	.st21{opacity:0.9;mask:url(#SVGID_00000164492287407041771500000010051849448061993146_);fill:#FFFFFF;}
	.st22{filter:url(#Adobe_OpacityMaskFilter_00000010303761948831665250000012902469171344621959_);}
	.st23{opacity:0.75;mask:url(#SVGID_00000005975877581611197800000014760111447243160449_);}
	.st24{filter:url(#Adobe_OpacityMaskFilter_00000016771106110921992330000016793835370076918427_);}
	.st25{mask:url(#SVGID_00000121237431642138901380000014125863738364053652_);fill:#FFFFFF;}
	.st26{filter:url(#Adobe_OpacityMaskFilter_00000005972523912802690320000002901833965912263610_);}
	.st27{opacity:0.75;mask:url(#SVGID_00000113329716530678043820000003099837289810634683_);}
	.st28{fill:none;stroke:#000000;stroke-width:1.2;}
	.st29{clip-path:url(#SVGID_00000155844024740459780900000006746253322217611451_);}
	.st30{fill:#1E2731;}
	.st31{fill:#777779;}
	
		.st32{clip-path:url(#SVGID_00000052106200462472641510000015882785720018629764_);fill:url(#SVGID_00000077283832611814137970000016422636018169124236_);}
</style>
<metadata>
	<sfw  xmlns="&ns_sfw;">
		<slices></slices>
		<sliceSourceBounds  bottomLeftOrigin="true" height="515.4" width="2527.2" x="1.1" y="-405.1"></sliceSourceBounds>
	</sfw>
</metadata>
<g>
	<path class="st13" d="M25,12.2l2.1-0.3c0,0,4.9,7.5,5.3,8.2c0.4,0.6,1.3,0.5,1.8,0.5v0.2h-5.2v-0.2c0.5,0,1-0.1,0.9-0.3
		C28.9,18.7,25,12.2,25,12.2 M19.6,3.5h4.9c1.7,0,6.1,0,6.1,4.3c0,3.2-2.5,4.4-5.6,4.3V12c2,0,3.7-1.3,3.7-3.6c0-1.5-0.6-3-1.8-3.7
		c-0.5-0.3-1.2-0.6-2.9-0.6h-1.2v14.8c0,1.5,0.1,1.7,1.3,1.7v0.2h-4.6v-0.2c0.6,0,1.2-0.1,1.2-1.1V5.2c0-0.9,0-1.5-1.2-1.5V3.5z
		 M75.9,11.7c0,0,6.8-6.2,7.4-6.7c0.6-0.5,1.5-1.1,2.4-1.2V3.6h-3.7v0.2c0.5,0,0.7,0.1,0.7,0.2c0,0.1,0,0.1-0.3,0.4
		c-0.3,0.3-8.1,7.7-8.1,7.7V5.5c0-0.8,0.1-1.3,0.3-1.4c0.2-0.2,0.6-0.3,1.1-0.2V3.6h-4.9v0.2c0.7,0,1.1,0.1,1.2,0.3
		c0.2,0.2,0.3,0.7,0.3,1.5v13.4c0,0.7-0.1,1.2-0.3,1.5c-0.2,0.2-0.6,0.3-1.2,0.3v0.2h4.9v-0.2c-0.4,0-0.7,0-0.9-0.1
		c-0.2-0.1-0.3-0.2-0.4-0.4c-0.1-0.2-0.2-0.6-0.2-1.4v-6.4c0,0,7.3,7.1,7.6,7.4c0.3,0.3,0.6,0.5,0.6,0.6c0,0.1-0.3,0.2-0.8,0.2v0.2
		h5.2v-0.2c-0.6,0-1.2,0-1.8-0.5C84.5,19.7,75.9,11.7,75.9,11.7 M64.6,3.6l-10.8,0v0.2C55,3.8,55,4.2,55,5.6v13.2
		c0,1.2,0,1.8-1.2,1.8v0.2l11.9,0l0-2.4h-0.2c-0.2,1.3-0.7,1.5-1.4,1.6L57,20v-7.3h4.9c1.1,0,1.3-0.1,1.6,1h0.2v-3h-0.2
		c-0.3,1.1-0.5,1-1.6,1H57V4.5h5.2c1.2,0,1.9-0.2,2.2,1.6h0.2V3.6z M47.8,6h-0.2c-0.3-1.8-1.1-1.5-2.2-1.6h-5.2v7.3H45
		c1.1,0,1.3,0.1,1.6-1h0.2v3h-0.2c-0.3-1.1-0.5-1-1.6-1h-4.9V20l7.1,0c0.7,0,1.1-0.3,1.4-1.6h0.2l0,2.4l-11.9,0v-0.2
		c1.2,0,1.2-0.6,1.2-1.8V5.6c0-1.4,0-1.8-1.2-1.8V3.6l10.8,0V6z M9.6,20.5c-4.1,0-7.3-3.9-7.3-8.4c0-5,3.8-8.3,7.1-8.3
		c4,0,4.5,2.3,4.7,3.1h0.2l0-2.6c0,0-1.2-1.3-5.2-1.3c-5.2,0-8.9,4.5-8.9,9.1c0,5,3.8,9.2,8.9,9.2c4.9,0,6.3-1.4,6.3-1.4l0-2.6h-0.2
		C15,18.3,14.3,20.5,9.6,20.5 M177.1,20.4c-4.1,0-7.3-3.9-7.3-8.4c0-5,3.8-8.3,7.1-8.3c4,0,4.5,2.3,4.7,3.1h0.2l0-2.6
		c0,0-1.2-1.3-5.2-1.3c-5.2,0-8.9,4.5-8.9,9.1c0,5,3.8,9.2,8.9,9.2c4.9,0,6.3-1.4,6.3-1.4l0-2.6h-0.2
		C182.5,18.2,181.8,20.4,177.1,20.4 M177.1,20.4c-4.1,0-7.3-3.9-7.3-8.4c0-5,3.8-8.3,7.1-8.3c4,0,4.5,2.3,4.7,3.1h0.2l0-2.6
		c0,0-1.2-1.3-5.2-1.3c-5.2,0-8.9,4.5-8.9,9.1c0,5,3.8,9.2,8.9,9.2c4.9,0,6.3-1.4,6.3-1.4l0-2.6h-0.2
		C182.5,18.2,181.8,20.4,177.1,20.4 M97.5,3.7c1.2,0,1.2,0.6,1.2,1.5v14.3c0,1-0.7,1.1-1.2,1.1v0.2h4.6v-0.2c-1.2,0-1.3-0.3-1.3-1.7
		V4.1h1.2c1.6,0,2.3,0.2,2.9,0.6c1.2,0.8,1.8,2.2,1.8,3.7c0,2.4-1.7,3.6-3.7,3.6v0.2c3.1,0,5.6-1.1,5.6-4.3c0-4.3-4.4-4.3-6.1-4.3
		h-4.9V3.7z M198.6,3.5l-10.8,0v0.2c1.2,0,1.2,0.4,1.2,1.8v13.2c0,1.2,0,1.8-1.2,1.8v0.2l11.9,0l0-2.4h-0.2
		c-0.2,1.3-0.7,1.5-1.4,1.6l-7.1,0v-7.3h4.9c1.1,0,1.3-0.1,1.6,1h0.2v-3h-0.2c-0.3,1.1-0.5,1-1.6,1h-4.9V4.4h5.2
		c1.2,0,1.9-0.2,2.2,1.6h0.2V3.5z M138.7,3.5v0.2c-1.3,0-1.3,0.6-1.3,1.6l0,13.4c0,1,0.2,1.2,1.6,1.3l5.5,0c0.7,0,1.1-0.3,1.4-1.6
		h0.2l0,2.4l-11.9,0v-0.2c1.2,0,1.2-0.6,1.2-1.8V5.5c0-1.4,0-1.8-1.2-1.8V3.5L138.7,3.5z M158.8,12.2h-4.2l2.1-5.3L158.8,12.2z
		 M163.6,19l-6.3-15.7H157l-1.4,3.5l-5.1,12.9c-0.3,0.5-0.6,0.9-1.4,1v0.2h2.6v-0.2c-0.1,0-0.5,0.1-0.4-0.2l2.9-7.2h5
		c0,0,2.4,6,2.5,6.1c0.1,0.3,0.3,0.7,0.3,0.9c0,0,0,0.4-0.6,0.4v0.2h4v-0.2C164.3,20.6,163.9,19.6,163.6,19 M97.5,3.7
		c1.2,0,1.2,0.6,1.2,1.5v14.3c0,1-0.7,1.1-1.2,1.1v0.2h4.6v-0.2c-1.2,0-1.3-0.3-1.3-1.7V4.1h1.2c1.6,0,2.3,0.2,2.9,0.6
		c1.2,0.8,1.8,2.2,1.8,3.7c0,2.4-1.7,3.6-3.7,3.6v0.2c3.1,0,5.6-1.1,5.6-4.3c0-4.3-4.4-4.3-6.1-4.3h-4.9V3.7z M120.4,3.6
		c0,0-7.6,5.3-7.9,17.2h-0.6c0.1-13.7,8.5-19.9,8.5-19.9s8.4,6.3,8.5,19.9h-0.6C128,8.9,120.4,3.6,120.4,3.6 M99.9,28.5
		c33,0,69.1,0,99.7-0.3v-0.2c0,0-42.3-0.2-99.7-0.2c-57.4,0-99.7,0.2-99.7,0.2v0.2C30.8,28.4,66.9,28.5,99.9,28.5"/>
	<path class="st13" d="M176.2,43.9c-0.9-1.4-1.9-3-2.5-4c1.1-0.3,1.7-1.1,1.7-2.3c0-1.1-0.9-2.3-2.9-2.3h-1.9c0,1.3,0,7.9,0,8.6h1
		v-8.2l0.1-0.1c2-0.2,2.8,0.9,2.8,2c0,1.2-0.9,2.3-2.5,2.3l-0.1,0.1c0.3,0.1,0.7,0,0.9,0c0.7,1.2,1.9,3.3,2.3,3.9H176.2z
		 M167.5,43.9h-0.8c0-0.2-0.1-1.2-0.1-1.8c-0.4,0.8-1.2,1.9-2.8,1.9c-2.1,0-3.3-1.4-3.3-3.4v-5.3h1v5.4c0,1.6,0.9,2.8,2.5,2.8
		c1.6,0,2.6-1.3,2.6-2.8c0-1.7,0-4.6,0-5.3h0.9C167.5,37.7,167.4,41.4,167.5,43.9 M157,39.6c0,2.3-1.5,4-3.5,4c-2,0-3.5-1.7-3.5-3.9
		c0-2,1.1-4.1,3.5-4.1C155.9,35.6,157,37.7,157,39.6 M158.1,39.6c0-2.4-1.8-4.5-4.5-4.5c-2.8,0-4.6,2.1-4.6,4.5c0,2.8,2,4.3,4.6,4.3
		C156.1,44,158.1,42.4,158.1,39.6 M143.7,39.5c-0.4,0-0.8,0-1.2,0v4c1.8,0.2,3.4,0,3.4-1.9C145.9,40.2,145,39.5,143.7,39.5
		 M142.5,35.6v3.7c2,0,2.8-0.5,2.8-1.9C145.3,35.5,143.4,35.6,142.5,35.6 M143.9,43.9h-2.4c0-0.8,0-7.3,0-8.6h2.4
		c1.5,0,2.4,0.9,2.4,2c0,0.9-0.7,1.9-1.8,2c1.3,0.1,2.4,0.6,2.4,2.2C146.9,43.1,145.5,43.9,143.9,43.9 M139.4,43.9
		c-0.9-1.4-1.9-3-2.5-4c1.1-0.3,1.7-1.1,1.7-2.3c0-1.1-0.9-2.3-2.9-2.3h-1.9c0,1.3,0,7.9,0,8.6h1v-8.2l0.1-0.1c2-0.2,2.8,0.9,2.8,2
		c0,1.2-0.9,2.3-2.5,2.3l-0.1,0.1c0.3,0.1,0.7,0,0.9,0c0.7,1.2,1.9,3.3,2.3,3.9H139.4z M127.4,36.6v-0.2l-1.6,4h3.1
		C128.2,38.8,127.4,36.6,127.4,36.6 M130.2,43.9c-0.3-0.8-0.7-2-1.2-3h-3.4l-1.3,3H124l3.6-8.7h0.1c0,0,0.2,0.6,0.3,0.9
		c1.1,2.8,2.7,6.6,3.3,7.8H130.2z M121.7,43.9v-8.6h-1c0,0.6,0,2.9,0,4.1h-4.6v-4.1h-0.9c0,1.3,0,7.9,0,8.6h0.9c0-1.4,0-3.2,0-4.2
		h4.6c0,1.5,0,3.8,0,4.2H121.7z M107.6,43.9c-1.6-1.6-3.2-3-4.8-4.5c0,1.6,0,3.3,0,4.5h-1c0-0.8,0-7.3,0-8.6h1v4.1
		c0.5-0.5,3.5-3.6,4-4.1h0.5c-0.9,0.9-2.9,2.9-3.7,3.7c0.8,0.9,4.4,4.1,5.3,4.9H107.6z M99.2,43.4c-0.6,0.1-4.1,0.1-4.1,0.1l0-3.8
		c1.2,0,2.3,0,3,0.1v-0.5c-0.7,0.1-2.4,0.1-3,0.1v-3.7c0,0,2.9,0,3.5,0.1l-0.2-0.4h-4.3v8.6h4.9L99.2,43.4z M91.4,43.9h-4.9v-8.6
		h4.3l0.2,0.4c-0.6-0.1-3.5-0.1-3.5-0.1v3.7c0.6,0,2.3,0,3-0.1v0.5c-0.7-0.1-1.8-0.1-3-0.1l0,3.8c0,0,3.5,0,4.1-0.1L91.4,43.9z
		 M84.2,43.9c-0.9-1.4-1.9-3-2.5-4c1.1-0.3,1.7-1.1,1.7-2.3c0-1.1-0.9-2.3-2.9-2.3h-1.9c0,1.3,0,7.9,0,8.6h1v-8.2l0.1-0.1
		c2-0.2,2.8,0.9,2.8,2c0,1.2-0.9,2.3-2.5,2.3L79.9,40c0.3,0.1,0.7,0,0.9,0c0.7,1.2,1.9,3.3,2.3,3.9H84.2z M75.8,43.4
		c-0.8,0.3-2.1,0.6-3,0.6c-2.2,0-4.6-1.4-4.6-4.3c0-2.4,1.7-4.5,4.5-4.5c1.3,0,2.2,0.3,3.2,1L75.6,37c-0.8-1.2-1.7-1.4-2.7-1.4
		c-2.4,0-3.6,2.2-3.6,4.1c0,2.4,1.6,4,3.8,4c0.9,0,2.1-0.5,2.8-1.1L75.8,43.4z M61.2,43.9c0-2.4,0-6.2,0-8.6h-0.9c0,1.3,0,7.9,0,8.6
		H61.2z M53.8,36.6v-0.2l-1.6,4h3.1C54.7,38.8,53.8,36.6,53.8,36.6 M56.7,43.9c-0.3-0.8-0.7-2-1.2-3h-3.4l-1.3,3h-0.4l3.6-8.7h0.1
		c0,0,0.2,0.6,0.3,0.9c1.1,2.8,2.7,6.6,3.3,7.8H56.7z M48,41.6c0,1.9-1.6,2.1-3.4,1.9v-4c0.4,0,0.8,0,1.2,0
		C47.1,39.5,48,40.2,48,41.6 M47.4,37.4c0,1.4-0.8,1.9-2.8,1.9v-3.7C45.5,35.6,47.4,35.5,47.4,37.4 M49,41.4c0-1.5-1.1-2.1-2.4-2.2
		c1.1-0.2,1.8-1.2,1.8-2c0-1-0.9-2-2.4-2h-2.4c0,1.3,0,7.9,0,8.6H46C47.6,43.9,49,43.1,49,41.4 M40.5,43.9h-0.8
		c0-0.2-0.1-1.2-0.1-1.8c-0.4,0.8-1.2,1.9-2.8,1.9c-2.1,0-3.3-1.4-3.3-3.4v-5.3h1v5.4c0,1.6,0.9,2.8,2.5,2.8c1.6,0,2.6-1.3,2.6-2.8
		c0-1.7,0-4.6,0-5.3h0.9C40.5,37.7,40.4,41.4,40.5,43.9 M30.2,39.8c-0.1,2.4-1.6,3.1-2.4,3.4c-0.9,0.4-3,0.2-3.3,0.2
		c0-2.5,0-5.3,0-7.7c0.5,0,2,0,2.7,0.1C29,36.2,30.2,38,30.2,39.8 M31.1,39.4c0-2.8-2.4-3.9-3.6-4.1c-0.5-0.1-1.2-0.1-1.9-0.1h-2.1
		c0,1.3,0,7.9,0,8.6h1c0.6,0,2,0,2.8-0.1C28.3,43.7,31.1,43.1,31.1,39.4"/>
</g>
</svg>
