<?xml version="1.0" encoding="utf-8"?>
<!-- Generator: Adobe Illustrator 26.0.1, SVG Export Plug-In . SVG Version: 6.00 Build 0)  -->
<!DOCTYPE svg PUBLIC "-//W3C//DTD SVG 1.1//EN" "http://www.w3.org/Graphics/SVG/1.1/DTD/svg11.dtd" [
	<!ENTITY ns_extend "http://ns.adobe.com/Extensibility/1.0/">
	<!ENTITY ns_ai "http://ns.adobe.com/AdobeIllustrator/10.0/">
	<!ENTITY ns_graphs "http://ns.adobe.com/Graphs/1.0/">
	<!ENTITY ns_vars "http://ns.adobe.com/Variables/1.0/">
	<!ENTITY ns_imrep "http://ns.adobe.com/ImageReplacement/1.0/">
	<!ENTITY ns_sfw "http://ns.adobe.com/SaveForWeb/1.0/">
	<!ENTITY ns_custom "http://ns.adobe.com/GenericCustomNamespace/1.0/">
	<!ENTITY ns_adobe_xpath "http://ns.adobe.com/XPath/1.0/">
]>
<svg version="1.1" id="Layer_1" xmlns:x="&ns_extend;" xmlns:i="&ns_ai;" xmlns:graph="&ns_graphs;"
	 xmlns="http://www.w3.org/2000/svg" xmlns:xlink="http://www.w3.org/1999/xlink" x="0px" y="0px" viewBox="0 0 200 101"
	 style="enable-background:new 0 0 200 101;" xml:space="preserve">
<style type="text/css">
	.st0{fill:#080505;}
	.st1{fill:#F8AF41;}
	.st2{fill:#376278;}
	.st3{fill:#FFC663;}
	.st4{fill:#F6CE76;}
	.st5{fill:#0D98BB;}
	.st6{fill:#70B599;}
	.st7{fill:#EAE3AC;}
	.st8{fill:#91060D;}
	.st9{fill:#2D628C;}
	.st10{fill:#012944;}
	.st11{fill:#043754;}
	.st12{fill:#1D324D;}
	.st13{fill:#8C7449;}
	.st14{fill:#003756;}
	.st15{fill:#53B2D3;}
	.st16{fill:#082042;}
	.st17{fill:#055985;}
	.st18{fill:#A08C6A;}
	.st19{clip-path:url(#SVGID_00000044146696830762518460000012047376645183224449_);}
	.st20{filter:url(#Adobe_OpacityMaskFilter);}
	.st21{opacity:0.9;mask:url(#SVGID_00000126320211269671147410000018289485314467872423_);fill:#FFFFFF;}
	.st22{filter:url(#Adobe_OpacityMaskFilter_00000165918109489504657380000002635222880750044589_);}
	.st23{opacity:0.75;mask:url(#SVGID_00000030451782482591184590000004991655444829467018_);}
	.st24{filter:url(#Adobe_OpacityMaskFilter_00000164475665710926277920000000099522258192848549_);}
	.st25{mask:url(#SVGID_00000064323776644263441930000000226046627264303279_);fill:#FFFFFF;}
	.st26{filter:url(#Adobe_OpacityMaskFilter_00000026876829464320015740000001531013355546049436_);}
	.st27{opacity:0.75;mask:url(#SVGID_00000171696114795982339140000010603658840205748659_);}
	.st28{fill:none;stroke:#000000;stroke-width:1.2;}
	.st29{clip-path:url(#SVGID_00000006684609593980928790000001959026102085640583_);}
	.st30{fill:#1E2731;}
	.st31{fill:#777779;}
	
		.st32{clip-path:url(#SVGID_00000074400958943600015020000006743001535185421717_);fill:url(#SVGID_00000113355577915939192110000005151452098478195614_);}
</style>
<metadata>
	<sfw  xmlns="&ns_sfw;">
		<slices></slices>
		<sliceSourceBounds  bottomLeftOrigin="true" height="515.4" width="2527.2" x="1.1" y="-405.1"></sliceSourceBounds>
	</sfw>
</metadata>
<g>
	<g>
		<path d="M75.7,10.3c0.8-0.7,1.3-1.5,1.7-2.4c0.6-1.4,0.5-2.4-0.1-3.2c-0.7-0.8-1.9-1.1-3.8-1.1h-6.3l-0.6,1.4h4.3
			c2.2,0,2.8,1.1,2.1,2.9c-0.4,1.1-0.8,2-1.7,2.5c-0.8,0.4-1.7,0.5-3.3,0.5l-2,0l1.5-3.5h-1.9l-2.1,5.1h5.7c1.6,0,2.9-0.1,3.8-0.4
			C73.9,11.5,74.9,11,75.7,10.3 M116.6,3.6L116.6,3.6l-2.3,0l-9,8.4l3.5-8.4H105l-4.6,3.6l-2.4,2h-0.1L99,6.3l-1.4-2.7h-3.9L90.2,12
			l-2-8.4H84l-9.3,8.8H77l2.4-2.3h5.9l0.5,2.3H92l2.3-5.4c0.1-0.3,0.2-0.6,0.3-0.9c0,0.3,0.1,0.6,0.2,0.9l2,4.5h0.3l5.7-4.5
			c0.2-0.2,0.5-0.5,1-0.9c-0.2,0.4-0.4,0.7-0.5,0.9l-2.3,5.4h4.1l0,0h4.4l2.4-2.3h6.1l0.5,2.3h2.2l-2.1-8.8H116.6z M80.6,8.8
			l3.7-3.6L85,8.8H80.6z M113.1,8.8l3.8-3.7l0.8,3.7H113.1z M135.2,3.6L135.2,3.6l-6.3-0.1c-1.9,0-3.4,0.4-4.7,1.1
			c-1.3,0.8-2.2,1.8-2.8,3.2c-0.4,0.9-0.5,1.7-0.3,2.4c0.2,0.7,0.6,1.3,1.4,1.6c0.7,0.3,1.8,0.4,3.4,0.4h5.7l0.6-1.4h-3.2
			c-1.5,0-2.6-0.2-3.1-0.6c-0.6-0.4-0.5-1.4-0.1-2.5c0.8-1.8,2.4-3,4.6-3h2.5l-0.6,1.4h1.9L135.2,3.6L135.2,3.6z"/>
		<path d="M60.7,40.6c-0.6-0.3-1-0.7-1.4-1.2c-0.4-0.5-0.6-1.1-0.6-1.7c-0.5,0.4-1,0.8-1.5,1.2c-0.5,0.4-1,0.8-1.6,1.1
			c-0.6,0.3-1.2,0.6-1.9,0.8c-0.7,0.2-1.5,0.3-2.4,0.3c-0.8,0-1.6-0.1-2.2-0.4c-0.7-0.3-1.2-0.6-1.7-1.1c-0.5-0.5-0.8-1-1.1-1.7
			c-0.3-0.6-0.4-1.3-0.4-2.1c0-0.9,0.2-1.7,0.5-2.5c0.4-0.7,0.9-1.4,1.5-2c0.6-0.6,1.4-1.1,2.2-1.5c0.8-0.4,1.7-0.8,2.7-1.2
			c0.9-0.4,1.9-0.7,2.9-0.9c1-0.3,2-0.5,2.9-0.8v-1.3c0-1-0.1-1.8-0.2-2.4c-0.1-0.7-0.4-1.2-0.6-1.6c-0.3-0.4-0.7-0.7-1.1-0.9
			c-0.4-0.2-1-0.3-1.6-0.3c-0.6,0-1.1,0.1-1.6,0.4c-0.5,0.2-0.9,0.6-1.3,0.9c-0.4,0.4-0.7,0.9-0.9,1.4c-0.2,0.5-0.4,1.1-1.3,1.5
			c-1.1,0.5-3.1,0.1-3.1,0.1s0.4-1.7,0.9-2.4c0.5-0.7,1.2-1.3,2-1.8c0.8-0.5,1.7-0.9,2.7-1.1c1-0.3,2-0.4,3.1-0.4
			c1.4,0,2.5,0.1,3.5,0.4c0.9,0.3,1.7,0.6,2.3,1.1c0.6,0.5,1,1.1,1.2,1.8c0.2,0.7,0.4,1.5,0.4,2.3v13.1c0,0.6,0.2,1.2,0.6,1.7
			c0.4,0.5,0.8,0.9,1.4,1.2H60.7z M58.8,28.2c-0.6,0.2-1.2,0.4-1.9,0.7c-0.7,0.2-1.3,0.5-1.9,0.8c-0.6,0.3-1.2,0.6-1.8,1
			s-1.1,0.7-1.5,1.2c-0.4,0.4-0.8,0.9-1,1.3c-0.2,0.5-0.4,0.9-0.4,1.4c0,0.5,0.1,1,0.3,1.5c0.2,0.5,0.4,0.9,0.8,1.2
			c0.3,0.4,0.7,0.6,1.1,0.8c0.4,0.2,0.8,0.3,1.3,0.3c0.5,0,0.9-0.1,1.3-0.2c0.4-0.1,0.8-0.3,1.2-0.5c0.4-0.2,0.8-0.5,1.2-0.7
			c0.4-0.3,0.8-0.6,1.2-0.9V28.2z"/>
		<path d="M85.8,20.5v1.8h-3.5c0.4,0.6,0.7,1.2,1,1.9c0.3,0.7,0.4,1.4,0.4,2.1c0,1.1-0.2,2.1-0.7,3c-0.5,0.9-1.2,1.7-2,2.3
			c-0.9,0.7-1.9,1.2-3.1,1.5c-1.2,0.4-2.5,0.5-4,0.5c-0.5,0-1.1,0-1.6-0.1c-0.6-0.1-1-0.2-1.5-0.3c-0.4,0.3-0.7,0.7-1,1.2
			c-0.3,0.4-0.4,0.9-0.4,1.3c0,0.4,0.2,0.8,0.7,1c0.5,0.2,1.1,0.4,2,0.4l7.8,0.4c1.3,0.1,2.3,0.2,3.1,0.4c0.8,0.2,1.5,0.6,2,1
			c0.5,0.4,0.9,0.9,1.1,1.4c0.2,0.6,0.3,1.2,0.3,1.9c0,1.2-0.3,2.3-0.9,3.3c-0.6,1-1.4,1.9-2.5,2.6c-1.1,0.7-2.4,1.3-3.9,1.6
			c-1.6,0.4-3.3,0.6-5.3,0.6c-1.8,0-3.3-0.1-4.6-0.3c-1.3-0.2-2.4-0.5-3.3-0.9c-0.9-0.4-1.5-0.8-1.9-1.4c-0.4-0.5-0.6-1.1-0.6-1.8
			c0-0.6,0.1-1.1,0.4-1.7c0.3-0.5,0.7-1,1.1-1.5c0.5-0.5,1-1,1.5-1.4c0.6-0.5,1.1-0.9,1.6-1.3c-0.4-0.1-0.8-0.3-1.1-0.4
			c-0.3-0.2-0.6-0.4-0.9-0.6c-0.2-0.2-0.4-0.5-0.6-0.7c-0.1-0.3-0.2-0.5-0.2-0.8c0-0.4,0.1-0.9,0.3-1.3c0.2-0.5,0.5-0.9,0.9-1.3
			c0.4-0.4,0.9-0.8,1.4-1.2c0.5-0.4,1.1-0.6,1.7-0.8c-1.4-0.6-2.5-1.5-3.3-2.5C65.4,29.2,65,28,65,26.6c0-1,0.2-2,0.7-2.9
			c0.5-0.9,1.1-1.7,2-2.4c0.8-0.7,1.8-1.2,3-1.6c1.1-0.4,2.3-0.6,3.7-0.6c0.6,0,1.3,0,1.9,0.1c0.6,0.1,1.2,0.2,1.7,0.3
			c0.5,0.1,1,0.3,1.4,0.5c0.4,0.2,0.7,0.4,1,0.6H85.8z M69.3,40.4c-0.3,0.2-0.6,0.5-0.8,0.8c-0.2,0.3-0.4,0.6-0.6,0.9
			c-0.2,0.3-0.3,0.6-0.4,1c-0.1,0.3-0.1,0.6-0.1,0.9c0,0.5,0.2,0.9,0.5,1.3c0.3,0.4,0.8,0.8,1.5,1.1c0.7,0.3,1.5,0.6,2.5,0.8
			c1,0.2,2.2,0.3,3.5,0.3c1.4,0,2.7-0.1,3.8-0.3c1.1-0.2,2.1-0.5,2.8-0.9c0.8-0.4,1.4-0.8,1.8-1.2c0.4-0.4,0.6-0.9,0.6-1.4
			c0-0.5-0.1-0.9-0.4-1.2c-0.2-0.3-0.6-0.6-1-0.9c-0.5-0.2-1-0.4-1.7-0.5c-0.6-0.1-1.4-0.2-2.2-0.2c-1,0-2.1,0-3.1-0.1
			c-1,0-2-0.1-2.9-0.2c-0.9-0.1-1.7-0.1-2.4-0.2C70.1,40.5,69.6,40.5,69.3,40.4 M74.5,32.6c0.6,0,1.2-0.1,1.7-0.4
			c0.6-0.3,1-0.6,1.5-1.1c0.4-0.5,0.8-1,1-1.6c0.2-0.6,0.4-1.3,0.4-2c0-1-0.1-2-0.4-2.9c-0.3-0.9-0.7-1.7-1.2-2.3
			c-0.5-0.7-1.1-1.2-1.7-1.5c-0.6-0.4-1.3-0.6-2.1-0.6c-0.7,0-1.3,0.1-1.8,0.4c-0.5,0.3-0.9,0.7-1.3,1.2c-0.3,0.5-0.6,1.1-0.7,1.8
			c-0.2,0.7-0.2,1.4-0.2,2.2c0,1,0.1,1.8,0.4,2.7c0.2,0.8,0.6,1.6,1,2.2c0.4,0.6,0.9,1.1,1.5,1.4C73.2,32.4,73.8,32.6,74.5,32.6"/>
		<path d="M94.9,41.1c-1.6,0-3.1-0.3-4.5-0.9c-1.4-0.6-2.6-1.3-3.5-2.3c-1-1-1.8-2.1-2.3-3.4c-0.6-1.3-0.8-2.7-0.8-4.2
			c0-1.6,0.3-3,0.8-4.4c0.6-1.4,1.3-2.6,2.3-3.6c1-1,2.2-1.8,3.5-2.4c1.4-0.6,2.9-0.9,4.5-0.9c1.6,0,3.1,0.3,4.5,0.8
			c1.4,0.5,2.5,1.3,3.5,2.2c1,0.9,1.8,2,2.3,3.3c0.6,1.3,0.8,2.6,0.8,4.1c0,1.6-0.3,3.1-0.8,4.5c-0.6,1.4-1.3,2.7-2.3,3.7
			c-1,1.1-2.2,1.9-3.5,2.5C98,40.7,96.5,41.1,94.9,41.1 M95.7,39.5c0.8,0,1.6-0.2,2.3-0.6c0.7-0.4,1.3-1,1.8-1.7
			c0.5-0.7,0.9-1.6,1.2-2.5c0.3-1,0.4-2,0.4-3c0-1.5-0.1-3-0.4-4.3c-0.3-1.3-0.7-2.5-1.3-3.5c-0.6-1-1.4-1.8-2.3-2.4
			c-1-0.6-2.1-0.9-3.5-0.9c-0.7,0-1.4,0.2-2.1,0.6c-0.7,0.4-1.2,1-1.8,1.7c-0.5,0.7-0.9,1.5-1.2,2.5c-0.3,0.9-0.5,2-0.5,3
			c0,1.5,0.2,3,0.5,4.4c0.3,1.4,0.8,2.5,1.4,3.5c0.6,1,1.4,1.8,2.3,2.4C93.5,39.2,94.6,39.5,95.7,39.5"/>
		<path d="M118,41.1c-1.6,0-3.1-0.3-4.5-0.9c-1.4-0.6-2.6-1.3-3.5-2.3c-1-1-1.8-2.1-2.3-3.4c-0.6-1.3-0.8-2.7-0.8-4.2
			c0-1.6,0.3-3,0.8-4.4c0.6-1.4,1.3-2.6,2.3-3.6c1-1,2.2-1.8,3.5-2.4c1.4-0.6,2.9-0.9,4.5-0.9c1.6,0,3.1,0.3,4.5,0.8
			c1.4,0.5,2.5,1.3,3.5,2.2c1,0.9,1.8,2,2.3,3.3c0.6,1.3,0.8,2.6,0.8,4.1c0,1.6-0.3,3.1-0.8,4.5c-0.6,1.4-1.3,2.7-2.3,3.7
			c-1,1.1-2.2,1.9-3.5,2.5C121.1,40.7,119.6,41.1,118,41.1 M118.8,39.5c0.8,0,1.6-0.2,2.3-0.6c0.7-0.4,1.3-1,1.8-1.7
			c0.5-0.7,0.9-1.6,1.2-2.5c0.3-1,0.4-2,0.4-3c0-1.5-0.1-3-0.4-4.3c-0.3-1.3-0.7-2.5-1.3-3.5c-0.6-1-1.4-1.8-2.3-2.4
			c-1-0.6-2.1-0.9-3.5-0.9c-0.7,0-1.4,0.2-2.1,0.6c-0.7,0.4-1.2,1-1.8,1.7c-0.5,0.7-0.9,1.5-1.2,2.5c-0.3,0.9-0.5,2-0.5,3
			c0,1.5,0.2,3,0.5,4.4c0.3,1.4,0.8,2.5,1.4,3.5c0.6,1,1.4,1.8,2.3,2.4C116.6,39.2,117.7,39.5,118.8,39.5"/>
		<path d="M133.1,19h1.2v4.3c1.3-1.4,2.6-2.5,4-3.2c1.4-0.7,2.8-1.1,4.2-1.1c0.7,0,1.4,0.2,2.1,0.5c0.6,0.3,1.2,0.8,1.7,1.4
			c0.5,0.6,0.9,1.3,1.1,2c0.3,0.8,0.4,1.6,0.4,2.5v15.2h-4.2V26.1c0-0.7-0.1-1.3-0.2-1.9c-0.2-0.5-0.4-1-0.7-1.3
			c-0.3-0.4-0.7-0.6-1.1-0.8c-0.4-0.2-0.9-0.3-1.4-0.3c-0.4,0-0.9,0.1-1.4,0.2c-0.5,0.2-1,0.4-1.5,0.6c-0.5,0.3-1,0.6-1.5,1
			c-0.5,0.4-1,0.8-1.5,1.2v12.7c0,1.7-1.3,3-3,3h-1.2V20.2L133.1,19z"/>
		<path d="M164.2,32.3c-0.4-0.7-0.8-1.2-1.4-1.8c-0.6-0.5-1.2-1-2-1.3c-0.7-0.4-1.5-0.7-2.3-1.1c-0.8-0.3-1.5-0.7-2.3-1
			c-0.7-0.3-1.4-0.7-2-1c-0.6-0.4-1-0.8-1.4-1.3c-0.4-0.5-0.5-1-0.5-1.7c0-0.4,0.1-0.8,0.3-1.1c0.2-0.3,0.5-0.6,0.8-0.9
			c0.4-0.3,0.8-0.5,1.3-0.6c0.5-0.1,1-0.2,1.5-0.2c0.6,0,1.1,0.1,1.6,0.3c0.5,0.2,0.9,0.5,1.3,0.9c0.4,0.4,0.7,0.9,0.9,1.4
			c0.2,0.5,0.4,1.1,1.3,1.5c1.1,0.5,3.1,0.1,3.1,0.1s-0.4-1.7-0.9-2.4c-0.5-0.7-1.2-1.3-2-1.8c-0.8-0.5-1.7-0.9-2.7-1.1
			c-0.8-0.2-1.6-0.4-2.5-0.4v0c-0.1,0-0.1,0-0.1,0c-0.1,0-0.2,0-0.2,0v0c-0.9,0-1.7,0.2-2.4,0.4c-0.9,0.3-1.6,0.7-2.3,1.2
			c-0.6,0.5-1.1,1.2-1.5,1.9c-0.4,0.7-0.5,1.5-0.5,2.4c0,0.9,0.2,1.7,0.5,2.4c0.3,0.7,0.8,1.3,1.3,1.8c0.5,0.5,1.1,1,1.8,1.3
			c0.7,0.4,1.4,0.7,2.1,1.1c0.7,0.3,1.4,0.7,2.1,1c0.7,0.3,1.3,0.7,1.8,1c0.5,0.4,1,0.8,1.3,1.3c0.3,0.5,0.5,1.1,0.5,1.7
			c0,0.4-0.1,0.8-0.3,1.2c-0.2,0.4-0.5,0.7-0.8,1c-0.4,0.3-0.8,0.5-1.3,0.7c-0.5,0.2-1,0.3-1.6,0.3c-0.5,0-0.9-0.1-1.3-0.1
			c-0.2,0-0.3-0.1-0.4-0.2c-0.5-0.2-0.9-0.5-1.3-0.9c-0.4-0.4-0.7-0.9-0.9-1.4c-0.2-0.5-0.3-1.1-1.3-1.5c-1.1-0.5-3.1-0.1-3.1-0.1
			s0.4,1.7,0.9,2.4c0.5,0.7,1.2,1.3,2,1.8c0.8,0.5,1.7,0.9,2.7,1.1c0.9,0.2,1.8,0.4,2.7,0.4c0,0,0,0,0,0c1.4,0,2.6-0.2,3.6-0.5
			c1-0.3,1.8-0.8,2.5-1.4c0.7-0.6,1.2-1.3,1.5-2c0.3-0.8,0.5-1.6,0.5-2.5C164.7,33.8,164.5,33,164.2,32.3"/>
		<path d="M150,46.1c-3,1.1-5.7,2-9.7,2c-10.4,0-21.1-7.4-30.1-2.4c11.3-1.8,19.1,5.6,30.2,4.4C143.9,49.7,147.1,48.4,150,46.1"/>
		<path d="M127.4,50.5c-8.9,0.4-14.9-1.6-21.6-4c-5.8-1.6-12.9-2.3-17.4,1.6c4.7-1.8,9.9-1.1,14.3,0.1
			C106.7,49.5,117.3,54.3,127.4,50.5"/>
		<path d="M45.7,49.3c-2.9-1.5-3.1-2.7-3.1-4.5v-0.5c0,0,0,0,0-0.1V17c0-3.3-4.2-4.2-4.2-4.2v30.3h0v0.2c-0.1,2.3-1.9,4.1-4.2,4.1
			h-0.8l0,0.7c3.7,0.1,7.7,1.1,11.5,3.2c18.9,10.3,33.1,11,42.7-1.8C87.5,49.4,72.2,63,45.7,49.3"/>
	</g>
	<g>
		<path class="st5" d="M27.4,91.5V75.8L17.6,99h-1.5L4.3,74.9V99H2V69.7h5.4l10.8,21.8l9.1-21.8h5.8v21.8c0,5.4,0.8,8,3.2,8.4v1.1
			C30,101.1,27.4,98.2,27.4,91.5z"/>
		<path class="st5" d="M71.6,93.4l-1-2.5H58.7L55.1,99h-2.3l13.1-29.3h2l10,23.7c1.1,2.6,2.6,4.2,4.6,4.4V99
			c-0.5,0.1-1.5,0.2-2.1,0.2C77.4,99.2,73.7,98.5,71.6,93.4z M69.7,89l-4.9-11.6L59.7,89H69.7z"/>
		<path class="st5" d="M100.5,75.5c0-2.7-0.4-4.4-3.1-4.4H97v-1.3h5.3c3.1,0,4,1.4,4,5.8V97h15.3v2h-21.1V75.5z"/>
		<path class="st5" d="M142,71.7h-3.2c-3.2,0-5.1,1.4-5.1,5.3h-1.3v-3.8c0-1.8,0.7-3.6,3.8-3.6H157v2h-9.3V99H142V71.7z"/>
		<path class="st5" d="M188.4,93.4l-1-2.5h-11.8l-3.6,8.1h-2.3l13.1-29.3h2l10,23.7c1.1,2.6,2.6,4.2,4.6,4.4V99
			c-0.5,0.1-1.5,0.2-2.1,0.2C194.2,99.2,190.5,98.5,188.4,93.4z M186.5,89l-4.9-11.6L176.5,89H186.5z"/>
	</g>
</g>
</svg>
