<?xml version="1.0" encoding="utf-8"?>
<!-- Generator: Adobe Illustrator 26.0.1, SVG Export Plug-In . SVG Version: 6.00 Build 0)  -->
<!DOCTYPE svg PUBLIC "-//W3C//DTD SVG 1.1//EN" "http://www.w3.org/Graphics/SVG/1.1/DTD/svg11.dtd" [
	<!ENTITY ns_extend "http://ns.adobe.com/Extensibility/1.0/">
	<!ENTITY ns_ai "http://ns.adobe.com/AdobeIllustrator/10.0/">
	<!ENTITY ns_graphs "http://ns.adobe.com/Graphs/1.0/">
	<!ENTITY ns_vars "http://ns.adobe.com/Variables/1.0/">
	<!ENTITY ns_imrep "http://ns.adobe.com/ImageReplacement/1.0/">
	<!ENTITY ns_sfw "http://ns.adobe.com/SaveForWeb/1.0/">
	<!ENTITY ns_custom "http://ns.adobe.com/GenericCustomNamespace/1.0/">
	<!ENTITY ns_adobe_xpath "http://ns.adobe.com/XPath/1.0/">
]>
<svg version="1.1" id="Layer_1" xmlns:x="&ns_extend;" xmlns:i="&ns_ai;" xmlns:graph="&ns_graphs;"
	 xmlns="http://www.w3.org/2000/svg" xmlns:xlink="http://www.w3.org/1999/xlink" x="0px" y="0px" viewBox="0 0 163.1 70"
	 style="enable-background:new 0 0 163.1 70;" xml:space="preserve">
<style type="text/css">
	.st0{fill:#5F705D;}
	.st1{fill:#010101;}
	.st2{fill:none;}
	.st3{fill:#B4D1BF;}
	.st4{fill:#AB926D;}
	.st5{fill:#A3925F;}
	.st6{fill:#006846;}
</style>
<metadata>
	<sfw  xmlns="&ns_sfw;">
		<slices></slices>
		<sliceSourceBounds  bottomLeftOrigin="true" height="414.6" width="1236" x="96.3" y="-355.7"></sliceSourceBounds>
	</sfw>
</metadata>
<g>
	<polygon class="st0" points="46.7,45.6 47.7,45.6 62.1,10.3 76.5,45.6 82.9,45.6 64.8,1.2 	"/>
	<polygon class="st0" points="121.4,2 121.4,1.9 115,1.9 101.8,33.1 88.7,0.9 87.7,0.9 101.3,34.2 101.3,34.2 96.7,45.7 103.4,45.7 
		121.5,2 	"/>
	<polygon class="st0" points="143.1,1.2 125,45.6 126,45.6 140.4,10.3 154.8,45.6 161.2,45.6 	"/>
	<path class="st0" d="M13.2,25.2h6.3H20h5.3h0.4h0.2c6.9,0,12.5-5.1,12.5-11.4S32.7,2.3,25.9,2.3h-0.2h-0.4H20h-0.6H7.9H5.3H2.1
		v43.3h5.8V3.3h12.7c6,0,11,4.6,11.2,10.1c0,0.1,0,0.2,0,0.4c0,0.1,0,0.2,0,0.4c-0.2,5.5-5.2,10.2-11.2,10.2H9.3
		c2.1,1.4,5.2,3.3,8.3,6.6c2.7,2.9,3.9,5.1,5.2,7c3.8,5.6,10.2,11.5,16.7,13.5c5.6,1.7,12.6,1.4,21.8-2.4
		C35.3,58.9,32.1,31,13.2,25.2"/>
	<path class="st0" d="M30.9,67.5l-1.4-3l-1.4,3H30.9z M31.1,68H28l-0.7,1.5h-0.6l2.6-5.6h0.6l2.6,5.6h-0.6L31.1,68z"/>
	<path class="st0" d="M38,65.8c0-0.9-0.6-1.4-1.7-1.4h-1.5v2.8h1.5C37.4,67.2,38,66.7,38,65.8 M38,69.5l-1.3-1.8c-0.1,0-0.3,0-0.5,0
		h-1.5v1.8h-0.6v-5.6h2.1c1.4,0,2.3,0.7,2.3,1.9c0,0.9-0.5,1.5-1.3,1.8l1.4,1.9H38z"/>
	<path class="st0" d="M44.1,67.5l-1.4-3l-1.4,3H44.1z M44.3,68h-3.1l-0.7,1.5h-0.6l2.6-5.6h0.6l2.6,5.6H45L44.3,68z"/>
	<path class="st0" d="M51.5,68c0-0.7-0.5-1.1-1.5-1.1h-2V69h2C51,69,51.5,68.7,51.5,68 M48,64.4v2h1.8c0.9,0,1.4-0.3,1.4-1
		c0-0.7-0.5-1-1.4-1H48z M52.1,68c0,1-0.7,1.5-2.1,1.5h-2.6v-5.6h2.4c1.3,0,2,0.5,2,1.5c0,0.6-0.3,1.1-0.9,1.3
		C51.7,66.8,52.1,67.2,52.1,68"/>
	<rect x="54.3" y="63.9" class="st0" width="0.6" height="5.6"/>
	<path class="st0" d="M60.8,67.5l-1.4-3l-1.4,3H60.8z M61,68h-3.1l-0.7,1.5h-0.6l2.6-5.6h0.6l2.6,5.6h-0.6L61,68z"/>
	<polygon class="st0" points="68.8,63.9 68.8,69.5 68.3,69.5 64.7,64.9 64.7,69.5 64.1,69.5 64.1,63.9 64.6,63.9 68.2,68.4 
		68.2,63.9 	"/>
	<path class="st0" d="M81.1,65.8c0-0.9-0.6-1.4-1.7-1.4h-1.5v2.8h1.5C80.5,67.2,81.1,66.7,81.1,65.8 M81.1,69.5l-1.3-1.8
		c-0.1,0-0.3,0-0.5,0h-1.5v1.8h-0.6v-5.6h2.1c1.4,0,2.3,0.7,2.3,1.9c0,0.9-0.5,1.5-1.3,1.8l1.4,1.9H81.1z"/>
	<path class="st0" d="M87.2,67.5l-1.4-3l-1.4,3H87.2z M87.4,68h-3.1l-0.7,1.5H83l2.6-5.6h0.6l2.6,5.6h-0.6L87.4,68z"/>
	<polygon class="st0" points="95.2,63.9 95.2,69.5 94.7,69.5 91,64.9 91,69.5 90.4,69.5 90.4,63.9 90.9,63.9 94.6,68.4 94.6,63.9 	
		"/>
	<path class="st0" d="M97.3,66.7c0-1.7,1.3-2.9,3-2.9c0.8,0,1.6,0.3,2.1,0.8l-0.4,0.4c-0.5-0.5-1-0.7-1.7-0.7c-1.4,0-2.4,1-2.4,2.3
		c0,1.3,1,2.3,2.4,2.3c0.6,0,1.2-0.2,1.7-0.7l0.4,0.4c-0.5,0.5-1.2,0.8-2.1,0.8C98.6,69.6,97.3,68.3,97.3,66.7"/>
	<polygon class="st0" points="109.1,63.9 109.1,69.5 108.5,69.5 108.5,66.9 105,66.9 105,69.5 104.4,69.5 104.4,63.9 105,63.9 
		105,66.4 108.5,66.4 108.5,63.9 	"/>
	<polygon class="st0" points="115.7,69 115.7,69.5 111.7,69.5 111.7,63.9 115.6,63.9 115.6,64.4 112.3,64.4 112.3,66.4 115.3,66.4 
		115.3,66.9 112.3,66.9 112.3,69 	"/>
	<path class="st0" d="M117.4,68.8l0.2-0.5c0.4,0.4,1.1,0.7,1.9,0.7c1.1,0,1.5-0.4,1.5-1c0-1.5-3.5-0.6-3.5-2.7
		c0-0.8,0.6-1.5,2.1-1.5c0.6,0,1.3,0.2,1.7,0.5l-0.2,0.5c-0.5-0.3-1-0.5-1.5-0.5c-1,0-1.5,0.5-1.5,1c0,1.5,3.5,0.6,3.5,2.7
		c0,0.8-0.7,1.5-2.1,1.5C118.6,69.6,117.8,69.3,117.4,68.8"/>
	<rect x="129.5" y="63.9" class="st0" width="0.6" height="5.6"/>
	<rect x="132.7" y="63.9" class="st0" width="0.6" height="5.6"/>
	<rect x="136" y="63.9" class="st0" width="0.6" height="5.6"/>
</g>
</svg>
