<?xml version="1.0" encoding="utf-8"?>
<!-- Generator: Adobe Illustrator 26.0.1, SVG Export Plug-In . SVG Version: 6.00 Build 0)  -->
<!DOCTYPE svg PUBLIC "-//W3C//DTD SVG 1.1//EN" "http://www.w3.org/Graphics/SVG/1.1/DTD/svg11.dtd" [
	<!ENTITY ns_extend "http://ns.adobe.com/Extensibility/1.0/">
	<!ENTITY ns_ai "http://ns.adobe.com/AdobeIllustrator/10.0/">
	<!ENTITY ns_graphs "http://ns.adobe.com/Graphs/1.0/">
	<!ENTITY ns_vars "http://ns.adobe.com/Variables/1.0/">
	<!ENTITY ns_imrep "http://ns.adobe.com/ImageReplacement/1.0/">
	<!ENTITY ns_sfw "http://ns.adobe.com/SaveForWeb/1.0/">
	<!ENTITY ns_custom "http://ns.adobe.com/GenericCustomNamespace/1.0/">
	<!ENTITY ns_adobe_xpath "http://ns.adobe.com/XPath/1.0/">
]>
<svg version="1.1" id="Layer_1" xmlns:x="&ns_extend;" xmlns:i="&ns_ai;" xmlns:graph="&ns_graphs;"
	 xmlns="http://www.w3.org/2000/svg" xmlns:xlink="http://www.w3.org/1999/xlink" x="0px" y="0px" viewBox="0 0 200 89.4"
	 style="enable-background:new 0 0 200 89.4;" xml:space="preserve">
<style type="text/css">
	.st0{fill:#808184;}
	.st1{clip-path:url(#SVGID_00000023968330950839713330000013880387912194670251_);}
	.st2{fill:#AC9C63;}
	.st3{fill:#038295;}
	
		.st4{clip-path:url(#SVGID_00000132780924843752682030000005177995279854910621_);fill:url(#SVGID_00000113315362767491209570000016095137868910564285_);}
	
		.st5{clip-path:url(#SVGID_00000085247367121301721300000014921928702227184780_);fill:url(#SVGID_00000052070016260215495910000008924637192625697949_);}
	
		.st6{clip-path:url(#SVGID_00000023253540348979335470000012569495374542216374_);fill:url(#SVGID_00000174600448731162873540000007433455670938060684_);}
	.st7{fill:url(#SVGID_00000124154296082177703860000006541625529194132638_);}
	.st8{fill:url(#SVGID_00000100341280888213608700000001215578902393522869_);}
	.st9{fill:url(#SVGID_00000082352797689521037910000009909862159052752293_);}
	.st10{fill:url(#SVGID_00000152979756616447933340000009094676776322374040_);}
	.st11{fill:url(#SVGID_00000049912238868413071210000012727347262399698826_);}
	.st12{fill:url(#SVGID_00000054987785508370852730000003419525699482323369_);}
	.st13{fill:url(#SVGID_00000172406190335032086590000004820333158133314439_);}
	.st14{fill:url(#SVGID_00000075884697297666216940000001434956866603386280_);}
	.st15{fill:url(#SVGID_00000113325939259742857470000001195301795996506011_);}
	.st16{fill:url(#SVGID_00000109720253705350276330000008717931440955869860_);}
	.st17{fill:url(#SVGID_00000071524435400344976510000008189459850637665157_);}
	.st18{fill:url(#SVGID_00000089561387492551508490000011997422282111959437_);}
	.st19{fill:url(#SVGID_00000103958163491608162830000014410331105064097672_);}
	.st20{fill:url(#SVGID_00000162334489733137860270000012591075578257527740_);}
	.st21{fill:url(#SVGID_00000158729458115692699460000012833686594226604720_);}
	.st22{fill:url(#SVGID_00000108297478819156751590000001468544824282282398_);}
	.st23{fill:url(#SVGID_00000163043333883806943060000005800428271192887460_);}
	.st24{fill:url(#SVGID_00000080888534201731671990000004374842979962660518_);}
	.st25{fill:url(#SVGID_00000008865367492580728710000013624845865738765964_);}
	.st26{fill:url(#SVGID_00000096752744035672704270000003038035092960559788_);}
	.st27{fill:url(#SVGID_00000023245590612790168700000002287445207532196006_);}
	.st28{fill:url(#SVGID_00000013899417572261467620000008344682225623528109_);}
	.st29{fill:url(#SVGID_00000010275853489801040980000005324998169757805240_);}
	.st30{fill:url(#SVGID_00000095303851860776535770000007020769115657268359_);}
	.st31{fill:url(#SVGID_00000129898566802209181870000006944717456668609456_);}
	.st32{fill:url(#SVGID_00000110439088407384484210000017326549190596296618_);}
	.st33{fill:url(#SVGID_00000088107764822293279330000001518120541964282781_);}
	.st34{fill:url(#SVGID_00000096059915181361691530000013710712683453000379_);}
	.st35{fill:url(#SVGID_00000062171840745298566670000010145263777008156835_);}
	.st36{fill:url(#SVGID_00000068665958215058309490000002715315181870836895_);}
	.st37{fill:url(#SVGID_00000056429340186744406340000017944005421071213985_);}
	.st38{fill:url(#SVGID_00000035488431330008035390000006421602536680976020_);}
	.st39{fill:url(#SVGID_00000168118399808664072600000009683855261273168027_);}
	.st40{fill:url(#SVGID_00000169545645083155036310000004829629224469924000_);}
	.st41{fill:url(#SVGID_00000058555818277000627680000004216286491874310065_);}
	.st42{fill:url(#SVGID_00000142878273589662283770000006999030095672735898_);}
	.st43{fill:url(#SVGID_00000119082510589202214250000014746879122073456810_);}
	.st44{fill:url(#SVGID_00000113340090083546882720000015362718814007368852_);}
	.st45{fill:url(#SVGID_00000070814579788336192360000014927464230382013094_);}
	.st46{fill:url(#SVGID_00000070094240050636365860000011058268041452134585_);}
	.st47{fill:url(#SVGID_00000109011798470827006130000003624032210033423003_);}
	.st48{fill:url(#SVGID_00000006680452244603341150000005076435412756525724_);}
	.st49{fill:url(#SVGID_00000148654672485055493030000008449299596577189776_);}
	.st50{fill:url(#SVGID_00000031903769494567696670000008223537697102947223_);}
	.st51{fill:url(#SVGID_00000099649149902246276520000012331577233753099949_);}
	.st52{fill:url(#SVGID_00000062175396877270355440000001552215166412780698_);}
	.st53{fill:url(#SVGID_00000160906852405370476640000001144708423009937844_);}
	.st54{fill:#6AC1D5;}
	.st55{fill:#73BAB2;}
	.st56{fill:url(#SVGID_00000026129701165360469580000015380299784757251260_);}
	.st57{fill:url(#SVGID_00000127763569686292223590000012623373666519877532_);}
	.st58{fill:url(#SVGID_00000162347577446720537930000005543962687340032945_);}
	.st59{fill:url(#SVGID_00000027590194869211795190000000568311235245646241_);}
	.st60{fill:url(#SVGID_00000165927959473129438080000012511372286896655287_);}
	.st61{fill:url(#SVGID_00000118374915546132562810000008715802358604274310_);}
	.st62{fill:url(#SVGID_00000012462150935091072550000001184752096536720300_);}
	.st63{fill:url(#SVGID_00000000184378982370870710000007077560859308937863_);}
	.st64{fill:url(#SVGID_00000175290306025874688020000010111585048446340782_);}
	.st65{fill:url(#SVGID_00000142858697370536102980000004974653847616608396_);}
	.st66{fill:url(#SVGID_00000011015349500223644150000008370547733212812432_);}
	.st67{fill:url(#SVGID_00000062160087491247545720000015293711405291015603_);}
	.st68{fill:url(#SVGID_00000003784098865432796640000007764324677974181260_);}
	.st69{fill:url(#SVGID_00000070086024349854917510000007423256095600286850_);}
	.st70{fill:url(#SVGID_00000074430547799268288640000015327927624637012383_);}
	.st71{fill:url(#SVGID_00000147210560100075855880000008094519181166780820_);}
	.st72{fill:url(#SVGID_00000063622346612569267600000006630354587519134629_);}
	.st73{fill:url(#SVGID_00000043457650889587424640000017160527070923260069_);}
	.st74{fill:url(#SVGID_00000034790998331372345030000005854143950360275111_);}
	.st75{fill:url(#SVGID_00000178176798362129273950000005153803215366157203_);}
	.st76{fill:url(#SVGID_00000016797727587105124260000015227850359543318973_);}
	.st77{fill:url(#SVGID_00000053511793921112731400000003203857812209937800_);}
	.st78{fill:url(#SVGID_00000085218170943490920290000006720614600866225538_);}
	.st79{fill:url(#SVGID_00000079461604505852209790000016062695228471653258_);}
	.st80{fill:url(#SVGID_00000040574122288550430120000011975407753836830113_);}
	.st81{fill:url(#SVGID_00000015340975217731237240000005005305137436293002_);}
	.st82{fill:url(#SVGID_00000151526907672030523220000012500006484735324307_);}
	.st83{fill:url(#SVGID_00000128475120629227968640000014505729640961250186_);}
	.st84{fill:url(#SVGID_00000157992720796062325140000003162073165177572241_);}
	.st85{fill:url(#SVGID_00000047740893247093465660000017989062525310793660_);}
	.st86{fill:url(#SVGID_00000108988692053838811630000013429222303830713760_);}
	.st87{fill:url(#SVGID_00000179637008961649010360000010877579320678452647_);}
	.st88{fill:url(#SVGID_00000142175425315297426700000001996604047518453949_);}
	.st89{fill:url(#SVGID_00000148652974226959659960000002971928433312536192_);}
	.st90{fill:#004F54;}
	.st91{fill-rule:evenodd;clip-rule:evenodd;fill:#065055;}
	.st92{fill:#7A9699;}
	.st93{fill:#87A4AB;}
	
		.st94{clip-path:url(#SVGID_00000147914825254302591250000003941871303466952840_);fill:url(#SVGID_00000132767984636637738290000004381077681530274201_);}
	
		.st95{clip-path:url(#SVGID_00000121262374930886881000000001922856843946344870_);fill:url(#SVGID_00000164491714671486112390000008686599721971735723_);}
	
		.st96{clip-path:url(#SVGID_00000139286540065018431240000000597202574491660928_);fill:url(#SVGID_00000003796629048356464770000002916541542905632151_);}
	
		.st97{clip-path:url(#SVGID_00000116234790280369897450000001296134656218469508_);fill:url(#SVGID_00000045587244439119469630000017748505608214266020_);}
	
		.st98{clip-path:url(#SVGID_00000034778191655246727300000011836404160908292780_);fill:url(#SVGID_00000068644462399301316500000003389190122911339962_);}
	
		.st99{clip-path:url(#SVGID_00000092440308700776543440000000821557612120408504_);fill:url(#SVGID_00000103947155014106798030000004546634893233733296_);}
	
		.st100{clip-path:url(#SVGID_00000154414026567184225250000004417768695153952385_);fill:url(#SVGID_00000029765054277189954240000009532158461419189691_);}
	
		.st101{clip-path:url(#SVGID_00000107586944843621695920000001187279851966964886_);fill:url(#SVGID_00000076561437623224689670000000093859477119083194_);}
	
		.st102{clip-path:url(#SVGID_00000176727510170308365900000014824894077404677556_);fill:url(#SVGID_00000111875153441093131470000016382565224773445810_);}
	
		.st103{clip-path:url(#SVGID_00000015344444359699978110000003437528267004792501_);fill:url(#SVGID_00000019674381870809477040000013398972249419323023_);}
	
		.st104{clip-path:url(#SVGID_00000000911959544189876080000004080204059834714039_);fill:url(#SVGID_00000011717516917970712850000016239128852897442452_);}
	
		.st105{clip-path:url(#SVGID_00000035494991816656219680000006588523337638731690_);fill:url(#SVGID_00000152949397307071336910000012686189268231291831_);}
	
		.st106{clip-path:url(#SVGID_00000000920261935913901200000000179001473382925718_);fill:url(#SVGID_00000101075154653760299120000008477285906218740627_);}
	
		.st107{clip-path:url(#SVGID_00000034057482544696009840000009824763302266584987_);fill:url(#SVGID_00000086671836157241882580000003200434986949612673_);}
	
		.st108{clip-path:url(#SVGID_00000080918564394722606950000000375232428961596595_);fill:url(#SVGID_00000135661677631452910340000008725380511147218346_);}
	
		.st109{clip-path:url(#SVGID_00000155140796232793263980000009865468385513278897_);fill:url(#SVGID_00000159463635691669315110000009295761057186539962_);}
	
		.st110{clip-path:url(#SVGID_00000032624810837564739530000002361106851570224792_);fill:url(#SVGID_00000065791699816878922590000001088977694042197399_);}
	
		.st111{clip-path:url(#SVGID_00000095339703713171294140000015172191806046055076_);fill:url(#SVGID_00000014630461074748981160000000608301106587285905_);}
	
		.st112{clip-path:url(#SVGID_00000009560159626723148520000011500599408930467202_);fill:url(#SVGID_00000036225455277037200620000004834905146977283999_);}
	
		.st113{clip-path:url(#SVGID_00000124140402220226726610000000120075944231918011_);fill:url(#SVGID_00000043414750116743903420000002521589533530949023_);}
	
		.st114{clip-path:url(#SVGID_00000171000713647950088390000015335099841437322155_);fill:url(#SVGID_00000034059965794609287950000001821998507685337746_);}
	
		.st115{clip-path:url(#SVGID_00000015344616154977316350000014814463684048000933_);fill:url(#SVGID_00000128475170395149454660000014792600158411945865_);}
	
		.st116{clip-path:url(#SVGID_00000182503644000668582730000012474760548318003612_);fill:url(#SVGID_00000014617155674161689300000007856575500740467598_);}
	
		.st117{clip-path:url(#SVGID_00000091010610576071121240000003200022420287889078_);fill:url(#SVGID_00000133489229457393851490000000595678008811340455_);}
	
		.st118{clip-path:url(#SVGID_00000003793939854973827040000007280793625755058088_);fill:url(#SVGID_00000171697709364937596390000009081801664550064533_);}
	
		.st119{clip-path:url(#SVGID_00000049212360205301707150000015496648962450340757_);fill:url(#SVGID_00000036955676055495609300000012100533463349421960_);}
	
		.st120{clip-path:url(#SVGID_00000005257416247576969430000002734196954345339794_);fill:url(#SVGID_00000128482574410582424240000007800929532421179320_);}
	.st121{fill:#68934B;}
	.st122{fill:#5F7360;}
	.st123{fill:#7D897A;}
	.st124{fill:#5B8172;}
	.st125{fill:#54665D;}
	.st126{clip-path:url(#SVGID_00000117649919365855440630000009213982054700817063_);fill:#54665D;}
	.st127{fill:#00495C;}
</style>
<metadata>
	<sfw  xmlns="&ns_sfw;">
		<slices></slices>
		<sliceSourceBounds  bottomLeftOrigin="true" height="1021.1" width="4161.2" x="-38.2" y="-866.2"></sliceSourceBounds>
	</sfw>
</metadata>
<g>
	<path class="st125" d="M58.8,10.4h-4l0,6.4c0,3.7,0.5,3.9,4.1,3.9c3.3,0,5.5-2.3,5.5-5.2C64.3,12.7,62.4,10.4,58.8,10.4 M54.7,9.7
		H59c3.1,0,4.2-1.8,4.2-3.4c0-2.6-1.5-3.9-5.9-3.9c-0.7,0-2.6,0.1-2.6,0.1V9.7z M52.6,1.6H59c3.6,0,6.4,1.7,6.4,4.4
		c0,1.8-1.3,3.5-3.2,4.1c3,0.9,4.7,2.8,4.7,5.4c0,2.9-2.1,6-7.8,6h-6.5V1.6z"/>
	<rect x="98" y="1.6" class="st125" width="2.2" height="19.9"/>
	<rect x="142.3" y="1.6" class="st125" width="2.2" height="19.9"/>
	<polygon class="st125" points="165.1,20.4 165.1,21.5 153,21.5 153,1.6 155.1,1.6 155.1,20.4 	"/>
	<polygon class="st125" points="183.9,20.4 183.9,21.5 171.8,21.5 171.8,1.6 174,1.6 174,20.4 	"/>
	<path class="st125" d="M192.8,9.5c-2.1-1.2-4-2.2-4-4.3c0-1.8,1.5-3.2,3.5-3.2c0.9,0,1.8,0.1,2.7,0.4V1.8c-0.7-0.2-1.4-0.4-2.5-0.4
		c-3.4,0-5.6,1.8-5.6,4.8c0,2.2,2.1,3.9,4.5,5.2c3.6,2,5.3,3.4,5.3,5.8c0,2.3-2,3.6-4.6,3.6c-0.6,0-1.1-0.1-1.6-0.2v0.8
		c0.5,0.1,1,0.1,1.6,0.1c4,0,6.9-2.6,6.9-5.3C198.9,13,196,11.3,192.8,9.5"/>
	<path class="st125" d="M77.5,14h7.8l-3.9-9.2L77.5,14z M80.9,1.6h1.2l8.4,19.9h-2l-2.5-6l-9.2,0l-2.5,6h-2.1L80.9,1.6z"/>
	<polygon class="st125" points="131.8,1.6 131.8,10.8 120.2,10.8 120.2,1.6 118,1.6 118,21.5 120.2,21.5 120.2,12.3 131.8,12.3 
		131.8,21.5 134,21.5 134,1.6 	"/>
	<path class="st125" d="M4.3,20.4c1.4,0,3.2,0.1,4.3,0.1c5.5,0,8.4-4.3,8.4-9.2c0-4.8-2.6-8.4-8.4-8.6c-0.9,0-2.7,0-4.2,0.1
		C5.2,5.1,6.7,12.3,4.3,20.4 M8.5,21.5c-1.6,0-6-0.1-6.1-0.1l-1,0l0.3-0.9c3.3-10,0.1-17.7,0-17.8L1.4,1.8l1,0
		c0.2,0,4.8-0.1,6.1-0.1c6.5,0,11.3,4.1,11.3,9.7C19.8,17,14.9,21.5,8.5,21.5"/>
	<path class="st125" d="M43.1,1.6v12.2c0,4.6-3.2,7.6-6.8,7.6v0c-3.8,0-6.8-2.8-6.8-7.6V1.6h-2.1v11.3c0,5.6,3.4,9.4,8.9,9.4v0
		c5.3,0,8.5-4.1,8.5-9.5V1.6H43.1z"/>
	<polygon class="st125" points="67.7,49.9 67.7,50.8 57.9,50.8 57.9,34.8 59.7,34.8 59.7,49.9 	"/>
	<rect x="57.9" y="34.6" class="st125" width="9.7" height="0.9"/>
	<rect x="57.9" y="41.7" class="st125" width="8" height="0.9"/>
	<rect x="132.7" y="41.7" class="st125" width="8" height="0.9"/>
	<polygon class="st125" points="142.4,49.9 142.4,50.8 132.6,50.8 132.6,34.8 134.4,34.8 134.4,49.9 	"/>
	<rect x="132.7" y="34.6" class="st125" width="9.7" height="0.9"/>
	<path class="st125" d="M77.7,41.2c-1.7-1-3.2-1.8-3.2-3.4c0-1.4,1.2-2.6,2.8-2.6c0.7,0,1.5,0,2.2,0.3V35c-0.5-0.2-1.1-0.4-2-0.4
		c-2.7,0-4.5,1.4-4.5,3.8c0,1.8,1.7,3.1,3.6,4.1c2.9,1.6,4.2,2.7,4.2,4.6c0,1.9-1.6,2.9-3.7,2.9c-0.5,0-0.9,0-1.3-0.1v0.7
		c0.4,0.1,0.8,0.1,1.3,0.1c3.2,0,5.5-2.1,5.5-4.2C82.6,44,80.3,42.7,77.7,41.2"/>
	<rect x="115.1" y="34.6" class="st125" width="11.4" height="0.9"/>
	<polygon class="st125" points="121.7,49.9 121.7,34.8 119.9,34.8 119.9,50.8 121.7,50.8 	"/>
	<rect x="85.9" y="34.6" class="st125" width="11.4" height="0.9"/>
	<polygon class="st125" points="92.5,49.9 92.5,34.8 90.7,34.8 90.7,50.8 92.5,50.8 	"/>
	<path class="st125" d="M103.4,44.7h6.3l-3.1-7.4L103.4,44.7z M106.1,34.8h1l6.8,16h-1.6l-2-4.8l-7.4,0l-2,4.8h-1.7L106.1,34.8z"/>
	<g>
		<defs>
			<rect id="SVGID_00000137132460102382046000000018365578670803820170_" x="56.1" y="60.1" width="88.1" height="5.1"/>
		</defs>
		<use xlink:href="#SVGID_00000137132460102382046000000018365578670803820170_"  style="overflow:visible;fill:#54665D;"/>
		<clipPath id="SVGID_00000147221204487945308240000011342434607314961025_">
			<use xlink:href="#SVGID_00000137132460102382046000000018365578670803820170_"  style="overflow:visible;"/>
		</clipPath>
		<path style="clip-path:url(#SVGID_00000147221204487945308240000011342434607314961025_);fill:#54665D;" d="M58.4,63
			c0-0.4-0.3-0.7-0.7-0.7c-0.4,0-0.7,0.3-0.7,0.7c0,0.4,0.3,0.7,0.7,0.7C58.1,63.7,58.4,63.3,58.4,63"/>
		<path style="clip-path:url(#SVGID_00000147221204487945308240000011342434607314961025_);fill:#54665D;" d="M61.4,63
			c0-0.4-0.3-0.7-0.7-0.7c-0.4,0-0.7,0.3-0.7,0.7c0,0.4,0.3,0.7,0.7,0.7C61,63.7,61.4,63.3,61.4,63"/>
		<path style="clip-path:url(#SVGID_00000147221204487945308240000011342434607314961025_);fill:#54665D;" d="M64.3,63
			c0-0.4-0.3-0.7-0.7-0.7c-0.4,0-0.7,0.3-0.7,0.7c0,0.4,0.3,0.7,0.7,0.7C64,63.7,64.3,63.3,64.3,63"/>
		<path style="clip-path:url(#SVGID_00000147221204487945308240000011342434607314961025_);fill:#54665D;" d="M67.2,63
			c0-0.4-0.3-0.7-0.7-0.7c-0.4,0-0.7,0.3-0.7,0.7c0,0.4,0.3,0.7,0.7,0.7C66.9,63.7,67.2,63.3,67.2,63"/>
		<path style="clip-path:url(#SVGID_00000147221204487945308240000011342434607314961025_);fill:#54665D;" d="M70.1,63
			c0-0.4-0.3-0.7-0.7-0.7c-0.4,0-0.7,0.3-0.7,0.7c0,0.4,0.3,0.7,0.7,0.7C69.8,63.7,70.1,63.3,70.1,63"/>
		<path style="clip-path:url(#SVGID_00000147221204487945308240000011342434607314961025_);fill:#54665D;" d="M73.1,63
			c0-0.4-0.3-0.7-0.7-0.7c-0.4,0-0.7,0.3-0.7,0.7c0,0.4,0.3,0.7,0.7,0.7C72.7,63.7,73.1,63.3,73.1,63"/>
		<path style="clip-path:url(#SVGID_00000147221204487945308240000011342434607314961025_);fill:#54665D;" d="M76,63
			c0-0.4-0.3-0.7-0.7-0.7c-0.4,0-0.7,0.3-0.7,0.7c0,0.4,0.3,0.7,0.7,0.7C75.7,63.7,76,63.3,76,63"/>
		<path style="clip-path:url(#SVGID_00000147221204487945308240000011342434607314961025_);fill:#54665D;" d="M78.9,63
			c0-0.4-0.3-0.7-0.7-0.7c-0.4,0-0.7,0.3-0.7,0.7c0,0.4,0.3,0.7,0.7,0.7C78.6,63.7,78.9,63.3,78.9,63"/>
		<path style="clip-path:url(#SVGID_00000147221204487945308240000011342434607314961025_);fill:#54665D;" d="M81.8,63
			c0-0.4-0.3-0.7-0.7-0.7c-0.4,0-0.7,0.3-0.7,0.7c0,0.4,0.3,0.7,0.7,0.7C81.5,63.7,81.8,63.3,81.8,63"/>
		<path style="clip-path:url(#SVGID_00000147221204487945308240000011342434607314961025_);fill:#54665D;" d="M84.8,63
			c0-0.4-0.3-0.7-0.7-0.7c-0.4,0-0.7,0.3-0.7,0.7c0,0.4,0.3,0.7,0.7,0.7C84.4,63.7,84.8,63.3,84.8,63"/>
		<path style="clip-path:url(#SVGID_00000147221204487945308240000011342434607314961025_);fill:#54665D;" d="M87.7,63
			c0-0.4-0.3-0.7-0.7-0.7c-0.4,0-0.7,0.3-0.7,0.7c0,0.4,0.3,0.7,0.7,0.7C87.4,63.7,87.7,63.3,87.7,63"/>
		<path style="clip-path:url(#SVGID_00000147221204487945308240000011342434607314961025_);fill:#54665D;" d="M90.6,63
			c0-0.4-0.3-0.7-0.7-0.7c-0.4,0-0.7,0.3-0.7,0.7c0,0.4,0.3,0.7,0.7,0.7C90.3,63.7,90.6,63.3,90.6,63"/>
		<path style="clip-path:url(#SVGID_00000147221204487945308240000011342434607314961025_);fill:#54665D;" d="M93.5,63
			c0-0.4-0.3-0.7-0.7-0.7c-0.4,0-0.7,0.3-0.7,0.7c0,0.4,0.3,0.7,0.7,0.7C93.2,63.7,93.5,63.3,93.5,63"/>
		<path style="clip-path:url(#SVGID_00000147221204487945308240000011342434607314961025_);fill:#54665D;" d="M96.5,63
			c0-0.4-0.3-0.7-0.7-0.7c-0.4,0-0.7,0.3-0.7,0.7c0,0.4,0.3,0.7,0.7,0.7C96.1,63.7,96.5,63.3,96.5,63"/>
		<path style="clip-path:url(#SVGID_00000147221204487945308240000011342434607314961025_);fill:#54665D;" d="M99.4,63
			c0-0.4-0.3-0.7-0.7-0.7c-0.4,0-0.7,0.3-0.7,0.7c0,0.4,0.3,0.7,0.7,0.7C99.1,63.7,99.4,63.3,99.4,63"/>
		<path style="clip-path:url(#SVGID_00000147221204487945308240000011342434607314961025_);fill:#54665D;" d="M102.3,63
			c0-0.4-0.3-0.7-0.7-0.7c-0.4,0-0.7,0.3-0.7,0.7c0,0.4,0.3,0.7,0.7,0.7C102,63.7,102.3,63.3,102.3,63"/>
		<path style="clip-path:url(#SVGID_00000147221204487945308240000011342434607314961025_);fill:#54665D;" d="M105.3,63
			c0-0.4-0.3-0.7-0.7-0.7c-0.4,0-0.7,0.3-0.7,0.7c0,0.4,0.3,0.7,0.7,0.7C104.9,63.7,105.3,63.3,105.3,63"/>
		<path style="clip-path:url(#SVGID_00000147221204487945308240000011342434607314961025_);fill:#54665D;" d="M108.2,63
			c0-0.4-0.3-0.7-0.7-0.7c-0.4,0-0.7,0.3-0.7,0.7c0,0.4,0.3,0.7,0.7,0.7C107.9,63.7,108.2,63.3,108.2,63"/>
		<path style="clip-path:url(#SVGID_00000147221204487945308240000011342434607314961025_);fill:#54665D;" d="M111.1,63
			c0-0.4-0.3-0.7-0.7-0.7c-0.4,0-0.7,0.3-0.7,0.7c0,0.4,0.3,0.7,0.7,0.7C110.8,63.7,111.1,63.3,111.1,63"/>
		<path style="clip-path:url(#SVGID_00000147221204487945308240000011342434607314961025_);fill:#54665D;" d="M114,63
			c0-0.4-0.3-0.7-0.7-0.7c-0.4,0-0.7,0.3-0.7,0.7c0,0.4,0.3,0.7,0.7,0.7C113.7,63.7,114,63.3,114,63"/>
		<path style="clip-path:url(#SVGID_00000147221204487945308240000011342434607314961025_);fill:#54665D;" d="M117,63
			c0-0.4-0.3-0.7-0.7-0.7c-0.4,0-0.7,0.3-0.7,0.7c0,0.4,0.3,0.7,0.7,0.7C116.6,63.7,117,63.3,117,63"/>
		<path style="clip-path:url(#SVGID_00000147221204487945308240000011342434607314961025_);fill:#54665D;" d="M119.9,63
			c0-0.4-0.3-0.7-0.7-0.7c-0.4,0-0.7,0.3-0.7,0.7c0,0.4,0.3,0.7,0.7,0.7C119.6,63.7,119.9,63.3,119.9,63"/>
		<path style="clip-path:url(#SVGID_00000147221204487945308240000011342434607314961025_);fill:#54665D;" d="M122.8,63
			c0-0.4-0.3-0.7-0.7-0.7c-0.4,0-0.7,0.3-0.7,0.7c0,0.4,0.3,0.7,0.7,0.7C122.5,63.7,122.8,63.3,122.8,63"/>
		<path style="clip-path:url(#SVGID_00000147221204487945308240000011342434607314961025_);fill:#54665D;" d="M125.7,63
			c0-0.4-0.3-0.7-0.7-0.7c-0.4,0-0.7,0.3-0.7,0.7c0,0.4,0.3,0.7,0.7,0.7C125.4,63.7,125.7,63.3,125.7,63"/>
		<path style="clip-path:url(#SVGID_00000147221204487945308240000011342434607314961025_);fill:#54665D;" d="M128.7,63
			c0-0.4-0.3-0.7-0.7-0.7c-0.4,0-0.7,0.3-0.7,0.7c0,0.4,0.3,0.7,0.7,0.7C128.3,63.7,128.7,63.3,128.7,63"/>
		<path style="clip-path:url(#SVGID_00000147221204487945308240000011342434607314961025_);fill:#54665D;" d="M131.6,63
			c0-0.4-0.3-0.7-0.7-0.7c-0.4,0-0.7,0.3-0.7,0.7c0,0.4,0.3,0.7,0.7,0.7C131.3,63.7,131.6,63.4,131.6,63"/>
		<path style="clip-path:url(#SVGID_00000147221204487945308240000011342434607314961025_);fill:#54665D;" d="M134.5,63
			c0-0.4-0.3-0.7-0.7-0.7c-0.4,0-0.7,0.3-0.7,0.7c0,0.4,0.3,0.7,0.7,0.7C134.2,63.7,134.5,63.4,134.5,63"/>
		<path style="clip-path:url(#SVGID_00000147221204487945308240000011342434607314961025_);fill:#54665D;" d="M137.5,63
			c0-0.4-0.3-0.7-0.7-0.7c-0.4,0-0.7,0.3-0.7,0.7c0,0.4,0.3,0.7,0.7,0.7C137.1,63.7,137.5,63.4,137.5,63"/>
		<path style="clip-path:url(#SVGID_00000147221204487945308240000011342434607314961025_);fill:#54665D;" d="M140.4,63
			c0-0.4-0.3-0.7-0.7-0.7c-0.4,0-0.7,0.3-0.7,0.7c0,0.4,0.3,0.7,0.7,0.7C140.1,63.7,140.4,63.4,140.4,63"/>
		<path style="clip-path:url(#SVGID_00000147221204487945308240000011342434607314961025_);fill:#54665D;" d="M143.3,63
			c0-0.4-0.3-0.7-0.7-0.7c-0.4,0-0.7,0.3-0.7,0.7c0,0.4,0.3,0.7,0.7,0.7C143,63.7,143.3,63.4,143.3,63"/>
	</g>
	<path class="st125" d="M139.7,78.7v1.2h3.3v9h1.4v-9h3.3v-1.2H139.7z M129,78.7h-0.7v10.2h1.2v-7.2c0-0.1,0-0.2,0-0.3
		c0-0.1,0-0.2,0-0.3l5.9,7.7c0.1,0.1,0.1,0.2,0.2,0.2c0.1,0,0.2,0.1,0.3,0.1h0.7V78.7h-1.2v7.2c0,0.1,0,0.2,0,0.3c0,0.1,0,0.2,0,0.4
		l-5.9-7.7c-0.1-0.1-0.1-0.2-0.2-0.2C129.2,78.8,129.1,78.7,129,78.7 M123.9,78.7h-1.4v10.2h1.4V78.7z M117,85.5
		c-0.2,0.5-0.4,0.9-0.7,1.3c-0.3,0.3-0.7,0.6-1.1,0.8c-0.4,0.2-0.9,0.3-1.5,0.3c-0.5,0-1-0.1-1.5-0.3c-0.4-0.2-0.8-0.4-1.1-0.8
		c-0.3-0.3-0.6-0.8-0.7-1.3c-0.2-0.5-0.3-1.1-0.3-1.7s0.1-1.2,0.3-1.7c0.2-0.5,0.4-0.9,0.7-1.3c0.3-0.3,0.7-0.6,1.1-0.8
		c0.4-0.2,0.9-0.3,1.5-0.3c0.5,0,1,0.1,1.5,0.3c0.4,0.2,0.8,0.4,1.1,0.8c0.3,0.3,0.6,0.8,0.7,1.3c0.2,0.5,0.3,1.1,0.3,1.7
		S117.2,85,117,85.5 M118.3,81.7c-0.2-0.6-0.6-1.2-1-1.6c-0.4-0.5-1-0.8-1.6-1.1c-0.6-0.3-1.3-0.4-2-0.4c-0.7,0-1.4,0.1-2,0.4
		c-0.6,0.3-1.1,0.6-1.6,1.1c-0.4,0.5-0.8,1-1,1.6c-0.2,0.6-0.4,1.3-0.4,2.1s0.1,1.5,0.4,2.1s0.6,1.2,1,1.6c0.4,0.5,1,0.8,1.6,1.1
		c0.6,0.3,1.3,0.4,2,0.4c0.7,0,1.4-0.1,2-0.4c0.6-0.3,1.1-0.6,1.6-1.1c0.4-0.5,0.8-1,1-1.6c0.2-0.6,0.4-1.3,0.4-2.1
		S118.5,82.4,118.3,81.7 M100.4,79.8h1.6c0.8,0,1.4,0.2,1.8,0.5c0.4,0.4,0.6,0.9,0.6,1.5c0,0.3-0.1,0.6-0.2,0.9
		c-0.1,0.3-0.3,0.5-0.5,0.7c-0.2,0.2-0.5,0.3-0.8,0.4c-0.3,0.1-0.6,0.2-1,0.2h-1.6V79.8z M102,85.1c0.6,0,1.2-0.1,1.6-0.2
		c0.5-0.2,0.9-0.4,1.2-0.7c0.3-0.3,0.6-0.6,0.7-1c0.2-0.4,0.2-0.8,0.2-1.3c0-0.5-0.1-0.9-0.2-1.3c-0.2-0.4-0.4-0.7-0.7-1
		c-0.3-0.3-0.7-0.5-1.2-0.6c-0.5-0.1-1-0.2-1.7-0.2h-3v10.2h1.4v-3.8H102z M84.6,78.7h-1.4v10.2h1.4v-4.7h0.6c0.1,0,0.2,0,0.3,0
		c0.1,0,0.1,0,0.2,0.1c0.1,0,0.1,0.1,0.2,0.1c0,0,0.1,0.1,0.1,0.1l3.5,4c0,0,0.1,0.1,0.1,0.1c0,0,0.1,0.1,0.1,0.1c0,0,0.1,0,0.2,0.1
		c0.1,0,0.1,0,0.2,0h1.2l-4-4.8c-0.1-0.1-0.2-0.2-0.3-0.3c-0.1-0.1-0.2-0.1-0.3-0.2c0.1,0,0.2-0.1,0.3-0.2c0.1-0.1,0.2-0.2,0.3-0.3
		l3.9-4.4h-1.2c-0.2,0-0.3,0-0.4,0.1c-0.1,0-0.2,0.1-0.3,0.3l-3.4,3.8c-0.1,0.1-0.2,0.2-0.3,0.2c-0.1,0-0.2,0.1-0.4,0.1h-0.5V78.7z
		 M73.7,79.8h1.5c0.8,0,1.4,0.2,1.8,0.5c0.4,0.3,0.6,0.8,0.6,1.4c0,0.3-0.1,0.6-0.2,0.8c-0.1,0.2-0.3,0.5-0.5,0.6
		c-0.2,0.2-0.5,0.3-0.8,0.4c-0.3,0.1-0.7,0.1-1.1,0.1h-1.4V79.8z M74.8,84.7c0.2,0,0.3,0,0.4,0.1c0.1,0,0.2,0.1,0.3,0.2l2.6,3.6
		c0.1,0.2,0.3,0.3,0.6,0.3h1.2l-3-4c-0.1-0.2-0.3-0.3-0.5-0.4c0.4-0.1,0.7-0.2,1.1-0.4c0.3-0.2,0.6-0.4,0.8-0.6
		c0.2-0.2,0.4-0.5,0.5-0.8s0.2-0.6,0.2-1c0-0.4-0.1-0.8-0.2-1.2s-0.4-0.6-0.7-0.9c-0.3-0.2-0.7-0.4-1.2-0.6c-0.5-0.1-1-0.2-1.7-0.2
		h-2.9v10.2h1.4v-4.2H74.8z M64.2,81c0-0.1,0.1-0.3,0.1-0.4s0.1-0.3,0.2-0.5c0.1,0.4,0.2,0.7,0.3,1l1.6,4.1h-3.8L64.2,81z
		 M65.2,78.7h-1.4l-4.1,10.2h1.1c0.1,0,0.2,0,0.3-0.1c0.1-0.1,0.1-0.1,0.2-0.2l1-2.5h4.6l1,2.5c0,0.1,0.1,0.2,0.2,0.2
		c0.1,0.1,0.2,0.1,0.3,0.1h1.1L65.2,78.7z M53,79.8h1.6c0.8,0,1.4,0.2,1.8,0.5c0.4,0.4,0.6,0.9,0.6,1.5c0,0.3-0.1,0.6-0.2,0.9
		s-0.3,0.5-0.5,0.7c-0.2,0.2-0.5,0.3-0.8,0.4C55.3,84,55,84,54.6,84H53V79.8z M54.6,85.1c0.6,0,1.2-0.1,1.6-0.2
		c0.5-0.2,0.9-0.4,1.2-0.7c0.3-0.3,0.6-0.6,0.7-1c0.2-0.4,0.2-0.8,0.2-1.3c0-0.5-0.1-0.9-0.2-1.3c-0.2-0.4-0.4-0.7-0.7-1
		c-0.3-0.3-0.7-0.5-1.2-0.6c-0.5-0.1-1-0.2-1.7-0.2h-3v10.2H53v-3.8H54.6z"/>
</g>
</svg>
