<?xml version="1.0" encoding="utf-8"?>
<!-- Generator: Adobe Illustrator 26.0.1, SVG Export Plug-In . SVG Version: 6.00 Build 0)  -->
<!DOCTYPE svg PUBLIC "-//W3C//DTD SVG 1.1//EN" "http://www.w3.org/Graphics/SVG/1.1/DTD/svg11.dtd" [
	<!ENTITY ns_extend "http://ns.adobe.com/Extensibility/1.0/">
	<!ENTITY ns_ai "http://ns.adobe.com/AdobeIllustrator/10.0/">
	<!ENTITY ns_graphs "http://ns.adobe.com/Graphs/1.0/">
	<!ENTITY ns_vars "http://ns.adobe.com/Variables/1.0/">
	<!ENTITY ns_imrep "http://ns.adobe.com/ImageReplacement/1.0/">
	<!ENTITY ns_sfw "http://ns.adobe.com/SaveForWeb/1.0/">
	<!ENTITY ns_custom "http://ns.adobe.com/GenericCustomNamespace/1.0/">
	<!ENTITY ns_adobe_xpath "http://ns.adobe.com/XPath/1.0/">
]>
<svg version="1.1" id="Layer_1" xmlns:x="&ns_extend;" xmlns:i="&ns_ai;" xmlns:graph="&ns_graphs;"
	 xmlns="http://www.w3.org/2000/svg" xmlns:xlink="http://www.w3.org/1999/xlink" x="0px" y="0px" viewBox="0 0 200 163.8"
	 style="enable-background:new 0 0 200 163.8;" xml:space="preserve">
<style type="text/css">
	.st0{fill:#808184;}
	.st1{clip-path:url(#SVGID_00000181784762232851397250000014077860376545509822_);}
	.st2{fill:#AC9C63;}
	.st3{fill:#038295;}
	
		.st4{clip-path:url(#SVGID_00000093160273708605888240000005102146585335911858_);fill:url(#SVGID_00000113316014353003863470000013927155308279666083_);}
	
		.st5{clip-path:url(#SVGID_00000146498828220642690230000008353156409480786101_);fill:url(#SVGID_00000036248581806110945460000000758518186126214063_);}
	
		.st6{clip-path:url(#SVGID_00000108301002596539378120000014839554654066095509_);fill:url(#SVGID_00000125590308643991851140000015180252687937996467_);}
	.st7{fill:url(#SVGID_00000137842237527844654140000012572915030612198299_);}
	.st8{fill:url(#SVGID_00000142140841677767212940000018155176810873365665_);}
	.st9{fill:url(#SVGID_00000099645024146325183560000012989371192571445690_);}
	.st10{fill:url(#SVGID_00000142152655306548578300000005879239686643729028_);}
	.st11{fill:url(#SVGID_00000163783171719687571590000018099635693056049590_);}
	.st12{fill:url(#SVGID_00000039133426817233336900000017833211293492809630_);}
	.st13{fill:url(#SVGID_00000046341853885007199390000016140879076662907311_);}
	.st14{fill:url(#SVGID_00000119832037330888071240000009446119116094576027_);}
	.st15{fill:url(#SVGID_00000124855724271510195550000013419176628886791070_);}
	.st16{fill:url(#SVGID_00000145769461428109050880000008352203374891181759_);}
	.st17{fill:url(#SVGID_00000096752897773576158240000013141420258984132495_);}
	.st18{fill:url(#SVGID_00000082363571333336574570000018020390302577860528_);}
	.st19{fill:url(#SVGID_00000043414937605651311760000015586275171583815610_);}
	.st20{fill:url(#SVGID_00000128481013849709155110000013579526817316808587_);}
	.st21{fill:url(#SVGID_00000159454413456671827970000003952127582299567278_);}
	.st22{fill:url(#SVGID_00000178177376013051526800000017714994756792406932_);}
	.st23{fill:url(#SVGID_00000131352580531903602390000000650302802944993716_);}
	.st24{fill:url(#SVGID_00000157278315551446075480000015327861519579478656_);}
	.st25{fill:url(#SVGID_00000068648306946379493850000015355008916805556641_);}
	.st26{fill:url(#SVGID_00000062879084332884655640000017726252749249064875_);}
	.st27{fill:url(#SVGID_00000170249631464720289120000015066233917893325978_);}
	.st28{fill:url(#SVGID_00000016768107647662584840000016389321568226179215_);}
	.st29{fill:url(#SVGID_00000041989356243621696110000000822662515939785882_);}
	.st30{fill:url(#SVGID_00000015334230637405254620000011409277531436622261_);}
	.st31{fill:url(#SVGID_00000093858583797601016850000000120675711065722778_);}
	.st32{fill:url(#SVGID_00000054957021232537712390000001541262818101398166_);}
	.st33{fill:url(#SVGID_00000024003877076382130730000009325788047416361103_);}
	.st34{fill:url(#SVGID_00000134240595117721898150000002731544099566116521_);}
	.st35{fill:url(#SVGID_00000145027524264545864480000009694794117537733029_);}
	.st36{fill:url(#SVGID_00000018930220610078004210000005438266009403605646_);}
	.st37{fill:url(#SVGID_00000085939356998918407470000005920296671747177614_);}
	.st38{fill:url(#SVGID_00000018197074406742710280000017432121870524649635_);}
	.st39{fill:url(#SVGID_00000067225520136561568420000013375232751658884771_);}
	.st40{fill:url(#SVGID_00000162349082565896852390000009867864863455103661_);}
	.st41{fill:url(#SVGID_00000147908510448400464880000009478790901601739700_);}
	.st42{fill:url(#SVGID_00000096766628270940338900000009133195728592584638_);}
	.st43{fill:url(#SVGID_00000152946894374792373590000014431459419618770103_);}
	.st44{fill:url(#SVGID_00000104677607055408156470000000789905879698683311_);}
	.st45{fill:url(#SVGID_00000046337747870335045530000011642648306468628644_);}
	.st46{fill:url(#SVGID_00000052079124681930631840000013876197806519252134_);}
	.st47{fill:url(#SVGID_00000106853650127895693570000014727870954876282245_);}
	.st48{fill:url(#SVGID_00000104691184143928504500000001063293964987418799_);}
	.st49{fill:url(#SVGID_00000085246416477002880910000012896834313229582472_);}
	.st50{fill:url(#SVGID_00000021812804140813385090000004881106816409603509_);}
	.st51{fill:url(#SVGID_00000065032575870454373540000007121772423853429948_);}
	.st52{fill:url(#SVGID_00000055693944466984955120000011122211332909227676_);}
	.st53{fill:url(#SVGID_00000072265291203812177750000007291878676785718957_);}
	.st54{fill:#6AC1D5;}
	.st55{fill:#73BAB2;}
	.st56{fill:url(#SVGID_00000029767908313906745020000012901420288548244917_);}
	.st57{fill:url(#SVGID_00000149343649990596305780000013148879458898337173_);}
	.st58{fill:url(#SVGID_00000106133285153778601610000006733667710047579791_);}
	.st59{fill:url(#SVGID_00000011718793305252758690000016770961035320275351_);}
	.st60{fill:url(#SVGID_00000030474377055505965320000016946757572866090643_);}
	.st61{fill:url(#SVGID_00000058581755143935945800000012733100241777425056_);}
	.st62{fill:url(#SVGID_00000011018922207551596640000016574027265480031377_);}
	.st63{fill:url(#SVGID_00000173843837285386879290000001096539522948167816_);}
	.st64{fill:url(#SVGID_00000040565801913004092050000014369695334709209762_);}
	.st65{fill:url(#SVGID_00000020359095163842280170000017658249431198513831_);}
	.st66{fill:url(#SVGID_00000023983095263203989220000008215649319306832054_);}
	.st67{fill:url(#SVGID_00000082337953424095453820000011365412685493906359_);}
	.st68{fill:url(#SVGID_00000008128159560334164760000012565702709803852940_);}
	.st69{fill:url(#SVGID_00000170278602837469872520000014389931349858559154_);}
	.st70{fill:url(#SVGID_00000096764390859712950840000003580248314186286210_);}
	.st71{fill:url(#SVGID_00000018948237637238418010000014523465840665911961_);}
	.st72{fill:url(#SVGID_00000167382090567904264840000010544513263646596002_);}
	.st73{fill:url(#SVGID_00000012460117339395681870000009599409351608418743_);}
	.st74{fill:url(#SVGID_00000083792847245276454970000017981363229732068000_);}
	.st75{fill:url(#SVGID_00000082352510135223218070000000563394477285105822_);}
	.st76{fill:url(#SVGID_00000068667187659531829210000017373919244828538758_);}
	.st77{fill:url(#SVGID_00000136377062775295474150000004703307971116573368_);}
	.st78{fill:url(#SVGID_00000111904368057185766840000015095527675913517734_);}
	.st79{fill:url(#SVGID_00000115506986250299298980000015583959064656841910_);}
	.st80{fill:url(#SVGID_00000029041576730749859020000009105736591168178600_);}
	.st81{fill:url(#SVGID_00000124883975181230202910000011117555272813816463_);}
	.st82{fill:url(#SVGID_00000133495297188237397550000015061444007875654061_);}
	.st83{fill:url(#SVGID_00000092452131973979363690000008150309106998519730_);}
	.st84{fill:url(#SVGID_00000050658036382865951920000013267888721251493557_);}
	.st85{fill:url(#SVGID_00000024681162454498948430000001962817715223316635_);}
	.st86{fill:url(#SVGID_00000114044516238767808340000010607386642799971206_);}
	.st87{fill:url(#SVGID_00000123428637294313972740000006450739027135203712_);}
	.st88{fill:url(#SVGID_00000074421311217048063010000006312875430561677710_);}
	.st89{fill:url(#SVGID_00000170981851735297794100000006444616753849155239_);}
	.st90{fill:#004F54;}
	.st91{fill-rule:evenodd;clip-rule:evenodd;fill:#065055;}
	.st92{fill:#7A9699;}
	.st93{fill:#87A4AB;}
	
		.st94{clip-path:url(#SVGID_00000089557795350471047560000016542333280163779238_);fill:url(#SVGID_00000022543664045338443060000007659715855168895415_);}
	
		.st95{clip-path:url(#SVGID_00000094615326934011924740000003861936781686902179_);fill:url(#SVGID_00000091715512711698921370000018119306535956190373_);}
	
		.st96{clip-path:url(#SVGID_00000142892289166606582280000004833123511132579465_);fill:url(#SVGID_00000045586321938376455740000003398504517074129555_);}
	
		.st97{clip-path:url(#SVGID_00000108287034625943008340000000903314110416848558_);fill:url(#SVGID_00000163757489408128083210000010240441618276360076_);}
	
		.st98{clip-path:url(#SVGID_00000041297400819134192460000001323950445161404819_);fill:url(#SVGID_00000011712114695134574990000006588969713942419880_);}
	
		.st99{clip-path:url(#SVGID_00000145740938733187681670000009392824478726849443_);fill:url(#SVGID_00000009554448791377115270000015724943492823909794_);}
	
		.st100{clip-path:url(#SVGID_00000030486706014876940170000017584217576368440240_);fill:url(#SVGID_00000160873639334605057650000018242220398453708719_);}
	
		.st101{clip-path:url(#SVGID_00000094609108457017302390000003243273025228815243_);fill:url(#SVGID_00000006670075427093541530000006089435818911636653_);}
	
		.st102{clip-path:url(#SVGID_00000015350784587607978570000014128910862703933867_);fill:url(#SVGID_00000176034317205426251650000007554466562874695827_);}
	
		.st103{clip-path:url(#SVGID_00000026139119174799924560000006375759428806795169_);fill:url(#SVGID_00000061436738625438444870000002945117272808983220_);}
	
		.st104{clip-path:url(#SVGID_00000109743367152775665640000010963466332569419664_);fill:url(#SVGID_00000128446086602471551920000007357620838872935590_);}
	
		.st105{clip-path:url(#SVGID_00000071525614501769009200000012984142674753651085_);fill:url(#SVGID_00000023959659906918034400000006893028248528076989_);}
	
		.st106{clip-path:url(#SVGID_00000063617453049730130410000004346706244269288123_);fill:url(#SVGID_00000000180326865594336860000016564762030633105065_);}
	
		.st107{clip-path:url(#SVGID_00000182500589841162405260000002859777332367270312_);fill:url(#SVGID_00000021097446894174392390000002648458449611567286_);}
	
		.st108{clip-path:url(#SVGID_00000010281390628512702210000016243577319107693242_);fill:url(#SVGID_00000102517378438187105840000012235054591436531603_);}
	
		.st109{clip-path:url(#SVGID_00000145757894073335532710000017040247007010864307_);fill:url(#SVGID_00000009585995458227452230000018363559399920407688_);}
	
		.st110{clip-path:url(#SVGID_00000067214175855820317310000004941799677998534529_);fill:url(#SVGID_00000079481495217093294860000005571946769190267010_);}
	
		.st111{clip-path:url(#SVGID_00000056397560577808697260000012557739033629375147_);fill:url(#SVGID_00000132796671546520108720000016387255330886729376_);}
	
		.st112{clip-path:url(#SVGID_00000011006168595528500080000013442272384849963958_);fill:url(#SVGID_00000016793951896138814820000001760865642475616147_);}
	
		.st113{clip-path:url(#SVGID_00000041979458405945299590000004497330680130090677_);fill:url(#SVGID_00000174593933562405464530000000385410419556394172_);}
	
		.st114{clip-path:url(#SVGID_00000054984640375394780250000003723148007170437048_);fill:url(#SVGID_00000108307302752005832060000016963198775460334010_);}
	
		.st115{clip-path:url(#SVGID_00000151528154874926760540000001004023613135871129_);fill:url(#SVGID_00000035499413661449075990000008159274559989966478_);}
	
		.st116{clip-path:url(#SVGID_00000109008859523770158030000016360550040777860533_);fill:url(#SVGID_00000175291686224974947840000000553391136849519287_);}
	
		.st117{clip-path:url(#SVGID_00000096033844078127960850000002285138879598858663_);fill:url(#SVGID_00000090282913044619972730000008932531708683676345_);}
	
		.st118{clip-path:url(#SVGID_00000101087372105426709310000004097078546650153106_);fill:url(#SVGID_00000032616171993446733260000002251633724446095549_);}
	
		.st119{clip-path:url(#SVGID_00000076570722739338070060000011414820263884829361_);fill:url(#SVGID_00000113338870147612833050000002546634453376303776_);}
	
		.st120{clip-path:url(#SVGID_00000046302049251917877450000017003759554653449143_);fill:url(#SVGID_00000012458819821776121340000017787177701103690419_);}
	.st121{fill:#68934B;}
	.st122{fill:#5F7360;}
	.st123{fill:#7D897A;}
	.st124{fill:#5B8172;}
	.st125{fill:#54665D;}
	.st126{clip-path:url(#SVGID_00000132779995179889870410000000053875930197926019_);fill:#54665D;}
	.st127{fill:#00495C;}
</style>
<metadata>
	<sfw  xmlns="&ns_sfw;">
		<slices></slices>
		<sliceSourceBounds  bottomLeftOrigin="true" height="1021.1" width="4161.2" x="-38.2" y="-866.2"></sliceSourceBounds>
	</sfw>
</metadata>
<g>
	<polygon class="st122" points="8.4,97.9 4,107.9 1.7,107.9 15.3,77.4 15.9,78.6 28.9,107.9 26.6,107.9 22.2,97.9 21.4,96 
		15.3,82.3 9.3,96 	"/>
	<path class="st122" d="M38.6,106.1h7.9c6.8,0,12.7-4.5,12.7-12.7c0-7.5-5.2-12.7-12.9-12.7h-7.8V106.1z M46.3,78.9
		c12,0,15.3,8.1,15.3,14.5c0,6.7-3.8,14.5-15,14.5H36.4V78.9H46.3z"/>
	<path class="st122" d="M72.7,106.1h7.9c6.8,0,12.7-4.5,12.7-12.7c0-7.5-5.2-12.7-12.9-12.7h-7.8V106.1z M80.4,78.9
		c12,0,15.3,8.1,15.3,14.5c0,6.7-3.8,14.5-15,14.5H70.5V78.9H80.4z"/>
	<path class="st122" d="M106.9,92.1h4.7c4.9,0,7.3-2.2,7.3-5.7c0-3.3-2.3-5.7-7.4-5.7h-4.6V92.1z M112,78.9c6.9,0,9.3,3.6,9.3,7.5
		c0,3.4-1.8,5.7-5.4,7.1c1.3,0.7,2.4,2.4,3.8,4.4l6.4,10.1h-2.6l-4.9-8c-3.4-5.5-4.5-6-7.8-6h-3.8v13.9h-2.2V78.9H112z"/>
	<polygon class="st122" points="148.2,80.7 135.1,80.7 135.1,92.1 147.9,92.1 147.9,94 135.1,94 135.1,106.1 148.6,106.1 
		148.6,107.9 132.9,107.9 132.9,78.9 148.2,78.9 	"/>
	<path class="st122" d="M172.8,82.8c-3-1.7-4.6-2.2-6.6-2.2c-3.6,0-6.2,2.4-6.2,5.5c0,7.8,14.1,4,14.1,14.2c0,4.5-3.8,8-8.6,8
		c-2.4,0-5-0.8-7.6-2.6v-2.6c3.3,2.3,5.1,3.1,7.4,3.1c3.5,0,6.2-2.5,6.2-5.8c0-8.3-14.1-4.6-14.1-14.2c0-4.3,3.8-7.7,8.5-7.7
		c2.3,0,4.5,0.6,6.8,1.8V82.8z"/>
	<path class="st122" d="M197.7,82.8c-3-1.7-4.6-2.2-6.6-2.2c-3.5,0-6.2,2.4-6.2,5.5c0,7.8,14.1,4,14.1,14.2c0,4.5-3.8,8-8.6,8
		c-2.4,0-5-0.8-7.6-2.6v-2.6c3.3,2.3,5.2,3.1,7.5,3.1c3.5,0,6.2-2.5,6.2-5.8c0-8.3-14.1-4.6-14.1-14.2c0-4.3,3.8-7.7,8.5-7.7
		c2.3,0,4.6,0.6,6.8,1.8V82.8z"/>
	<path class="st122" d="M107.9,36.4l-7.6-16.9l-7.6,16.9h-2.4l9.9-22l10,22H107.9z M76.2,50.8h48.3V1.7H76.2V50.8z"/>
	<polygon class="st122" points="15.7,148.1 15.7,162.4 12.2,162.4 12.2,156.6 5.2,156.6 5.2,162.4 1.7,162.4 1.7,148.1 5.2,148.1 
		5.2,153.9 12.2,153.9 12.2,148.1 	"/>
	<rect x="28" y="148.2" class="st122" width="3.5" height="14.2"/>
	<polygon class="st122" points="54.4,159.8 54.4,162.4 43.8,162.4 43.8,148.3 47.2,148.3 47.2,159.8 	"/>
	<polygon class="st122" points="77.3,159.8 77.3,162.4 66.7,162.4 66.7,148.3 70.1,148.3 70.1,159.8 	"/>
	<path class="st122" d="M118.9,150.9v3.2h1.8c0.6,0,1-0.1,1.4-0.4c0.3-0.3,0.5-0.7,0.5-1.2c0-1.1-0.7-1.6-2-1.6H118.9z M115.4,148.3
		h6.2c1.4,0,2.4,0.4,3.3,1.2c0.8,0.8,1.3,1.8,1.3,2.9c0,1.6-0.8,2.7-2.4,3.5c0.7,0.3,1.4,1.2,2,2.6c0.6,1.4,1.2,2.8,1.8,4h-3.8
		c-0.2-0.5-0.6-1.4-1.2-2.7c-0.6-1.3-1-2.1-1.4-2.5c-0.4-0.4-0.8-0.6-1.3-0.6h-1v5.7h-3.5V148.3z"/>
	<polygon class="st122" points="139.9,148 139.9,162.1 150.2,162.1 150.2,159.5 143.4,159.5 143.4,156.1 149.7,156.1 149.7,153.5 
		143.4,153.5 143.4,150.6 150,150.6 150,148 	"/>
	<polygon class="st122" points="198.9,148.2 198.9,150.8 193.9,150.8 193.9,162.4 190.4,162.4 190.4,150.8 185.4,150.8 185.4,148.2 
			"/>
	<path class="st122" d="M103.2,158v3.1c-1.7,0.9-3.6,1.4-5.5,1.4c-2.5,0-4.5-0.7-5.9-2.1c-1.5-1.4-2.2-3.1-2.2-5.2
		c0-2.1,0.8-3.8,2.3-5.2c1.5-1.4,3.6-2.1,6.1-2.1c2,0,3.7,0.4,5,1.2v3.2c-1.7-1-3.3-1.5-4.8-1.5c-1.5,0-2.7,0.4-3.6,1.2
		c-0.9,0.8-1.4,1.8-1.4,3.1c0,1.3,0.5,2.3,1.4,3.1c0.9,0.8,2.1,1.2,3.6,1.2c0.7,0,1.4-0.1,2.1-0.3
		C100.8,159.1,101.8,158.7,103.2,158"/>
	<path class="st122" d="M172.5,148.8v2.8c-1.9-0.9-3.3-1.3-4.4-1.3c-0.6,0-1.1,0.1-1.5,0.3c-0.4,0.2-0.6,0.5-0.6,0.9
		c0,0.3,0.1,0.5,0.4,0.8c0.3,0.2,0.9,0.6,1.9,1c1,0.4,1.9,0.7,2.5,1.1c0.6,0.3,1.2,0.8,1.6,1.4c0.4,0.6,0.7,1.4,0.7,2.3
		c0,1.3-0.5,2.4-1.5,3.1c-1,0.8-2.3,1.2-3.9,1.2c-1.7,0-3.4-0.5-5-1.4v-3.1c0.9,0.6,1.8,1.1,2.5,1.4c0.7,0.3,1.5,0.4,2.3,0.4
		c1.4,0,2-0.4,2-1.3c0-0.3-0.1-0.6-0.4-0.8c-0.3-0.3-0.9-0.6-2-1c-1-0.4-1.9-0.7-2.5-1.1c-0.6-0.3-1.1-0.8-1.6-1.4
		c-0.4-0.6-0.7-1.4-0.7-2.3c0-1.2,0.5-2.2,1.4-3c1-0.7,2.3-1.1,3.9-1.1C169.2,147.7,170.8,148.1,172.5,148.8"/>
	<rect x="65.5" y="123.7" class="st122" width="3.5" height="14.2"/>
	<polygon class="st122" points="91.8,135.2 91.8,137.8 81.2,137.8 81.2,123.7 84.7,123.7 84.7,135.2 	"/>
	<polygon class="st122" points="114.9,135.2 114.9,137.8 104.3,137.8 104.3,123.7 107.8,123.7 107.8,135.2 	"/>
	<path class="st122" d="M134,132.6l-2.3-5.5l-2,5.5H134z M133.7,123.7l6.2,14.2h-3.7l-1.1-2.8h-6.2l-1,2.8h-3.7l5.6-14.2H133.7z"/>
	<polygon class="st122" points="55.5,123.7 49.1,137.9 47.6,137.9 41,123.7 44.7,123.7 48.3,131.7 51.8,123.7 	"/>
	<path class="st122" d="M159.1,124.5v2.8c-1.9-0.8-3.3-1.3-4.4-1.3c-0.6,0-1.1,0.1-1.5,0.3c-0.4,0.2-0.6,0.5-0.6,0.8
		c0,0.3,0.1,0.5,0.4,0.8c0.3,0.2,0.9,0.6,1.9,0.9c1,0.4,1.9,0.7,2.5,1.1c0.6,0.3,1.2,0.8,1.6,1.4c0.4,0.6,0.7,1.4,0.7,2.3
		c0,1.3-0.5,2.4-1.5,3.1c-1,0.8-2.3,1.2-3.9,1.2c-1.7,0-3.4-0.5-5-1.4v-3.1c0.9,0.6,1.8,1.1,2.5,1.4c0.7,0.3,1.5,0.4,2.3,0.4
		c1.4,0,2-0.4,2-1.3c0-0.3-0.1-0.6-0.4-0.8c-0.3-0.3-0.9-0.6-2-1c-1-0.4-1.9-0.7-2.5-1.1c-0.6-0.3-1.1-0.8-1.6-1.4
		c-0.4-0.6-0.7-1.4-0.7-2.3c0-1.2,0.5-2.2,1.4-2.9c1-0.7,2.3-1.1,3.9-1.1C155.9,123.4,157.4,123.7,159.1,124.5"/>
</g>
</svg>
