<?xml version="1.0" encoding="utf-8"?>
<!-- Generator: Adobe Illustrator 26.0.1, SVG Export Plug-In . SVG Version: 6.00 Build 0)  -->
<!DOCTYPE svg PUBLIC "-//W3C//DTD SVG 1.1//EN" "http://www.w3.org/Graphics/SVG/1.1/DTD/svg11.dtd" [
	<!ENTITY ns_extend "http://ns.adobe.com/Extensibility/1.0/">
	<!ENTITY ns_ai "http://ns.adobe.com/AdobeIllustrator/10.0/">
	<!ENTITY ns_graphs "http://ns.adobe.com/Graphs/1.0/">
	<!ENTITY ns_vars "http://ns.adobe.com/Variables/1.0/">
	<!ENTITY ns_imrep "http://ns.adobe.com/ImageReplacement/1.0/">
	<!ENTITY ns_sfw "http://ns.adobe.com/SaveForWeb/1.0/">
	<!ENTITY ns_custom "http://ns.adobe.com/GenericCustomNamespace/1.0/">
	<!ENTITY ns_adobe_xpath "http://ns.adobe.com/XPath/1.0/">
]>
<svg version="1.1" id="Layer_1" xmlns:x="&ns_extend;" xmlns:i="&ns_ai;" xmlns:graph="&ns_graphs;"
	 xmlns="http://www.w3.org/2000/svg" xmlns:xlink="http://www.w3.org/1999/xlink" x="0px" y="0px" viewBox="0 0 137.2 70"
	 style="enable-background:new 0 0 137.2 70;" xml:space="preserve">
<style type="text/css">
	.st0{fill:#808184;}
	.st1{clip-path:url(#SVGID_00000118363596602584318010000004958356680446888580_);}
	.st2{fill:#AC9C63;}
	.st3{fill:#038295;}
	
		.st4{clip-path:url(#SVGID_00000163785034497578393750000017562744735506616472_);fill:url(#SVGID_00000069356743068741631350000005369515663082693558_);}
	
		.st5{clip-path:url(#SVGID_00000164486162139720700720000011374893528563180179_);fill:url(#SVGID_00000042712467543006780510000015310540301822582672_);}
	
		.st6{clip-path:url(#SVGID_00000142163766114627865670000009377999175126597550_);fill:url(#SVGID_00000140705905443407223460000007209030690887642274_);}
	.st7{fill:url(#SVGID_00000090280880198814982510000012072269215637496490_);}
	.st8{fill:url(#SVGID_00000121280784805269225790000004134529396066894006_);}
	.st9{fill:url(#SVGID_00000088830195639340016920000014008513071906966406_);}
	.st10{fill:url(#SVGID_00000082356819101576348160000016778079329876112304_);}
	.st11{fill:url(#SVGID_00000075856968764328679010000015678936083246637705_);}
	.st12{fill:url(#SVGID_00000108296900883265923220000017597967254310838156_);}
	.st13{fill:url(#SVGID_00000127023579366239175480000001246188627284285628_);}
	.st14{fill:url(#SVGID_00000168101380196156971510000006292659448569085574_);}
	.st15{fill:url(#SVGID_00000006685286530817484850000018118784619102187191_);}
	.st16{fill:url(#SVGID_00000039848722987561927930000017929981851964075675_);}
	.st17{fill:url(#SVGID_00000096754395019102249580000018417918622810742921_);}
	.st18{fill:url(#SVGID_00000070812249739781995650000000048641254458461084_);}
	.st19{fill:url(#SVGID_00000143616771850446153920000007275729544295123341_);}
	.st20{fill:url(#SVGID_00000046299622294434824580000009364081140663658686_);}
	.st21{fill:url(#SVGID_00000055685197605613099180000013318290239204942507_);}
	.st22{fill:url(#SVGID_00000121244863004942380630000007747062282989404594_);}
	.st23{fill:url(#SVGID_00000079466752761384168550000002981030315502247568_);}
	.st24{fill:url(#SVGID_00000009592378119539040180000005787585495383822523_);}
	.st25{fill:url(#SVGID_00000147934407495802501600000009606870071093098903_);}
	.st26{fill:url(#SVGID_00000042711407055113810680000012076894844501601715_);}
	.st27{fill:url(#SVGID_00000180339253090899528980000006922684844988977320_);}
	.st28{fill:url(#SVGID_00000016786234667292137550000007975165317801658043_);}
	.st29{fill:url(#SVGID_00000026156628793954234770000014830628222064760449_);}
	.st30{fill:url(#SVGID_00000085959421384709257450000006941777171692540054_);}
	.st31{fill:url(#SVGID_00000183216692730954990540000014223968916003997867_);}
	.st32{fill:url(#SVGID_00000082326896775220722930000006483368651752945577_);}
	.st33{fill:url(#SVGID_00000122698893499824462750000009277331323264217766_);}
	.st34{fill:url(#SVGID_00000158740879378550706750000013540555294210049202_);}
	.st35{fill:url(#SVGID_00000048500535905358545310000010537643716083307670_);}
	.st36{fill:url(#SVGID_00000024682967720973634520000008800829171513189045_);}
	.st37{fill:url(#SVGID_00000111150087005864796410000016744230791116451745_);}
	.st38{fill:url(#SVGID_00000168084471308885899490000013927857497033581490_);}
	.st39{fill:url(#SVGID_00000142865899742643648010000006882450293394765756_);}
	.st40{fill:url(#SVGID_00000158017247996341364450000008439312732089293449_);}
	.st41{fill:url(#SVGID_00000139972868826769883860000003145989653909909894_);}
	.st42{fill:url(#SVGID_00000176764766843271160400000016377858120861754257_);}
	.st43{fill:url(#SVGID_00000032635554073369407510000016189883048187720855_);}
	.st44{fill:url(#SVGID_00000123399625049236490390000007844095102170025353_);}
	.st45{fill:url(#SVGID_00000152224951448726001150000016519959234566578864_);}
	.st46{fill:url(#SVGID_00000064322907811431707490000012205817214463771302_);}
	.st47{fill:url(#SVGID_00000142166492185203894350000006088441070038369453_);}
	.st48{fill:url(#SVGID_00000085209099967492258200000002039270339730652294_);}
	.st49{fill:url(#SVGID_00000177483816614980307120000003403867989427226526_);}
	.st50{fill:url(#SVGID_00000124875697598042063080000013265343156423544227_);}
	.st51{fill:url(#SVGID_00000157300467859761625250000010089308880570831786_);}
	.st52{fill:url(#SVGID_00000178923804691642907170000012200893547584374925_);}
	.st53{fill:url(#SVGID_00000059276977542268909060000005325929920811084690_);}
	.st54{fill:#6AC1D5;}
	.st55{fill:#73BAB2;}
	.st56{fill:url(#SVGID_00000167374251901519566840000012760272460137285043_);}
	.st57{fill:url(#SVGID_00000152962413396053408700000007563428069701405614_);}
	.st58{fill:url(#SVGID_00000051362974950392220510000007725812921021262756_);}
	.st59{fill:url(#SVGID_00000095326690749292980450000001099064541600327053_);}
	.st60{fill:url(#SVGID_00000078034217271858913850000017292574771165407389_);}
	.st61{fill:url(#SVGID_00000091000297997380387770000018084669362557453187_);}
	.st62{fill:url(#SVGID_00000101072720594289115180000011688567769745786293_);}
	.st63{fill:url(#SVGID_00000079452951685272751300000011637604150609818296_);}
	.st64{fill:url(#SVGID_00000020366733328657021150000003400617661192474040_);}
	.st65{fill:url(#SVGID_00000104688584723928394780000009353023707225093303_);}
	.st66{fill:url(#SVGID_00000053512892703186700520000014456791585904852126_);}
	.st67{fill:url(#SVGID_00000114039862289530020820000012160672476936631222_);}
	.st68{fill:url(#SVGID_00000168085794742225685800000014338518771370411407_);}
	.st69{fill:url(#SVGID_00000032636326706927814740000009398644862138099127_);}
	.st70{fill:url(#SVGID_00000057138966544226734590000014350043776656306069_);}
	.st71{fill:url(#SVGID_00000092421217301719236870000009938365877756286881_);}
	.st72{fill:url(#SVGID_00000161589918660569820290000002592824254442716341_);}
	.st73{fill:url(#SVGID_00000018953558865669455090000015977737219892235143_);}
	.st74{fill:url(#SVGID_00000083769537019844514270000006993108185422178459_);}
	.st75{fill:url(#SVGID_00000100356969487965041120000014296593801521584536_);}
	.st76{fill:url(#SVGID_00000079477775410499091420000016206538698952833450_);}
	.st77{fill:url(#SVGID_00000018233684682775753160000015770775369113924261_);}
	.st78{fill:url(#SVGID_00000135651902217583475370000009801900300615931067_);}
	.st79{fill:url(#SVGID_00000165913794172605323000000013390176415176003724_);}
	.st80{fill:url(#SVGID_00000003103159422917870300000009934682475994812293_);}
	.st81{fill:url(#SVGID_00000157275777191808473840000005959113091425610657_);}
	.st82{fill:url(#SVGID_00000062904476318453910050000010944282134759859121_);}
	.st83{fill:url(#SVGID_00000109720124910278252690000006598627129878181046_);}
	.st84{fill:url(#SVGID_00000065075918646493362420000010957086946052994473_);}
	.st85{fill:url(#SVGID_00000055687395252712428040000007431575485061661870_);}
	.st86{fill:url(#SVGID_00000049187676354660611840000013736151411184458667_);}
	.st87{fill:url(#SVGID_00000050656993248850649340000011759701877145297541_);}
	.st88{fill:url(#SVGID_00000078730124292243698970000004607953046444127380_);}
	.st89{fill:url(#SVGID_00000155865206337511785890000002048978589913441166_);}
	.st90{fill:#004F54;}
	.st91{fill-rule:evenodd;clip-rule:evenodd;fill:#065055;}
	.st92{fill:#7A9699;}
	.st93{fill:#87A4AB;}
	
		.st94{clip-path:url(#SVGID_00000067206211907982391700000012705072709848295102_);fill:url(#SVGID_00000135671572642759334140000001952572336338941853_);}
	
		.st95{clip-path:url(#SVGID_00000010997045348413382510000006234111769983802549_);fill:url(#SVGID_00000093867030781087746420000016619856164026032001_);}
	
		.st96{clip-path:url(#SVGID_00000055680643944631559310000012481861124956575920_);fill:url(#SVGID_00000067195298512972429800000003646758379732287368_);}
	
		.st97{clip-path:url(#SVGID_00000018223147895588034130000013262040980157205170_);fill:url(#SVGID_00000126300992580599865790000016832736671388534657_);}
	
		.st98{clip-path:url(#SVGID_00000157303052285428625200000003321554796598427041_);fill:url(#SVGID_00000106842571673327812460000009169914241870904204_);}
	
		.st99{clip-path:url(#SVGID_00000084491141580057857270000014377409894077822610_);fill:url(#SVGID_00000008843703381884260020000018251900976690925747_);}
	
		.st100{clip-path:url(#SVGID_00000057849861106611822290000015096314177046784671_);fill:url(#SVGID_00000080904327919569201540000014907744983295353276_);}
	
		.st101{clip-path:url(#SVGID_00000019675804943932078540000001999242346439033770_);fill:url(#SVGID_00000085228227752879864970000011493519757270971835_);}
	
		.st102{clip-path:url(#SVGID_00000170265726807783721470000008871568939414839687_);fill:url(#SVGID_00000034058696356047538850000008507162298014833843_);}
	
		.st103{clip-path:url(#SVGID_00000048498133443281491580000001788150297759067817_);fill:url(#SVGID_00000029012381666258199200000006626805974095049864_);}
	
		.st104{clip-path:url(#SVGID_00000127749427414006604700000008237531375096044703_);fill:url(#SVGID_00000182529627500761151870000008136183820451483809_);}
	
		.st105{clip-path:url(#SVGID_00000061431115764862528590000009622432418190435513_);fill:url(#SVGID_00000029045350502587331280000014050679566194724534_);}
	
		.st106{clip-path:url(#SVGID_00000175280304670163495800000014634937530671443643_);fill:url(#SVGID_00000057861010207594113980000003636754525135153568_);}
	
		.st107{clip-path:url(#SVGID_00000019652606071935424160000015273765912913885100_);fill:url(#SVGID_00000182525524900513767560000005792439354855702160_);}
	
		.st108{clip-path:url(#SVGID_00000125576985955355699340000010797401823223823249_);fill:url(#SVGID_00000015316619673501790920000005894286935153899138_);}
	
		.st109{clip-path:url(#SVGID_00000077309871281520360280000001297211921931760574_);fill:url(#SVGID_00000103959957944539364350000017589756318328689043_);}
	
		.st110{clip-path:url(#SVGID_00000110429418591827741440000001236183438454540692_);fill:url(#SVGID_00000089532292760431560310000010734771899251525302_);}
	
		.st111{clip-path:url(#SVGID_00000158022165121729833790000004575514446735455896_);fill:url(#SVGID_00000143618290267955064110000004367316637387573641_);}
	
		.st112{clip-path:url(#SVGID_00000044175448360929280210000000868155518367466909_);fill:url(#SVGID_00000164506818297372041050000018389939499518220454_);}
	
		.st113{clip-path:url(#SVGID_00000060732876514041260930000011910401116688467628_);fill:url(#SVGID_00000086685289809921815240000011722502109811295650_);}
	
		.st114{clip-path:url(#SVGID_00000041998369153257301070000011331868683587408051_);fill:url(#SVGID_00000046301780543860378980000008209099192013140664_);}
	
		.st115{clip-path:url(#SVGID_00000160181729268221226650000000884185837492803475_);fill:url(#SVGID_00000172404354916861634260000010138603789268773803_);}
	
		.st116{clip-path:url(#SVGID_00000034053869767424826880000011100460332464502401_);fill:url(#SVGID_00000096017944320548654530000011038219074048320696_);}
	
		.st117{clip-path:url(#SVGID_00000161591089133645801390000015251096449237944967_);fill:url(#SVGID_00000070101817391047401070000017767997002011784864_);}
	
		.st118{clip-path:url(#SVGID_00000145777221859681607760000007927371014909233292_);fill:url(#SVGID_00000042017951321220493620000014782067319830549926_);}
	
		.st119{clip-path:url(#SVGID_00000031166509444773284300000016643886101623183499_);fill:url(#SVGID_00000078041888930025790290000001080998121815439495_);}
	
		.st120{clip-path:url(#SVGID_00000058551788769811204020000000808054922255503541_);fill:url(#SVGID_00000146469292229979508810000013426553444333065609_);}
	.st121{fill:#68934B;}
	.st122{fill:#5F7360;}
	.st123{fill:#7D897A;}
	.st124{fill:#5B8172;}
	.st125{fill:#54665D;}
	.st126{clip-path:url(#SVGID_00000055696176729016247830000018191153953775453336_);fill:#54665D;}
	.st127{fill:#00495C;}
	.st128{fill:#587F71;}
</style>
<metadata>
	<sfw  xmlns="&ns_sfw;">
		<slices></slices>
		<sliceSourceBounds  bottomLeftOrigin="true" height="1072.3" width="2566.2" x="-38.2" y="-917.4"></sliceSourceBounds>
	</sfw>
</metadata>
<g>
	<path class="st128" d="M58.6,14.1l0.9,2.5c0.1,0.3,0.3,0.6,0.5,0.7c0.2,0.2,0.7,0.2,1.4,0.2h0.8l-1-3
		C60.3,14.5,59.5,14.3,58.6,14.1"/>
	<path class="st128" d="M41.8,6.9C41.7,7.5,41.4,8,41,8.4C40.6,8.8,40.2,9,39.6,9H36V1h3.4c0.9,0,1.6,0.4,2,1.2
		c0.4,0.7,0.6,1.6,0.6,2.7C42.1,5.6,42,6.3,41.8,6.9 M39.8,0.3h-6.2v16.1c0,0.4,0.1,0.7,0.3,0.8c0.2,0.2,0.5,0.3,0.8,0.3
		c0.3,0,0.6,0.1,1,0.1l0.3,0V9.8h3.9c1.3,0,2.4-0.5,3.3-1.4c0.9-0.9,1.4-2,1.4-3.3c0-1.7-0.5-3-1.5-3.8C42.3,0.6,41.2,0.3,39.8,0.3"
		/>
	<path class="st128" d="M75.6,8.3H72V1h3.4c0.9,0,1.6,0.4,2.2,1.2c0.5,0.7,0.8,1.6,0.8,2.5c0,1.2-0.3,2.1-0.9,2.8
		C77,8.1,76.4,8.3,75.6,8.3 M79.5,11.5c-0.8-1.5-1.7-2.3-2.9-2.4v0c0.4,0,0.9-0.1,1.3-0.3c0.7-0.3,1.4-0.7,1.8-1.3
		c0.6-0.7,0.8-1.7,0.8-2.8c0-0.6-0.1-1.2-0.3-1.7c-0.2-0.5-0.5-0.9-0.8-1.2s-0.7-0.6-1.1-0.8c-0.4-0.2-0.8-0.4-1.3-0.5
		c-0.5-0.1-0.9-0.1-1.3-0.1h-6.2v16.1c0,0.4,0.1,0.7,0.3,0.8c0.3,0.2,0.8,0.3,1.7,0.3l0.3,0V9h1.5c0.7,0,1.4,0.2,1.9,0.7
		c0.8,0.7,1.6,2,2.4,4c0.6,1.4,1.1,2.4,1.6,3c0.5,0.6,1.4,1,2.7,1l0.6,0c-0.6-0.8-1.3-2.1-2.1-3.8C80.3,13,79.9,12.2,79.5,11.5"/>
	<path class="st128" d="M102.9,0.3h-1.1L93.1,9V1.5c0-0.5-0.2-0.8-0.5-1c-0.3-0.2-0.9-0.2-1.7-0.2h-0.3v16.1c0,0.4,0.1,0.7,0.3,0.8
		c0.3,0.2,0.7,0.3,1.4,0.3h0.7v-7.4l1-1l5.1,7.4c0.3,0.3,0.6,0.6,1,0.7c0.4,0.1,0.7,0.2,1.1,0.3c0.4,0,0.8,0,1.1,0l0.4,0L95.9,7.4
		L102.9,0.3z"/>
	<path class="st128" d="M60.6,12.7L57,2c-0.3-0.8-0.7-1.3-1.1-1.5c-0.3-0.2-0.8-0.3-1.4-0.3l-5.3,17.3h0.9l4.6-14.9l3.2,9.3
		c-2.4-0.5-4.7-0.6-6.6,1.8c3.8-3.7,9,2.4,14.4-1.1C64.2,13.5,62.4,13.2,60.6,12.7"/>
	<path class="st128" d="M36.9,44c-0.5,1.6-1.3,2.9-2.4,3.8c-1.2,0.9-2.5,1.3-3.9,1.3c-0.7,0-1.4-0.1-2.1-0.3
		c-0.7-0.2-1.3-0.5-1.9-0.9c-0.6-0.4-1.1-0.9-1.5-1.6c-0.4-0.6-0.8-1.4-1-2.2c-0.3-0.8-0.4-1.7-0.4-2.8c0-1.1,0.1-2.1,0.4-3
		c0.3-0.9,0.6-1.7,1.1-2.4c0.5-0.7,1-1.2,1.6-1.7c0.6-0.5,1.2-0.8,1.9-1c0.7-0.2,1.4-0.3,2.1-0.3c0.7,0,1.4,0.1,2,0.4
		c0.6,0.2,1.2,0.6,1.8,1.1c0.6,0.5,1,1,1.4,1.7c0.4,0.7,0.7,1.4,1,2.3c0.2,0.9,0.3,1.8,0.3,2.8C37.3,42.2,37.1,43.1,36.9,44
		 M35.9,33.9c-1.6-1.1-3.5-1.7-5.5-1.7c-1,0-2,0.1-3,0.4c-1.9,0.6-3.4,1.6-4.6,3.2C21.6,37.4,21,39.1,21,41c0,1,0.2,1.9,0.5,2.7
		c0.7,1.8,1.8,3.2,3.4,4.3c1.6,1.1,3.4,1.7,5.5,1.7c1,0,2-0.1,2.9-0.4c1.9-0.6,3.4-1.6,4.6-3.1c1.2-1.5,1.8-3.2,1.8-5.1
		c0-1-0.2-1.9-0.5-2.7C38.7,36.5,37.5,35.1,35.9,33.9"/>
	<path class="st128" d="M54.7,40.4h-3.6v-7.3h3.4c0.9,0,1.6,0.4,2.2,1.2c0.5,0.7,0.8,1.6,0.8,2.5c0,1.2-0.3,2.1-0.9,2.8
		C56.1,40.1,55.5,40.4,54.7,40.4 M58.6,43.6c-0.8-1.5-1.7-2.3-2.9-2.4v0c0.4,0,0.9-0.1,1.3-0.3c0.7-0.3,1.4-0.7,1.8-1.3
		c0.6-0.7,0.8-1.7,0.8-2.8c0-0.6-0.1-1.2-0.3-1.7c-0.2-0.5-0.5-0.9-0.8-1.2c-0.3-0.3-0.7-0.6-1.1-0.8c-0.4-0.2-0.8-0.4-1.3-0.5
		c-0.5-0.1-0.9-0.1-1.3-0.1h-6.2v16.1c0,0.4,0.1,0.7,0.3,0.8c0.3,0.2,0.8,0.3,1.7,0.3l0.3,0v-8.6h1.5c0.7,0,1.4,0.2,1.9,0.7
		c0.8,0.7,1.6,2,2.4,4c0.6,1.4,1.1,2.4,1.6,3c0.5,0.6,1.4,1,2.7,1l0.6,0c-0.6-0.8-1.3-2.1-2.1-3.8C59.4,45.1,59,44.3,58.6,43.6"/>
	<path class="st128" d="M71.7,32.6c-0.3-0.2-1-0.2-1.9-0.2v16.1c0,0.4,0.1,0.7,0.3,0.8c0.2,0.2,0.5,0.3,0.8,0.3c0.3,0,0.6,0.1,1,0.1
		l0.3,0V33.6C72.2,33.1,72,32.8,71.7,32.6"/>
	<polygon class="st128" points="80.1,32.4 79.7,33.2 88.3,33.3 79.6,49.7 91.1,49.7 91.5,49 82.5,49 91.5,32.4 	"/>
	<path class="st128" d="M112.6,44c-0.5,1.6-1.3,2.9-2.4,3.8c-1.2,0.9-2.5,1.3-3.9,1.3c-0.7,0-1.4-0.1-2.1-0.3
		c-0.7-0.2-1.3-0.5-1.9-0.9c-0.6-0.4-1.1-0.9-1.5-1.6c-0.4-0.6-0.8-1.4-1-2.2c-0.3-0.8-0.4-1.7-0.4-2.8c0-1.1,0.1-2.1,0.4-3
		c0.3-0.9,0.6-1.7,1.1-2.4c0.5-0.7,1-1.2,1.6-1.7c0.6-0.5,1.2-0.8,1.9-1c0.7-0.2,1.4-0.3,2.1-0.3c0.7,0,1.4,0.1,2,0.4
		c0.6,0.2,1.2,0.6,1.8,1.1c0.6,0.5,1,1,1.4,1.7c0.4,0.7,0.7,1.4,1,2.3c0.2,0.9,0.4,1.8,0.4,2.8C113,42.2,112.9,43.1,112.6,44
		 M111.7,33.9c-1.6-1.1-3.5-1.7-5.5-1.7c-1,0-2,0.1-3,0.4c-1.9,0.6-3.4,1.6-4.6,3.2c-1.2,1.5-1.8,3.2-1.8,5.1c0,1,0.2,1.9,0.5,2.7
		c0.7,1.8,1.8,3.2,3.4,4.3c1.6,1.1,3.4,1.7,5.5,1.7c1,0,2-0.1,2.9-0.4c1.9-0.6,3.4-1.6,4.6-3.1c1.2-1.5,1.8-3.2,1.8-5.1
		c0-1-0.2-1.9-0.5-2.7C114.4,36.5,113.3,35.1,111.7,33.9"/>
	<path class="st128" d="M136.2,32.4h-0.8l0,14.9l-7.9-13.8c-0.2-0.3-0.4-0.6-0.7-0.7c-0.3-0.2-0.8-0.3-1.5-0.3h-0.8l0,17.3h0.8V34.3
		l7.9,13.7c0.4,0.7,0.8,1.2,1.4,1.5c0.4,0.2,0.9,0.2,1.6,0.2L136.2,32.4z"/>
	<path class="st128" d="M2.2,32.6c-0.3-0.2-1-0.2-1.9-0.2v16.1c0,0.4,0.1,0.7,0.3,0.8c0.2,0.2,0.5,0.3,0.8,0.3c0.3,0,0.6,0.1,1,0.1
		l0.3,0V33.6C2.7,33.1,2.5,32.8,2.2,32.6"/>
	<path class="st128" d="M10.1,48.5c0,0.4,0.1,0.7,0.3,0.8c0.2,0.2,0.5,0.3,0.8,0.3c0.3,0,0.6,0.1,1,0.1l0.3,0v-6.5
		c-0.8-0.1-1.6-0.3-2.4-0.4V48.5z"/>
	<path class="st128" d="M12.5,41.4v-7.8c0-0.5-0.2-0.8-0.5-1c-0.3-0.2-1-0.2-1.9-0.2v8.4c-2.6-0.6-5.2-0.9-7.2,1.7
		c3.8-3.7,9,2.4,14.4-1.1C15.9,42.1,14.2,41.8,12.5,41.4"/>
	<path class="st128" d="M21.6,69.3c0.7,0,1-0.2,1.3-0.5c0.3-0.3,0.5-0.8,0.5-1.3c0-0.5-0.2-1-0.5-1.3c-0.3-0.3-0.7-0.5-1.3-0.5h-1.3
		v3.6H21.6z M19.8,69.7v-4.4h1.8c0.8,0,1.3,0.2,1.7,0.6c0.4,0.4,0.6,0.9,0.6,1.5c0,0.6-0.2,1.2-0.6,1.6c-0.4,0.4-0.8,0.6-1.7,0.6
		H19.8z"/>
	<path class="st128" d="M30.3,65.4v2.8c0,1.1-0.8,1.7-1.9,1.7c-1.1,0-1.9-0.6-1.9-1.7v-2.8H27v2.8c0,0.8,0.6,1.3,1.4,1.3
		c0.8,0,1.5-0.4,1.5-1.3v-2.8H30.3z"/>
	<path class="st128" d="M33.8,67.7v1.7h2.1c0.3,0,0.6-0.1,0.8-0.3c0.2-0.2,0.3-0.4,0.3-0.6c0-0.2-0.1-0.4-0.2-0.5
		c-0.2-0.2-0.4-0.3-0.6-0.3H33.8z M33.8,65.8v1.5h2.1c0.2,0,0.4-0.1,0.6-0.2c0.1-0.1,0.2-0.3,0.2-0.6c0-0.2-0.1-0.4-0.2-0.5
		c-0.2-0.2-0.4-0.3-0.7-0.3H33.8z M33.3,69.7v-4.4h2.4c0.5,0,0.8,0.1,1.1,0.4c0.2,0.2,0.3,0.4,0.3,0.7c0,0.4-0.3,0.8-0.7,0.9
		c0.5,0.1,0.9,0.6,0.9,1.1c0,0.3-0.1,0.6-0.4,0.9c-0.2,0.2-0.6,0.4-1.1,0.4H33.3z"/>
	<path class="st128" d="M40.8,68h1.9l-0.9-2.1h0L40.8,68z M39.6,69.7l2-4.4H42l2,4.4h-0.5l-0.6-1.4h-2.2L40,69.7H39.6z"/>
	<rect x="46.5" y="65.4" class="st128" width="0.4" height="4.4"/>
	<polygon class="st128" points="52.9,69.7 52.9,65.4 53.4,65.4 53.4,67.2 56.3,67.2 56.3,65.4 56.7,65.4 56.7,69.7 56.3,69.7 
		56.3,67.6 53.4,67.6 53.4,69.7 	"/>
	<rect x="59.8" y="65.4" class="st128" width="0.4" height="4.4"/>
	<polygon class="st128" points="63.8,65.4 63.8,69.3 66.6,69.3 66.6,69.7 63.3,69.7 63.3,65.4 	"/>
	<polygon class="st128" points="69.4,65.4 69.4,69.3 72.2,69.3 72.2,69.7 68.9,69.7 68.9,65.4 	"/>
	<path class="st128" d="M77.6,66.2c-0.3-0.2-0.8-0.6-1.6-0.6c-0.6,0-1.2,0.2-1.2,0.8c0,0.6,0.8,0.7,1.5,0.7c0.7,0,2,0.1,2,1.2
		c0,1-0.9,1.4-1.9,1.4c-1.1,0-1.8-0.5-2.2-0.9l0.3-0.3c0.4,0.4,1,0.8,1.9,0.8c0.8,0,1.5-0.3,1.5-1c0-0.7-0.8-0.8-1.5-0.9
		c-0.9-0.1-2-0.1-2-1.1c0-1,0.9-1.3,1.7-1.3c0.9,0,1.6,0.4,1.9,0.6L77.6,66.2z"/>
	<polygon class="st128" points="86,67.6 84.2,67.6 84.2,69.3 87.3,69.3 87.3,69.7 83.8,69.7 83.8,65.4 87.2,65.4 87.2,65.8 
		84.2,65.8 84.2,67.2 86,67.2 	"/>
	<path class="st128" d="M93,66.2c-0.3-0.2-0.8-0.6-1.6-0.6c-0.6,0-1.2,0.2-1.2,0.8c0,0.6,0.8,0.7,1.5,0.7c0.7,0,2,0.1,2,1.2
		c0,1-0.9,1.4-1.9,1.4c-1.1,0-1.8-0.5-2.2-0.9l0.3-0.3c0.4,0.4,1,0.8,1.9,0.8c0.8,0,1.5-0.3,1.5-1c0-0.7-0.8-0.8-1.5-0.9
		c-0.9-0.1-2-0.1-2-1.1c0-1,0.9-1.3,1.7-1.3c0.9,0,1.6,0.4,1.9,0.6L93,66.2z"/>
	<polygon class="st128" points="95.6,65.4 99.4,65.4 99.4,65.8 97.7,65.8 97.7,69.7 97.3,69.7 97.3,65.8 95.6,65.8 	"/>
	<path class="st128" d="M102.1,68h1.9l-0.9-2.1h0L102.1,68z M100.9,69.7l2-4.4h0.4l2,4.4h-0.5l-0.6-1.4H102l-0.6,1.4H100.9z"/>
	<polygon class="st128" points="106.8,65.4 110.6,65.4 110.6,65.8 108.9,65.8 108.9,69.7 108.5,69.7 108.5,65.8 106.8,65.8 	"/>
	<polygon class="st128" points="115.3,67.6 113.5,67.6 113.5,69.3 116.7,69.3 116.7,69.7 113.1,69.7 113.1,65.4 116.5,65.4 
		116.5,65.8 113.5,65.8 113.5,67.2 115.3,67.2 	"/>
</g>
</svg>
