<?xml version="1.0" encoding="utf-8"?>
<!-- Generator: Adobe Illustrator 26.0.1, SVG Export Plug-In . SVG Version: 6.00 Build 0)  -->
<!DOCTYPE svg PUBLIC "-//W3C//DTD SVG 1.1//EN" "http://www.w3.org/Graphics/SVG/1.1/DTD/svg11.dtd" [
	<!ENTITY ns_extend "http://ns.adobe.com/Extensibility/1.0/">
	<!ENTITY ns_ai "http://ns.adobe.com/AdobeIllustrator/10.0/">
	<!ENTITY ns_graphs "http://ns.adobe.com/Graphs/1.0/">
	<!ENTITY ns_vars "http://ns.adobe.com/Variables/1.0/">
	<!ENTITY ns_imrep "http://ns.adobe.com/ImageReplacement/1.0/">
	<!ENTITY ns_sfw "http://ns.adobe.com/SaveForWeb/1.0/">
	<!ENTITY ns_custom "http://ns.adobe.com/GenericCustomNamespace/1.0/">
	<!ENTITY ns_adobe_xpath "http://ns.adobe.com/XPath/1.0/">
]>
<svg version="1.1" id="Layer_1" xmlns:x="&ns_extend;" xmlns:i="&ns_ai;" xmlns:graph="&ns_graphs;"
	 xmlns="http://www.w3.org/2000/svg" xmlns:xlink="http://www.w3.org/1999/xlink" x="0px" y="0px" viewBox="0 0 200 113.4"
	 style="enable-background:new 0 0 200 113.4;" xml:space="preserve">
<style type="text/css">
	.st0{fill:#080505;}
	.st1{fill:#F8AF41;}
	.st2{fill:#376278;}
	.st3{font-family:'IvyMode-SemiBold';}
	.st4{font-size:41.2622px;}
	.st5{letter-spacing:9;}
	.st6{fill:#FFC663;}
	.st7{fill:#F6CE76;}
	.st8{fill:#0D98BB;}
	.st9{fill:#70B599;}
	.st10{fill:#EAE3AC;}
	.st11{fill:#91060D;}
	.st12{fill:#2D628C;}
	.st13{fill:#012944;}
	.st14{fill:#043754;}
	.st15{fill:#1D324D;}
	.st16{fill:#8C7449;}
	.st17{fill:#003756;}
	.st18{fill:#53B2D3;}
	.st19{fill:#082042;}
	.st20{fill:#055985;}
	.st21{fill:#A08C6A;}
	.st22{clip-path:url(#SVGID_00000065064710737868599190000012197396365958017212_);}
	.st23{filter:url(#Adobe_OpacityMaskFilter);}
	.st24{opacity:0.9;mask:url(#SVGID_00000121266368871209085560000001864269509937649577_);fill:#FFFFFF;}
	.st25{filter:url(#Adobe_OpacityMaskFilter_00000085218291209812842470000001821252930638079140_);}
	.st26{opacity:0.75;mask:url(#SVGID_00000073001357071201496010000017552864787092342187_);}
	.st27{filter:url(#Adobe_OpacityMaskFilter_00000155132565486608646980000008408569678263463298_);}
	.st28{mask:url(#SVGID_00000164491634617902040680000008861048364756805276_);fill:#FFFFFF;}
	.st29{filter:url(#Adobe_OpacityMaskFilter_00000170986542243303422500000008630317496127176096_);}
	.st30{opacity:0.75;mask:url(#SVGID_00000083073200024800485260000015213470041978517438_);}
	.st31{fill:none;stroke:#000000;stroke-width:1.2;}
	.st32{clip-path:url(#SVGID_00000002372010718178791760000003783707552490311831_);}
	.st33{fill:#1E2731;}
	.st34{fill:#777779;}
	
		.st35{clip-path:url(#SVGID_00000073681743623602468660000004642890700244515768_);fill:url(#SVGID_00000041282419865567278720000009270522968705065883_);}
</style>
<metadata>
	<sfw  xmlns="&ns_sfw;">
		<slices></slices>
		<sliceSourceBounds  bottomLeftOrigin="true" height="515.4" width="2527.2" x="1.1" y="-405.1"></sliceSourceBounds>
	</sfw>
</metadata>
<text transform="matrix(1 0 0 1 1.8066 105.3232)" class="st3 st4 st5">V</text>
<text transform="matrix(1 0 0 1 39.6025 105.3232)" class="st3 st4 st5">E</text>
<text transform="matrix(1 0 0 1 73.7656 105.3232)" class="st3 st4 st5">N</text>
<text transform="matrix(1 0 0 1 112.7178 105.3232)" class="st3 st4 st5">I</text>
<text transform="matrix(1 0 0 1 135.7422 105.3232)" class="st3 st4 st5">C</text>
<text transform="matrix(1 0 0 1 175.3096 105.3232)" class="st3 st4">E</text>
<g>
	<path class="st6" d="M109,12.7v-1v-0.5V9.8l2.9,0.8l0.5,0.1l3.5,0.9l0.5,0.1l3.5,0.9l0.5,0.1l3.5,0.9l0.5,0.1l3.5,0.9l0.5,0.1
		l3.5,0.9l0.5,0.1l3.5,0.9l0.5,0.1l3.5,0.9l0.5,0.1l3.5,0.9l0.5,0.1l3.5,0.9l0.5,0.1l3.5,0.9l0.5,0.1l3.5,0.9l0.5,0.1l1.4,0.4
		c0.7,0.2,1.4,0.5,1.9,0.9l0.1,0.1l0.4,0.3l0.3,0.4c0.5,0.6,0.7,1.3,0.7,1.8l0,0.4L109,12.7z M161.1,29.9l-0.5-0.6
		c-0.9-1.2-2.2-1.8-3.7-1.8c-1.5,0-2.8,0.7-3.7,1.9l-0.4,0.5l-0.1-0.6c-0.3-2.3-2.3-4.1-4.6-4.1c-1.5,0-2.8,0.7-3.7,1.9l-0.4,0.5
		l-0.1-0.6c-0.3-2.3-2.3-4-4.6-4c-1.5,0-2.8,0.7-3.7,1.9l-0.4,0.5l-0.1-0.6c-0.3-2.3-2.3-4.1-4.6-4.1c-1.5,0-2.8,0.7-3.7,1.9
		l-0.4,0.5l-0.1-0.6c-0.3-2.3-2.3-4-4.6-4c-1.5,0-2.8,0.7-3.7,1.9l-0.4,0.5l-0.1-0.6c-0.3-2.3-2.3-4.1-4.6-4.1
		c-1.4,0-2.8,0.7-3.7,1.8l-0.5,0.6v-5.2l52.1,13.6V29.9z M158.7,37.4l-3.4-0.9l-2.5-0.6v-4.1l0.1-0.5L153,31c0.5-1.8,2.1-3,4-3
		c1.8,0,3.5,1.2,4,3l0.1,0.3l0,0.5l0,6.3L158.7,37.4z M144,33.6v-4.1l0.1-0.5l0.1-0.3c0.5-1.8,2.1-3,4-3c1.9,0,3.5,1.2,4,3l0.1,0.3
		l0.1,0.5v6.3l-2.4-0.6l-3.4-0.9L144,33.6z M135.3,31.3l0-4.1l0.1-0.5l0.1-0.3c0.5-1.8,2.1-3,4-3s3.5,1.2,4,3l0.1,0.3l0,0.5l0,6.3
		l-2.4-0.6l-3.4-0.9L135.3,31.3z M126.5,29v-4.1l0.1-0.5l0.1-0.3c0.5-1.8,2.1-3,4-3c1.8,0,3.5,1.2,4,3l0.1,0.3l0,0.5l0,6.3l-2.4-0.6
		l-3.4-0.9L126.5,29z M117.7,26.7l0-4.1l0.1-0.5l0.1-0.3c0.5-1.8,2.1-3,4-3s3.5,1.2,4,3l0.1,0.3l0,0.5l0,6.3l-2.4-0.6l-3.4-0.9
		L117.7,26.7z M109,24.4v-4.1l0.1-0.5l0.1-0.3c0.5-1.8,2.1-3,4-3s3.5,1.2,4,3l0.1,0.3l0,0.5l0,6.3l-2.4-0.6l-3.4-0.9L109,24.4z
		 M161.1,41v0.5v2.7v0.5v2.2h-11.3h-0.5h-8.5l-0.1-0.1c-10.5-11.2-25.3-17.6-40.6-17.6S70,35.6,59.6,46.7l-0.1,0.1H51h-0.5H39.2
		v-2.2v-0.5v-2.7V41v-2.4l2.7-0.7c0.1,0,0.1,0,0.1,0L91.3,25l8.8,0l8.8,0l49.3,12.9c0,0,0,0,0.1,0l2.7,0.7L161.1,41L161.1,41z
		 M47.5,35.9L45,36.5l-3.4,0.9l-2.4,0.6l0-6.3l0-0.5l0.1-0.3c0.5-1.8,2.1-3,4-3c1.8,0,3.5,1.2,4,3l0.1,0.3l0.1,0.5L47.5,35.9z
		 M56.3,33.6l-2.5,0.6l-3.4,0.9L48,35.8v-6.3l0.1-0.5l0.1-0.3c0.5-1.8,2.1-3,4-3c1.8,0,3.5,1.2,4,3l0.1,0.3l0.1,0.5L56.3,33.6
		L56.3,33.6z M65,31.3L62.6,32l-3.4,0.9l-2.4,0.6l0-6.3l0-0.5l0.1-0.3c0.5-1.8,2.1-3,4-3s3.5,1.2,4,3l0.1,0.3l0.1,0.5L65,31.3
		L65,31.3z M73.8,29l-2.5,0.6l-3.4,0.9l-2.4,0.6l0-6.3l0-0.5l0.1-0.3c0.5-1.8,2.1-3,4-3c1.8,0,3.5,1.2,4,3l0.1,0.3l0.1,0.5L73.8,29z
		 M82.6,26.7l-2.5,0.6l-3.4,0.9l-2.4,0.6l0-6.3l0-0.5l0.1-0.3c0.5-1.8,2.1-3,4-3c1.8,0,3.5,1.2,4,3l0.1,0.3l0.1,0.5L82.6,26.7
		L82.6,26.7z M91.3,24.4l-2.5,0.6L85.5,26l-2.4,0.6l0-6.3l0-0.5l0.1-0.3c0.5-1.8,2.1-3,4-3c1.9,0,3.5,1.2,4,3l0.1,0.3l0.1,0.5
		L91.3,24.4z M39.2,29.9v-3.1l52.1-13.6v5.2l-0.5-0.6C90,16.6,88.6,16,87.2,16c-2.3,0-4.3,1.8-4.6,4.1l-0.1,0.6l-0.4-0.5
		c-0.9-1.2-2.2-1.9-3.7-1.9c-2.3,0-4.3,1.7-4.6,4l-0.1,0.6l-0.4-0.5c-0.9-1.2-2.2-1.9-3.7-1.9c-2.3,0-4.3,1.7-4.6,4.1L65,25.2
		l-0.4-0.5c-0.9-1.2-2.2-1.9-3.7-1.9c-2.3,0-4.3,1.7-4.6,4l-0.1,0.6L55.9,27c-0.9-1.2-2.2-1.9-3.7-1.9c-2.3,0-4.3,1.8-4.6,4.1
		l-0.1,0.6l-0.4-0.5c-0.9-1.2-2.2-1.9-3.7-1.9c-1.5,0-2.8,0.7-3.7,1.8L39.2,29.9z M39.2,25.9c0.1-0.4,0.2-1.1,0.7-1.8l0.3-0.4
		l0.4-0.3l0.1-0.1c0.5-0.4,1.2-0.7,1.9-0.9l1.4-0.4l0.5-0.1l3.5-0.9l0.5-0.1l3.5-0.9l0.5-0.1l3.5-0.9l0.5-0.1l3.5-0.9l0.5-0.1
		l3.5-0.9l0.5-0.1l3.5-0.9l0.5-0.1l3.5-0.9l0.5-0.1l3.5-0.9l0.5-0.1l3.5-0.9l0.5-0.1l3.5-0.9l0.5-0.1l3.5-0.9l0.5-0.1l2.9-0.8v1.3
		v0.5v1L39.2,26.3L39.2,25.9z M105,12.4v1V14v10.4h-4.8h-4.8V14v-0.5v-1c0-2.5,1.9-4.6,4.3-4.8l0.3,0h0.2h0.2l0.3,0
		C103.1,7.9,105,10,105,12.4 M100.1,3.9l8.8,3.2h-0.5v0.5v0v3.5v0.5v12.7h-1.2h-0.5h-1.3V14.2l0-0.3l0-0.5v-1c0-2.7-2.1-5.1-4.9-5.3
		l-0.2,0h-0.2h-0.2l-0.2,0c-2.7,0.2-4.9,2.6-4.9,5.3v1l0,0.5l0,0.3v10.2h-1.3H93h-1.2V11.7v-0.5V7.6v0V7.1h-0.5L100.1,3.9z
		 M161.6,26.2c0-1-0.5-3.3-3.9-4.2L109,9.3V7.6h1.4c0,0,0.1,0,0.1,0c0,0,0,0,0.1-0.1c0,0,0,0,0-0.1l0-0.1c0,0,0,0,0,0l-0.1-0.2l0,0
		l-10.3-3.8l-0.1,0l-0.1,0L89.8,7.1l0,0l-0.1,0.2c0,0,0,0,0,0l0,0.1c0,0,0,0.1,0.1,0.1c0,0,0.1,0,0.1,0.1c0.1,0,0.1,0,0.1,0h1.4v1.7
		L42.7,22c-3.4,0.9-3.9,3.3-3.9,4.2l0,0.2v0.5V33c0,0,0,0,0,0v5.1v0.5v2.4v0.5v2.5v0.5v2.2v0.5h0.5h20.3c0.2,0,0.5-0.3,0.5-0.3
		l0.2-0.2c10.2-10.8,24.6-17.1,39.5-17.2l0.3,0h0.2h0.2l0.3,0c14.9,0.1,29.3,6.4,39.5,17.2l0.2,0.2c0,0,0.3,0.3,0.5,0.3h20.3h0.5
		v-0.5v-2.2v-0.5v-2.5v-0.5v-2.4v-0.5l0-5.1c0,0,0,0,0,0V27v-0.5V26.2z"/>
	<g>
		<path class="st7" d="M161.8,47.6h-21c-0.2,0-0.5-0.2-0.6-0.3L140,47c-10.2-10.8-24.5-17-39.3-17.1l-0.7,0l-0.3,0
			C84.8,30,70.5,36.3,60.3,47l-0.2,0.2c-0.1,0.1-0.4,0.3-0.6,0.3h-21V33.1h0.2v0l-0.2,0l0-6.8c0-1,0.5-3.5,4.1-4.5L91.1,9.1V7.8
			h-1.1c-0.1,0-0.1,0-0.2-0.1c-0.1,0-0.1-0.1-0.1-0.1l0,0c0,0-0.1-0.1-0.1-0.1l0,0l0-0.1l0-0.1l0-0.1L89.5,7l0.2-0.1L100,3.1l0.1,0
			l0.2,0l10.3,3.8l0.1,0.1l0.1,0.3l-0.1,0.2c0,0-0.1,0.1-0.1,0.1l0,0c0,0-0.1,0.1-0.1,0.1c-0.1,0-0.1,0.1-0.2,0.1h-1.2v1.3
			l48.5,12.7c3.6,0.9,4.1,3.4,4.1,4.5l0,0.2V33l-0.2,0v0.2c0.2,0,0.2-0.1,0.2-0.2L161.8,47.6L161.8,47.6z M140.8,47.1
			C140.8,47.1,140.8,47.1,140.8,47.1l20.6,0v-14c0,0,0,0,0-0.1v-6.4l-52.6-13.8V9.5l48.8,12.8c0.8,0.2,1.5,0.5,2,0.9l0.4,0.3
			c-0.5-0.5-1.3-0.9-2.4-1.2L108.7,9.5V7.4h1.6c0,0,0,0,0,0l0,0l-10.2-3.7l0,0l0,0L89.9,7.3c0,0,0,0,0,0h1.6v2.1L42.7,22.2
			c-1.1,0.3-1.8,0.7-2.4,1.2l0.4-0.3c0.6-0.4,1.2-0.7,2-0.9L91.6,9.5v3.4L39,26.6V33c0,0,0,0,0,0.1l0,0v14h20.5c0,0,0,0,0,0H39v-8.7
			l2.9-0.7c0,0,0.1,0,0.1,0l0,0h0l49.3-12.9l17.8,0l49.3,12.9l0,0c0,0,0,0,0,0l0,0l2.8,0.7v8.7L140.8,47.1L140.8,47.1z M99.9,29.4
			l0.8,0c14.9,0.1,29.4,6.4,39.7,17.3l0.2,0.2c0,0,0.1,0.1,0.1,0.1l-0.1-0.1c-10.4-11.1-25.2-17.5-40.4-17.5s-30,6.4-40.4,17.5
			L59.7,47c0,0,0.1-0.1,0.1-0.1l0.2-0.2c10.3-10.9,24.7-17.2,39.7-17.3L99.9,29.4z M140.9,46.6h19.9v-7.8l-2.5-0.6
			c-0.1,0-0.1,0-0.1,0l-49.3-12.9l-8.8,0l-8.8,0L42.1,38.1c0,0-0.1,0-0.1,0l-2.5,0.6v7.8l19.9,0c10.5-11.2,25.4-17.7,40.8-17.7l0,0
			C115.5,28.9,130.4,35.4,140.9,46.6L140.9,46.6z M38.7,33.1l-0.2,0c0,0.1,0.1,0.2,0.2,0.2V33.1z M39.1,25.6c0,0.2-0.1,0.4-0.1,0.5
			l0-0.3C39,25.8,39,25.7,39.1,25.6z M161.3,25.6c0,0.1,0,0.2,0,0.3l0,0.3C161.3,26,161.3,25.8,161.3,25.6z M40.5,24l-0.3,0.4
			c-0.5,0.6-0.6,1.2-0.7,1.6l0,0l51.6-13.5v-2.4L42.8,22.7c-0.7,0.2-1.3,0.5-1.9,0.8l-0.1,0.1L40.5,24z M109.2,12.5L160.8,26l0,0
			c0-0.4-0.2-1-0.7-1.6l-0.3-0.4l-0.5-0.4c-0.5-0.4-1.1-0.6-1.9-0.8l-48.2-12.6V12.5z M160.4,23.9l0.1,0.1c0,0,0.1,0.1,0.1,0.1
			C160.5,24.1,160.5,24,160.4,23.9z M39.9,23.9c0,0.1-0.1,0.1-0.1,0.2C39.7,24.1,39.8,24.1,39.9,23.9L39.9,23.9z M161.3,38.4
			l-8.7-2.3l0-4.3l0.1-0.5l0.1-0.3c0.5-1.9,2.2-3.2,4.2-3.2c2,0,3.7,1.3,4.2,3.2l0.1,0.4l0,0.5L161.3,38.4z M153,35.7l7.8,2l0-6
			l0-0.5l-0.1-0.3c-0.5-1.7-2-2.9-3.7-2.9c-1.7,0-3.3,1.2-3.7,2.9l-0.1,0.3l-0.1,0.5C153,31.8,153,35.7,153,35.7z M39,38.4l0-6.6
			l0.1-0.6l0.1-0.3c0.5-1.9,2.3-3.2,4.2-3.2s3.7,1.3,4.2,3.2l0.1,0.4l0.1,0.5v4.3L39,38.4z M39.5,31.3l0,0.5l0,5.9l7.8-2v-3.9
			l-0.1-0.5L47.1,31c-0.5-1.7-2-2.9-3.7-2.9s-3.3,1.2-3.7,2.9L39.5,31.3z M152.5,36.1l-8.7-2.3v-4.3l0.1-0.5l0.1-0.3
			c0.5-1.9,2.3-3.2,4.2-3.2s3.7,1.3,4.2,3.2l0.1,0.4l0.1,0.6L152.5,36.1L152.5,36.1z M144.3,33.4l7.8,2v-5.9L152,29l-0.1-0.3
			c-0.5-1.7-2-2.9-3.7-2.9c-1.7,0-3.3,1.2-3.7,2.9l-0.1,0.3l-0.1,0.5V33.4z M47.8,36.1l0-6.6l0.1-0.6l0.1-0.3
			c0.5-1.9,2.3-3.2,4.2-3.2s3.7,1.3,4.2,3.2l0.1,0.4l0.1,0.5v4.3L47.8,36.1z M48.2,29.5v5.9l7.8-2v-3.9L56,29l-0.1-0.3
			c-0.5-1.7-2-2.9-3.7-2.9c-1.7,0-3.3,1.2-3.7,2.9L48.3,29L48.2,29.5z M56.5,33.8l0-6.6l0.1-0.6l0.1-0.3c0.5-1.9,2.3-3.2,4.2-3.2
			l0,0c2,0,3.7,1.3,4.2,3.2l0.1,0.4l0.1,0.5v4.3L56.5,33.8z M57.1,26.7l0,0.5l0,5.9l7.8-2v-3.9l-0.1-0.5l-0.1-0.3
			c-0.5-1.7-2-2.9-3.7-2.9c-1.7,0-3.3,1.2-3.7,2.9L57.1,26.7z M143.8,33.8l-8.7-2.3v-4.3l0.1-0.5l0.1-0.3c0.5-1.9,2.3-3.2,4.2-3.2
			c2,0,3.7,1.3,4.2,3.2l0.1,0.4l0,0.5L143.8,33.8z M135.5,31.1l7.8,2l0-6l0-0.5l-0.1-0.3c-0.5-1.7-2-2.9-3.7-2.9
			c-1.7,0-3.3,1.2-3.7,2.9l-0.1,0.3l-0.1,0.5L135.5,31.1L135.5,31.1z M135,31.5l-8.7-2.3l0-4.3l0.1-0.5l0.1-0.3
			c0.5-1.9,2.3-3.2,4.2-3.2s3.7,1.3,4.2,3.2l0.1,0.4l0,0.5L135,31.5z M126.7,28.8l7.8,2l0-5.9l0-0.5l-0.1-0.3
			c-0.5-1.7-2-2.9-3.7-2.9c-1.7,0-3.3,1.2-3.7,2.9l-0.1,0.3l-0.1,0.5L126.7,28.8z M65.3,31.5l0-6.6l0.1-0.6l0.1-0.3
			c0.5-1.9,2.3-3.2,4.2-3.2s3.7,1.3,4.2,3.2l0.1,0.4l0.1,0.5v4.3L65.3,31.5z M65.8,24.5l0,0.5l0,5.9l7.8-2v-3.9l-0.1-0.5l-0.1-0.3
			c-0.5-1.7-2-2.9-3.7-2.9c-1.7,0-3.3,1.2-3.7,2.9L65.8,24.5z M161.3,30.6l-0.9-1.2c-0.8-1.1-2.1-1.7-3.5-1.7
			c-1.4,0-2.7,0.7-3.5,1.8l-0.7,1l-0.2-1.2c-0.3-2.2-2.1-3.9-4.4-3.9c-1.4,0-2.7,0.7-3.5,1.8l-0.7,1l-0.2-1.2
			c-0.3-2.2-2.1-3.8-4.3-3.8c-1.4,0-2.7,0.7-3.5,1.8l-0.7,1l-0.2-1.2c-0.3-2.2-2.1-3.8-4.3-3.8c-1.4,0-2.7,0.7-3.5,1.8l-0.7,1
			l-0.2-1.2c-0.3-2.2-2.1-3.8-4.3-3.8c-1.4,0-2.7,0.7-3.5,1.8l-0.7,1l-0.2-1.2c-0.3-2.2-2.1-3.9-4.4-3.9c-1.4,0-2.6,0.6-3.5,1.7
			l-0.9,1.2v-6.2l52.6,13.8V30.6z M148.2,24.9c2.5,0,4.5,1.8,4.8,4.3l0,0l0,0c0.9-1.3,2.4-2,3.9-2c1.5,0,2.9,0.7,3.9,1.9l0,0V27
			l-51.6-13.5v4.2l0,0c0.9-1.2,2.3-1.9,3.9-1.9c2.5,0,4.5,1.8,4.8,4.3l0,0l0,0c0.9-1.3,2.4-2,3.9-2c2.4,0,4.5,1.8,4.8,4.3l0,0l0,0
			c0.9-1.3,2.4-2,3.9-2c2.4,0,4.5,1.8,4.8,4.3v0l0,0c0.9-1.3,2.4-2,3.9-2c2.4,0,4.5,1.8,4.8,4.3l0,0l0,0
			C145.2,25.6,146.6,24.9,148.2,24.9z M39,30.6v-4l52.6-13.8v6.2l-0.9-1.2c-0.8-1.1-2.1-1.7-3.5-1.7c-2.2,0-4.1,1.7-4.4,3.9
			l-0.1,1.2l-0.7-1c-0.8-1.1-2.1-1.8-3.5-1.8c-2.2,0-4.1,1.6-4.4,3.8l-0.2,1.2l-0.7-1c-0.8-1.1-2.1-1.8-3.5-1.8
			c-2.2,0-4.1,1.7-4.4,3.8l-0.2,1.2l-0.7-1c-0.8-1.1-2.1-1.8-3.5-1.8c-2.2,0-4.1,1.7-4.4,3.8l-0.2,1.2l-0.7-1
			c-0.8-1.1-2.1-1.8-3.5-1.8c-2.2,0-4.1,1.7-4.4,3.9l-0.2,1.2l-0.7-1c-0.8-1.1-2.1-1.8-3.5-1.8c-1.4,0-2.7,0.6-3.5,1.7L39,30.6z
			 M43.4,27.2c1.6,0,3,0.7,3.9,2l0,0l0,0c0.3-2.4,2.4-4.3,4.8-4.3c1.6,0,3,0.7,3.9,2l0,0l0,0c0.3-2.4,2.4-4.3,4.8-4.3
			c1.6,0,3,0.7,3.9,2l0,0v0c0.3-2.4,2.4-4.3,4.8-4.3c1.6,0,3,0.7,3.9,2l0,0l0,0c0.3-2.4,2.4-4.3,4.8-4.3c1.6,0,3,0.7,3.9,2l0,0v0
			c0.3-2.4,2.4-4.3,4.8-4.3c1.5,0,2.9,0.7,3.9,1.9l0,0v-4.1L39.5,27v2.1l0,0C40.4,27.9,41.8,27.2,43.4,27.2z M126.2,29.2l-8.7-2.3
			l0-4.3l0.1-0.5l0.1-0.3c0.5-1.9,2.3-3.2,4.2-3.2c2,0,3.7,1.3,4.2,3.2l0.1,0.4l0,0.5L126.2,29.2z M118,26.5l7.8,2l0-5.9l0-0.5
			l-0.1-0.3c-0.5-1.7-2-2.9-3.7-2.9c-1.7,0-3.3,1.2-3.7,2.9l-0.1,0.3l-0.1,0.5V26.5z M74,29.2l0-6.6l0.1-0.6l0.1-0.3
			c0.5-1.9,2.3-3.2,4.2-3.2c2,0,3.7,1.3,4.2,3.2l0.1,0.4l0.1,0.5v4.3L74,29.2z M74.6,22.2l0,0.5l0,5.9l7.8-2v-3.9l-0.1-0.5l-0.1-0.3
			c-0.5-1.7-2-2.9-3.7-2.9c-1.7,0-3.3,1.2-3.7,2.9L74.6,22.2z M117.5,26.9l-8.7-2.3l0-4.3l0.1-0.5l0.1-0.3c0.5-1.9,2.3-3.2,4.2-3.2
			s3.7,1.3,4.2,3.2l0.1,0.4l0,0.5L117.5,26.9z M109.2,24.3l7.8,2l0-6l0-0.5l-0.1-0.3c-0.5-1.7-2-2.9-3.7-2.9c-1.7,0-3.3,1.2-3.7,2.9
			l-0.1,0.3l-0.1,0.5L109.2,24.3z M82.8,26.9l0-6.6l0.1-0.6l0.1-0.3c0.5-1.9,2.3-3.2,4.2-3.2c2,0,3.7,1.3,4.2,3.2l0.1,0.4l0.1,0.5
			v4.3L82.8,26.9z M83.4,19.9l0,0.5l0,5.9l7.8-2v-3.9L91,19.9l-0.1-0.3c-0.5-1.7-2-2.9-3.7-2.9c-1.7,0-3.3,1.2-3.7,2.9L83.4,19.9z
			 M108.7,24.6h-3.5V12.4c0-2.6-2-4.9-4.7-5.1l-0.2,0h-0.5l-0.2,0C97.1,7.6,95,9.8,95,12.4v12.2h-3.5V7.3H90l10.2-3.7l10.2,3.7h-1.6
			L108.7,24.6L108.7,24.6z M105.7,24.1h2.5V7.1l-8.1-3l-8.1,3v17.1h2.5v-9.9l0-0.2l0-0.5v-1c0-2.9,2.2-5.3,5.1-5.6l0.3,0h0.5l0.3,0
			c2.9,0.3,5.1,2.7,5.1,5.6L105.7,24.1L105.7,24.1z M105.2,24.6H95.1V12.4c0-2.6,2-4.8,4.5-5.1l0.3,0h0.5l0.3,0
			c2.6,0.3,4.5,2.5,4.5,5.1V24.6z M95.5,24.1h9.2V12.4c0-2.4-1.8-4.3-4.1-4.6l-0.3,0h-0.5l-0.3,0c-2.3,0.3-4.1,2.2-4.1,4.6
			C95.5,12.4,95.5,24.1,95.5,24.1z"/>
	</g>
	<g>
		<rect x="85.2" y="54.9" class="st7" width="29.3" height="1"/>
	</g>
	<g>
		<rect x="80.6" y="52.1" class="st7" width="38.5" height="1"/>
	</g>
	<g>
		<rect x="74.6" y="49.4" class="st7" width="50.7" height="1"/>
	</g>
	<g>
		<rect x="66.8" y="46.6" class="st7" width="66.7" height="1"/>
	</g>
</g>
</svg>
