<?xml version="1.0" encoding="utf-8"?>
<!-- Generator: Adobe Illustrator 16.0.0, SVG Export Plug-In . SVG Version: 6.00 Build 0)  -->
<!DOCTYPE svg PUBLIC "-//W3C//DTD SVG 1.1//EN" "http://www.w3.org/Graphics/SVG/1.1/DTD/svg11.dtd">
<svg version="1.1" id="Layer_1" xmlns="http://www.w3.org/2000/svg" xmlns:xlink="http://www.w3.org/1999/xlink" x="0px" y="0px"
	 width="200px" height="70px" viewBox="0 0 200 70" enable-background="new 0 0 200 70" xml:space="preserve">
<g>
	<path d="M156.42,27.505l3.968-12.352c0.337-1.052,0.55-2.11,0.637-3.178h0.203c0.118,1.271,0.321,2.363,0.608,3.278l3.914,12.251
		 M166.209,5.469h-9.736l-13.267,36.447h8.896l2.566-8.108h12.96l2.597,8.108h8.945L166.209,5.469z M138.785,5.469h-8.235v14.539
		h-15.097V5.469h-8.21v36.447h8.21V27.072h15.097v14.844h8.235V5.469z M79.947,27.505l3.968-12.352
		c0.336-1.052,0.549-2.11,0.632-3.178h0.205c0.116,1.271,0.319,2.363,0.606,3.278l3.916,12.251H79.947z M89.732,5.469H80
		L66.732,41.916h8.897l2.567-8.108h12.962l2.59,8.108h8.948L89.732,5.469z M62.361,5.469H50.645l-7.448,21.552
		c-0.509,1.493-0.992,3.247-1.448,5.262h-0.154c-0.269-1.744-0.7-3.483-1.295-5.211L32.855,5.469H20.83v36.447h7.399V21.761
		c0-2.711-0.111-5.861-0.333-9.454h0.229c0.528,2.729,0.906,4.421,1.146,5.083l8.69,24.526h6.711l8.541-24.781
		c0.337-0.982,0.719-2.593,1.142-4.828h0.202c-0.202,2.847-0.303,5.447-0.303,7.801v21.808h8.107V5.469z"/>
	<path d="M155.979,64.085c0.297,0.098,0.607,0.178,0.935,0.244c0.33,0.065,0.651,0.115,0.967,0.15
		c0.316,0.034,0.583,0.052,0.797,0.052c0.645,0,1.258-0.064,1.842-0.192c0.581-0.129,1.093-0.336,1.539-0.624
		c0.443-0.286,0.801-0.66,1.061-1.119c0.263-0.46,0.394-1.021,0.394-1.684c0-0.499-0.095-0.944-0.287-1.331
		c-0.194-0.386-0.453-0.74-0.782-1.06c-0.33-0.318-0.711-0.608-1.15-0.872c-0.434-0.262-0.896-0.512-1.383-0.75
		c-0.474-0.229-0.893-0.443-1.254-0.637c-0.363-0.193-0.674-0.395-0.926-0.601c-0.254-0.206-0.444-0.435-0.575-0.684
		c-0.127-0.251-0.194-0.547-0.194-0.891c0-0.369,0.085-0.682,0.258-0.938c0.172-0.256,0.392-0.466,0.662-0.629
		c0.274-0.162,0.583-0.279,0.932-0.352c0.35-0.072,0.691-0.107,1.041-0.107c1.258,0,2.289,0.275,3.091,0.825v-1.772
		c-0.609-0.319-1.59-0.478-2.931-0.478c-0.588,0-1.163,0.073-1.729,0.215c-0.564,0.145-1.069,0.363-1.512,0.656
		c-0.445,0.295-0.801,0.668-1.073,1.122c-0.269,0.453-0.408,0.984-0.408,1.597c0,0.5,0.091,0.936,0.262,1.308
		c0.176,0.372,0.412,0.706,0.715,0.999c0.307,0.295,0.662,0.563,1.074,0.807s0.854,0.484,1.325,0.721
		c0.452,0.226,0.867,0.44,1.256,0.643c0.392,0.204,0.728,0.416,1.013,0.639c0.283,0.22,0.508,0.467,0.67,0.735
		c0.161,0.27,0.239,0.584,0.239,0.946c0,0.676-0.239,1.191-0.726,1.551c-0.483,0.361-1.213,0.541-2.194,0.541
		c-0.285,0-0.594-0.03-0.928-0.085c-0.336-0.056-0.67-0.137-1.002-0.239c-0.33-0.104-0.649-0.229-0.947-0.379
		c-0.301-0.151-0.559-0.319-0.776-0.507v1.855C155.451,63.882,155.688,63.989,155.979,64.085 M153.293,62.882h-5.615v-4.707h4.915
		V56.76h-4.915v-4.472h5.311v-1.425h-6.905v13.442h7.21V62.882z M135.84,64.085c0.292,0.098,0.603,0.178,0.931,0.244
		c0.332,0.065,0.651,0.115,0.97,0.15c0.315,0.034,0.58,0.052,0.793,0.052c0.649,0,1.263-0.064,1.844-0.192
		c0.579-0.129,1.096-0.336,1.539-0.624c0.448-0.286,0.804-0.66,1.063-1.119c0.265-0.46,0.394-1.021,0.394-1.684
		c0-0.499-0.098-0.944-0.288-1.331c-0.194-0.386-0.456-0.74-0.786-1.06c-0.327-0.318-0.71-0.608-1.144-0.872
		c-0.438-0.262-0.898-0.512-1.387-0.75c-0.474-0.229-0.895-0.443-1.256-0.637c-0.364-0.193-0.671-0.395-0.927-0.601
		c-0.253-0.206-0.441-0.435-0.572-0.684c-0.129-0.251-0.192-0.547-0.192-0.891c0-0.369,0.084-0.682,0.253-0.938
		c0.172-0.256,0.394-0.466,0.666-0.629c0.271-0.162,0.58-0.279,0.929-0.352s0.695-0.107,1.044-0.107
		c1.258,0,2.288,0.275,3.092,0.825v-1.772c-0.613-0.319-1.591-0.478-2.931-0.478c-0.588,0-1.165,0.073-1.733,0.215
		c-0.564,0.145-1.07,0.363-1.512,0.656c-0.442,0.295-0.802,0.668-1.07,1.122c-0.272,0.453-0.408,0.984-0.408,1.597
		c0,0.5,0.087,0.936,0.263,1.308c0.171,0.372,0.412,0.706,0.715,0.999c0.302,0.295,0.663,0.563,1.069,0.807
		c0.412,0.244,0.854,0.484,1.33,0.721c0.448,0.226,0.869,0.44,1.258,0.643c0.389,0.204,0.721,0.416,1.011,0.639
		c0.279,0.22,0.505,0.467,0.666,0.735c0.16,0.27,0.243,0.584,0.243,0.946c0,0.676-0.243,1.191-0.728,1.551
		c-0.482,0.361-1.216,0.541-2.196,0.541c-0.283,0-0.595-0.03-0.929-0.085c-0.332-0.056-0.666-0.137-0.998-0.239
		c-0.334-0.104-0.648-0.229-0.951-0.379c-0.3-0.151-0.558-0.319-0.771-0.507v1.855C135.308,63.882,135.544,63.989,135.84,64.085
		 M132.373,50.863h-1.595v8.258c0,2.664-1.133,3.995-3.405,3.995c-2.352,0-3.524-1.38-3.524-4.135v-8.118h-1.597v8.222
		c0,3.63,1.651,5.446,4.954,5.446c3.441,0,5.167-1.888,5.167-5.663V50.863z M116.829,53.514c0.835,0.972,1.249,2.343,1.249,4.117
		c0,1.731-0.429,3.079-1.285,4.04c-0.862,0.964-2.038,1.445-3.53,1.445c-1.396,0-2.531-0.506-3.4-1.516
		c-0.87-1.008-1.304-2.342-1.304-3.996c0-1.658,0.448-2.995,1.34-4.015c0.891-1.019,2.049-1.527,3.48-1.527
		C114.842,52.063,115.994,52.547,116.829,53.514 M117.985,62.619c1.176-1.276,1.764-3.01,1.764-5.204
		c0-2.019-0.573-3.653-1.722-4.904c-1.146-1.249-2.657-1.873-4.536-1.873c-2.036,0-3.646,0.643-4.829,1.932
		c-1.178,1.286-1.774,3.013-1.774,5.176c0,2.011,0.582,3.646,1.744,4.901c1.157,1.258,2.704,1.885,4.631,1.885
		C115.235,64.531,116.81,63.894,117.985,62.619 M104.216,50.863h-1.594v5.896h-7.037v-5.896h-1.59v13.442h1.59v-6.131h7.037v6.131
		h1.594V50.863z M90.427,50.863h-1.594v9.467c0,0.932,0.034,1.591,0.097,1.979h-0.042c-0.078-0.163-0.262-0.462-0.546-0.9
		l-6.812-10.546h-2.065v13.442h1.595v-9.712c0-0.943-0.027-1.561-0.079-1.847h0.06c0.111,0.294,0.258,0.574,0.433,0.843l7,10.716
		h1.952V50.863z M75.719,50.863l-2.777,10.349c-0.146,0.538-0.232,0.97-0.259,1.294h-0.037c-0.048-0.481-0.124-0.899-0.224-1.256
		l-2.886-10.387h-1.527l-3.005,10.311c-0.165,0.568-0.262,1.02-0.296,1.351h-0.044c-0.034-0.469-0.109-0.918-0.229-1.351
		l-2.894-10.311h-1.752l3.983,13.442h1.85l2.814-9.845c0.127-0.437,0.209-0.887,0.247-1.349h0.037
		c0.026,0.493,0.098,0.95,0.221,1.369l2.796,9.824h1.868l3.84-13.442H75.719z M56.203,53.514c0.835,0.972,1.25,2.343,1.25,4.117
		c0,1.731-0.431,3.079-1.288,4.04c-0.861,0.964-2.035,1.445-3.529,1.445c-1.396,0-2.53-0.506-3.399-1.516
		c-0.872-1.008-1.307-2.342-1.307-3.996c0-1.658,0.449-2.995,1.34-4.015c0.892-1.019,2.051-1.527,3.48-1.527
		C54.216,52.063,55.369,52.547,56.203,53.514 M57.359,62.619c1.176-1.276,1.764-3.01,1.764-5.204c0-2.019-0.574-3.653-1.722-4.904
		c-1.146-1.249-2.658-1.873-4.537-1.873c-2.036,0-3.646,0.643-4.829,1.932c-1.179,1.286-1.774,3.013-1.774,5.176
		c0,2.011,0.58,3.646,1.744,4.901c1.156,1.258,2.703,1.885,4.631,1.885C54.609,64.531,56.186,63.894,57.359,62.619 M45.922,50.863
		h-9.436v1.425h3.919v12.018h1.591V52.288h3.926V50.863z"/>
</g>
</svg>
