<?xml version="1.0" encoding="utf-8"?>
<!-- Generator: Adobe Illustrator 26.0.1, SVG Export Plug-In . SVG Version: 6.00 Build 0)  -->
<!DOCTYPE svg PUBLIC "-//W3C//DTD SVG 1.1//EN" "http://www.w3.org/Graphics/SVG/1.1/DTD/svg11.dtd" [
	<!ENTITY ns_extend "http://ns.adobe.com/Extensibility/1.0/">
	<!ENTITY ns_ai "http://ns.adobe.com/AdobeIllustrator/10.0/">
	<!ENTITY ns_graphs "http://ns.adobe.com/Graphs/1.0/">
	<!ENTITY ns_vars "http://ns.adobe.com/Variables/1.0/">
	<!ENTITY ns_imrep "http://ns.adobe.com/ImageReplacement/1.0/">
	<!ENTITY ns_sfw "http://ns.adobe.com/SaveForWeb/1.0/">
	<!ENTITY ns_custom "http://ns.adobe.com/GenericCustomNamespace/1.0/">
	<!ENTITY ns_adobe_xpath "http://ns.adobe.com/XPath/1.0/">
]>
<svg version="1.1" id="Layer_1" xmlns:x="&ns_extend;" xmlns:i="&ns_ai;" xmlns:graph="&ns_graphs;"
	 xmlns="http://www.w3.org/2000/svg" xmlns:xlink="http://www.w3.org/1999/xlink" x="0px" y="0px" viewBox="0 0 200 78.2"
	 style="enable-background:new 0 0 200 78.2;" xml:space="preserve">
<style type="text/css">
	.st0{fill:#080505;}
	.st1{fill:#F8AF41;}
	.st2{fill:#376278;}
	.st3{fill:#FFC663;}
	.st4{fill:#F6CE76;}
	.st5{fill:#0D98BB;}
	.st6{fill:#70B599;}
	.st7{fill:#EAE3AC;}
	.st8{fill:#91060D;}
	.st9{fill:#2D628C;}
	.st10{fill:#012944;}
	.st11{fill:#043754;}
	.st12{fill:#1D324D;}
	.st13{fill:#8C7449;}
	.st14{fill:#003756;}
	.st15{fill:#53B2D3;}
	.st16{fill:#082042;}
	.st17{fill:#055985;}
	.st18{fill:#A08C6A;}
	.st19{clip-path:url(#SVGID_00000140735079968469519720000007781071793175179655_);}
	.st20{filter:url(#Adobe_OpacityMaskFilter);}
	.st21{opacity:0.9;mask:url(#SVGID_00000031913316492182336740000017237951028060222647_);fill:#FFFFFF;}
	.st22{filter:url(#Adobe_OpacityMaskFilter_00000182490567950232927800000010518292044143117197_);}
	.st23{opacity:0.75;mask:url(#SVGID_00000045577126444988337930000003732551744663178169_);}
	.st24{filter:url(#Adobe_OpacityMaskFilter_00000035516486577801971870000002933106032433053068_);}
	.st25{mask:url(#SVGID_00000003798263089237487370000012120077278957344660_);fill:#FFFFFF;}
	.st26{filter:url(#Adobe_OpacityMaskFilter_00000021812473502342189720000006176781049265207734_);}
	.st27{opacity:0.75;mask:url(#SVGID_00000132781211350190156150000017950310595413116295_);}
	.st28{fill:none;stroke:#000000;stroke-width:1.2;}
	.st29{clip-path:url(#SVGID_00000020390335998008219850000004710644099466969488_);}
	.st30{fill:#1E2731;}
	.st31{fill:#777779;}
	
		.st32{clip-path:url(#SVGID_00000108301697458742911950000004971549199541121202_);fill:url(#SVGID_00000165941556511175513180000008999547323382371743_);}
</style>
<metadata>
	<sfw  xmlns="&ns_sfw;">
		<slices></slices>
		<sliceSourceBounds  bottomLeftOrigin="true" height="515.4" width="2527.2" x="1.1" y="-405.1"></sliceSourceBounds>
	</sfw>
</metadata>
<g>
	<polygon points="2.5,76.5 3.2,76.5 3.2,73.6 5.6,73.6 5.6,73 3.2,73 3.2,70.9 6,70.9 6,70.3 2.5,70.3 	"/>
	<rect x="13.1" y="70.3" width="0.7" height="6.2"/>
	<polygon points="21.5,76.5 22.2,76.5 22.2,73.6 24.6,73.6 24.6,73 22.2,73 22.2,70.9 25,70.9 25,70.3 21.5,70.3 	"/>
	<polygon points="31.4,70.9 33.3,70.9 33.3,76.5 34,76.5 34,70.9 35.9,70.9 35.9,70.3 31.4,70.3 	"/>
	<rect x="52.2" y="73.8" width="2.3" height="0.6"/>
	<polygon points="60.8,70.9 62.7,70.9 62.7,76.5 63.4,76.5 63.4,70.9 65.3,70.9 65.3,70.3 60.8,70.3 	"/>
	<polygon points="105.8,76.5 106.5,76.5 106.5,73.6 108.9,73.6 108.9,73 106.5,73 106.5,70.9 109.4,70.9 109.4,70.3 105.8,70.3 	"/>
	<polygon points="139,70.9 140.9,70.9 140.9,76.5 141.6,76.5 141.6,70.9 143.5,70.9 143.5,70.3 139,70.3 	"/>
	<rect x="159.8" y="73.8" width="2.3" height="0.6"/>
	<polygon points="168.4,70.9 170.3,70.9 170.3,76.5 171,76.5 171,70.9 172.9,70.9 172.9,70.3 168.4,70.3 	"/>
	<rect x="92.8" y="33" class="st31" width="0.4" height="22.9"/>
	<rect x="94.3" y="29.7" class="st31" width="0.4" height="26.1"/>
	<rect x="96" y="26.5" class="st31" width="0.4" height="29.4"/>
	<rect x="104.1" y="40.1" class="st31" width="0.4" height="15.7"/>
	<rect x="105.9" y="37.8" class="st31" width="0.4" height="18.1"/>
	<rect x="107.3" y="35.7" class="st31" width="0.4" height="20.2"/>
	<rect x="99.2" y="1.7" class="st31" width="1.6" height="54.2"/>
	<path d="M44.8,72.2c-0.2,0.3-0.3,0.7-0.5,1l0,0.1c-0.2-0.4-0.3-0.7-0.5-1.1l-0.9-1.9H42l1.9,3.7v2.5h0.7V74l1.9-3.7h-0.7L44.8,72.2
		z"/>
	<path d="M77.1,73.9c-0.1,0.3-0.1,0.7-0.2,1c0,0.1-0.1,0.3-0.1,0.4c0-0.1-0.1-0.3-0.1-0.4c-0.1-0.3-0.2-0.6-0.2-1l-1-3.6h-0.6
		l-1,3.6l-0.1,0.5c-0.1,0.3-0.1,0.6-0.2,0.9c-0.1-0.5-0.2-0.9-0.3-1.4l-0.8-3.6h-0.7l1.4,6.2h0.7l1.1-4.2c0-0.2,0.1-0.4,0.1-0.6
		c0-0.1,0-0.2,0.1-0.3c0,0.1,0,0.1,0,0.2c0.1,0.2,0.1,0.4,0.2,0.7l1.1,4.2h0.7l1.4-6.2h-0.7L77.1,73.9z"/>
	<path d="M87.8,76c-1.1,0-1.9-1-1.9-2.6c0-1.5,0.7-2.5,1.9-2.5c1.1,0,1.9,1,1.9,2.5C89.6,74.9,88.9,76,87.8,76 M87.8,70.2
		c-1.6,0-2.6,1.3-2.6,3.2c0,1.9,1,3.3,2.6,3.3c1.6,0,2.6-1.3,2.6-3.3C90.4,71.4,89.3,70.2,87.8,70.2"/>
	<path d="M118.5,76c-1.1,0-1.9-1-1.9-2.6c0-1.5,0.7-2.5,1.9-2.5c1.1,0,1.9,1,1.9,2.5C120.4,74.9,119.7,76,118.5,76 M118.5,70.2
		c-1.6,0-2.6,1.3-2.6,3.2c0,1.9,1,3.3,2.6,3.3c1.6,0,2.6-1.3,2.6-3.3C121.1,71.4,120.1,70.2,118.5,70.2"/>
	<path d="M129.2,70.9h1c1,0,1.5,0.3,1.5,1.1c0,0.8-0.5,1.2-1.5,1.2h-1V70.9z M132.4,72c0-0.8-0.4-1.7-2.1-1.7h-1.8v6.2h0.7v-2.7h1
		l1.6,2.7h0.8l-1.7-2.8C131.9,73.5,132.4,72.9,132.4,72"/>
	<path d="M152.3,72.2c-0.2,0.3-0.3,0.7-0.5,1l0,0.1c-0.2-0.4-0.3-0.7-0.5-1.1l-0.9-1.9h-0.8l1.9,3.7v2.5h0.7V74l1.9-3.7h-0.7
		L152.3,72.2z"/>
	<path d="M184.6,73.9c-0.1,0.3-0.1,0.7-0.2,1c0,0.1-0.1,0.3-0.1,0.4c0-0.1-0.1-0.3-0.1-0.4c-0.1-0.3-0.2-0.7-0.2-1l-1-3.6h-0.6
		l-1,3.6l-0.1,0.5c-0.1,0.3-0.1,0.6-0.2,0.9c-0.1-0.5-0.2-0.9-0.3-1.4l-0.8-3.6h-0.7l1.4,6.2h0.7l1.1-4.2c0-0.2,0.1-0.4,0.1-0.6
		c0-0.1,0-0.2,0.1-0.3c0,0.1,0,0.1,0,0.2c0.1,0.2,0.1,0.4,0.2,0.7l1.1,4.2h0.7l1.4-6.2h-0.7L184.6,73.9z"/>
	<path d="M195.3,76c-1.1,0-1.9-1-1.9-2.6c0-1.5,0.7-2.5,1.9-2.5c1.1,0,1.9,1,1.9,2.5C197.2,74.9,196.5,76,195.3,76 M195.3,70.2
		c-1.6,0-2.6,1.3-2.6,3.2c0,1.9,1,3.3,2.6,3.3c1.6,0,2.6-1.3,2.6-3.3C197.9,71.4,196.9,70.2,195.3,70.2"/>
	<path d="M73,49.7c0,3.8-1.5,6.3-6,6.3c-3.7,0-5.7-2.1-5.7-6.7V42h2.7V50c0,2.5,1.3,3.7,3.1,3.7c1.8,0,3.1-0.8,3.1-4.2v-24
		c0-2.2-0.7-3.5-2.5-3.5c-3.1,0-3.7,2.1-3.8,10.3L61.4,32L62,1.6h10.1v2.2h-7.3L64,22.5l0.1,0.1c0.4-1.3,1.4-2.9,4-2.9
		c3.5,0,4.9,2.2,4.9,5.5V49.7z"/>
	<path d="M78.1,52.5l7.8-30.9c0.5-2,0.7-3.8,0.7-5.8V7.2c0-2.2-0.9-3.3-2.8-3.3c-2.1,0-2.7,1.1-2.7,4v6.9h-2.7V7.5
		c0-3.7,1.6-5.9,5.5-5.9c4,0,5.4,2.7,5.4,5.7v8.2c0,2.6-0.1,4.9-1,7.9l-7.9,30.3h9.4v2.2H78.1V52.5z"/>
	<path d="M118.9,3.9h-0.1c-0.3,2.8-0.7,5.3-1.1,7.7l-5,27.4h6.3V3.9z M118.9,41.2h-8.5v-3.7l7-35.9h4.2V39h3.1v2.2h-3.1v14.4h-2.7
		V41.2z"/>
	<path d="M128.2,52.2l0.4-1.6l6.7-26.8l0.6-2.6c0.5-2,0.7-3.8,0.7-5.8V6.9c0-2.2-0.9-3.3-2.8-3.3c-2.1,0-2.7,1.1-2.7,4v6.9h-2.7V7.2
		c0-3.7,1.6-5.9,5.5-5.9c4,0,5.4,2.7,5.4,5.7v8.2c0,2.6-0.2,4.9-1,7.9l-7.4,28.4l-0.5,1.9h9.4v2.2h-11.7V52.2z"/>
</g>
</svg>
