<?xml version="1.0" encoding="utf-8"?>
<!-- Generator: Adobe Illustrator 26.0.1, SVG Export Plug-In . SVG Version: 6.00 Build 0)  -->
<!DOCTYPE svg PUBLIC "-//W3C//DTD SVG 1.1//EN" "http://www.w3.org/Graphics/SVG/1.1/DTD/svg11.dtd" [
	<!ENTITY ns_extend "http://ns.adobe.com/Extensibility/1.0/">
	<!ENTITY ns_ai "http://ns.adobe.com/AdobeIllustrator/10.0/">
	<!ENTITY ns_graphs "http://ns.adobe.com/Graphs/1.0/">
	<!ENTITY ns_vars "http://ns.adobe.com/Variables/1.0/">
	<!ENTITY ns_imrep "http://ns.adobe.com/ImageReplacement/1.0/">
	<!ENTITY ns_sfw "http://ns.adobe.com/SaveForWeb/1.0/">
	<!ENTITY ns_custom "http://ns.adobe.com/GenericCustomNamespace/1.0/">
	<!ENTITY ns_adobe_xpath "http://ns.adobe.com/XPath/1.0/">
]>
<svg version="1.1" id="Layer_1" xmlns:x="&ns_extend;" xmlns:i="&ns_ai;" xmlns:graph="&ns_graphs;"
	 xmlns="http://www.w3.org/2000/svg" xmlns:xlink="http://www.w3.org/1999/xlink" x="0px" y="0px" viewBox="0 0 200 77.7"
	 style="enable-background:new 0 0 200 77.7;" xml:space="preserve">
<style type="text/css">
	.st0{fill:#080505;}
	.st1{fill:#F8AF41;}
	.st2{fill:#376278;}
	.st3{fill:#FFC663;}
	.st4{fill:#F6CE76;}
	.st5{fill:#0D98BB;}
	.st6{fill:#70B599;}
	.st7{fill:#EAE3AC;}
	.st8{fill:#91060D;}
	.st9{fill:#2D628C;}
	.st10{fill:#012944;}
	.st11{fill:#043754;}
	.st12{fill:#1D324D;}
	.st13{fill:#8C7449;}
	.st14{fill:#003756;}
	.st15{fill:#53B2D3;}
	.st16{fill:#082042;}
	.st17{fill:#055985;}
	.st18{fill:#A08C6A;}
	.st19{clip-path:url(#SVGID_00000131339266715332338240000010608739673444919972_);}
	.st20{filter:url(#Adobe_OpacityMaskFilter);}
	.st21{opacity:0.9;mask:url(#SVGID_00000034061027150093263530000010766927819636474502_);fill:#FFFFFF;}
	.st22{filter:url(#Adobe_OpacityMaskFilter_00000166633395927543400750000002906623870357818303_);}
	.st23{opacity:0.75;mask:url(#SVGID_00000106839289111089792490000015008333185080951700_);}
	.st24{filter:url(#Adobe_OpacityMaskFilter_00000071517310835291216650000011877873892584105649_);}
	.st25{mask:url(#SVGID_00000179627745190553316570000005038443247101046146_);fill:#FFFFFF;}
	.st26{filter:url(#Adobe_OpacityMaskFilter_00000145043202284358637710000001505554516495730102_);}
	.st27{opacity:0.75;mask:url(#SVGID_00000145777814283995863280000010417762841865130130_);}
	.st28{fill:none;stroke:#000000;stroke-width:1.2;}
	.st29{clip-path:url(#SVGID_00000052086928533952771210000012285125383371701123_);}
	.st30{fill:#1E2731;}
	.st31{fill:#777779;}
	
		.st32{clip-path:url(#SVGID_00000132057257221550036890000007632919527248137375_);fill:url(#SVGID_00000093898714636676035330000014418060155835295396_);}
</style>
<metadata>
	<sfw  xmlns="&ns_sfw;">
		<slices></slices>
		<sliceSourceBounds  bottomLeftOrigin="true" height="515.4" width="2527.2" x="1.1" y="-405.1"></sliceSourceBounds>
	</sfw>
</metadata>
<g>
	<g>
		<path d="M42.1,29.7V1.3h8.2c2.1,0,3.8,0.2,5.2,0.5c1.4,0.4,2.4,1,3.1,1.8c0.7,0.8,1,2,1,3.4c0,0.9-0.2,1.8-0.5,2.6
			c-0.3,0.8-0.8,1.5-1.4,2.1c-0.6,0.6-1.3,1.2-2.1,1.6s-1.7,0.8-2.6,1c0.9,0,1.8,0.2,2.6,0.4c0.9,0.3,1.7,0.6,2.5,1.1s1.4,1.2,1.8,2
			c0.5,0.8,0.7,1.8,0.7,3c0,3-1.2,5.3-3.7,7c-0.7,0.5-1.6,0.9-2.6,1.1c-1,0.3-1.9,0.4-2.9,0.5c-0.9,0.1-2.1,0.1-3.4,0.1H42.1z
			 M45.8,2.9v11h1.7c1.1,0,2-0.1,2.9-0.2c0.8-0.1,1.6-0.3,2.4-0.7c1-0.5,1.8-1.2,2.4-2c0.6-0.9,0.8-1.9,0.8-3c0-1.3-0.3-2.3-0.8-3
			c-0.6-0.8-1.3-1.3-2.4-1.6c-1-0.3-2.3-0.5-3.9-0.5H45.8z M45.8,15.4v12.7h4c1.4,0,2.6-0.3,3.6-0.8c1.1-0.5,1.9-1.3,2.5-2.3
			c0.6-1,0.9-2.1,0.9-3.3c0-2.3-0.8-3.9-2.3-4.9c-1.5-0.9-3.6-1.4-6.4-1.4H45.8z"/>
		<path d="M76,1.3v26.4c1.7,0,4.2-0.1,7.5-0.2c0.4,0,1.1-0.1,1.8-0.1c0.8-0.1,1.5-0.2,2.1-0.2c0,0.3-0.1,0.5-0.1,0.8
			c0,0.2,0,0.4,0,0.5c0,0.1,0,0.3,0,0.5c0,0.2,0.1,0.5,0.1,0.7H72.3V1.3c0.4,0,0.8,0.1,1.1,0.1c0.3,0,0.6,0,0.8,0c0.2,0,0.4,0,0.8,0
			C75.2,1.4,75.5,1.3,76,1.3z"/>
		<path d="M111.6,20.2L116,8.9l2.5-7l0.3-0.7c0.3,0,0.6,0.1,0.9,0.1c0.3,0,0.5,0,0.7,0c0.1,0,0.3,0,0.6,0c0.3,0,0.6-0.1,0.9-0.1
			c-0.4,0.7-1.1,2.3-2.3,4.9c-1.2,2.6-2.5,5.7-4,9.2c-1.5,3.5-2.8,6.5-3.8,9c-1,2.5-1.7,4.3-2,5.3c-0.1,0-0.3-0.1-0.5-0.1
			c-0.2,0-0.3,0-0.4,0c-0.1,0-0.2,0-0.4,0c-0.2,0-0.3,0.1-0.5,0.1c-1.3-2.7-2.4-5.1-3.3-7.2c-1-2.1-2.3-5.2-3.9-9
			c-1.7-3.9-2.9-6.7-3.7-8.5c-0.8-1.8-1.4-3.1-1.7-3.7c0.4,0,0.8,0.1,1.1,0.1c0.3,0,0.6,0,0.8,0c0.2,0,0.5,0,0.9,0
			c0.3,0,0.7-0.1,1.2-0.1c0.4,1,0.9,2.4,1.5,4l2.8,7.3l5.1,12.6h0.4c0.3-0.6,0.7-1.4,1.2-2.4C110.9,21.8,111.3,20.9,111.6,20.2z"/>
		<path d="M131.3,29.7V1.3h9.5h2.9c2,0,3.7,0.2,5.1,0.5c1.4,0.3,2.8,1,4,2c1.5,1.2,2.6,2.7,3.3,4.5c0.7,1.8,1.1,3.8,1.1,5.9
			c0,1.8-0.2,3.5-0.6,5c-0.4,1.5-1,2.9-1.8,4c-0.8,1.2-1.7,2.2-2.8,3.2c-0.8,0.7-1.7,1.3-2.8,1.8c-1,0.4-2,0.8-3,1
			c-1,0.2-2,0.3-3,0.4c-1,0.1-2.3,0.1-3.7,0.1H131.3z M135,3v24.8c0.3,0,0.8,0,1.5,0.1c0.7,0,1.4,0.1,2.1,0.1c0.7,0,1.2,0,1.7,0
			c3,0,5.3-0.4,6.9-1.2c2.1-1.1,3.6-2.6,4.6-4.7c0.9-2.1,1.4-4.5,1.4-7.3c0-2.2-0.2-4.1-0.7-5.6c-0.5-1.5-1.2-2.7-2.2-3.7
			c-1-0.9-2.4-1.6-4-2.1c-1.6-0.4-3.6-0.7-6-0.7c-0.8,0-1.8,0-2.8,0.1C136.5,2.9,135.6,3,135,3z"/>
	</g>
	<g>
		<path d="M22.1,60.5v-12c0.4,0,0.8,0.1,1.1,0.1c0.3,0,0.6,0,0.8,0c0.2,0,0.5,0,0.7,0c0.3,0,0.7-0.1,1.1-0.1V77
			c-0.3,0-0.5,0-0.7-0.1c-0.2,0-0.4,0-0.5,0c-0.1,0-0.3,0-0.6,0c-0.3,0-0.5,0-0.6,0c-0.1,0-0.3,0-0.5,0c-0.2,0-0.4,0-0.7,0.1V62.7
			c-0.7,0-1.6,0-2.9-0.1c-1.3,0-2.4-0.1-3.4-0.1c-1,0-1.8,0-2.4,0c-0.6,0-1.4,0-2.4,0c-1,0-2.1,0.1-3.4,0.1c-1.3,0-2.3,0.1-2.9,0.1
			V77C4.2,77,4,77,3.8,77c-0.2,0-0.4,0-0.5,0c-0.1,0-0.3,0-0.6,0c-0.2,0-0.5,0-0.8,0c-0.4,0-0.7,0.1-1,0.1V48.5
			c0.4,0,0.8,0.1,1.1,0.1c0.3,0,0.6,0,0.8,0c0.2,0,0.4,0,0.7,0c0.3,0,0.7-0.1,1.1-0.1v12c5,0.1,7.9,0.2,8.8,0.2
			C14.2,60.7,17.1,60.6,22.1,60.5z"/>
		<path d="M41.9,50.5V61h6.5c0.3,0,0.6,0,1.1-0.1c0.5,0,0.9-0.1,1.3-0.1c0.3,0,0.8-0.1,1.3-0.1c0,0.2-0.1,0.5-0.1,0.6
			c0,0.2,0,0.3,0,0.5c0,0.1,0,0.2,0,0.4c0,0.2,0.1,0.4,0.1,0.7c-0.5,0-1-0.1-1.3-0.1c-0.3,0-0.8-0.1-1.3-0.1c-0.5,0-0.9,0-1.1,0
			h-6.5v12.2c1.7,0,4.2-0.1,7.5-0.2c1.1,0,2.4-0.2,3.8-0.4c0,0.1,0,0.3-0.1,0.4c0,0.2,0,0.3-0.1,0.4c0,0.1,0,0.2,0,0.4
			c0,0.2,0,0.4,0.1,0.6c0,0.2,0.1,0.4,0.1,0.6h-15V48.5H53c0,0.3-0.1,0.6-0.1,0.8c0,0.2,0,0.4,0,0.5c0,0.1,0,0.3,0,0.5
			c0,0.2,0.1,0.5,0.1,0.7c-1-0.2-2.3-0.4-3.7-0.4l-4.2-0.1H41.9z"/>
		<path d="M64.3,77V48.5c0.4,0,0.8,0.1,1.1,0.1c0.3,0,0.6,0,0.8,0c0.2,0,0.4,0,0.7,0c0.3,0,0.7-0.1,1.1-0.1V77c-0.3,0-0.5,0-0.8-0.1
			c-0.2,0-0.4,0-0.5,0c-0.1,0-0.3,0-0.6,0c-0.3,0-0.5,0-0.6,0c-0.1,0-0.3,0-0.5,0C64.7,77,64.5,77,64.3,77z"/>
		<path d="M105.4,53.6H105c-0.6-0.7-1.2-1.3-1.9-1.8c-0.7-0.5-1.5-0.9-2.2-1.3c-0.8-0.3-1.6-0.6-2.5-0.8c-0.9-0.2-1.8-0.3-2.7-0.3
			c-1.8,0-3.4,0.3-4.9,0.9c-1.5,0.6-2.7,1.4-3.8,2.5c-1.1,1.1-1.9,2.5-2.5,4.1c-0.6,1.6-0.9,3.5-0.9,5.5c0,2.8,0.5,5.1,1.4,7.2
			s2.3,3.5,4.2,4.6c1.9,1.1,4.1,1.6,6.8,1.6c2.5,0,4.7-0.5,6.5-1.4V63.8c0.4,0,0.8,0.1,1.1,0.1c0.3,0,0.6,0,0.8,0c0.2,0,0.4,0,0.7,0
			c0.3,0,0.7-0.1,1.1-0.1v11.8c-1.9,0.6-3.8,1.1-5.6,1.4c-1.9,0.3-3.8,0.5-5.7,0.5c-3.4,0-6.3-0.6-8.6-1.9c-2.3-1.3-4-3-5.1-5.2
			c-1.1-2.2-1.7-4.8-1.7-7.6c0-2.4,0.4-4.5,1.2-6.3c0.8-1.9,1.9-3.4,3.4-4.7c1.5-1.3,3.2-2.2,5.2-2.9c2-0.6,4.1-1,6.4-1
			c1.9,0,3.5,0.1,5,0.4c1.5,0.3,2.7,0.6,3.5,1c0.9,0.4,1.6,0.7,2.1,1C106.1,51.2,105.8,52.3,105.4,53.6z"/>
		<path d="M139.2,60.5v-12c0.4,0,0.8,0.1,1.1,0.1c0.3,0,0.6,0,0.8,0c0.2,0,0.5,0,0.7,0c0.3,0,0.7-0.1,1.1-0.1V77
			c-0.3,0-0.5,0-0.7-0.1c-0.2,0-0.4,0-0.5,0c-0.1,0-0.3,0-0.6,0c-0.3,0-0.5,0-0.6,0c-0.1,0-0.3,0-0.5,0c-0.2,0-0.4,0-0.7,0.1V62.7
			c-0.7,0-1.6,0-2.9-0.1c-1.3,0-2.4-0.1-3.4-0.1c-1,0-1.8,0-2.4,0c-0.6,0-1.4,0-2.4,0c-1,0-2.1,0.1-3.4,0.1c-1.3,0-2.3,0.1-2.9,0.1
			V77c-0.3,0-0.6,0-0.8-0.1s-0.4,0-0.5,0c-0.1,0-0.3,0-0.6,0c-0.2,0-0.5,0-0.8,0c-0.4,0-0.7,0.1-1,0.1V48.5c0.4,0,0.8,0.1,1.1,0.1
			c0.3,0,0.6,0,0.8,0c0.2,0,0.4,0,0.7,0c0.3,0,0.7-0.1,1.1-0.1v12c5,0.1,7.9,0.2,8.8,0.2C131.3,60.7,134.3,60.6,139.2,60.5z"/>
		<path d="M165.3,50.6v26.5c-0.3,0-0.6,0-0.8-0.1c-0.2,0-0.4,0-0.5,0s-0.3,0-0.6,0c-0.2,0-0.5,0-0.9,0c-0.4,0-0.7,0.1-1,0.1V50.6
			c-2.9,0-5.9,0.2-9.1,0.5c0-0.2,0.1-0.4,0.1-0.7c0-0.3,0-0.4,0-0.6c0-0.2,0-0.3,0-0.4c0-0.1,0-0.2,0-0.3c0-0.1,0-0.3-0.1-0.5H174
			c0,0.3-0.1,0.6-0.1,0.8c0,0.2,0,0.4,0,0.5c0,0.1,0,0.3,0,0.5c0,0.2,0.1,0.5,0.1,0.7c-1.2-0.1-2.5-0.3-4-0.3
			C168.4,50.6,166.9,50.6,165.3,50.6z"/>
		<path d="M182.4,71.4h0.4c0.9,1.5,1.9,2.5,2.9,3.3c1,0.7,2.3,1.1,3.8,1.1c1.1,0,2.1-0.3,3-0.8c0.9-0.5,1.6-1.3,2.1-2.2
			c0.5-0.9,0.8-1.9,0.8-3c0-1.7-0.5-3-1.6-3.8c-1.1-0.8-2.7-1.6-4.8-2.5c-2.2-0.8-3.8-1.8-4.9-2.8c-1.1-1-1.7-2.6-1.7-4.7
			c0-2.6,0.9-4.5,2.6-5.9c1.7-1.4,4-2.1,6.6-2.1c1.1,0,2.2,0.2,3.2,0.5c1.1,0.3,2,0.8,2.7,1.5c-0.2,0.5-0.6,1.6-1.1,3.4H196
			c-0.4-1.1-1.1-2-2-2.7c-0.9-0.6-2-1-3.2-1c-1,0-1.8,0.2-2.6,0.6c-0.8,0.4-1.4,1-1.9,1.7c-0.5,0.7-0.7,1.6-0.7,2.5
			c0,1.7,0.5,2.9,1.6,3.7c1,0.8,2.7,1.6,4.9,2.5c2.2,0.9,3.9,1.8,5,2.8c1.1,1,1.7,2.5,1.7,4.4c0,1.5-0.3,2.8-0.8,4
			c-0.5,1.2-1.3,2.2-2.2,3c-1,0.8-2.1,1.5-3.3,1.9c-1.2,0.4-2.6,0.6-4,0.6c-1.1,0-2.4-0.2-3.7-0.7c-1.4-0.4-2.4-1-3.1-1.8
			C181.9,74.2,182.2,73,182.4,71.4z"/>
	</g>
</g>
</svg>
