<?xml version="1.0" encoding="utf-8"?>
<!-- Generator: Adobe Illustrator 26.0.1, SVG Export Plug-In . SVG Version: 6.00 Build 0)  -->
<!DOCTYPE svg PUBLIC "-//W3C//DTD SVG 1.1//EN" "http://www.w3.org/Graphics/SVG/1.1/DTD/svg11.dtd" [
	<!ENTITY ns_extend "http://ns.adobe.com/Extensibility/1.0/">
	<!ENTITY ns_ai "http://ns.adobe.com/AdobeIllustrator/10.0/">
	<!ENTITY ns_graphs "http://ns.adobe.com/Graphs/1.0/">
	<!ENTITY ns_vars "http://ns.adobe.com/Variables/1.0/">
	<!ENTITY ns_imrep "http://ns.adobe.com/ImageReplacement/1.0/">
	<!ENTITY ns_sfw "http://ns.adobe.com/SaveForWeb/1.0/">
	<!ENTITY ns_custom "http://ns.adobe.com/GenericCustomNamespace/1.0/">
	<!ENTITY ns_adobe_xpath "http://ns.adobe.com/XPath/1.0/">
]>
<svg version="1.1" id="Layer_1" xmlns:x="&ns_extend;" xmlns:i="&ns_ai;" xmlns:graph="&ns_graphs;"
	 xmlns="http://www.w3.org/2000/svg" xmlns:xlink="http://www.w3.org/1999/xlink" x="0px" y="0px" viewBox="0 0 200 70"
	 style="enable-background:new 0 0 200 70;" xml:space="preserve">
<style type="text/css">
	.st0{fill:#080505;}
	.st1{fill:#F8AF41;}
	.st2{fill:#376278;}
	.st3{fill:#FFC663;}
	.st4{fill:#F6CE76;}
	.st5{fill:#0D98BB;}
	.st6{fill:#70B599;}
	.st7{fill:#EAE3AC;}
	.st8{fill:#91060D;}
	.st9{fill:#2D628C;}
	.st10{fill:#012944;}
	.st11{fill:#043754;}
	.st12{fill:#1D324D;}
	.st13{fill:#8C7449;}
	.st14{fill:#003756;}
	.st15{fill:#53B2D3;}
	.st16{fill:#082042;}
	.st17{fill:#055985;}
	.st18{fill:#A08C6A;}
	.st19{clip-path:url(#SVGID_00000000921619687366158570000009955503870108340647_);}
	.st20{filter:url(#Adobe_OpacityMaskFilter);}
	.st21{opacity:0.9;mask:url(#SVGID_00000106126974870914302650000005353263089646095252_);fill:#FFFFFF;}
	.st22{filter:url(#Adobe_OpacityMaskFilter_00000161621488691544093140000009123628896160539060_);}
	.st23{opacity:0.75;mask:url(#SVGID_00000029756331462234836900000014782554846908902018_);}
	.st24{filter:url(#Adobe_OpacityMaskFilter_00000008131657035453053770000015472922956230835603_);}
	.st25{mask:url(#SVGID_00000170983054088060743680000017699978565220394408_);fill:#FFFFFF;}
	.st26{filter:url(#Adobe_OpacityMaskFilter_00000039849487308779947920000000486302030445742492_);}
	.st27{opacity:0.75;mask:url(#SVGID_00000002351702226540924170000006229373462157864103_);}
	.st28{fill:none;stroke:#000000;stroke-width:1.2;}
	.st29{clip-path:url(#SVGID_00000044150375506514658960000005779850306667318700_);}
	.st30{fill:#1E2731;}
	.st31{fill:#777779;}
	
		.st32{clip-path:url(#SVGID_00000076582527298295125830000008277336730903944850_);fill:url(#SVGID_00000072975894265521115770000007685115358270198971_);}
</style>
<metadata>
	<sfw  xmlns="&ns_sfw;">
		<slices></slices>
		<sliceSourceBounds  bottomLeftOrigin="true" height="515.4" width="2527.2" x="1.1" y="-405.1"></sliceSourceBounds>
	</sfw>
</metadata>
<g>
	<path class="st0" d="M83.7,8.2c0.5-0.5,0.9-1,1.1-1.6c0.4-0.9,0.4-1.7-0.1-2.2c-0.5-0.5-1.3-0.8-2.6-0.8h-4.3l-0.4,0.9h2.9
		c1.5,0,1.9,0.7,1.4,2c-0.3,0.7-0.6,1.4-1.2,1.7c-0.6,0.3-1.2,0.3-2.2,0.3l-1.4,0l1-2.4h-1.3l-1.4,3.4h3.9c1.1,0,1.9-0.1,2.6-0.3
		C82.5,9,83.2,8.7,83.7,8.2 M111.6,3.6L111.6,3.6l-1.6,0l-6.1,5.7l2.4-5.7h-2.6l-3.2,2.5l-1.6,1.3h-0.1l0.8-1.9l-0.9-1.9H96
		l-2.4,5.7l-1.4-5.7h-2.9l-6.4,6h1.6L86.2,8h4l0.3,1.6h4.3l1.5-3.7c0.1-0.2,0.2-0.4,0.2-0.6c0,0.2,0.1,0.4,0.2,0.6l1.4,3.1h0.2
		l3.9-3.1c0.1-0.1,0.4-0.3,0.7-0.6c-0.1,0.3-0.3,0.5-0.3,0.6L101,9.5h2.8v0h3l1.6-1.6h4.2l0.3,1.6h1.5l-1.4-6H111.6z M87,7.2
		l2.5-2.4L90,7.2H87z M109.2,7.2l2.6-2.5l0.5,2.5H109.2z M124.1,3.7L124.1,3.7l-4.2-0.1c-1.3,0-2.3,0.3-3.2,0.8
		c-0.9,0.5-1.5,1.2-1.9,2.2c-0.2,0.6-0.3,1.1-0.2,1.6c0.1,0.5,0.4,0.9,0.9,1.1c0.5,0.2,1.2,0.3,2.3,0.3h3.9l0.4-0.9h-2.2
		c-1.1,0-1.7-0.1-2.1-0.4c-0.4-0.3-0.3-1,0-1.7c0.5-1.2,1.6-2,3.1-2h1.7l-0.4,0.9h1.3L124.1,3.7L124.1,3.7L124.1,3.7z"/>
	<path class="st0" d="M73.6,28.9c-0.4-0.2-0.7-0.5-1-0.8c-0.3-0.3-0.4-0.7-0.4-1.2c-0.3,0.3-0.7,0.5-1,0.8c-0.3,0.3-0.7,0.5-1.1,0.7
		c-0.4,0.2-0.8,0.4-1.3,0.5c-0.5,0.1-1,0.2-1.6,0.2c-0.6,0-1.1-0.1-1.5-0.3c-0.5-0.2-0.8-0.4-1.2-0.8c-0.3-0.3-0.6-0.7-0.7-1.2
		c-0.2-0.4-0.3-0.9-0.3-1.4c0-0.6,0.1-1.2,0.4-1.7c0.2-0.5,0.6-1,1-1.3c0.4-0.4,0.9-0.7,1.5-1.1s1.2-0.6,1.8-0.8
		c0.6-0.2,1.3-0.5,2-0.6s1.3-0.4,2-0.5v-0.9c0-0.7,0-1.2-0.1-1.7c-0.1-0.5-0.2-0.8-0.4-1.1c-0.2-0.3-0.5-0.5-0.8-0.6
		c-0.3-0.1-0.7-0.2-1.1-0.2c-0.4,0-0.8,0.1-1.1,0.2c-0.3,0.2-0.6,0.4-0.9,0.6s-0.5,0.6-0.6,1c-0.2,0.4-0.2,0.8-0.9,1.1
		c-0.7,0.4-2.1,0.1-2.1,0.1s0.3-1.2,0.6-1.7c0.4-0.5,0.8-0.9,1.3-1.2c0.5-0.3,1.2-0.6,1.8-0.8c0.7-0.2,1.4-0.3,2.1-0.3
		c0.9,0,1.7,0.1,2.4,0.3c0.6,0.2,1.2,0.4,1.6,0.8c0.4,0.3,0.7,0.7,0.8,1.2c0.2,0.5,0.2,1,0.2,1.6v9c0,0.4,0.1,0.8,0.4,1.2
		c0.3,0.3,0.6,0.6,1,0.8L73.6,28.9L73.6,28.9L73.6,28.9z M72.3,20.5c-0.4,0.1-0.8,0.3-1.3,0.5c-0.4,0.2-0.9,0.4-1.3,0.6
		c-0.4,0.2-0.8,0.4-1.2,0.7c-0.4,0.2-0.7,0.5-1,0.8s-0.5,0.6-0.7,0.9s-0.3,0.6-0.3,1c0,0.4,0.1,0.7,0.2,1c0.1,0.3,0.3,0.6,0.5,0.8
		c0.2,0.2,0.5,0.4,0.8,0.6c0.3,0.1,0.6,0.2,0.9,0.2c0.3,0,0.6,0,0.9-0.1c0.3-0.1,0.6-0.2,0.9-0.3c0.3-0.1,0.6-0.3,0.8-0.5
		c0.3-0.2,0.6-0.4,0.8-0.6L72.3,20.5L72.3,20.5z"/>
	<path class="st0" d="M90.9,15.1v1.2h-2.4c0.3,0.4,0.5,0.8,0.7,1.3c0.2,0.5,0.3,1,0.3,1.5c0,0.8-0.2,1.4-0.5,2.1
		c-0.3,0.6-0.8,1.1-1.4,1.6c-0.6,0.4-1.3,0.8-2.1,1c-0.8,0.2-1.7,0.4-2.7,0.4c-0.4,0-0.7,0-1.1-0.1c-0.4-0.1-0.7-0.1-1-0.2
		c-0.3,0.2-0.5,0.5-0.7,0.8c-0.2,0.3-0.3,0.6-0.3,0.9c0,0.3,0.2,0.5,0.5,0.7s0.8,0.3,1.4,0.3l5.4,0.2c0.9,0,1.6,0.1,2.2,0.3
		c0.6,0.2,1,0.4,1.4,0.7c0.3,0.3,0.6,0.6,0.7,1c0.1,0.4,0.2,0.8,0.2,1.3c0,0.8-0.2,1.6-0.6,2.3c-0.4,0.7-1,1.3-1.7,1.8
		c-0.7,0.5-1.6,0.9-2.7,1.1c-1.1,0.3-2.3,0.4-3.6,0.4c-1.2,0-2.3-0.1-3.2-0.2c-0.9-0.1-1.6-0.3-2.2-0.6s-1-0.6-1.3-0.9
		c-0.3-0.4-0.4-0.8-0.4-1.2c0-0.4,0.1-0.8,0.3-1.1c0.2-0.4,0.5-0.7,0.8-1c0.3-0.3,0.7-0.7,1-1c0.4-0.3,0.8-0.6,1.1-0.9
		c-0.3-0.1-0.5-0.2-0.7-0.3c-0.2-0.1-0.4-0.3-0.6-0.4c-0.2-0.2-0.3-0.3-0.4-0.5c-0.1-0.2-0.1-0.4-0.1-0.6c0-0.3,0.1-0.6,0.2-0.9
		c0.2-0.3,0.4-0.6,0.6-0.9c0.3-0.3,0.6-0.6,0.9-0.8c0.4-0.2,0.7-0.4,1.1-0.6c-1-0.4-1.7-1-2.3-1.7c-0.6-0.7-0.8-1.6-0.8-2.6
		c0-0.7,0.2-1.4,0.5-2c0.3-0.6,0.8-1.2,1.4-1.7c0.6-0.5,1.3-0.9,2-1.1c0.8-0.3,1.6-0.4,2.5-0.4c0.4,0,0.9,0,1.3,0.1
		c0.4,0.1,0.8,0.1,1.2,0.2c0.4,0.1,0.7,0.2,1,0.3c0.3,0.1,0.5,0.3,0.7,0.4L90.9,15.1L90.9,15.1z M79.5,28.8
		c-0.2,0.2-0.4,0.3-0.6,0.5c-0.2,0.2-0.3,0.4-0.4,0.6c-0.1,0.2-0.2,0.4-0.3,0.7c-0.1,0.2-0.1,0.4-0.1,0.6c0,0.3,0.1,0.6,0.3,0.9
		s0.6,0.6,1,0.8c0.5,0.2,1,0.4,1.7,0.5c0.7,0.1,1.5,0.2,2.4,0.2c1,0,1.8-0.1,2.6-0.2c0.8-0.2,1.4-0.4,1.9-0.6
		c0.5-0.2,0.9-0.5,1.2-0.8c0.3-0.3,0.4-0.6,0.4-0.9c0-0.3-0.1-0.6-0.2-0.8c-0.2-0.2-0.4-0.4-0.7-0.6c-0.3-0.1-0.7-0.3-1.1-0.3
		c-0.4-0.1-0.9-0.1-1.5-0.1c-0.7,0-1.4,0-2.1-0.1c-0.7,0-1.4-0.1-2-0.1c-0.6,0-1.2-0.1-1.6-0.1C80.1,28.9,79.7,28.9,79.5,28.8
		 M83.1,23.5c0.4,0,0.8-0.1,1.2-0.3c0.4-0.2,0.7-0.4,1-0.8c0.3-0.3,0.5-0.7,0.7-1.1c0.2-0.4,0.3-0.9,0.3-1.4c0-0.7-0.1-1.4-0.3-2
		c-0.2-0.6-0.5-1.1-0.8-1.6c-0.3-0.4-0.7-0.8-1.2-1.1c-0.4-0.3-0.9-0.4-1.4-0.4c-0.5,0-0.9,0.1-1.3,0.3s-0.6,0.5-0.9,0.8
		c-0.2,0.4-0.4,0.8-0.5,1.3c-0.1,0.5-0.2,1-0.2,1.5c0,0.7,0.1,1.3,0.2,1.8c0.2,0.6,0.4,1.1,0.7,1.5c0.3,0.4,0.6,0.8,1.1,1
		C82.2,23.4,82.6,23.5,83.1,23.5"/>
	<path class="st0" d="M97.1,29.3c-1.1,0-2.1-0.2-3.1-0.6c-0.9-0.4-1.7-0.9-2.4-1.6c-0.7-0.7-1.2-1.5-1.6-2.3
		c-0.4-0.9-0.6-1.9-0.6-2.9c0-1.1,0.2-2.1,0.6-3c0.4-0.9,0.9-1.8,1.6-2.5c0.7-0.7,1.5-1.3,2.4-1.7c0.9-0.4,2-0.6,3.1-0.6
		c1.1,0,2.1,0.2,3.1,0.6c0.9,0.4,1.7,0.9,2.4,1.5c0.7,0.6,1.2,1.4,1.6,2.3c0.4,0.9,0.6,1.8,0.6,2.8c0,1.1-0.2,2.1-0.6,3.1
		c-0.4,1-0.9,1.8-1.6,2.5c-0.7,0.7-1.5,1.3-2.4,1.7C99.2,29,98.2,29.3,97.1,29.3 M97.7,28.2c0.6,0,1.1-0.1,1.6-0.4
		c0.5-0.3,0.9-0.7,1.2-1.2c0.3-0.5,0.6-1.1,0.8-1.7c0.2-0.7,0.3-1.3,0.3-2.1c0-1.1-0.1-2-0.3-3c-0.2-0.9-0.5-1.7-0.9-2.4
		c-0.4-0.7-0.9-1.2-1.6-1.6c-0.7-0.4-1.4-0.6-2.4-0.6c-0.5,0-1,0.1-1.4,0.4c-0.5,0.3-0.9,0.7-1.2,1.1c-0.3,0.5-0.6,1.1-0.8,1.7
		c-0.2,0.6-0.3,1.3-0.3,2.1c0,1.1,0.1,2.1,0.3,3c0.2,0.9,0.5,1.7,1,2.4c0.4,0.7,1,1.2,1.6,1.6C96.2,28,96.9,28.2,97.7,28.2"/>
	<path class="st0" d="M112.9,29.3c-1.1,0-2.1-0.2-3.1-0.6c-0.9-0.4-1.7-0.9-2.4-1.6c-0.7-0.7-1.2-1.5-1.6-2.3
		c-0.4-0.9-0.6-1.9-0.6-2.9c0-1.1,0.2-2.1,0.6-3c0.4-0.9,0.9-1.8,1.6-2.5c0.7-0.7,1.5-1.3,2.4-1.7c0.9-0.4,2-0.6,3.1-0.6
		c1.1,0,2.1,0.2,3.1,0.6c0.9,0.4,1.7,0.9,2.4,1.5c0.7,0.6,1.2,1.4,1.6,2.3s0.6,1.8,0.6,2.8c0,1.1-0.2,2.1-0.6,3.1
		c-0.4,1-0.9,1.8-1.6,2.5c-0.7,0.7-1.5,1.3-2.4,1.7C115.1,29,114,29.3,112.9,29.3 M113.5,28.2c0.6,0,1.1-0.1,1.6-0.4
		c0.5-0.3,0.9-0.7,1.2-1.2c0.3-0.5,0.6-1.1,0.8-1.7c0.2-0.7,0.3-1.3,0.3-2.1c0-1.1-0.1-2-0.3-3c-0.2-0.9-0.5-1.7-0.9-2.4
		c-0.4-0.7-0.9-1.2-1.6-1.6c-0.7-0.4-1.5-0.6-2.4-0.6c-0.5,0-1,0.1-1.4,0.4c-0.5,0.3-0.9,0.7-1.2,1.1c-0.3,0.5-0.6,1.1-0.8,1.7
		c-0.2,0.6-0.3,1.3-0.3,2.1c0,1.1,0.1,2.1,0.3,3c0.2,0.9,0.5,1.7,1,2.4c0.4,0.7,1,1.2,1.6,1.6C112,28,112.7,28.2,113.5,28.2"/>
	<path class="st0" d="M123.3,14.1h0.8v2.9c0.9-1,1.8-1.7,2.7-2.2c0.9-0.5,1.9-0.7,2.9-0.7c0.5,0,1,0.1,1.4,0.3
		c0.4,0.2,0.8,0.5,1.2,0.9c0.3,0.4,0.6,0.9,0.8,1.4c0.2,0.5,0.3,1.1,0.3,1.7v10.4h-2.9V19c0-0.5-0.1-0.9-0.2-1.3
		c-0.1-0.4-0.3-0.7-0.5-0.9c-0.2-0.2-0.5-0.4-0.7-0.6c-0.3-0.1-0.6-0.2-0.9-0.2c-0.3,0-0.6,0.1-1,0.2c-0.3,0.1-0.7,0.2-1,0.4
		c-0.4,0.2-0.7,0.4-1.1,0.7c-0.4,0.3-0.7,0.5-1,0.9v8.7c0,1.1-0.9,2.1-2.1,2.1h-0.8v-14L123.3,14.1z"/>
	<path class="st0" d="M144.6,23.3c-0.2-0.5-0.6-0.9-1-1.2c-0.4-0.3-0.9-0.7-1.4-0.9c-0.5-0.3-1-0.5-1.6-0.7c-0.5-0.2-1-0.4-1.6-0.7
		c-0.5-0.2-1-0.5-1.4-0.7c-0.4-0.3-0.7-0.6-1-0.9c-0.2-0.3-0.4-0.7-0.4-1.1c0-0.3,0.1-0.5,0.2-0.8c0.1-0.2,0.3-0.4,0.6-0.6
		c0.2-0.2,0.5-0.3,0.9-0.4c0.3-0.1,0.7-0.1,1.1-0.1c0.4,0,0.7,0.1,1.1,0.2c0.3,0.2,0.6,0.4,0.9,0.6c0.3,0.3,0.5,0.6,0.6,1
		c0.2,0.4,0.2,0.8,0.9,1.1c0.7,0.4,2.1,0.1,2.1,0.1s-0.3-1.2-0.6-1.7c-0.4-0.5-0.8-0.9-1.3-1.2c-0.5-0.3-1.2-0.6-1.8-0.8
		c-0.5-0.1-1.1-0.3-1.7-0.3v0c0,0-0.1,0-0.1,0c-0.1,0-0.1,0-0.2,0v0c-0.6,0-1.2,0.1-1.7,0.3c-0.6,0.2-1.1,0.5-1.6,0.8
		c-0.4,0.4-0.8,0.8-1,1.3c-0.2,0.5-0.4,1-0.4,1.6c0,0.6,0.1,1.2,0.3,1.6c0.2,0.5,0.5,0.9,0.9,1.2c0.4,0.3,0.8,0.7,1.2,0.9
		c0.5,0.3,0.9,0.5,1.4,0.7c0.5,0.2,1,0.5,1.4,0.7c0.5,0.2,0.9,0.5,1.2,0.7c0.4,0.3,0.7,0.6,0.9,0.9c0.2,0.3,0.3,0.7,0.3,1.2
		c0,0.3-0.1,0.5-0.2,0.8c-0.1,0.3-0.3,0.5-0.6,0.7c-0.2,0.2-0.5,0.4-0.9,0.5c-0.3,0.1-0.7,0.2-1.1,0.2c-0.3,0-0.6,0-0.9-0.1
		c-0.1,0-0.2-0.1-0.3-0.1c-0.3-0.2-0.6-0.4-0.9-0.6c-0.3-0.3-0.5-0.6-0.6-1c-0.2-0.4-0.2-0.8-0.9-1.1c-0.7-0.4-2.1-0.1-2.1-0.1
		s0.3,1.2,0.6,1.7c0.4,0.5,0.8,0.9,1.3,1.2c0.5,0.3,1.2,0.6,1.8,0.8c0.6,0.2,1.2,0.3,1.8,0.3c0,0,0,0,0,0c0.9,0,1.8-0.1,2.4-0.3
		c0.7-0.2,1.3-0.5,1.7-0.9c0.5-0.4,0.8-0.9,1-1.4c0.2-0.5,0.3-1.1,0.3-1.7C145,24.3,144.8,23.7,144.6,23.3"/>
	<path class="st0" d="M134.9,32.7c-2,0.7-3.9,1.4-6.7,1.4c-7.1,0-14.5-5.1-20.6-1.6c7.8-1.2,13.1,3.8,20.7,3
		C130.7,35.2,132.9,34.3,134.9,32.7"/>
	<path class="st0" d="M119.4,35.7c-6.1,0.3-10.2-1.1-14.8-2.7c-3.9-1.1-8.8-1.6-11.9,1.1c3.3-1.2,6.8-0.8,9.8,0.1
		C105.2,35,112.4,38.4,119.4,35.7"/>
	<path class="st0" d="M63.3,34.9c-2-1-2.1-1.8-2.1-3.1v-0.3c0,0,0,0,0,0V12.8c0-2.3-2.9-2.9-2.9-2.9v20.8h0v0.1
		c0,1.6-1.3,2.8-2.8,2.8h-0.6l0,0.4c2.6,0,5.3,0.8,7.9,2.2c12.9,7,22.7,7.5,29.3-1.2C92,35,81.5,44.3,63.3,34.9"/>
</g>
<g>
	<path class="st1" d="M10.8,68.4V51.2c0-1-0.1-1.7-0.4-2.3C10.1,48.3,9.5,48,8.5,48H7.9v-0.6h8.3c0.6,0,1.2,0,1.9,0.1
		c0.7,0.1,1.4,0.2,2.1,0.5c0.7,0.2,1.4,0.6,2,1.1c0.6,0.5,1.1,1.1,1.5,1.8c0.4,0.8,0.6,1.7,0.6,2.9c0,1.1-0.2,2-0.5,2.7
		c-0.4,0.7-0.8,1.3-1.4,1.8s-1.2,0.8-1.8,1c-0.6,0.2-1.2,0.4-1.8,0.4s-1,0.1-1.4,0.1h-3.5v8.6L10.8,68.4L10.8,68.4z M13.6,58.7H16
		c0.4,0,0.9-0.1,1.5-0.3c0.6-0.2,1.1-0.5,1.6-0.9c0.5-0.4,1-0.9,1.3-1.6c0.3-0.6,0.5-1.5,0.5-2.4s-0.2-1.8-0.5-2.4
		c-0.3-0.6-0.8-1.2-1.3-1.6c-0.5-0.4-1.1-0.7-1.6-0.9c-0.6-0.2-1.1-0.3-1.5-0.3c-0.4,0-0.8,0-1.3,0.1c-0.4,0.1-0.8,0.1-1.1,0.2
		L13.6,58.7z"/>
	<path class="st1" d="M38.3,69.1c-2,0-3.8-0.5-5.3-1.5c-1.5-1-2.6-2.3-3.4-4c-0.8-1.7-1.2-3.6-1.2-5.7c0-2.1,0.4-4,1.2-5.7
		c0.8-1.7,2-3,3.4-4c1.5-1,3.2-1.5,5.3-1.5c2,0,3.8,0.5,5.3,1.5c1.5,1,2.6,2.3,3.4,4c0.8,1.7,1.2,3.6,1.2,5.7c0,2.1-0.4,4-1.2,5.7
		c-0.8,1.7-2,3-3.4,4C42.1,68.6,40.4,69.1,38.3,69.1z M38.3,67.8c1.4,0,2.6-0.4,3.6-1.2c1-0.8,1.8-1.9,2.3-3.4
		c0.5-1.5,0.8-3.2,0.8-5.2s-0.3-3.8-0.8-5.2S43,50.1,42,49.3c-1-0.8-2.2-1.2-3.6-1.2c-1.4,0-2.6,0.4-3.6,1.2c-1,0.8-1.8,1.9-2.3,3.4
		c-0.5,1.5-0.8,3.2-0.8,5.2c0,2,0.3,3.8,0.8,5.2c0.5,1.5,1.3,2.6,2.3,3.4C35.8,67.4,37,67.8,38.3,67.8z"/>
	<path class="st1" d="M68.9,68.8c-0.7,0-1.4-0.1-2-0.4c-0.6-0.3-1.2-0.8-1.8-1.4c-0.6-0.7-1.2-1.6-1.9-2.8l-3.2-5.4h-2.2v9.7h-2.9
		V51.2c0-1-0.1-1.7-0.4-2.3c-0.3-0.6-0.9-0.9-1.8-0.9h-0.6v-0.6h8.3c0.5,0,1.2,0,1.9,0.1s1.4,0.2,2.1,0.4c0.7,0.2,1.4,0.5,2,1
		c0.6,0.4,1.1,1,1.5,1.7c0.4,0.7,0.6,1.5,0.6,2.5c0,1.2-0.3,2.2-0.8,2.9c-0.5,0.7-1.2,1.3-2,1.7c-0.8,0.4-1.6,0.7-2.4,0.9l3.4,5.6
		c0.8,1.4,1.5,2.3,2.2,2.8s1.4,0.8,2.1,0.9v0.6c-0.2,0.1-0.4,0.2-0.8,0.2C69.7,68.7,69.3,68.8,68.9,68.8z M57.7,57.6H60
		c0.5,0,1-0.1,1.6-0.3s1.1-0.4,1.7-0.8c0.5-0.4,1-0.8,1.3-1.4c0.3-0.6,0.5-1.3,0.5-2.1c0-0.8-0.2-1.5-0.5-2.1
		c-0.3-0.6-0.8-1-1.3-1.4s-1.1-0.6-1.7-0.8s-1.1-0.3-1.6-0.3c-0.3,0-0.7,0-1.2,0.1c-0.4,0.1-0.8,0.1-1.1,0.2L57.7,57.6L57.7,57.6z"
		/>
	<path class="st1" d="M80.6,68.4V48.7h-2.9c-1.3,0-2.3,0.3-3,0.9c-0.7,0.6-1,1.5-1,2.8H73V50c0-0.4,0.1-0.8,0.2-1.2
		c0.1-0.4,0.4-0.7,0.8-1s1-0.4,1.7-0.4h14.9v1.3h-7.2v19.8L80.6,68.4L80.6,68.4z"/>
	<path class="st1" d="M103,69.1c-2,0-3.8-0.5-5.3-1.5c-1.5-1-2.6-2.3-3.4-4c-0.8-1.7-1.2-3.6-1.2-5.7c0-2.1,0.4-4,1.2-5.7
		c0.8-1.7,2-3,3.4-4c1.5-1,3.2-1.5,5.3-1.5c2,0,3.8,0.5,5.3,1.5c1.5,1,2.6,2.3,3.4,4s1.2,3.6,1.2,5.7c0,2.1-0.4,4-1.2,5.7
		c-0.8,1.7-2,3-3.4,4C106.8,68.6,105,69.1,103,69.1z M103,67.8c1.4,0,2.6-0.4,3.6-1.2c1-0.8,1.8-1.9,2.3-3.4
		c0.5-1.5,0.8-3.2,0.8-5.2s-0.3-3.8-0.8-5.2c-0.5-1.5-1.3-2.6-2.3-3.4c-1-0.8-2.2-1.2-3.6-1.2c-1.4,0-2.6,0.4-3.6,1.2
		c-1,0.8-1.8,1.9-2.3,3.4c-0.5,1.5-0.8,3.2-0.8,5.2c0,2,0.3,3.8,0.8,5.2c0.5,1.5,1.3,2.6,2.3,3.4C100.4,67.4,101.6,67.8,103,67.8z"
		/>
	<path class="st1" d="M119.5,68.4V51.2c0-1-0.1-1.7-0.4-2.3s-0.9-0.9-1.8-0.9h-0.6v-0.6h12.8c0.7,0,1.3,0.1,1.7,0.4s0.6,0.6,0.8,1
		c0.1,0.4,0.2,0.8,0.2,1.2v2.4h-0.6c0-1.3-0.3-2.2-1-2.8c-0.7-0.6-1.7-0.9-3-0.9h-5.1v8.4h7.2v1.3h-7.2v10L119.5,68.4L119.5,68.4z"
		/>
	<path class="st1" d="M140.6,68.4c-0.7,0-1.3-0.1-1.7-0.3c-0.4-0.2-0.7-0.6-0.9-1.1c-0.2-0.6-0.3-1.4-0.3-2.4V47.4h2.9v17.2
		c0,1,0.1,1.7,0.4,2.3c0.3,0.6,0.9,0.9,1.8,0.9h0.6v0.6L140.6,68.4L140.6,68.4z"/>
	<path class="st1" d="M164.4,68.8l-13.8-17v16.7h-1.3V51.2c0-1-0.2-1.7-0.6-2.3s-1.2-0.9-2.3-0.9h-0.3v-0.6h2.1c1,0,1.9,0.2,2.6,0.5
		s1.3,0.8,1.7,1.4l11.2,13.9V47.4h1.3v21.4L164.4,68.8L164.4,68.8z"/>
	<path class="st1" d="M181.1,69.1c-2,0-3.8-0.5-5.3-1.5c-1.5-1-2.6-2.3-3.4-4c-0.8-1.7-1.2-3.6-1.2-5.7c0-2.1,0.4-4,1.2-5.7
		s2-3,3.4-4c1.5-1,3.2-1.5,5.3-1.5c2,0,3.8,0.5,5.3,1.5c1.5,1,2.6,2.3,3.4,4s1.2,3.6,1.2,5.7c0,2.1-0.4,4-1.2,5.7
		c-0.8,1.7-2,3-3.4,4C184.8,68.6,183.1,69.1,181.1,69.1z M181.1,67.8c1.4,0,2.6-0.4,3.6-1.2c1-0.8,1.8-1.9,2.3-3.4
		c0.5-1.5,0.8-3.2,0.8-5.2s-0.3-3.8-0.8-5.2c-0.5-1.5-1.3-2.6-2.3-3.4c-1-0.8-2.2-1.2-3.6-1.2c-1.4,0-2.6,0.4-3.6,1.2
		c-1,0.8-1.8,1.9-2.3,3.4c-0.5,1.5-0.8,3.2-0.8,5.2c0,2,0.3,3.8,0.8,5.2c0.5,1.5,1.3,2.6,2.3,3.4C178.5,67.4,179.7,67.8,181.1,67.8z
		"/>
</g>
</svg>
