<?xml version="1.0" encoding="utf-8"?>
<!-- Generator: Adobe Illustrator 16.0.0, SVG Export Plug-In . SVG Version: 6.00 Build 0)  -->
<!DOCTYPE svg PUBLIC "-//W3C//DTD SVG 1.1//EN" "http://www.w3.org/Graphics/SVG/1.1/DTD/svg11.dtd">
<svg version="1.1" id="Layer_1" xmlns="http://www.w3.org/2000/svg" xmlns:xlink="http://www.w3.org/1999/xlink" x="0px" y="0px"
	 width="200px" height="70px" viewBox="0 0 200 70" enable-background="new 0 0 200 70" xml:space="preserve">
<g id="Group_791" transform="translate(903.692 87.221)">
	<g id="Group_788" transform="translate(-774.488 -81.999)">
		<g id="Group_786" transform="translate(0 31.758)">
			<path id="Path_429" d="M-32.391,7.353c0-2.196-0.014-2.611-0.03-3.092c-0.015-0.613-0.224-0.852-0.657-0.896
				c-0.18-0.015-0.389-0.029-0.553-0.044c-0.224-0.015-0.268-0.074-0.268-0.15c0-0.119,0.119-0.149,0.299-0.149
				c0.912,0,1.658,0.044,2.39,0.044c0.986,0,1.867-0.044,2.45-0.044c3.153,0,3.751,1.464,3.751,2.301
				c0,1.21-0.836,1.986-1.822,2.495c1.568,0.478,2.898,1.434,2.898,3.241c0,1.658-1.553,3.302-4.528,3.302
				c-0.553,0-2.315-0.09-2.764-0.09c-0.658,0-1.359,0.044-2.167,0.044c-0.208,0-0.313-0.044-0.313-0.149s0.074-0.149,0.299-0.149
				c0.151-0.008,0.301-0.027,0.448-0.06c0.268-0.045,0.433-0.269,0.478-0.822c0.06-0.821,0.09-1.688,0.09-3.57L-32.391,7.353z
				 M-29.806,9.893c0,0.717-0.015,1.763,0.031,2.525c0.029,0.478,0.089,0.669,0.388,0.821c0.301,0.166,0.642,0.249,0.986,0.238
				c0.777,0,1.703-0.536,1.703-2.032c0.041-0.856-0.277-1.69-0.881-2.3c-0.382-0.349-0.874-0.55-1.39-0.568
				c-0.249-0.016-0.498-0.016-0.747,0c-0.06,0-0.09,0.03-0.09,0.104L-29.806,9.893z M-29.806,7.518c0,0.119,0.06,0.134,0.134,0.149
				c0.312,0.041,0.626,0.062,0.941,0.06c0.318,0.023,0.632-0.061,0.897-0.238c0.36-0.381,0.54-0.897,0.493-1.419
				c0-1.21-0.598-2.227-1.778-2.227c-0.182-0.006-0.363,0.02-0.537,0.075c-0.089,0.029-0.149,0.059-0.149,0.268L-29.806,7.518z"/>
			<path id="Path_430" d="M-22.052,7.353c0-2.314,0-2.745-0.045-3.227c-0.029-0.418-0.193-0.687-0.521-0.747
				c-0.148-0.033-0.297-0.054-0.449-0.06c-0.18,0-0.283-0.061-0.283-0.164c0-0.091,0.074-0.135,0.328-0.135
				c0.598,0,2.063,0.044,2.182,0.044c0.133,0,1.896-0.044,2.434-0.044c0.254,0,0.33,0.06,0.33,0.149c0,0.12-0.135,0.15-0.285,0.15
				c-0.15,0.015-0.238,0.015-0.434,0.044c-0.389,0.075-0.535,0.269-0.568,0.804c-0.043,0.479-0.043,0.866-0.043,3.182v2.633
				c0,1.181,0.016,2.569,0.074,3.197c0.029,0.389,0.119,0.657,0.566,0.762c0.217,0.04,0.438,0.064,0.658,0.074
				c0.254,0,0.313,0.061,0.313,0.149c0,0.075-0.072,0.15-0.313,0.15c-1.016,0-2.611-0.045-2.744-0.045
				c-0.076,0-1.645,0.045-2.152,0.045c-0.24,0-0.357-0.029-0.357-0.15c0-0.104,0.117-0.149,0.299-0.149
				c0.148-0.015,0.299-0.029,0.461-0.06c0.314-0.045,0.42-0.374,0.463-0.804c0.061-0.628,0.092-1.703,0.092-3.167L-22.052,7.353z"/>
			<path id="Path_431" d="M-15.614,3.514c0.016-0.449,0.076-0.717,0.256-0.717c0.119,0,0.195,0.044,0.582,0.358
				c0.627,0.522,1.406,1.271,4.826,4.406c1.523,1.406,2.555,2.405,2.957,2.764l-0.09-5.602c-0.029-0.837-0.104-1.226-0.701-1.33
				C-8.003,3.355-8.22,3.33-8.442,3.32c-0.193,0-0.268-0.074-0.268-0.15c0-0.104,0.135-0.148,0.301-0.148
				c0.596,0,1.566,0.044,2.164,0.044c0.33,0,1.076-0.044,1.703-0.044c0.225,0,0.328,0.044,0.328,0.134
				c0,0.074-0.074,0.165-0.252,0.165c-0.127,0.001-0.252,0.017-0.373,0.044c-0.494,0.06-0.645,0.313-0.689,1.24
				c-0.117,3.002-0.117,5.99-0.178,8.993c0,0.762-0.105,0.926-0.299,0.926c-0.24,0-0.703-0.358-1.674-1.21
				c-1.016-0.896-2.33-2.076-3.229-2.897c-0.836-0.762-2.328-2.166-3.42-3.228l0.148,5.095c0.031,1.075,0.09,1.479,0.508,1.628
				c0.262,0.063,0.525,0.098,0.793,0.104c0.225,0.015,0.299,0.061,0.299,0.15c0,0.12-0.119,0.149-0.359,0.149
				c-0.521,0-1-0.029-1.928-0.044c-0.342,0-1.449,0.044-2.031,0.044c-0.209,0-0.328-0.029-0.328-0.149c0-0.09,0.074-0.15,0.283-0.15
				c0.135-0.015,0.33-0.015,0.494-0.044c0.582-0.09,0.656-0.463,0.703-1.853C-15.675,9.041-15.702,5.441-15.614,3.514z"/>
			<path id="Path_432" d="M7.478,12.877c0,0.883-0.029,0.972-0.299,1.077c-1.182,0.384-2.416,0.575-3.66,0.566
				c-4.197,0-7.109-1.881-7.109-5.856c-0.076-1.995,0.959-3.87,2.688-4.869C0.409,3.081,1.892,2.74,3.384,2.809
				c0.811,0.006,1.619,0.076,2.42,0.21c0.508,0.06,1.002,0.164,1.434,0.179c0.133,0,0.166,0.059,0.15,0.193
				C7.241,4.299,7.185,5.218,7.224,6.137c0,0.239-0.061,0.314-0.166,0.314c-0.104,0-0.162-0.121-0.178-0.239
				C6.862,5.955,6.802,5.703,6.7,5.465C6.417,4.45,5.087,3.732,3.011,3.732c-1.008-0.063-1.99,0.333-2.674,1.076
				c-0.688,0.929-1.021,2.073-0.941,3.228c0,2.672,1.285,5.526,4.42,5.526c0.289,0.019,0.578-0.043,0.836-0.18
				c0.123-0.096,0.189-0.246,0.178-0.401v-0.907c0-0.612,0-1.194-0.014-1.747c0-0.852-0.193-1.165-0.701-1.24
				C3.919,9.057,3.726,9.042,3.472,9.012c-0.119,0-0.238-0.061-0.238-0.149c0-0.09,0.074-0.15,0.313-0.15
				c0.971,0,2.123,0.045,2.525,0.045c0.535,0,1.51-0.045,2.314-0.045c0.225,0,0.344,0.03,0.344,0.15c0,0.104-0.09,0.134-0.238,0.149
				c-0.061,0-0.254,0.03-0.402,0.045C7.73,9.131,7.565,9.295,7.521,9.818c-0.029,0.479-0.043,1.255-0.043,1.987V12.877z"/>
			<path id="Path_433" d="M17.89,7.623c0.045,0,0.09-0.03,0.09-0.104V7.204c0-2.314,0-2.569-0.031-3.047
				c-0.029-0.434-0.148-0.688-0.641-0.793c-0.121-0.014-0.344-0.029-0.523-0.044c-0.209,0-0.285-0.09-0.285-0.15
				c0-0.089,0.076-0.148,0.299-0.148c0.867,0,2.211,0.044,2.361,0.044c0.133,0,1.852-0.044,2.494-0.044
				c0.225,0,0.299,0.06,0.299,0.148c0,0.075-0.074,0.15-0.223,0.15c-0.256,0.03-0.344,0.03-0.523,0.06
				c-0.389,0.061-0.508,0.314-0.553,0.792c-0.031,0.479-0.031,0.866-0.031,3.182v2.63c0,1.42,0,2.525,0.074,3.152
				c0.045,0.493,0.166,0.747,0.613,0.822c0.209,0.03,0.508,0.044,0.658,0.06c0.178,0,0.252,0.074,0.252,0.149
				c0,0.104-0.117,0.149-0.297,0.149c-1.031,0-2.539-0.044-2.809-0.044c-0.238,0-1.406,0.044-2.135,0.044
				c-0.27,0-0.33-0.074-0.33-0.164c0-0.074,0.09-0.134,0.285-0.134c0.154-0.012,0.309-0.031,0.461-0.06
				c0.359-0.075,0.451-0.358,0.494-0.836c0.059-0.628,0.09-1.569,0.09-2.988v-1.21c0.002-0.048-0.035-0.087-0.082-0.09
				c-0.002,0-0.006,0-0.008,0h-4.66c-0.043-0.007-0.084,0.022-0.092,0.065c0,0.008,0,0.017,0,0.024v1.554
				c0,1.419,0.018,2.031,0.076,2.674c0.043,0.432,0.178,0.717,0.627,0.791c0.314,0.045,0.463,0.06,0.627,0.074
				c0.164,0,0.285,0.046,0.285,0.15c0,0.074-0.074,0.149-0.301,0.149c-0.85,0-2.611-0.044-2.762-0.044
				c-0.135,0-1.703,0.044-2.182,0.044c-0.164,0-0.328-0.029-0.328-0.134s0.059-0.165,0.254-0.165c0.18-0.015,0.268-0.029,0.463-0.06
				c0.359-0.045,0.494-0.434,0.523-0.882c0.045-0.627,0.074-1.674,0.074-3.092v-2.6c0-2.315-0.014-2.659-0.045-3.137
				c-0.029-0.523-0.193-0.804-0.717-0.883C9.554,3.336,9.48,3.336,9.315,3.322c-0.27-0.015-0.299-0.09-0.299-0.164
				c0-0.104,0.164-0.135,0.328-0.135c0.865,0,2.016,0.044,2.361,0.044c0.566,0,1.82-0.044,2.465-0.044
				c0.268,0,0.314,0.06,0.314,0.149c0,0.075-0.092,0.15-0.27,0.15c-0.174,0.011-0.35,0.03-0.523,0.06
				c-0.4,0.09-0.477,0.433-0.506,0.866c-0.045,0.479-0.045,1.091-0.045,2.958v0.314c0,0.074,0.045,0.104,0.09,0.104L17.89,7.623z"/>
			<path id="Path_434" d="M26.989,11.222c-0.074,0-0.104,0.03-0.133,0.105l-0.463,1.225c-0.127,0.306-0.207,0.627-0.24,0.956
				c0,0.283,0.135,0.418,0.449,0.448c0.164,0.03,0.402,0.044,0.523,0.06c0.225,0,0.268,0.074,0.268,0.149
				c0,0.121-0.121,0.15-0.314,0.15c-0.67,0-1.18-0.045-1.973-0.045c-0.164,0-1.15,0.045-1.896,0.045
				c-0.209,0-0.299-0.061-0.299-0.15c0-0.119,0.105-0.149,0.283-0.149c0.162-0.011,0.32-0.03,0.479-0.06
				c0.523-0.104,0.822-0.568,1.139-1.285L28.8,3.648c0.285-0.643,0.447-0.866,0.613-0.866c0.15,0,0.283,0.21,0.535,0.748
				c0.389,0.836,2.898,6.559,3.914,8.828c0.508,1.165,0.836,1.523,1.359,1.6c0.156,0.032,0.316,0.052,0.479,0.06
				c0.193,0,0.283,0.06,0.283,0.149c0,0.104-0.104,0.149-0.389,0.149c-1.465,0-3.168-0.029-4.123-0.044
				c-0.24,0-0.328-0.045-0.328-0.134s0.074-0.149,0.209-0.179c0.164-0.03,0.223-0.134,0.18-0.269l-1.002-2.374
				c-0.016-0.053-0.063-0.091-0.119-0.091L26.989,11.222z M29.978,10.028c0.09,0,0.09-0.045,0.074-0.074l-1.314-3.197
				c-0.045-0.104-0.076-0.074-0.104,0L27.36,9.954c-0.014,0.044,0.016,0.074,0.061,0.074H29.978z"/>
			<path id="Path_435" d="M40.569,9.983c0,1.165,0,2.555,0.074,3.182c0.029,0.389,0.133,0.702,0.582,0.777
				c0.195,0.03,0.375,0.045,0.645,0.074c0.236,0.015,0.297,0.061,0.297,0.165c0,0.09-0.074,0.134-0.344,0.134
				c-1.016,0-2.465-0.044-2.703-0.044c-0.254,0-1.703,0.044-2.195,0.044c-0.238,0-0.346-0.029-0.346-0.149
				c0-0.104,0.121-0.15,0.301-0.15c0.148-0.015,0.314-0.029,0.477-0.059c0.33-0.061,0.434-0.389,0.479-0.822
				c0.061-0.627,0.092-1.704,0.092-3.152V4.125c-0.584,0-1.51-0.014-2.258,0.031c-0.836,0.044-1.164,0.238-1.357,0.761
				c-0.053,0.112-0.098,0.227-0.135,0.344C34.148,5.38,34.101,5.5,33.997,5.5c-0.133,0-0.133-0.12-0.119-0.3
				c0.059-0.612,0.223-1.419,0.328-1.986c0.029-0.225,0.074-0.373,0.164-0.373c0.172,0.029,0.342,0.069,0.508,0.119
				c0.551,0.074,1.104,0.109,1.658,0.104h6.496c0.314,0.004,0.631-0.016,0.943-0.06c0.15-0.039,0.305-0.069,0.463-0.09
				c0.133,0,0.148,0.09,0.148,0.463c0,0.209-0.09,1.599-0.105,1.972c-0.014,0.209-0.059,0.299-0.148,0.299
				c-0.119,0-0.15-0.09-0.164-0.269c-0.016-0.164-0.016-0.224-0.031-0.299c-0.059-0.463-0.283-0.821-1.164-0.881
				c-0.494-0.044-1.271-0.075-2.404-0.075V9.983z"/>
			<path id="Path_436" d="M51.857,9.983c0,1.165,0,2.555,0.072,3.182c0.031,0.389,0.135,0.702,0.584,0.777
				c0.193,0.03,0.375,0.045,0.643,0.074c0.238,0.015,0.299,0.061,0.299,0.165c0,0.09-0.074,0.134-0.344,0.134
				c-1.016,0-2.465-0.044-2.703-0.044c-0.254,0-1.703,0.044-2.195,0.044c-0.24,0-0.346-0.029-0.346-0.149
				c0-0.104,0.119-0.15,0.299-0.15c0.15-0.015,0.316-0.029,0.479-0.059c0.328-0.061,0.434-0.389,0.479-0.822
				c0.061-0.627,0.09-1.704,0.09-3.152V4.125c-0.582,0-1.508-0.014-2.256,0.031c-0.836,0.044-1.164,0.238-1.359,0.761
				c-0.051,0.111-0.096,0.227-0.133,0.344C45.433,5.38,45.39,5.5,45.284,5.5c-0.133,0-0.133-0.12-0.119-0.3
				c0.059-0.612,0.225-1.419,0.328-1.986c0.029-0.225,0.074-0.373,0.164-0.373c0.172,0.029,0.342,0.069,0.508,0.119
				c0.551,0.074,1.104,0.109,1.658,0.104h6.496c0.314,0.004,0.629-0.016,0.941-0.06c0.152-0.039,0.307-0.069,0.463-0.09
				c0.133,0,0.148,0.09,0.148,0.463c0,0.209-0.09,1.599-0.104,1.972c-0.016,0.209-0.059,0.299-0.15,0.299
				c-0.119,0-0.15-0.09-0.162-0.269c-0.016-0.164-0.016-0.224-0.031-0.299c-0.061-0.463-0.285-0.821-1.164-0.881
				c-0.494-0.044-1.273-0.075-2.406-0.075L51.857,9.983z"/>
			<path id="Path_437" d="M57.757,7.353c0-2.314,0-2.745-0.047-3.227c-0.029-0.418-0.193-0.687-0.521-0.747
				c-0.148-0.033-0.299-0.054-0.449-0.06c-0.178,0-0.285-0.061-0.285-0.164c0-0.091,0.076-0.135,0.33-0.135
				c0.598,0,2.061,0.044,2.18,0.044c0.135,0,1.898-0.044,2.436-0.044c0.256,0,0.328,0.06,0.328,0.149c0,0.12-0.133,0.15-0.283,0.15
				c-0.148,0.015-0.238,0.015-0.434,0.044c-0.387,0.075-0.533,0.269-0.566,0.804c-0.045,0.479-0.045,0.866-0.045,3.182v2.633
				c0,1.181,0.014,2.569,0.074,3.197c0.031,0.389,0.121,0.657,0.568,0.762c0.217,0.04,0.436,0.064,0.656,0.074
				c0.256,0,0.314,0.061,0.314,0.149c0,0.075-0.074,0.15-0.314,0.15c-1.016,0-2.611-0.045-2.746-0.045
				c-0.074,0-1.643,0.045-2.15,0.045c-0.238,0-0.359-0.029-0.359-0.15c0-0.104,0.121-0.149,0.301-0.149
				c0.148-0.015,0.299-0.029,0.463-0.06c0.313-0.045,0.418-0.374,0.463-0.804c0.061-0.628,0.09-1.703,0.09-3.167L57.757,7.353z"/>
		</g>
		<g id="Group_787" transform="translate(0.065)">
			<path id="Path_438" d="M-16.074,25.151h-2.521c-0.734,0.04-1.453-0.224-1.986-0.729c-0.51-0.543-0.773-1.271-0.73-2.014v-3.799
				h-1.736c-1.543,0-2.316,0.982-2.316,2.946c0,1.51,0.578,2.282,1.736,2.315h1.535v1.205c0.02,1.021-0.346,2.014-1.02,2.78
				c-0.699,0.791-1.678,1.282-2.73,1.371h-2.869c-1.497,0.102-2.959-0.481-3.976-1.584c-0.89-1.185-1.327-2.649-1.232-4.127v-3.348
				h2.712v3.296c-0.073,1.197,0.257,2.384,0.937,3.372c0.354,0.415,0.794,0.749,1.289,0.979c0.308,0.151,0.645,0.23,0.988,0.229l0,0
				c0.58,0.01,1.154-0.12,1.674-0.377c0.35-0.168,0.652-0.419,0.887-0.729c0.352-0.446,0.555-0.993,0.576-1.561
				c-0.867,0.02-1.705-0.316-2.316-0.931c-0.666-0.693-1.013-1.632-0.956-2.592c-0.048-1.197,0.382-2.364,1.192-3.246
				c0.795-0.838,2.418-1.258,3.705-1.258h4.336v4.63c0,1.006,0.445,1.509,1.334,1.51h1.484L-16.074,25.151z M-27.981,32.048
				c0.004,0.292-0.11,0.572-0.314,0.78c-0.207,0.216-0.495,0.334-0.793,0.326c-0.299,0.007-0.589-0.106-0.804-0.314
				c-0.216-0.205-0.335-0.493-0.327-0.792c-0.006-0.301,0.112-0.592,0.327-0.804c0.211-0.215,0.502-0.333,0.804-0.326
				c0.293-0.003,0.576,0.114,0.78,0.326c0.215,0.212,0.332,0.501,0.327,0.802V32.048z M-25.011,32.048
				c0.004,0.292-0.111,0.572-0.314,0.78c-0.207,0.216-0.494,0.334-0.795,0.326c-0.297,0.007-0.586-0.106-0.803-0.314
				c-0.215-0.205-0.334-0.493-0.326-0.792c-0.008-0.301,0.111-0.592,0.326-0.804c0.213-0.215,0.502-0.333,0.803-0.326
				c0.295-0.003,0.578,0.114,0.781,0.326c0.215,0.212,0.332,0.501,0.328,0.802V32.048z"/>
			<path id="Path_439" d="M2.684,25.152h-18.758V23.49h5.576v-7.197l-0.275-2.265l3.189-0.201l-0.201,2.44v5.335
				c0.598-1.063,1.402-1.997,2.365-2.746c1.002-0.936,2.305-1.488,3.674-1.561c1.131-0.047,2.246,0.271,3.184,0.906
				c0.807,0.557,1.275,1.485,1.246,2.465V25.152z M-0.029,23.49v-2.517c0-1.406,0.006-2.068-1.82-2.113
				c-1.063-0.027-2.252,0.629-3.568,1.887c-0.896,0.742-1.607,1.681-2.076,2.745L-0.029,23.49z"/>
			<path id="Path_440" d="M10.483,25.152H8.172c-0.732,0.039-1.453-0.225-1.986-0.73c-0.51-0.544-0.773-1.272-0.73-2.016V16.14
				l-0.326-2.365l3.039-0.503v8.706c0,1.006,0.443,1.509,1.334,1.51h0.98V25.152z"/>
			<path id="Path_441" d="M23.59,25.152H10.483V23.49h6.414c-0.504-0.674-0.762-1.5-0.73-2.341
				c-0.039-1.034,0.332-2.042,1.033-2.805c0.68-0.728,1.646-1.12,2.641-1.072c1.197,0.066,2.338,0.527,3.246,1.309l-0.705,0.831
				c-0.301-0.405-0.76-0.662-1.264-0.705c-1.492,0-2.238,0.864-2.238,2.592c-0.033,0.617,0.195,1.22,0.629,1.661
				c0.363,0.35,0.854,0.541,1.359,0.528h0.955l1.516-0.252L23.59,25.152z M20.696,14.406c0.002,0.293-0.113,0.575-0.322,0.779
				c-0.209,0.215-0.498,0.333-0.797,0.327c-0.293,0.003-0.574-0.11-0.785-0.314c-0.221-0.204-0.342-0.492-0.334-0.792
				c-0.008-0.304,0.115-0.595,0.334-0.804c0.207-0.21,0.49-0.329,0.785-0.327c0.295-0.001,0.576,0.117,0.783,0.327
				C20.581,13.811,20.702,14.103,20.696,14.406L20.696,14.406z"/>
			<path id="Path_442" d="M56.219,25.152H38.887c-0.338,0.001-0.676-0.042-1.004-0.126c-0.186,1.209-0.824,2.302-1.787,3.058
				c-1.07,0.782-2.373,1.177-3.699,1.12c-1.744,0-3.943-0.536-4.85-1.608c-0.885-1.207-1.322-2.684-1.234-4.177V20.07h2.713v3.296
				c0,1.443,0.24,2.646,0.949,3.421c0.537,0.788,1.43,1.26,2.383,1.259c0.84,0.043,1.635-0.383,2.063-1.107
				c0.627-1.027,0.926-2.221,0.852-3.423v-3.195l-0.326-2.441l3.039-0.503v4.275c0,1.225,0.445,1.837,1.334,1.837h16.904
				L56.219,25.152z M33.071,20.118c0.002,0.294-0.115,0.576-0.328,0.78c-0.211,0.216-0.502,0.334-0.805,0.328
				c-0.291,0.004-0.57-0.109-0.779-0.314c-0.219-0.214-0.336-0.511-0.326-0.817c-0.002-0.294,0.115-0.577,0.326-0.78
				c0.205-0.212,0.486-0.33,0.779-0.327c0.303-0.006,0.594,0.112,0.805,0.327C32.958,19.526,33.077,19.817,33.071,20.118
				L33.071,20.118z"/>
			<path id="Path_443" d="M61.756,22.471c0.037,0.723-0.229,1.43-0.73,1.95c-0.539,0.498-1.256,0.756-1.988,0.717h-2.818v-1.661
				h1.473c0.9,0,1.35-0.486,1.35-1.46V20.21l-0.301-2.365l3.014-0.479L61.756,22.471z M60.774,28.108
				c-0.002,0.289-0.119,0.566-0.326,0.768c-0.209,0.222-0.5,0.345-0.805,0.339c-0.291,0.005-0.572-0.108-0.779-0.313
				c-0.219-0.214-0.34-0.511-0.328-0.817c-0.002-0.294,0.117-0.577,0.328-0.78c0.205-0.212,0.486-0.33,0.779-0.327
				c0.301-0.006,0.594,0.112,0.805,0.327C60.663,27.515,60.78,27.806,60.774,28.108L60.774,28.108z"/>
		</g>
	</g>
	<path id="Path_444" d="M-835.968-50.649c-2.641-2.512-5.966-4.186-9.557-4.812l-8.612-8.169c-3.445-3.269-8.015-5.09-12.764-5.09
		h-18.227l0.755,0.978c1.408,1.823,3.582,2.89,5.885,2.89h10.294c4.592-0.008,9.011,1.755,12.337,4.921l4.419,4.196h-23.617
		l1.741,2.247c0.792,1.022,2.012,1.62,3.306,1.62h19.982c1.008,0,2.014,0.085,3.008,0.255c2.678,0.459,5.217,1.518,7.428,3.098
		c0.669,0.479,1.305,1.004,1.901,1.57l7.765,7.366h-31.339c-6.06,0.006-11.717-3.029-15.063-8.082l-11.489-17.265
		c-1.579-2.374-4.241-3.8-7.093-3.8l0,0l5.744,8.706c0.058,0.095,0.112,0.192,0.175,0.285l10.407,15.662
		c3.462,5.225,9.313,8.361,15.58,8.354h42.779L-835.968-50.649z"/>
	<rect id="Rectangle_2548" x="-814.492" y="-72.222" width="0.967" height="40.002"/>
</g>
</svg>
