<?xml version="1.0" encoding="utf-8"?>
<!-- Generator: Adobe Illustrator 26.0.1, SVG Export Plug-In . SVG Version: 6.00 Build 0)  -->
<!DOCTYPE svg PUBLIC "-//W3C//DTD SVG 1.1//EN" "http://www.w3.org/Graphics/SVG/1.1/DTD/svg11.dtd" [
	<!ENTITY ns_extend "http://ns.adobe.com/Extensibility/1.0/">
	<!ENTITY ns_ai "http://ns.adobe.com/AdobeIllustrator/10.0/">
	<!ENTITY ns_graphs "http://ns.adobe.com/Graphs/1.0/">
	<!ENTITY ns_vars "http://ns.adobe.com/Variables/1.0/">
	<!ENTITY ns_imrep "http://ns.adobe.com/ImageReplacement/1.0/">
	<!ENTITY ns_sfw "http://ns.adobe.com/SaveForWeb/1.0/">
	<!ENTITY ns_custom "http://ns.adobe.com/GenericCustomNamespace/1.0/">
	<!ENTITY ns_adobe_xpath "http://ns.adobe.com/XPath/1.0/">
]>
<svg version="1.1" id="Layer_1" xmlns:x="&ns_extend;" xmlns:i="&ns_ai;" xmlns:graph="&ns_graphs;"
	 xmlns="http://www.w3.org/2000/svg" xmlns:xlink="http://www.w3.org/1999/xlink" x="0px" y="0px" viewBox="0 0 200 58.8"
	 style="enable-background:new 0 0 200 58.8;" xml:space="preserve">
<style type="text/css">
	.st0{fill:#080505;}
	.st1{fill:#F8AF41;}
	.st2{fill:#376278;}
	.st3{fill:#FFC663;}
	.st4{fill:#F6CE76;}
	.st5{fill:#0D98BB;}
	.st6{fill:#70B599;}
	.st7{fill:#EAE3AC;}
	.st8{fill:#91060D;}
	.st9{fill:#2D628C;}
	.st10{fill:#012944;}
	.st11{fill:#043754;}
	.st12{fill:#1D324D;}
	.st13{fill:#8C7449;}
	.st14{fill:#003756;}
	.st15{fill:#53B2D3;}
	.st16{fill:#082042;}
	.st17{fill:#055985;}
	.st18{fill:#A08C6A;}
	.st19{clip-path:url(#SVGID_00000153703673966043509250000002329839221653130633_);}
	.st20{filter:url(#Adobe_OpacityMaskFilter);}
	.st21{opacity:0.9;mask:url(#SVGID_00000080171253732194215710000011471379482570166187_);fill:#FFFFFF;}
	.st22{filter:url(#Adobe_OpacityMaskFilter_00000072260622670621858440000013241359001985421967_);}
	.st23{opacity:0.75;mask:url(#SVGID_00000054946828573134086920000000184881672425452474_);}
	.st24{filter:url(#Adobe_OpacityMaskFilter_00000029757513798630716280000002658584944303804342_);}
	.st25{mask:url(#SVGID_00000110465165356198212090000011202245517645372317_);fill:#FFFFFF;}
	.st26{filter:url(#Adobe_OpacityMaskFilter_00000067935381762523801170000000141195555676411543_);}
	.st27{opacity:0.75;mask:url(#SVGID_00000067954642346569078560000001331834732964407171_);}
	.st28{fill:none;stroke:#000000;stroke-width:1.2;}
	.st29{clip-path:url(#SVGID_00000008854514220092349090000009306825864186881982_);}
	.st30{fill:#1E2731;}
	.st31{fill:#777779;}
	
		.st32{clip-path:url(#SVGID_00000067225934908777210570000010908246273144947391_);fill:url(#SVGID_00000008857408415800476620000011675842946388146859_);}
</style>
<metadata>
	<sfw  xmlns="&ns_sfw;">
		<slices></slices>
		<sliceSourceBounds  bottomLeftOrigin="true" height="515.4" width="2527.2" x="1.1" y="-405.1"></sliceSourceBounds>
	</sfw>
</metadata>
<g>
	<path class="st10" d="M197.2,36.5H3c-1,0-1.8-0.1-1.8-0.2C1.2,36.1,2,36,3,36h194.2c1,0,1.8,0.1,1.8,0.2
		C199,36.4,198.2,36.5,197.2,36.5z"/>
	<g>
		<path class="st10" d="M42.4,3.8h3.8c1.2,0,2.2,0.1,3.1,0.3c0.9,0.2,1.6,0.6,2.1,1.1c0.7,0.6,1.1,1.2,1.5,1.9
			c0.3,0.7,0.5,1.5,0.5,2.4c0,0.8-0.1,1.6-0.4,2.3c-0.3,0.7-0.7,1.3-1.3,1.9c-0.6,0.5-1.3,0.9-2.1,1.3c-0.8,0.3-1.8,0.5-2.9,0.5
			h-4.3V3.8z M44.3,14.5h2.1c0.7,0,1.3-0.1,1.8-0.3c0.6-0.2,1.1-0.5,1.5-1c0.4-0.4,0.8-0.9,1-1.6c0.2-0.6,0.4-1.3,0.4-2.1
			c0-0.7-0.1-1.4-0.3-2c-0.2-0.6-0.6-1.1-1-1.5c-0.4-0.4-0.9-0.8-1.5-1c-0.6-0.2-1.2-0.4-1.9-0.4h-2.1V14.5z"/>
		<path class="st10" d="M55.6,3.8h1.9v7.5c0,0.5,0.1,1,0.3,1.4c0.2,0.4,0.4,0.8,0.7,1.1c0.3,0.3,0.7,0.6,1.1,0.8
			c0.4,0.2,0.9,0.3,1.5,0.3c0.5,0,1-0.1,1.5-0.3c0.4-0.2,0.8-0.4,1.1-0.8c0.3-0.3,0.5-0.7,0.7-1.1c0.2-0.4,0.2-0.9,0.2-1.4V3.8h0.9
			v7.5c0,0.6-0.1,1.1-0.3,1.7c-0.2,0.5-0.5,1-0.9,1.4c-0.4,0.4-0.9,0.7-1.6,0.9c-0.6,0.2-1.4,0.3-2.3,0.3c-0.8,0-1.5-0.1-2.1-0.3
			c-0.6-0.2-1.1-0.5-1.5-0.9c-0.4-0.4-0.7-0.9-0.9-1.4c-0.2-0.5-0.3-1.1-0.3-1.7V3.8z"/>
		<path class="st10" d="M68.4,3.8H73c0.6,0,1.2,0.1,1.7,0.2c0.5,0.1,1,0.3,1.3,0.6c0.4,0.2,0.7,0.5,0.9,0.9c0.2,0.3,0.3,0.7,0.3,1.2
			c0,0.3,0,0.6-0.1,0.8C77,7.8,76.9,8,76.7,8.2c-0.2,0.2-0.4,0.4-0.6,0.6c-0.3,0.2-0.6,0.4-1,0.6v0c0.4,0.1,0.8,0.2,1.1,0.3
			c0.3,0.2,0.6,0.4,0.9,0.6c0.2,0.2,0.4,0.5,0.5,0.8c0.1,0.3,0.2,0.7,0.2,1.1c0,0.4-0.1,0.8-0.3,1.2c-0.2,0.4-0.5,0.7-0.8,1
			c-0.4,0.3-0.8,0.5-1.3,0.7c-0.5,0.2-1.1,0.2-1.7,0.2h-5.4V3.8z M70.3,9h2.5c0.4,0,0.7-0.1,1-0.2c0.3-0.1,0.6-0.3,0.8-0.5
			C74.8,8.2,74.9,8,75,7.7c0.1-0.3,0.2-0.6,0.2-0.9c0-0.3-0.1-0.6-0.2-0.9c-0.1-0.3-0.3-0.5-0.6-0.7c-0.3-0.2-0.6-0.3-1-0.5
			c-0.4-0.1-0.9-0.2-1.5-0.2h-1.6V9z M70.3,14.5h2.1c0.6,0,1.1-0.1,1.5-0.2c0.4-0.1,0.8-0.3,1-0.4c0.3-0.2,0.5-0.4,0.6-0.7
			c0.1-0.3,0.2-0.6,0.2-0.9c0-0.4-0.1-0.7-0.2-1c-0.1-0.3-0.3-0.6-0.6-0.8c-0.3-0.2-0.6-0.4-1-0.5c-0.4-0.1-0.9-0.2-1.6-0.2h-2V14.5
			z"/>
		<path class="st10" d="M85,3.6l5.4,11.8h-2l-1.8-3.8h-4.9l-1.8,3.8h-1l5.6-11.8H85z M82.1,10.8h4.2l-2.1-4.6L82.1,10.8z"/>
		<rect x="92.1" y="3.8" class="st10" width="1.9" height="11.5"/>
		<path class="st10" d="M103.7,9.6c0,0.8,0.1,1.5,0.4,2.2c0.2,0.6,0.6,1.2,1,1.6c0.4,0.4,0.9,0.8,1.5,1c0.6,0.2,1.2,0.4,1.9,0.4
			c0.4,0,0.8-0.1,1.2-0.2c0.4-0.2,0.7-0.4,1-0.6c0.3-0.2,0.6-0.5,0.9-0.9c0.3-0.3,0.5-0.6,0.6-1l0.8,0.5c-0.2,0.4-0.5,0.8-0.8,1.1
			c-0.3,0.4-0.7,0.7-1.1,0.9c-0.4,0.3-0.9,0.5-1.4,0.7c-0.5,0.2-1.1,0.2-1.8,0.2c-0.6,0-1.2-0.1-1.8-0.2c-0.6-0.1-1.1-0.3-1.6-0.6
			c-0.5-0.3-0.9-0.6-1.3-0.9c-0.4-0.4-0.7-0.8-0.9-1.2c-0.3-0.4-0.5-0.9-0.6-1.4c-0.1-0.5-0.2-1-0.2-1.6c0-0.5,0.1-1.1,0.2-1.6
			c0.1-0.5,0.3-1,0.6-1.4c0.3-0.4,0.6-0.9,1-1.2c0.4-0.4,0.8-0.7,1.3-1c0.5-0.3,1-0.5,1.6-0.6c0.6-0.2,1.2-0.2,1.8-0.2
			c0.6,0,1.2,0.1,1.7,0.2c0.5,0.2,1,0.4,1.4,0.7c0.4,0.3,0.8,0.6,1.1,0.9c0.3,0.4,0.6,0.7,0.9,1.1l-0.8,0.6c-0.5-0.9-1-1.6-1.6-2.1
			c-0.6-0.4-1.3-0.7-2.1-0.7c-0.7,0-1.3,0.1-1.9,0.4c-0.6,0.2-1.1,0.6-1.5,1c-0.4,0.5-0.8,1-1,1.6C103.8,8.1,103.7,8.8,103.7,9.6"/>
		<path class="st10" d="M115.4,3.8h4c0.7,0,1.3,0.1,1.8,0.2c0.5,0.1,1,0.4,1.3,0.6c0.3,0.3,0.6,0.6,0.8,1c0.2,0.4,0.3,0.8,0.3,1.2
			c0,0.4-0.1,0.7-0.2,1c-0.1,0.3-0.3,0.6-0.6,0.8c-0.2,0.3-0.5,0.5-0.9,0.7c-0.3,0.2-0.7,0.3-1.2,0.4l4.2,5.6h-2.2l-4-5.4h-1.4v5.4
			h-1.9V3.8z M117.3,9.4h1.1c0.4,0,0.8-0.1,1.2-0.2c0.4-0.1,0.7-0.3,1-0.5c0.3-0.2,0.5-0.5,0.6-0.8c0.2-0.3,0.2-0.6,0.2-1
			c0-0.3-0.1-0.7-0.2-0.9c-0.1-0.3-0.3-0.5-0.5-0.7c-0.2-0.2-0.5-0.4-0.8-0.5c-0.3-0.1-0.6-0.2-1-0.2h-1.7V9.4z"/>
		<polygon class="st10" points="134.7,3.8 134.7,4.6 128.7,4.6 128.7,8.7 132.7,8.7 132.7,9.4 128.7,9.4 128.7,14.6 134.7,14.6 
			134.7,15.4 126.7,15.4 126.7,3.8 		"/>
		<polygon class="st10" points="145,3.8 145,4.6 138.9,4.6 138.9,8.7 143,8.7 143,9.4 138.9,9.4 138.9,14.6 145,14.6 145,15.4 
			137,15.4 137,3.8 		"/>
		<polygon class="st10" points="147,3.8 148.9,3.8 148.9,8.9 155,3.8 156.2,3.8 150.5,8.7 157.8,15.4 155.3,15.4 148.9,9.5 
			148.9,15.4 147,15.4 		"/>
		<polygon class="st10" points="76.6,21.7 77.2,21.7 77.2,24.5 80.8,24.5 80.8,21.7 81.4,21.7 81.4,28.1 80.8,28.1 80.8,25 77.2,25 
			77.2,28.1 76.6,28.1 		"/>
		<path class="st10" d="M86.4,21.7H87l2.7,6.4H89l-0.7-1.7h-3.4l-0.7,1.7h-0.6L86.4,21.7z M86.7,22.4l-1.5,3.5h2.9L86.7,22.4z"/>
		<path class="st10" d="M91.9,21.7h1.7c0.1,0,0.2,0,0.3,0c0.1,0,0.3,0,0.5,0.1c0.2,0,0.3,0.1,0.5,0.1c0.2,0.1,0.3,0.2,0.5,0.3
			c0.1,0.1,0.3,0.3,0.3,0.5c0.1,0.2,0.1,0.4,0.1,0.7c0,0.3-0.1,0.6-0.2,0.8c-0.1,0.2-0.2,0.4-0.4,0.5c-0.2,0.1-0.3,0.2-0.5,0.3
			c-0.2,0.1-0.4,0.1-0.6,0.1l1.9,3.1h-0.7l-1.8-3h-1.1v3h-0.6V21.7z M92.5,24.5h1.3c0.3,0,0.6,0,0.8-0.1c0.2-0.1,0.3-0.2,0.5-0.3
			c0.1-0.1,0.2-0.2,0.2-0.4c0-0.1,0.1-0.3,0.1-0.4c0-0.1,0-0.2-0.1-0.4c0-0.1-0.1-0.3-0.2-0.4c-0.1-0.1-0.3-0.2-0.5-0.3
			c-0.2-0.1-0.4-0.1-0.8-0.1h-1.3V24.5z"/>
		<path class="st10" d="M98.9,21.7h1.8c0.2,0,0.5,0,0.7,0.1c0.2,0,0.5,0.1,0.7,0.2c0.2,0.1,0.4,0.3,0.5,0.5c0.1,0.2,0.2,0.5,0.2,0.9
			c0,0.3-0.1,0.6-0.3,0.8c-0.2,0.2-0.5,0.4-0.9,0.5v0c0.2,0,0.4,0.1,0.6,0.1c0.2,0.1,0.3,0.2,0.4,0.3c0.1,0.1,0.2,0.3,0.3,0.5
			c0.1,0.2,0.1,0.4,0.1,0.6c0,0.4-0.1,0.7-0.2,0.9c-0.1,0.2-0.3,0.4-0.5,0.5c-0.2,0.1-0.4,0.2-0.7,0.3c-0.2,0-0.5,0.1-0.7,0.1h-2
			V21.7z M99.5,24.5h1.2c0.3,0,0.6,0,0.7-0.1c0.2-0.1,0.3-0.2,0.4-0.3c0.1-0.1,0.2-0.2,0.2-0.3c0-0.1,0.1-0.2,0.1-0.3
			c0-0.2,0-0.4-0.1-0.6c-0.1-0.1-0.2-0.3-0.3-0.4c-0.1-0.1-0.3-0.1-0.4-0.2c-0.2,0-0.3-0.1-0.5-0.1h-1.3V24.5z M99.5,27.5h1.4
			c0.3,0,0.6,0,0.8-0.1c0.2-0.1,0.4-0.2,0.5-0.3c0.1-0.1,0.2-0.3,0.2-0.4c0-0.1,0.1-0.3,0.1-0.4c0-0.2,0-0.4-0.1-0.6
			c-0.1-0.2-0.2-0.3-0.4-0.4c-0.1-0.1-0.3-0.2-0.5-0.2c-0.2,0-0.4-0.1-0.6-0.1h-1.4V27.5z"/>
		<path class="st10" d="M105.2,24.9c0-0.5,0.1-0.9,0.2-1.3c0.2-0.4,0.4-0.8,0.7-1.1c0.3-0.3,0.6-0.5,1-0.7c0.4-0.2,0.9-0.2,1.3-0.2
			c0.5,0,0.9,0.1,1.3,0.2c0.4,0.2,0.8,0.4,1,0.7c0.3,0.3,0.5,0.6,0.7,1.1c0.2,0.4,0.2,0.9,0.2,1.3c0,0.5-0.1,0.9-0.2,1.3
			c-0.2,0.4-0.4,0.8-0.7,1.1c-0.3,0.3-0.6,0.5-1,0.7c-0.4,0.2-0.8,0.2-1.3,0.2c-0.5,0-0.9-0.1-1.3-0.2c-0.4-0.2-0.7-0.4-1-0.7
			c-0.3-0.3-0.5-0.6-0.7-1.1C105.3,25.8,105.2,25.4,105.2,24.9 M105.8,24.9c0,0.4,0.1,0.8,0.2,1.1c0.1,0.3,0.3,0.6,0.5,0.9
			c0.2,0.3,0.5,0.4,0.8,0.6c0.3,0.1,0.7,0.2,1.1,0.2c0.4,0,0.8-0.1,1.1-0.2c0.3-0.1,0.6-0.3,0.8-0.6c0.2-0.3,0.4-0.5,0.5-0.9
			c0.1-0.3,0.2-0.7,0.2-1.1c0-0.4-0.1-0.8-0.2-1.1c-0.1-0.3-0.3-0.6-0.5-0.9c-0.2-0.3-0.5-0.5-0.8-0.6c-0.3-0.1-0.7-0.2-1.1-0.2
			c-0.4,0-0.8,0.1-1.1,0.2c-0.3,0.1-0.6,0.3-0.8,0.6c-0.2,0.3-0.4,0.5-0.5,0.9C105.9,24.1,105.8,24.5,105.8,24.9"/>
		<path class="st10" d="M118.7,25.6c0,0.3,0,0.7-0.1,1c-0.1,0.3-0.2,0.6-0.4,0.8c-0.2,0.2-0.4,0.4-0.7,0.6c-0.3,0.1-0.7,0.2-1.1,0.2
			c-0.4,0-0.8-0.1-1.1-0.2c-0.3-0.1-0.5-0.3-0.7-0.6c-0.2-0.2-0.3-0.5-0.4-0.8c-0.1-0.3-0.1-0.6-0.1-1v-3.9h0.6v3.8
			c0,0.2,0,0.5,0.1,0.7c0,0.3,0.1,0.5,0.2,0.7c0.1,0.2,0.3,0.4,0.5,0.5c0.2,0.1,0.5,0.2,0.9,0.2c0.4,0,0.7-0.1,0.9-0.2
			c0.2-0.1,0.4-0.3,0.5-0.5c0.1-0.2,0.2-0.5,0.2-0.7c0-0.3,0.1-0.5,0.1-0.7v-3.8h0.6V25.6z"/>
		<path class="st10" d="M121.4,21.7h1.7c0.1,0,0.2,0,0.3,0c0.1,0,0.3,0,0.5,0.1c0.2,0,0.3,0.1,0.5,0.1c0.2,0.1,0.3,0.2,0.5,0.3
			c0.1,0.1,0.3,0.3,0.3,0.5c0.1,0.2,0.1,0.4,0.1,0.7c0,0.3-0.1,0.6-0.2,0.8c-0.1,0.2-0.2,0.4-0.4,0.5c-0.2,0.1-0.3,0.2-0.5,0.3
			c-0.2,0.1-0.4,0.1-0.5,0.1l1.9,3.1h-0.7l-1.8-3H122v3h-0.6V21.7z M122,24.5h1.3c0.3,0,0.6,0,0.8-0.1c0.2-0.1,0.3-0.2,0.5-0.3
			c0.1-0.1,0.2-0.2,0.2-0.4c0-0.1,0.1-0.3,0.1-0.4c0-0.1,0-0.2-0.1-0.4c0-0.1-0.1-0.3-0.2-0.4c-0.1-0.1-0.3-0.2-0.5-0.3
			c-0.2-0.1-0.4-0.1-0.8-0.1H122V24.5z"/>
	</g>
	<g>
		<path class="st10" d="M27.8,48.4c-0.5-2.3-2-3.2-4.3-3.2c-3.3,0-4.7,2.8-4.7,6.1c0,3.1,1.1,6.2,4.9,6.2c2.4,0,3.8-1.6,4.3-3.8h1.4
			c-0.6,2.6-2.3,4.9-5.9,4.9c-4.2,0-5.9-3.3-5.9-7.2c0-5.2,2.7-7.2,6.4-7.2c2.8,0,4.9,1.5,5.3,4.3H27.8z"/>
		<path class="st10" d="M33.1,51.9v6.2h-1.3V44.5h5.4c3,0,4.7,1.1,4.7,3.6c0,1.7-0.6,2.6-2.2,3.4c1.6,0.6,1.7,2.3,1.8,3.7
			c0.1,2.1,0.2,2.6,0.6,2.9v0.1h-1.4c-0.5-0.9-0.4-3.5-0.6-4.6c-0.3-1.5-1.4-1.7-2.7-1.7H33.1z M37.1,50.8c1.9,0,3.4-0.8,3.4-2.7
			c0-2.1-1.6-2.6-3.3-2.6h-4.1v5.3H37.1z"/>
		<path class="st10" d="M44.5,58.2V44.5h9.1v1.1h-7.8v5h7.1v1.1h-7.1v5.4h8v1.1H44.5z"/>
		<path class="st10" d="M56.1,58.2V44.5h9.1v1.1h-7.8v5h7.1v1.1h-7.1v5.4h8v1.1H56.1z"/>
		<path class="st10" d="M67.8,58.2V44.5h1.3v7.1l7-7.1h1.5l-5.4,5.5l6.4,8.2H77l-5.7-7.4l-2.2,2.2v5.3H67.8z"/>
		<path class="st10" d="M95.5,48.4c-0.5-2.3-2-3.2-4.3-3.2c-3.3,0-4.7,2.8-4.7,6.1c0,3.1,1.1,6.2,4.9,6.2c2.4,0,3.8-1.6,4.3-3.8H97
			c-0.6,2.6-2.3,4.9-5.9,4.9c-4.2,0-5.9-3.3-5.9-7.2c0-5.2,2.7-7.2,6.4-7.2c2.8,0,4.9,1.5,5.3,4.3H95.5z"/>
		<path class="st10" d="M100.8,51.9v6.2h-1.3V44.5h5.4c3,0,4.7,1.1,4.7,3.6c0,1.7-0.6,2.6-2.2,3.4c1.6,0.6,1.7,2.3,1.8,3.7
			c0.1,2.1,0.2,2.6,0.6,2.9v0.1h-1.4c-0.5-0.9-0.4-3.5-0.6-4.6c-0.3-1.5-1.4-1.7-2.7-1.7H100.8z M104.8,50.8c1.9,0,3.4-0.8,3.4-2.7
			c0-2.1-1.6-2.6-3.3-2.6h-4.1v5.3H104.8z"/>
		<path class="st10" d="M112.2,58.2V44.5h9.1v1.1h-7.8v5h7.1v1.1h-7.1v5.4h8v1.1H112.2z"/>
		<path class="st10" d="M124.4,54.1c0.2,2.5,1.8,3.4,3.9,3.4c2.5,0,3.5-1.3,3.5-2.8c0-4.2-8.4-1.4-8.4-6.8c0-1.9,1.6-3.7,4.6-3.7
			c3.1,0,4.6,1.9,4.6,4.1h-1.2c0-2.1-1.6-3-3.4-3c-2.6,0-3.6,1.6-3.4,3c0.6,3.5,8.4,1,8.4,6.3c0,2.5-1.8,4-5,4c-2.9,0-5-1.5-5-4.5
			H124.4z"/>
		<path class="st10" d="M145.2,48.4c-0.5-2.3-2-3.2-4.3-3.2c-3.3,0-4.7,2.8-4.7,6.1c0,3.1,1.1,6.2,4.9,6.2c2.4,0,3.8-1.6,4.3-3.8
			h1.4c-0.6,2.6-2.3,4.9-5.9,4.9c-4.2,0-5.9-3.3-5.9-7.2c0-5.2,2.7-7.2,6.4-7.2c2.8,0,4.9,1.5,5.3,4.3H145.2z"/>
		<path class="st10" d="M149.2,58.2V44.5h9.1v1.1h-7.8v5h7.1v1.1h-7.1v5.4h8v1.1H149.2z"/>
		<path class="st10" d="M162.2,46.2L162.2,46.2l0,12h-1.3V44.5h1.5l7.9,12h0v-12h1.3v13.7h-1.5L162.2,46.2z"/>
		<path class="st10" d="M173.4,44.5h10v1.1H179v12.6h-1.3V45.6h-4.3V44.5z"/>
	</g>
</g>
</svg>
