<?xml version="1.0" encoding="utf-8"?>
<!-- Generator: Adobe Illustrator 26.0.1, SVG Export Plug-In . SVG Version: 6.00 Build 0)  -->
<!DOCTYPE svg PUBLIC "-//W3C//DTD SVG 1.1//EN" "http://www.w3.org/Graphics/SVG/1.1/DTD/svg11.dtd" [
	<!ENTITY ns_extend "http://ns.adobe.com/Extensibility/1.0/">
	<!ENTITY ns_ai "http://ns.adobe.com/AdobeIllustrator/10.0/">
	<!ENTITY ns_graphs "http://ns.adobe.com/Graphs/1.0/">
	<!ENTITY ns_vars "http://ns.adobe.com/Variables/1.0/">
	<!ENTITY ns_imrep "http://ns.adobe.com/ImageReplacement/1.0/">
	<!ENTITY ns_sfw "http://ns.adobe.com/SaveForWeb/1.0/">
	<!ENTITY ns_custom "http://ns.adobe.com/GenericCustomNamespace/1.0/">
	<!ENTITY ns_adobe_xpath "http://ns.adobe.com/XPath/1.0/">
]>
<svg version="1.1" id="Layer_1" xmlns:x="&ns_extend;" xmlns:i="&ns_ai;" xmlns:graph="&ns_graphs;"
	 xmlns="http://www.w3.org/2000/svg" xmlns:xlink="http://www.w3.org/1999/xlink" x="0px" y="0px" viewBox="0 0 395.8 70"
	 style="enable-background:new 0 0 395.8 70;" xml:space="preserve">
<style type="text/css">
	.st0{fill:#034962;}
	.st1{clip-path:url(#SVGID_00000021801323731680091410000001401185381878160533_);}
	.st2{clip-path:url(#SVGID_00000071550411260635378970000009554426287522471615_);}
	.st3{fill:#131718;}
	.st4{fill:#C36F2C;}
	
		.st5{clip-path:url(#SVGID_00000155845927160782031800000004621631069782819239_);fill:url(#SVGID_00000072279066709124638310000003240738987328460715_);}
</style>
<metadata>
	<sfw  xmlns="&ns_sfw;">
		<slices></slices>
		<sliceSourceBounds  bottomLeftOrigin="true" height="982.1" width="2151.6" x="136.2" y="-917.4"></sliceSourceBounds>
	</sfw>
</metadata>
<path class="st4" d="M115.7,56.5v0.4c1.9,0.3,2.4,0.9,2.4,2.7v7h0l-7.5-10.1h-3.7v0.4c1.6,0,2.2,0.8,2.2,1.7v7.7
	c0,1.8-0.4,2.4-2.2,2.7v0.4h5.1V69c-1.9-0.3-2.3-0.9-2.3-2.7v-7.9h0l8.5,11.3h0.6V59.6c0-1.8,0.3-2.4,2.1-2.7v-0.4H115.7z
	 M124.4,56.5v0.4c1.7,0.1,2.1,0.4,2.1,1.1v9.9c0,0.7-0.4,1-2.1,1.1v0.4h11.3l0.1-4.1l-0.4,0c-0.9,2.4-1.7,3.6-4.3,3.6h-2.7V63h1.2
	c1.5,0,2.2,0.3,2.7,2.4h0.4v-5.3h-0.4c-0.5,2-1.2,2.4-2.7,2.4h-1.2v-5.4h2.7c2.2,0,2.9,1,3.7,3.3l0.4,0l-0.1-3.8H124.4z M150.3,57
	h1.5c2.6,0,3.2,1.3,3.2,3c0,1.9-0.5,3.2-3.2,3.2h-1.4V57z M146.4,56.5v0.4c1.7,0.1,2.1,0.4,2.1,1.1v9.9c0,0.7-0.4,1-2.1,1.1v0.4h6.2
	V69c-1.8-0.1-2.2-0.3-2.2-1.1v-4.2h1.3c4.1,0,5.4-1.9,5.4-3.7c0-1.9-1.3-3.5-5.3-3.5H146.4z M179.9,57h1.5c2.5,0,3.4,1,3.4,2.7
	c0,1.8-0.6,3-3.2,3h-1.7V57z M176,56.5v0.4c1.7,0.1,2.1,0.4,2.1,1.1v9.9c0,0.7-0.4,1-2.1,1.1v0.4h6V69c-1.8-0.1-2.1-0.3-2.1-1.1
	v-4.7h1.6c2.2,0,2.8,0.4,3,2.3l0.2,1.6c0.2,1.7,0.6,2.4,2.9,2.4c0.4,0,0.9-0.1,1.3-0.2V69c-1.5,0-1.9-0.3-2.2-1.8l-0.2-1.3
	c-0.3-1.7-0.7-2.8-3.3-3v-0.1c2.7-0.5,3.7-1.7,3.7-3.3c0-1.7-1.4-3.1-5.3-3.1H176z M199.8,56.5v0.4c1.9,0.2,1.8,1,0.7,2.1l-4.5,4.4
	V58c0-0.7,0.2-1,1.9-1.1v-0.4h-5.9v0.4c1.7,0.1,2.1,0.4,2.1,1.1v9.9c0,0.7-0.4,1-2.1,1.1v0.4h5.7V69c-1.6-0.1-1.8-0.3-1.8-1.1v-3.8
	l1.4-1.3l3.4,4.7c0.7,1,0.5,1.3-1,1.5v0.4h5.6V69c-1.4-0.2-1.8-0.5-2.8-1.9l-4.1-5.4l2.5-2.4c1.8-1.7,2.4-2.1,4-2.4v-0.4H199.8z
	 M237.9,56.5v0.4c1.8,0.3,2,0.8,1.3,2.6l-3,7.8h-0.1l-3.3-9c-0.3-0.9-0.1-1.3,1.7-1.4v-0.4h-5.8v0.4c1.5,0.3,1.8,0.6,2.2,1.7
	l4.3,11.2h0.6l4-10.1c0.8-1.9,1.2-2.5,2.6-2.8v-0.4H237.9z M245.6,56.5v0.4c1.7,0.1,2.1,0.4,2.1,1.1v9.9c0,0.7-0.4,1-2.1,1.1v0.4
	h11.3l0.1-4.1l-0.4,0c-0.9,2.4-1.7,3.6-4.3,3.6h-2.7V63h1.2c1.5,0,2.2,0.3,2.7,2.4h0.4v-5.3h-0.4c-0.5,2-1.2,2.4-2.7,2.4h-1.2v-5.4
	h2.7c2.2,0,2.9,1,3.7,3.3l0.4,0l-0.1-3.8H245.6z M270.1,56.5v0.4c1.9,0.3,2.4,0.9,2.4,2.7v7h0L265,56.5h-3.7v0.4
	c1.6,0,2.2,0.8,2.2,1.7v7.7c0,1.8-0.4,2.4-2.2,2.7v0.4h5.1V69c-1.9-0.3-2.3-0.9-2.3-2.7v-7.9h0l8.5,11.3h0.6V59.6
	c0-1.8,0.3-2.4,2.1-2.7v-0.4H270.1z M287.5,56.5v0.4c1.9,0.3,2.4,0.9,2.4,2.7v5.6c0,1.4-0.3,2.2-1,2.9c-0.6,0.6-1.5,0.9-2.5,0.9
	c-2.1,0-3.9-0.9-3.9-3.5V58c0-0.7,0.2-1,2-1.1v-0.4h-5.9v0.4c1.7,0.1,2.1,0.4,2.1,1.1v7.9c0,2.4,1.9,3.8,5,3.8
	c3.2,0,4.9-1.9,4.9-4.1v-6c0-1.8,0.3-2.4,2.1-2.7v-0.4H287.5z M296.2,56.5v0.4c1.7,0.1,2.1,0.4,2.1,1.1v9.9c0,0.7-0.4,1-2.1,1.1v0.4
	h11.3l0.1-4.1l-0.4,0c-0.9,2.4-1.7,3.6-4.3,3.6h-2.7V63h1.2c1.5,0,2.2,0.3,2.7,2.4h0.4v-5.3h-0.4c-0.5,2-1.2,2.4-2.7,2.4h-1.2v-5.4
	h2.7c2.2,0,2.9,1,3.7,3.3l0.4,0l-0.1-3.8H296.2z M92.1,63c0-4.6,1.7-6.2,4.1-6.2c2.4,0,4.2,1.6,4.2,6.2c0,4.6-1.7,6.2-4.1,6.2
	C93.9,69.2,92.1,67.6,92.1,63 M89.9,63c0,4.1,2.8,6.7,6.3,6.7c3.3,0,6.3-2.7,6.3-6.8c0-4.1-2.9-6.7-6.3-6.7
	C92.9,56.2,89.9,58.9,89.9,63 M165.6,58.6L165.6,58.6l2,5.4h-4.1L165.6,58.6z M166,56.2l-4,9.9c-0.8,1.9-1.3,2.6-2.6,2.9v0.4h4.4V69
	c-1.7-0.3-1.9-0.7-1.1-2.8l0.7-1.7h4.5l1,3c0.4,1.1,0.1,1.4-1.6,1.5v0.4h5.8V69c-1.5-0.2-1.8-0.6-2.2-1.8l-4.1-11.1H166z
	 M220.4,58.6L220.4,58.6l2,5.4h-4.1L220.4,58.6z M220.8,56.2l-4,9.9c-0.8,1.9-1.3,2.6-2.6,2.9v0.4h4.4V69c-1.7-0.3-1.9-0.7-1.1-2.8
	l0.7-1.7h4.5l1,3c0.4,1.1,0.1,1.4-1.7,1.5v0.4h5.8V69c-1.5-0.2-1.8-0.6-2.3-1.8l-4.1-11.1H220.8z M111.7,2.3v11.2H96.8V2.3h-4.1V30
	h4.1V15h14.9V30h4.1V2.3H111.7z M189.4,2.3v11.2h-14.9V2.3h-4.1V30h4.1V15h14.9V30h4.1V2.3H189.4z M237.6,3.8h2.7
	c4.8,0,6.8,2.1,6.8,6.2c0,4.1-2,6.2-6.8,6.2h-2.7V3.8z M233.5,2.3V30h4.1V17.8h1.3L249.3,30h4.1l-10.5-12.3c4.8-0.4,8.5-2.7,8.5-7.6
	c0-5.5-4.6-7.7-10.1-7.7H233.5z M257.7,2.3v1.5h8.5V30h4.1V3.8h8.5V2.3H257.7z M287.7,2.3V30h14.7v-1.5h-10.7V2.3H287.7z M376.8,3.8
	h3.5c6.1,0,11,4.6,11,12.3s-4.9,12.3-11,12.3h-3.5V3.8z M372.7,2.3V30h7.6c8.5,0,15.2-5.5,15.2-13.8c0-8.3-6.7-13.8-15.2-13.8H372.7
	z M68,15v-1.6V3.8h2.1c3.8,0,5.1,1.9,5.1,4.7c0,0.5,0.3,5-3.5,5.9c1,0.2,2.8,0.8,4.2,2.2c1.5,1.2,2.2,3.2,2.2,5.4
	c0,3.9-2.1,6.6-6.9,6.6H68V15z M64,2.2V30h7.7c5.8,0,10.9-2.4,10.9-7.7c0-4.2-3.2-7.1-7.8-8c2.6-0.9,4.3-2.8,4.3-5.6
	c0-4.5-4.1-6.4-9.2-6.4H64z M340,30h1.5V9.2L362,30.4V2.3h-1.5v20.8L340,1.8V30z M31.8,16.2c0-7.5,3.6-12.8,9.1-12.8
	c5.5,0,9.1,5.3,9.1,12.8c0,7.6-3.6,12.8-9.1,12.8C35.4,29,31.8,23.7,31.8,16.2 M27.7,16.2c0,8.4,5.8,14.4,13.2,14.4
	c7.4,0,13.2-5.9,13.2-14.4c0-8.2-5.7-14.4-13.2-14.4C33.4,1.8,27.7,7.9,27.7,16.2 M134.7,8.8l4.7,11.6H130L134.7,8.8z M124.4,30h1.6
	l3.3-8.1h10.7l3.3,8.1h4.3L136,1.6L124.4,30z M212.1,8.8l4.7,11.6h-9.5L212.1,8.8z M201.8,30h1.6l3.3-8.1h10.7l3.3,8.1h4.3
	L213.5,1.6L201.8,30z M318.7,8.7l4.7,11.6h-9.5L318.7,8.7z M308.4,30h1.6l3.3-8.1H324l3.3,8.1h4.3L320,1.6L308.4,30z M2.6,7.1
	c0,3.8,3,5.9,7.9,9.5c2.3,1.6,5.9,4.2,5.9,7.4c0,3-2.3,4.8-6.1,4.8c-4.4,0-7.6-2.6-8.3-3.3l1.9,3.4c1.9,1,4.3,1.4,6.4,1.4
	c3.6,0,9.9-1.3,9.9-7.6c0-4.4-3.2-6.9-8.4-10.5c-2.4-1.7-5.7-3.5-5.7-6.3c0-2.4,2.2-3.8,5.2-3.8c3,0,5.4,1.4,6,1.8l-1.5-2.6
	c-1-0.6-3.2-0.8-4.4-0.8C7.3,0.6,2.6,2.3,2.6,7.1"/>
</svg>
