<?xml version="1.0" encoding="utf-8"?>
<!-- Generator: Adobe Illustrator 26.0.1, SVG Export Plug-In . SVG Version: 6.00 Build 0)  -->
<!DOCTYPE svg PUBLIC "-//W3C//DTD SVG 1.1//EN" "http://www.w3.org/Graphics/SVG/1.1/DTD/svg11.dtd" [
	<!ENTITY ns_extend "http://ns.adobe.com/Extensibility/1.0/">
	<!ENTITY ns_ai "http://ns.adobe.com/AdobeIllustrator/10.0/">
	<!ENTITY ns_graphs "http://ns.adobe.com/Graphs/1.0/">
	<!ENTITY ns_vars "http://ns.adobe.com/Variables/1.0/">
	<!ENTITY ns_imrep "http://ns.adobe.com/ImageReplacement/1.0/">
	<!ENTITY ns_sfw "http://ns.adobe.com/SaveForWeb/1.0/">
	<!ENTITY ns_custom "http://ns.adobe.com/GenericCustomNamespace/1.0/">
	<!ENTITY ns_adobe_xpath "http://ns.adobe.com/XPath/1.0/">
]>
<svg version="1.1" id="Layer_1" xmlns:x="&ns_extend;" xmlns:i="&ns_ai;" xmlns:graph="&ns_graphs;"
	 xmlns="http://www.w3.org/2000/svg" xmlns:xlink="http://www.w3.org/1999/xlink" x="0px" y="0px" viewBox="0 0 200 69.2"
	 style="enable-background:new 0 0 200 69.2;" xml:space="preserve">
<style type="text/css">
	.st0{fill:#808184;}
	.st1{clip-path:url(#SVGID_00000123421853322417768080000012303308853424052889_);}
	.st2{fill:#AC9C63;}
	.st3{fill:#038295;}
	
		.st4{clip-path:url(#SVGID_00000091000920532767652750000001722345924871484838_);fill:url(#SVGID_00000083796405215818134350000016722586882651551668_);}
	
		.st5{clip-path:url(#SVGID_00000011014162425948698360000003665144319052327865_);fill:url(#SVGID_00000162354365155256809760000003497887040634962603_);}
	
		.st6{clip-path:url(#SVGID_00000025426653334900810240000005565914092380993694_);fill:url(#SVGID_00000087399462883051285580000007689733068849223832_);}
	.st7{fill:url(#SVGID_00000052073332373811917060000004126822570198343613_);}
	.st8{fill:url(#SVGID_00000118389996489542055160000011050224914604900761_);}
	.st9{fill:url(#SVGID_00000149371294474445352940000017359205810212838028_);}
	.st10{fill:url(#SVGID_00000034792883360910595150000018387313331000468876_);}
	.st11{fill:url(#SVGID_00000080177879543997482480000006655744925240429460_);}
	.st12{fill:url(#SVGID_00000109015883405380817970000006576450963009955988_);}
	.st13{fill:url(#SVGID_00000084527063941571112410000011288199341324395409_);}
	.st14{fill:url(#SVGID_00000088106160544107986930000012239651240965658277_);}
	.st15{fill:url(#SVGID_00000134219357173514856960000003229469555767777449_);}
	.st16{fill:url(#SVGID_00000103979280336359085100000000662022949411881654_);}
	.st17{fill:url(#SVGID_00000151536908509852943550000015495346120497550465_);}
	.st18{fill:url(#SVGID_00000089535122114160176670000008989169019128209297_);}
	.st19{fill:url(#SVGID_00000052824368565752643680000015654046069568331658_);}
	.st20{fill:url(#SVGID_00000142895295625362897990000016773564118525705404_);}
	.st21{fill:url(#SVGID_00000011008720416938818430000011885745236816807093_);}
	.st22{fill:url(#SVGID_00000035533188757017314380000013912551370456953496_);}
	.st23{fill:url(#SVGID_00000025430311686830773750000015511065136424982167_);}
	.st24{fill:url(#SVGID_00000132798887834738921690000008069765064461942974_);}
	.st25{fill:url(#SVGID_00000013874117164313562370000000582899624156297393_);}
	.st26{fill:url(#SVGID_00000108272525305962138040000012581239634127901878_);}
	.st27{fill:url(#SVGID_00000163778610683674666880000012911909887045615791_);}
	.st28{fill:url(#SVGID_00000031917239888491800850000001524546152195224495_);}
	.st29{fill:url(#SVGID_00000152966091583947607850000017537893557063356316_);}
	.st30{fill:url(#SVGID_00000076602241011160793240000009005060155416392857_);}
	.st31{fill:url(#SVGID_00000170270330639360695540000001037397598139064715_);}
	.st32{fill:url(#SVGID_00000142144009188328766330000007637329965337768600_);}
	.st33{fill:url(#SVGID_00000090273338786729445000000014788581147765144255_);}
	.st34{fill:url(#SVGID_00000037670734635203162380000014218113534278501808_);}
	.st35{fill:url(#SVGID_00000113315594914609213990000015267016553620075165_);}
	.st36{fill:url(#SVGID_00000097488516603097373850000008355889151747422636_);}
	.st37{fill:url(#SVGID_00000033348314303590426770000006285096214612313220_);}
	.st38{fill:url(#SVGID_00000078761497621723722930000010494697517720752564_);}
	.st39{fill:url(#SVGID_00000005944921997936172920000000171247165455895209_);}
	.st40{fill:url(#SVGID_00000170970298642697070070000016326790608425271692_);}
	.st41{fill:url(#SVGID_00000085224602556647037170000000792052857768005263_);}
	.st42{fill:url(#SVGID_00000047054829298260569880000009483812859596028033_);}
	.st43{fill:url(#SVGID_00000070098635248727414610000007081183144281442711_);}
	.st44{fill:url(#SVGID_00000145739605010894729670000012758956104060940205_);}
	.st45{fill:url(#SVGID_00000152256546675461366150000008735791987958678674_);}
	.st46{fill:url(#SVGID_00000139284603577411674630000003608516385882099085_);}
	.st47{fill:url(#SVGID_00000031906350896892987970000013756406969166773927_);}
	.st48{fill:url(#SVGID_00000039110523808220318610000014438501156747406496_);}
	.st49{fill:url(#SVGID_00000104679598416011028960000013701835835275177620_);}
	.st50{fill:url(#SVGID_00000004530655984682637660000012273389381961515908_);}
	.st51{fill:url(#SVGID_00000054230527448030260080000005018310223412022659_);}
	.st52{fill:url(#SVGID_00000174588116605237625530000000200416920183468938_);}
	.st53{fill:url(#SVGID_00000011723260272620231110000009408466740700912782_);}
	.st54{fill:#6AC1D5;}
	.st55{fill:#73BAB2;}
	.st56{fill:url(#SVGID_00000103954956952209916050000005025245389018343829_);}
	.st57{fill:url(#SVGID_00000120523650520133059910000003827503449875602615_);}
	.st58{fill:url(#SVGID_00000032626478493875810410000015242858565204843416_);}
	.st59{fill:url(#SVGID_00000166634327004001481070000018323790069213038527_);}
	.st60{fill:url(#SVGID_00000181769769966454227950000002181717778412766906_);}
	.st61{fill:url(#SVGID_00000106845191053138879650000016420042425570285494_);}
	.st62{fill:url(#SVGID_00000130622882560462508470000000115370677124569765_);}
	.st63{fill:url(#SVGID_00000080204681843476407690000009370003195269311419_);}
	.st64{fill:url(#SVGID_00000018955394702082997750000009428091807923032742_);}
	.st65{fill:url(#SVGID_00000121273221262420843330000002642597828573356188_);}
	.st66{fill:url(#SVGID_00000047021565824672644590000007127728148991377574_);}
	.st67{fill:url(#SVGID_00000140736517383790301290000013370973263090086795_);}
	.st68{fill:url(#SVGID_00000047749531191778107370000011582722263040749441_);}
	.st69{fill:url(#SVGID_00000011743034228106062850000003101030327734011282_);}
	.st70{fill:url(#SVGID_00000177476784355123045590000017876576981892816045_);}
	.st71{fill:url(#SVGID_00000032630975104304553180000009269652869775136419_);}
	.st72{fill:url(#SVGID_00000016753562214047844170000017115241969662267780_);}
	.st73{fill:url(#SVGID_00000130639380288498952090000013710648515641042358_);}
	.st74{fill:url(#SVGID_00000051385426688927410610000005376474496986939537_);}
	.st75{fill:url(#SVGID_00000139971915485993659730000010622205556939155121_);}
	.st76{fill:url(#SVGID_00000139257356950858130850000006245221261556843939_);}
	.st77{fill:url(#SVGID_00000150100974513541177580000004582824497529381292_);}
	.st78{fill:url(#SVGID_00000003074657050160077930000013951593349524146099_);}
	.st79{fill:url(#SVGID_00000146486680917858738460000002827176279489701770_);}
	.st80{fill:url(#SVGID_00000024710739868310334510000006215284675691146408_);}
	.st81{fill:url(#SVGID_00000002372099206071468040000011454980428802631844_);}
	.st82{fill:url(#SVGID_00000161600915180339629500000014376853114517749175_);}
	.st83{fill:url(#SVGID_00000135656314044672645060000011009156353863056046_);}
	.st84{fill:url(#SVGID_00000008133485437435816620000008455553561418126244_);}
	.st85{fill:url(#SVGID_00000029763425747413366660000000947288251552447653_);}
	.st86{fill:url(#SVGID_00000001622159600267828920000010550905770536320929_);}
	.st87{fill:url(#SVGID_00000057112687397219093020000005205136049358499005_);}
	.st88{fill:url(#SVGID_00000107581540165671852020000003503327687112998841_);}
	.st89{fill:url(#SVGID_00000042714782507690072550000016815108380425707179_);}
	.st90{fill:#004F54;}
	.st91{fill-rule:evenodd;clip-rule:evenodd;fill:#065055;}
	.st92{fill:#7A9699;}
	.st93{fill:#87A4AB;}
	
		.st94{clip-path:url(#SVGID_00000043446501609377921860000007515004812492988326_);fill:url(#SVGID_00000175291860534217390850000002057854587418841535_);}
	
		.st95{clip-path:url(#SVGID_00000151512392755030381090000011785304726013553848_);fill:url(#SVGID_00000079456479507338368700000013841382203900093625_);}
	
		.st96{clip-path:url(#SVGID_00000013152814945472148080000002578962726258305710_);fill:url(#SVGID_00000119797322000818465820000013669081831249628075_);}
	
		.st97{clip-path:url(#SVGID_00000097493599545798468170000002552096962439701667_);fill:url(#SVGID_00000178918648191462641500000011276538288157482412_);}
	
		.st98{clip-path:url(#SVGID_00000050623173367178863050000014364435850270764711_);fill:url(#SVGID_00000043432238499753148100000001182055733588732333_);}
	
		.st99{clip-path:url(#SVGID_00000034781767909810176940000011706363918404844215_);fill:url(#SVGID_00000032627944427710135160000006746693834426479240_);}
	
		.st100{clip-path:url(#SVGID_00000118372910496879271100000000155760427347383197_);fill:url(#SVGID_00000075144154356508699600000018048927071168308413_);}
	
		.st101{clip-path:url(#SVGID_00000072242340611560599610000006627730425791321485_);fill:url(#SVGID_00000145758484430835413970000008707342710561107898_);}
	
		.st102{clip-path:url(#SVGID_00000062913359416979025810000004881046678460925328_);fill:url(#SVGID_00000023986839924916235910000006678964964737178753_);}
	
		.st103{clip-path:url(#SVGID_00000019677499841826579170000011184576618306947973_);fill:url(#SVGID_00000017487711343709755310000008469609539913793699_);}
	
		.st104{clip-path:url(#SVGID_00000066507550976228793140000015735920088303645614_);fill:url(#SVGID_00000025420075161541862740000008570258926673543052_);}
	
		.st105{clip-path:url(#SVGID_00000178174250608122922010000011935633930685064091_);fill:url(#SVGID_00000017482077425391914610000013721065802865165246_);}
	
		.st106{clip-path:url(#SVGID_00000048461904795008184470000007047261071330811543_);fill:url(#SVGID_00000006680809288601252720000017181050018758254476_);}
	
		.st107{clip-path:url(#SVGID_00000164490468422232895480000004456086940275369111_);fill:url(#SVGID_00000170999078917709896350000004689050013052467874_);}
	
		.st108{clip-path:url(#SVGID_00000049936941659471577850000011215668658887046793_);fill:url(#SVGID_00000049923737167178318630000005732427148634688186_);}
	
		.st109{clip-path:url(#SVGID_00000104683467485803821040000003534369590717914045_);fill:url(#SVGID_00000123443448348813860390000004457395671971642537_);}
	
		.st110{clip-path:url(#SVGID_00000028307348617542188710000003105018203045795720_);fill:url(#SVGID_00000051375434474746383120000015789463069185867944_);}
	
		.st111{clip-path:url(#SVGID_00000116199183034173025690000003111946282096638337_);fill:url(#SVGID_00000096057652254215264410000005958386474103995819_);}
	
		.st112{clip-path:url(#SVGID_00000145759694275453302520000013410942066685362062_);fill:url(#SVGID_00000026126246431316735090000007170115109437206671_);}
	
		.st113{clip-path:url(#SVGID_00000098904561216556416250000017592676472175548824_);fill:url(#SVGID_00000114776064290725170950000004321741992581234614_);}
	
		.st114{clip-path:url(#SVGID_00000009571484289265980310000001000123796917881003_);fill:url(#SVGID_00000176752266781325807430000003555935509530990979_);}
	
		.st115{clip-path:url(#SVGID_00000056394831251433229820000006363195921940480700_);fill:url(#SVGID_00000086658943103698683540000001682064774744584125_);}
	
		.st116{clip-path:url(#SVGID_00000163764307416104816430000004628797347057601680_);fill:url(#SVGID_00000018932249276754418690000004707931930955835542_);}
	
		.st117{clip-path:url(#SVGID_00000133488325333078512820000006330265871085740716_);fill:url(#SVGID_00000170274443770317852060000004076058748634210227_);}
	
		.st118{clip-path:url(#SVGID_00000155123455943718222530000015427869264835232426_);fill:url(#SVGID_00000087405453630241770970000016173249401860357555_);}
	
		.st119{clip-path:url(#SVGID_00000178170998916106798230000002845783159459594140_);fill:url(#SVGID_00000052087747669584840380000016978154145243950494_);}
	
		.st120{clip-path:url(#SVGID_00000013166469188922415360000013242153274525132971_);fill:url(#SVGID_00000109009753782622666950000009171372485699150524_);}
	.st121{fill:#68934B;}
	.st122{fill:#5F7360;}
	.st123{fill:#7D897A;}
	.st124{fill:#5B8172;}
	.st125{fill:#54665D;}
	.st126{clip-path:url(#SVGID_00000075881788774746812610000004904055804317918852_);fill:#54665D;}
	.st127{fill:#00495C;}
</style>
<metadata>
	<sfw  xmlns="&ns_sfw;">
		<slices></slices>
		<sliceSourceBounds  bottomLeftOrigin="true" height="1021.1" width="4161.2" x="-38.2" y="-866.2"></sliceSourceBounds>
	</sfw>
</metadata>
<g>
	<path class="st127" d="M75.9,65.9L75.9,65.9c0,0.4-0.1,0.8-0.4,1.2c-0.3,0.4-0.7,0.6-1.2,0.9c-0.5,0.2-1.1,0.3-1.7,0.3
		c-0.8,0-1.4-0.1-1.9-0.2c-0.5-0.2-0.9-0.4-1.3-0.6l-0.1,0v-1.2h0.4l0,0.1c0.2,0.3,0.4,0.5,0.6,0.7c0.1,0.1,0.3,0.2,0.5,0.4l0,0
		c0.3,0.2,0.7,0.3,1.1,0.3c0.3,0,0.6,0,0.9,0l0.1,0c0,0,0.1,0,0.1,0c0.1,0,0.2,0,0.2,0c0.2,0,0.5-0.1,0.7-0.2
		c0.3-0.1,0.5-0.3,0.7-0.5c0.2-0.2,0.3-0.5,0.3-0.7c0,0,0,0,0-0.1c0,0,0-0.1,0-0.1c0-0.2-0.1-0.4-0.2-0.5c-0.1-0.1-0.1-0.2-0.2-0.3
		c-0.3-0.2-0.6-0.4-1-0.6c-0.1-0.1-0.4-0.1-0.9-0.3l-0.4-0.1c-0.5-0.2-1.1-0.4-1.6-0.6c-0.1-0.1-0.2-0.1-0.2-0.1
		c-0.2-0.1-0.4-0.3-0.6-0.5c-0.2-0.3-0.4-0.6-0.4-1c0,0,0-0.1,0-0.1c0,0,0-0.1,0-0.1c0-0.4,0.1-0.8,0.4-1.1c0.3-0.3,0.6-0.6,1.1-0.8
		c0.5-0.2,1-0.3,1.6-0.3c0.4,0,0.8,0,1.2,0.1c0.2,0,0.4,0.1,0.6,0.2c0.2,0.1,0.5,0.2,0.7,0.2l0.1,0v1.2h-0.4l0-0.1
		c-0.2-0.3-0.4-0.5-0.8-0.7c0,0,0,0,0,0c-0.4-0.2-0.9-0.3-1.4-0.3c-0.1,0-0.3,0-0.4,0c-0.5,0-0.9,0.2-1.3,0.5c0,0-0.1,0-0.1,0.1
		c0,0-0.1,0.1-0.1,0.1l0,0c-0.2,0.2-0.2,0.4-0.2,0.7c0,0,0,0,0,0.1c0,0,0,0.1,0,0.1c0,0.1,0,0.2,0.1,0.2c0.1,0.2,0.2,0.3,0.3,0.4
		l0,0c0.1,0.1,0.1,0.1,0.2,0.2c0,0,0,0,0.1,0c0.2,0.1,0.3,0.2,0.5,0.2c0.3,0.1,0.7,0.2,1.2,0.4c0.5,0.2,1,0.3,1.3,0.4
		c0.1,0,0.2,0.1,0.3,0.1c0.4,0.2,0.8,0.5,1.1,0.8c0.3,0.3,0.4,0.6,0.5,1C75.9,65.7,75.9,65.8,75.9,65.9
		C75.9,65.9,75.9,65.9,75.9,65.9"/>
	<polygon class="st127" points="78.7,67.3 84.1,67.3 84,68 77.7,68 77.7,59.8 84,59.8 84.1,60.5 78.7,60.5 78.7,62.8 81.8,62.8 
		81.8,63.5 78.7,63.5 	"/>
	<path class="st127" d="M88.3,65.2H92l-1.8-3.9L88.3,65.2z M94.4,68h-1.1l-1-2.1h-4c-0.2,0-0.5,0.1-0.6,0.4L87,68h-0.8l4.1-8.4h0.3
		L94,67l-0.1,0.1L94,67L94.4,68z"/>
	<path class="st127" d="M103.4,63.4v4.1l-0.1,0c-0.2,0-0.3,0.1-0.5,0.1c-0.3,0.1-0.6,0.2-0.8,0.3c-0.6,0.2-1.2,0.2-1.7,0.2
		c-1,0-1.8-0.2-2.5-0.6c-0.7-0.4-1.2-0.9-1.6-1.5c-0.4-0.6-0.5-1.4-0.5-2.1c0-0.8,0.2-1.5,0.5-2.1c0.4-0.6,0.9-1.2,1.6-1.5
		c0.7-0.4,1.5-0.6,2.5-0.6c0.5,0,1.1,0.1,1.7,0.2c0.6,0.2,1.1,0.3,1.3,0.5l0.1,0l0,1.2H103l0-0.1c0-0.1-0.2-0.2-0.5-0.4
		c-0.2-0.2-0.6-0.4-1-0.5c-0.4-0.2-0.9-0.2-1.4-0.2c-0.7,0-1.3,0.2-1.8,0.5c-0.5,0.3-0.9,0.8-1.1,1.3c-0.3,0.5-0.4,1.2-0.4,1.8
		c0,0.7,0.1,1.3,0.4,1.8c0.3,0.5,0.6,1,1.1,1.3c0.5,0.3,1.1,0.5,1.8,0.5c0.5,0,1-0.1,1.4-0.2c0.3-0.1,0.5-0.2,0.7-0.3
		c0.1-0.1,0.2-0.3,0.2-0.5v-3.1H103.4z"/>
	<path class="st127" d="M107.3,65.2h3.7l-1.8-3.9L107.3,65.2z M113.3,68h-1.1l-1-2.1h-4c-0.2,0-0.5,0.1-0.6,0.4l-0.8,1.8h-0.8
		l4.1-8.4h0.3l3.4,7.5l-0.1,0.1l0.1-0.1L113.3,68z"/>
	<polygon class="st127" points="121.6,60.5 117.7,60.5 117.7,68 116.7,68 116.7,60.5 112.7,60.5 112.9,59.8 121.4,59.8 	"/>
	<polygon class="st127" points="124.3,67.3 129.8,67.3 129.6,68 123.4,68 123.4,59.8 129.6,59.8 129.8,60.5 124.3,60.5 124.3,62.8 
		127.5,62.8 127.5,63.5 124.3,63.5 	"/>
	<rect x="1" y="47.3" class="st127" width="197.2" height="0.3"/>
	<path class="st127" d="M67.7,6.5c-0.3,0.1-0.7,0.2-1.1,0.2c-0.1,0-0.3,0-0.4,0c-0.2,0-0.3,0-0.4-0.1V1.3c0.1,0,0.3-0.1,0.5-0.1
		c0.2,0,0.5-0.1,0.9-0.1c0.4,0,0.7,0.1,1,0.2c0.3,0.1,0.5,0.3,0.7,0.5C69,2,69.1,2.3,69.2,2.6s0.1,0.7,0.1,1.1
		c0,0.5-0.1,0.9-0.2,1.3C69,5.4,68.8,5.7,68.6,6C68.4,6.2,68.1,6.4,67.7,6.5 M73.1,12.2c-0.1,0-0.2-0.1-0.3-0.2
		c-0.1-0.1-0.2-0.2-0.3-0.3c-0.1-0.1-0.2-0.2-0.3-0.4c-0.1-0.1-0.3-0.3-0.4-0.5l-2.8-4c0.3-0.1,0.6-0.3,0.9-0.5
		c0.3-0.2,0.5-0.4,0.7-0.7c0.2-0.3,0.3-0.6,0.4-0.9C70.9,4.4,71,4.1,71,3.7c0-0.5-0.1-0.9-0.3-1.3c-0.2-0.4-0.4-0.7-0.8-1
		c-0.3-0.3-0.7-0.5-1.1-0.6c-0.4-0.1-0.9-0.2-1.4-0.2c-0.6,0-1,0-1.4,0.1c-0.4,0.1-0.6,0.1-0.9,0.1c-0.1,0-0.3,0-0.4,0
		c-0.1,0-0.2,0-0.3,0l-0.3,0v0c0,0.1,0.1,0.3,0.1,0.4c0,0.2,0.1,0.4,0.1,0.6c0,0.2,0,0.5,0,0.9c0,0.3,0,0.7,0,1.2v5.3
		c0,0.5,0,0.9,0,1.2c0,0.3,0,0.6,0,0.9c0,0.2,0,0.5-0.1,0.6c0,0.2-0.1,0.3-0.1,0.4v0H66v0c0-0.1-0.1-0.3-0.1-0.4
		c0-0.2-0.1-0.4-0.1-0.6c0-0.2,0-0.5,0-0.9c0-0.3,0-0.7,0-1.2V7.2c0.2,0,0.3,0,0.5,0.1c0.2,0,0.3,0,0.5,0c0.1,0,0.3,0,0.4,0
		c0.1,0,0.2,0,0.4,0l2.9,4c0.1,0.2,0.2,0.3,0.3,0.5c0.1,0.2,0.1,0.3,0.2,0.4L73.1,12.2L73.1,12.2z"/>
	<path class="st127" d="M82.8,7.7c-0.3,0-0.6,0-0.9,0c-0.3,0-0.6,0-1,0c-0.3,0-0.7,0-1,0h-0.9l2.2-5.2l2.3,5.1
		C83.4,7.7,83.1,7.7,82.8,7.7 M87,11.5c-0.1-0.2-0.2-0.4-0.3-0.6c-0.1-0.2-0.2-0.4-0.3-0.7L82,0.4h-0.6l-4.6,10.3
		c-0.2,0.4-0.3,0.7-0.5,1c-0.1,0.3-0.3,0.4-0.4,0.5v0h1.7v0c0,0,0,0,0-0.1c0,0,0-0.1,0-0.2c0-0.2,0-0.5,0.1-0.7
		c0.1-0.2,0.2-0.5,0.3-0.7l0.9-2.1c0.3,0,0.7,0,1.1,0h1.2h1.6c0.5,0,0.9,0,1.2,0l1,2.2c0.1,0.3,0.2,0.6,0.3,0.8
		c0,0.2,0.1,0.4,0.1,0.6c0,0,0,0.1,0,0.1c0,0.1,0,0.1,0,0.1v0h2.2v0c0,0-0.1-0.1-0.2-0.2C87.2,11.9,87.1,11.7,87,11.5"/>
	<path class="st127" d="M95.4,11.3c-0.2,0.1-0.3,0.3-0.6,0.3c-0.2,0.1-0.5,0.1-0.7,0.1c-0.3,0-0.6-0.1-0.8-0.2
		c-0.3-0.1-0.5-0.2-0.7-0.4c-0.2-0.2-0.4-0.4-0.5-0.6c-0.1-0.2-0.2-0.5-0.3-0.7h-0.2l-0.2,1.8c0.1,0.1,0.3,0.2,0.5,0.3
		c0.2,0.1,0.4,0.2,0.6,0.3c0.2,0.1,0.5,0.2,0.8,0.2c0.3,0.1,0.6,0.1,0.9,0.1c0.6,0,1-0.1,1.4-0.3c0.4-0.2,0.7-0.4,1-0.7
		c0.3-0.3,0.4-0.6,0.6-1c0.1-0.4,0.2-0.7,0.2-1.1c0-0.5-0.1-0.9-0.3-1.3c-0.2-0.4-0.5-0.8-0.8-1.2c-0.3-0.4-0.7-0.7-1.1-1.1
		c-0.4-0.3-0.7-0.7-1.1-1c-0.3-0.3-0.6-0.7-0.8-1c-0.2-0.4-0.3-0.7-0.3-1.1c0-0.2,0-0.5,0.1-0.7c0.1-0.2,0.2-0.4,0.3-0.5
		c0.1-0.1,0.3-0.3,0.5-0.3c0.2-0.1,0.4-0.1,0.7-0.1c0.3,0,0.6,0,0.8,0.1c0.2,0.1,0.4,0.2,0.6,0.3c0.2,0.1,0.3,0.3,0.4,0.4
		c0.1,0.2,0.2,0.3,0.2,0.4h0.2L96.7,1c-0.1,0-0.2-0.1-0.3-0.1c-0.1-0.1-0.3-0.1-0.5-0.2c-0.2-0.1-0.4-0.1-0.6-0.2
		c-0.2,0-0.5-0.1-0.7-0.1c-0.4,0-0.7,0.1-1.1,0.2c-0.3,0.1-0.7,0.3-0.9,0.6C92.2,1.4,92,1.7,91.8,2c-0.2,0.3-0.2,0.7-0.2,1.2
		c0,0.4,0.1,0.8,0.2,1.1c0.1,0.3,0.3,0.7,0.5,0.9c0.2,0.3,0.4,0.6,0.7,0.8c0.3,0.3,0.5,0.5,0.8,0.8c0.3,0.2,0.5,0.5,0.8,0.7
		c0.3,0.2,0.5,0.5,0.7,0.8c0.2,0.3,0.4,0.5,0.5,0.8c0.1,0.3,0.2,0.6,0.2,0.9c0,0.2,0,0.5-0.1,0.7C95.7,11,95.6,11.2,95.4,11.3"/>
	<path class="st127" d="M110.5,0.7c0,0.1,0.1,0.3,0.1,0.4c0,0.2,0.1,0.4,0.1,0.6c0,0.3,0,0.5,0,0.9c0,0.3,0,0.7,0,1.2v2
		c-0.2,0-0.5,0-0.8,0c-0.3,0-0.7,0-1.1,0c-0.4,0-0.8,0-1.2,0c-0.4,0-0.8,0-1.2,0c-0.4,0-0.8,0-1.1,0c-0.4,0-0.7,0-1,0V3.8
		c0-0.5,0-0.9,0-1.2c0-0.3,0-0.6,0-0.9c0-0.3,0-0.5,0.1-0.6c0-0.2,0.1-0.3,0.1-0.4v0h-1.9v0c0,0.1,0.1,0.3,0.1,0.4
		c0,0.2,0.1,0.4,0.1,0.6c0,0.3,0,0.5,0,0.9c0,0.3,0,0.7,0,1.2v5.3c0,0.5,0,0.9,0,1.2c0,0.3,0,0.6,0,0.9c0,0.2,0,0.5-0.1,0.6
		c0,0.2-0.1,0.3-0.1,0.4v0h1.9v0c0-0.1-0.1-0.3-0.1-0.4c0-0.2-0.1-0.4-0.1-0.6c0-0.2,0-0.5,0-0.9c0-0.3,0-0.7,0-1.2V6.7
		c0.3,0,0.6,0,0.9,0c0.4,0,0.7,0,1.1,0c0.4,0,0.8,0,1.2,0c0.4,0,0.8,0,1.2,0c0.4,0,0.7,0,1.1,0c0.3,0,0.6,0,0.8,0v2.4
		c0,0.5,0,0.9,0,1.2c0,0.3,0,0.6,0,0.9c0,0.2,0,0.5-0.1,0.6c0,0.2-0.1,0.3-0.1,0.4v0h1.9v0c0-0.1-0.1-0.3-0.1-0.4
		c0-0.2-0.1-0.4-0.1-0.6c0-0.2,0-0.5,0-0.9c0-0.3,0-0.7,0-1.2V3.8c0-0.5,0-0.9,0-1.2c0-0.3,0-0.6,0-0.9c0-0.3,0-0.5,0.1-0.6
		c0-0.2,0.1-0.3,0.1-0.4v0L110.5,0.7L110.5,0.7z"/>
	<path class="st127" d="M120.1,12.2c0-0.1-0.1-0.3-0.1-0.4c0-0.2-0.1-0.4-0.1-0.6c0-0.2,0-0.5,0-0.9c0-0.3,0-0.7,0-1.2V3.8
		c0-0.5,0-0.9,0-1.2c0-0.3,0-0.6,0-0.9c0-0.3,0-0.5,0.1-0.6c0-0.2,0.1-0.3,0.1-0.4v0h-1.9v0c0,0.1,0.1,0.3,0.1,0.4
		c0,0.2,0.1,0.4,0.1,0.6c0,0.3,0,0.5,0,0.9c0,0.3,0,0.7,0,1.2v5.3c0,0.5,0,0.9,0,1.2c0,0.3,0,0.6,0,0.9c0,0.2,0,0.5-0.1,0.6
		c0,0.2-0.1,0.3-0.1,0.4v0L120.1,12.2L120.1,12.2z"/>
	<path class="st127" d="M133.9,8.4c-0.1,0.5-0.3,1-0.6,1.4c-0.2,0.4-0.5,0.7-0.9,1c-0.3,0.2-0.7,0.4-1,0.6c-0.4,0.1-0.8,0.2-1.2,0.3
		c-0.4,0.1-0.8,0.1-1.2,0.1c-0.1,0-0.2,0-0.3,0c-0.1,0-0.3,0-0.4,0c-0.1,0-0.3,0-0.4,0c-0.1,0-0.2,0-0.3,0c0-0.3,0-0.7-0.1-1.2
		c0-0.5,0-1,0-1.6c0-0.5,0-1.1,0-1.6c0-0.5,0-0.9,0-1.3c0-0.2,0-0.4,0-0.6c0-0.2,0-0.5,0-0.7c0-0.2,0-0.5,0-0.7c0-0.3,0-0.5,0-0.7
		c0-0.6,0-1.2,0-1.8c0.1,0,0.2,0,0.4,0c0.2,0,0.3,0,0.5,0c0.2,0,0.4,0,0.5,0c0.2,0,0.3,0,0.5,0c0.7,0,1.4,0.1,2,0.3
		c0.6,0.2,1,0.6,1.4,1c0.4,0.4,0.7,1,0.9,1.6c0.2,0.6,0.3,1.4,0.3,2.2C134.1,7.2,134,7.8,133.9,8.4 M135.3,3.5
		c-0.3-0.7-0.7-1.3-1.3-1.7c-0.5-0.4-1.2-0.8-1.9-1c-0.7-0.2-1.5-0.3-2.2-0.3c-0.3,0-0.6,0-0.9,0c-0.3,0-0.7,0-1,0
		c-0.3,0-0.6,0-0.8,0c-0.2,0-0.4,0-0.5,0c-0.1,0-0.1,0-0.2,0c-0.1,0-0.2,0-0.3,0c-0.1,0-0.2,0-0.3,0v0c0,0.1,0.1,0.3,0.1,0.4
		c0,0.2,0.1,0.4,0.1,0.6c0,0.3,0,0.6,0,0.9c0,0.3,0,0.8,0,1.2v5.3c0,0.5,0,0.9,0,1.2c0,0.3,0,0.6,0,0.9c0,0.2,0,0.5-0.1,0.6
		c0,0.2-0.1,0.3-0.1,0.4v0c0.2,0,0.4,0,0.6,0c0.3,0,0.6,0,0.9,0c0.3,0,0.6,0,0.9,0c0.3,0,0.6,0,0.8,0c0.6,0,1.2,0,1.8-0.1
		c0.6-0.1,1.1-0.3,1.6-0.5c0.5-0.2,1-0.5,1.4-0.8c0.4-0.3,0.8-0.7,1.1-1.2c0.3-0.5,0.5-1,0.7-1.6c0.2-0.6,0.2-1.3,0.2-2
		C135.7,5.1,135.6,4.2,135.3,3.5"/>
	<path class="st127" d="M10.1,24.2c0,0.1-0.1,0.2-0.2,0.4c-0.1,0.1-0.2,0.3-0.3,0.4c-0.1,0.1-0.2,0.3-0.3,0.4l-2.6,3.8l-2.7-3.6
		c-0.3-0.4-0.5-0.7-0.6-1c-0.1-0.3-0.2-0.5-0.2-0.6H1v0c0,0,0.1,0.1,0.2,0.2c0.1,0.1,0.2,0.2,0.3,0.3c0.1,0.1,0.2,0.2,0.3,0.4
		C1.9,24.9,2,25,2.2,25.2l3.6,4.9v2.2c0,0.5,0,0.9,0,1.2c0,0.3,0,0.6,0,0.9c0,0.2,0,0.5-0.1,0.6c0,0.2-0.1,0.3-0.1,0.4v0h1.9v0
		c0-0.1-0.1-0.3-0.1-0.4c0-0.2-0.1-0.4-0.1-0.6c0-0.2,0-0.5,0-0.9c0-0.3,0-0.7,0-1.2v-2.4l3.4-4.7c0.2-0.3,0.4-0.6,0.6-0.8
		c0.2-0.2,0.4-0.4,0.5-0.5v0h-1.6C10.2,24,10.2,24.1,10.1,24.2"/>
	<path class="st127" d="M20.8,31c-0.3,0-0.6,0-0.9,0c-0.3,0-0.6,0-1,0c-0.3,0-0.7,0-1,0h-0.9l2.2-5.2l2.3,5.1
		C21.4,30.9,21.1,31,20.8,31 M25,34.8c-0.1-0.2-0.2-0.4-0.3-0.6c-0.1-0.2-0.2-0.4-0.3-0.7L20,23.6h-0.6l-4.6,10.3
		c-0.2,0.4-0.3,0.7-0.5,1c-0.1,0.3-0.3,0.4-0.4,0.5v0h1.7v0c0,0,0,0,0-0.1c0,0,0-0.1,0-0.2c0-0.2,0-0.5,0.1-0.7
		c0.1-0.2,0.2-0.5,0.3-0.7l0.9-2.1c0.3,0,0.7,0,1.1,0h1.2h1.6c0.5,0,0.9,0,1.2,0l1,2.2c0.1,0.3,0.2,0.6,0.3,0.8
		c0,0.2,0.1,0.4,0.1,0.6c0,0,0,0.1,0,0.1c0,0.1,0,0.1,0,0.1v0h2.2v0c0,0-0.1-0.1-0.2-0.2C25.2,35.1,25.1,35,25,34.8"/>
	<path class="st127" d="M38.7,34.2c-0.3,0.2-0.5,0.3-0.8,0.5c-0.3,0.1-0.6,0.2-0.9,0.3C36.7,35,36.4,35,36.1,35
		c-0.9,0-1.6-0.1-2.2-0.4c-0.6-0.3-1.2-0.7-1.6-1.2c-0.4-0.5-0.7-1.1-1-1.9C31.1,30.8,31,30,31,29.2c0-0.8,0.1-1.4,0.3-2
		c0.2-0.6,0.5-1.1,1-1.5c0.4-0.4,0.9-0.7,1.5-0.9c0.6-0.2,1.2-0.3,1.9-0.3c0.7,0,1.4,0.1,2,0.3c0.6,0.2,1.1,0.5,1.5,0.9l0.1,0
		l-0.6-1.5c-0.9-0.3-1.9-0.5-2.9-0.5c-0.7,0-1.3,0.1-1.9,0.2c-0.6,0.2-1.1,0.4-1.6,0.6c-0.5,0.3-0.9,0.6-1.3,1
		c-0.4,0.4-0.7,0.8-0.9,1.2c-0.3,0.4-0.4,0.9-0.6,1.4c-0.1,0.5-0.2,1-0.2,1.5c0,0.9,0.2,1.7,0.5,2.5c0.3,0.7,0.8,1.4,1.4,1.9
		c0.6,0.5,1.3,0.9,2.1,1.2c0.8,0.3,1.7,0.4,2.7,0.4c0.5,0,1,0,1.5-0.1c0.5-0.1,0.9-0.2,1.3-0.4l0.6-1.7l-0.1-0.1
		C39.2,33.8,39,34,38.7,34.2"/>
	<path class="st127" d="M52.1,23.9c0,0.1,0.1,0.3,0.1,0.4c0,0.2,0.1,0.4,0.1,0.6c0,0.3,0,0.5,0,0.9c0,0.3,0,0.7,0,1.2v2
		c-0.2,0-0.5,0-0.8,0c-0.3,0-0.7,0-1.1,0c-0.4,0-0.8,0-1.2,0c-0.4,0-0.8,0-1.2,0c-0.4,0-0.8,0-1.1,0c-0.4,0-0.7,0-1,0v-2.1
		c0-0.5,0-0.9,0-1.2c0-0.3,0-0.6,0-0.9c0-0.3,0-0.5,0.1-0.6c0-0.2,0.1-0.3,0.1-0.4v0h-1.9v0c0,0.1,0.1,0.3,0.1,0.4
		c0,0.2,0.1,0.4,0.1,0.6c0,0.3,0,0.5,0,0.9c0,0.3,0,0.7,0,1.2v5.3c0,0.5,0,0.9,0,1.2c0,0.3,0,0.6,0,0.9c0,0.2,0,0.5-0.1,0.6
		c0,0.2-0.1,0.3-0.1,0.4v0h1.9v0c0-0.1-0.1-0.3-0.1-0.4c0-0.2-0.1-0.4-0.1-0.6c0-0.2,0-0.5,0-0.9c0-0.3,0-0.7,0-1.2v-2.4
		c0.3,0,0.6,0,0.9,0c0.4,0,0.7,0,1.1,0c0.4,0,0.8,0,1.2,0c0.4,0,0.8,0,1.2,0c0.4,0,0.7,0,1.1,0c0.3,0,0.6,0,0.8,0v2.4
		c0,0.5,0,0.9,0,1.2c0,0.3,0,0.6,0,0.9c0,0.2,0,0.5-0.1,0.6c0,0.2-0.1,0.3-0.1,0.4v0h1.9v0c0-0.1-0.1-0.3-0.1-0.4
		c0-0.2-0.1-0.4-0.1-0.6c0-0.2,0-0.5,0-0.9c0-0.3,0-0.7,0-1.2v-5.3c0-0.5,0-0.9,0-1.2c0-0.3,0-0.6,0-0.9c0-0.3,0-0.5,0.1-0.6
		c0-0.2,0.1-0.3,0.1-0.4v0L52.1,23.9L52.1,23.9z"/>
	<path class="st127" d="M68,23.8c-0.1,0-0.3,0-0.4,0c-0.2,0-0.3,0-0.5,0c-0.2,0-0.3,0-0.5,0c-0.2,0-0.3,0-0.4,0c-0.1,0-0.2,0-0.3,0
		h-4.6c-0.1,0-0.1,0-0.3,0c-0.1,0-0.3,0-0.4,0c-0.2,0-0.3,0-0.5,0c-0.2,0-0.3,0-0.5,0c-0.2,0-0.3,0-0.4,0c-0.1,0-0.2,0-0.3,0
		l-0.2,1.3c0.3-0.1,0.7-0.2,1.2-0.3c0.4-0.1,0.8-0.1,1.3-0.2c0.5-0.1,1.1-0.1,1.7-0.1v7.7c0,0.5,0,0.9,0,1.2c0,0.3,0,0.6,0,0.9
		c0,0.2,0,0.5-0.1,0.6c0,0.2-0.1,0.3-0.1,0.4v0h1.9v0c0-0.1-0.1-0.3-0.1-0.4c0-0.2-0.1-0.4-0.1-0.6c0-0.2,0-0.5,0-0.9
		c0-0.3,0-0.7,0-1.2v-7.7c0.6,0,1.2,0,1.7,0.1c0.5,0.1,1,0.1,1.3,0.2c0.4,0.1,0.8,0.2,1.2,0.3l-0.2-1.3C68.2,23.8,68.1,23.8,68,23.8
		"/>
	<path class="st127" d="M77.4,30.3c-0.3-0.4-0.7-0.7-1.1-1.1c-0.4-0.3-0.7-0.7-1.1-1c-0.3-0.3-0.6-0.7-0.8-1
		c-0.2-0.4-0.3-0.7-0.3-1.1c0-0.2,0-0.5,0.1-0.7c0.1-0.2,0.2-0.4,0.3-0.5c0.1-0.1,0.3-0.3,0.5-0.3c0.2-0.1,0.4-0.1,0.7-0.1
		c0.3,0,0.6,0,0.8,0.1c0.2,0.1,0.4,0.2,0.6,0.3c0.2,0.1,0.3,0.3,0.4,0.4c0.1,0.2,0.2,0.3,0.2,0.4h0.2l0.1-1.5
		c-0.1,0-0.2-0.1-0.3-0.1c-0.1-0.1-0.3-0.1-0.5-0.2c-0.2-0.1-0.4-0.1-0.6-0.2c-0.2,0-0.5-0.1-0.7-0.1c-0.4,0-0.7,0.1-1.1,0.2
		c-0.3,0.1-0.7,0.3-0.9,0.6c-0.3,0.2-0.5,0.5-0.7,0.9c-0.2,0.3-0.2,0.7-0.2,1.2c0,0.4,0.1,0.8,0.2,1.1c0.1,0.3,0.3,0.7,0.5,0.9
		c0.2,0.3,0.4,0.6,0.7,0.8c0.3,0.3,0.5,0.5,0.8,0.8c0.3,0.2,0.5,0.5,0.8,0.7c0.3,0.2,0.5,0.5,0.7,0.8c0.2,0.3,0.4,0.5,0.5,0.8
		c0.1,0.3,0.2,0.6,0.2,0.9c0,0.2,0,0.5-0.1,0.7c-0.1,0.2-0.2,0.4-0.4,0.5c-0.2,0.1-0.3,0.3-0.6,0.3C75.9,35,75.6,35,75.3,35
		c-0.3,0-0.6-0.1-0.8-0.2c-0.3-0.1-0.5-0.2-0.7-0.4c-0.2-0.2-0.4-0.4-0.5-0.6c-0.1-0.2-0.2-0.5-0.3-0.7h-0.2l-0.2,1.8
		c0.1,0.1,0.3,0.2,0.5,0.3c0.2,0.1,0.4,0.2,0.6,0.3c0.2,0.1,0.5,0.2,0.8,0.2c0.3,0.1,0.6,0.1,0.9,0.1c0.6,0,1-0.1,1.4-0.3
		c0.4-0.2,0.7-0.4,1-0.7c0.3-0.3,0.4-0.6,0.6-1c0.1-0.4,0.2-0.7,0.2-1.1c0-0.5-0.1-0.9-0.3-1.3C78,31.1,77.7,30.7,77.4,30.3"/>
	<path class="st127" d="M97.6,34.9C97.2,35,96.8,35,96.3,35c-0.4,0-0.8-0.1-1.2-0.2c-0.4-0.1-0.7-0.4-0.9-0.6
		c-0.3-0.3-0.5-0.6-0.6-0.9c-0.1-0.4-0.2-0.8-0.2-1.2c0-0.3,0-0.6,0.1-0.9c0.1-0.3,0.2-0.5,0.4-0.7c0.2-0.2,0.4-0.4,0.6-0.6
		c0.2-0.2,0.5-0.4,0.7-0.5c0.2,0.4,0.4,0.8,0.7,1.3c0.3,0.4,0.5,0.9,0.8,1.3c0.3,0.4,0.6,0.9,1,1.3c0.3,0.4,0.7,0.8,1.1,1.2
		C98.4,34.6,98,34.7,97.6,34.9 M96.1,24.8c0.2-0.3,0.5-0.5,1-0.5c0.2,0,0.3,0,0.4,0.1c0.1,0.1,0.2,0.1,0.3,0.3
		c0.1,0.1,0.1,0.2,0.2,0.4c0,0.1,0.1,0.3,0.1,0.5c0,0.3,0,0.5-0.1,0.8c-0.1,0.2-0.2,0.5-0.4,0.7c-0.2,0.2-0.4,0.4-0.6,0.6
		c-0.2,0.2-0.5,0.4-0.7,0.5c-0.1-0.4-0.2-0.7-0.3-1c-0.1-0.3-0.1-0.7-0.1-1C95.7,25.5,95.8,25.1,96.1,24.8 M105.2,37.4
		c-0.5-0.2-1.1-0.5-1.6-0.8c-0.6-0.3-1.1-0.8-1.7-1.2c-0.6-0.5-1.1-1-1.7-1.5c0.7-0.7,1.1-1.6,1.3-2.7c0-0.3,0.1-0.5,0.1-0.7
		c0-0.2,0.1-0.4,0.1-0.6c0-0.2,0-0.4,0.1-0.5c0-0.2,0-0.3,0.1-0.4v0h-1.5v0c0.1,0.2,0.1,0.5,0.2,0.8c0.1,0.3,0.1,0.7,0.1,1.1
		c0,0.5-0.1,1-0.2,1.5c-0.1,0.4-0.4,0.8-0.6,1.2c-0.4-0.4-0.7-0.8-1-1.2c-0.3-0.4-0.6-0.8-0.9-1.2c-0.3-0.4-0.6-0.8-0.8-1.2
		c-0.2-0.4-0.4-0.8-0.6-1.2c0.3-0.2,0.7-0.4,1-0.6c0.3-0.2,0.6-0.4,0.9-0.7c0.3-0.2,0.5-0.5,0.6-0.8c0.2-0.3,0.2-0.6,0.2-1
		c0-0.3-0.1-0.5-0.2-0.8c-0.1-0.2-0.2-0.4-0.4-0.6c-0.2-0.1-0.4-0.3-0.6-0.3s-0.5-0.1-0.8-0.1c-0.4,0-0.7,0.1-1,0.2
		c-0.3,0.1-0.6,0.3-0.8,0.6c-0.2,0.2-0.4,0.5-0.6,0.9c-0.1,0.3-0.2,0.7-0.2,1.2c0,0.4,0,0.7,0.1,1.1c0.1,0.4,0.2,0.8,0.4,1.2
		c-0.4,0.2-0.8,0.5-1.1,0.7c-0.4,0.2-0.7,0.5-1,0.8c-0.3,0.3-0.5,0.6-0.7,1c-0.2,0.4-0.3,0.8-0.3,1.3c0,0.5,0.1,0.9,0.3,1.3
		c0.2,0.4,0.4,0.7,0.8,1c0.3,0.3,0.7,0.5,1.2,0.6c0.5,0.2,1,0.2,1.6,0.2c0.7,0,1.3-0.1,1.9-0.3c0.6-0.2,1.1-0.4,1.6-0.7
		c0.5,0.5,1,1,1.6,1.4c0.5,0.4,1.1,0.8,1.6,1.1c0.5,0.3,1,0.6,1.5,0.7c0.5,0.2,0.9,0.3,1.4,0.3c0.3,0,0.5,0,0.7,0
		c0.2,0,0.4-0.1,0.5-0.1c0.2,0,0.3-0.1,0.4-0.1c0.1,0,0.2-0.1,0.3-0.1v-0.2c-0.2,0-0.3,0-0.5,0C106.2,37.7,105.7,37.6,105.2,37.4"/>
	<path class="st127" d="M131.4,34.8c0-0.2-0.1-0.3-0.1-0.6c0-0.2-0.1-0.5-0.1-0.8l-1.3-9.6h-0.8l-5.1,9.5l-5.1-9.5h-1
		c0,0.2,0,0.4-0.1,0.7c0,0.3-0.1,0.7-0.1,1.1c-0.1,0.4-0.1,0.9-0.2,1.3c-0.1,0.5-0.1,1-0.2,1.5c-0.1,0.5-0.1,1.1-0.2,1.6
		c-0.1,0.5-0.2,1.1-0.2,1.6c-0.1,0.5-0.2,1-0.2,1.5c-0.1,0.5-0.1,0.9-0.2,1.3c0,0.3-0.1,0.5-0.2,0.6c-0.1,0.2-0.1,0.3-0.2,0.4v0h1.6
		c0-0.1,0-0.2,0-0.3c0-0.1,0-0.2,0-0.4c0-0.1,0-0.3,0-0.5c0-0.1,0-0.4,0-0.7c0-0.3,0.1-0.7,0.1-1.1c0-0.4,0.1-0.8,0.2-1.3
		c0.1-0.5,0.1-0.9,0.2-1.4c0.1-1.1,0.3-2.3,0.5-3.5l4.8,9.1h0.6l4.8-9l1,7.8c0,0.1,0,0.2,0,0.2c0,0.1,0,0.1,0,0.2c0,0.2,0,0.4,0,0.5
		c0,0.1,0,0.2-0.1,0.3v0h2v0c0-0.1-0.1-0.1-0.1-0.2C131.5,35.1,131.5,35,131.4,34.8"/>
	<path class="st127" d="M142.4,31c-0.3,0-0.6,0-0.9,0c-0.3,0-0.6,0-1,0c-0.3,0-0.7,0-1,0h-0.9l2.2-5.2l2.3,5.1
		C143,30.9,142.7,31,142.4,31 M146.7,34.8c-0.1-0.2-0.2-0.4-0.3-0.6c-0.1-0.2-0.2-0.4-0.3-0.7l-4.4-9.9H141l-4.6,10.3
		c-0.2,0.4-0.3,0.7-0.5,1c-0.1,0.3-0.3,0.4-0.4,0.5v0h1.7v0c0,0,0,0,0-0.1c0,0,0-0.1,0-0.2c0-0.2,0-0.5,0.1-0.7
		c0.1-0.2,0.2-0.5,0.3-0.7l0.9-2.1c0.3,0,0.7,0,1.1,0h1.2h1.6c0.5,0,0.9,0,1.2,0l1,2.2c0.1,0.3,0.2,0.6,0.3,0.8
		c0,0.2,0.1,0.4,0.1,0.6c0,0,0,0.1,0,0.1c0,0.1,0,0.1,0,0.1v0h2.2v0c0,0-0.1-0.1-0.2-0.2C146.8,35.1,146.8,35,146.7,34.8"/>
	<path class="st127" d="M155.1,29.8c-0.3,0.1-0.7,0.2-1.1,0.2c-0.1,0-0.3,0-0.4,0c-0.2,0-0.3,0-0.4-0.1v-5.4c0.1,0,0.3-0.1,0.5-0.1
		c0.2,0,0.5-0.1,0.9-0.1c0.4,0,0.7,0.1,1,0.2c0.3,0.1,0.5,0.3,0.7,0.5c0.2,0.2,0.3,0.5,0.4,0.8c0.1,0.3,0.1,0.7,0.1,1.1
		c0,0.5-0.1,0.9-0.2,1.3c-0.1,0.4-0.3,0.7-0.5,0.9C155.7,29.5,155.4,29.7,155.1,29.8 M159.8,35.1c-0.1-0.1-0.2-0.2-0.3-0.4
		c-0.1-0.1-0.3-0.3-0.4-0.5l-2.8-4c0.3-0.1,0.6-0.3,0.9-0.5c0.3-0.2,0.5-0.4,0.7-0.7c0.2-0.3,0.3-0.6,0.4-0.9
		c0.1-0.3,0.1-0.7,0.1-1.1c0-0.5-0.1-0.9-0.3-1.3c-0.2-0.4-0.4-0.7-0.8-1c-0.3-0.3-0.7-0.5-1.1-0.6c-0.4-0.1-0.9-0.2-1.4-0.2
		c-0.6,0-1,0-1.4,0.1c-0.4,0.1-0.6,0.1-0.9,0.1c-0.1,0-0.3,0-0.4,0c-0.1,0-0.2,0-0.3,0l-0.3,0v0c0,0.1,0.1,0.3,0.1,0.4
		c0,0.2,0.1,0.4,0.1,0.6c0,0.2,0,0.5,0,0.9c0,0.3,0,0.7,0,1.2v5.3c0,0.5,0,0.9,0,1.2c0,0.3,0,0.6,0,0.9c0,0.2,0,0.5-0.1,0.6
		c0,0.2-0.1,0.3-0.1,0.4v0h1.9v0c0-0.1-0.1-0.3-0.1-0.4c0-0.2-0.1-0.4-0.1-0.6c0-0.2,0-0.5,0-0.9c0-0.3,0-0.7,0-1.2v-1.8
		c0.2,0,0.3,0,0.5,0.1c0.2,0,0.3,0,0.5,0c0.1,0,0.3,0,0.4,0c0.1,0,0.2,0,0.4,0l2.9,4c0.1,0.2,0.2,0.3,0.3,0.5
		c0.1,0.2,0.1,0.3,0.2,0.4h2.3v0c-0.1,0-0.2-0.1-0.3-0.2C160.1,35.2,159.9,35.2,159.8,35.1"/>
	<path class="st127" d="M164.6,23.9c0,0.1,0.1,0.3,0.1,0.4c0,0.2,0.1,0.4,0.1,0.6c0,0.3,0,0.5,0,0.9c0,0.3,0,0.7,0,1.2v5.3
		c0,0.5,0,0.9,0,1.2c0,0.3,0,0.6,0,0.9c0,0.2,0,0.5-0.1,0.6c0,0.2-0.1,0.3-0.1,0.4v0h1.9v0c0-0.1-0.1-0.3-0.1-0.4
		c0-0.2-0.1-0.4-0.1-0.6c0-0.2,0-0.5,0-0.9c0-0.3,0-0.7,0-1.2v-5.3c0-0.5,0-0.9,0-1.2c0-0.3,0-0.6,0-0.9c0-0.3,0-0.5,0.1-0.6
		c0-0.2,0.1-0.3,0.1-0.4v0L164.6,23.9L164.6,23.9z"/>
	<path class="st127" d="M180.8,23.9c0,0.1,0.1,0.3,0.1,0.4c0,0.2,0.1,0.4,0.1,0.6c0,0.3,0,0.5,0,0.9c0,0.3,0,0.7,0,1.2v5.7l-8.4-8.9
		h-0.5v0c0,0.1,0.1,0.3,0.1,0.4c0,0.2,0.1,0.4,0.1,0.6c0,0.3,0,0.5,0,0.9c0,0.3,0,0.7,0,1.2v5.3c0,0.5,0,0.9,0,1.2
		c0,0.3,0,0.6,0,0.9c0,0.2,0,0.5-0.1,0.6c0,0.2-0.1,0.3-0.1,0.4v0h1.4v0c0-0.1-0.1-0.3-0.1-0.4c0-0.2-0.1-0.4-0.1-0.6
		c0-0.2,0-0.5,0-0.9c0-0.3,0-0.7,0-1.2v-5.5l8.4,8.9h0.3v-8.6c0-0.5,0-0.9,0-1.2c0-0.3,0-0.6,0-0.9c0-0.3,0-0.5,0.1-0.6
		c0-0.2,0.1-0.3,0.1-0.4v0L180.8,23.9L180.8,23.9z"/>
	<path class="st127" d="M193.5,31c-0.3,0-0.6,0-0.9,0c-0.3,0-0.6,0-1,0c-0.3,0-0.7,0-1,0h-0.9l2.2-5.2l2.3,5.1
		C194.1,30.9,193.8,31,193.5,31 M198,35.2c-0.1-0.1-0.2-0.3-0.3-0.4c-0.1-0.2-0.2-0.4-0.3-0.6c-0.1-0.2-0.2-0.4-0.3-0.7l-4.4-9.9
		H192l-4.6,10.3c-0.2,0.4-0.3,0.7-0.5,1c-0.1,0.3-0.3,0.4-0.4,0.5v0h1.7v0c0,0,0,0,0-0.1c0,0,0-0.1,0-0.2c0-0.2,0-0.5,0.1-0.7
		c0.1-0.2,0.2-0.5,0.3-0.7l0.9-2.1c0.3,0,0.7,0,1.1,0h1.2h1.6c0.5,0,0.9,0,1.2,0l1,2.2c0.1,0.3,0.2,0.6,0.3,0.8
		c0,0.2,0.1,0.4,0.1,0.6c0,0,0,0.1,0,0.1c0,0.1,0,0.1,0,0.1v0h2.2v0C198.1,35.4,198,35.4,198,35.2"/>
</g>
</svg>
