<?xml version="1.0" encoding="utf-8"?>
<!-- Generator: Adobe Illustrator 26.0.1, SVG Export Plug-In . SVG Version: 6.00 Build 0)  -->
<!DOCTYPE svg PUBLIC "-//W3C//DTD SVG 1.1//EN" "http://www.w3.org/Graphics/SVG/1.1/DTD/svg11.dtd" [
	<!ENTITY ns_extend "http://ns.adobe.com/Extensibility/1.0/">
	<!ENTITY ns_ai "http://ns.adobe.com/AdobeIllustrator/10.0/">
	<!ENTITY ns_graphs "http://ns.adobe.com/Graphs/1.0/">
	<!ENTITY ns_vars "http://ns.adobe.com/Variables/1.0/">
	<!ENTITY ns_imrep "http://ns.adobe.com/ImageReplacement/1.0/">
	<!ENTITY ns_sfw "http://ns.adobe.com/SaveForWeb/1.0/">
	<!ENTITY ns_custom "http://ns.adobe.com/GenericCustomNamespace/1.0/">
	<!ENTITY ns_adobe_xpath "http://ns.adobe.com/XPath/1.0/">
]>
<svg version="1.1" id="Layer_1" xmlns:x="&ns_extend;" xmlns:i="&ns_ai;" xmlns:graph="&ns_graphs;"
	 xmlns="http://www.w3.org/2000/svg" xmlns:xlink="http://www.w3.org/1999/xlink" x="0px" y="0px" viewBox="0 0 200 44"
	 style="enable-background:new 0 0 200 44;" xml:space="preserve">
<style type="text/css">
	.st0{fill:#808184;}
	.st1{clip-path:url(#SVGID_00000021837384440059303310000008446126089277972887_);}
	.st2{fill:#AC9C63;}
</style>
<metadata>
	<sfw  xmlns="&ns_sfw;">
		<slices></slices>
		<sliceSourceBounds  bottomLeftOrigin="true" height="185.2" width="1488.1" x="1.3" y="-70.2"></sliceSourceBounds>
	</sfw>
</metadata>
<g>
	<g>
		<path d="M37.9,12.6c1.3-0.5,2.2-1.4,2.2-2.8c0-2.2-2-3.2-4.6-3.2h-3v14h3.9c2.9,0,5.5-1.2,5.5-3.9C41.8,14.5,40.2,13,37.9,12.6
			 M36.2,19.7h-1.6v-6.8v-0.8V7.3h1.1c1.9,0,2.6,0.9,2.6,2.3c0,0.2,0.2,2.5-1.7,3c0.5,0.1,1.4,0.4,2.1,1.1c0.8,0.6,1.1,1.6,1.1,2.7
			C39.7,18.3,38.6,19.7,36.2,19.7 M56.5,6.5h2v13.9h-2v-7.5H49v7.5h-2V6.5h2v5.6h7.5V6.5z M62.9,20.5h0.8l1.7-4.1h5.4l1.7,4.1h2.2
			L68.7,6.2L62.9,20.5z M65.7,15.6L68,9.8l2.4,5.8H65.7z M20.9,6.3c-3.7,0-6.6,3.1-6.6,7.2c0,4.2,2.9,7.2,6.6,7.2
			c3.7,0,6.6-3,6.6-7.2C27.5,9.4,24.6,6.3,20.9,6.3 M20.9,20c-2.7,0-4.6-2.6-4.6-6.4c0-3.8,1.8-6.4,4.6-6.4c2.7,0,4.6,2.7,4.6,6.4
			C25.4,17.3,23.6,20,20.9,20 M10.5,16.8c0,3.2-3.2,3.8-5,3.8c-1,0-2.3-0.2-3.2-0.7l-1-1.7c0.4,0.3,2,1.7,4.2,1.7c1.9,0,3-0.9,3-2.4
			c0-1.6-1.8-2.9-3-3.7c-2.5-1.8-4-2.9-4-4.8C1.6,6.6,4,5.7,6,5.7c0.6,0,1.7,0.1,2.2,0.4L9,7.4C8.7,7.2,7.5,6.5,6,6.5
			c-1.5,0-2.6,0.7-2.6,1.9c0,1.4,1.7,2.3,2.9,3.2C8.9,13.3,10.5,14.6,10.5,16.8 M155.3,20.4h0.8l1.7-4.1h5.4l1.7,4.1h2.2l-5.8-14.3
			L155.3,20.4z M158.1,15.6l2.4-5.8l2.4,5.8H158.1z M181.5,6.5h0.8v14.1L172,10v10.4h-0.8V6.3L181.5,17V6.5z M95.5,6.5h2v13.9h-2
			v-7.5H88v7.5h-2V6.5h2v5.6h7.5V6.5z M101.8,20.5h0.8l1.7-4.1h5.4l1.7,4.1h2.2l-5.9-14.3L101.8,20.5z M104.6,15.6l2.4-5.8l2.4,5.8
			H104.6z M191.5,6.5h-3.8v13.9h3.8c4.2,0,7.6-2.8,7.6-7C199.1,9.3,195.8,6.5,191.5,6.5 M191.5,19.7h-1.7V7.3h1.7
			c3.1,0,5.5,2.3,5.5,6.2S194.5,19.7,191.5,19.7 M125.7,20.4h2l-5.3-6.2c2.4-0.2,4.3-1.3,4.3-3.8c0-2.8-2.3-3.9-5.1-3.9h-3.9v13.9h2
			v-6.1h0.6L125.7,20.4z M119.7,7.3h1.3c2.4,0,3.4,1.1,3.4,3.1c0,2.1-1,3.1-3.4,3.1h-1.3V7.3z M147,19.7h5.4v0.8h-7.4V6.5h2V19.7z
			 M129.9,6.5h10.6v0.8h-4.3v13.1h-2V7.3h-4.3V6.5z M64.8,38.9l0.3,0.1c-0.4,1-1.3,1.9-2.8,1.9c-2.1,0-3.3-1.3-3.3-3.3
			c0-2.1,1.5-3.5,3.5-3.5c0.6,0,1.3,0.2,1.7,0.4l0.4-0.5h0.3v2.4h-0.3c-0.5-1.3-1.1-2.1-2.1-2.1c-1,0-1.8,1-1.8,3c0,2,1,3,2.1,3
			C63.6,40.4,64.3,39.9,64.8,38.9 M72.5,39.6l-0.1-0.8c-0.1-0.8-0.4-1.4-1.8-1.4v0c1.4-0.2,1.9-0.8,1.9-1.6c0-0.8-0.6-1.6-2.6-1.6
			h-3.2v0.3c0.8,0,0.9,0.2,0.9,0.5v5c0,0.3-0.2,0.5-0.9,0.5v0.3H70v-0.3c-0.6,0-0.9-0.1-0.9-0.5v-2.4h0.5c1,0,1.3,0.3,1.4,1.2
			l0.1,0.8c0.1,0.8,0.3,1.2,1.6,1.2c0.3,0,0.6,0,0.9-0.1v-0.3C72.7,40.5,72.6,40.3,72.5,39.6 M69.7,37.3h-0.6v-2.8h0.5
			c1.1,0,1.5,0.5,1.5,1.4C71,36.9,70.8,37.3,69.7,37.3 M80.2,38.4l0.3,0l-0.1,2.4h-5.8v-0.3c0.8,0,0.9-0.2,0.9-0.5v-5
			c0-0.3-0.2-0.5-0.9-0.5v-0.3h5.6l0,2.2l-0.3,0c-0.5-1.3-0.9-1.9-2-1.9h-1v2.7h0.3c0.7,0,1-0.2,1.3-1.1h0.3v2.6h-0.3
			c-0.3-0.9-0.6-1.2-1.3-1.2h-0.3v2.9h0.9C79.2,40.5,79.6,39.8,80.2,38.4 M87.9,38.4l0.3,0l-0.1,2.4h-5.8v-0.3
			c0.8,0,0.9-0.2,0.9-0.5v-5c0-0.3-0.2-0.5-0.9-0.5v-0.3h5.6l0,2.2l-0.3,0c-0.5-1.3-0.9-1.9-2-1.9h-1v2.7h0.3c0.7,0,1-0.2,1.3-1.1
			h0.2v2.6h-0.2c-0.3-0.9-0.6-1.2-1.3-1.2h-0.3v2.9h0.9C86.9,40.5,87.3,39.8,87.9,38.4 M97,40.5v0.3h-3.1v-0.3
			c0.6-0.1,0.7-0.2,0.4-0.8l-1.5-2.1l-0.5,0.5V40c0,0.4,0.2,0.5,0.8,0.5v0.3h-3.2v-0.3c0.8,0,0.9-0.2,0.9-0.5v-5
			c0-0.3-0.2-0.5-0.9-0.5v-0.3h3.3v0.3c-0.6,0-0.9,0.1-0.9,0.5v2.7l2-2.1c0.5-0.6,0.6-1-0.2-1.1v-0.3h2.6v0.3
			c-0.8,0.1-1.2,0.4-2.2,1.4l-0.8,0.8l2,2.9C96.2,40.2,96.4,40.4,97,40.5 M105.4,34.2h2.3v0.3c-0.7,0.1-0.9,0.4-1.2,1.4l-1.9,5h-0.8
			l-2.1-5.6c-0.2-0.5-0.4-0.7-1-0.8v-0.3h3.4v0.3c-0.9,0-1,0.2-0.8,0.7l1.5,4.2h0.1l1.3-3.6c0.3-0.8,0.2-1.1-0.7-1.2V34.2z
			 M108.9,34.2h3.3v0.3c-0.8,0-1,0.2-1,0.5v5c0,0.3,0.2,0.5,1,0.5v0.3h-3.3v-0.3c0.8,0,1-0.2,1-0.5v-5c0-0.3-0.2-0.5-1-0.5V34.2z
			 M118.7,38.7c0,1.1-0.7,2.2-2.3,2.2c-0.5,0-1.2-0.1-1.6-0.4l-0.5,0.4H114v-2.3h0.3c0.6,1.2,1.3,2,2.2,2c0.8,0,1.2-0.5,1.2-1.1
			c0-0.7-0.5-1-1.6-1.4c-1-0.3-2-0.7-2-1.9c0-1.3,0.9-2.1,2.3-2.1c0.5,0,1.1,0.2,1.4,0.3l0.3-0.4h0.3v2.1h-0.3
			c-0.5-1.1-1.1-1.7-1.8-1.7c-0.6,0-1.1,0.4-1.1,1c0,0.7,0.5,1,1.6,1.3C117.7,37.1,118.7,37.5,118.7,38.7 M126.2,34.2l0,2.2l-0.3,0
			c-0.5-1.2-1-1.9-1.8-1.9H124V40c0,0.3,0.2,0.5,1,0.5v0.3h-3.5v-0.3c0.8,0,1.1-0.2,1.1-0.5v-5.5h-0.2c-0.8,0-1.2,0.7-1.8,1.9
			l-0.3,0l0.1-2.2H126.2z M133,39.8l-2-5.6h-0.8l-1.9,5c-0.4,0.9-0.6,1.2-1.2,1.4v0.3h2.3v-0.3c-0.8-0.1-1-0.4-0.6-1.3l0.3-0.9h2.1
			l0.5,1.5c0.2,0.5,0,0.7-0.9,0.7v0.3h3.4v-0.3C133.4,40.4,133.2,40.2,133,39.8 M129.1,38l0.9-2.5h0.1L131,38H129.1z M140,38.7
			c0,1.1-0.7,2.2-2.3,2.2c-0.5,0-1.2-0.1-1.6-0.4l-0.5,0.4h-0.3v-2.3h0.3c0.6,1.2,1.3,2,2.2,2c0.8,0,1.2-0.5,1.2-1.1
			c0-0.7-0.5-1-1.6-1.4c-1-0.3-2-0.7-2-1.9c0-1.3,0.9-2.1,2.3-2.1c0.5,0,1.1,0.2,1.4,0.3l0.3-0.4h0.3v2.1h-0.3
			c-0.5-1.1-1.1-1.7-1.8-1.7c-0.6,0-1.1,0.4-1.1,1c0,0.7,0.5,1,1.6,1.3C139,37.1,140,37.5,140,38.7"/>
	</g>
</g>
</svg>
