<?xml version="1.0" encoding="utf-8"?>
<!-- Generator: Adobe Illustrator 26.0.1, SVG Export Plug-In . SVG Version: 6.00 Build 0)  -->
<!DOCTYPE svg PUBLIC "-//W3C//DTD SVG 1.1//EN" "http://www.w3.org/Graphics/SVG/1.1/DTD/svg11.dtd" [
	<!ENTITY ns_extend "http://ns.adobe.com/Extensibility/1.0/">
	<!ENTITY ns_ai "http://ns.adobe.com/AdobeIllustrator/10.0/">
	<!ENTITY ns_graphs "http://ns.adobe.com/Graphs/1.0/">
	<!ENTITY ns_vars "http://ns.adobe.com/Variables/1.0/">
	<!ENTITY ns_imrep "http://ns.adobe.com/ImageReplacement/1.0/">
	<!ENTITY ns_sfw "http://ns.adobe.com/SaveForWeb/1.0/">
	<!ENTITY ns_custom "http://ns.adobe.com/GenericCustomNamespace/1.0/">
	<!ENTITY ns_adobe_xpath "http://ns.adobe.com/XPath/1.0/">
]>
<svg version="1.1" id="Layer_1" xmlns:x="&ns_extend;" xmlns:i="&ns_ai;" xmlns:graph="&ns_graphs;"
	 xmlns="http://www.w3.org/2000/svg" xmlns:xlink="http://www.w3.org/1999/xlink" x="0px" y="0px" viewBox="0 0 200 70"
	 style="enable-background:new 0 0 200 70;" xml:space="preserve">
<style type="text/css">
	.st0{fill:#080505;}
	.st1{fill:#F8AF41;}
	.st2{fill:#376278;}
	.st3{fill:#FFC663;}
	.st4{fill:#F6CE76;}
	.st5{fill:#0D98BB;}
	.st6{fill:#70B599;}
	.st7{fill:#EAE3AC;}
	.st8{fill:#91060D;}
	.st9{fill:#2D628C;}
	.st10{fill:#012944;}
	.st11{fill:#043754;}
	.st12{fill:#1D324D;}
	.st13{fill:#8C7449;}
	.st14{fill:#003756;}
	.st15{fill:#53B2D3;}
	.st16{fill:#082042;}
	.st17{fill:#055985;}
	.st18{fill:#A08C6A;}
	.st19{clip-path:url(#SVGID_00000033335599285348464660000007547749225054634929_);}
	.st20{filter:url(#Adobe_OpacityMaskFilter);}
	.st21{opacity:0.9;mask:url(#SVGID_00000021817090307817669260000005670851779741629860_);fill:#FFFFFF;}
	.st22{filter:url(#Adobe_OpacityMaskFilter_00000044166169401272669870000003825080395383963798_);}
	.st23{opacity:0.75;mask:url(#SVGID_00000028283237280355081540000011673608768055329714_);}
	.st24{filter:url(#Adobe_OpacityMaskFilter_00000127730056097543139600000002540473584472307898_);}
	.st25{mask:url(#SVGID_00000062165205564332608870000013974032959401706131_);fill:#FFFFFF;}
	.st26{filter:url(#Adobe_OpacityMaskFilter_00000011730179933054568150000017828010398822720667_);}
	.st27{opacity:0.75;mask:url(#SVGID_00000062876927466356596140000012961916465027713675_);}
	.st28{fill:none;stroke:#000000;stroke-width:1.2;}
	.st29{clip-path:url(#SVGID_00000090257002481428470120000015624062725008053379_);}
	.st30{fill:#1E2731;}
	.st31{fill:#777779;}
	
		.st32{clip-path:url(#SVGID_00000000215771400480704950000011682018251106534567_);fill:url(#SVGID_00000016789006499028341290000015253923390556670099_);}
</style>
<metadata>
	<sfw  xmlns="&ns_sfw;">
		<slices></slices>
		<sliceSourceBounds  bottomLeftOrigin="true" height="515.4" width="2527.2" x="1.1" y="-405.1"></sliceSourceBounds>
	</sfw>
</metadata>
<g>
	<path class="st11" d="M36.4,55c0.4-0.2,0.8-0.4,1-0.8c0.2-0.4,0.4-0.9,0.4-1.6c0-0.9-0.2-1.5-0.6-2c-0.4-0.4-1.1-0.7-2-0.7H34v5.3
		h0.9C35.5,55.3,36,55.2,36.4,55 M37.5,50.3c0.5,0.5,0.8,1.3,0.8,2.3c0,1.1-0.3,1.8-0.9,2.3c-0.6,0.5-1.5,0.8-2.6,0.8h-1.5v-6.2h1.7
		C36.2,49.5,37,49.8,37.5,50.3"/>
	<path class="st11" d="M42.5,55.5c-0.4-0.2-0.6-0.5-0.8-0.9c-0.2-0.4-0.3-0.8-0.3-1.3v-3.8H42v3.7c0,1.4,0.7,2.2,2,2.2
		c0.6,0,1.1-0.2,1.5-0.5c0.3-0.4,0.5-0.9,0.5-1.6v-3.7h0.6v3.8c0,0.6-0.1,1.1-0.3,1.5c-0.2,0.4-0.5,0.7-0.9,0.8
		c-0.4,0.2-0.8,0.3-1.3,0.3C43.3,55.8,42.9,55.7,42.5,55.5"/>
	<path class="st11" d="M53.4,54.9c0.3-0.2,0.4-0.5,0.4-0.9c0-0.4-0.1-0.7-0.4-0.9c-0.3-0.2-0.7-0.3-1.2-0.3h-1.6v2.5h1.6
		C52.7,55.3,53.1,55.2,53.4,54.9 M50.5,50v2.4h1.4c0.5,0,0.9-0.1,1.2-0.3c0.3-0.2,0.5-0.5,0.5-1c0-0.2-0.1-0.4-0.2-0.6
		c-0.1-0.2-0.3-0.3-0.5-0.4C52.6,50,52.4,50,52,50H50.5z M53.9,53c0.3,0.3,0.4,0.6,0.4,1c0,0.3-0.1,0.6-0.2,0.8
		c-0.2,0.3-0.4,0.5-0.8,0.6c-0.3,0.2-0.8,0.2-1.3,0.2h-2.1v-6.2h2c0.4,0,0.8,0.1,1.1,0.2c0.3,0.1,0.6,0.3,0.7,0.5
		c0.2,0.2,0.3,0.5,0.3,0.8c0,0.3-0.1,0.6-0.3,0.9c-0.2,0.3-0.5,0.4-1,0.5C53.3,52.6,53.7,52.8,53.9,53"/>
	<path class="st11" d="M58.2,53.3h2.6l-1.3-3.2L58.2,53.3z M59.8,49.5l2.5,6.2v0h-0.6l-0.8-1.9h-3l-0.8,1.9h-0.5v0l2.5-6.2H59.8z"/>
	<rect x="65.2" y="49.5" class="st11" width="0.6" height="6.2"/>
	<path class="st11" d="M74.5,55.4c-0.4-0.3-0.8-0.6-1-1.1c-0.2-0.5-0.3-1-0.3-1.7c0-0.7,0.1-1.3,0.4-1.8c0.3-0.5,0.6-0.8,1.1-1.1
		c0.4-0.2,0.9-0.3,1.4-0.3c0.4,0,0.7,0,1.1,0.1c0.3,0.1,0.6,0.2,1,0.4l-0.2,0.4c-0.3-0.2-0.6-0.3-0.8-0.4c-0.3-0.1-0.6-0.1-0.9-0.1
		c-0.5,0-0.9,0.1-1.3,0.3c-0.3,0.2-0.6,0.5-0.8,1c-0.2,0.4-0.3,0.9-0.3,1.4c0,0.5,0.1,1,0.3,1.4c0.2,0.4,0.4,0.7,0.8,1
		c0.3,0.2,0.8,0.4,1.3,0.4c0.3,0,0.7,0,1-0.1c0.3-0.1,0.6-0.2,0.9-0.4l0.2,0.4c-0.7,0.4-1.4,0.6-2.1,0.6
		C75.5,55.8,75,55.7,74.5,55.4"/>
	<path class="st11" d="M81.6,52.7h1.3c0.6,0,1-0.1,1.3-0.4c0.3-0.2,0.4-0.6,0.4-1c0-0.4-0.1-0.8-0.4-1c-0.3-0.2-0.7-0.4-1.3-0.4
		h-1.3V52.7z M85.5,55.7L85.5,55.7l-0.6,0l-2-2.6h-1.2v2.6H81v-6.2h1.9c0.5,0,0.9,0.1,1.2,0.2c0.3,0.1,0.6,0.3,0.8,0.6
		c0.2,0.3,0.3,0.6,0.3,0.9c0,0.3-0.1,0.6-0.2,0.8c-0.1,0.3-0.3,0.5-0.6,0.6c-0.3,0.2-0.6,0.3-0.9,0.3L85.5,55.7z"/>
	<polygon class="st11" points="88.9,55.3 92.2,55.3 92.2,55.7 88.4,55.7 88.4,49.5 92.1,49.5 92.1,50 88.9,50 88.9,52.4 91.7,52.4 
		91.7,52.8 88.9,52.8 	"/>
	<polygon class="st11" points="96,55.3 99.2,55.3 99.2,55.7 95.5,55.7 95.5,49.5 99.2,49.5 99.2,50 96,50 96,52.4 98.8,52.4 
		98.8,52.8 96,52.8 	"/>
	<polygon class="st11" points="103.7,52.5 106.9,55.7 106.9,55.7 106.3,55.7 103.1,52.5 103.1,55.7 102.5,55.7 102.5,49.5 
		103.1,49.5 103.1,52.5 106.2,49.5 106.8,49.5 106.8,49.6 	"/>
	<polygon class="st11" points="118.5,49.5 119,49.5 119,55.7 118.5,55.7 118.5,52.8 114.6,52.8 114.6,55.7 114,55.7 114,49.5 
		114.6,49.5 114.6,52.3 118.5,52.3 	"/>
	<path class="st11" d="M123.5,53.3h2.6l-1.3-3.2L123.5,53.3z M125.1,49.5l2.5,6.2v0H127l-0.8-1.9h-3l-0.8,1.9H122v0l2.5-6.2H125.1z"
		/>
	<path class="st11" d="M131.1,52.7h1.3c0.6,0,1-0.1,1.3-0.4c0.3-0.2,0.4-0.6,0.4-1c0-0.4-0.1-0.8-0.4-1c-0.3-0.2-0.7-0.4-1.3-0.4
		h-1.3V52.7z M134.9,55.7L134.9,55.7l-0.6,0l-2-2.6h-1.2v2.6h-0.6v-6.2h1.9c0.5,0,0.9,0.1,1.2,0.2c0.3,0.1,0.6,0.3,0.8,0.6
		c0.2,0.3,0.3,0.6,0.3,0.9c0,0.3-0.1,0.6-0.2,0.8c-0.1,0.3-0.3,0.5-0.6,0.6c-0.3,0.2-0.6,0.3-0.9,0.3L134.9,55.7z"/>
	<path class="st11" d="M141.3,54.9c0.3-0.2,0.4-0.5,0.4-0.9c0-0.4-0.1-0.7-0.4-0.9c-0.3-0.2-0.7-0.3-1.2-0.3h-1.6v2.5h1.6
		C140.6,55.3,141,55.2,141.3,54.9 M138.4,50v2.4h1.4c0.5,0,0.9-0.1,1.2-0.3c0.3-0.2,0.5-0.5,0.5-1c0-0.2-0.1-0.4-0.2-0.6
		c-0.1-0.2-0.3-0.3-0.5-0.4c-0.2-0.1-0.5-0.1-0.8-0.1H138.4z M141.9,53c0.3,0.3,0.4,0.6,0.4,1c0,0.3-0.1,0.6-0.2,0.8
		c-0.2,0.3-0.4,0.5-0.8,0.6c-0.3,0.2-0.8,0.2-1.3,0.2h-2.1v-6.2h2c0.4,0,0.8,0.1,1.1,0.2c0.3,0.1,0.6,0.3,0.7,0.5
		c0.2,0.2,0.3,0.5,0.3,0.8c0,0.3-0.1,0.6-0.3,0.9c-0.2,0.3-0.5,0.4-1,0.5C141.2,52.6,141.6,52.8,141.9,53"/>
	<path class="st11" d="M149.2,55c0.4-0.2,0.6-0.6,0.8-1c0.2-0.4,0.3-0.9,0.3-1.4c0-0.5-0.1-1-0.3-1.4c-0.2-0.4-0.4-0.7-0.8-1
		c-0.3-0.2-0.8-0.4-1.3-0.4c-0.5,0-0.9,0.1-1.3,0.3c-0.4,0.2-0.6,0.6-0.8,1c-0.2,0.4-0.3,0.9-0.3,1.4c0,0.5,0.1,1,0.3,1.4
		c0.2,0.4,0.4,0.8,0.8,1c0.3,0.2,0.8,0.4,1.3,0.4C148.4,55.4,148.8,55.3,149.2,55 M146.3,55.4c-0.4-0.3-0.8-0.7-1-1.1
		c-0.2-0.5-0.3-1-0.3-1.7c0-0.7,0.1-1.3,0.4-1.8c0.3-0.5,0.6-0.8,1.1-1.1c0.4-0.2,0.9-0.3,1.4-0.3c0.6,0,1.1,0.1,1.5,0.4
		c0.4,0.3,0.7,0.6,1,1.1c0.2,0.5,0.3,1,0.3,1.7c0,0.7-0.1,1.3-0.4,1.8c-0.3,0.5-0.6,0.8-1.1,1.1c-0.4,0.2-0.9,0.3-1.4,0.3
		C147.3,55.8,146.8,55.7,146.3,55.4"/>
	<path class="st11" d="M154.9,55.5c-0.4-0.2-0.6-0.5-0.8-0.9c-0.2-0.4-0.3-0.8-0.3-1.3v-3.8h0.6v3.7c0,1.4,0.7,2.2,2,2.2
		c0.6,0,1.1-0.2,1.5-0.5c0.3-0.4,0.5-0.9,0.5-1.6v-3.7h0.6v3.8c0,0.6-0.1,1.1-0.3,1.5c-0.2,0.4-0.5,0.7-0.9,0.8
		c-0.4,0.2-0.8,0.3-1.3,0.3C155.8,55.8,155.3,55.7,154.9,55.5"/>
	<path class="st11" d="M162.9,52.7h1.3c0.6,0,1-0.1,1.3-0.4c0.3-0.2,0.4-0.6,0.4-1c0-0.4-0.1-0.8-0.4-1c-0.3-0.2-0.7-0.4-1.3-0.4
		h-1.3V52.7z M166.8,55.7L166.8,55.7l-0.6,0l-2-2.6h-1.2v2.6h-0.6v-6.2h1.9c0.5,0,0.9,0.1,1.2,0.2c0.3,0.1,0.6,0.3,0.8,0.6
		c0.2,0.3,0.3,0.6,0.3,0.9c0,0.3-0.1,0.6-0.2,0.8c-0.1,0.3-0.3,0.5-0.6,0.6c-0.3,0.2-0.6,0.3-0.9,0.3L166.8,55.7z"/>
	<polygon class="st11" points="0.6,9.6 21,9.6 21,12.8 12.6,12.8 12.6,30.4 9,30.4 9,12.8 0.6,12.8 	"/>
	<polygon class="st11" points="28.9,30.4 28.9,9.6 32.6,9.6 32.6,17.5 44.1,17.5 44.1,9.6 47.8,9.6 47.8,30.4 44.1,30.4 44.1,20.7 
		32.6,20.7 32.6,30.4 	"/>
	<polygon class="st11" points="70.3,21.1 62.1,21.1 62.1,27.2 76.5,27.2 76.5,30.4 58.4,30.4 58.4,9.6 75.7,9.6 75.7,12.8 
		62.1,12.8 62.1,18 70.3,18 	"/>
	<path class="st11" d="M115.9,26.7c-2.3,2.2-5.9,4.3-10.5,4.3c-7,0-11.6-4.9-11.6-11c0-6,4.7-11,11.5-11c3.9,0,7.6,1.5,10,3.7
		l-2.5,2.4c-1.9-1.8-4.8-2.9-7.4-2.9c-4.7,0-7.7,3.6-7.7,7.9c0,4.3,3.1,7.8,7.9,7.8c3.3,0,6.2-1.6,8-3.5L115.9,26.7z"/>
	<path class="st11" d="M133.9,27.8c4.6,0,8.2-3.6,8.2-7.9c0-4.3-3.6-7.8-8.2-7.8c-4.6,0-8.1,3.5-8.1,7.8
		C125.8,24.3,129.3,27.8,133.9,27.8 M133.9,9c6.7,0,12.1,4.9,12.1,11c0,6.2-5.4,11.1-12.1,11.1c-6.7,0-12-4.9-12-11.1
		C121.9,13.9,127.2,9,133.9,9"/>
	<polygon class="st11" points="174.5,9.6 164.7,30.4 161.3,30.4 151.4,9.6 155.6,9.6 163,25.8 163.2,25.8 170.6,9.6 	"/>
	<polygon class="st11" points="194.1,21.1 185.9,21.1 185.9,27.2 200.3,27.2 200.3,30.4 182.2,30.4 182.2,9.6 199.5,9.6 199.5,12.8 
		185.9,12.8 185.9,18 194.1,18 	"/>
</g>
</svg>
