<?xml version="1.0" encoding="utf-8"?>
<!-- Generator: Adobe Illustrator 26.0.1, SVG Export Plug-In . SVG Version: 6.00 Build 0)  -->
<!DOCTYPE svg PUBLIC "-//W3C//DTD SVG 1.1//EN" "http://www.w3.org/Graphics/SVG/1.1/DTD/svg11.dtd" [
	<!ENTITY ns_extend "http://ns.adobe.com/Extensibility/1.0/">
	<!ENTITY ns_ai "http://ns.adobe.com/AdobeIllustrator/10.0/">
	<!ENTITY ns_graphs "http://ns.adobe.com/Graphs/1.0/">
	<!ENTITY ns_vars "http://ns.adobe.com/Variables/1.0/">
	<!ENTITY ns_imrep "http://ns.adobe.com/ImageReplacement/1.0/">
	<!ENTITY ns_sfw "http://ns.adobe.com/SaveForWeb/1.0/">
	<!ENTITY ns_custom "http://ns.adobe.com/GenericCustomNamespace/1.0/">
	<!ENTITY ns_adobe_xpath "http://ns.adobe.com/XPath/1.0/">
]>
<svg version="1.1" id="Layer_1" xmlns:x="&ns_extend;" xmlns:i="&ns_ai;" xmlns:graph="&ns_graphs;"
	 xmlns="http://www.w3.org/2000/svg" xmlns:xlink="http://www.w3.org/1999/xlink" x="0px" y="0px" viewBox="0 0 200 70"
	 style="enable-background:new 0 0 200 70;" xml:space="preserve">
<style type="text/css">
	.st0{fill:#080505;}
	.st1{fill:#F8AF41;}
	.st2{fill:#376278;}
	.st3{fill:#FFC663;}
	.st4{fill:#F6CE76;}
	.st5{fill:#0D98BB;}
	.st6{fill:#70B599;}
	.st7{fill:#EAE3AC;}
	.st8{fill:#91060D;}
	.st9{fill:#2D628C;}
	.st10{fill:#012944;}
	.st11{fill:#043754;}
	.st12{fill:#1D324D;}
	.st13{fill:#8C7449;}
	.st14{fill:#003756;}
	.st15{fill:#53B2D3;}
	.st16{fill:#082042;}
	.st17{fill:#055985;}
	.st18{fill:#A08C6A;}
	.st19{clip-path:url(#SVGID_00000011012450289839941430000008740168535204038051_);}
	.st20{filter:url(#Adobe_OpacityMaskFilter);}
	.st21{opacity:0.9;mask:url(#SVGID_00000116936102797881214180000001063035771531833013_);fill:#FFFFFF;}
	.st22{filter:url(#Adobe_OpacityMaskFilter_00000030465394924498252660000005149637528256827056_);}
	.st23{opacity:0.75;mask:url(#SVGID_00000044864769077381433480000005488818575023094924_);}
	.st24{filter:url(#Adobe_OpacityMaskFilter_00000106862012459322377610000003370881947799614112_);}
	.st25{mask:url(#SVGID_00000085973629837115710400000012409368075365875647_);fill:#FFFFFF;}
	.st26{filter:url(#Adobe_OpacityMaskFilter_00000083773702810190871230000007248702025824340378_);}
	.st27{opacity:0.75;mask:url(#SVGID_00000124127232535987332730000014175076610635994802_);}
	.st28{fill:none;stroke:#000000;stroke-width:1.2;}
	.st29{clip-path:url(#SVGID_00000049912719701787072920000008856358417249343420_);}
	.st30{fill:#1E2731;}
	.st31{fill:#777779;}
	
		.st32{clip-path:url(#SVGID_00000136397188602668719860000017517265750909041037_);fill:url(#SVGID_00000057132030252261354510000002568779333910999467_);}
</style>
<metadata>
	<sfw  xmlns="&ns_sfw;">
		<slices></slices>
		<sliceSourceBounds  bottomLeftOrigin="true" height="515.4" width="2527.2" x="1.1" y="-405.1"></sliceSourceBounds>
	</sfw>
</metadata>
<g>
	<g>
		<rect x="3.4" y="48" class="st17" width="188.5" height="0.3"/>
		<path class="st17" d="M19.1,1.6h5.3c1.6,0,3,0.2,4.2,0.5c1.2,0.3,2.1,0.8,2.9,1.5c0.9,0.8,1.6,1.6,2,2.6c0.4,1,0.7,2.1,0.7,3.2
			c0,1.1-0.2,2.2-0.6,3.1c-0.4,1-1,1.8-1.8,2.6c-0.8,0.7-1.7,1.3-2.9,1.7c-1.1,0.4-2.5,0.6-3.9,0.6h-5.9V1.6z M21.8,16.3h2.8
			c0.9,0,1.7-0.1,2.5-0.4c0.8-0.3,1.5-0.7,2.1-1.3c0.6-0.6,1.1-1.3,1.4-2.2c0.3-0.9,0.5-1.8,0.5-3c0-1-0.2-1.9-0.5-2.7
			c-0.3-0.8-0.8-1.5-1.3-2.1c-0.6-0.6-1.3-1-2-1.4c-0.8-0.3-1.7-0.5-2.6-0.5h-2.8V16.3z"/>
		<path class="st17" d="M37.2,1.6h2.7v10.3c0,0.7,0.1,1.3,0.3,1.9c0.2,0.6,0.6,1.1,1,1.6c0.4,0.4,1,0.8,1.6,1.1
			c0.6,0.3,1.3,0.4,2,0.4c0.8,0,1.4-0.1,2.1-0.4c0.6-0.3,1.1-0.6,1.5-1.1c0.4-0.4,0.7-1,1-1.6c0.2-0.6,0.3-1.2,0.3-1.9V1.6h1.2v10.3
			c0,0.8-0.1,1.6-0.4,2.3c-0.3,0.7-0.7,1.3-1.2,1.9c-0.6,0.5-1.3,1-2.2,1.3c-0.9,0.3-1.9,0.5-3.2,0.5c-1.1,0-2.1-0.2-2.9-0.5
			c-0.8-0.3-1.5-0.7-2.1-1.3c-0.6-0.5-1-1.2-1.3-1.9c-0.3-0.7-0.4-1.5-0.4-2.3V1.6z"/>
		<path class="st17" d="M54.6,1.6H61c0.8,0,1.6,0.1,2.3,0.3c0.7,0.2,1.3,0.5,1.8,0.8C65.7,3,66,3.5,66.3,3.9c0.3,0.5,0.4,1,0.4,1.6
			c0,0.4,0,0.8-0.1,1.2c-0.1,0.3-0.2,0.7-0.5,1c-0.2,0.3-0.5,0.6-0.9,0.8c-0.4,0.3-0.8,0.5-1.4,0.8v0c0.6,0.1,1.1,0.2,1.5,0.5
			c0.5,0.2,0.9,0.5,1.2,0.8c0.3,0.3,0.6,0.7,0.7,1.2c0.2,0.4,0.3,0.9,0.3,1.5c0,0.6-0.1,1.2-0.4,1.7c-0.3,0.5-0.6,1-1.1,1.4
			c-0.5,0.4-1.1,0.7-1.7,0.9c-0.7,0.2-1.4,0.3-2.3,0.3h-7.4V1.6z M57.3,8.8h3.4c0.5,0,1-0.1,1.4-0.2c0.4-0.2,0.8-0.4,1.1-0.6
			c0.3-0.3,0.5-0.6,0.6-1C64,6.6,64,6.2,64,5.8c0-0.5-0.1-0.9-0.3-1.3c-0.2-0.4-0.4-0.7-0.8-1c-0.4-0.3-0.8-0.5-1.4-0.6
			c-0.6-0.1-1.3-0.2-2-0.2h-2.2V8.8z M57.3,16.3h2.9c0.8,0,1.4-0.1,2-0.2c0.6-0.1,1-0.4,1.4-0.6c0.4-0.3,0.6-0.6,0.8-1
			c0.2-0.4,0.3-0.8,0.3-1.2c0-0.5-0.1-1-0.2-1.4c-0.2-0.4-0.4-0.8-0.8-1.1c-0.4-0.3-0.8-0.6-1.4-0.7c-0.6-0.2-1.3-0.3-2.2-0.3h-2.8
			V16.3z"/>
		<path class="st17" d="M76.7,1.3l7.5,16.2h-2.7l-2.4-5.3h-6.8l-2.5,5.3h-1.3l7.6-16.2H76.7z M72.7,11.2h5.8l-2.9-6.3L72.7,11.2z"/>
		<rect x="86.2" y="1.6" class="st17" width="2.7" height="15.9"/>
		<path class="st17" d="M102.1,9.6c0,1.1,0.2,2.1,0.5,3c0.3,0.9,0.8,1.6,1.4,2.2c0.6,0.6,1.3,1.1,2.1,1.4c0.8,0.3,1.7,0.5,2.6,0.5
			c0.6,0,1.1-0.1,1.6-0.3c0.5-0.2,1-0.5,1.4-0.8c0.4-0.3,0.8-0.7,1.2-1.2c0.3-0.4,0.6-0.9,0.9-1.3l1.1,0.7c-0.3,0.5-0.7,1-1.2,1.5
			c-0.4,0.5-1,0.9-1.5,1.3c-0.6,0.4-1.2,0.7-2,0.9c-0.7,0.2-1.6,0.3-2.5,0.3c-0.9,0-1.7-0.1-2.5-0.3c-0.8-0.2-1.5-0.5-2.1-0.8
			c-0.7-0.4-1.2-0.8-1.7-1.3c-0.5-0.5-0.9-1.1-1.3-1.7c-0.4-0.6-0.6-1.3-0.8-2c-0.2-0.7-0.3-1.4-0.3-2.2c0-0.7,0.1-1.5,0.3-2.2
			c0.2-0.7,0.5-1.4,0.8-2c0.4-0.6,0.8-1.2,1.3-1.7c0.5-0.5,1.1-1,1.8-1.3c0.7-0.4,1.4-0.7,2.2-0.9c0.8-0.2,1.6-0.3,2.5-0.3
			c0.8,0,1.6,0.1,2.3,0.3c0.7,0.2,1.4,0.5,1.9,0.9c0.6,0.4,1.1,0.8,1.6,1.3c0.5,0.5,0.8,1,1.2,1.5l-1.2,0.8
			c-0.7-1.3-1.4-2.2-2.2-2.8c-0.8-0.6-1.8-0.9-2.8-0.9c-0.9,0-1.8,0.2-2.6,0.5c-0.8,0.3-1.5,0.8-2.1,1.4c-0.6,0.6-1.1,1.4-1.4,2.3
			C102.3,7.5,102.1,8.5,102.1,9.6"/>
		<path class="st17" d="M118.2,1.6h5.5c1,0,1.8,0.1,2.5,0.3c0.7,0.2,1.3,0.5,1.8,0.9c0.5,0.4,0.8,0.8,1.1,1.3
			c0.2,0.5,0.4,1.1,0.4,1.7c0,0.5-0.1,1-0.3,1.4c-0.2,0.4-0.4,0.8-0.8,1.2c-0.3,0.3-0.8,0.6-1.2,0.9c-0.5,0.3-1,0.5-1.6,0.6l5.8,7.7
			h-3.1l-5.5-7.5h-1.9v7.5h-2.7V1.6z M120.9,9.2h1.5c0.6,0,1.2-0.1,1.7-0.2c0.5-0.2,0.9-0.4,1.3-0.7c0.4-0.3,0.7-0.6,0.9-1.1
			c0.2-0.4,0.3-0.9,0.3-1.4c0-0.5-0.1-0.9-0.2-1.3c-0.2-0.4-0.4-0.7-0.7-1c-0.3-0.3-0.6-0.5-1.1-0.7c-0.4-0.2-0.9-0.2-1.3-0.2h-2.3
			V9.2z"/>
		<polygon class="st17" points="144.3,1.6 144.3,2.6 136,2.6 136,8.3 141.6,8.3 141.6,9.3 136,9.3 136,16.5 144.3,16.5 144.3,17.5 
			133.3,17.5 133.3,1.6 		"/>
		<polygon class="st17" points="158.3,1.6 158.3,2.6 150,2.6 150,8.3 155.6,8.3 155.6,9.3 150,9.3 150,16.5 158.3,16.5 158.3,17.5 
			147.3,17.5 147.3,1.6 		"/>
		<polygon class="st17" points="161.3,1.6 163.9,1.6 163.9,8.6 172.3,1.6 174,1.6 166.1,8.3 176.1,17.5 172.8,17.5 163.9,9.4 
			163.9,17.5 161.3,17.5 		"/>
		<polygon class="st17" points="66.2,24.2 67,24.2 67,28.1 71.9,28.1 71.9,24.2 72.7,24.2 72.7,33 71.9,33 71.9,28.8 67,28.8 67,33 
			66.2,33 		"/>
		<path class="st17" d="M78.8,24.2h0.8l3.7,8.7h-0.9l-0.9-2.3h-4.6l-1,2.3H75L78.8,24.2z M79.2,25.1l-2,4.8h4L79.2,25.1z"/>
		<path class="st17" d="M85.5,24.2h2.3c0.1,0,0.3,0,0.5,0c0.2,0,0.4,0,0.6,0.1c0.2,0,0.5,0.1,0.7,0.2c0.2,0.1,0.5,0.2,0.6,0.4
			c0.2,0.2,0.3,0.4,0.5,0.7c0.1,0.3,0.2,0.6,0.2,1c0,0.4-0.1,0.8-0.2,1c-0.1,0.3-0.3,0.5-0.5,0.7c-0.2,0.2-0.5,0.3-0.7,0.4
			c-0.3,0.1-0.5,0.1-0.8,0.2l2.5,4.2h-0.9l-2.5-4.1h-1.5V33h-0.8V24.2z M86.4,28.1h1.7c0.4,0,0.8-0.1,1-0.2c0.3-0.1,0.5-0.2,0.6-0.4
			c0.1-0.2,0.3-0.3,0.3-0.5c0.1-0.2,0.1-0.3,0.1-0.5c0-0.1,0-0.3-0.1-0.5c-0.1-0.2-0.2-0.3-0.3-0.5c-0.1-0.2-0.4-0.3-0.6-0.4
			c-0.3-0.1-0.6-0.2-1-0.2h-1.7V28.1z"/>
		<path class="st17" d="M93.9,24.2h2.5c0.3,0,0.7,0,1,0.1c0.3,0.1,0.6,0.2,0.9,0.3c0.3,0.2,0.5,0.4,0.7,0.7c0.2,0.3,0.3,0.7,0.3,1.2
			c0,0.4-0.1,0.8-0.4,1.2c-0.3,0.3-0.7,0.5-1.2,0.7v0c0.3,0,0.6,0.1,0.8,0.2c0.2,0.1,0.4,0.3,0.6,0.4c0.2,0.2,0.3,0.4,0.4,0.7
			c0.1,0.3,0.1,0.5,0.1,0.8c0,0.5-0.1,0.9-0.3,1.2c-0.2,0.3-0.4,0.6-0.7,0.7c-0.3,0.2-0.6,0.3-1,0.4c-0.3,0.1-0.7,0.1-1,0.1h-2.8
			V24.2z M94.7,28h1.7c0.4,0,0.8-0.1,1-0.2c0.3-0.1,0.5-0.2,0.6-0.4c0.1-0.2,0.2-0.3,0.3-0.5c0-0.2,0.1-0.3,0.1-0.5
			c0-0.3-0.1-0.6-0.2-0.8c-0.1-0.2-0.2-0.4-0.4-0.5c-0.2-0.1-0.4-0.2-0.6-0.3C97,25,96.7,25,96.5,25h-1.8V28z M94.7,32.2h1.9
			c0.5,0,0.9-0.1,1.2-0.2c0.3-0.1,0.5-0.3,0.7-0.4c0.2-0.2,0.3-0.4,0.3-0.5c0.1-0.2,0.1-0.4,0.1-0.5c0-0.3-0.1-0.6-0.2-0.8
			c-0.1-0.2-0.3-0.4-0.5-0.6c-0.2-0.1-0.4-0.2-0.7-0.3c-0.3-0.1-0.5-0.1-0.8-0.1h-2V32.2z"/>
		<path class="st17" d="M102.1,28.6c0-0.7,0.1-1.3,0.3-1.8c0.2-0.6,0.5-1,0.9-1.4c0.4-0.4,0.9-0.7,1.4-1c0.6-0.2,1.2-0.3,1.8-0.3
			c0.7,0,1.3,0.1,1.8,0.3c0.6,0.2,1,0.6,1.4,1c0.4,0.4,0.7,0.9,0.9,1.4c0.2,0.6,0.3,1.2,0.3,1.8c0,0.7-0.1,1.3-0.3,1.8
			c-0.2,0.6-0.5,1.1-0.9,1.5c-0.4,0.4-0.9,0.7-1.4,1c-0.6,0.2-1.2,0.3-1.8,0.3c-0.7,0-1.3-0.1-1.8-0.3c-0.6-0.2-1-0.5-1.4-1
			c-0.4-0.4-0.7-0.9-0.9-1.5C102.2,29.9,102.1,29.3,102.1,28.6 M102.9,28.6c0,0.5,0.1,1.1,0.3,1.5c0.2,0.5,0.4,0.9,0.7,1.2
			c0.3,0.3,0.7,0.6,1.2,0.8c0.5,0.2,1,0.3,1.5,0.3c0.6,0,1.1-0.1,1.5-0.3c0.5-0.2,0.8-0.5,1.2-0.8c0.3-0.3,0.6-0.8,0.7-1.2
			c0.2-0.5,0.3-1,0.3-1.5c0-0.5-0.1-1-0.3-1.5c-0.2-0.5-0.4-0.9-0.7-1.2c-0.3-0.3-0.7-0.6-1.2-0.8c-0.5-0.2-1-0.3-1.5-0.3
			c-0.6,0-1.1,0.1-1.5,0.3c-0.5,0.2-0.8,0.5-1.2,0.8c-0.3,0.3-0.6,0.8-0.7,1.2C103,27.6,102.9,28.1,102.9,28.6"/>
		<path class="st17" d="M120.1,29.6c0,0.5-0.1,0.9-0.2,1.3c-0.1,0.4-0.3,0.8-0.5,1.1c-0.3,0.3-0.6,0.6-1,0.8
			c-0.4,0.2-0.9,0.3-1.5,0.3c-0.6,0-1.1-0.1-1.5-0.3c-0.4-0.2-0.7-0.5-1-0.8c-0.3-0.3-0.4-0.7-0.5-1.1c-0.1-0.4-0.2-0.9-0.2-1.3
			v-5.4h0.8v5.2c0,0.3,0,0.6,0.1,1c0.1,0.4,0.2,0.7,0.3,1c0.2,0.3,0.4,0.6,0.7,0.8c0.3,0.2,0.7,0.3,1.2,0.3c0.5,0,0.9-0.1,1.2-0.3
			c0.3-0.2,0.5-0.4,0.7-0.8c0.2-0.3,0.3-0.6,0.3-1c0.1-0.4,0.1-0.7,0.1-1v-5.2h0.8V29.6z"/>
		<path class="st17" d="M123.4,24.2h2.3c0.1,0,0.3,0,0.5,0c0.2,0,0.4,0,0.6,0.1c0.2,0,0.5,0.1,0.7,0.2c0.2,0.1,0.5,0.2,0.6,0.4
			c0.2,0.2,0.3,0.4,0.5,0.7c0.1,0.3,0.2,0.6,0.2,1c0,0.4-0.1,0.8-0.2,1c-0.1,0.3-0.3,0.5-0.5,0.7c-0.2,0.2-0.5,0.3-0.7,0.4
			c-0.3,0.1-0.5,0.1-0.8,0.2l2.5,4.2h-0.9l-2.5-4.1h-1.5V33h-0.8V24.2z M124.2,28.1h1.7c0.4,0,0.8-0.1,1-0.2
			c0.3-0.1,0.5-0.2,0.6-0.4c0.1-0.2,0.2-0.3,0.3-0.5c0.1-0.2,0.1-0.3,0.1-0.5c0-0.1,0-0.3-0.1-0.5c-0.1-0.2-0.2-0.3-0.3-0.5
			c-0.2-0.2-0.4-0.3-0.6-0.4c-0.3-0.1-0.6-0.2-1-0.2h-1.7V28.1z"/>
		<path class="st17" d="M60.5,67.5L60.5,67.5L60.5,67.5c0.1-0.1,0-0.2,0-0.3L60.1,67c0,0-0.1,0-0.2,0c-0.1,0-0.1,0.1-0.1,0.1l0,0
			c-0.6,1.3-1.7,2.1-2.9,2.1c-1.8,0-3.3-1.9-3.3-4.2c0-2.4,1.4-4.2,3.3-4.2c1.2,0,2.2,0.8,2.8,2l0,0c0,0.1,0.1,0.1,0.1,0.1
			c0.1,0,0.1,0,0.2,0l0.4-0.3c0.1-0.1,0.1-0.2,0-0.2l0,0c-0.8-1.3-2.1-2.1-3.5-2.1c-2.4,0-4.2,2.1-4.2,4.7c0,2.6,1.9,4.7,4.2,4.7
			C58.4,69.8,59.7,68.9,60.5,67.5"/>
		<path class="st17" d="M66.2,61c1.3,0,2.2,0.7,2.2,1.8c0,1-0.9,1.7-2,1.8h-2.2V61H66.2z M68.8,67.2v1.1c0,0.8,0.6,1.4,1.5,1.4h0
			c0.1,0,0.2-0.1,0.2-0.2v-0.1c0-0.1-0.1-0.2-0.2-0.2h0c-0.3,0-0.5-0.4-0.5-0.9v-1.1c0-1.2-0.7-2-1.9-2.4c0.9-0.4,1.5-1.1,1.5-2
			c0-1.4-1.3-2.3-3.2-2.3h-2.6c-0.1,0-0.2,0.1-0.2,0.2v8.7c0,0.1,0.1,0.2,0.2,0.2h0.6c0.1,0,0.2-0.1,0.2-0.2v-4.3h2.2
			C68,65.1,68.8,65.9,68.8,67.2"/>
		<path class="st17" d="M73.2,69.6h5.9c0.1,0,0.2-0.1,0.2-0.2v-0.2c0-0.1,0-0.1-0.1-0.1c0,0-0.1-0.1-0.1-0.1L76.4,69H74v-3.9h1.3
			l1.6,0c0,0,0.1,0,0.1-0.1c0,0,0.1-0.1,0.1-0.1v-0.2c0-0.1,0-0.1-0.1-0.1c0,0-0.1-0.1-0.1-0.1l-1.6,0H74V61h2.1l2.4,0.1
			c0.1,0,0.1,0,0.1-0.1c0,0,0.1-0.1,0.1-0.1v-0.2c0-0.1-0.1-0.2-0.2-0.2h-5.2c-0.1,0-0.2,0.1-0.2,0.2v8.7
			C73,69.5,73.1,69.6,73.2,69.6"/>
		<path class="st17" d="M82.2,69.6h5.9c0.1,0,0.2-0.1,0.2-0.2v-0.2c0-0.1,0-0.1-0.1-0.1c0,0-0.1-0.1-0.1-0.1L85.4,69H83v-3.9h1.3
			l1.6,0c0.1,0,0.1,0,0.1-0.1c0,0,0.1-0.1,0.1-0.1v-0.2c0-0.1,0-0.1-0.1-0.1c0,0-0.1-0.1-0.1-0.1l-1.6,0H83V61h2.1l2.4,0.1
			c0.1,0,0.1,0,0.1-0.1c0,0,0.1-0.1,0.1-0.1v-0.2c0-0.1-0.1-0.2-0.2-0.2h-5.2c-0.1,0-0.2,0.1-0.2,0.2v8.7
			C82.1,69.5,82.1,69.6,82.2,69.6"/>
		<path class="st17" d="M97.8,69.3l-4.1-5.1l1.4-1.6l1.6-1.8c0-0.1,0.1-0.1,0-0.2c0-0.1-0.1-0.1-0.2-0.1h-0.3c-0.1,0-0.1,0-0.1,0.1
			l-1.5,1.7L92,65.3v-4.6c0-0.1-0.1-0.2-0.2-0.2h-0.6c-0.1,0-0.2,0.1-0.2,0.2v8.7c0,0.1,0.1,0.2,0.2,0.2h0.6c0.1,0,0.2-0.1,0.2-0.2
			v-3.2l1.1-1.2l3.7,4.6c0,0,0.1,0.1,0.1,0.1h0.7c0.1,0,0.1,0,0.2-0.1C97.9,69.4,97.9,69.3,97.8,69.3"/>
		<path class="st17" d="M112.1,69l-2.7,0.1H107v-3.9h1.3l1.6,0c0,0,0.1,0,0.1-0.1c0,0,0.1-0.1,0.1-0.1v-0.2c0-0.1,0-0.1-0.1-0.1
			c0,0-0.1-0.1-0.1-0.1l-1.6,0H107V61l2.1,0l2.4,0.1c0.1,0,0.1,0,0.1-0.1c0,0,0.1-0.1,0.1-0.1v-0.2c0-0.1-0.1-0.2-0.2-0.2h-5.2
			c-0.1,0-0.2,0.1-0.2,0.2v8.7c0,0.1,0.1,0.2,0.2,0.2h5.9c0.1,0,0.2-0.1,0.2-0.2v-0.2c0-0.1,0-0.1-0.1-0.1
			C112.2,69,112.2,68.9,112.1,69"/>
		<path class="st17" d="M116,61h2.2c1.8,0,3.3,1.8,3.3,4c0,2.2-1.5,4-3.3,4H116V61z M118.2,60.5h-2.9c-0.1,0-0.2,0.1-0.2,0.2v8.7
			c0,0.1,0.1,0.2,0.2,0.2h2.9c2.3,0,4.2-2,4.2-4.5C122.4,62.5,120.5,60.5,118.2,60.5"/>
		<path class="st17" d="M142.4,69l-2.7,0.1h-2.4v-3.9h1.3l1.6,0c0,0,0.1,0,0.1-0.1c0,0,0.1-0.1,0.1-0.1v-0.2c0-0.1,0-0.1-0.1-0.1
			c0,0-0.1-0.1-0.1-0.1l-1.6,0h-1.3V61l2.1,0l2.4,0.1c0.1,0,0.1,0,0.1-0.1c0,0,0.1-0.1,0.1-0.1v-0.2c0-0.1-0.1-0.2-0.2-0.2h-5.2
			c-0.1,0-0.2,0.1-0.2,0.2v8.7c0,0.1,0.1,0.2,0.2,0.2h5.9c0.1,0,0.2-0.1,0.2-0.2v-0.2c0-0.1,0-0.1-0.1-0.1
			C142.5,69,142.5,68.9,142.4,69"/>
		<path class="st17" d="M133.4,65.1L133.4,65.1l-1.8,0l-1.9,0c0,0-0.1,0-0.1,0.1c0,0-0.1,0.1-0.1,0.1v0.2c0,0.1,0,0.1,0.1,0.1
			c0,0,0.1,0.1,0.1,0.1l1.9,0h1c-0.2,2.1-1.6,3.7-3.3,3.7c-1.8,0-3.3-1.9-3.3-4.2c0-2.4,1.4-4.2,3.3-4.2c1.1,0,2.2,0.7,2.8,2l0,0
			c0,0.1,0.1,0.1,0.2,0.1h0.5c0.1,0,0.1,0,0.2-0.1c0-0.1,0-0.1,0-0.2l0-0.1c-0.8-1.4-2.1-2.2-3.6-2.2c-2.4,0-4.2,2.1-4.2,4.7
			c0,2.6,1.9,4.7,4.2,4.7c2.3,0,4.1-2,4.3-4.4l0,0c0-0.1,0-0.1-0.1-0.1C133.5,65.1,133.5,65.1,133.4,65.1"/>
	</g>
</g>
</svg>
