<?xml version="1.0" encoding="utf-8"?>
<!-- Generator: Adobe Illustrator 26.0.1, SVG Export Plug-In . SVG Version: 6.00 Build 0)  -->
<!DOCTYPE svg PUBLIC "-//W3C//DTD SVG 1.1//EN" "http://www.w3.org/Graphics/SVG/1.1/DTD/svg11.dtd" [
	<!ENTITY ns_extend "http://ns.adobe.com/Extensibility/1.0/">
	<!ENTITY ns_ai "http://ns.adobe.com/AdobeIllustrator/10.0/">
	<!ENTITY ns_graphs "http://ns.adobe.com/Graphs/1.0/">
	<!ENTITY ns_vars "http://ns.adobe.com/Variables/1.0/">
	<!ENTITY ns_imrep "http://ns.adobe.com/ImageReplacement/1.0/">
	<!ENTITY ns_sfw "http://ns.adobe.com/SaveForWeb/1.0/">
	<!ENTITY ns_custom "http://ns.adobe.com/GenericCustomNamespace/1.0/">
	<!ENTITY ns_adobe_xpath "http://ns.adobe.com/XPath/1.0/">
]>
<svg version="1.1" id="Layer_1" xmlns:x="&ns_extend;" xmlns:i="&ns_ai;" xmlns:graph="&ns_graphs;"
	 xmlns="http://www.w3.org/2000/svg" xmlns:xlink="http://www.w3.org/1999/xlink" x="0px" y="0px" viewBox="0 0 200 56.4"
	 style="enable-background:new 0 0 200 56.4;" xml:space="preserve">
<style type="text/css">
	.st0{fill:#080505;}
	.st1{fill:#F8AF41;}
	.st2{fill:#376278;}
	.st3{fill:#FFC663;}
	.st4{fill:#F6CE76;}
	.st5{fill:#0D98BB;}
	.st6{fill:#70B599;}
	.st7{fill:#EAE3AC;}
	.st8{fill:#91060D;}
	.st9{fill:#2D628C;}
	.st10{fill:#012944;}
	.st11{fill:#043754;}
	.st12{fill:#1D324D;}
	.st13{fill:#8C7449;}
	.st14{fill:#003756;}
	.st15{fill:#53B2D3;}
	.st16{fill:#082042;}
	.st17{fill:#055985;}
	.st18{fill:#A08C6A;}
	.st19{clip-path:url(#SVGID_00000089541169888108222620000010213006967565147027_);}
	.st20{filter:url(#Adobe_OpacityMaskFilter);}
	.st21{opacity:0.9;mask:url(#SVGID_00000056400133250746849980000003869005000716328589_);fill:#FFFFFF;}
	.st22{filter:url(#Adobe_OpacityMaskFilter_00000028316223126275011870000014626276319104056763_);}
	.st23{opacity:0.75;mask:url(#SVGID_00000116948306122609104920000000416084514623310726_);}
	.st24{filter:url(#Adobe_OpacityMaskFilter_00000118384949523696006890000005177840488072691880_);}
	.st25{mask:url(#SVGID_00000180326892589308962140000018344091689757218445_);fill:#FFFFFF;}
	.st26{filter:url(#Adobe_OpacityMaskFilter_00000057842297067415464000000006908464603991560083_);}
	.st27{opacity:0.75;mask:url(#SVGID_00000181799368314807203110000012670493750546166949_);}
	.st28{fill:none;stroke:#000000;stroke-width:1.2;}
	.st29{clip-path:url(#SVGID_00000036248300130105969020000011361237655345769860_);}
	.st30{fill:#1E2731;}
	.st31{fill:#777779;}
	
		.st32{clip-path:url(#SVGID_00000093175931879546173070000011515989068909949110_);fill:url(#SVGID_00000069390692227744145430000014324906753322406039_);}
</style>
<metadata>
	<sfw  xmlns="&ns_sfw;">
		<slices></slices>
		<sliceSourceBounds  bottomLeftOrigin="true" height="515.4" width="2527.2" x="1.1" y="-405.1"></sliceSourceBounds>
	</sfw>
</metadata>
<g>
	<path class="st18" d="M27.1,19.3c0.1,0.6,0.1,1.3,0.1,2.1c0,4.8,0,9.6,0,14.3c0,0.7,0,1.2-0.1,1.7c-0.1,0.7-0.2,1.5-0.9,2.3
		c-0.3,0.3-0.6,0.6-1,0.7h6.8v-4.3c0-4.9,0-9.9,0-14.8c0-0.8,0.1-1.5,0.2-2.1c0.2-1.2,0.9-2.1,2-2.6h-9C26.4,17.2,27,18.1,27.1,19.3
		"/>
	<path class="st18" d="M39.3,39.6c-0.8,0.4-1.6,0.7-2.4,0.9h7.3l0.6-7.3c-0.4,1.2-1,2.1-1.6,3C42.1,37.8,40.8,38.9,39.3,39.6"/>
	<path class="st18" d="M2.5,19.4c0.1,0.7,0.1,1.4,0.1,1.9c0,4.9,0,9.7,0,14.6c0,0.7-0.1,1.5-0.2,2.2c-0.2,1.1-0.8,1.9-1.7,2.3
		c0,0,0,0,0,0h6.8V16.7H0.7C1.8,17.2,2.4,18.1,2.5,19.4"/>
	<path class="st18" d="M14.6,39.7c-0.7,0.3-1.5,0.6-2.3,0.8h7.4l0.3-7.2c-0.2,0.6-0.4,1.1-0.7,1.7C18.4,37,16.8,38.6,14.6,39.7"/>
	<path class="st18" d="M18.5,20.9c0.3,0.6,0.6,1.3,0.9,2l-0.2-6.2h-7.4c0.8,0.2,1.7,0.4,2.5,0.7C16.2,18.2,17.6,19.4,18.5,20.9"/>
	<path class="st18" d="M15.2,31.4c0.1,0.3,0.2,0.6,0.3,0.9v-7.5c-0.1,0.2-0.2,0.5-0.3,0.7c-0.6,1.5-1.7,2.5-3.2,2.9
		c-0.3,0.1-0.5,0.1-0.8,0.2c0.1,0,0.2,0,0.3,0.1C13.3,28.9,14.5,29.9,15.2,31.4"/>
	<path class="st18" d="M51.1,19.4c0.1,0.7,0.1,1.4,0.1,1.9c0,4.9,0,9.7,0,14.6c0,0.7-0.1,1.5-0.2,2.2c-0.2,1.1-0.8,1.9-1.7,2.3
		c0,0,0,0,0,0H56V16.7h-6.8C50.3,17.2,50.9,18.1,51.1,19.4"/>
	<path class="st18" d="M63.2,39.7c-0.7,0.3-1.5,0.6-2.3,0.8h7.4l0.3-7.2c-0.2,0.6-0.4,1.1-0.7,1.7C66.9,37,65.4,38.6,63.2,39.7"/>
	<path class="st18" d="M67,20.9c0.3,0.6,0.6,1.3,0.9,2l-0.2-6.2h-7.4c0.8,0.2,1.7,0.4,2.5,0.7C64.7,18.2,66.2,19.4,67,20.9"/>
	<path class="st18" d="M63.7,31.4c0.1,0.3,0.2,0.6,0.3,0.9v-7.5c-0.1,0.2-0.2,0.5-0.3,0.7c-0.6,1.5-1.7,2.5-3.2,2.9
		c-0.3,0.1-0.5,0.1-0.8,0.2c0.1,0,0.2,0,0.3,0.1C61.9,28.9,63,29.9,63.7,31.4"/>
	<path class="st18" d="M130.1,38.1c-0.3-0.8-0.6-1.7-0.8-2.6l0-0.2c-0.1,0.8-0.3,1.6-0.6,2.4c-0.5,1.4-1.5,2.4-2.8,3h7.2
		C131.5,40.1,130.5,39.3,130.1,38.1"/>
	<path class="st18" d="M146.6,34.2L133.2,17c-0.1-0.1-0.1-0.1-0.3-0.1h0c-2.4,0-4.8,0-7.1,0h-0.5c1.2,0.5,2.3,1.3,3.2,2.5
		c2.7,3.4,5.4,6.9,8.1,10.4l8.5,11c0,0,0.1,0.1,0.1,0.1c0.5,0,0.9,0,1.4,0l0.1,0l0-0.9c0-1.8,0-3.6,0-5.4
		C146.7,34.3,146.7,34.2,146.6,34.2"/>
	<path class="st18" d="M145.9,19.2c0.5,0.9,0.8,1.8,1,2.9c0,0,0,0,0,0c0-0.2,0.1-0.5,0.1-0.7c0.2-1.1,0.6-2.1,1.2-2.9
		c0.5-0.7,1.2-1.3,2.1-1.6h-7.2C144.4,17.4,145.3,18.1,145.9,19.2"/>
	<path class="st18" d="M160.5,38.9c-1-1.1-1.6-2.5-2.1-4.3c-0.5-2-0.8-4.2-0.7-6.9c0-2.2,0.3-4,0.9-5.6c0.8-2.5,2.1-4.2,3.9-5.1
		c-2.1,0.5-4.1,1.4-5.8,2.8c-2.3,1.8-3.7,4-4.2,6.6c-0.5,2.4-0.2,4.8,0.8,7.1c0.8,2,2.1,3.7,3.9,4.9c1.2,0.8,2.5,1.5,3.9,1.9
		c0.7,0.2,1.4,0.4,2.1,0.5C162,40.3,161.1,39.7,160.5,38.9"/>
	<path class="st18" d="M168.6,40.8c0.3,0,0.6-0.1,0.9-0.1c1.6-0.2,3.2-0.4,4.7-0.9c0.1,0,0.1,0,0.1,0c0-0.8,0-1.5,0-2.3
		c0-0.6,0-1.2,0-1.8c0-0.5,0-1.1,0-1.6c-0.2,0.7-0.5,1.4-0.9,2.1C172.1,38.5,170.6,40,168.6,40.8"/>
	<path class="st18" d="M174.2,22.8v-5.1c-2-0.7-4-0.9-5.9-1.1c1.5,0.5,2.8,1.4,3.8,2.6C173,20.3,173.7,21.5,174.2,22.8"/>
	<path class="st18" d="M83.3,39c-0.9-1.1-1.6-2.5-2.1-4.3c-0.5-1.9-0.8-4-0.8-6.7c0-2.3,0.2-4.1,0.8-5.9c0.7-2.5,2-4.2,3.8-5.2
		c-2.8,0.6-5,1.9-6.8,3.7c-2.2,2.2-3.2,5-3.2,8.1c0,1.9,0.4,3.8,1.3,5.5c0.9,1.9,2.2,3.4,4,4.5c1.6,1,3.3,1.7,5.3,2
		C84.7,40.4,83.9,39.8,83.3,39"/>
	<path class="st18" d="M91.3,30.4c0.7,0.3,1.2,0.9,1.5,1.6c0.2,0.5,0.3,1,0.3,1.4c0,1.1,0.1,2.2,0.1,3.3l0,0.3c0,0.6,0,1.2,0,1.9
		c0,0.7-0.4,1.2-0.9,1.6c-0.1,0.1-0.2,0.1-0.3,0.2c0.4,0,0.8-0.1,1.2-0.2c1-0.2,2-0.3,3-0.5c0.5-0.1,1-0.2,1.6-0.3c0,0,0,0,0-0.1
		c0-1.6,0-3.3,0-4.9c0-0.6,0-1.1,0.1-1.6c0.1-1.4,0.7-2.2,1.7-2.7H91.3z"/>
	<path class="st18" d="M96.9,22.7L96.5,18c0-0.3,0-0.5-0.1-0.5c-0.1,0-0.4-0.1-0.5-0.1c-1.6-0.3-2.9-0.5-4.2-0.6
		c-0.2,0-0.5,0-0.8-0.1c1.3,0.5,2.5,1.2,3.5,2.3C95.6,20,96.3,21.2,96.9,22.7"/>
	<path class="st18" d="M120.7,36.2c-2-5.1-4-10.2-5.9-15.3l-1.4-3.7c-0.2-0.6-0.2-0.6-0.9-0.6l-0.1,0c-0.3,0.9-0.6,1.7-1,2.5
		c-0.4,1-0.8,2.1-1.2,3.1c0,0.1,0,0.2,0,0.3c0.5,1.4,1,2.8,1.6,4.2l1.6,4.2h-2c-1.4,0-2.9,0-4.3,0c0,0-0.1,0-0.1,0
		c-0.1,0.1-0.1,0.3-0.2,0.4h6.8l0.1,0.2c0.2,0.5,0.4,1,0.6,1.5c0.5,1.3,1,2.6,1.4,4c0.2,0.6,0.2,1.3,0.2,1.9c0,0.7-0.4,1.3-1.1,1.6
		h9.4c-0.5-0.2-1-0.6-1.4-1C121.7,38.6,121.1,37.3,120.7,36.2"/>
	<path class="st18" d="M104.8,38.1c0-0.6,0-1.2,0.1-1.8c-0.1,0.2-0.2,0.4-0.3,0.6c-1,1.9-2.2,3.2-3.8,3.8h5.7
		C105.5,40.2,104.8,39.2,104.8,38.1"/>
	<path class="st18" d="M181.5,19.5c0.1,0.7,0.1,1.4,0.1,1.9c0,4.9,0,9.7,0,14.6c0,0.7-0.1,1.5-0.2,2.2c-0.2,1.1-0.8,1.9-1.7,2.3
		c0,0,0,0,0,0h6.8V16.9h-6.8C180.7,17.4,181.4,18.3,181.5,19.5"/>
	<path class="st18" d="M193.6,39.8c-0.7,0.3-1.5,0.6-2.3,0.8h7.4l0.3-7.2c-0.2,0.6-0.4,1.1-0.7,1.7
		C197.4,37.2,195.8,38.8,193.6,39.8"/>
	<path class="st18" d="M197.4,21.1c0.3,0.6,0.6,1.3,0.9,2l-0.2-6.2h-7.4c0.8,0.2,1.7,0.4,2.5,0.7C195.2,18.4,196.6,19.5,197.4,21.1"
		/>
	<path class="st18" d="M194.2,31.5c0.1,0.3,0.2,0.6,0.3,0.9v-7.5c-0.1,0.2-0.2,0.5-0.3,0.7c-0.6,1.5-1.7,2.5-3.2,2.9
		c-0.3,0.1-0.5,0.1-0.8,0.2c0.1,0,0.2,0,0.3,0.1C192.3,29.1,193.5,30,194.2,31.5"/>
	<path class="st18" d="M27.1,19.3c0.1,0.6,0.1,1.3,0.1,2.1c0,4.8,0,9.6,0,14.3c0,0.7,0,1.2-0.1,1.7c-0.1,0.7-0.2,1.5-0.9,2.3
		c-0.3,0.3-0.6,0.6-1,0.7h6.8v-4.3c0-4.9,0-9.9,0-14.8c0-0.8,0.1-1.5,0.2-2.1c0.2-1.2,0.9-2.1,2-2.6h-9C26.4,17.2,27,18.1,27.1,19.3
		"/>
	<path class="st18" d="M39.3,39.6c-0.8,0.4-1.6,0.7-2.4,0.9h7.3l0.6-7.3c-0.4,1.2-1,2.1-1.6,3C42.1,37.8,40.8,38.9,39.3,39.6"/>
	<path class="st18" d="M2.5,19.4c0.1,0.7,0.1,1.4,0.1,1.9c0,4.9,0,9.7,0,14.6c0,0.7-0.1,1.5-0.2,2.2c-0.2,1.1-0.8,1.9-1.7,2.3
		c0,0,0,0,0,0h6.8V16.7H0.7C1.8,17.2,2.4,18.1,2.5,19.4"/>
	<path class="st18" d="M14.6,39.7c-0.7,0.3-1.5,0.6-2.3,0.8h7.4l0.3-7.2c-0.2,0.6-0.4,1.1-0.7,1.7C18.4,37,16.8,38.6,14.6,39.7"/>
	<path class="st18" d="M18.5,20.9c0.3,0.6,0.6,1.3,0.9,2l-0.2-6.2h-7.4c0.8,0.2,1.7,0.4,2.5,0.7C16.2,18.2,17.6,19.4,18.5,20.9"/>
	<path class="st18" d="M15.2,31.4c0.1,0.3,0.2,0.6,0.3,0.9v-7.5c-0.1,0.2-0.2,0.5-0.3,0.7c-0.6,1.5-1.7,2.5-3.2,2.9
		c-0.3,0.1-0.5,0.1-0.8,0.2c0.1,0,0.2,0,0.3,0.1C13.3,28.9,14.5,29.9,15.2,31.4"/>
	<path class="st18" d="M51.1,19.4c0.1,0.7,0.1,1.4,0.1,1.9c0,4.9,0,9.7,0,14.6c0,0.7-0.1,1.5-0.2,2.2c-0.2,1.1-0.8,1.9-1.7,2.3
		c0,0,0,0,0,0H56V16.7h-6.8C50.3,17.2,50.9,18.1,51.1,19.4"/>
	<path class="st18" d="M63.2,39.7c-0.7,0.3-1.5,0.6-2.3,0.8h7.4l0.3-7.2c-0.2,0.6-0.4,1.1-0.7,1.7C66.9,37,65.4,38.6,63.2,39.7"/>
	<path class="st18" d="M67,20.9c0.3,0.6,0.6,1.3,0.9,2l-0.2-6.2h-7.4c0.8,0.2,1.7,0.4,2.5,0.7C64.7,18.2,66.2,19.4,67,20.9"/>
	<path class="st18" d="M63.7,31.4c0.1,0.3,0.2,0.6,0.3,0.9v-7.5c-0.1,0.2-0.2,0.5-0.3,0.7c-0.6,1.5-1.7,2.5-3.2,2.9
		c-0.3,0.1-0.5,0.1-0.8,0.2c0.1,0,0.2,0,0.3,0.1C61.9,28.9,63,29.9,63.7,31.4"/>
	<path class="st18" d="M130.1,38.1c-0.3-0.8-0.6-1.7-0.8-2.6l0-0.2c-0.1,0.8-0.3,1.6-0.6,2.4c-0.5,1.4-1.5,2.4-2.8,3h7.2
		C131.5,40.1,130.5,39.3,130.1,38.1"/>
	<path class="st18" d="M146.6,34.2L133.2,17c-0.1-0.1-0.1-0.1-0.3-0.1h0c-2.4,0-4.8,0-7.1,0h-0.5c1.2,0.5,2.3,1.3,3.2,2.5
		c2.7,3.4,5.4,6.9,8.1,10.4l8.5,11c0,0,0.1,0.1,0.1,0.1c0.5,0,0.9,0,1.4,0l0.1,0l0-0.9c0-1.8,0-3.6,0-5.4
		C146.7,34.3,146.7,34.2,146.6,34.2"/>
	<path class="st18" d="M145.9,19.2c0.5,0.9,0.8,1.8,1,2.9c0,0,0,0,0,0c0-0.2,0.1-0.5,0.1-0.7c0.2-1.1,0.6-2.1,1.2-2.9
		c0.5-0.7,1.2-1.3,2.1-1.6h-7.2C144.4,17.4,145.3,18.1,145.9,19.2"/>
	<path class="st18" d="M160.5,38.9c-1-1.1-1.6-2.5-2.1-4.3c-0.5-2-0.8-4.2-0.7-6.9c0-2.2,0.3-4,0.9-5.6c0.8-2.5,2.1-4.2,3.9-5.1
		c-2.1,0.5-4.1,1.4-5.8,2.8c-2.3,1.8-3.7,4-4.2,6.6c-0.5,2.4-0.2,4.8,0.8,7.1c0.8,2,2.1,3.7,3.9,4.9c1.2,0.8,2.5,1.5,3.9,1.9
		c0.7,0.2,1.4,0.4,2.1,0.5C162,40.3,161.1,39.7,160.5,38.9"/>
	<path class="st18" d="M168.6,40.8c0.3,0,0.6-0.1,0.9-0.1c1.6-0.2,3.2-0.4,4.7-0.9c0.1,0,0.1,0,0.1,0c0-0.8,0-1.5,0-2.3
		c0-0.6,0-1.2,0-1.8c0-0.5,0-1.1,0-1.6c-0.2,0.7-0.5,1.4-0.9,2.1C172.1,38.5,170.6,40,168.6,40.8"/>
	<path class="st18" d="M174.2,22.8v-5.1c-2-0.7-4-0.9-5.9-1.1c1.5,0.5,2.8,1.4,3.8,2.6C173,20.3,173.7,21.5,174.2,22.8"/>
	<path class="st18" d="M83.3,39c-0.9-1.1-1.6-2.5-2.1-4.3c-0.5-1.9-0.8-4-0.8-6.7c0-2.3,0.2-4.1,0.8-5.9c0.7-2.5,2-4.2,3.8-5.2
		c-2.8,0.6-5,1.9-6.8,3.7c-2.2,2.2-3.2,5-3.2,8.1c0,1.9,0.4,3.8,1.3,5.5c0.9,1.9,2.2,3.4,4,4.5c1.6,1,3.3,1.7,5.3,2
		C84.7,40.4,83.9,39.8,83.3,39"/>
	<path class="st18" d="M91.3,30.4c0.7,0.3,1.2,0.9,1.5,1.6c0.2,0.5,0.3,1,0.3,1.4c0,1.1,0.1,2.2,0.1,3.3l0,0.3c0,0.6,0,1.2,0,1.9
		c0,0.7-0.4,1.2-0.9,1.6c-0.1,0.1-0.2,0.1-0.3,0.2c0.4,0,0.8-0.1,1.2-0.2c1-0.2,2-0.3,3-0.5c0.5-0.1,1-0.2,1.6-0.3c0,0,0,0,0-0.1
		c0-1.6,0-3.3,0-4.9c0-0.6,0-1.1,0.1-1.6c0.1-1.4,0.7-2.2,1.7-2.7H91.3z"/>
	<path class="st18" d="M96.9,22.7L96.5,18c0-0.3,0-0.5-0.1-0.5c-0.1,0-0.4-0.1-0.5-0.1c-1.6-0.3-2.9-0.5-4.2-0.6
		c-0.2,0-0.5,0-0.8-0.1c1.3,0.5,2.5,1.2,3.5,2.3C95.6,20,96.3,21.2,96.9,22.7"/>
	<path class="st18" d="M120.7,36.2c-2-5.1-4-10.2-5.9-15.3l-1.4-3.7c-0.2-0.6-0.2-0.6-0.9-0.6l-0.1,0c-0.3,0.9-0.6,1.7-1,2.5
		c-0.4,1-0.8,2.1-1.2,3.1c0,0.1,0,0.2,0,0.3c0.5,1.4,1,2.8,1.6,4.2l1.6,4.2h-2c-1.4,0-2.9,0-4.3,0c0,0-0.1,0-0.1,0
		c-0.1,0.1-0.1,0.3-0.2,0.4h6.8l0.1,0.2c0.2,0.5,0.4,1,0.6,1.5c0.5,1.3,1,2.6,1.4,4c0.2,0.6,0.2,1.3,0.2,1.9c0,0.7-0.4,1.3-1.1,1.6
		h9.4c-0.5-0.2-1-0.6-1.4-1C121.7,38.6,121.1,37.3,120.7,36.2"/>
	<path class="st18" d="M104.8,38.1c0-0.6,0-1.2,0.1-1.8c-0.1,0.2-0.2,0.4-0.3,0.6c-1,1.9-2.2,3.2-3.8,3.8h5.7
		C105.5,40.2,104.8,39.2,104.8,38.1"/>
	<path class="st18" d="M181.5,19.5c0.1,0.7,0.1,1.4,0.1,1.9c0,4.9,0,9.7,0,14.6c0,0.7-0.1,1.5-0.2,2.2c-0.2,1.1-0.8,1.9-1.7,2.3
		c0,0,0,0,0,0h6.8V16.9h-6.8C180.7,17.4,181.4,18.3,181.5,19.5"/>
	<path class="st18" d="M193.6,39.8c-0.7,0.3-1.5,0.6-2.3,0.8h7.4l0.3-7.2c-0.2,0.6-0.4,1.1-0.7,1.7
		C197.4,37.2,195.8,38.8,193.6,39.8"/>
	<path class="st18" d="M197.4,21.1c0.3,0.6,0.6,1.3,0.9,2l-0.2-6.2h-7.4c0.8,0.2,1.7,0.4,2.5,0.7C195.2,18.4,196.6,19.5,197.4,21.1"
		/>
	<path class="st18" d="M194.2,31.5c0.1,0.3,0.2,0.6,0.3,0.9v-7.5c-0.1,0.2-0.2,0.5-0.3,0.7c-0.6,1.5-1.7,2.5-3.2,2.9
		c-0.3,0.1-0.5,0.1-0.8,0.2c0.1,0,0.2,0,0.3,0.1C192.3,29.1,193.5,30,194.2,31.5"/>
	<polygon class="st18" points="76.3,50.8 73.8,50.8 73.8,55.4 72.9,55.4 72.9,50.8 70.4,50.8 70.4,50 76.3,50 	"/>
	<path class="st18" d="M87.1,52.7c0-1.3-0.9-2.1-2.4-2.1c-1.5,0-2.4,0.7-2.4,2.1c0,1.3,1,2.1,2.4,2.1C86.2,54.8,87.1,54,87.1,52.7
		 M81.3,52.7c0-1.8,1.3-2.9,3.4-2.9c2.1,0,3.4,1.1,3.4,2.9c0,1.8-1.3,2.9-3.4,2.9C82.6,55.6,81.3,54.5,81.3,52.7"/>
	<polygon class="st18" points="102.4,50 100.4,55.4 99.4,55.4 97.8,51 96.2,55.4 95.2,55.4 93.2,50 94.2,50 95.7,54.3 97.3,50 
		98.3,50 99.9,54.3 101.4,50 	"/>
	<polygon class="st18" points="113.5,54.6 113.5,55.4 108,55.4 108,50 113.4,50 113.4,50.8 109,50.8 109,52.2 112.7,52.2 
		112.7,53.1 109,53.1 109,54.6 	"/>
	<path class="st18" d="M123,52.6c0.8,0,1.3-0.2,1.3-0.9c0-0.7-0.5-0.9-1.3-0.9h-2.7v1.9H123z M124.3,55.4l-1.7-2h-2.3v2h-0.9V50h3.7
		c1.3,0,2.2,0.6,2.2,1.7c0,0.9-0.7,1.5-1.6,1.7l1.8,2H124.3z"/>
	<path class="st18" d="M34.5,5.3c0-0.6-0.5-0.8-1.2-0.8h-2.7v1.5h2.7C34.1,6.1,34.5,5.9,34.5,5.3 M30.6,3.8h2.5
		c0.7,0,1.2-0.2,1.2-0.7s-0.5-0.7-1.2-0.7h-2.5V3.8z M35.4,5.4c0,0.9-0.8,1.4-2,1.4h-3.7V1.7h3.5c1.1,0,1.9,0.5,1.9,1.3
		c0,0.6-0.4,1.1-1.1,1.2C34.8,4.2,35.4,4.6,35.4,5.4"/>
	<path class="st18" d="M40.8,4.2c0.7,0,1.2-0.2,1.2-0.9c0-0.6-0.5-0.9-1.2-0.9h-2.6v1.8H40.8z M42,6.8l-1.6-1.9h-2.2v1.9h-0.9V1.7
		h3.5c1.2,0,2.1,0.6,2.1,1.6c0,0.9-0.6,1.4-1.5,1.6l1.7,1.9H42z"/>
	<path class="st18" d="M48.7,4.8l-1.3-2.4l-1.3,2.4H48.7z M49,5.6h-3.3l-0.7,1.2h-1l2.8-5.2h1l2.8,5.2h-1L49,5.6z"/>
	<polygon class="st18" points="57.9,1.7 57.9,6.8 57.1,6.8 53.1,2.7 53.1,6.8 52.2,6.8 52.2,1.7 53.2,1.7 57,5.6 57,1.7 	"/>
	<path class="st18" d="M65,4.2c0-1.2-0.9-1.8-2.3-1.8h-1.7V6h1.7C64.1,6,65,5.4,65,4.2 M65.9,4.2c0,1.6-1.2,2.6-3.1,2.6h-2.6V1.7
		h2.6C64.7,1.7,65.9,2.6,65.9,4.2"/>
	<polygon class="st18" points="73,6 73,6.8 67.9,6.8 67.9,1.7 72.9,1.7 72.9,2.4 68.7,2.4 68.7,3.8 72.2,3.8 72.2,4.6 68.7,4.6 
		68.7,6 	"/>
	<path class="st18" d="M79.7,4.2c0-1.2-0.9-1.8-2.3-1.8h-1.7V6h1.7C78.8,6,79.7,5.4,79.7,4.2 M80.6,4.2c0,1.6-1.2,2.6-3.1,2.6h-2.6
		V1.7h2.6C79.4,1.7,80.6,2.6,80.6,4.2"/>
	<path class="st18" d="M90.2,5.3c0-0.6-0.5-0.8-1.2-0.8h-2.7v1.5H89C89.8,6.1,90.2,5.9,90.2,5.3 M86.3,3.8h2.5
		c0.7,0,1.2-0.2,1.2-0.7s-0.5-0.7-1.2-0.7h-2.5V3.8z M91.1,5.4c0,0.9-0.8,1.4-2,1.4h-3.7V1.7H89c1.1,0,1.9,0.5,1.9,1.3
		c0,0.6-0.4,1.1-1.1,1.2C90.5,4.2,91.1,4.6,91.1,5.4"/>
	<polygon class="st18" points="93.1,1.7 95.1,4.3 97,1.7 98,1.7 95.5,5 95.5,6.8 94.6,6.8 94.6,5 92.1,1.7 	"/>
	<polygon class="st18" points="102.5,1.6 102.5,2.5 105.2,2.6 102.5,5.9 102.5,6.8 106.8,6.8 106.8,5.8 104.1,5.8 106.8,2.5 
		106.8,1.6 	"/>
	<path class="st18" d="M107.8,4.7l0-3.1l1.2,0l0,3.1c0,0.7,0.5,1.2,1.3,1.2c0.9,0,1.3-0.5,1.3-1.2l0-3.1l1.2,0l0,3.1
		c0,1.3-0.9,2.2-2.6,2.2C108.6,6.9,107.8,6,107.8,4.7"/>
	<polygon class="st18" points="117.9,6.9 117.9,4.7 115.3,4.7 115.2,6.9 114,6.9 114.1,1.7 115.3,1.7 115.3,3.7 118,3.7 118,1.7 
		119.2,1.7 119.1,6.9 	"/>
	<path class="st18" d="M124.2,7l-0.3-0.9l-2.4,0L121,6.9l-1.4,0l2.3-5.2l1.5,0l2.2,5.2L124.2,7z M122.7,2.8l-0.9,2.2l1.8,0
		L122.7,2.8z"/>
	
		<rect x="124.1" y="3.8" transform="matrix(8.760862e-03 -1 1 8.760862e-03 121.2508 131.0694)" class="st18" width="5.2" height="1.2"/>
	<path class="st18" d="M131.7,7l-1.1-1.9l-0.9,0l0,1.9l-1.2,0l0-5.2l2.7,0c1.2,0,1.9,0.7,1.9,1.7c0,0.9-0.6,1.4-1.3,1.5l1.3,2
		L131.7,7z M131.8,3.5c0-0.4-0.4-0.7-0.8-0.7l-1.3,0l0,1.4l1.3,0C131.4,4.2,131.8,3.9,131.8,3.5"/>
	<polygon class="st18" points="136.1,7.1 137.3,7.1 137.4,3.4 138.9,7.1 139.5,7.1 141.1,3.5 141.1,7.1 142.3,7.1 142.4,1.9 
		140.6,1.9 139.2,5 137.9,1.9 136.2,1.9 	"/>
	<path class="st18" d="M143.5,5l0-3.1l1.2,0l0,3.1c0,0.7,0.5,1.2,1.3,1.2c0.9,0,1.3-0.5,1.3-1.2l0-3.1l1.2,0l0,3.1
		c0,1.3-0.9,2.2-2.6,2.2C144.3,7.2,143.4,6.3,143.5,5"/>
	<path class="st18" d="M152.9,7.2l-1.1-1.9l-0.9,0l0,1.9l-1.2,0l0-5.2l2.7,0c1.2,0,1.9,0.7,1.9,1.7c0,0.9-0.6,1.4-1.3,1.5l1.3,2
		L152.9,7.2z M153.1,3.7c0-0.4-0.4-0.7-0.8-0.7l-1.3,0l0,1.4l1.3,0C152.7,4.4,153.1,4.1,153.1,3.7"/>
	<path class="st18" d="M154.6,7.2l1.4,0l0.4-0.9l2.4,0l0.3,0.9l1.4,0L158.4,2l-1.5,0L154.6,7.2z M156.7,5.4l0.9-2.2l0.9,2.2
		L156.7,5.4z"/>
	<path class="st18" d="M161,7.3l0-5.2l2.2,0c1.8,0,3,1.1,3,2.6c0,1.6-1.3,2.6-3,2.6L161,7.3z M165.1,4.7c0-0.9-0.6-1.6-1.8-1.6l-1,0
		l0,3.3l1,0C164.4,6.3,165.1,5.6,165.1,4.7"/>
</g>
</svg>
