<?xml version="1.0" encoding="utf-8"?>
<!-- Generator: Adobe Illustrator 26.0.1, SVG Export Plug-In . SVG Version: 6.00 Build 0)  -->
<!DOCTYPE svg PUBLIC "-//W3C//DTD SVG 1.1//EN" "http://www.w3.org/Graphics/SVG/1.1/DTD/svg11.dtd" [
	<!ENTITY ns_extend "http://ns.adobe.com/Extensibility/1.0/">
	<!ENTITY ns_ai "http://ns.adobe.com/AdobeIllustrator/10.0/">
	<!ENTITY ns_graphs "http://ns.adobe.com/Graphs/1.0/">
	<!ENTITY ns_vars "http://ns.adobe.com/Variables/1.0/">
	<!ENTITY ns_imrep "http://ns.adobe.com/ImageReplacement/1.0/">
	<!ENTITY ns_sfw "http://ns.adobe.com/SaveForWeb/1.0/">
	<!ENTITY ns_custom "http://ns.adobe.com/GenericCustomNamespace/1.0/">
	<!ENTITY ns_adobe_xpath "http://ns.adobe.com/XPath/1.0/">
]>
<svg version="1.1" id="Layer_1" xmlns:x="&ns_extend;" xmlns:i="&ns_ai;" xmlns:graph="&ns_graphs;"
	 xmlns="http://www.w3.org/2000/svg" xmlns:xlink="http://www.w3.org/1999/xlink" x="0px" y="0px" viewBox="0 0 200 66.8"
	 style="enable-background:new 0 0 200 66.8;" xml:space="preserve">
<style type="text/css">
	.st0{fill:#808184;}
	.st1{clip-path:url(#SVGID_00000019637290125907559620000006336421762935266959_);}
	.st2{fill:#AC9C63;}
	.st3{fill:#038295;}
	
		.st4{clip-path:url(#SVGID_00000078031684977983355370000000067015891849959838_);fill:url(#SVGID_00000108994802963171181020000003761676309461146008_);}
	
		.st5{clip-path:url(#SVGID_00000176748288861976680000000006477882496982030763_);fill:url(#SVGID_00000133516169220989933610000007149041049710124440_);}
	
		.st6{clip-path:url(#SVGID_00000073717359148118453340000010665550735158979494_);fill:url(#SVGID_00000086678881812803701860000007281508978666675874_);}
</style>
<metadata>
	<sfw  xmlns="&ns_sfw;">
		<slices></slices>
		<sliceSourceBounds  bottomLeftOrigin="true" height="252.2" width="2246.3" x="1.3" y="-97.3"></sliceSourceBounds>
	</sfw>
</metadata>
<g>
	<polygon class="st3" points="66.6,59.7 70.4,59.7 70.4,66.7 71.3,66.7 71.3,59.7 75.1,59.7 75.1,58.8 66.6,58.8 	"/>
	<path class="st3" d="M84,66.1c-2.3,0-3.8-1.2-3.8-3.3c0-2.1,1.5-3.3,3.8-3.3c2.3,0,3.8,1.2,3.8,3.3C87.8,64.9,86.3,66.1,84,66.1
		 M84,58.6c-3,0-4.8,1.6-4.8,4.2c0,2.6,1.8,4.2,4.8,4.2c3,0,4.8-1.6,4.8-4.2C88.8,60.2,87,58.6,84,58.6"/>
	<polygon class="st3" points="102.8,65.6 100.2,58.8 99.3,58.8 96.7,65.6 94.3,58.8 93.3,58.8 96.2,66.7 97.2,66.7 99.8,59.9 
		102.3,66.7 103.3,66.7 106.2,58.8 105.2,58.8 	"/>
	<polygon class="st3" points="112.4,63.1 118,63.1 118,62.2 112.4,62.2 112.4,59.7 119,59.7 119,58.8 111.5,58.8 111.5,66.7 
		119.1,66.7 119.1,65.8 112.4,65.8 	"/>
	<path class="st3" d="M125.7,62.8v-3.1h4.3c1.3,0,2.1,0.5,2.1,1.6c0,1.1-0.8,1.6-2.1,1.6H125.7z M133.1,61.2c0-1.6-1.3-2.4-3-2.4
		h-5.3v7.9h1v-3h3.8l2.6,3h1.2l-2.7-3.1C132.1,63.5,133.1,62.6,133.1,61.2"/>
	<path class="st3" d="M199.5,43.8c-5,2-10,2.7-15.3,2.6c-13.5-0.2-25.3-6.6-25.3-22.1c0-15.4,11.8-22.4,25.3-22.4
		c4.9,0,9.4,0.9,13.3,3l0.7-2c-0.4-0.1-0.8-0.2-1.2-0.3c-4-1.2-8-1.9-12.8-1.9c-17.5,0-33.5,9.6-33.5,23.6
		c0,13.9,16.1,23.5,33.5,23.5c5.5,0,11-1,15.7-2.9L199.5,43.8z"/>
	<path class="st3" d="M33.6,46.4C20.1,46.2,8.3,39.8,8.3,24.3C8.3,8.8,20.1,1.9,33.6,1.9c4.9,0,9.4,0.9,13.3,3l0.7-2
		c-0.4-0.1-0.8-0.2-1.2-0.3c-4-1.2-8-1.9-12.8-1.9c-17.5,0-33.5,9.6-33.5,23.6c0,13.9,16.1,23.5,33.5,23.5c5.5,0,11-1,15.7-2.9
		l-0.4-1.1C43.9,45.8,38.8,46.5,33.6,46.4"/>
	<rect x="132.8" y="1.8" class="st3" width="7" height="44.8"/>
	<path class="st3" d="M118.2,46.6V1.8h-7V17h-5.5c-6.4,0-12.6,1.7-18,4.8l-10.7,6.2c-4.7,2.5-9.3,2.7-9.9,2.8V1.8h-7v44.8h7V31.4
		h5.5c6.2,0,12.2-1.6,17.5-4.5l11.9-6.7c4.9-2.6,8.6-2.6,9.2-2.6v28.9H118.2z"/>
</g>
</svg>
