<?xml version="1.0" encoding="utf-8"?>
<!-- Generator: Adobe Illustrator 26.0.1, SVG Export Plug-In . SVG Version: 6.00 Build 0)  -->
<!DOCTYPE svg PUBLIC "-//W3C//DTD SVG 1.1//EN" "http://www.w3.org/Graphics/SVG/1.1/DTD/svg11.dtd" [
	<!ENTITY ns_extend "http://ns.adobe.com/Extensibility/1.0/">
	<!ENTITY ns_ai "http://ns.adobe.com/AdobeIllustrator/10.0/">
	<!ENTITY ns_graphs "http://ns.adobe.com/Graphs/1.0/">
	<!ENTITY ns_vars "http://ns.adobe.com/Variables/1.0/">
	<!ENTITY ns_imrep "http://ns.adobe.com/ImageReplacement/1.0/">
	<!ENTITY ns_sfw "http://ns.adobe.com/SaveForWeb/1.0/">
	<!ENTITY ns_custom "http://ns.adobe.com/GenericCustomNamespace/1.0/">
	<!ENTITY ns_adobe_xpath "http://ns.adobe.com/XPath/1.0/">
]>
<svg version="1.1" id="Layer_1" xmlns:x="&ns_extend;" xmlns:i="&ns_ai;" xmlns:graph="&ns_graphs;"
	 xmlns="http://www.w3.org/2000/svg" xmlns:xlink="http://www.w3.org/1999/xlink" x="0px" y="0px" viewBox="0 0 200 70"
	 style="enable-background:new 0 0 200 70;" xml:space="preserve">
<style type="text/css">
	.st0{fill:#080505;}
	.st1{fill:#F8AF41;}
	.st2{fill:#376278;}
	.st3{fill:#FFC663;}
	.st4{fill:#F6CE76;}
	.st5{fill:#0D98BB;}
	.st6{fill:#70B599;}
	.st7{fill:#EAE3AC;}
	.st8{fill:#91060D;}
	.st9{fill:#2D628C;}
	.st10{fill:#012944;}
	.st11{fill:#043754;}
	.st12{fill:#1D324D;}
	.st13{fill:#8C7449;}
	.st14{fill:#003756;}
	.st15{fill:#53B2D3;}
	.st16{fill:#082042;}
	.st17{fill:#055985;}
	.st18{fill:#A08C6A;}
	.st19{clip-path:url(#SVGID_00000136401448392287026580000003191627433848697488_);}
	.st20{filter:url(#Adobe_OpacityMaskFilter);}
	.st21{opacity:0.9;mask:url(#SVGID_00000044160127519395819750000010134482678070164878_);fill:#FFFFFF;}
	.st22{filter:url(#Adobe_OpacityMaskFilter_00000173878970995896793820000009853461632521341113_);}
	.st23{opacity:0.75;mask:url(#SVGID_00000086682010136979801460000005419372675084090793_);}
	.st24{filter:url(#Adobe_OpacityMaskFilter_00000003107428206631430300000009788145735805618833_);}
	.st25{mask:url(#SVGID_00000135677955622723463660000017746891210677798790_);fill:#FFFFFF;}
	.st26{filter:url(#Adobe_OpacityMaskFilter_00000021826791733117450590000017241621902146893236_);}
	.st27{opacity:0.75;mask:url(#SVGID_00000042706131930956664800000014213912745068951974_);}
	.st28{fill:none;stroke:#000000;stroke-width:1.2;}
	.st29{clip-path:url(#SVGID_00000008129132750473791780000013541613075610946434_);}
	.st30{fill:#1E2731;}
	.st31{fill:#777779;}
	
		.st32{clip-path:url(#SVGID_00000131369602101086383280000013986122000140784278_);fill:url(#SVGID_00000118367888489896580170000008853922209597858993_);}
</style>
<metadata>
	<sfw  xmlns="&ns_sfw;">
		<slices></slices>
		<sliceSourceBounds  bottomLeftOrigin="true" height="515.4" width="2527.2" x="1.1" y="-405.1"></sliceSourceBounds>
	</sfw>
</metadata>
<g>
	<g>
		<path class="st0" d="M84.7,8.2c0.5-0.5,0.9-1,1.1-1.6c0.4-0.9,0.4-1.7-0.1-2.2c-0.5-0.5-1.3-0.8-2.6-0.8h-4.3l-0.4,0.9h2.9
			c1.5,0,1.9,0.7,1.4,2c-0.3,0.7-0.6,1.4-1.2,1.7c-0.6,0.3-1.2,0.3-2.2,0.3l-1.4,0l1-2.4h-1.3l-1.4,3.4h3.9c1.1,0,1.9-0.1,2.6-0.3
			C83.5,9,84.2,8.7,84.7,8.2 M112.5,3.6L112.5,3.6l-1.6,0l-6.1,5.7l2.4-5.7h-2.6l-3.2,2.5l-1.6,1.3h-0.1l0.8-1.9l-0.9-1.9H97
			l-2.4,5.7l-1.4-5.7h-2.9l-6.4,6h1.6L87.2,8h4l0.3,1.6h4.3l1.5-3.7c0.1-0.2,0.2-0.4,0.2-0.6c0,0.2,0.1,0.4,0.2,0.6l1.4,3.1h0.2
			l3.9-3.1c0.1-0.1,0.4-0.3,0.7-0.6c-0.1,0.3-0.3,0.5-0.3,0.6L102,9.5h2.8v0h3l1.6-1.6h4.2l0.3,1.6h1.5l-1.4-6H112.5z M88,7.2
			l2.5-2.4L91,7.2H88z M110.2,7.2l2.6-2.5l0.5,2.5H110.2z M125.1,3.7L125.1,3.7l-4.2-0.1c-1.3,0-2.3,0.3-3.2,0.8
			c-0.9,0.5-1.5,1.2-1.9,2.2c-0.2,0.6-0.3,1.1-0.2,1.6c0.1,0.5,0.4,0.9,0.9,1.1c0.5,0.2,1.2,0.3,2.3,0.3h3.9l0.4-0.9h-2.2
			c-1.1,0-1.7-0.1-2.1-0.4c-0.4-0.3-0.3-1,0-1.7c0.5-1.2,1.6-2,3.1-2h1.7l-0.4,0.9h1.3L125.1,3.7L125.1,3.7L125.1,3.7z"/>
		<path class="st0" d="M74.6,28.9c-0.4-0.2-0.7-0.5-1-0.8c-0.3-0.3-0.4-0.7-0.4-1.2c-0.3,0.3-0.7,0.5-1,0.8
			c-0.3,0.3-0.7,0.5-1.1,0.7c-0.4,0.2-0.8,0.4-1.3,0.5c-0.5,0.1-1,0.2-1.6,0.2c-0.6,0-1.1-0.1-1.5-0.3c-0.5-0.2-0.8-0.4-1.2-0.8
			c-0.3-0.3-0.6-0.7-0.7-1.2c-0.2-0.4-0.3-0.9-0.3-1.4c0-0.6,0.1-1.2,0.4-1.7c0.2-0.5,0.6-1,1-1.3c0.4-0.4,0.9-0.7,1.5-1.1
			s1.2-0.6,1.8-0.8c0.6-0.2,1.3-0.5,2-0.6s1.3-0.4,2-0.5v-0.9c0-0.7,0-1.2-0.1-1.7c-0.1-0.5-0.2-0.8-0.4-1.1
			c-0.2-0.3-0.5-0.5-0.8-0.6c-0.3-0.1-0.7-0.2-1.1-0.2c-0.4,0-0.8,0.1-1.1,0.2c-0.3,0.2-0.6,0.4-0.9,0.6s-0.5,0.6-0.6,1
			c-0.2,0.4-0.2,0.8-0.9,1.1c-0.7,0.4-2.1,0.1-2.1,0.1s0.3-1.2,0.6-1.7c0.4-0.5,0.8-0.9,1.3-1.2c0.5-0.3,1.2-0.6,1.8-0.8
			c0.7-0.2,1.4-0.3,2.1-0.3c0.9,0,1.7,0.1,2.4,0.3c0.6,0.2,1.2,0.4,1.6,0.8c0.4,0.3,0.7,0.7,0.8,1.2c0.2,0.5,0.2,1,0.2,1.6v9
			c0,0.4,0.1,0.8,0.4,1.2c0.3,0.3,0.6,0.6,1,0.8L74.6,28.9L74.6,28.9L74.6,28.9z M73.3,20.5c-0.4,0.1-0.8,0.3-1.3,0.5
			c-0.4,0.2-0.9,0.4-1.3,0.6c-0.4,0.2-0.8,0.4-1.2,0.7c-0.4,0.2-0.7,0.5-1,0.8s-0.5,0.6-0.7,0.9s-0.3,0.6-0.3,1c0,0.4,0.1,0.7,0.2,1
			c0.1,0.3,0.3,0.6,0.5,0.8c0.2,0.2,0.5,0.4,0.8,0.6c0.3,0.1,0.6,0.2,0.9,0.2c0.3,0,0.6,0,0.9-0.1c0.3-0.1,0.6-0.2,0.9-0.3
			c0.3-0.1,0.6-0.3,0.8-0.5c0.3-0.2,0.6-0.4,0.8-0.6L73.3,20.5L73.3,20.5z"/>
		<path class="st0" d="M91.9,15.1v1.2h-2.4c0.3,0.4,0.5,0.8,0.7,1.3c0.2,0.5,0.3,1,0.3,1.5c0,0.8-0.2,1.4-0.5,2.1
			c-0.3,0.6-0.8,1.1-1.4,1.6c-0.6,0.4-1.3,0.8-2.1,1c-0.8,0.2-1.7,0.4-2.7,0.4c-0.4,0-0.7,0-1.1-0.1c-0.4-0.1-0.7-0.1-1-0.2
			c-0.3,0.2-0.5,0.5-0.7,0.8c-0.2,0.3-0.3,0.6-0.3,0.9c0,0.3,0.2,0.5,0.5,0.7s0.8,0.3,1.4,0.3l5.4,0.2c0.9,0,1.6,0.1,2.2,0.3
			c0.6,0.2,1,0.4,1.4,0.7c0.3,0.3,0.6,0.6,0.7,1c0.1,0.4,0.2,0.8,0.2,1.3c0,0.8-0.2,1.6-0.6,2.3c-0.4,0.7-1,1.3-1.7,1.8
			c-0.7,0.5-1.6,0.9-2.7,1.1c-1.1,0.3-2.3,0.4-3.6,0.4c-1.2,0-2.3-0.1-3.2-0.2c-0.9-0.1-1.6-0.3-2.2-0.6s-1-0.6-1.3-0.9
			c-0.3-0.4-0.4-0.8-0.4-1.2c0-0.4,0.1-0.8,0.3-1.1c0.2-0.4,0.5-0.7,0.8-1c0.3-0.3,0.7-0.7,1-1c0.4-0.3,0.8-0.6,1.1-0.9
			c-0.3-0.1-0.5-0.2-0.7-0.3c-0.2-0.1-0.4-0.3-0.6-0.4c-0.2-0.2-0.3-0.3-0.4-0.5c-0.1-0.2-0.1-0.4-0.1-0.6c0-0.3,0.1-0.6,0.2-0.9
			c0.2-0.3,0.4-0.6,0.6-0.9c0.3-0.3,0.6-0.6,0.9-0.8c0.4-0.2,0.7-0.4,1.1-0.6c-1-0.4-1.7-1-2.3-1.7c-0.6-0.7-0.8-1.6-0.8-2.6
			c0-0.7,0.2-1.4,0.5-2c0.3-0.6,0.8-1.2,1.4-1.7c0.6-0.5,1.3-0.9,2-1.1c0.8-0.3,1.6-0.4,2.5-0.4c0.4,0,0.9,0,1.3,0.1
			c0.4,0.1,0.8,0.1,1.2,0.2c0.4,0.1,0.7,0.2,1,0.3c0.3,0.1,0.5,0.3,0.7,0.4L91.9,15.1L91.9,15.1z M80.5,28.8
			c-0.2,0.2-0.4,0.3-0.6,0.5c-0.2,0.2-0.3,0.4-0.4,0.6c-0.1,0.2-0.2,0.4-0.3,0.7c-0.1,0.2-0.1,0.4-0.1,0.6c0,0.3,0.1,0.6,0.3,0.9
			s0.6,0.6,1,0.8c0.5,0.2,1,0.4,1.7,0.5c0.7,0.1,1.5,0.2,2.4,0.2c1,0,1.8-0.1,2.6-0.2c0.8-0.2,1.4-0.4,1.9-0.6
			c0.5-0.2,0.9-0.5,1.2-0.8c0.3-0.3,0.4-0.6,0.4-0.9c0-0.3-0.1-0.6-0.2-0.8c-0.2-0.2-0.4-0.4-0.7-0.6c-0.3-0.1-0.7-0.3-1.1-0.3
			c-0.4-0.1-0.9-0.1-1.5-0.1c-0.7,0-1.4,0-2.1-0.1c-0.7,0-1.4-0.1-2-0.1c-0.6,0-1.2-0.1-1.6-0.1C81.1,28.9,80.7,28.9,80.5,28.8
			 M84.1,23.5c0.4,0,0.8-0.1,1.2-0.3c0.4-0.2,0.7-0.4,1-0.8c0.3-0.3,0.5-0.7,0.7-1.1c0.2-0.4,0.3-0.9,0.3-1.4c0-0.7-0.1-1.4-0.3-2
			c-0.2-0.6-0.5-1.1-0.8-1.6c-0.3-0.4-0.7-0.8-1.2-1.1c-0.4-0.3-0.9-0.4-1.4-0.4c-0.5,0-0.9,0.1-1.3,0.3s-0.6,0.5-0.9,0.8
			c-0.2,0.4-0.4,0.8-0.5,1.3c-0.1,0.5-0.2,1-0.2,1.5c0,0.7,0.1,1.3,0.2,1.8c0.2,0.6,0.4,1.1,0.7,1.5c0.3,0.4,0.6,0.8,1.1,1
			C83.2,23.4,83.6,23.5,84.1,23.5"/>
		<path class="st0" d="M98.1,29.3c-1.1,0-2.1-0.2-3.1-0.6c-0.9-0.4-1.7-0.9-2.4-1.6c-0.7-0.7-1.2-1.5-1.6-2.3
			c-0.4-0.9-0.6-1.9-0.6-2.9c0-1.1,0.2-2.1,0.6-3c0.4-0.9,0.9-1.8,1.6-2.5c0.7-0.7,1.5-1.3,2.4-1.7c0.9-0.4,2-0.6,3.1-0.6
			c1.1,0,2.1,0.2,3.1,0.6c0.9,0.4,1.7,0.9,2.4,1.5c0.7,0.6,1.2,1.4,1.6,2.3c0.4,0.9,0.6,1.8,0.6,2.8c0,1.1-0.2,2.1-0.6,3.1
			c-0.4,1-0.9,1.8-1.6,2.5c-0.7,0.7-1.5,1.3-2.4,1.7C100.2,29,99.2,29.3,98.1,29.3 M98.7,28.2c0.6,0,1.1-0.1,1.6-0.4
			c0.5-0.3,0.9-0.7,1.2-1.2c0.3-0.5,0.6-1.1,0.8-1.7c0.2-0.7,0.3-1.3,0.3-2.1c0-1.1-0.1-2-0.3-3c-0.2-0.9-0.5-1.7-0.9-2.4
			c-0.4-0.7-0.9-1.2-1.6-1.6c-0.7-0.4-1.4-0.6-2.4-0.6c-0.5,0-1,0.1-1.4,0.4c-0.5,0.3-0.9,0.7-1.2,1.1c-0.3,0.5-0.6,1.1-0.8,1.7
			c-0.2,0.6-0.3,1.3-0.3,2.1c0,1.1,0.1,2.1,0.3,3c0.2,0.9,0.5,1.7,1,2.4c0.4,0.7,1,1.2,1.6,1.6C97.2,28,97.9,28.2,98.7,28.2"/>
		<path class="st0" d="M113.9,29.3c-1.1,0-2.1-0.2-3.1-0.6c-0.9-0.4-1.7-0.9-2.4-1.6c-0.7-0.7-1.2-1.5-1.6-2.3
			c-0.4-0.9-0.6-1.9-0.6-2.9c0-1.1,0.2-2.1,0.6-3c0.4-0.9,0.9-1.8,1.6-2.5c0.7-0.7,1.5-1.3,2.4-1.7c0.9-0.4,2-0.6,3.1-0.6
			c1.1,0,2.1,0.2,3.1,0.6c0.9,0.4,1.7,0.9,2.4,1.5c0.7,0.6,1.2,1.4,1.6,2.3s0.6,1.8,0.6,2.8c0,1.1-0.2,2.1-0.6,3.1
			c-0.4,1-0.9,1.8-1.6,2.5c-0.7,0.7-1.5,1.3-2.4,1.7C116.1,29,115,29.3,113.9,29.3 M114.5,28.2c0.6,0,1.1-0.1,1.6-0.4
			c0.5-0.3,0.9-0.7,1.2-1.2c0.3-0.5,0.6-1.1,0.8-1.7c0.2-0.7,0.3-1.3,0.3-2.1c0-1.1-0.1-2-0.3-3c-0.2-0.9-0.5-1.7-0.9-2.4
			c-0.4-0.7-0.9-1.2-1.6-1.6c-0.7-0.4-1.5-0.6-2.4-0.6c-0.5,0-1,0.1-1.4,0.4c-0.5,0.3-0.9,0.7-1.2,1.1c-0.3,0.5-0.6,1.1-0.8,1.7
			c-0.2,0.6-0.3,1.3-0.3,2.1c0,1.1,0.1,2.1,0.3,3c0.2,0.9,0.5,1.7,1,2.4c0.4,0.7,1,1.2,1.6,1.6C113,28,113.7,28.2,114.5,28.2"/>
		<path class="st0" d="M124.3,14.1h0.8v2.9c0.9-1,1.8-1.7,2.7-2.2c0.9-0.5,1.9-0.7,2.9-0.7c0.5,0,1,0.1,1.4,0.3
			c0.4,0.2,0.8,0.5,1.2,0.9c0.3,0.4,0.6,0.9,0.8,1.4c0.2,0.5,0.3,1.1,0.3,1.7v10.4h-2.9V19c0-0.5-0.1-0.9-0.2-1.3
			c-0.1-0.4-0.3-0.7-0.5-0.9c-0.2-0.2-0.5-0.4-0.7-0.6c-0.3-0.1-0.6-0.2-0.9-0.2c-0.3,0-0.6,0.1-1,0.2c-0.3,0.1-0.7,0.2-1,0.4
			c-0.4,0.2-0.7,0.4-1.1,0.7c-0.4,0.3-0.7,0.5-1,0.9v8.7c0,1.1-0.9,2.1-2.1,2.1h-0.8v-14L124.3,14.1z"/>
		<path class="st0" d="M145.6,23.3c-0.2-0.5-0.6-0.9-1-1.2c-0.4-0.3-0.9-0.7-1.4-0.9c-0.5-0.3-1-0.5-1.6-0.7c-0.5-0.2-1-0.4-1.6-0.7
			c-0.5-0.2-1-0.5-1.4-0.7c-0.4-0.3-0.7-0.6-1-0.9c-0.2-0.3-0.4-0.7-0.4-1.1c0-0.3,0.1-0.5,0.2-0.8c0.1-0.2,0.3-0.4,0.6-0.6
			c0.2-0.2,0.5-0.3,0.9-0.4c0.3-0.1,0.7-0.1,1.1-0.1c0.4,0,0.7,0.1,1.1,0.2c0.3,0.2,0.6,0.4,0.9,0.6c0.3,0.3,0.5,0.6,0.6,1
			c0.2,0.4,0.2,0.8,0.9,1.1c0.7,0.4,2.1,0.1,2.1,0.1s-0.3-1.2-0.6-1.7c-0.4-0.5-0.8-0.9-1.3-1.2c-0.5-0.3-1.2-0.6-1.8-0.8
			c-0.5-0.1-1.1-0.3-1.7-0.3v0c0,0-0.1,0-0.1,0c-0.1,0-0.1,0-0.2,0v0c-0.6,0-1.2,0.1-1.7,0.3c-0.6,0.2-1.1,0.5-1.6,0.8
			c-0.4,0.4-0.8,0.8-1,1.3c-0.2,0.5-0.4,1-0.4,1.6c0,0.6,0.1,1.2,0.3,1.6c0.2,0.5,0.5,0.9,0.9,1.2c0.4,0.3,0.8,0.7,1.2,0.9
			c0.5,0.3,0.9,0.5,1.4,0.7c0.5,0.2,1,0.5,1.4,0.7c0.5,0.2,0.9,0.5,1.2,0.7c0.4,0.3,0.7,0.6,0.9,0.9c0.2,0.3,0.3,0.7,0.3,1.2
			c0,0.3-0.1,0.5-0.2,0.8c-0.1,0.3-0.3,0.5-0.6,0.7c-0.2,0.2-0.5,0.4-0.9,0.5c-0.3,0.1-0.7,0.2-1.1,0.2c-0.3,0-0.6,0-0.9-0.1
			c-0.1,0-0.2-0.1-0.3-0.1c-0.3-0.2-0.6-0.4-0.9-0.6c-0.3-0.3-0.5-0.6-0.6-1c-0.2-0.4-0.2-0.8-0.9-1.1c-0.7-0.4-2.1-0.1-2.1-0.1
			s0.3,1.2,0.6,1.7c0.4,0.5,0.8,0.9,1.3,1.2c0.5,0.3,1.2,0.6,1.8,0.8c0.6,0.2,1.2,0.3,1.8,0.3c0,0,0,0,0,0c0.9,0,1.8-0.1,2.4-0.3
			c0.7-0.2,1.3-0.5,1.7-0.9c0.5-0.4,0.8-0.9,1-1.4c0.2-0.5,0.3-1.1,0.3-1.7C146,24.3,145.8,23.7,145.6,23.3"/>
		<path class="st0" d="M135.9,32.7c-2,0.7-3.9,1.4-6.7,1.4c-7.1,0-14.5-5.1-20.6-1.6c7.8-1.2,13.1,3.8,20.7,3
			C131.7,35.2,133.9,34.3,135.9,32.7"/>
		<path class="st0" d="M120.4,35.7c-6.1,0.3-10.2-1.1-14.8-2.7c-3.9-1.1-8.8-1.6-11.9,1.1c3.3-1.2,6.8-0.8,9.8,0.1
			C106.2,35,113.4,38.4,120.4,35.7"/>
		<path class="st0" d="M64.3,34.9c-2-1-2.1-1.8-2.1-3.1v-0.3c0,0,0,0,0,0V12.8c0-2.3-2.9-2.9-2.9-2.9v20.8h0v0.1
			c0,1.6-1.3,2.8-2.8,2.8h-0.6l0,0.4c2.6,0,5.3,0.8,7.9,2.2c12.9,7,22.7,7.5,29.3-1.2C93,35,82.5,44.3,64.3,34.9"/>
	</g>
	<g>
		<path class="st7" d="M2.4,57.8c0-6.4,4.5-11.5,10-11.5c3.6,0,6.2,1.2,7.4,2.6c0.8,1,0.8,2.9,0.8,4.8h-0.6c-0.8-4.2-3-6.1-6.6-6.1
			c-4.2,0-7.7,2.6-7.7,10.2c0,4.8,2.2,9.6,7.7,9.6c3.2,0,5.4-1.6,7.2-4.5l0.6,0.5c-2.1,4-5,5.3-8.8,5.3C6.3,68.7,2.4,63.9,2.4,57.8z
			"/>
		<path class="st7" d="M23.3,57.5c0-6.3,3.9-11.2,10-11.2c6.1,0,10,4.9,10,11.2c0,6.3-3.9,11.2-10,11.2
			C27.1,68.7,23.3,63.8,23.3,57.5z M40,57.5c0-6.1-2.5-9.9-6.7-9.9c-4.2,0-6.7,3.8-6.7,9.9c0,6.1,2.5,9.9,6.7,9.9
			C37.4,67.4,40,63.6,40,57.5z"/>
		<path class="st7" d="M45.8,64.7v-3.4h0.6c0.7,4.3,2.8,6.1,6.5,6.1c2.2,0,4.2-1.1,4.2-3.3c0-1.9-1.2-3-3.5-4.4l-4-2.3
			c-2.7-1.6-3.8-3.1-3.8-5.5c0-3.3,2.5-5.4,6.2-5.4c3.2,0,6.9,1.4,6.9,3.8v3.4h-0.6c-0.7-4.3-2.7-6-6.4-6c-1.9,0-3.7,1.2-3.7,3.2
			c0,1.9,1.2,2.8,3.6,4.2l4,2.3c2.7,1.6,4,2.9,4,5.3c0,3.6-2.6,5.9-6.7,5.9C49.6,68.6,45.8,67.1,45.8,64.7z"/>
		<path class="st7" d="M68.8,48.2h-2.9c-2.6,0-4,1.1-4,3.7h-0.6v-2.4c0-1.3,0.5-2.6,2.7-2.6h14.9v1.3h-7.2V68h-2.9V48.2z"/>
		<path class="st7" d="M90.9,64L90.1,62h-9L78.5,68h-1.4l9-21.1h1L94.1,64c1,2.4,1.7,3.2,3.5,3.4V68c-0.4,0.1-0.8,0.2-1.3,0.2
			C94.9,68.2,92.3,67.8,90.9,64z M89.4,60.7l-3.9-9.3l-4,9.3H89.4z"/>
		<path class="st7" d="M107,50.8c0-1.9-0.3-3.2-2.2-3.2h-0.6v-0.6h8.4c3.4,0,8.7,0.6,8.7,5.6c0,1.9-1.3,3.7-4.2,4.6
			c4.2,0.7,5.3,2.5,5.3,5.1c0,4.8-4.8,5.8-8.8,5.8H107V50.8z M112.9,56.7c2.5,0,5.1-1.4,5.1-4.3c0-3.1-3.2-4.3-5.8-4.3
			c-0.8,0-1.8,0.2-2.4,0.3v8.3H112.9z M119,62.4c0-2.9-2.1-4.5-6.1-4.5h-3.1v8.5c1,0.3,2.1,0.4,3.1,0.4
			C116.8,66.9,119,65.4,119,62.4z"/>
		<path class="st7" d="M134.7,63.7l-3.2-5.4h-2.2V68h-2.9V50.8c0-1.9-0.3-3.2-2.2-3.2h-0.6v-0.6h8.4c2.7,0,8,0.6,8,5.7
			c0,3.7-2.8,4.9-5.1,5.5l3.4,5.6c1.6,2.7,2.7,3.5,4.3,3.7V68c-0.4,0.2-1.1,0.3-2,0.3C138.2,68.4,136.8,67.2,134.7,63.7z
			 M131.6,57.2c1.9,0,5.1-1.2,5.1-4.5s-3.2-4.6-5.1-4.6c-0.7,0-1.7,0.2-2.3,0.3v8.8H131.6z"/>
		<path class="st7" d="M156,64l-0.8-2.1h-9l-2.6,6.1h-1.4l9-21.1h1l7.1,17.1c1,2.4,1.7,3.2,3.5,3.4V68c-0.4,0.1-0.8,0.2-1.3,0.2
			C160,68.2,157.4,67.8,156,64z M154.5,60.7l-3.9-9.3l-4,9.3H154.5z"/>
		<path class="st7" d="M161.6,50.7c-1-2.4-1.7-3.2-3.5-3.4v-0.6c0.2,0,0.8-0.1,1.1-0.1c1.6,0,4,0.4,5.6,4.1l5.5,12.9l7.1-16.7h1.5
			l-9.2,21.5h-0.6L161.6,50.7z"/>
		<path class="st7" d="M190.8,64L190,62h-9l-2.6,6.1H177l9-21.1h1L194,64c1,2.4,1.7,3.2,3.5,3.4V68c-0.4,0.1-0.8,0.2-1.3,0.2
			C194.8,68.2,192.2,67.8,190.8,64z M189.3,60.7l-3.9-9.3l-4,9.3H189.3z"/>
	</g>
</g>
</svg>
