<?xml version="1.0" encoding="utf-8"?>
<!-- Generator: Adobe Illustrator 16.0.0, SVG Export Plug-In . SVG Version: 6.00 Build 0)  -->
<!DOCTYPE svg PUBLIC "-//W3C//DTD SVG 1.1//EN" "http://www.w3.org/Graphics/SVG/1.1/DTD/svg11.dtd">
<svg version="1.1" id="Layer_1" xmlns="http://www.w3.org/2000/svg" xmlns:xlink="http://www.w3.org/1999/xlink" x="0px" y="0px"
	 width="200px" height="70px" viewBox="0 0 200 70" enable-background="new 0 0 200 70" xml:space="preserve">
<g>
	<g>
		<defs>
			<path id="SVGID_1_" d="M77.801,2.408L77.41,3.351h2.98c1.521,0,1.961,0.757,1.437,2.012c-0.303,0.727-0.57,1.394-1.204,1.69
				c-0.578,0.272-1.178,0.353-2.241,0.353l-1.379-0.003l1.029-2.443h-1.299l-1.462,3.478h3.923c1.1,0,1.969-0.102,2.608-0.305
				c0.702-0.226,1.331-0.596,1.886-1.109c0.518-0.492,0.901-1.036,1.152-1.637c0.395-0.942,0.36-1.673-0.101-2.197
				c-0.462-0.521-1.332-0.782-2.61-0.782H77.801z M89.64,3.579l0.464,2.454h-3.03L89.64,3.579z M112.122,3.458l0.546,2.565h-3.182
				L112.122,3.458z M111.896,2.4l0.001,0.005h-1.607l-6.175,5.778l2.413-5.776h-2.647l-3.197,2.504l-1.646,1.353h-0.074l0.774-1.97
				l-0.944-1.887h-2.66l-2.417,5.788l-1.393-5.788h-2.914l-6.438,6.03h1.609l1.645-1.577h4.055l0.324,1.577h4.309L96.47,4.71
				c0.078-0.188,0.154-0.402,0.227-0.643c0.008,0.194,0.061,0.401,0.156,0.619l1.37,3.109h0.231l3.919-3.098
				c0.147-0.117,0.369-0.327,0.667-0.63c-0.153,0.281-0.259,0.494-0.32,0.643l-1.557,3.728h2.845V8.437h2.999l1.627-1.584h4.212
				l0.338,1.584h1.481L113.223,2.4H111.896z M120.358,2.395c-1.278,0-2.368,0.263-3.266,0.786c-0.896,0.523-1.543,1.257-1.938,2.2
				c-0.252,0.599-0.321,1.147-0.214,1.635c0.127,0.517,0.444,0.888,0.959,1.113c0.469,0.202,1.254,0.305,2.354,0.305h3.916
				l0.391-0.958h-2.206c-1.062,0-1.771-0.137-2.123-0.411c-0.387-0.295-0.344-0.981-0.042-1.708c0.527-1.257,1.626-2.04,3.146-2.04
				h1.709l-0.392,0.946h1.298l0.776-1.867H120.358z"/>
		</defs>
		<use xlink:href="#SVGID_1_"  overflow="visible" fill="#800000018000000180000001"/>
		<clipPath id="SVGID_2_">
			<use xlink:href="#SVGID_1_"  overflow="visible"/>
		</clipPath>
		<rect x="75.271" y="2.395" clip-path="url(#SVGID_2_)" fill="#800000018000000180000001" width="49.457" height="6.043"/>
	</g>
	<g>
		<defs>
			<path id="SVGID_3_" d="M116.78,48.03h0.288c0.142,0,0.294,0.033,0.294,0.201c0,0.207-0.158,0.223-0.33,0.223h-0.252V48.03z
				 M116.581,47.86v1.357h0.199v-0.592h0.237l0.358,0.592h0.233l-0.387-0.604c0.199-0.023,0.353-0.129,0.353-0.371
				c0-0.268-0.157-0.383-0.481-0.383H116.581z M116.073,48.534c0-0.559,0.421-0.979,0.959-0.979c0.536,0,0.952,0.42,0.952,0.979
				c0,0.564-0.416,0.986-0.952,0.986C116.494,49.521,116.073,49.099,116.073,48.534 M115.841,48.534
				c0,0.684,0.542,1.178,1.191,1.178c0.642,0,1.193-0.494,1.193-1.178c0-0.674-0.552-1.172-1.193-1.172
				C116.383,47.362,115.841,47.86,115.841,48.534 M80.741,44.845l-1.004-0.527l0.483,1.02l-0.812,0.752l1.097-0.141l0.48,1.012
				l0.228-1.119l1.126-0.139l-0.986-0.533l0.212-1.102L80.741,44.845z M118.726,44.979l-0.989,0.525l1.127,0.148l0.215,1.121
				l0.491-1.018l1.095,0.154l-0.802-0.76l0.49-1.01l-1.013,0.529l-0.823-0.793L118.726,44.979z M78.821,41.399l-0.939,0.582
				l1.105,0.07l0.275,1.086l0.434-1.059l1.14,0.082l-0.869-0.713l0.42-1.041l-0.959,0.609l-0.885-0.713L78.821,41.399z
				 M120.618,40.825l-0.955-0.621l0.416,1.047l-0.879,0.705l1.139-0.066l0.427,1.049l0.284-1.09l1.105-0.055l-0.932-0.596
				l0.285-1.086L120.618,40.825z M89.238,40.358c-0.247,0.266-0.406,0.512-0.499,0.629c0,0-0.312,0.51-0.473,0.723
				c-0.165,0.211-0.578,0.82-0.757,1.078c-0.063,0.09-0.228,0.471-0.543,0.867c-0.157,0.199-0.318,0.455-0.626,0.852
				c-0.411,0.533-0.728,0.967-0.653,1.021c0.041,0.031,0.649-0.697,1.298-1.488c0.271-0.33,0.566-0.67,0.813-0.988
				c0.12-0.158,0.399-0.418,0.491-0.555c0.158-0.232,0.332-0.412,0.402-0.469c0.363-0.295,0.565-0.318,0.68-0.482
				c0.059-0.086,0.771-1.166,1.032-1.605c0.24-0.414,0.828-1.225,0.687-1.352c-0.003-0.004-0.006-0.004-0.011-0.004
				C90.935,38.585,89.916,39.626,89.238,40.358 M109.443,37.991c-0.069,0.068,0.162,0.346,0.258,0.467
				c0.098,0.125,0.257,0.348,0.461,0.592c0.337,0.398,0.023,0.697,0.345,1.018c0.053,0.053,0.933,1.039,1.15,1.223
				c0.323,0.285,1.47,1.646,1.55,1.723c0.135,0.125,0.37,0.4,0.408,0.352c0.045-0.049-0.071-0.197-0.136-0.311
				c-0.067-0.115-0.479-0.566-0.552-0.691c-0.07-0.121-0.598-0.875-0.786-1.123c-0.329-0.424-0.025-0.58-0.199-0.844
				c-0.072-0.113-0.493-0.625-0.989-1.129c-0.253-0.254-0.536-0.498-0.778-0.715c-0.36-0.318-0.639-0.566-0.717-0.566
				C109.452,37.985,109.446,37.987,109.443,37.991 M78.199,37.251l-1.029,0.391l1.071,0.277l0.063,1.125l0.631-0.953l1.095,0.297
				l-0.716-0.869l0.614-0.941l-1.061,0.416l-0.731-0.867L78.199,37.251z M95.566,36.146c-0.294,0.291-0.896,1.33-1.121,1.447
				c-0.516,0.254-0.74,0.854-0.892,1.09c-0.11,0.178-0.25,0.461-0.495,0.818c-0.215,0.311-0.46,0.771-0.55,0.938
				c-0.091,0.162-0.124,0.318,0.039,0.318c0.172,0,0.039,0.268-0.163,0.566c-0.115,0.174-0.397,1.004-0.481,1.23
				c-0.108,0.281-0.093,0.637-0.129,0.754c-0.041,0.113-0.585,1.27-0.725,1.525c-0.089,0.164-0.064,0.23-0.099,0.316
				c-0.049,0.115,0.014,0.143,0.099,0.064c0.104-0.104,0.684-0.986,0.86-1.092c0.176-0.111,0.335-0.273,0.359-0.652
				c0.027-0.379,0.271-0.482,0.461-0.705c0.188-0.219,0.441-0.516,0.579-0.824c0.125-0.316,0.288-0.074,0.584-0.553
				c0.295-0.477,0.958-1.658,1.107-1.887c0.148-0.229,0.042-0.559,0.024-0.83c-0.009-0.143,0.01-0.498,0.099-0.873
				c0.082-0.336,0.238-0.676,0.325-0.898c0.063-0.139,0.269-0.563,0.255-0.732c0-0.02-0.032-0.051-0.073-0.051
				C95.61,36.116,95.587,36.126,95.566,36.146 M121.136,36.8l-1.053-0.43l0.606,0.941l-0.724,0.861l1.101-0.283l0.62,0.953
				l0.074-1.125l1.068-0.266l-1.027-0.406l0.078-1.123L121.136,36.8z M104.296,34.607c-0.122,0.081,0.434,0.861,0.492,0.953
				c0.059,0.088,0.696,1.193,0.762,1.488c0.066,0.297,1.264,2.313,1.52,2.939c0.147,0.363,0.969,0.854,1.314,1.426
				c0.267,0.451,0.37,0.439,0.479,0.43c0.018-0.002,0.035-0.004,0.055-0.004c0.298,0.012,0.966,0.73,1.102,0.926
				c0.125,0.199,1.206,1.271,1.481,1.533c0.121,0.115,0.971,1.492,1.084,1.398c0.115-0.1-0.328-0.773-0.396-0.918
				c-0.062-0.148-0.308-0.365-0.426-0.676c-0.113-0.309-0.62-1.08-0.785-1.33c-0.164-0.242-0.429-0.787-0.724-1.133
				c-0.267-0.305-0.049-0.389-0.329-0.654c-0.167-0.156-0.688-0.621-0.806-0.721c-0.11-0.098-0.537-0.473-0.786-0.688
				c-0.239-0.205-0.819-0.611-0.801-0.869c0.012-0.264-0.117-0.77-0.315-0.938c-0.143-0.117-0.559-0.787-1.035-1.18
				c-0.241-0.205-0.751-0.732-1.149-1.195c-0.348-0.415-0.617-0.794-0.718-0.794C104.308,34.602,104.302,34.604,104.296,34.607
				 M100.588,32.067c-0.113,0.105,0.347,1.193,0.54,1.884c0.201,0.688,0.051,0.968-0.064,1.167c-0.113,0.192-0.113,0.321,0,0.668
				c0.104,0.312,0.493,2.13,0.608,2.509c0.113,0.379,0.234,0.398,0.296,0.545c0.231,0.566,0.553,0.592,0.721,0.639
				c0.469,0.139,0.507,0.771,0.808,1.332c0.277,0.525,0.539,0.998,0.786,1.57c0.247,0.576,1.507,3.684,1.721,4.158
				c0.079,0.168,0.677,0.168,0.609,0c-0.151-0.342-0.494-1.203-0.707-2.059c-0.138-0.557,0.381-0.164,0.052-1.051
				c-0.154-0.41-0.446-0.818-0.606-0.98c-0.172-0.164-0.331-0.869-0.461-1.186c-0.133-0.307-0.065-0.324-0.345-1.066
				c-0.205-0.539,0.379-0.359,0.046-1.195c-0.213-0.545-1.29-2.508-1.411-2.709c-0.064-0.109-0.274-0.447-0.528-0.851
				c-0.241-0.384-0.443-0.792-0.557-0.968c-0.225-0.36-0.639-1.149-0.868-1.477c-0.215-0.304-0.474-0.944-0.608-0.944
				C100.608,32.055,100.597,32.059,100.588,32.067 M78.399,33.063l-1.093,0.188l0.998,0.48l-0.15,1.116l0.799-0.823l1.021,0.504
				l-0.536-0.988l0.778-0.807L79.1,32.94l-0.553-0.992L78.399,33.063z M120.869,32.742l-1.115-0.217l0.771,0.816l-0.543,0.978
				l1.026-0.487l0.787,0.814l-0.14-1.12l1.003-0.464l-1.09-0.201l-0.142-1.113L120.869,32.742z M79.388,28.996l-1.103-0.027
				l0.887,0.659l-0.36,1.067l0.94-0.647l0.91,0.679l-0.345-1.067l0.928-0.643l-1.141-0.013l-0.353-1.078L79.388,28.996z
				 M119.824,28.812l-1.134,0.003l0.916,0.65l-0.35,1.067l0.912-0.677l0.936,0.652l-0.357-1.073l0.896-0.645l-1.104,0.008
				l-0.354-1.068L119.824,28.812z M104.563,26.875c-0.298,0.561-0.523,1.262-0.262,1.386c0.275,0.139,0.624-0.472,0.923-1.034
				c0.3-0.563,0.54-1.262,0.286-1.349c-0.024-0.01-0.053-0.015-0.078-0.015C105.161,25.862,104.838,26.362,104.563,26.875
				 M94.03,26.351c-0.237,0.287-0.627,0.837-0.688,1.236c-0.037,0.209,0.062,0.296,0.176,0.296c0.252,0,0.6-0.448,0.799-0.834
				c0.199-0.423,0.302-0.66,0.547-1.197c0.013-0.026-0.012-0.026-0.035-0.026C94.542,25.826,94.228,26.116,94.03,26.351
				 M98.496,26.351c-0.236,0.287-0.622,0.837-0.683,1.236c-0.04,0.209,0.05,0.296,0.176,0.296c0.248,0,0.599-0.448,0.794-0.834
				c0.201-0.423,0.302-0.66,0.553-1.197c0.015-0.026-0.013-0.026-0.038-0.026C99.011,25.826,98.696,26.116,98.496,26.351
				 M81.14,25.203l-1.078-0.236l0.746,0.822l-0.555,0.976l1.045-0.462l0.759,0.846l-0.129-1.113l1.025-0.458l-1.112-0.226
				l-0.141-1.128L81.14,25.203z M118.056,25.173l-1.112,0.215l1.019,0.467l-0.14,1.114l0.773-0.836l1.037,0.46l-0.555-0.989
				l0.758-0.797l-1.082,0.213l-0.555-0.981L118.056,25.173z M83.577,21.816l-1.016-0.437l0.575,0.946l-0.731,0.85l1.114-0.248
				l0.585,0.97l0.085-1.113l1.095-0.255l-1.047-0.438l0.074-1.13L83.577,21.816z M115.629,21.939l-1.053,0.425l1.091,0.26
				l0.078,1.119l0.594-0.969l1.106,0.254l-0.728-0.861l0.587-0.934l-1.023,0.418l-0.726-0.854L115.629,21.939z M86.607,18.95
				l-0.917-0.618l0.385,1.037l-0.88,0.695l1.142-0.028l0.392,1.066l0.294-1.084l1.125-0.039l-0.949-0.627l0.294-1.099L86.607,18.95z
				 M112.641,19.222l-0.954,0.62l1.119,0.049l0.291,1.084l0.401-1.062l1.133,0.033l-0.879-0.705l0.401-1.028l-0.926,0.609
				l-0.876-0.705L112.641,19.222z M112.09,25.789h0.349l0.501-1.085h0.67l-0.48,1.085h0.506l-0.099,0.202h-0.497
				c-0.287,0.61-0.527,1.121-0.776,1.698c-0.099,0.195-0.198,0.523-0.146,0.725c0.036,0.11,0.175,0.136,0.301,0.097
				c0.385-0.132,0.648-0.461,0.873-0.813c0.01-0.035,0.21-0.009,0.197,0.016c-0.263,0.524-0.834,1.049-1.384,1.035
				c-0.164,0-0.341-0.099-0.437-0.238c-0.05-0.072-0.077-0.132-0.102-0.221c-0.036-0.142-0.026-0.301,0-0.453
				c-0.299,0.227-0.582,0.499-0.958,0.577c-0.163,0.025-0.376-0.036-0.415-0.216c-0.023-0.134-0.012-0.284,0.039-0.408
				c0.237-0.513,0.447-0.976,0.674-1.512c0.015-0.024,0-0.115-0.027-0.125c-0.036-0.036-0.146-0.036-0.246,0.038
				c-0.463,0.35-0.697,0.797-0.898,1.258c-0.14,0.312-0.29,0.625-0.439,0.929h-0.661c0.073-0.188,0.189-0.439,0.272-0.64
				c0-0.013-0.012-0.013-0.012,0c-0.271,0.273-0.626,0.584-0.972,0.676c-0.139,0.037-0.276-0.014-0.346-0.142
				c-0.082-0.125-0.104-0.31-0.032-0.475c0-0.008-0.01-0.008-0.022,0c-0.249,0.251-0.488,0.475-0.821,0.588
				c-0.379,0.115-0.715-0.147-0.479-0.697c0.064-0.148,0.254-0.564,0.462-1.062c-0.173,0.074-0.384,0.074-0.495,0.037
				c-0.015,0-0.015,0-0.015,0.012c-0.151,0.699-0.563,1.335-1.199,1.636c-0.312,0.149-0.661,0.188-0.972-0.023
				c-0.15-0.1-0.237-0.34-0.251-0.551c-0.323,0.325-0.687,0.734-1.186,0.662c-0.076-0.014-0.137-0.078-0.174-0.149
				c-0.114-0.188-0.046-0.39,0.022-0.553c0.238-0.497,0.439-0.963,0.675-1.518c0.04-0.079-0.07-0.14-0.147-0.101
				c-0.211,0.112-0.376,0.233-0.513,0.462c-0.083,0.099-0.151,0.194-0.198,0.321c-0.216,0.5-0.45,0.975-0.65,1.46h-0.676
				c0.303-0.684,0.588-1.345,0.886-2.019c0.029-0.063,0.013-0.15-0.022-0.173c-0.063-0.029-0.164,0.023-0.234,0.061
				c-0.163,0.113-0.303,0.263-0.413,0.449c-0.114,0.188-0.216,0.375-0.296,0.577l-0.507,1.105h-0.659
				c0.063-0.148,0.188-0.438,0.264-0.584c0-0.013-0.014-0.024-0.014-0.013c-0.362,0.299-0.824,0.689-1.16,0.625
				c-0.113-0.014-0.212-0.111-0.238-0.211c-0.021-0.127-0.015-0.24,0.014-0.348c0-0.016-0.014-0.016-0.028,0
				c-0.287,0.273-0.547,0.5-0.908,0.588c-0.212,0.046-0.402-0.089-0.473-0.24c-0.092-0.176-0.116-0.449,0.036-0.763
				c0.087-0.201,0.185-0.41,0.31-0.586c-0.075,0.039-0.223,0.05-0.324,0.039c-0.087-0.014-0.174-0.078-0.223-0.14
				c-0.051-0.061-0.062-0.172-0.062-0.248c0.011-0.012-0.027-0.012-0.053,0c-0.199,0.161-0.287,0.349-0.386,0.562l-0.577,1.297
				h-0.672l0.249-0.549c0.013-0.012,0-0.025-0.014-0.012c-0.349,0.311-0.771,0.662-1.11,0.597c-0.099-0.013-0.198-0.113-0.224-0.208
				c-0.026-0.116-0.014-0.242,0-0.353H94.04c-0.271,0.275-0.534,0.499-0.896,0.576c-0.2,0.064-0.387-0.06-0.463-0.235
				c-0.103-0.252-0.063-0.512,0.025-0.752c0.258-0.674,0.737-1.16,1.386-1.522c0.41-0.236,1.046-0.31,1.494-0.075
				c-0.309,0.7-0.534,1.201-0.821,1.858c-0.024,0.066-0.049,0.174,0.016,0.213c0.048,0.025,0.11,0.025,0.146,0
				c0.365-0.173,0.688-0.6,0.939-1.086l0.449-0.994h0.632l-0.171,0.374c-0.015,0.023-0.015,0.033,0,0.023
				c0.196-0.151,0.41-0.374,0.663-0.513c0.099-0.049,0.335-0.049,0.31,0.116c-0.012,0.146-0.126,0.26-0.187,0.397
				c-0.037,0.087-0.074,0.199-0.063,0.259c0.026,0.064,0.101,0.104,0.199,0.028c0.1-0.063,0.177-0.113,0.267-0.187
				c0.159-0.153,0.359-0.3,0.584-0.414c0.451-0.212,1.062-0.347,1.509-0.061c-0.313,0.697-0.548,1.223-0.846,1.884
				c-0.054,0.11-0.013,0.148,0.023,0.173c0.038,0.025,0.116,0.038,0.216-0.017c0.246-0.105,0.683-0.592,0.857-0.968
				c0.163-0.353,0.313-0.699,0.487-1.096h0.653l-0.181,0.385c0,0,0.015,0.012,0.025,0.012c0.175-0.162,0.629-0.525,0.964-0.451
				c0.188,0.04,0.275,0.263,0.261,0.428c0.215-0.154,0.434-0.34,0.746-0.416c0.453-0.11,0.627,0.204,0.489,0.502
				c-0.174,0.411-0.522,1.22-0.723,1.636c-0.023,0.045-0.023,0.135,0,0.158c0.05,0.038,0.136,0,0.176-0.023
				c0.224-0.19,0.347-0.314,0.522-0.564c0.048-0.437,0.287-0.834,0.613-1.17c0.346-0.39,0.896-0.688,1.424-0.512
				c0.186,0.061,0.312,0.25,0.358,0.438c0.027,0.098,0.051,0.147,0.051,0.26c0.273,0.199,0.637-0.128,0.785-0.373
				c0.04-0.102,0.087-0.214,0.114-0.288c0.159,0.011,0.471,0,0.65,0l-0.813,1.859c-0.051,0.111-0.065,0.173-0.065,0.259
				c0,0.064,0.075,0.078,0.153,0.064c0.226-0.035,0.587-0.477,0.772-0.85c0.209-0.461,0.411-0.848,0.612-1.309h0.657
				c-0.259,0.625-0.556,1.285-0.773,1.771c-0.048,0.1-0.107,0.199-0.073,0.339c0.025,0.062,0.113,0.049,0.165,0.026
				c0.285-0.166,0.777-0.711,0.945-1.048c0.18-0.401,0.311-0.701,0.498-1.088h0.678l-0.163,0.388c0.25-0.199,0.524-0.412,0.85-0.46
				c0.149-0.028,0.335-0.016,0.423,0.133c0.101,0.177,0.039,0.363-0.036,0.527c-0.187,0.423-0.402,0.886-0.588,1.299
				c-0.034,0.101-0.046,0.195,0.026,0.238c0.1,0.061,0.573-0.229,0.811-0.753c0.212-0.459,0.35-0.734,0.536-1.183h-0.347
				L112.09,25.789z M86.041,26.055c0-2.423,2.977-3.339,4.735-3.251c1.94,0.092,3.082,1.043,3.082,2.065
				c-0.003,1.821-2.895,2.135-2.895,2.135c-0.504,2.529-2.511,3.493-3.901,3.479c-1.861-0.016-1.834-1.522-1.769-1.721
				c0.075-0.226,0.191-0.428,0.428-0.428c0.235,0,0.428,0.191,0.428,0.428c0,0.146-0.072,0.28-0.192,0.352
				c-0.248,0.15-0.201,0.341-0.201,0.341c0,0.803,1.038,0.863,1.307,0.863c2.778,0,2.458-4.571,4.903-6.122
				c0.113-0.075,0.201,0,0.133,0.077c-0.763,0.956-1.052,2.5-1.052,2.5c1.182,0,1.958-1.122,1.958-1.903
				c0-1.339-1.204-1.897-2.229-1.897c-2.858,0-4.099,1.995-4.099,3.084c0,1.09,0.688,1.484,1.187,1.484
				c0.689,0,0.906-0.466,0.821-0.689c-0.137-0.356,0.055-0.653,0.269-0.653c0.084,0,0.369-0.013,0.369,0.49
				c0,0.481-0.688,0.967-1.44,0.967S86.041,27.248,86.041,26.055 M81.082,36.216c0,2.859,0.752,6.074,2.104,8.713
				c2.441-2.273,8.854-9.509,9.589-10.354c1.118-1.279,1.602-0.462,2.2-1.176c0.324-0.396,0.512-0.546,0.653-0.626
				c0.231-0.137,0.495-0.461,0.624-0.559c0.131-0.1,0.427-0.492,0.657-0.691c0.232-0.195,0.69-0.494,1.151-0.889
				c0.461-0.39,1.245-1.311,2.1-1.311c1.015,0,1.442,0.689,1.53,0.773c0.076,0.08,0.702,0.63,0.801,0.735
				c0.113,0.124,0.786,0.656,1.147,0.656c0.36,0,0.626,0.394,0.818,0.589c0.43,0.394,2.211,2.26,2.794,2.66
				c0.263,0.178,0.507,0.146,0.703,0.297c0.198,0.146,0.296,0.246,0.411,0.277c0.111,0.033,0.492-0.064,0.936,0.49
				c0.205,0.143,0.261,0.164,0.261,0.164s0.603,0.548,0.819,0.935c0.191,0.336,4.7,6.316,6.315,8.457
				c1.493-2.713,2.348-5.83,2.348-9.146c0-10.481-8.503-18.979-18.987-18.979C89.575,17.237,81.079,25.737,81.082,36.216
				 M89.528,17.016l-0.997,0.521l1.125,0.18l0.178,1.123l0.499-1.007l1.109,0.176l-0.811-0.796l0.497-1.022l-1.004,0.517
				l-0.779-0.782L89.528,17.016z M109.685,16.612l-0.998-0.521l0.496,1.029l-0.815,0.791l1.107-0.171l0.491,1.006l0.192-1.117
				l1.121-0.18l-0.998-0.527l0.194-1.087L109.685,16.612z M93.364,15.364l-1.079,0.313l1.068,0.4l-0.038,1.136l0.682-0.893
				l1.058,0.385l-0.645-0.938l0.68-0.905l-1.081,0.31l-0.614-0.915L93.364,15.364z M105.783,15.112l-1.073-0.324l0.681,0.915
				l-0.655,0.935l1.062-0.379l0.674,0.902l-0.029-1.142l1.068-0.387l-1.082-0.328l-0.019-1.104L105.783,15.112z M97.46,14.471
				l-1.117,0.107l0.974,0.591l-0.256,1.108l0.841-0.746l0.964,0.579l-0.451-1.043l0.841-0.761l-1.123,0.104l-0.425-1.02
				L97.46,14.471z M101.651,14.388l-1.117-0.109l0.844,0.766l-0.461,1.04l0.968-0.568l0.832,0.747l-0.244-1.111l0.97-0.583
				l-1.123-0.114l-0.226-1.082L101.651,14.388z"/>
		</defs>
		<use xlink:href="#SVGID_3_"  overflow="visible" fill="#800000018000000180000001"/>
		<clipPath id="SVGID_4_">
			<use xlink:href="#SVGID_3_"  overflow="visible"/>
		</clipPath>
		<rect x="77.169" y="13.374" clip-path="url(#SVGID_4_)" fill="#800000018000000180000001" width="45.66" height="36.338"/>
	</g>
	<g>
		<defs>
			<path id="SVGID_5_" d="M51.694,57.501c0,2.541,2.239,3.504,3.931,3.479c1.612-0.025,2.939-1.113,3.073-2.133
				c0.136-1.053-0.605-1.057-0.784-1.039c-0.454,0.047-0.866,0.627-0.575,1.387c0.182,0.479-0.299,1.404-1.77,1.373
				c-1.153-0.023-2.514-0.738-2.514-3.066c0-2.318,2.475-6.572,8.665-6.572c2.351,0,4.842,1.191,4.842,4.047
				c0,1.875-1.722,4.02-4.253,4.074c0,0,0.688-3.307,2.323-5.346c0.141-0.168-0.042-0.322-0.284-0.168
				c-5.222,3.309-4.579,13.199-10.514,13.328c-0.615,0.014-2.796-0.188-2.751-1.82c0,0-0.026-0.447,0.433-0.729
				c0.255-0.154,0.456-0.469,0.456-0.781c0-0.5-0.334-0.891-0.954-0.875c-0.505,0.014-0.797,0.389-0.916,0.912
				c-0.148,0.645-0.197,3.648,3.774,3.68c2.967,0.029,7.281-2.379,8.354-7.76c0,0,6.158-0.545,6.158-4.516
				c0-2.182-2.494-4.262-6.583-4.402c-0.118-0.004-0.238-0.008-0.361-0.008C57.655,50.565,51.694,52.503,51.694,57.501"/>
		</defs>
		<use xlink:href="#SVGID_5_"  overflow="visible" fill="#800000018000000180000001"/>
		<clipPath id="SVGID_6_">
			<use xlink:href="#SVGID_5_"  overflow="visible"/>
		</clipPath>
		<rect x="49.903" y="50.565" clip-path="url(#SVGID_6_)" fill="#800000018000000180000001" width="18.484" height="16.715"/>
	</g>
	<g>
		<defs>
			<path id="SVGID_7_" d="M77.574,60.89c0.133-0.857,0.931-1.965,1.434-2.576c0.426-0.506,1.118-1.162,1.729-1.162
				c0.055,0,0.109,0,0.078,0.053c-0.53,1.146-0.741,1.625-1.167,2.529c-0.421,0.826-1.168,1.785-1.696,1.785
				C77.683,61.519,77.491,61.333,77.574,60.89 M91.537,62.161c-0.565-0.266-0.13-1.699,0.507-2.895
				c0.646-1.201,1.417-2.336,2.024-2.094c0.542,0.186,0.002,1.738-0.635,2.949c-0.57,1.064-1.163,2.088-1.701,2.088
				C91.666,62.21,91.6,62.192,91.537,62.161 M68.079,60.933c0.128-0.854,0.912-2.057,1.421-2.672
				c0.421-0.502,1.104-1.137,1.715-1.137c0.052,0,0.103,0,0.076,0.055c-0.524,1.146-0.67,1.508-1.095,2.412
				c-0.483,0.979-1.209,1.975-1.741,1.975C68.207,61.565,67.996,61.382,68.079,60.933 M110.149,54.626l-1.028,2.297h-0.631
				l-0.183,0.432l0.602-0.002c-0.366,0.877-0.764,1.91-1.337,2.68c-0.686,0.912-1.563,1.627-1.821,1.51
				c-0.183-0.094-0.135-0.293-0.033-0.564c0.4-0.881,0.887-1.91,1.284-2.816c0.163-0.348,0.295-0.746,0.075-1.121
				c-0.182-0.318-0.581-0.344-0.901-0.289c-0.693,0.109-1.289,0.57-1.842,1.053l0.358-0.879h-1.445
				c-0.411,0.879-0.698,1.521-1.074,2.373c-0.366,0.723-1.347,1.865-2.027,2.236c-0.104,0.053-0.271,0.084-0.346-0.053
				c-0.078-0.17-0.015-0.373,0.111-0.637c0.488-1.021,1.14-2.535,1.709-3.918h-1.408c-0.442,1.037-0.857,1.813-1.302,2.797
				c-0.395,0.799-1.187,1.77-1.667,1.846c-0.166,0.027-0.296-0.002-0.319-0.141c-0.023-0.137,0.021-0.311,0.135-0.551l1.729-3.953
				h-1.387c-0.059,0.16-0.145,0.34-0.252,0.551c-0.334,0.615-1.081,1.283-1.667,0.855c-0.009-0.207-0.021-0.336-0.075-0.549
				c-0.102-0.395-0.401-0.811-0.799-0.936c-1.127-0.379-2.3,0.258-3.042,1.09c-0.694,0.717-1.177,1.543-1.317,2.584
				c-0.377,0.531-0.694,0.811-1.049,1.037c-0.127,0.076-0.267,0.096-0.375-0.014c-0.055-0.051-0.064-0.182,0.014-0.354
				c0.41-0.896,1.103-2.467,1.477-3.342c0.296-0.643-0.079-1.309-1.045-1.068c-0.664,0.156-1.171,0.533-1.594,0.881
				c0.019-0.518-0.154-0.824-0.557-0.908c-0.718-0.16-1.712,0.572-2.088,0.92l0.336-0.748h-1.397
				c-0.349,0.801-0.805,1.83-1.154,2.576c-0.373,0.809-1.239,1.711-1.765,1.936c-0.217,0.117-0.397,0.09-0.482,0.035
				c-0.079-0.053-0.12-0.176-0.011-0.414c0.642-1.412,1.111-2.479,1.777-3.969c-0.956-0.617-2.232-0.361-3.223,0.131
				c-0.48,0.242-0.876,0.504-1.223,0.83c-0.186,0.158-0.363,0.291-0.565,0.396c-0.164,0.092-0.39,0.068-0.425-0.055
				c-0.025-0.119-0.025-0.234,0.106-0.514c0.136-0.291,0.395-0.541,0.397-0.85c-0.003-0.34-0.408-0.365-0.664-0.246
				c-0.485,0.234-0.812,0.477-1.411,1.043l0.415-0.902h-1.354l-0.976,2.189c-0.54,1.037-1.225,2.002-2.001,2.371
				c-0.127,0.055-0.254,0.086-0.346,0.018c-0.137-0.08-0.082-0.313-0.033-0.455c0.616-1.404,1.124-2.547,1.786-4.035
				c-0.955-0.506-2.318-0.35-3.195,0.156c-1.384,0.773-2.419,1.961-2.975,3.4c-0.254,0.66-0.361,2.213,0.99,1.99
				c0.772-0.158,1.308-0.633,1.89-1.221c-0.031,0.236-0.064,0.498,0.008,0.742c0.08,0.273,0.279,0.461,0.486,0.492
				c0.722,0.139,1.748-0.719,2.442-1.389l-0.498,1.164h1.434l1.185-2.695c0.21-0.457,0.375-0.824,0.801-1.174
				c0.08-0.043,0.14-0.053,0.132-0.031c0.015,0.189,0.026,0.699,0.61,0.83c0.212,0.047,0.517-0.047,0.762-0.178
				c-0.306,0.408-0.615,1.033-0.759,1.383c-0.297,0.775-0.261,1.293-0.096,1.613c0.18,0.348,0.659,0.58,1.111,0.477
				c0.772-0.184,1.269-0.658,1.885-1.24c0.028-0.031,0.079-0.09,0.079-0.09c-0.086,0.268-0.136,0.656-0.078,0.879
				c0.083,0.254,0.271,0.422,0.511,0.447c0.722,0.143,1.795-0.715,2.503-1.373l0.086-0.074c-0.159,0.318-0.427,0.91-0.563,1.227
				h1.414l1.068-2.354c0.176-0.432,0.394-0.83,0.636-1.234c0.236-0.396,0.563-0.77,0.911-1.006c0.202-0.113,0.376-0.191,0.515-0.135
				c0.13,0.064,0.105,0.24,0.045,0.375c-0.637,1.443-1.283,2.893-1.927,4.354h1.446c0.424-1.039,0.819-1.816,1.278-2.889
				c0.102-0.264,0.302-0.639,0.466-0.871c0.383-0.551,0.827-0.887,1.075-0.975c0.236-0.08,0.454,0.057,0.342,0.305
				c-0.507,1.195-0.985,2.158-1.365,3.037c-0.154,0.354-0.349,0.896-0.144,1.303c0.078,0.15,0.253,0.281,0.416,0.311
				c1.067,0.15,1.896-0.736,2.563-1.463c0.018,0.51,0.218,0.943,0.518,1.188c0.532,0.436,1.427,0.361,2.096,0.045
				c1.356-0.646,2.205-2.059,2.526-3.551c0,0,0.031,0.027,0.063,0.027c0.236,0.078,0.665,0.102,1.059-0.082
				c-0.448,1.063-0.863,1.988-0.997,2.301c-0.507,1.17,0.211,1.732,1.018,1.494c0.714-0.242,1.27-0.756,1.8-1.295
				c-0.097,0.355-0.125,0.787,0.024,1.029c0.151,0.273,0.501,0.365,0.797,0.297c0.732-0.168,1.522-0.867,2.102-1.453
				c-0.18,0.43-0.422,0.949-0.54,1.242h1.41c0.279-0.541,0.599-1.188,0.896-1.854c0.428-0.99,0.948-1.963,1.926-2.725
				c0.247-0.191,0.521-0.248,0.597-0.168c0.062,0.023,0.098,0.162,0.042,0.275c-0.485,1.145-1.013,2.275-1.519,3.371
				c-0.109,0.262-0.176,0.609-0.102,0.861c0.112,0.373,0.551,0.523,0.901,0.471c0.802-0.162,1.201-0.539,1.72-0.988
				c0.307-0.264,0.784-0.895,0.784-0.895c-0.062,0.156-0.087,0.236-0.131,0.355c0,0-0.409,0.998,0.263,1.416
				c0.563,0.348,1.895-0.121,3.47-2.279l-0.466,0.006c-0.983,1.143-1.716,1.609-1.861,1.465c-0.165-0.158-0.135-0.404,0.201-1.115
				l1.421-3.191h1.114l0.205-0.43h-1.135l1.061-2.297H110.149z"/>
		</defs>
		<use xlink:href="#SVGID_7_"  overflow="visible" fill="#800000018000000180000001"/>
		<clipPath id="SVGID_8_">
			<use xlink:href="#SVGID_7_"  overflow="visible"/>
		</clipPath>
		<rect x="66.292" y="54.626" clip-path="url(#SVGID_8_)" fill="#800000018000000180000001" width="45.358" height="8.189"/>
	</g>
	<g>
		<defs>
			<path id="SVGID_9_" d="M127.268,53.888c-5.223,3.311-4.58,13.201-10.515,13.332c-0.615,0.012-2.798-0.189-2.752-1.82
				c0,0-0.025-0.451,0.433-0.732c0.254-0.152,0.456-0.469,0.456-0.779c0-0.498-0.335-0.891-0.953-0.875
				c-0.507,0.014-0.798,0.389-0.917,0.91c-0.148,0.646-0.198,3.648,3.774,3.682c2.951,0.027,7.229-2.355,8.333-7.674
				c0.029-0.152,0.075-0.396,0.101-0.527c0,0,0.168-0.805,0.534-1.863l0.002-0.006l0,0c0.376-1.09,0.959-2.445,1.789-3.479
				c0.1-0.119,0.036-0.229-0.096-0.229C127.402,53.827,127.337,53.845,127.268,53.888"/>
		</defs>
		<use xlink:href="#SVGID_9_"  overflow="visible" fill="#800000018000000180000001"/>
		<clipPath id="SVGID_10_">
			<use xlink:href="#SVGID_9_"  overflow="visible"/>
		</clipPath>
		<rect x="112.821" y="53.827" clip-path="url(#SVGID_10_)" fill="#800000018000000180000001" width="14.831" height="13.805"/>
	</g>
	<g>
		<defs>
			<path id="SVGID_11_" d="M121.702,55.991c0,0.313,0.202,0.627,0.457,0.783c0.457,0.281,0.433,0.729,0.433,0.729
				c0.01,0.352-0.088,0.635-0.247,0.863c0.008-0.004,0.014-0.01,0.02-0.012c0.088-0.055,0.174-0.102,0.261-0.137
				c0.086-0.037,0.16-0.045,0.224-0.029c0.054,0.021,0.084,0.051,0.089,0.09c0.005,0.043-0.002,0.086-0.02,0.139
				c-0.02,0.047-0.047,0.094-0.083,0.133c-0.036,0.043-0.067,0.076-0.094,0.102c-0.191,0.209-0.406,0.393-0.651,0.555
				c1.648-0.889,1.595-2.693,1.481-3.178c-0.118-0.523-0.409-0.898-0.914-0.912c-0.012,0-0.023,0-0.034,0
				C122.024,55.116,121.702,55.501,121.702,55.991"/>
		</defs>
		<use xlink:href="#SVGID_11_"  overflow="visible" fill="#800000018000000180000001"/>
		<clipPath id="SVGID_12_">
			<use xlink:href="#SVGID_11_"  overflow="visible"/>
		</clipPath>
		<rect x="121.702" y="55.116" clip-path="url(#SVGID_12_)" fill="#800000018000000180000001" width="2.036" height="4.09"/>
	</g>
	<g>
		<defs>
			<path id="SVGID_13_" d="M125.015,51.097c-0.319,0.008-0.637,0.043-0.954,0.102c-0.316,0.061-0.621,0.135-0.912,0.227
				c-0.499,0.152-0.987,0.35-1.464,0.592c-0.476,0.238-0.931,0.518-1.362,0.838c-0.429,0.316-0.827,0.672-1.189,1.061
				c-0.363,0.391-0.681,0.813-0.953,1.266c-0.164,0.283-0.307,0.586-0.429,0.914c-0.122,0.326-0.208,0.658-0.252,1
				c-0.046,0.342-0.044,0.676,0.006,1.008c0.033,0.219,0.109,0.428,0.204,0.633c0.048,0.107,0.094,0.213,0.157,0.314
				c0.136,0.213,0.321,0.369,0.53,0.502c0.074,0.045,0.138,0.1,0.22,0.133c0.316,0.139,0.652,0.217,1.007,0.234
				c0.271,0.02,0.554,0,0.843-0.055c0.292-0.057,0.572-0.137,0.845-0.248s0.531-0.246,0.776-0.406c0.001,0,0.002-0.002,0.003-0.004
				c0.245-0.162,0.46-0.346,0.651-0.555c0.026-0.025,0.058-0.059,0.094-0.102c0.036-0.039,0.063-0.086,0.083-0.133
				c0.018-0.053,0.024-0.096,0.02-0.139c-0.005-0.039-0.035-0.068-0.089-0.09c-0.063-0.016-0.138-0.008-0.224,0.029
				c-0.087,0.035-0.173,0.082-0.261,0.137c-0.006,0.002-0.012,0.008-0.02,0.012c-0.078,0.051-0.156,0.1-0.229,0.152
				c-0.083,0.053-0.15,0.096-0.205,0.121c-0.191,0.1-0.394,0.168-0.606,0.205c-0.214,0.035-0.425,0.055-0.632,0.055
				c-0.164,0-0.337-0.023-0.518-0.068c-0.183-0.045-0.34-0.113-0.476-0.205c-0.22-0.143-0.381-0.32-0.484-0.531
				c-0.104-0.209-0.171-0.434-0.197-0.674c-0.028-0.24-0.026-0.486,0.007-0.734c0.031-0.25,0.074-0.482,0.129-0.703
				c0.117-0.451,0.295-0.883,0.532-1.285c0.234-0.404,0.516-0.771,0.843-1.104c0.325-0.33,0.692-0.617,1.095-0.857
				c0.405-0.24,0.834-0.428,1.288-0.566c0.264-0.08,0.524-0.129,0.79-0.148c0.263-0.016,0.53-0.016,0.803,0
				c0.199,0.02,0.399,0.031,0.599,0.039c0.199,0.01,0.395,0.039,0.586,0.082c0.435,0.102,0.872,0.197,1.309,0.293
				c0.435,0.096,0.871,0.193,1.308,0.293c0.253,0.064,0.509,0.117,0.77,0.156c0.258,0.041,0.519,0.072,0.782,0.09
				c0.627,0.027,1.249-0.016,1.864-0.129c0.618-0.113,1.18-0.369,1.688-0.771c0.063-0.053,0.107-0.121,0.13-0.203
				c0.021-0.078,0.012-0.152-0.034-0.217c-0.018-0.027-0.054-0.039-0.107-0.035c-0.056,0.006-0.114,0.018-0.178,0.041
				s-0.124,0.049-0.178,0.074c-0.054,0.027-0.096,0.045-0.122,0.059c-0.236,0.07-0.469,0.119-0.695,0.146
				c-0.236,0.025-0.471,0.033-0.708,0.02c-0.235-0.014-0.473-0.037-0.708-0.074c-0.317-0.045-0.636-0.092-0.952-0.143
				c-0.318-0.051-0.637-0.123-0.953-0.225c-0.618-0.199-1.259-0.324-1.921-0.375c-0.484-0.037-0.961-0.055-1.43-0.055
				C125.359,51.089,125.186,51.091,125.015,51.097"/>
		</defs>
		<use xlink:href="#SVGID_13_"  overflow="visible" fill="#800000018000000180000001"/>
		<clipPath id="SVGID_14_">
			<use xlink:href="#SVGID_13_"  overflow="visible"/>
		</clipPath>
		<rect x="117.453" y="51.089" clip-path="url(#SVGID_14_)" fill="#800000018000000180000001" width="16.087" height="8.85"/>
	</g>
	<g>
		<defs>
			<path id="SVGID_15_" d="M141.881,60.114c0.035-0.629,0.409-2.084,1.23-2.715c0.301-0.236,0.797-0.211,0.722,0.451
				c-0.086,0.752-0.66,1.662-1.96,2.307C141.888,60.149,141.881,60.128,141.881,60.114 M140.539,60.413
				c-0.065,1.443,0.556,2.094,1.468,2.227c0.32,0.047,0.686,0.014,1.069-0.1c-0.007-0.006-0.015-0.01-0.02-0.02
				c-0.047-0.109-0.03-0.203,0.048-0.281s0.16-0.141,0.245-0.188c0.103-0.063,0.205-0.121,0.312-0.182
				c0.104-0.059,0.208-0.125,0.31-0.203c0.056-0.045,0.099-0.102,0.152-0.148c-0.496,0.387-0.982,0.588-1.419,0.525
				c-0.684-0.1-0.884-0.719-0.844-1.496c1.422-0.363,3.181-1.275,3.282-2.582c0.046-0.621-0.449-1.18-1.216-1.18
				C142.469,56.786,140.625,58.405,140.539,60.413"/>
		</defs>
		<use xlink:href="#SVGID_15_"  overflow="visible" fill="#800000018000000180000001"/>
		<clipPath id="SVGID_16_">
			<use xlink:href="#SVGID_15_"  overflow="visible"/>
		</clipPath>
		<rect x="140.474" y="56.786" clip-path="url(#SVGID_16_)" fill="#800000018000000180000001" width="4.715" height="5.9"/>
	</g>
	<g>
		<defs>
			<path id="SVGID_17_" d="M127.896,62.231c-0.565-0.266-0.129-1.697,0.508-2.895c0.644-1.201,1.415-2.334,2.023-2.092
				c0.542,0.182,0.002,1.738-0.634,2.945c-0.571,1.068-1.165,2.088-1.701,2.088C128.026,62.28,127.961,62.265,127.896,62.231
				 M136.678,56.78c-0.444,1.037-0.961,2.029-1.405,3.012c-0.396,0.803-1.188,1.773-1.669,1.848
				c-0.166,0.029-0.295-0.002-0.318-0.139c-0.024-0.137,0.02-0.311,0.136-0.555l1.836-4.141h-1.407
				c-0.059,0.16-0.231,0.531-0.34,0.74c-0.333,0.615-1.08,1.285-1.666,0.857c-0.009-0.209-0.022-0.338-0.076-0.549
				c-0.1-0.395-0.4-0.813-0.798-0.938c-1.126-0.377-2.301,0.26-3.042,1.09c-0.695,0.717-1.177,1.545-1.318,2.586
				c0,0-0.044,0.738,0.211,1.262c0.005,0.01,0.01,0.02,0.014,0.029c0.007,0.01,0.011,0.025,0.017,0.037
				c0.011,0.018,0.021,0.031,0.031,0.045c0.083,0.158,0.185,0.297,0.308,0.396c0.532,0.436,1.427,0.363,2.097,0.047
				c1.355-0.646,2.206-2.061,2.525-3.555c0,0,0.032,0.029,0.063,0.029c0.236,0.08,0.666,0.104,1.058-0.08
				c-0.447,1.063-0.863,1.986-0.995,2.299c-0.508,1.172,0.209,1.734,1.017,1.494c0.715-0.242,1.27-0.754,1.801-1.293
				c-0.096,0.354-0.127,0.785,0.023,1.029c0.151,0.271,0.5,0.363,0.798,0.297c0.731-0.168,1.521-0.867,2.104-1.455
				c-0.169,0.402,0.818-1.744,0.818-1.744c-0.39,0.727-1.331,1.813-1.991,2.174c-0.104,0.053-0.271,0.086-0.347-0.051
				c-0.077-0.17-0.014-0.373,0.111-0.639c0.487-1.021,1.302-2.754,1.872-4.135H136.678z"/>
		</defs>
		<use xlink:href="#SVGID_17_"  overflow="visible" fill="#800000018000000180000001"/>
		<clipPath id="SVGID_18_">
			<use xlink:href="#SVGID_17_"  overflow="visible"/>
		</clipPath>
		<rect x="126.565" y="56.54" clip-path="url(#SVGID_18_)" fill="#800000018000000180000001" width="11.933" height="6.297"/>
	</g>
	<g>
		<defs>
			<path id="SVGID_19_" d="M139.55,56.78c-0.442,1.037-0.946,2.047-1.39,3.029c-0.395,0.801-1.188,1.771-1.669,1.848
				c-0.166,0.027-0.295-0.004-0.319-0.141c-0.022-0.137,0.021-0.311,0.136-0.555l1.729-3.949h-1.386
				c-0.024,0.068-0.058,0.145-0.094,0.221l0,0l-0.013,0.031c-0.001,0.002-0.003,0.006-0.005,0.008l-0.858,1.879
				c-0.143,0.33-0.276,0.641-0.396,0.918l-0.479,1.111c-0.455,1.129,0.245,1.668,1.036,1.432c0.715-0.24,1.271-0.754,1.801-1.293
				c-0.096,0.355-0.127,0.785,0.023,1.029c0.152,0.271,0.502,0.365,0.798,0.299c0.731-0.17,1.523-0.869,2.104-1.457l0.819-1.742
				c-0.39,0.725-1.332,1.813-1.991,2.174c-0.104,0.053-0.271,0.084-0.348-0.053c-0.076-0.17-0.014-0.373,0.112-0.639
				c0.488-1.021,1.24-2.77,1.813-4.15H139.55z"/>
		</defs>
		<use xlink:href="#SVGID_19_"  overflow="visible" fill="#800000018000000180000001"/>
		<clipPath id="SVGID_20_">
			<use xlink:href="#SVGID_19_"  overflow="visible"/>
		</clipPath>
		<rect x="134.35" y="56.78" clip-path="url(#SVGID_20_)" fill="#800000018000000180000001" width="7.036" height="6.068"/>
	</g>
	<g>
		<defs>
			<path id="SVGID_21_" d="M149.282,56.862c-0.485,0.234-0.812,0.477-1.412,1.041l0.415-0.898h-1.354l-0.975,2.188
				c-0.538,1.037-1.31,2.023-2.098,2.514c-0.128,0.057-1.574,0.916-1.368,0.945c1.564-0.227,1.825-0.719,2.52-1.387l-0.534,1.402
				h1.396l1.258-2.936c0.21-0.457,0.375-0.824,0.8-1.174c0.08-0.043,0.14-0.053,0.132-0.031c0.014,0.189,0.026,0.701,0.61,0.832
				c0.213,0.045,0.519-0.049,0.762-0.18c-0.084,0.113,0.094-0.1,0.255-0.313c0.144-0.193,0.273-0.391,0.178-0.34
				c-0.164,0.094-0.389,0.07-0.425-0.057c-0.024-0.115-0.024-0.232,0.107-0.512c0.136-0.291,0.395-0.543,0.397-0.85
				c-0.003-0.223-0.178-0.311-0.371-0.311C149.474,56.798,149.369,56.821,149.282,56.862"/>
		</defs>
		<use xlink:href="#SVGID_21_"  overflow="visible" fill="#800000018000000180000001"/>
		<clipPath id="SVGID_22_">
			<use xlink:href="#SVGID_21_"  overflow="visible"/>
		</clipPath>
		<rect x="142.284" y="56.798" clip-path="url(#SVGID_22_)" fill="#800000018000000180000001" width="7.678" height="5.869"/>
	</g>
</g>
</svg>
