<?xml version="1.0" encoding="utf-8"?>
<!-- Generator: Adobe Illustrator 26.0.1, SVG Export Plug-In . SVG Version: 6.00 Build 0)  -->
<!DOCTYPE svg PUBLIC "-//W3C//DTD SVG 1.1//EN" "http://www.w3.org/Graphics/SVG/1.1/DTD/svg11.dtd" [
	<!ENTITY ns_extend "http://ns.adobe.com/Extensibility/1.0/">
	<!ENTITY ns_ai "http://ns.adobe.com/AdobeIllustrator/10.0/">
	<!ENTITY ns_graphs "http://ns.adobe.com/Graphs/1.0/">
	<!ENTITY ns_vars "http://ns.adobe.com/Variables/1.0/">
	<!ENTITY ns_imrep "http://ns.adobe.com/ImageReplacement/1.0/">
	<!ENTITY ns_sfw "http://ns.adobe.com/SaveForWeb/1.0/">
	<!ENTITY ns_custom "http://ns.adobe.com/GenericCustomNamespace/1.0/">
	<!ENTITY ns_adobe_xpath "http://ns.adobe.com/XPath/1.0/">
]>
<svg version="1.1" id="Layer_1" xmlns:x="&ns_extend;" xmlns:i="&ns_ai;" xmlns:graph="&ns_graphs;"
	 xmlns="http://www.w3.org/2000/svg" xmlns:xlink="http://www.w3.org/1999/xlink" x="0px" y="0px" viewBox="0 0 200 44.5"
	 style="enable-background:new 0 0 200 44.5;" xml:space="preserve">
<style type="text/css">
	.st0{fill:#808184;}
	.st1{clip-path:url(#SVGID_00000164477029323245033480000017401458932181441930_);}
	.st2{fill:#AC9C63;}
	.st3{fill:#038295;}
	
		.st4{clip-path:url(#SVGID_00000165918226197672359630000009615622249005936299_);fill:url(#SVGID_00000163074461711622744940000013206972366718860731_);}
	
		.st5{clip-path:url(#SVGID_00000166666318017661132710000016744345444824033186_);fill:url(#SVGID_00000023269059829659321020000015220007491923494805_);}
	
		.st6{clip-path:url(#SVGID_00000151516281531450800040000006109483113160663946_);fill:url(#SVGID_00000164509653502779099970000017493302416406708869_);}
	.st7{fill:url(#SVGID_00000010296935174634409830000007939860702177522594_);}
	.st8{fill:url(#SVGID_00000083792769436638553030000016706733349886478755_);}
	.st9{fill:url(#SVGID_00000080886267100512360370000006962123758494445204_);}
	.st10{fill:url(#SVGID_00000070114878705311312700000010164149164028767374_);}
	.st11{fill:url(#SVGID_00000127010781978215672290000013727078448785281205_);}
	.st12{fill:url(#SVGID_00000085232403828158590120000012738119134439565981_);}
	.st13{fill:url(#SVGID_00000142168437918670633130000005716259584419936681_);}
	.st14{fill:url(#SVGID_00000062900126506162025500000008809648849619140002_);}
	.st15{fill:url(#SVGID_00000093178054416032512360000013904153454300516031_);}
	.st16{fill:url(#SVGID_00000068655323025212745090000015832319090571121312_);}
	.st17{fill:url(#SVGID_00000075862141102029574330000000706954680155957641_);}
	.st18{fill:url(#SVGID_00000026150533353153890690000006736384793014399677_);}
	.st19{fill:url(#SVGID_00000028309124621520740420000018231737487591222950_);}
	.st20{fill:url(#SVGID_00000173132867039170161490000001285127555216893365_);}
	.st21{fill:url(#SVGID_00000042722915187951426410000015655883583497857947_);}
	.st22{fill:url(#SVGID_00000045600079973283672320000008194767988812940969_);}
	.st23{fill:url(#SVGID_00000045595350960645658220000017742241723204260004_);}
	.st24{fill:url(#SVGID_00000164495915929829478780000006797940284892950684_);}
	.st25{fill:url(#SVGID_00000121982439171164872020000003409127766856639138_);}
	.st26{fill:url(#SVGID_00000031899272880525623480000005339297880998131330_);}
	.st27{fill:url(#SVGID_00000145764100372421183220000000570443156126083712_);}
	.st28{fill:url(#SVGID_00000141436053239386651800000008287261704191617727_);}
	.st29{fill:url(#SVGID_00000132060681193433348350000018110720439993222794_);}
	.st30{fill:url(#SVGID_00000131366017628679670480000016338321219857784503_);}
	.st31{fill:url(#SVGID_00000140731141814500607120000011351274357492671883_);}
	.st32{fill:url(#SVGID_00000004526242152222370220000012850121307346138256_);}
	.st33{fill:url(#SVGID_00000044171483044157161360000007402066082442212500_);}
	.st34{fill:url(#SVGID_00000143615157705075537050000016248421187316039075_);}
	.st35{fill:url(#SVGID_00000168810369414505035420000017880093623463625641_);}
	.st36{fill:url(#SVGID_00000099650021957231070270000018069391232247289276_);}
	.st37{fill:url(#SVGID_00000039121356766706207050000007966321529860579478_);}
	.st38{fill:url(#SVGID_00000109722392029026845160000017967352292966710665_);}
	.st39{fill:url(#SVGID_00000009565380376245104880000015612799025022444209_);}
	.st40{fill:url(#SVGID_00000011020481245086728290000018359109186271654052_);}
	.st41{fill:url(#SVGID_00000130616361660595980810000009675105370315058064_);}
	.st42{fill:url(#SVGID_00000122708371250710910470000006883646400034713786_);}
	.st43{fill:url(#SVGID_00000160159488342143479650000003710403978515628454_);}
	.st44{fill:url(#SVGID_00000145034497741639419870000015806054663140988091_);}
	.st45{fill:url(#SVGID_00000031197770660594226730000014356770432940601769_);}
	.st46{fill:url(#SVGID_00000042719772056277889580000012663870376683236510_);}
	.st47{fill:url(#SVGID_00000109030296357361693770000003849237183323467142_);}
	.st48{fill:url(#SVGID_00000062162608978987719010000014907499489256224654_);}
	.st49{fill:url(#SVGID_00000044175444158669426930000016630591052698408592_);}
	.st50{fill:url(#SVGID_00000094588299547740882940000014443779974578549903_);}
	.st51{fill:url(#SVGID_00000005250550701839237900000009743002489990497448_);}
	.st52{fill:url(#SVGID_00000146492715210067808740000011621625314825514403_);}
	.st53{fill:url(#SVGID_00000181771281128176528970000015565488358840881336_);}
	.st54{fill:#6AC1D5;}
	.st55{fill:#73BAB2;}
	.st56{fill:url(#SVGID_00000176724673407604337780000014041347240789400707_);}
	.st57{fill:url(#SVGID_00000161623330221602600770000004854992318567504800_);}
	.st58{fill:url(#SVGID_00000075870440527399942130000011191111150864854463_);}
	.st59{fill:url(#SVGID_00000090990978534434801540000013419643058398406583_);}
	.st60{fill:url(#SVGID_00000106840853605003198710000016260005191428779159_);}
	.st61{fill:url(#SVGID_00000093135753682165128920000000088822511585743500_);}
	.st62{fill:url(#SVGID_00000116922223876064386030000004911315168189650099_);}
	.st63{fill:url(#SVGID_00000138574833108213753280000001879237156960535695_);}
	.st64{fill:url(#SVGID_00000041985071284546799060000007880113203584995457_);}
	.st65{fill:url(#SVGID_00000072963241023111110940000012669973185874825640_);}
	.st66{fill:url(#SVGID_00000176032921226909748080000007589232151996227513_);}
	.st67{fill:url(#SVGID_00000114072247193586459390000001054428562454822297_);}
	.st68{fill:url(#SVGID_00000093859663602695589790000000655128231914132136_);}
	.st69{fill:url(#SVGID_00000072271641225490616600000003348977797904594595_);}
	.st70{fill:url(#SVGID_00000018933589123884707550000010351299394653475474_);}
	.st71{fill:url(#SVGID_00000150800162780799027930000009720737094412593536_);}
	.st72{fill:url(#SVGID_00000039099641318077764240000013761524345601991043_);}
	.st73{fill:url(#SVGID_00000148635096081619215400000008132383260028151426_);}
	.st74{fill:url(#SVGID_00000093136113924449762470000011254571660697797565_);}
	.st75{fill:url(#SVGID_00000000932550998818339010000003773588024258725777_);}
	.st76{fill:url(#SVGID_00000121261631011592199260000013745270116537055419_);}
	.st77{fill:url(#SVGID_00000069397323543684313740000004089451913085919916_);}
	.st78{fill:url(#SVGID_00000059995865480089006400000010308853210932462243_);}
	.st79{fill:url(#SVGID_00000147904621196712041430000017644350864740707770_);}
	.st80{fill:url(#SVGID_00000114066198898138100390000011972005488033133699_);}
	.st81{fill:url(#SVGID_00000136390097925442429260000010454047211996065429_);}
	.st82{fill:url(#SVGID_00000106835656441080773950000007708601592191031486_);}
	.st83{fill:url(#SVGID_00000143609975985827649330000000297775724232405394_);}
	.st84{fill:url(#SVGID_00000135680614496733646260000008329070947943120257_);}
	.st85{fill:url(#SVGID_00000064341693441198546140000016360346330816032133_);}
	.st86{fill:url(#SVGID_00000017487987349114809790000008147839119739078824_);}
	.st87{fill:url(#SVGID_00000174597280654339259920000012362976141134481059_);}
	.st88{fill:url(#SVGID_00000139982844021365260870000001480255929497748899_);}
	.st89{fill:url(#SVGID_00000075876376909585836250000012793967474892403609_);}
	.st90{fill:#004F54;}
	.st91{fill-rule:evenodd;clip-rule:evenodd;fill:#065055;}
	.st92{fill:#7A9699;}
	.st93{fill:#87A4AB;}
	
		.st94{clip-path:url(#SVGID_00000009565124255824857060000007933280044657672358_);fill:url(#SVGID_00000069384165184081545700000017590347568815646635_);}
	
		.st95{clip-path:url(#SVGID_00000041999977587853239980000005416637119521467041_);fill:url(#SVGID_00000018921487553426670120000017066339215134446737_);}
	
		.st96{clip-path:url(#SVGID_00000093164886334795927150000012777290478375067562_);fill:url(#SVGID_00000096757694956608074890000013565868025227585458_);}
	
		.st97{clip-path:url(#SVGID_00000011013917696368321260000000237660348692374707_);fill:url(#SVGID_00000169557650706327883360000007616730353691140508_);}
	
		.st98{clip-path:url(#SVGID_00000115488697817301161160000016225749050943519671_);fill:url(#SVGID_00000098902978351195395540000006535791530665992604_);}
	
		.st99{clip-path:url(#SVGID_00000119077575402556509620000004187090750714518957_);fill:url(#SVGID_00000129186962408270274060000003173499173072014745_);}
	
		.st100{clip-path:url(#SVGID_00000001665173635206931840000007645151666672249486_);fill:url(#SVGID_00000070099540829854564430000017677089715012571801_);}
	
		.st101{clip-path:url(#SVGID_00000038395018708616703610000001431763130654571172_);fill:url(#SVGID_00000048476574231429693490000004833772680874263485_);}
	
		.st102{clip-path:url(#SVGID_00000004525092758635164610000003124798688793750182_);fill:url(#SVGID_00000180327152728635432410000000742800379846332341_);}
	
		.st103{clip-path:url(#SVGID_00000068649371438369998120000012769074471277760669_);fill:url(#SVGID_00000168814633893131478620000006364808430788328078_);}
	
		.st104{clip-path:url(#SVGID_00000168102240544480662110000007367155872900983964_);fill:url(#SVGID_00000070820694073315696920000004260609368844782993_);}
	
		.st105{clip-path:url(#SVGID_00000163763805097030863030000006979031655387792014_);fill:url(#SVGID_00000007397411915323297310000015386953775664192908_);}
	
		.st106{clip-path:url(#SVGID_00000106139166173122530050000001764299087278523791_);fill:url(#SVGID_00000168105634214850820880000004026948779752046237_);}
	
		.st107{clip-path:url(#SVGID_00000145779643558492914920000016069069357040210586_);fill:url(#SVGID_00000123404124693716406820000012141557686855895447_);}
	
		.st108{clip-path:url(#SVGID_00000157276867025924565510000013223233497679831955_);fill:url(#SVGID_00000142139743678973405390000003680972111437822593_);}
	
		.st109{clip-path:url(#SVGID_00000003075978594517547570000005443362059973467799_);fill:url(#SVGID_00000090292186232305445170000006168880803889728654_);}
	
		.st110{clip-path:url(#SVGID_00000026859421549264820640000003151255232726920092_);fill:url(#SVGID_00000085936631756928853850000000218752154490193793_);}
	
		.st111{clip-path:url(#SVGID_00000082344328988483117330000002755913154280798609_);fill:url(#SVGID_00000049195642529279005490000007923784074594149055_);}
	
		.st112{clip-path:url(#SVGID_00000021080394670188572850000005461536626642447011_);fill:url(#SVGID_00000031174647411736945870000015497781840144741794_);}
	
		.st113{clip-path:url(#SVGID_00000071529760813283561590000005619134957796511408_);fill:url(#SVGID_00000072252551086136579810000002127124713488906656_);}
	
		.st114{clip-path:url(#SVGID_00000151505822770311667600000015342243349535346600_);fill:url(#SVGID_00000015335107839064383310000004628982563144548249_);}
	
		.st115{clip-path:url(#SVGID_00000000198512890435540730000003884511855059016366_);fill:url(#SVGID_00000005225217683020639550000017931395845818783378_);}
	
		.st116{clip-path:url(#SVGID_00000139274258356781029160000004321788382366736041_);fill:url(#SVGID_00000111172447051726929570000015794034111511401871_);}
	
		.st117{clip-path:url(#SVGID_00000127014368425377502240000015169233165698232714_);fill:url(#SVGID_00000145045298644071956940000001064745377434515086_);}
	
		.st118{clip-path:url(#SVGID_00000090266852147776530040000014930929844128544652_);fill:url(#SVGID_00000135650956953997837480000002547353726142273466_);}
	
		.st119{clip-path:url(#SVGID_00000002384471032244005020000012030875014925082760_);fill:url(#SVGID_00000147199249184775962650000002348298751737676194_);}
	
		.st120{clip-path:url(#SVGID_00000150792220085461561270000017108535994079033236_);fill:url(#SVGID_00000162316217796635599520000005486443638157687731_);}
	.st121{fill:#68934B;}
	.st122{fill:#5F7360;}
	.st123{fill:#7D897A;}
	.st124{fill:#5B8172;}
	.st125{fill:#54665D;}
	.st126{clip-path:url(#SVGID_00000169536087390292195010000006830587419859837093_);fill:#54665D;}
	.st127{fill:#00495C;}
</style>
<metadata>
	<sfw  xmlns="&ns_sfw;">
		<slices></slices>
		<sliceSourceBounds  bottomLeftOrigin="true" height="1021.1" width="4161.2" x="-38.2" y="-866.2"></sliceSourceBounds>
	</sfw>
</metadata>
<g>
	<path class="st123" d="M40.6,41.5c-0.4,0.5-1.1,0.7-2,0.7h-0.9v-5.5l0.8,0c0.5,0,0.9,0.1,1.2,0.2c0.3,0.1,0.6,0.3,0.8,0.5
		c0.2,0.2,0.4,0.5,0.5,0.9c0.1,0.3,0.2,0.7,0.2,1.2C41.3,40.3,41.1,41,40.6,41.5 M41.3,37.2c-0.3-0.3-0.7-0.5-1.1-0.6
		c-0.4-0.1-1-0.2-1.5-0.2h-1.7h-0.1v0.1v6.1v0.1h0.1h1.7c0.5,0,1.1-0.1,1.5-0.2c0.4-0.1,0.8-0.4,1.1-0.6c0.3-0.3,0.5-0.6,0.7-1
		c0.2-0.4,0.2-0.8,0.2-1.3c0-0.5-0.1-0.9-0.2-1.3C41.8,37.7,41.6,37.4,41.3,37.2"/>
	<path class="st123" d="M50.2,36.4L50.2,36.4L50.2,36.4l-0.1,3.8c0,0.3-0.1,0.6-0.1,0.8c-0.1,0.2-0.2,0.5-0.4,0.6
		c-0.2,0.2-0.4,0.3-0.6,0.4c-0.2,0.1-0.5,0.1-0.8,0.1c-0.3,0-0.5,0-0.7-0.1c-0.2-0.1-0.4-0.2-0.5-0.4c-0.1-0.2-0.2-0.4-0.3-0.6
		c-0.1-0.2-0.1-0.5-0.1-0.8v-3.8v-0.1h-0.1h-0.8h-0.1v0.1v3.9c0,0.3,0.1,0.6,0.2,0.9c0.1,0.3,0.3,0.5,0.5,0.7
		c0.2,0.2,0.5,0.4,0.8,0.5c0.3,0.1,0.7,0.2,1,0.2c0.3,0,0.7-0.1,0.9-0.2c0.3-0.1,0.5-0.3,0.7-0.5c0.2-0.2,0.4-0.5,0.5-0.8
		c0.1-0.3,0.2-0.6,0.2-1v-3.8v-0.1h-0.1H50.2z"/>
	<polygon class="st123" points="65,36.4 65,36.4 64.9,36.4 64,36.4 63.9,36.4 63.9,36.4 64.3,37.2 62,42.5 62,42.6 62.1,42.6 
		62.3,42.6 62.4,42.6 62.4,42.5 63.2,40.5 65,40.5 65.1,40.5 65.1,40.4 65,40.2 65,40.2 65,40.2 63.4,40.2 64.5,37.6 66.7,42.5 
		66.7,42.6 66.7,42.6 67.6,42.6 67.7,42.6 67.6,42.5 	"/>
	<polygon class="st123" points="70.9,36.4 70.9,36.4 70.9,36.4 70.9,42.5 70.9,42.6 70.9,42.6 71.7,42.6 71.8,42.6 71.8,42.5 
		71.8,36.4 71.8,36.4 71.7,36.4 	"/>
	<polygon class="st123" points="85.4,36.4 85.3,36.4 85.3,36.4 85.3,39.2 82.9,39.2 82.8,39.2 82.8,39.3 82.8,39.5 82.8,39.5 
		82.9,39.5 85.3,39.5 85.3,42.5 85.3,42.6 85.4,42.6 86.2,42.6 86.2,42.6 86.2,42.5 86.2,36.4 86.2,36.4 86.2,36.4 	"/>
	<polygon class="st123" points="81.4,36.4 81.3,36.4 81.3,36.4 81.3,42.5 81.3,42.6 81.4,42.6 82.2,42.6 82.3,42.6 82.3,42.5 
		82.3,36.4 82.3,36.4 82.2,36.4 	"/>
	<polygon class="st123" points="90,36.4 90,36.4 90,36.4 90,42.5 90,42.6 90,42.6 90.8,42.6 90.9,42.6 90.9,42.5 90.9,36.4 
		90.9,36.4 90.8,36.4 	"/>
	<polygon class="st123" points="95.5,42.3 95.5,36.4 95.5,36.4 95.5,36.4 94.7,36.4 94.6,36.4 94.6,36.4 94.6,42.5 94.6,42.6 
		94.7,42.6 98.7,42.6 98.7,42.6 98.7,42.5 98.7,42.3 98.7,42.3 98.7,42.3 	"/>
	<polygon class="st123" points="102.8,42.3 102.8,36.4 102.8,36.4 102.8,36.4 101.9,36.4 101.9,36.4 101.9,36.4 101.9,42.5 
		101.9,42.6 101.9,42.6 105.9,42.6 106,42.6 106,42.5 106,42.3 106,42.3 105.9,42.3 	"/>
	<path class="st123" d="M113.2,39.8c-0.2-0.2-0.4-0.3-0.7-0.5c-0.3-0.1-0.6-0.3-1.1-0.4c-0.4-0.1-0.7-0.2-1-0.3
		c-0.2-0.1-0.4-0.2-0.6-0.3c-0.1-0.1-0.2-0.2-0.3-0.3c-0.1-0.1-0.1-0.2-0.1-0.3c0-0.1,0-0.3,0.1-0.4c0.1-0.2,0.2-0.3,0.3-0.4
		c0.2-0.1,0.3-0.2,0.6-0.3c0.2-0.1,0.5-0.1,0.7-0.1c0.4,0,0.7,0.1,0.9,0.3c0.2,0.2,0.5,0.4,0.8,0.8l0,0l0,0l0.5-0.3l0.1,0l0,0
		c-0.3-0.3-0.6-0.6-1-0.7c-0.4-0.2-0.8-0.2-1.3-0.2h0h0c-0.3,0-0.6,0-0.9,0.1c-0.3,0.1-0.5,0.2-0.7,0.3c-0.2,0.1-0.4,0.3-0.5,0.5
		c-0.1,0.2-0.2,0.4-0.2,0.6c0,0.2,0,0.5,0.1,0.7c0.1,0.2,0.2,0.4,0.4,0.6c0.2,0.2,0.4,0.3,0.8,0.5c0.3,0.1,0.7,0.3,1.1,0.4
		c0.4,0.1,0.7,0.2,0.9,0.3c0.2,0.1,0.4,0.2,0.6,0.3c0.1,0.1,0.2,0.2,0.2,0.3c0,0.1,0.1,0.2,0,0.4c0,0.3-0.2,0.6-0.5,0.8
		c-0.3,0.2-0.7,0.3-1.3,0.3c-0.4,0-0.7-0.1-1-0.4c-0.3-0.2-0.6-0.5-0.8-0.9l0,0l0,0l-0.5,0.3l-0.1,0l0,0.1c0.2,0.3,0.5,0.6,0.9,0.9
		c0.4,0.2,0.9,0.4,1.5,0.4c0.3,0,0.6,0,0.9-0.1c0.3-0.1,0.5-0.2,0.7-0.3c0.2-0.1,0.4-0.3,0.5-0.5c0.1-0.2,0.2-0.4,0.2-0.6
		c0-0.3,0-0.5-0.1-0.7C113.5,40.2,113.3,40,113.2,39.8"/>
	<polygon class="st123" points="123.8,42.3 123.8,39.1 126.1,39.1 126.1,39.1 126.1,39.1 126.1,38.9 126.1,38.9 126.1,38.9 
		123.8,38.9 123.8,36.7 126.7,36.7 126.8,36.7 126.8,36.6 126.8,36.4 126.8,36.4 126.7,36.4 122.9,36.4 122.9,36.4 122.9,36.4 
		122.9,42.5 122.9,42.6 122.9,42.6 126.9,42.6 127,42.6 127,42.5 127,42.3 127,42.3 126.9,42.3 	"/>
	<path class="st123" d="M134.2,39.8c-0.2-0.2-0.4-0.3-0.7-0.5c-0.3-0.1-0.6-0.3-1.1-0.4c-0.4-0.1-0.7-0.2-1-0.3
		c-0.2-0.1-0.4-0.2-0.6-0.3c-0.1-0.1-0.2-0.2-0.3-0.3c-0.1-0.1-0.1-0.2-0.1-0.3c0-0.1,0-0.3,0.1-0.4c0.1-0.2,0.2-0.3,0.3-0.4
		c0.2-0.1,0.3-0.2,0.6-0.3c0.2-0.1,0.5-0.1,0.7-0.1c0.4,0,0.7,0.1,0.9,0.3c0.2,0.2,0.5,0.4,0.8,0.8l0,0l0,0l0.5-0.3l0.1,0l0,0
		c-0.3-0.3-0.6-0.6-1-0.7c-0.4-0.2-0.8-0.2-1.3-0.2h0h0c-0.3,0-0.6,0-0.9,0.1c-0.3,0.1-0.5,0.2-0.7,0.3c-0.2,0.1-0.4,0.3-0.5,0.5
		c-0.1,0.2-0.2,0.4-0.2,0.6c0,0.2,0,0.5,0.1,0.7c0.1,0.2,0.2,0.4,0.4,0.6c0.2,0.2,0.4,0.3,0.8,0.5c0.3,0.1,0.7,0.3,1.1,0.4
		c0.4,0.1,0.7,0.2,0.9,0.3c0.2,0.1,0.4,0.2,0.6,0.3c0.1,0.1,0.2,0.2,0.2,0.3c0,0.1,0.1,0.2,0,0.4c0,0.3-0.2,0.6-0.5,0.8
		c-0.3,0.2-0.7,0.3-1.3,0.3c-0.4,0-0.7-0.1-1-0.4c-0.3-0.2-0.6-0.5-0.8-0.9l0,0l0,0l-0.5,0.3l-0.1,0l0,0.1c0.2,0.3,0.5,0.6,0.9,0.9
		c0.4,0.2,0.9,0.4,1.5,0.4c0.3,0,0.6,0,0.9-0.1c0.3-0.1,0.5-0.2,0.7-0.3c0.2-0.1,0.4-0.3,0.5-0.5c0.1-0.2,0.2-0.4,0.2-0.6
		c0-0.3,0-0.5-0.1-0.7C134.5,40.2,134.4,40,134.2,39.8"/>
	<polygon class="st123" points="137.5,36.4 137.4,36.4 137.4,36.4 137.4,36.6 137.4,36.7 137.5,36.7 139.5,36.7 139.5,42.5 
		139.5,42.6 139.5,42.6 140.3,42.6 140.4,42.6 140.4,42.5 140.4,36.7 142.4,36.7 142.4,36.7 142.4,36.6 142.4,36.4 142.4,36.4 
		142.4,36.4 	"/>
	<polygon class="st123" points="151.7,36.4 151.6,36.4 151.6,36.4 151.6,36.6 151.6,36.7 151.7,36.7 153.7,36.7 153.7,42.5 
		153.7,42.6 153.7,42.6 154.6,42.6 154.6,42.6 154.6,42.5 154.6,36.7 156.6,36.7 156.7,36.7 156.7,36.6 156.7,36.4 156.7,36.4 
		156.6,36.4 	"/>
	<polygon class="st123" points="163.9,42.3 160.8,42.3 160.8,39.1 163,39.1 163.1,39.1 163.1,39.1 163.1,38.9 163.1,38.9 163,38.9 
		160.8,38.9 160.8,36.7 163.7,36.7 163.8,36.7 163.8,36.6 163.8,36.4 163.8,36.4 163.7,36.4 159.9,36.4 159.8,36.4 159.8,36.4 
		159.8,42.5 159.8,42.6 159.9,42.6 163.9,42.6 163.9,42.6 163.9,42.5 163.9,42.3 163.9,42.3 	"/>
	<polygon class="st123" points="147.2,36.4 147.2,36.4 147.1,36.4 146.2,36.4 146.1,36.4 146.1,36.4 146.5,37.2 144.2,42.5 
		144.2,42.6 144.3,42.6 144.6,42.6 144.6,42.6 144.6,42.5 145.5,40.5 147.4,40.5 147.2,40.2 145.6,40.2 146.7,37.6 148.9,42.5 
		148.9,42.6 148.9,42.6 149.8,42.6 149.9,42.6 149.9,42.5 	"/>
	<polygon class="st123" points="40.9,2.7 38.6,2.7 38.6,20 50,20 50,19.5 40.9,19.5 	"/>
	<polygon class="st123" points="12.2,10.9 4.5,10.9 4.5,11.4 12.2,11.4 12.2,20 14.5,20 14.5,2.7 12.2,2.7 	"/>
	<polygon class="st123" points="61.6,2.7 59.3,2.7 59.3,20 70.7,20 70.7,19.5 61.6,19.5 	"/>
	<rect x="0.9" y="2.7" class="st123" width="2.3" height="17.3"/>
	<path class="st123" d="M91.1,12.4L91.1,12.4c-0.4-0.5-1.1-1-1.9-1.3c-0.8-0.4-1.8-0.7-3-1c-1.2-0.3-2.1-0.6-2.8-0.8
		c-0.7-0.3-1.3-0.6-1.6-0.8c-0.4-0.3-0.7-0.5-0.8-0.8c-0.2-0.3-0.3-0.5-0.3-0.8c-0.1-0.4,0-0.9,0.2-1.3c0.2-0.4,0.5-0.9,1-1.2
		c0.4-0.3,1-0.6,1.6-0.9c0.6-0.2,1.3-0.3,2.1-0.3c1.1,0,2,0.3,2.7,0.8C88.8,4.3,89.6,5,90.4,6l1.3-0.8c-0.8-1-1.7-1.6-2.7-2.1
		c-1-0.4-2.2-0.7-3.6-0.7c-0.9,0-1.7,0.1-2.5,0.3c-0.8,0.2-1.4,0.5-2,0.9c-0.6,0.4-1,0.9-1.4,1.4c-0.3,0.6-0.6,1.1-0.6,1.8
		c-0.1,0.6,0,1.3,0.2,1.8c0.2,0.6,0.6,1.1,1.1,1.6c0.5,0.5,1.2,0.9,2.1,1.3c0.9,0.4,1.9,0.8,3.2,1.1c1.1,0.3,2,0.6,2.7,0.8
		c0.7,0.3,1.2,0.5,1.6,0.8c0.4,0.3,0.6,0.6,0.8,0.9c0.1,0.3,0.2,0.7,0.1,1.1c-0.1,1-0.5,1.8-1.5,2.4c-0.9,0.6-2.2,0.9-3.7,0.9
		c-1,0-2-0.4-3-1.1c-0.9-0.7-1.7-1.5-2.3-2.5l-1.5,0.8c0.6,0.9,1.5,1.7,2.6,2.4c1.2,0.7,2.5,1,4.1,1c0.9,0,1.8-0.1,2.5-0.3
		c0.8-0.2,1.5-0.5,2.1-0.9c0.6-0.4,1.1-0.9,1.5-1.4c0.4-0.5,0.6-1.1,0.7-1.8c0.1-0.7,0-1.3-0.2-1.9C91.9,13.4,91.5,12.9,91.1,12.4"
		/>
	<rect x="25.4" y="2.7" class="st123" width="2.3" height="17.3"/>
	<rect x="184.4" y="2.7" class="st123" width="2.3" height="17.3"/>
	<polygon class="st123" points="190.1,10.2 197.4,2.7 196.6,2.7 188.1,11.4 196.8,20 199.9,20 	"/>
	<polygon class="st123" points="140,2.7 141.1,5 134.7,20 135.4,20 137.9,14.1 143.9,14.1 143.7,13.6 138.1,13.6 141.5,5.5 
		147.9,20 150.3,20 142.8,2.7 	"/>
	<path class="st123" d="M127.5,6c-0.4-0.7-0.9-1.3-1.7-1.8h0c-0.7-0.5-1.6-0.9-2.6-1.1c-1-0.3-2.2-0.4-3.5-0.4h-4.9V20h2.3V3.2h2.5
		c2.2,0,3.8,0.5,4.9,1.4c1,0.9,1.6,2.2,1.6,3.8c-0.1,1.6-0.6,2.9-1.7,3.9c-1,0.9-2.6,1.4-4.7,1.4h-1.3v0.5h1.3
		c1.3,0,2.5-0.1,3.5-0.4c1-0.3,1.9-0.6,2.7-1.2c0.7-0.5,1.3-1.1,1.7-1.8c0.4-0.7,0.6-1.5,0.6-2.5C128.1,7.5,127.9,6.7,127.5,6"/>
	<path class="st123" d="M174.3,19.4c-0.6,0-1.2-0.3-1.2-0.3c-0.4-0.2-0.8-0.5-1.2-1c-0.4-0.4-0.8-0.8-1.1-1.2
		c-0.3-0.3-0.6-0.8-1.1-1.3c-0.1-0.1-0.3-0.4-0.4-0.5c-0.8-1-1.4-1.5-1.5-1.6c-0.2-0.2-0.5-0.4-1.3-0.8c1.9-0.1,3.4-0.6,4.5-1.5
		c1.1-0.9,1.6-2.1,1.6-3.6c0-1.5-0.6-2.8-1.8-3.6c-1.2-0.9-2.9-1.3-5.1-1.3h-5.9V20h2.3v-7.3h0v-0.5h0v0v-9h3.5
		c0.9,0,1.6,0.1,2.2,0.3c0.6,0.2,1.1,0.5,1.5,0.9c0.4,0.4,0.6,0.8,0.8,1.4c0.1,0.5,0.2,1.2,0.2,1.9c0,0.7-0.1,1.4-0.3,1.9
		c-0.2,0.6-0.4,1-0.8,1.4c-0.4,0.4-0.8,0.7-1.4,0.9c-0.6,0.2-1.3,0.3-2.1,0.3h-2.3v0.5c0.7,0.1,1.3,0.7,2.3,1.8l3,3.5l0.1,0.1
		c0,0,0.1,0.1,0.1,0.1c1,1.1,2.3,1.6,4,1.6h1.9v-0.6H174.3z"/>
	<path class="st123" d="M58.1,41.4c-0.1,0.2-0.1,0.3-0.3,0.4c-0.1,0.1-0.3,0.2-0.5,0.3c-0.2,0.1-0.4,0.1-0.7,0.1h-1.5v-5.5l1.2,0
		c0.2,0,0.4,0,0.6,0.1c0.1,0,0.3,0.1,0.4,0.2c0.1,0.1,0.2,0.2,0.2,0.3c0,0.2,0.1,0.3,0.1,0.5c0,0.2,0,0.4-0.1,0.6
		c-0.1,0.2-0.1,0.3-0.2,0.4c-0.1,0.1-0.2,0.2-0.3,0.2c-0.1,0.1-0.2,0.1-0.3,0.1c-0.1,0-0.1,0-0.2,0h-0.7v0.3h0.7c0.1,0,0.1,0,0.2,0
		c0.1,0,0.2,0,0.3,0.1c0.1,0,0.3,0.1,0.4,0.1c0.1,0.1,0.3,0.2,0.4,0.2c0.1,0.1,0.2,0.2,0.3,0.4c0.1,0.2,0.1,0.3,0.1,0.5
		C58.2,41,58.1,41.2,58.1,41.4 M56.7,42.5C56.7,42.5,56.6,42.5,56.7,42.5C56.7,42.5,56.7,42.5,56.7,42.5
		C56.7,42.5,56.7,42.5,56.7,42.5 M58.6,39.7c-0.3-0.2-0.7-0.4-1.2-0.5c0.3-0.1,0.5-0.3,0.6-0.4c0.2-0.2,0.3-0.5,0.3-0.8v-0.1
		c0-0.4-0.2-0.8-0.6-1c-0.4-0.2-0.8-0.4-1.5-0.4h0h0h-1.2h-0.8h-0.1v0.1v6.1v0.1h0.1h2.4h0.1c0.7,0,1.3-0.1,1.7-0.4
		c0.4-0.3,0.7-0.7,0.7-1.3l0-0.1C59.1,40.3,58.9,39.9,58.6,39.7"/>
</g>
</svg>
