<?xml version="1.0" encoding="UTF-8" standalone="no"?>
<!DOCTYPE svg PUBLIC "-//W3C//DTD SVG 1.1//EN" "http://www.w3.org/Graphics/SVG/1.1/DTD/svg11.dtd">
<svg width="100%" height="100%" viewBox="0 0 3447 2535" version="1.1" xmlns="http://www.w3.org/2000/svg" xmlns:xlink="http://www.w3.org/1999/xlink" xml:space="preserve" xmlns:serif="http://www.serif.com/" style="fill-rule:evenodd;clip-rule:evenodd;stroke-linejoin:round;stroke-miterlimit:2;">
    <g transform="matrix(5.55556,0,0,5.55556,-1273.4,-1551.07)">
        <g id="Layer-1" serif:id="Layer 1">
            <g transform="matrix(1,0,0,1,327.949,681.984)">
                <path d="M0,52.734L-13.334,33.599L-2.863,33.599L10.547,52.734L0,52.734ZM-24.709,34.051L-29.003,29.305L-13.259,29.305C-8.94,29.305 -5.687,28.377 -3.503,26.517C-1.318,24.66 -0.226,22.073 -0.226,18.758C-0.226,15.444 -1.318,12.871 -3.503,11.037C-5.687,9.204 -8.94,8.287 -13.259,8.287L-29.003,8.287L-24.709,3.465L-24.709,34.051ZM-34.503,52.734L-34.503,0L-12.807,0C-8.136,0 -4.131,0.742 -0.791,2.222C2.548,3.705 5.123,5.851 6.931,8.664C8.739,11.477 9.643,14.84 9.643,18.758C9.643,22.627 8.739,25.941 6.931,28.703C5.123,31.465 2.548,33.599 -0.791,35.106C-4.131,36.613 -8.136,37.366 -12.807,37.366L-29.003,37.366L-24.709,32.997L-24.709,52.734L-34.503,52.734Z" style="fill:rgb(117,170,224);fill-rule:nonzero;"/>
            </g>
            <g transform="matrix(1,0,0,1,0,336.701)">
                <path d="M357.554,367.205L383.77,367.205L383.77,375.266L357.554,375.266L357.554,367.205ZM358.308,389.73L388.064,389.73L388.064,398.017L348.514,398.017L348.514,345.282L387.01,345.282L387.01,353.57L358.308,353.57L358.308,389.73Z" style="fill:rgb(117,170,224);fill-rule:nonzero;"/>
            </g>
            <g transform="matrix(1,0,0,1,402.453,694.188)">
                <path d="M0,28.326L2.712,20.641L31.113,20.641L33.75,28.326L0,28.326ZM-10.923,40.53L12.807,-12.204L22.45,-12.204L46.255,40.53L35.935,40.53L15.594,-7.006L19.512,-7.006L-0.904,40.53L-10.923,40.53Z" style="fill:rgb(117,170,224);fill-rule:nonzero;"/>
            </g>
            <g transform="matrix(1,0,0,1,455.413,681.984)">
                <path d="M0,52.734L0,0L9.793,0L9.793,44.447L37.366,44.447L37.366,52.734L0,52.734Z" style="fill:rgb(117,170,224);fill-rule:nonzero;"/>
            </g>
            <g transform="matrix(1,0,0,1,0,336.701)">
                <path d="M530.369,367.205L556.585,367.205L556.585,375.266L530.369,375.266L530.369,367.205ZM531.123,389.73L560.879,389.73L560.879,398.017L521.329,398.017L521.329,345.282L559.825,345.282L559.825,353.57L531.123,353.57L531.123,389.73Z" style="fill:rgb(117,170,224);fill-rule:nonzero;"/>
            </g>
            <g transform="matrix(1,0,0,1,588.15,681.231)">
                <path d="M0,54.24C-4.119,54.24 -8.049,53.649 -11.79,52.47C-15.532,51.291 -18.532,49.771 -20.792,47.912L-17.402,40.303C-15.292,41.961 -12.682,43.343 -9.567,44.447C-6.454,45.552 -3.265,46.104 0,46.104C2.762,46.104 4.997,45.802 6.705,45.2C8.412,44.597 9.668,43.782 10.472,42.752C11.274,41.723 11.677,40.555 11.677,39.249C11.677,37.642 11.099,36.348 9.944,35.369C8.789,34.389 7.295,33.612 5.462,33.034C3.628,32.457 1.594,31.929 -0.64,31.452C-2.875,30.975 -5.111,30.386 -7.345,29.681C-9.58,28.978 -11.627,28.088 -13.484,27.007C-15.343,25.928 -16.837,24.483 -17.967,22.676C-19.097,20.867 -19.662,18.558 -19.662,15.745C-19.662,12.882 -18.897,10.259 -17.364,7.872C-15.833,5.487 -13.498,3.578 -10.358,2.147C-7.22,0.716 -3.239,0 1.582,0C4.746,0 7.884,0.402 10.999,1.205C14.112,2.01 16.825,3.164 19.135,4.671L16.046,12.279C13.685,10.874 11.25,9.831 8.739,9.153C6.227,8.475 3.816,8.136 1.507,8.136C-1.156,8.136 -3.34,8.463 -5.047,9.115C-6.755,9.768 -7.998,10.635 -8.776,11.715C-9.556,12.795 -9.944,13.987 -9.944,15.293C-9.944,16.9 -9.379,18.193 -8.249,19.173C-7.119,20.152 -5.638,20.918 -3.804,21.47C-1.971,22.023 0.076,22.551 2.335,23.053C4.596,23.554 6.83,24.144 9.041,24.822C11.25,25.501 13.284,26.38 15.143,27.459C17,28.54 18.495,29.971 19.625,31.753C20.755,33.537 21.32,35.809 21.32,38.571C21.32,41.385 20.554,43.983 19.022,46.368C17.49,48.754 15.143,50.662 11.979,52.094C8.814,53.525 4.822,54.24 0,54.24" style="fill:rgb(117,170,224);fill-rule:nonzero;"/>
            </g>
            <g transform="matrix(1,0,0,1,629.132,681.984)">
                <path d="M0,52.734L0,8.287L-17.478,8.287L-17.478,0L27.271,0L27.271,8.287L9.793,8.287L9.793,52.734L0,52.734Z" style="fill:rgb(117,170,224);fill-rule:nonzero;"/>
            </g>
            <g transform="matrix(1,0,0,1,664.615,694.188)">
                <path d="M0,28.326L2.712,20.641L31.113,20.641L33.75,28.326L0,28.326ZM-10.923,40.53L12.807,-12.204L22.45,-12.204L46.255,40.53L35.935,40.53L15.594,-7.006L19.512,-7.006L-0.904,40.53L-10.923,40.53Z" style="fill:rgb(117,170,224);fill-rule:nonzero;"/>
            </g>
            <g transform="matrix(1,0,0,1,725.636,681.984)">
                <path d="M0,52.734L0,8.287L-17.478,8.287L-17.478,0L27.271,0L27.271,8.287L9.793,8.287L9.793,52.734L0,52.734Z" style="fill:rgb(117,170,224);fill-rule:nonzero;"/>
            </g>
            <g transform="matrix(1,0,0,1,0,336.701)">
                <path d="M769.329,367.205L795.545,367.205L795.545,375.266L769.329,375.266L769.329,367.205ZM770.083,389.73L799.839,389.73L799.839,398.017L760.289,398.017L760.289,345.282L798.785,345.282L798.785,353.57L770.083,353.57L770.083,389.73Z" style="fill:rgb(117,170,224);fill-rule:nonzero;"/>
            </g>
            <g transform="matrix(1,0,0,1,335.117,500.746)">
                <path d="M0,68.602L23.129,68.602C30.471,68.602 36.843,67.212 42.247,64.432C47.648,61.655 51.845,57.666 54.834,52.474C57.824,47.282 59.318,41.224 59.318,34.301C59.318,27.274 57.824,21.19 54.834,16.049C51.845,10.911 47.648,6.95 42.247,4.169C36.843,1.392 30.471,-0 23.129,-0L0,-0L0,68.602ZM-25.647,81.956L-25.647,-13.355C-25.647,-17.45 -22.327,-20.77 -18.232,-20.77L24.388,-20.77C36.347,-20.77 46.889,-18.488 56.015,-13.925C65.14,-9.362 72.272,-2.963 77.413,5.271C82.551,13.507 85.123,23.184 85.123,34.301C85.123,45.42 82.551,55.097 77.413,63.331C72.272,71.567 65.14,77.963 56.015,82.527C46.889,87.09 36.347,89.372 24.388,89.372L-18.232,89.372C-22.327,89.372 -25.647,86.051 -25.647,81.956" style="fill:rgb(51,47,140);fill-rule:nonzero;"/>
            </g>
            <g transform="matrix(1,0,0,1,498.596,591.376)">
                <path d="M0,-85.911L0,-43.9C0,-38.865 -0.866,-34.667 -2.597,-31.313C-4.327,-27.953 -6.663,-25.436 -9.599,-23.76C-12.536,-22.08 -15.892,-21.243 -19.668,-21.243C-25.124,-21.243 -29.345,-22.894 -32.334,-26.199C-35.324,-29.502 -36.818,-34.72 -36.818,-41.854L-36.818,-85.911L-61.365,-85.911L-61.365,-38.078C-61.365,-29.476 -59.845,-22.343 -56.801,-16.68C-53.76,-11.015 -49.512,-6.818 -44.057,-4.092C-38.604,-1.363 -32.31,0 -25.175,0C-18.672,0 -12.694,-1.495 -7.238,-4.485C-4.016,-6.252 -1.244,-8.536 1.101,-11.309L1.101,-1.259L24.388,-1.259L24.388,-85.911L0,-85.911Z" style="fill:rgb(51,47,140);fill-rule:nonzero;"/>
            </g>
            <g transform="matrix(1,0,0,1,610.231,504.364)">
                <path d="M0,56.015C-1.942,59.582 -4.512,62.284 -7.71,64.119C-10.911,65.955 -14.555,66.871 -18.646,66.871C-22.736,66.871 -26.41,65.955 -29.66,64.119C-32.912,62.284 -35.508,59.582 -37.448,56.015C-39.39,52.45 -40.359,48.253 -40.359,43.427C-40.359,38.498 -39.39,34.302 -37.448,30.84C-35.508,27.379 -32.912,24.731 -29.66,22.894C-26.41,21.06 -22.736,20.14 -18.646,20.14C-14.555,20.14 -10.911,21.06 -7.71,22.894C-4.512,24.731 -1.942,27.379 0,30.84C1.94,34.302 2.911,38.498 2.911,43.427C2.911,48.253 1.94,52.45 0,56.015M22.186,20.455C18.461,13.952 13.426,8.89 7.08,5.271C0.732,1.653 -6.479,-0.157 -14.555,-0.157C-21.583,-0.157 -27.771,1.417 -33.121,4.564C-35.642,6.046 -37.89,7.904 -39.887,10.108L-39.887,-30.997L-64.433,-30.997L-64.433,85.753L-40.988,85.753L-40.988,76.029C-38.852,78.614 -36.368,80.737 -33.515,82.37C-28.113,85.465 -21.792,87.012 -14.555,87.012C-6.479,87.012 0.732,85.202 7.08,81.583C13.426,77.964 18.461,72.905 22.186,66.4C25.908,59.897 27.771,52.239 27.771,43.427C27.771,34.616 25.908,26.96 22.186,20.455" style="fill:rgb(51,47,140);fill-rule:nonzero;"/>
            </g>
            <g transform="matrix(1,0,0,1,696.297,523.561)">
                <path d="M0,48.462C-3.304,50.35 -7.056,51.294 -11.25,51.294C-15.447,51.294 -18.778,50.377 -21.241,48.541C-23.707,46.706 -24.938,44.214 -24.938,41.067C-24.938,38.234 -23.864,35.874 -21.713,33.985C-19.564,32.098 -15.604,31.154 -9.834,31.154L7.002,31.154L7.002,39.809C5.638,43.69 3.305,46.573 0,48.462M20.848,-10.227C13.714,-16.31 3.698,-19.354 -9.205,-19.354C-15.918,-19.354 -22.527,-18.488 -29.03,-16.757C-35.535,-15.026 -41.093,-12.482 -45.708,-9.126L-37.054,8.024C-33.908,5.612 -30.158,3.697 -25.804,2.281C-21.453,0.865 -17.02,0.157 -12.509,0.157C-5.9,0.157 -0.998,1.628 2.203,4.563C5.401,7.501 7.002,11.592 7.002,16.836L7.002,16.993L-12.352,16.993C-21.059,16.993 -28.085,18.043 -33.436,20.141C-38.785,22.239 -42.694,25.202 -45.158,29.029C-47.624,32.859 -48.855,37.238 -48.855,42.168C-48.855,46.994 -47.572,51.348 -45,55.228C-42.431,59.109 -38.785,62.178 -34.065,64.433C-29.344,66.687 -23.734,67.816 -17.229,67.816C-9.782,67.816 -3.697,66.374 1.023,63.487C4.22,61.534 6.726,59.026 8.575,55.99L8.575,66.557L31.548,66.557L31.548,18.252C31.548,5.349 27.98,-4.142 20.848,-10.227" style="fill:rgb(51,47,140);fill-rule:nonzero;"/>
            </g>
            <g transform="matrix(1,0,0,1,0,15.582)">
                <rect x="750.029" y="489.883" width="24.546" height="84.652" style="fill:rgb(51,47,140);"/>
            </g>
            <g transform="matrix(1,0,0,1,229.213,640.27)">
                <path d="M0,-5L620.425,-2.5L0,0L0,-5Z" style="fill:rgb(117,170,224);fill-rule:nonzero;"/>
            </g>
            <g transform="matrix(1,0,0,1,828.648,281.6)">
                <path d="M0,186.651L-290.781,5.963L-286.132,5.963L-581.563,178.945L-290.782,-1.743C-289.348,-2.634 -287.602,-2.601 -286.239,-1.807L-286.132,-1.743L9.299,171.239C13.588,173.751 15.03,179.264 12.518,183.554C10.006,187.844 4.493,189.285 0.203,186.774C0.147,186.74 0.055,186.685 0,186.651" style="fill:rgb(117,170,224);fill-rule:nonzero;"/>
            </g>
        </g>
    </g>
</svg>
