<svg id="Layer_1" data-name="Layer 1" xmlns="http://www.w3.org/2000/svg" viewBox="0 0 19.65 15.13"><defs><style>.cls-1{fill:#999;fill-rule:evenodd;}</style></defs><path class="cls-1" d="M12,4.36a2.56,2.56,0,0,0,.29-1.17,2.7,2.7,0,0,0-5.4,0A2.66,2.66,0,0,0,9.54,5.8a2.73,2.73,0,0,0,1.53-.46l.27.89h.95v1h1v.9h1.19V6.92Z" transform="translate(-0.35 -0.59)"/><polygon class="cls-1" points="0 6.61 3.97 6.61 3.97 13.68 0 13.68 0 6.61 0 6.61"/><path class="cls-1" d="M5.12,13.67V7.76H7.77a10.05,10.05,0,0,1,3.38,1.53h2.07c.93.05,1.42,1,.51,1.62a3.82,3.82,0,0,1-2.66.41.45.45,0,1,0,0,.88c.25,0,.51,0,.75,0A3,3,0,0,0,14.66,11l.31-.72L18,8.72a1.35,1.35,0,0,1,1.49,2.22,40.93,40.93,0,0,1-6.83,4,4.64,4.64,0,0,1-5.08,0l-2.5-1.29Z" transform="translate(-0.35 -0.59)"/></svg>